<svg width="1345" height="1345" viewBox="0 0 1345 1345" fill="none" xmlns="http://www.w3.org/2000/svg">
<g clip-path="url(#clip0_334_2)">
<path d="M672.43 1324.09C1032.33 1324.09 1324.08 1032.34 1324.08 672.44C1324.08 312.544 1032.33 20.79 672.43 20.79C312.534 20.79 20.78 312.544 20.78 672.44C20.78 1032.34 312.534 1324.09 672.43 1324.09Z" fill="#384041"/>
<path d="M837.387 727.996C928.492 636.891 928.492 489.18 837.387 398.074C746.282 306.969 598.571 306.969 507.465 398.074C416.36 489.18 416.36 636.891 507.465 727.996C598.57 819.102 746.282 819.102 837.387 727.996Z" fill="#FEAA3A"/>
<path d="M1119.65 1155.85C1001.77 1258.9 851.961 1318.15 695.485 1323.61C539.009 1329.08 385.433 1280.42 260.65 1185.85C303.94 986.41 481.47 837.1 693.93 837.1C895.57 837.15 1065.72 971.6 1119.65 1155.85Z" fill="#FEAA3A"/>
<path d="M672.43 1344.87C301.65 1344.87 -0.00012207 1043.22 -0.00012207 672.44C-0.00012207 301.66 301.65 0 672.43 0C1043.21 0 1344.86 301.66 1344.86 672.44C1344.86 1043.22 1043.21 1344.87 672.43 1344.87ZM672.43 41.56C324.56 41.56 41.5599 324.56 41.5599 672.44C41.5599 1020.32 324.56 1303.31 672.43 1303.31C1020.3 1303.31 1303.3 1020.31 1303.3 672.44C1303.3 324.57 1020.3 41.56 672.43 41.56Z" fill="#384041"/>
</g>
<defs>
<clipPath id="clip0_334_2">
<rect width="1344.86" height="1344.87" fill="white"/>
</clipPath>
</defs>
</svg>
