<svg width="2146" height="1746" viewBox="0 0 2146 1746" fill="none" xmlns="http://www.w3.org/2000/svg">
<path d="M1903.51 1372.73C1907.9 1416.1 1913.83 1461.48 1902.58 1466.72C1900.68 1469.67 1897.57 1471.69 1893.75 1472.44C1887.18 1473.8 1879.73 1472.09 1873.42 1472.35C1870.05 1472.55 1860.58 1445.49 1854.39 1436.4C1842.61 1418.88 1842.56 1437.14 1833.15 1428.42C1803.98 1393.13 1761.97 1294.42 1755.03 1349.55C1747.31 1322.46 1755.86 1322.08 1754.18 1322.17C1727.56 1277.58 1712.92 1287.35 1713.72 1333C1704.3 1287.77 1707.78 1269.3 1702.67 1232.96C1684.72 1206.35 1676.88 1215.8 1669.14 1225.27C1668.22 1213.26 1665.94 1201.09 1662.31 1188.95C1651.95 1207.68 1620.16 1163.37 1621.82 1218.11C1625.27 1217.94 1614.1 1191.03 1620.12 1199.91C1617.51 1227.43 1609.74 1255.13 1633.74 1327.25C1627.98 1315.43 1622.83 1303.47 1618.32 1291.43C1620.88 1300.45 1626.03 1318.5 1626.88 1327.61L1622.54 1318.64C1639.72 1354.45 1654.33 1362.96 1669.77 1398.84C1695.53 1452.56 1687.76 1498.58 1681.11 1509.79C1677.97 1514.22 1673.89 1515.77 1668.83 1513.62C1663.77 1511.48 1657.72 1505.91 1650.57 1496.02C1644.65 1486.78 1638.45 1476.26 1632.1 1464.65C1625.74 1453.05 1619.21 1440.36 1612.55 1426.58C1605.12 1411.49 1597.69 1396.33 1590.43 1381.58L1569.19 1339.2C1571.77 1348.23 1574.34 1357.25 1578.63 1366.21C1560.6 1321.3 1544.29 1258.03 1526.25 1231.39C1533.11 1249.38 1535.69 1258.41 1540.84 1276.44C1515.87 1213.53 1499.59 1205.11 1495.26 1232.72C1500.44 1232.52 1507.3 1232.21 1512.49 1231.99L1509.11 1232.18C1525.38 1277.12 1535.02 1329.33 1541.47 1379.22C1543.56 1395.74 1545.3 1412.02 1546.75 1427.51C1548.54 1467.99 1557.99 1531.55 1539.08 1514.09C1503.82 1469.94 1471.19 1434.81 1450.46 1453.94C1442.72 1463.41 1410.04 1373.44 1391.96 1346.8C1385.93 1337.92 1380.79 1338.14 1379.92 1347.32L1387.67 1374.38C1386.82 1383.57 1379.06 1374.77 1375.63 1374.92C1352.42 1348.51 1317.93 1258.56 1303.53 1277.23C1301.12 1281.37 1299.74 1290.03 1299.11 1303.29C1297.39 1296.12 1292.22 1278.07 1291.4 1268.98C1288.03 1269.18 1291.42 1287.27 1296.6 1305.32C1293.14 1287.19 1287.97 1269.14 1284.52 1251.01C1285.37 1260.11 1283.66 1260.18 1284.52 1269.3C1282.11 1257.13 1280.38 1245 1279.34 1232.95C1279.1 1241.75 1278.04 1250.34 1276.16 1258.65C1276.88 1278.83 1269.95 1279.12 1262.23 1270.34L1237.28 1251.09C1233.19 1247.94 1229.07 1244.78 1224.86 1241.39C1188.31 1200.58 1146.96 1147.65 1123.79 1157.87C1128.94 1157.64 1134.11 1157.34 1141.85 1166.18C1130.66 1157.56 1121.19 1148.84 1117.79 1167.3C1116.91 1158.19 1118.63 1158.1 1120.36 1158.03C1118.67 1158.12 1115.19 1158.26 1116.07 1167.37C1125.63 1212.65 1141.07 1230.2 1151.47 1248.07C1112.7 1188.9 1105.19 1242.57 1121.98 1341.49C1125.33 1361.26 1129.65 1382.86 1134.82 1405.53C1161.74 1531.13 1118.82 1496.54 1085.09 1415.8C1073.83 1388.88 1063.47 1371.07 1054.01 1362.37C1038.58 1363.08 1017.02 1336.64 1004.2 1346.38C999.056 1346.62 1015.54 1391.59 1017.4 1409.83C1013.88 1391.68 1005.23 1373.8 1003.53 1373.88C997.566 1383.3 1027.1 1473.4 1019.34 1464.65C1001.24 1438.07 977.633 1338.54 958.536 1321.5C952.607 1313.15 947.329 1307.58 942.747 1304.59C938.163 1301.59 934.322 1301.26 931.062 1303.17C927.808 1305.08 925.257 1309.23 923.221 1315.29C886.597 1324.51 903.162 1524.97 825.94 1373.1C841.49 1390.69 871.151 1480.76 877.098 1471.35C897.439 1433.81 903.921 1360.35 934.551 1356.05C938.417 1356.69 943.188 1360.05 949.413 1367.38C943.514 1363.76 939.483 1364.46 936.451 1367.67C910.997 1396.4 901.071 1470.06 885.085 1516.54C879.206 1544.23 822.67 1391.34 794.305 1363.22C786.756 1352.94 779.506 1344.63 772.612 1338.85C759.677 1330.31 767.695 1375.66 777.414 1420.94C802.963 1520.38 847.878 1591.44 859.607 1673.23C868.543 1727.69 838.158 1665.06 823.992 1643.95C818.319 1633.23 812.466 1621.56 806.578 1609.63C794.777 1585.77 782.9 1560.96 772.154 1540.05C779.135 1558.03 784.404 1576.08 793.086 1593.98C789.727 1603.27 787.001 1614.78 782.263 1618.49C777.521 1622.21 770.702 1618 759.801 1596.64C723.159 1514.91 702.718 1415.25 676.367 1325L681.633 1343.05C677.286 1334.11 672.933 1325.16 673.846 1334.27C676.629 1361.59 691.486 1406.61 696.935 1442.96C695.039 1424.74 688.881 1397.6 685.319 1379.47C688.881 1397.6 690.687 1415.79 694.302 1433.94C691.663 1424.92 693.352 1424.82 690.719 1415.8C695.97 1433.85 702.218 1461.02 701.539 1470.18C698.542 1455.11 694.691 1440.02 690.005 1424.98C693.617 1443.11 698.889 1461.16 702.5 1479.31C706.53 1469.91 694.279 1433.89 694.145 1415.6C695.08 1424.71 697.713 1433.73 698.642 1442.84C697.424 1433.58 697.07 1424.41 697.578 1415.45C694.201 1415.65 693.361 1424.78 698.642 1442.84C695.993 1433.82 697.713 1433.73 695.08 1424.71C696.01 1433.81 701.265 1451.85 702.227 1460.98C702.963 1451.77 702.093 1442.68 711.695 1469.67C705.888 1454.74 700.912 1439.7 696.794 1424.62C708.275 1469.84 723.133 1514.87 731.232 1560.24C724.861 1533.08 716.347 1496.9 709.981 1469.75C722.318 1524.04 733.194 1578.47 745.726 1632.79C731.483 1578.59 730.041 1532.8 712.781 1497.06C699.868 1470.27 713.327 1533.72 713.646 1552.1C718.622 1551.81 705.124 1488.37 714.775 1515.37C751.099 1605.06 755.275 1705.69 747.505 1733.95C745.675 1740.48 742.962 1744.29 739.569 1745.68C726.437 1744.03 708.982 1735.87 680.987 1664.04C692.312 1690.91 700.945 1708.82 711.229 1726.54C700.953 1708.78 686.335 1682.09 687.974 1681.99C679.827 1609.06 694.418 1589.89 703.409 1557.29C705.253 1545.83 706.046 1534.04 705.776 1522.04C704.941 1482.11 693.134 1426.01 656.958 1335.17C609.169 1215.58 567.137 1145.01 528.301 1097.36C520.543 1087.84 512.902 1079.22 505.383 1071.32C445.837 998.541 377.066 892.345 386.779 1056.89C387.44 1093.55 405.913 1165.89 428.986 1223.7C436.97 1244.65 445.144 1265.34 453.337 1285.94C477.96 1347.61 503.012 1408.11 525.38 1471.06C554.865 1551.95 590.11 1568.31 602.56 1543.9C606.058 1540.55 608.874 1535.37 610.734 1528.02C616.275 1505.94 613.103 1464.29 595.755 1393.72C586.768 1357.55 576.012 1344.38 564.307 1335.86C558.443 1331.61 552.403 1328.5 546.383 1324.28C539.733 1314.31 534.686 1314.61 528.645 1305.78C541.788 1332.56 558.243 1359.15 564.629 1386.31C582.091 1467.87 561.908 1496.52 532.844 1433.93C512.626 1389.21 487.019 1331.02 462.804 1269.31C454.75 1248.75 446.854 1227.78 439.41 1206.81C424.449 1164.85 413.204 1110.44 411.866 1082.99C413.204 1110.44 421.733 1155.83 436.971 1200.23C443.705 1219.38 450.796 1238.34 458.073 1257.04C479.928 1313.13 503.34 1366.85 524.112 1416.13C558.508 1496.74 556.887 1423.46 571.775 1418.18C574.939 1413.34 578.244 1408.53 581.688 1404.31C584.704 1400.38 588.285 1396.9 592.375 1393.94C598.057 1384.51 613.126 1475.32 611.833 1493.73C609.688 1500.26 607.058 1506.56 603.963 1512.6C588.565 1540.9 565.115 1597.26 504.022 1417.25C554.257 1561.2 587.974 1550.12 605.917 1528.98C608.28 1521.16 609.525 1512.88 609.63 1504.33C610.346 1483.54 607.364 1453.63 599.414 1411.88C593.065 1384.72 576.645 1358.13 578.624 1376.35C579.539 1390.32 579.507 1404.14 578.538 1417.72C571.653 1450.15 567.879 1505.37 537.249 1442.85C508.751 1389.41 477.826 1315.74 449.071 1235.15C441.885 1215.01 435.004 1194.41 429.105 1173.55C399.61 1065.35 408.979 1009.79 439.51 1053.91C405.231 991.654 402.267 1074.35 432.121 1181.7C440.304 1208.86 449.851 1236.04 459.607 1262.24C518.332 1419.48 581.206 1542.21 573.945 1407.9C573.542 1391.55 572.184 1375.04 569.882 1358.43C565.185 1331.17 586.76 1357.44 593.012 1384.65C610.651 1457.95 614.545 1500.66 610.056 1523.61C608.565 1531.27 606.152 1536.73 603.029 1540.38C589.035 1559.16 565.794 1560.46 532.392 1488.96C500.018 1414.35 468.162 1314.25 432.285 1226.05C425.203 1208.4 418.015 1191.23 410.749 1174.82C363.923 1021.51 386.148 974.368 408.417 973.113C436.813 980.676 482.223 1051.49 520.864 1101.64C529.191 1111.7 538.164 1125.64 547.297 1140.26C556.422 1154.88 565.712 1170.22 574.755 1183.06C584.048 1198.68 593.498 1215.36 603.101 1233.08C622.237 1268.56 642.079 1308.52 662.208 1353.22C686.869 1406.86 700.844 1476.6 702.262 1516.05C702.805 1529.21 701.806 1539.01 699.39 1543.8C677.332 1572.56 683.984 1691.43 641.906 1657.12C647.354 1574.25 673.124 1471.9 637.317 1373.02C607.531 1290.3 575.537 1228.27 544.669 1183.92C537.566 1173.65 529.931 1163.63 521.797 1153.91C483.329 1124.85 428.286 1045.39 423.802 1128.2C428.862 1127.9 424.147 1100.66 431.959 1109.39C425.85 1100.57 433.297 1136.84 421.834 1109.99C431.082 1054.44 479.264 1134.27 509.256 1155.27C516.787 1162.82 524.472 1171.03 532.312 1180.11C571.326 1225.42 612.75 1291.87 652.081 1399.72C647.487 1372.47 632.562 1327.45 622.198 1309.69C595.016 1271.47 565.583 1227.27 537.344 1188.77C530.289 1179.14 523.303 1169.88 516.533 1161.18C479.111 1116 431.171 1054.49 424.67 1119.07C448.439 1117.73 478.63 1143.54 508.694 1169.36C515.1 1175.52 521.167 1181.96 526.867 1188.65C557.267 1224.2 587.936 1277.25 615.406 1355.96C662.318 1490.91 651.681 1563.05 626.401 1603.36C624.286 1606.73 622.07 1609.87 619.776 1612.82C595.826 1632.2 578.64 1724.9 500.808 1518.31C531.037 1589.99 571.586 1679.47 578.807 1642.33C560.528 1670.88 508.144 1508.72 471.806 1428.22C451.434 1383.5 443.477 1402.29 440.026 1430.01C448.961 1420.34 450.972 1365.19 462.977 1410.37C499.602 1536.71 443.209 1484.86 424.254 1495.1L455.932 1493.32C445.342 1503.09 430.341 1503.93 411.673 1488.4C406.79 1485.28 401.883 1481.77 396.944 1478.26C401.404 1470.44 416.792 1515 419.064 1499.68C412.495 1492.54 406.595 1487.2 400.573 1479.92C394.551 1472.64 388.316 1463.56 381.217 1448.8C384.133 1463.79 391.023 1486.13 395.595 1501.02C386.568 1479.5 379.567 1457.69 374.684 1435.85C370.387 1417.34 367.829 1398.87 367.052 1380.66C369.413 1388.31 367.717 1388.37 370.059 1396.01C367.717 1388.37 367.052 1380.66 364.687 1372.96C360.33 1381.01 363.012 1402.18 366.31 1423.96C369.601 1445.73 373.582 1468.19 372.014 1479.64C363.412 1457.38 360.946 1427.23 345.632 1405.24C346.301 1412.91 353.199 1435.23 351.525 1435.34C340.798 1428.38 360.853 1303.51 333.722 1383.31C335.587 1405.92 344.192 1428.18 346.059 1450.78C314.753 1338.88 276.967 1383.88 299.775 1205.85C287.538 1220.15 242.991 1251.99 245.328 1259.43C241.304 1252.08 236.715 1237.19 232.661 1229.83C225.265 1222.67 234.527 1252.43 233.516 1260.1C223.142 1237.93 216.178 1215.62 205.804 1193.45C208.121 1200.9 212.727 1215.79 215.112 1223.23C201.748 1186.02 187.6 1179.34 181.847 1172.11C140.109 1121.43 88.9176 1003.11 43.9279 899.619L44.5737 907.172C18.045 817.752 0.778983 735.414 0 682.421L12.2352 704.464C21.5057 711.516 15.0076 673.989 24.3107 681.04C34.1758 695.645 41.9977 700.882 49.2961 705.208C56.5939 709.535 169.029 1006.2 71.22 723.856C45.0147 648.138 133.816 856.684 155.542 870.61C173.582 881.494 191.617 892.162 206.903 893.261C213.464 893.746 220.98 894.393 226.174 888.833C231.375 883.272 234.128 871.7 231.124 847.554C208.38 745.89 250.15 807.739 260.165 788.83C245.745 752.968 237.094 753.443 225.38 726.585C236.688 720.432 249.311 718.365 262.148 717.17L275.298 716.148C314.43 712.401 349.786 701.231 381.665 671.915C336.396 656.128 296.453 658.367 253.014 646.85C248.057 646.642 243.293 646.63 238.588 646.814C224.804 647.518 211.364 649.32 198.411 652.193C193.285 654.353 188.387 656.542 184.624 658.641C181.399 660.723 179.425 662.719 180.026 664.597C187.549 689.136 92.6272 728.535 92.9847 558.977C93.0694 511.489 116.571 481.976 80.7506 382.702C88.2978 381.386 97.1495 382.082 101.049 370.396C94.4493 353.829 87.0571 339.747 80.4125 330.925C95.9458 351.572 117.01 340.443 117.948 315.933C119.196 283.847 102.128 232.44 83.6767 185.665C97.3653 227.708 82.2356 168.905 100.625 216.838C103.069 218.514 111.284 238.225 113.93 238.796C151.983 356.274 129.583 273.544 121.655 237.894C111.065 193.578 132.584 254.705 135.03 252.607C153.227 302.617 151.221 285.536 142.418 245.837C144.711 242.891 146.152 237.127 149.385 237.441C176.569 289.084 207.685 333.204 190.442 251.622C180.461 206.321 165.45 216.337 148.086 167.741C131.194 122.808 128.932 126.554 126.528 127.987C129.172 145.982 125.854 142.141 108.469 87.4461C106.251 83.2163 96.7923 50.8376 93.0265 31.3673C93.0341 0.49292 105.157 31.2324 104.778 25.4788C104.918 21.5272 104.413 20.4498 112.441 36.4904C116.987 30.7769 116.048 32.058 122.362 17.3184C127.86 20.1426 132.973 23.7653 137.458 28.012C142.772 33.0492 148.513 40.0831 154.991 50.6186C160.25 59.1345 170.015 75.0801 179.634 91.5499C189.254 108.02 198.703 124.975 203.426 135.542C229.313 214.718 252.867 253.709 273.559 273.848C279.443 279.643 286.235 284.584 293.582 288.414C306.381 290.933 324.068 308.267 333.775 298.579C317.007 271.976 303.744 263.556 290.604 253.78C284.146 248.872 277.915 244.387 271.759 238.999C253.521 222.845 235.906 198.582 221.153 130.63C223.838 139.651 225.626 139.473 226.908 144.498C220.961 125.415 216.428 106.813 212.526 88.5315C214.778 92.917 220.107 99.0651 223.579 106.334C221.905 102.839 214.749 56.8757 215.218 54.4297C217.524 42.3174 224.731 57.195 234 75.3195C243.715 84.5098 240.934 50.5125 260.471 91.9401C263.508 89.1724 267.59 89.8096 272.969 94.8553C336.213 206.579 382.531 241.188 422.568 257.586C437.629 264.562 452.101 273.068 465.657 282.913C471.237 287.061 476.627 291.448 481.801 296.052C497.143 290.754 532.9 371.412 551.086 379.703C557.169 388.577 549.305 361.493 542.304 343.523C544.936 352.555 552.822 379.634 553.656 370.439C554.492 361.24 547.506 343.278 540.528 325.289C547.514 343.251 554.557 361.252 560.581 370.104C555.326 352.058 550.077 334.001 543.107 316.043C551.813 333.919 559.678 361.017 569.281 387.993C567.498 369.783 557.896 342.781 550.911 324.815C560.064 347.25 574.043 387.774 585.702 418.114C597.358 448.448 606.659 468.547 606.533 450.155C606.873 445.482 601.915 429.735 595.448 411.849C588.981 393.962 580.922 373.745 575.249 360.267C581.796 378.254 588.257 394.529 594.601 409.316C613.573 449.948 641.448 521.824 648.297 503.217C656.047 493.713 629.078 430.944 614.26 385.907C715.229 637.292 725.006 435.62 780.452 469.638C771.06 534.095 726.025 481.296 711.435 527.767C757.28 553.073 793.54 551.393 821.132 513.521L810.758 514.023C819.397 513.599 833.233 531.248 839.268 521.834C846.172 503.22 822.708 458.546 808.9 422.635C810.582 422.547 814.082 422.393 818.417 431.334C764.782 397.203 726.746 417.308 664.328 347.042C676.402 328.184 702.486 363.586 720.614 371.854C684.207 336.959 657.476 347.375 605.268 240.041C617.322 202.901 627.695 165.836 638.674 126.457C640.911 119.056 643.116 111.737 645.302 104.503C654.37 75.6852 664.479 48.8882 676.905 26.3172C678.593 26.2183 689.924 53.1529 693.392 52.9865C699.462 43.5554 690.773 7.38679 698.62 5.67816C700.154 -0.425698 702.354 -4.03557 709.075 7.79762C728.374 52.1356 730.615 37.5796 737.474 39.4289C753.478 72.9928 752.595 48.2882 756.309 39.9618C756.176 18.3131 787.903 107.744 790.464 96.3042C814.995 161.313 828.291 187.704 827.687 166.459C846.558 212.884 844.868 188.447 846.357 175.687C861.237 204.2 854.477 157.793 871.116 193.089C870.602 168.809 879.534 177.84 875.056 141.261C878.26 132.143 879.484 119.056 895.146 157.783C896.658 147.206 915.624 199.011 913.31 176.874C908.413 152.841 908.369 134.523 912.69 143.527C993.072 313.555 1007.93 175.685 1063.19 228.154C1058.89 219.199 1053.72 201.155 1049.41 192.211C1068.42 209.658 1080.53 209.144 1102.11 235.63C1108.14 244.501 1121.05 271.398 1124.55 271.244C1126.23 271.159 1124.57 252.969 1126.29 252.893C1142.24 284.193 1154.73 306.557 1162.1 310.704C1165.76 312.833 1168.14 310.436 1169.02 302.425C1169.91 294.413 1169.27 280.701 1166.93 260.243C1170.12 253.077 1190.72 300.67 1194.52 288.753C1202.14 290.112 1204.16 271.126 1211.85 276.577C1233.15 332.842 1235.14 315.387 1232.95 287.077C1241.64 296.869 1232.64 248.443 1228.36 230.195C1254.84 307.688 1271.13 349.405 1255.29 277.008C1266.81 300.54 1265.6 277.92 1273.2 283.078C1269.14 250.467 1249.59 181.887 1264.98 238.914C1252 196.454 1243.48 172.728 1245.77 174.62C1244.36 163.563 1250.95 175.866 1257.07 185.821C1263.19 195.776 1268.85 203.358 1265.64 182.911C1283.2 229.329 1253.75 171.896 1243.28 129.037C1236.49 96.0689 1241.39 103.947 1248.43 119.41C1255.46 134.87 1267.25 171.664 1271.54 181.971C1251.53 108.8 1245.47 98.2928 1247.33 111.718C1249.61 126.627 1225.79 46.195 1236.48 74.4797C1226.23 32.3472 1252.52 99.9766 1257.56 108.154C1253.49 89.9802 1241.75 43.8 1247.76 64.8744C1240.17 31.3546 1242.1 31.2161 1247.64 49.2648C1260.67 91.7288 1272.65 146.049 1288.97 191.019C1288.12 181.92 1285.55 172.897 1287.28 172.828C1292.47 172.605 1294.15 190.792 1296.73 199.821C1302.76 208.705 1294.2 172.521 1298.49 181.474C1305.38 199.459 1312.24 217.435 1317.39 235.487C1312.24 217.435 1304.53 190.347 1299.39 172.301C1309.68 208.412 1314.02 199.082 1322.62 216.992L1320.06 207.969C1324.35 216.922 1328.65 225.861 1331.22 234.899C1324.35 216.922 1310.6 180.961 1318.37 189.767C1326.14 198.57 1341.55 252.724 1352.75 261.453C1346.72 252.567 1339 225.492 1332.13 207.516C1333.02 198.337 1338.17 216.388 1340.74 225.411C1341.63 216.238 1324.43 180.433 1329.61 180.207C1335.64 189.076 1344.25 206.989 1342.45 225.336C1323.63 153.052 1317.75 89.3411 1334.15 97.7676C1328.08 107.182 1333.17 143.484 1336.53 179.915C1351.38 133.538 1408.18 222.518 1459.88 359.011C1463.32 355.466 1482.22 413.311 1479.8 392.531C1490.64 420.005 1504.35 437.679 1508.6 464.905C1511.16 473.939 1493.99 438.115 1499.12 456.172C1503.34 483.386 1519.65 528.396 1530 546.226C1577.22 626.155 1581.65 580.294 1583.57 507.1C1584.47 497.927 1597.35 524.798 1605.92 542.68C1603.37 533.664 1599.07 524.711 1596.52 515.679C1622.25 569.4 1648.82 632.218 1676.24 704.14L1645.36 614.069C1663.42 659.016 1678.78 713.166 1693.74 754.412C1707.84 798.334 1716.08 807.528 1713.09 784.799C1705.5 721.168 1713.33 693.404 1708.33 638.801C1702.49 575.096 1752.28 664.388 1784.15 721.272C1768.94 658.366 1771.28 657.496 1777.69 670.942C1784.1 684.39 1794.56 712.431 1794.41 703.014C1794.98 696.329 1794.15 684.618 1792.07 668.647C1797.72 680.055 1770.24 574.415 1798.9 667.296C1777.39 582.963 1790.44 620.796 1805.72 666.927C1815.5 693.423 1819.54 699.877 1798.24 616.884C1799.54 612.236 1789.53 570.712 1785.95 558.02C1767.26 492.106 1767.82 500.233 1763.35 499.624C1726.64 383.361 1734.59 425.887 1743.41 472.042C1758.72 541.248 1738.53 485.523 1727.51 462.536C1717.4 442.745 1735.52 522.823 1716.07 470.093C1697.45 420.299 1702.76 455 1705.41 480.096C1707.2 492.805 1711.42 520.018 1707.16 511.08C1684.82 475.501 1688.15 511.862 1674.35 512.442C1687.25 521.021 1691.7 493.469 1715.68 547.265C1721.7 556.141 1714.84 519.864 1719.2 528.841C1734.49 564.634 1755.98 591.159 1757.62 627.645C1717.39 528.855 1686.32 511.836 1682.71 566.828C1675.69 603.67 1703.8 702.945 1707.19 757.671C1703.73 757.842 1695.76 735.023 1686.67 703.901C1692.44 721.863 1699.44 748.921 1706.3 766.837C1701.42 764.004 1693.9 742.386 1686.32 722.507C1647.17 614.031 1607.67 542.616 1568.25 434.677C1570.82 443.685 1575.1 452.647 1577.67 461.67C1559.72 398.49 1542.72 307.838 1560.85 316.205L1563.38 343.517C1566.89 325.095 1576.35 333.891 1587.93 347.193C1593.99 353.959 1598.89 357.979 1601.83 356.541C1604.25 351.572 1605.89 346.186 1606.7 340.519C1607.42 333.064 1607.65 324.221 1607.79 314.914C1607.93 305.607 1608.04 295.91 1608.49 286.758C1607.66 277.658 1623.02 331.805 1627.38 322.507C1635.2 313.047 1623.3 258.743 1640.8 282.808C1642.75 274.379 1640.42 251.348 1649.62 269.478C1650.19 254.422 1662.49 280.704 1662.24 262.828C1665.34 248.215 1671.57 244.922 1683.5 262.659C1681.43 230.967 1704 287.336 1706.19 273.554C1709.71 270.531 1722.69 301.67 1725.01 296.232C1766.19 421.267 1745.29 329.21 1758.75 361.808C1774.58 402.784 1754.66 320.56 1795.21 456.206C1797.21 457.505 1797.46 453.983 1817.78 522.571C1829.84 562.271 1801.81 461.443 1838.64 591.43C1832.31 569.129 1854.72 642.789 1856.22 638.792C1846.34 594.652 1854.95 612.175 1872.15 657.969C1879.54 644.724 1907.35 710.249 1907.22 681.195C1920.01 697.798 1933.71 721.44 1947.32 746.769C1960.95 772.1 1974.75 799.022 1987.66 822.091C1997.02 833.45 2005.84 845.118 2021.52 884.311C2022.85 872.63 2043.71 933.283 2051.84 953.426C2058.04 966.405 2079.83 1038.91 2076.43 1027.43C2089.41 1073.74 2095.09 1095.49 2097.48 1106.62C2099.87 1117.75 2098.99 1118.25 2098.79 1122.05C2117.29 1215.45 2134.16 1324.37 2118.58 1343.27C2110.8 1352.72 2133.76 1433.97 2145.62 1488.27C2118.27 1440.7 2084.85 1377.13 2059.48 1348.2C2053.11 1340.96 2047.27 1335.89 2041.94 1333.29C2030.82 1325.94 2021.11 1327.24 2014.18 1337.59C2010.32 1344 2007.46 1351.01 2005.66 1358.46C2005.94 1393.63 1990.49 1394.28 2001.51 1457.74C1996.4 1439.68 1989.57 1421.66 1983.57 1412.82C1984.4 1421.91 1989.47 1439.95 1990.35 1449.07C1988.59 1467.4 1979.17 1458.66 1957.82 1395.61C1962.88 1432.01 1978.27 1467.91 1988.53 1503.98C1969.73 1449.95 1942.35 1396.27 1931.3 1332.81C1932.94 1369.28 1946.58 1423.5 1960.23 1477.76C1943.95 1451.02 1940.58 1414.63 1928.64 1378.6C1920.07 1360.67 1924.31 1387.9 1925.14 1397C1924.31 1387.9 1918.34 1360.75 1914.06 1351.79C1906.34 1343 1908.03 1361.2 1913.65 1387.71C1913.96 1394.41 1911.37 1391.37 1903.51 1372.73Z" fill="#FC476A"/>
<path d="M680.115 1403.68L540.151 1014.22L575.693 1019.88C576.68 1020.03 577.606 1020.45 578.377 1021.08C579.147 1021.71 579.733 1022.53 580.074 1023.46L720.144 1404.05C720.15 1404.07 720.152 1404.09 720.149 1404.11C720.146 1404.13 720.138 1404.15 720.126 1404.16C720.113 1404.18 720.097 1404.19 720.078 1404.2C720.059 1404.21 720.038 1404.22 720.017 1404.22L680.115 1403.68Z" fill="#384041" fill-opacity="0.68"/>
<path d="M265.444 1415.36C270.996 1414.12 529.095 1012.25 542.186 1014.55C555.277 1016.85 725.958 1468.82 720.315 1468.17C714.672 1467.52 251.653 1418.42 265.444 1415.36Z" fill="#384041"/>
<path d="M523.134 1318.01C521.297 1319.76 519.067 1321.03 516.634 1321.73C514.559 1322.3 512.367 1322.28 510.304 1321.67C508.215 1321.03 506.327 1319.86 504.824 1318.27C503.083 1316.43 501.808 1314.2 501.104 1311.76C502.437 1295.36 503.464 1278.69 504.184 1261.76C504.904 1244.83 505.817 1228 506.924 1211.28C508.024 1194.56 509.62 1178.09 511.714 1161.87C513.712 1146.07 516.796 1130.43 520.944 1115.06C521.27 1113.85 522.394 1112.76 524.314 1111.8C526.522 1110.75 528.885 1110.05 531.314 1109.74C534.293 1109.32 537.305 1109.16 540.314 1109.26C543.451 1109.34 546.572 1109.73 549.634 1110.42C552.439 1111.03 555.137 1112.06 557.634 1113.48C559.812 1114.69 561.581 1116.51 562.713 1118.73C564.454 1121.11 565.493 1125.22 565.833 1131.05C566.155 1138.07 566.024 1145.11 565.443 1152.11C564.843 1160.33 563.747 1169.45 562.154 1179.48C560.56 1189.51 558.677 1199.8 556.504 1210.37C554.337 1220.95 551.95 1231.56 549.344 1242.19C546.737 1252.83 543.977 1262.88 541.064 1272.36C538.15 1281.82 535.23 1290.44 532.304 1298.22C529.969 1304.71 527.134 1311 523.824 1317.04C523.654 1317.4 523.42 1317.73 523.134 1318.01ZM494.664 1380.24C491.758 1378.05 489.288 1375.34 487.384 1372.24C485.624 1369.44 484.535 1366.27 484.204 1362.97C483.946 1359.78 484.642 1356.58 486.204 1353.78C488.105 1350.49 490.872 1347.79 494.204 1345.97C499.35 1342.84 504.504 1341.65 509.664 1342.4C514.824 1343.15 518.797 1346.28 521.584 1351.79C524.194 1356.53 525.498 1361.88 525.364 1367.29C525.25 1372.83 522.834 1377.62 518.114 1381.66C516.58 1383.14 514.731 1384.26 512.705 1384.93C510.679 1385.59 508.528 1385.79 506.414 1385.51C502.06 1384.96 497.97 1383.13 494.664 1380.24Z" fill="white"/>
<path d="M893.279 860.976C893.279 877.188 887.01 891.529 874.472 904C861.935 916.471 845.844 924.576 826.202 928.318L798.619 1056.76H711.482L758.498 922.706L746.587 918.965C729.87 914.392 716.706 911.067 707.093 908.988C697.481 906.91 687.242 905.871 676.376 905.871C648.793 905.871 626.225 910.235 608.672 918.965H606.165L593 894.647V891.529C636.046 840.4 669.689 794.467 693.929 753.729C718.168 712.992 730.288 674.125 730.288 637.129C730.288 624.659 728.617 611.773 725.273 598.471C734.05 595.561 744.498 594.106 756.618 594.106C775.424 594.106 790.052 599.302 800.5 609.694C810.948 619.671 816.172 632.557 816.172 648.353C816.172 667.059 807.813 689.298 791.096 715.071C774.797 740.427 754.528 765.784 730.288 791.141C706.467 816.082 683.063 837.698 660.077 855.988L660.704 857.859C668.226 854.949 677.003 852.455 687.033 850.376C697.481 847.882 707.302 846.635 716.497 846.635C726.945 846.635 739.483 847.882 754.11 850.376C768.737 852.871 777.932 854.533 781.693 855.365L832.471 710.082H872.592L841.874 854.741C856.502 849.337 869.666 839.569 881.368 825.435L883.249 826.682C889.936 838.322 893.279 849.753 893.279 860.976Z" fill="white"/>
<path d="M1042.6 1063C996.624 1063 964.026 1049.07 944.801 1021.22C925.577 993.373 915.964 955.337 915.964 907.118C915.964 849.753 924.95 796.545 942.921 747.494C960.891 698.443 985.967 659.369 1018.15 630.271C1050.75 600.757 1087.73 586 1129.11 586C1169.23 586 1199.32 599.302 1219.38 625.906C1239.86 652.51 1250.1 689.09 1250.1 735.647C1250.1 781.788 1242.99 830.216 1228.78 880.929C1214.57 931.227 1191.79 974.251 1160.45 1010C1129.52 1045.33 1090.24 1063 1042.6 1063ZM1050.75 1016.24C1070.39 1016.24 1088.99 1001.27 1106.54 971.341C1124.09 941.412 1138.09 902.961 1148.54 855.988C1159.41 809.016 1164.84 761.627 1164.84 713.824C1164.84 687.635 1161.7 666.02 1155.44 648.976C1149.17 631.518 1140.18 622.788 1128.48 622.788C1109.25 622.788 1090.45 637.961 1072.06 668.306C1053.67 698.651 1038.63 737.31 1026.92 784.282C1015.22 831.255 1009.37 877.396 1009.37 922.706C1009.37 985.059 1023.16 1016.24 1050.75 1016.24Z" fill="white"/>
<path d="M1552 860.976C1552 877.188 1545.73 891.529 1533.19 904C1520.66 916.471 1504.57 924.576 1484.92 928.318L1457.34 1056.76H1370.2L1417.22 922.706L1405.31 918.965C1388.59 914.392 1375.43 911.067 1365.81 908.988C1356.2 906.91 1345.96 905.871 1335.1 905.871C1307.51 905.871 1284.95 910.235 1267.39 918.965H1264.89L1251.72 894.647V891.529C1294.77 840.4 1328.41 794.467 1352.65 753.729C1376.89 712.992 1389.01 674.125 1389.01 637.129C1389.01 624.659 1387.34 611.773 1383.99 598.471C1392.77 595.561 1403.22 594.106 1415.34 594.106C1434.15 594.106 1448.77 599.302 1459.22 609.694C1469.67 619.671 1474.89 632.557 1474.89 648.353C1474.89 667.059 1466.53 689.298 1449.82 715.071C1433.52 740.427 1413.25 765.784 1389.01 791.141C1365.19 816.082 1341.78 837.698 1318.8 855.988L1319.42 857.859C1326.95 854.949 1335.72 852.455 1345.75 850.376C1356.2 847.882 1366.02 846.635 1375.22 846.635C1385.67 846.635 1398.2 847.882 1412.83 850.376C1427.46 852.871 1436.65 854.533 1440.41 855.365L1491.19 710.082H1531.31L1500.6 854.741C1515.22 849.337 1528.39 839.569 1540.09 825.435L1541.97 826.682C1548.66 838.322 1552 849.753 1552 860.976Z" fill="white"/>
</svg>
