<svg width="492" height="492" viewBox="0 0 492 492" fill="none" xmlns="http://www.w3.org/2000/svg">
<g clip-path="url(#clip0_393_2)">
<path d="M399.36 0H92.16C41.2614 0 0 41.2614 0 92.16V399.36C0 450.259 41.2614 491.52 92.16 491.52H399.36C450.259 491.52 491.52 450.259 491.52 399.36V92.16C491.52 41.2614 450.259 0 399.36 0Z" fill="#D32F2F"/>
<path d="M330.801 141.703L141.706 330.798L160.727 349.819L349.822 160.725L330.801 141.703Z" fill="#FFFFFE" stroke="#FFFFFE" stroke-width="0.5" stroke-miterlimit="2.61"/>
<path d="M160.727 141.703L141.706 160.725L330.801 349.819L349.822 330.798L160.727 141.703Z" fill="#FFFFFE" stroke="#FFFFFE" stroke-width="0.5" stroke-miterlimit="2.61"/>
<path fill-rule="evenodd" clip-rule="evenodd" d="M245.76 101.76C217.279 101.76 189.438 110.205 165.758 126.028C142.077 141.851 123.62 164.341 112.721 190.653C101.822 216.966 98.9705 245.92 104.527 273.853C110.083 301.786 123.798 327.444 143.936 347.583C164.075 367.722 189.734 381.437 217.667 386.993C245.6 392.549 274.554 389.697 300.866 378.798C327.179 367.899 349.669 349.443 365.491 325.762C381.314 302.081 389.76 274.24 389.76 245.76C389.76 207.569 374.588 170.942 347.583 143.936C320.578 116.931 283.951 101.76 245.76 101.76ZM245.76 128.29C268.993 128.29 291.705 135.179 311.023 148.087C330.341 160.995 345.397 179.341 354.288 200.806C363.179 222.271 365.505 245.89 360.973 268.677C356.44 291.464 345.252 312.395 328.824 328.824C312.395 345.252 291.464 356.44 268.677 360.973C245.89 365.505 222.271 363.179 200.806 354.288C179.341 345.397 160.995 330.34 148.087 311.023C135.179 291.705 128.29 268.993 128.29 245.76C128.29 214.605 140.666 184.726 162.696 162.696C184.726 140.666 214.605 128.29 245.76 128.29V128.29Z" fill="#FFFFFE"/>
</g>
<defs>
<clipPath id="clip0_393_2">
<rect width="491.52" height="491.52" fill="white"/>
</clipPath>
</defs>
</svg>
