<svg width="1089" height="1170" viewBox="0 0 1089 1170" fill="none" xmlns="http://www.w3.org/2000/svg">
<path d="M972.636 590.001C983.524 614.1 995.421 638.901 992.279 645.444C992.186 647.765 991.436 649.912 990.153 651.527C987.955 654.35 984.77 655.649 982.439 657.746C981.204 658.904 971.864 645.948 967.589 642.525C959.403 635.876 963.27 646.603 957.852 644.391C939.305 632.686 902.409 587.719 911.509 622.214C902.828 608.698 905.981 605.836 905.362 606.406C885.805 588.457 882.341 598.703 892.357 625.247C879.167 601.615 876.559 589.697 866.892 569.95C854.439 559.876 853.481 567.836 852.565 575.787C849.665 569.017 846.211 562.579 842.257 556.577C842.319 570.762 820.862 554.568 833.133 586.179C834.404 585.014 824.453 572.672 828.619 576.027C833.485 592.984 836.438 611.635 860.863 646.55C856.167 641.39 851.674 635.961 847.403 630.284C850.294 634.787 856.083 643.791 858.342 648.875L854.79 644.951C868.909 660.666 876.249 661.154 889.728 677.443C910.904 701.015 917.752 730.424 917.62 739.051C917.374 742.621 916.16 744.79 913.787 745.09C911.415 745.39 907.94 743.99 903.131 740.394C898.925 736.802 894.341 732.543 889.468 727.689C884.594 722.836 879.421 717.408 873.969 711.375C867.948 704.813 861.911 698.209 856.029 691.791L838.971 673.479C841.87 677.981 844.76 682.483 848.292 686.411C831.915 665.621 812.282 633.526 799.787 623.461C806.211 631.9 809.109 636.402 814.896 645.397C792.062 616.183 784.109 616.263 788.343 633.801C790.26 632.088 792.792 629.787 794.706 628.057L793.47 629.214C809.189 650.564 823.938 678.225 836.994 705.513C841.3 714.564 845.423 723.58 849.265 732.226C858.551 755.425 875.65 789.812 864.778 785.395C842.042 770.368 822.222 759.819 818.446 777.441C817.528 785.383 786.022 742.67 773.515 732.616C769.344 729.27 767.442 730.981 769.067 736.638L777.758 750.125C779.39 755.781 774.579 753.01 773.312 754.156C758.91 745.82 726.727 703.68 725.248 719.075C725.215 722.248 726.532 727.759 729.12 735.734C726.941 732.058 721.145 723.055 718.902 717.977C717.666 719.134 722.799 728.707 728.6 737.699C723.431 728.125 717.636 719.131 712.474 709.556C714.731 714.631 714.098 715.205 716.364 720.288C712.865 713.891 709.63 707.305 706.671 700.555C708.452 705.791 709.879 711.164 710.936 716.617C715.499 728.237 712.938 730.544 708.15 727.778L694.613 724.174C692.392 723.59 690.164 723.008 687.848 722.317C665.334 709.648 638.426 691.339 631.831 704.488C633.73 702.76 635.622 700.998 640.431 703.796C634.363 702.187 628.926 699.988 631.564 711.872C629.293 706.799 629.925 706.218 630.565 705.643C629.946 706.213 628.659 707.372 630.931 712.445C644.177 736.066 653.755 741.607 661.494 748.882C634.234 726.118 642.806 759.93 670.205 812.803C675.678 823.367 681.906 834.714 688.684 846.42C725.592 911.814 701.99 904.764 672.047 867.793C662.062 855.467 654.354 848.211 648.921 846.023C643.231 851.205 629.449 842.335 626.669 852.006C624.77 853.734 640.575 875.04 645.159 885.168C639.97 875.607 632.891 867.781 632.264 868.352C632.01 875.725 662.353 919.482 657.556 916.744C645.048 906.727 614.947 855.609 604.093 851.497C600.074 848.43 596.889 846.79 594.518 846.445C592.148 846.101 590.621 847.091 589.795 849.218C588.97 851.345 588.888 854.564 589.406 858.75C577.505 875.461 626.416 987.988 564.885 922.69C574.511 928.212 604.895 971.915 605.145 964.562C604.857 936.253 591.685 891.145 602.363 879.172C603.962 878.358 606.482 878.854 610.398 881.234C607.397 880.936 606.018 882.585 605.555 885.41C602.033 910.119 613.945 956.408 617.78 988.615C621.445 1006.68 567.526 934.401 550.81 926.652C545.766 922.949 541.253 920.308 537.417 919.045C530.703 918.022 543.386 942.165 556.695 965.736C587.518 1016.21 619.631 1044.05 641.469 1088.42C656.435 1117.63 631.614 1090.25 621.761 1082.23C617.333 1077.69 612.634 1072.65 607.87 1067.46C598.329 1057.11 588.554 1046.21 580.041 1037.26C586.508 1045.65 592.341 1054.62 599.434 1062.44C600.14 1068.93 601.556 1076.53 600.552 1080.17C599.549 1083.81 596.071 1083.45 587.403 1074.27C556.15 1037.62 527.215 985.442 498.044 940.613L503.877 949.581C500.328 945.674 496.779 941.768 499.063 946.829C505.927 962.002 521.126 983.838 530.92 1003.49C526.326 993.379 518.225 979.356 513.018 969.816C518.225 979.356 522.777 989.472 528.004 999.008C525.089 994.528 525.706 993.949 522.791 989.469C528.617 998.439 536.76 1012.45 538.453 1018.04C534.113 1010.12 529.445 1002.45 524.471 995.071C529.697 1004.6 535.53 1013.56 540.758 1023.1C540.283 1016.34 527.985 998.984 524.044 988.29C526.335 993.35 529.25 997.829 531.541 1002.89C529.11 997.83 527.026 992.563 525.311 987.144C524.075 988.302 525.701 993.923 531.541 1002.89C528.618 998.411 529.25 997.829 526.335 993.35C528.624 998.401 534.45 1007.37 536.755 1012.43C535.076 1006.8 532.814 1001.73 542.189 1014.61C536.814 1007.64 531.732 1000.35 526.966 992.768C540.931 1015.76 556.13 1037.6 568.847 1061.73C560.661 1047.76 549.741 1029.15 541.555 1015.18C557.773 1043.23 573.467 1071.82 589.765 1099.83C572.846 1072.42 562.56 1045.99 548.425 1030.34C537.84 1018.61 556.43 1051.69 560.458 1062.38C562.281 1060.67 543.679 1027.61 553.075 1040.48C585.899 1081.9 608.888 1139.67 611.959 1158.65C612.653 1163.04 612.438 1166.12 611.448 1167.98C606.127 1171.06 597.786 1171.65 571.91 1138.14C581.914 1150.42 588.989 1158.26 596.653 1165.49C588.984 1158.24 577.775 1147.08 578.373 1146.52C559.778 1106.24 561.221 1090.49 557.688 1068.58C555.949 1061.29 553.742 1054.13 551.088 1047.17C542.276 1023.99 525.876 994.713 492.861 952.569C449.336 897.135 418.416 868.69 393.583 852.709C388.62 849.516 383.897 846.818 379.369 844.498C341.35 820.16 292.734 779.059 331.41 872.625C339.46 893.934 361.839 930.688 382.869 957.492C390.348 967.324 397.842 976.943 405.324 986.502C427.762 1015.1 450.112 1042.87 471.967 1072.91C500.335 1111.28 517.154 1110.01 516.674 1091.84C517.284 1088.8 517.248 1084.88 516.389 1080C513.788 1065.33 503.729 1041.87 482.151 1005.81C471.057 987.355 464.185 982.943 457.943 981.561C454.818 980.87 451.872 980.914 448.694 980.289C444.057 976.494 442.211 978.229 438.046 974.911C448.718 986.571 460.602 997.096 468.794 1011.06C492.754 1053.54 491.208 1076.58 466.896 1048.82C449.731 1028.81 427.659 1002.56 405.369 973.82C397.948 964.239 390.5 954.375 383.221 944.367C368.634 924.356 352.804 895.899 346.459 880.204C352.804 895.899 365.686 919.901 380.898 941.254C387.521 950.416 394.236 959.35 400.97 968.081C421.173 994.254 441.459 1018.55 459.803 1041.07C489.969 1077.75 473.768 1035.26 478.28 1027.56C478.447 1023.75 478.674 1019.9 479.08 1016.36C479.386 1013.13 480.003 1009.98 480.919 1006.98C481.066 999.694 506.084 1048.33 509.511 1059.54C510.088 1064.03 510.433 1068.54 510.544 1073.04C510.739 1094.4 513.851 1134.71 452.438 1047.92C502.07 1116.89 512.475 1099.99 514.769 1082.05C513.999 1076.73 512.711 1071.49 510.932 1066.44C506.781 1054.01 499.29 1037.38 487.4 1015.34C479.219 1001.36 467.349 990.82 471.975 1000.9C475.291 1008.82 478.219 1016.93 480.742 1025.21C485.034 1046.36 495.35 1079.93 470.461 1052.69C448.306 1030.13 420.932 996.435 392.907 958.014C385.901 948.413 378.917 938.445 372.245 928.024C338.069 873.632 329.794 838.135 350.735 854.607C324.517 828.646 340.988 878.093 375.122 931.876C383.996 945.289 393.39 958.297 402.654 970.66C458.328 1044.81 508.231 1097.44 476.912 1020.86C473.283 1011.39 469.258 1002.12 464.853 993.086C457.278 978.539 471.03 987.297 479.186 1001.34C501.451 1038.9 512.012 1062.77 515.193 1077.62C516.257 1082.57 516.507 1086.52 516.1 1089.63C514.802 1104.97 506.281 1112.9 478.43 1081.25C450.307 1047.45 416.955 998.539 384.619 957.854C378.182 949.68 371.809 941.819 365.569 934.431C315.234 858.915 313.619 824.389 321.779 816.783C334.135 812.462 366.387 840.01 391.676 857.514C396.969 860.849 403.331 866.262 409.896 872.024C416.461 877.787 423.241 883.922 429.394 888.671C436.235 894.97 443.357 901.837 450.762 909.274C465.55 924.19 481.562 941.517 498.687 961.538C519.43 985.407 539.554 1022.02 548.485 1044.74C551.488 1052.29 553.195 1058.35 553.298 1061.9C551.068 1085.59 578.873 1153.29 555.647 1146.14C540.082 1095.83 528.063 1027.82 493.479 980.838C464.612 941.49 439.306 914.954 418.191 898.455C413.317 894.62 408.295 891.096 403.148 887.899C382.41 882.717 344.674 853.069 360.591 903.046C362.444 901.309 354.865 886.781 359.68 889.496C355.49 886.2 366.025 905.191 355.974 892.969C347.657 857.517 382.874 889.499 398.692 892.568C403.148 894.675 407.805 897.123 412.703 900.031C437.107 914.584 466.919 940.795 504.747 991.951C497.21 977.377 481.986 955.564 474.285 948.336C455.868 934.301 435.326 917.44 416.448 903.562C411.729 900.083 407.117 896.81 402.705 893.795C378.929 878.824 347.701 857.517 358.98 897.422C367.691 889.304 384.606 895.135 401.478 901.011C405.212 902.651 408.878 904.558 412.458 906.721C431.526 918.202 454.419 939.875 481.557 977.586C528.017 1042.3 539.338 1087.92 538.345 1119.38C538.261 1122.01 538.091 1124.54 537.85 1126.97C532.908 1145.74 546.121 1205.43 472.72 1108.22C499.409 1140.96 533.79 1180.95 528.622 1156.93C527.777 1179.33 473.457 1100.33 442.58 1064.3C425.358 1044.34 426.343 1057.82 430.932 1075.15C432.257 1066.72 421.288 1033.74 435.443 1056.55C476.177 1119.39 443.806 1106.36 438.808 1118.22L450.419 1107.4C448.488 1116.4 442.992 1121.52 432.622 1118.16C430.108 1117.84 427.506 1117.3 424.89 1116.76C424.915 1110.79 440.218 1132.2 437.819 1122.51C433.814 1120.34 430.446 1119.03 426.618 1116.61C422.79 1114.2 418.498 1110.8 412.671 1104.32C416.964 1112.22 424.323 1123.2 429.22 1130.53C421.226 1120.69 413.937 1110.05 407.444 1098.74C401.879 1089.2 396.984 1079.15 392.816 1068.71C395.336 1072.47 394.708 1073.03 397.219 1076.79C394.708 1073.03 392.816 1068.71 390.284 1064.92C390.345 1070.99 395.867 1082.58 401.745 1094.35C407.623 1106.11 413.907 1118.06 415.75 1125.26C407.757 1114.85 400.411 1097.92 389.937 1089.74C391.824 1094.04 399.181 1105.01 398.57 1105.59C393.032 1104.81 374.059 1025.35 380.766 1080.55C386.28 1093.24 394.273 1103.65 399.787 1116.33C364.137 1060.33 359.405 1098.39 330.167 986.88C328.578 999.05 318.491 1031.48 320.958 1035.12C317.872 1032.05 312.969 1024.73 309.869 1021.66C305.547 1019.74 315.383 1034.35 316.631 1039.16C307.989 1029.35 300.607 1018.4 291.965 1008.6C294.427 1012.26 299.337 1019.57 301.823 1023.2C288.849 1005.49 282.074 1005.94 278.361 1003.47C251.783 986.607 207.24 932.967 168.197 886.113L170.048 890.346C140.987 846.057 116.938 803.065 105.37 772.209L114.69 781.368C119.698 782.647 109.257 762.63 114.277 763.898C121.118 769.423 125.192 770.084 128.875 770.371C132.557 770.658 238.218 910.064 141.139 774.551C115.114 738.2 193.084 833.184 204.269 834.652C213.412 835.474 222.507 836.169 228.525 832.099C231.113 830.359 234.094 828.421 234.878 823.553C235.662 818.686 234.245 811.045 227.971 797.803C197.737 745.161 226.701 768.569 226.469 754.382C213.384 737.787 210.211 740.735 200.064 728.587C203.035 721.489 207.373 716.382 211.977 711.719L216.737 707.061C230.75 692.788 241.755 675.324 247.584 648.288C227.094 652.989 212.453 666.627 193.562 673.272C191.642 674.677 189.837 676.141 188.095 677.701C183.028 682.368 178.324 687.57 174.033 693.254C172.553 696.103 171.164 698.898 170.187 701.292C169.409 703.509 169.086 705.289 169.713 706.205C177.78 718.285 150.236 770.691 114.304 671.08C104.234 643.186 106.851 618.616 72.1773 571.41C74.7538 568.311 78.2519 565.987 77.2418 557.928C71.2202 550.241 65.4267 544.259 61.0356 541.131C71.3062 548.454 76.9111 535.424 72.0527 520.752C65.6996 501.539 48.3049 476.637 31.3718 454.88C45.496 475.329 27.2615 445.491 44.4172 467.946C45.6989 468.176 53.0008 477.209 54.1233 476.727C93.515 533.925 67.4395 492.287 56.8552 473.814C43.4207 451.075 64.5677 480.305 65.0473 478.321C82.5723 502.053 78.1796 492.648 66.4032 472.068C66.6444 469.633 65.9637 465.807 67.2539 464.992C88.5279 486.911 109.689 503.202 85.8094 460.647C72.3958 437.142 68.8451 447.65 51.9364 424.492C35.9849 403.334 35.9257 406.231 35.3206 407.814C40.1495 417.557 38.0767 416.326 19.8625 389.595C18.1232 387.798 7.65616 371.715 2.08926 361.45C-4.47535 343.332 6.65145 357.631 5.28426 354.37C4.49631 352.008 4.07605 351.531 10.5265 358.468C11.0318 353.712 10.9492 354.754 10.2032 344.155C12.8851 344.118 15.5906 344.666 18.1915 345.773C21.2741 347.089 24.9429 349.447 29.6361 353.63C33.4377 357.004 40.5252 363.35 47.6693 370.047C54.8135 376.744 61.9965 383.778 66.0314 388.521C92.671 426.996 109.88 442.61 121.994 448.044C125.455 449.629 129.076 450.433 132.672 450.414C138.051 447.944 148.433 452.66 150.045 443.978C138.041 433.54 131.23 432.69 124.177 431.009C120.689 430.121 117.377 429.414 113.901 428.15C103.562 424.297 91.7341 415.493 71.6958 380.168C74.6309 384.635 75.2697 383.979 76.8239 386.531C70.514 377.17 64.8414 367.652 59.476 358.127C61.2612 360.005 64.5857 361.971 67.4463 365.164C66.069 363.629 53.5837 338.866 53.2408 337.284C51.537 329.465 57.4294 335.972 64.7927 343.749C70.4246 346.145 62.1403 327.051 78.347 345.336C78.9077 342.773 80.588 341.887 83.697 343.189C131.398 389.239 156.29 395.257 174.931 392.527C182.116 391.973 189.402 392.5 196.627 394.095C199.621 394.808 202.594 395.719 205.532 396.825C210.211 388.981 240.901 425.283 249.549 424.535C253.739 427.867 245.001 414.4 238.529 406.015C241.447 410.503 250.19 423.961 248.55 418.306C246.911 412.652 240.446 404.265 233.977 395.862C240.442 404.248 246.937 412.637 251.099 415.975C245.273 407.006 239.445 398.028 232.987 389.64C240.084 397.444 248.824 410.921 258.197 423.788C253.649 413.652 244.272 400.768 237.807 392.382C246.043 402.722 259.953 422.189 270.819 436.395C281.684 450.602 289.479 459.525 285.518 448.772C284.654 445.926 279.429 438.214 273.176 429.712C266.922 421.211 259.573 411.834 254.56 405.675C260.864 414.212 266.771 421.767 272.317 428.489C288.141 446.48 313.978 480.056 312.613 467.025C313.525 459.056 289.965 430.543 274.776 408.686C366.464 525.054 327.266 403.689 355.486 406.546C365.644 447.267 337.367 430.179 341.732 461.952C364.465 462.656 377.831 450.483 380.218 419.745L376.399 423.241C379.579 420.328 388.57 426.414 388.85 419.028C387.503 405.975 369.12 386.998 356.255 370.185C356.875 369.615 358.167 368.445 361.709 372.353C334.148 368.873 324.029 392.408 285.46 370.431C286.018 355.64 303.42 368.366 312.039 367.625C290.838 358.382 282.937 372.74 240.345 325.861C237.008 300.349 233.049 275.397 228.828 248.902C228.1 243.867 227.38 238.891 226.667 233.973C223.969 214.264 222.095 195.421 221.997 178.341C222.614 177.762 232.632 190.072 233.91 188.906C234.201 181.498 223.22 162.952 225.826 159.53C225.106 155.475 225.171 152.677 230.232 157.547C246.968 177.611 244.72 168.379 247.709 167.346C260.906 182.104 255.316 167.88 254.952 161.849C250.295 149.186 281.326 191.878 279.863 184.373C302.975 214.955 313.621 226.339 308.872 214.058C325.892 235.48 320.052 221.66 317.904 213.714C329.6 225.856 317.169 200.709 330.974 216.287C325.616 202.197 330.918 204.741 321.44 184.656C320.713 178.318 318.395 170.26 332.559 188.152C330.882 181.48 349.08 206.028 343.495 193.753C336.529 181.16 332.616 170.424 336.167 174.375C402.756 249.351 379.054 163.86 411.129 177.601C407.598 173.673 401.803 164.679 398.266 160.761C409.173 165.134 413.647 161.097 427.447 169.982C431.618 173.327 442.223 185.128 443.515 183.958C444.134 183.388 439.639 173.224 440.273 172.651C452.969 186.096 462.451 195.366 466.123 195.529C467.962 195.645 468.352 193.507 466.982 188.533C465.613 183.558 462.454 175.707 457.217 164.423C456.9 159.235 474.818 180.81 473.727 172.641C476.897 171.09 473.621 159.327 477.692 160.152C497.722 186.596 494.763 175.739 487.913 159.802C493.283 162.867 479.576 137.226 474.077 127.837C500.582 165.142 515.622 184.598 494.225 147C503.591 157.256 498.32 144.355 502.296 145.037C493.823 127.152 471.834 92.9398 489.789 121.656C475.843 100.745 467.575 89.4493 468.841 89.8548C465.959 83.7991 471.069 88.9856 475.503 92.9395C479.936 96.8934 483.69 99.5972 478.126 88.588C494.646 110.411 471.282 85.7945 458.204 63.8725C448.624 46.6202 452.152 49.7327 458.103 56.6356C464.054 63.5384 476.341 81.4932 480.159 86.2161C457.021 49.4527 452.495 45.1545 456.051 52.4617C460.086 60.506 433.962 20.6561 444.026 33.9546C431.183 12.3931 455.519 43.9696 459.169 47.2117C453.761 37.8038 439.493 14.3269 446.25 24.8401C436.25 7.50976 436.951 6.83241 442.884 15.7163C456.85 36.6147 472.939 64.7931 488.68 86.1476C486.423 81.0718 483.532 76.5691 484.173 75.9946C486.086 74.2639 490.593 84.4169 493.491 88.9182C497.664 92.272 486.725 73.6807 490.256 77.609C496.686 86.0385 503.108 94.4695 508.897 103.473C503.108 94.4695 494.427 80.954 488.645 71.9486C500.217 89.9668 499.878 83.1501 506.942 91.0066L504.051 86.5039C507.582 90.4321 511.112 94.3517 514.005 98.8631C507.582 90.4321 494.73 73.5716 499.541 76.3422C504.352 79.1128 521.707 106.136 527.801 107.803C523.629 104.449 514.949 90.9425 508.526 82.5116C506.908 76.8526 512.697 85.8566 515.588 90.3593C513.977 84.6989 499.852 68.9947 501.765 67.264C505.928 70.6104 512.999 78.4655 516.221 89.7863C493.724 53.174 477.943 17.6031 485.947 17.4853C485.647 24.8851 495.296 44.618 504.319 64.9588C500.074 33.162 540.501 67.8515 589.102 131.999C589.648 128.858 609.106 156.97 603.77 145.524C613.713 158.303 622.663 164.443 630.064 179.108C632.956 183.619 618.835 167.896 624.619 176.91C632.005 191.577 647.752 212.958 655.461 220.23C690.338 252.562 682.256 224.283 667.416 180.738C665.804 175.077 676.394 186.872 683.441 194.723C680.557 190.219 677.026 186.29 674.14 181.778C695.304 205.364 718.723 234.03 744.398 267.775L713.554 224.447C729.949 245.252 747.284 272.288 761.719 291.876C776.394 313.302 781.471 316.154 775.505 303.739C759.098 268.74 756.156 250.032 742.647 219.534C726.885 183.95 764.724 220.988 788.886 244.535C769.749 212.312 770.448 211.082 775.734 216.994C781.021 222.907 790.946 236.134 788.886 230.655C787.679 226.555 784.874 219.939 780.692 211.208C785.254 216.161 752.381 162.648 782.986 208.311C756.906 165.459 769.893 183.635 785.492 205.989C794.826 218.519 797.731 221.059 772.012 178.932C771.517 175.803 758.893 154.524 754.842 148.179C733.748 115.264 735.688 119.86 733.866 120.883C695.241 63.9832 707.297 86.4845 720.451 110.85C740.964 146.739 721.472 120.267 712.412 110.176C704.374 101.683 728.269 143.083 709.69 118.14C692.049 94.6671 701.441 113.391 707.784 127.299C711.163 134.206 718.549 148.874 715.039 144.941C699.013 130.956 708.008 151.266 702.905 155.866C709.617 156.918 705.441 139.377 725.959 163.545C730.124 166.901 719.809 147.729 723.369 151.652C736.774 167.937 750.547 176.873 758.927 197.779C722.69 152.216 707.311 151.816 717.641 185.199C722.82 208.987 754.58 258.571 767.499 289.642C766.228 290.807 758.358 279.876 748.297 264.417C754.301 273.178 762.707 286.895 769.116 295.292C766.666 295.136 759.219 284.772 752.122 275.444C714.23 223.865 684.089 194.147 646.212 142.965C649.101 147.459 652.627 151.397 655.518 155.9C635.285 124.362 609.568 76.4103 618.207 75.7282L624.976 90.9743C622.386 79.0805 627.84 81.3216 635.05 85.5558C638.785 87.6559 641.493 88.5035 642.299 86.7524C642.158 83.0897 641.632 79.4254 640.734 75.8483C639.419 71.2525 637.624 65.9922 635.699 60.4863C633.773 54.9804 631.752 49.2579 629.973 43.7495C627.728 38.6621 645.056 65.7002 644.728 58.8995C645.677 50.9325 629.621 22.7382 641.366 31.4593C640.308 25.9136 634.528 13.1157 641.867 20.9163C638.878 11.9067 649.125 23.5352 645.226 13.1227C643.292 3.59057 644.95 -0.265642 653.24 6.46206C645.715 -11.4973 666.245 14.619 664.144 5.85567C664.835 2.99395 676.368 17.2645 676.09 13.3566C718.273 74.0249 690.781 26.4514 702.81 41.4287C717.518 60.5888 692.487 18.485 736.687 85.5752C737.723 85.7188 737.067 83.5748 759.347 117.555C772.354 137.133 740.301 86.611 781.89 151.527C774.75 140.393 798.9 176.707 798.617 173.898C785.489 151.042 792.477 158.669 808.725 180.238C808.706 170.182 833.167 200.055 826.938 183.048C835.311 188.843 845.524 198.491 856.067 209.152C866.61 219.814 877.56 231.354 887.356 240.906C893.313 244.687 899.134 248.813 913.404 266.973C911.424 259.71 932.218 288.866 939.583 298.176C944.688 303.88 968.358 339.711 964.63 334.017C979.395 357.193 986.172 368.201 989.443 373.997C992.713 379.792 992.489 380.355 993.219 382.647C1020.09 431.753 1049.64 490.466 1047.77 506.359C1046.83 514.305 1072.81 554.901 1088.84 583.109C1068.37 563.63 1042.2 536.635 1026.45 527.485C1022.5 525.201 1019.21 524.027 1016.64 524.149C1010.87 523.27 1007.47 527.026 1007.05 535.24C1006.95 540.19 1007.36 545.186 1008.26 550.115C1015.85 570.666 1010.14 575.816 1027.81 609.652C1022.03 600.636 1015.62 592.167 1011.46 588.828C1013.71 593.905 1019.47 602.925 1021.74 608.007C1024.98 619.307 1019.55 617.088 998.059 586.676C1007.71 606.471 1021.18 622.79 1032.73 640.794C1014.13 614.886 992.342 591.836 974.665 558.002C983.043 578.9 999.738 606.511 1016.44 634.138C1004.6 623.469 995.579 603.154 983.393 585.696C976.34 577.819 983.735 592.494 985.985 597.571C983.735 592.494 975.701 578.402 972.175 574.464C967.383 571.68 971.893 581.842 979.66 595.67C981.202 599.503 979.576 598.517 972.636 590.001Z" fill="url(#paint0_linear_301_86)"/>
<path d="M561.956 486.125C595.396 447.766 605.455 407.588 607.592 397.266C608.339 394.285 608.751 391.225 608.82 388.145C608.68 361.107 587.354 339.067 561.189 338.927C535.025 338.788 513.928 360.601 514.069 387.639C514.168 390.721 514.612 393.785 515.392 396.773C517.626 407.079 528.095 447.427 561.956 486.125ZM561.308 361.746C575.466 361.822 587.002 373.749 587.078 388.373C587.155 402.998 575.742 414.803 561.584 414.727C547.427 414.651 535.9 402.734 535.824 388.1C535.748 373.465 547.151 361.671 561.308 361.746Z" fill="#384041"/>
<path d="M620.906 400.571C619.088 410.028 607.324 462.239 562.236 508.989C559.543 506.19 556.958 503.379 554.48 500.554C510.883 450.722 502.154 398.38 502.154 398.38C502.154 398.38 493.096 434.377 515.131 470.034C528.03 488.532 543.052 503.959 555.793 515.422C551.231 519.796 546.347 524.081 541.141 528.277C533.455 521.596 518.729 522.368 505.671 530.813C490.66 540.483 483.576 556.582 489.794 566.762C492.58 571.329 497.603 573.9 503.631 574.51L503.701 574.511C511.075 575.219 519.929 572.956 528.144 567.658C541.523 559.003 548.6 545.255 545.535 535.163C545.532 534.666 545.531 534.362 545.53 534.301C549.411 531.514 555.312 527.056 562.319 521.123C569.379 527.131 575.337 531.654 579.238 534.483C579.24 534.919 578.508 548.467 586.5 554.248C594.493 560.028 621.532 575.186 621.532 575.186L623.055 572.781L593.37 552.582C592.946 552.282 592.651 551.83 592.545 551.32C592.44 550.81 592.532 550.281 592.803 549.842C592.935 549.627 593.11 549.441 593.315 549.297C593.521 549.152 593.754 549.051 594 548.999C594.246 548.947 594.5 548.946 594.748 548.996C594.995 549.046 595.231 549.145 595.441 549.288L625.127 569.488L627.646 565.498L597.96 545.298C597.536 544.998 597.241 544.546 597.136 544.036C597.031 543.526 597.123 542.997 597.393 542.558C597.526 542.342 597.7 542.155 597.907 542.009C598.113 541.864 598.347 541.762 598.594 541.71C598.842 541.658 599.098 541.658 599.346 541.708C599.595 541.759 599.831 541.86 600.041 542.005L629.727 562.194L632.246 558.204L602.561 538.004C602.138 537.706 601.843 537.257 601.736 536.749C601.628 536.242 601.717 535.714 601.984 535.274C602.116 535.058 602.291 534.872 602.497 534.726C602.703 534.58 602.937 534.478 603.184 534.425C603.431 534.372 603.686 534.371 603.935 534.42C604.184 534.469 604.421 534.568 604.632 534.711L634.318 554.91L635.841 552.496C635.841 552.496 611.781 532.874 603.369 527.527C596.045 522.866 585.998 527.434 583.574 528.546C578.321 524.291 573.408 519.926 568.786 515.502C582.601 503.224 595.107 489.523 606.104 474.619C606.71 473.416 607.386 472.143 608.272 470.718C627.376 439.57 622.41 407.857 620.906 400.571Z" fill="#384041"/>
<path d="M649.221 432.628C660.755 415.329 646.377 399.218 646.377 399.218C636.495 424.818 649.221 432.628 649.221 432.628Z" fill="#F6941D"/>
<path d="M626.418 462.029C620.257 471.488 619.483 479.001 620.435 484.436C621.068 488.31 622.883 491.901 625.627 494.705C626.794 495.309 644.741 504.057 658.57 477.59C658.57 477.59 639.511 478.865 630.233 487.173C630.884 485.032 631.211 482.8 631.202 480.553C631.432 470.971 626.418 462.029 626.418 462.029Z" fill="#F6941D"/>
<path d="M608.303 486.351C597.918 500.186 604.91 510.943 604.91 510.943L604.97 510.944C604.97 510.944 615.459 526.573 641.366 506.347C641.366 506.347 621.678 501.023 610.863 505.636C615.177 499.58 615.806 491.417 615.566 485.772C615.493 483.612 615.273 481.458 614.91 479.324C612.47 481.427 610.256 483.781 608.303 486.351Z" fill="#F6941D"/>
<path d="M647.049 442.892C646.595 431.071 635.038 421.488 635.038 421.488C631.149 445.116 645.172 450.377 645.634 450.541C648.865 450.774 652.087 450.09 654.934 448.566C660.597 445.659 667.302 438.757 670.257 422.599C665.509 424.75 661.038 427.466 656.937 430.691C652.87 433.91 649.04 438.031 647.049 442.892Z" fill="#F6941D"/>
<path d="M641.967 465.186C642.245 453.294 631.971 441.984 631.971 441.984C624.268 465.627 638.871 473.81 639.405 474.096C644.095 474.369 648.718 473.006 652.499 470.236C657.378 466.849 662.483 460.596 665.573 448.973C661.663 450.689 657.872 452.665 654.225 454.888C649.684 457.71 644.876 461.271 641.967 465.186Z" fill="#F6941D"/>
<path d="M474.11 432.041C474.11 432.041 486.759 424.36 476.623 398.659C476.623 398.659 462.414 414.624 474.11 432.041Z" fill="#F6941D"/>
<path d="M496.982 461.651C496.982 461.651 492.012 470.539 492.293 480.154C492.313 482.4 492.662 484.635 493.331 486.785C483.965 478.377 464.892 476.896 464.892 476.896C478.97 503.514 496.866 494.959 498.017 494.367L498.067 494.367C500.785 491.596 502.564 488.023 503.151 484.153C504.136 478.698 503.244 471.177 496.982 461.651Z" fill="#F6941D"/>
<path d="M508.639 479.009C508.297 481.139 508.097 483.29 508.041 485.45C507.88 491.093 508.585 499.283 512.953 505.366C502.099 500.636 482.465 505.748 482.465 505.748C508.576 526.255 518.902 510.737 518.902 510.737C518.902 510.737 525.791 500.055 515.25 486.107C513.293 483.519 511.077 481.141 508.639 479.009Z" fill="#F6941D"/>
<path d="M477.856 450.051C478.316 449.891 492.295 444.781 488.148 421.11C488.148 421.11 476.69 430.569 476.371 442.386C474.339 437.504 470.425 433.34 466.344 430.067C462.212 426.8 457.715 424.036 452.948 421.832C456.043 438.053 462.841 444.997 468.535 447.965C471.397 449.523 474.626 450.246 477.856 450.051Z" fill="#F6941D"/>
<path d="M484.226 473.665C484.747 473.384 499.234 465.358 491.313 441.63C491.313 441.63 481.157 452.83 481.56 464.726C478.59 460.779 473.754 457.167 469.204 454.346C465.532 452.086 461.72 450.069 457.793 448.308C461.015 459.965 466.176 466.274 471.081 469.714C474.9 472.509 479.541 473.904 484.226 473.665Z" fill="#F6941D"/>
<path d="M467.764 591.628L467.745 587.632L495.461 587.764L495.479 591.761L483.859 591.705L484.014 624.912L479.539 624.891L479.384 591.684L467.764 591.628Z" fill="#3B4243"/>
<path d="M532.096 606.541C532.114 610.464 531.426 613.852 530.032 616.703C528.638 619.555 526.718 621.75 524.271 623.288C521.824 624.826 519.025 625.588 515.873 625.573C512.722 625.558 509.915 624.769 507.454 623.208C504.993 621.646 503.052 619.432 501.631 616.568C500.21 613.703 499.491 610.308 499.472 606.385C499.454 602.461 500.142 599.073 501.536 596.222C502.93 593.371 504.85 591.176 507.297 589.637C509.744 588.099 512.543 587.337 515.695 587.352C518.846 587.367 521.653 588.156 524.114 589.718C526.575 591.28 528.516 593.493 529.937 596.358C531.358 599.222 532.077 602.617 532.096 606.541ZM527.765 606.52C527.75 603.299 527.202 600.577 526.121 598.356C525.052 596.134 523.607 594.45 521.785 593.303C519.975 592.156 517.952 591.577 515.714 591.567C513.477 591.556 511.452 592.115 509.641 593.245C507.842 594.375 506.413 596.045 505.352 598.256C504.304 600.468 503.788 603.184 503.803 606.405C503.818 609.627 504.36 612.348 505.429 614.569C506.51 616.791 507.955 618.475 509.765 619.622C511.586 620.769 513.616 621.348 515.854 621.359C518.091 621.369 520.109 620.81 521.908 619.68C523.719 618.55 525.149 616.88 526.197 614.669C527.258 612.458 527.78 609.741 527.765 606.52Z" fill="#3B4243"/>
<path d="M539.707 625.178L539.533 587.975L544.008 587.996L544.163 621.203L561.341 621.285L561.36 625.282L539.707 625.178Z" fill="#3B4243"/>
<path d="M572.589 588.133L572.763 625.336L568.288 625.315L568.114 588.112L572.589 588.133Z" fill="#3B4243"/>
<path d="M610.865 588.316L611.039 625.52L606.708 625.499L586.435 596.192L586.074 596.19L586.211 625.401L581.736 625.379L581.562 588.176L585.892 588.197L606.238 617.576L606.599 617.578L606.462 588.295L610.865 588.316Z" fill="#3B4243"/>
<path d="M619.993 625.562L619.819 588.359L624.294 588.38L624.381 606.837L624.814 606.839L641.328 588.462L647.174 588.49L631.735 605.201L647.348 625.693L641.935 625.667L629.007 608.312L624.412 613.522L624.468 625.584L619.993 625.562Z" fill="#3B4243"/>
<path d="M385.012 646.69L393.541 670.616L393.874 670.618L402.194 646.767L405.797 646.783L395.5 675.114L391.953 675.099L381.409 646.674L385.012 646.69Z" fill="#404041"/>
<path d="M416.564 675.652C414.643 675.643 412.955 675.178 411.501 674.257C410.056 673.336 408.923 672.052 408.103 670.404C407.292 668.756 406.882 666.833 406.872 664.634C406.863 662.417 407.256 660.484 408.053 658.834C408.858 657.184 409.98 655.905 411.417 654.997C412.863 654.089 414.547 653.639 416.468 653.648C418.39 653.656 420.073 654.121 421.518 655.042C422.972 655.963 424.105 657.252 424.916 658.909C425.736 660.566 426.151 662.503 426.161 664.72C426.17 666.919 425.772 668.838 424.966 670.479C424.17 672.12 423.048 673.394 421.602 674.302C420.165 675.21 418.486 675.66 416.564 675.652ZM416.551 672.714C418.011 672.721 419.21 672.352 420.149 671.608C421.088 670.864 421.781 669.883 422.229 668.666C422.676 667.448 422.897 666.128 422.89 664.706C422.884 663.283 422.652 661.956 422.194 660.726C421.736 659.495 421.034 658.499 420.089 657.737C419.143 656.976 417.941 656.592 416.481 656.585C415.022 656.579 413.822 656.952 412.883 657.705C411.944 658.459 411.251 659.449 410.804 660.675C410.357 661.902 410.136 663.226 410.142 664.649C410.149 666.072 410.381 667.393 410.839 668.615C411.297 669.836 411.998 670.823 412.944 671.576C413.889 672.328 415.092 672.708 416.551 672.714Z" fill="#404041"/>
<path d="M440.362 654.031L440.374 656.802L429.344 656.753L429.332 653.982L440.362 654.031ZM432.524 648.897L435.794 648.912L435.883 669.198C435.887 670.121 436.024 670.815 436.294 671.278C436.573 671.732 436.925 672.038 437.351 672.197C437.786 672.347 438.243 672.423 438.724 672.425C439.084 672.426 439.379 672.409 439.61 672.373C439.841 672.328 440.026 672.292 440.164 672.265L440.842 675.206C440.621 675.288 440.311 675.369 439.915 675.451C439.518 675.541 439.015 675.585 438.405 675.583C437.481 675.579 436.575 675.376 435.686 674.975C434.807 674.574 434.075 673.965 433.489 673.15C432.913 672.334 432.622 671.308 432.617 670.07L432.524 648.897Z" fill="#404041"/>
<path d="M445.374 675.337L445.281 654.053L448.44 654.067L448.454 657.282L448.676 657.283C449.059 656.231 449.757 655.38 450.771 654.729C451.784 654.077 452.928 653.754 454.203 653.76C454.443 653.761 454.743 653.767 455.104 653.778C455.464 653.789 455.736 653.804 455.921 653.823L455.936 657.149C455.825 657.121 455.571 657.078 455.173 657.021C454.785 656.954 454.374 656.92 453.939 656.918C452.905 656.914 451.982 657.127 451.171 657.557C450.369 657.978 449.734 658.567 449.267 659.322C448.808 660.068 448.581 660.922 448.585 661.883L448.644 675.351L445.374 675.337Z" fill="#404041"/>
<path d="M468.169 675.881C466.119 675.872 464.348 675.412 462.856 674.5C461.374 673.579 460.228 672.299 459.417 670.66C458.616 669.012 458.21 667.098 458.201 664.918C458.191 662.738 458.58 660.819 459.367 659.159C460.163 657.491 461.275 656.193 462.703 655.267C464.14 654.331 465.819 653.867 467.741 653.876C468.849 653.881 469.945 654.07 471.027 654.445C472.11 654.819 473.096 655.424 473.987 656.259C474.877 657.085 475.588 658.178 476.121 659.539C476.653 660.899 476.924 662.572 476.933 664.558L476.939 665.944L460.533 665.871L460.52 663.044L473.601 663.102C473.595 661.902 473.351 660.829 472.866 659.885C472.391 658.94 471.713 658.194 470.833 657.645C469.963 657.096 468.936 656.819 467.754 656.813C466.451 656.808 465.326 657.126 464.377 657.768C463.437 658.402 462.716 659.23 462.212 660.253C461.709 661.276 461.459 662.374 461.465 663.547L461.473 665.432C461.48 667.039 461.763 668.403 462.322 669.523C462.89 670.634 463.675 671.483 464.675 672.069C465.675 672.646 466.836 672.938 468.157 672.944C469.016 672.948 469.791 672.831 470.483 672.594C471.184 672.348 471.787 671.981 472.293 671.494C472.799 670.997 473.189 670.38 473.463 669.642L476.626 670.543C476.298 671.613 475.743 672.553 474.962 673.362C474.18 674.162 473.213 674.786 472.06 675.234C470.907 675.672 469.61 675.888 468.169 675.881Z" fill="#404041"/>
<path d="M501.557 684.011C499.977 684.004 498.618 683.795 497.48 683.383C496.342 682.981 495.393 682.45 494.633 681.791C493.882 681.141 493.283 680.446 492.836 679.705L495.433 677.887C495.731 678.277 496.107 678.722 496.561 679.223C497.016 679.733 497.637 680.174 498.424 680.547C499.22 680.929 500.26 681.123 501.544 681.129C503.262 681.137 504.679 680.727 505.793 679.901C506.907 679.075 507.46 677.775 507.452 676.001L507.433 671.678L507.156 671.676C506.918 672.063 506.578 672.542 506.137 673.113C505.705 673.675 505.08 674.175 504.259 674.615C503.448 675.045 502.35 675.258 500.964 675.252C499.246 675.244 497.702 674.831 496.331 674.012C494.969 673.193 493.888 672.005 493.087 670.45C492.295 668.894 491.894 667.008 491.884 664.791C491.875 662.611 492.25 660.714 493.01 659.101C493.769 657.479 494.831 656.227 496.194 655.347C497.557 654.457 499.135 654.016 500.927 654.024C502.313 654.03 503.413 654.266 504.228 654.731C505.052 655.187 505.683 655.708 506.119 656.291C506.565 656.866 506.909 657.339 507.151 657.709L507.483 657.711L507.469 654.33L510.628 654.344L510.723 676.237C510.731 678.066 510.322 679.552 509.496 680.693C508.679 681.844 507.574 682.685 506.181 683.214C504.798 683.753 503.256 684.019 501.557 684.011ZM501.395 672.316C502.707 672.322 503.814 672.026 504.717 671.43C505.619 670.834 506.304 669.973 506.77 668.848C507.236 667.723 507.466 666.376 507.459 664.805C507.452 663.272 507.215 661.917 506.748 660.742C506.281 659.567 505.594 658.645 504.686 657.976C503.777 657.306 502.658 656.969 501.328 656.963C499.942 656.957 498.789 657.303 497.868 658.001C496.957 658.699 496.273 659.638 495.816 660.818C495.369 661.999 495.148 663.309 495.154 664.75C495.161 666.228 495.397 667.537 495.864 668.675C496.34 669.804 497.037 670.694 497.954 671.345C498.881 671.986 500.028 672.31 501.395 672.316Z" fill="#404041"/>
<path d="M530.082 667.012L530.027 654.43L533.297 654.445L533.39 675.728L530.12 675.714L530.104 672.111L529.882 672.11C529.388 673.189 528.616 674.105 527.567 674.857C526.517 675.601 525.188 675.969 523.581 675.962C522.251 675.956 521.067 675.66 520.03 675.073C518.993 674.477 518.176 673.587 517.579 672.402C516.983 671.208 516.681 669.705 516.673 667.895L516.614 654.371L519.884 654.385L519.942 667.687C519.949 669.239 520.388 670.479 521.261 671.407C522.142 672.334 523.262 672.801 524.62 672.807C525.433 672.811 526.259 672.607 527.098 672.195C527.946 671.783 528.654 671.149 529.223 670.292C529.801 669.436 530.088 668.342 530.082 667.012Z" fill="#404041"/>
<path d="M539.379 675.755L539.287 654.472L542.557 654.486L542.65 675.77L539.379 675.755ZM540.934 650.932C540.296 650.929 539.746 650.709 539.282 650.273C538.828 649.837 538.599 649.314 538.596 648.704C538.594 648.095 538.818 647.574 539.268 647.142C539.728 646.709 540.277 646.495 540.915 646.498C541.552 646.5 542.098 646.72 542.552 647.156C543.016 647.592 543.249 648.115 543.252 648.725C543.255 649.335 543.026 649.856 542.566 650.288C542.115 650.72 541.571 650.935 540.934 650.932Z" fill="#404041"/>
<path d="M556.678 676.276C554.904 676.268 553.336 675.813 551.975 674.911C550.613 673.999 549.545 672.72 548.771 671.072C547.997 669.415 547.605 667.46 547.595 665.206C547.585 662.97 547.96 661.032 548.72 659.391C549.479 657.75 550.541 656.485 551.904 655.595C553.267 654.705 554.845 654.264 556.637 654.272C558.023 654.278 559.119 654.514 559.924 654.979C560.739 655.435 561.36 655.956 561.788 656.539C562.224 657.114 562.564 657.587 562.805 657.957L563.083 657.958L563.037 647.483L566.307 647.497L566.431 675.876L563.271 675.862L563.257 672.591L562.869 672.59C562.631 672.977 562.291 673.465 561.85 674.054C561.409 674.634 560.779 675.153 559.959 675.611C559.139 676.06 558.045 676.282 556.678 676.276ZM557.108 673.34C558.42 673.346 559.527 673.009 560.429 672.329C561.332 671.641 562.016 670.688 562.482 669.47C562.947 668.244 563.177 666.827 563.17 665.219C563.163 663.631 562.926 662.239 562.459 661.046C561.992 659.843 561.304 658.907 560.396 658.237C559.487 657.559 558.368 657.217 557.038 657.211C555.652 657.205 554.499 657.555 553.579 658.263C552.667 658.961 551.983 659.914 551.526 661.122C551.079 662.321 550.859 663.668 550.865 665.165C550.872 666.68 551.109 668.057 551.576 669.297C552.052 670.528 552.75 671.51 553.667 672.244C554.594 672.968 555.741 673.334 557.108 673.34Z" fill="#404041"/>
<path d="M581.8 676.387C579.749 676.378 577.978 675.918 576.487 675.006C575.005 674.085 573.858 672.805 573.047 671.166C572.246 669.518 571.84 667.604 571.831 665.424C571.821 663.244 572.21 661.325 572.997 659.665C573.794 657.997 574.906 656.699 576.333 655.773C577.77 654.837 579.45 654.373 581.371 654.382C582.48 654.387 583.575 654.576 584.657 654.951C585.74 655.325 586.726 655.93 587.617 656.765C588.507 657.591 589.219 658.685 589.751 660.045C590.284 661.405 590.554 663.078 590.563 665.064L590.569 666.45L574.163 666.377L574.15 663.55L587.231 663.608C587.226 662.408 586.981 661.335 586.496 660.391C586.021 659.446 585.344 658.7 584.464 658.151C583.593 657.602 582.566 657.325 581.384 657.319C580.081 657.314 578.956 657.632 578.007 658.274C577.068 658.907 576.346 659.736 575.843 660.759C575.339 661.782 575.09 662.88 575.095 664.053L575.103 665.938C575.11 667.545 575.393 668.909 575.952 670.029C576.521 671.14 577.305 671.989 578.305 672.575C579.305 673.152 580.466 673.444 581.787 673.45C582.646 673.454 583.421 673.337 584.113 673.1C584.814 672.854 585.418 672.487 585.923 672C586.429 671.503 586.819 670.886 587.093 670.148L590.256 671.049C589.928 672.119 589.374 673.059 588.592 673.868C587.81 674.668 586.843 675.292 585.69 675.74C584.538 676.178 583.241 676.394 581.8 676.387Z" fill="#404041"/>
<path d="M615.187 684.517C613.607 684.51 612.249 684.301 611.111 683.889C609.973 683.487 609.023 682.956 608.263 682.297C607.512 681.647 606.913 680.952 606.466 680.211L609.064 678.393C609.361 678.783 609.737 679.228 610.192 679.729C610.647 680.239 611.267 680.68 612.054 681.053C612.85 681.435 613.89 681.629 615.174 681.635C616.893 681.643 618.309 681.233 619.423 680.407C620.537 679.581 621.09 678.281 621.083 676.507L621.064 672.184L620.787 672.182C620.548 672.569 620.208 673.048 619.767 673.619C619.336 674.181 618.71 674.681 617.89 675.121C617.079 675.552 615.98 675.764 614.595 675.758C612.876 675.75 611.332 675.337 609.961 674.518C608.6 673.699 607.518 672.511 606.717 670.956C605.925 669.401 605.524 667.514 605.515 665.297C605.505 663.117 605.88 661.22 606.64 659.607C607.4 657.985 608.461 656.733 609.824 655.853C611.188 654.963 612.765 654.522 614.557 654.53C615.943 654.536 617.043 654.772 617.858 655.237C618.682 655.693 619.313 656.214 619.75 656.797C620.195 657.372 620.539 657.845 620.781 658.215L621.114 658.217L621.099 654.836L624.258 654.85L624.354 676.743C624.362 678.572 623.952 680.058 623.126 681.199C622.309 682.351 621.204 683.191 619.811 683.72C618.428 684.259 616.887 684.525 615.187 684.517ZM615.025 672.822C616.337 672.828 617.444 672.532 618.347 671.936C619.249 671.34 619.934 670.479 620.4 669.354C620.866 668.229 621.096 666.882 621.089 665.311C621.082 663.778 620.846 662.423 620.379 661.248C619.912 660.073 619.224 659.151 618.316 658.482C617.408 657.812 616.288 657.475 614.958 657.469C613.573 657.463 612.419 657.809 611.499 658.507C610.587 659.205 609.903 660.144 609.446 661.324C608.999 662.505 608.778 663.815 608.785 665.256C608.791 666.734 609.028 668.043 609.494 669.181C609.97 670.31 610.667 671.2 611.585 671.851C612.511 672.492 613.658 672.816 615.025 672.822Z" fill="#404041"/>
<path d="M643.712 667.518L643.657 654.936L646.927 654.951L647.02 676.234L643.75 676.22L643.734 672.617L643.513 672.616C643.019 673.695 642.247 674.61 641.197 675.363C640.147 676.107 638.818 676.475 637.211 676.468C635.881 676.462 634.697 676.166 633.66 675.579C632.623 674.983 631.806 674.093 631.21 672.908C630.613 671.714 630.311 670.211 630.303 668.401L630.244 654.877L633.514 654.891L633.572 668.193C633.579 669.745 634.019 670.985 634.891 671.913C635.773 672.84 636.892 673.307 638.25 673.313C639.063 673.317 639.889 673.113 640.728 672.701C641.576 672.289 642.284 671.655 642.853 670.798C643.432 669.942 643.718 668.848 643.712 667.518Z" fill="#404041"/>
<path d="M668.013 659.811L665.08 660.63C664.893 660.139 664.618 659.662 664.256 659.199C663.903 658.726 663.421 658.336 662.81 658.028C662.199 657.721 661.417 657.565 660.466 657.561C659.163 657.555 658.079 657.85 657.214 658.447C656.357 659.034 655.931 659.785 655.935 660.7C655.938 661.513 656.237 662.156 656.83 662.63C657.423 663.104 658.349 663.5 659.606 663.82L662.769 664.61C664.674 665.08 666.095 665.793 667.032 666.749C667.969 667.695 668.441 668.912 668.448 670.399C668.453 671.619 668.107 672.707 667.409 673.665C666.72 674.622 665.754 675.376 664.509 675.924C663.264 676.473 661.815 676.744 660.162 676.736C657.991 676.727 656.192 676.248 654.765 675.299C653.338 674.35 652.432 672.97 652.045 671.158L655.146 670.396C655.446 671.542 656.009 672.404 656.833 672.98C657.667 673.557 658.754 673.848 660.094 673.854C661.618 673.861 662.826 673.543 663.72 672.9C664.622 672.248 665.071 671.465 665.067 670.551C665.064 669.812 664.803 669.192 664.283 668.69C663.764 668.18 662.968 667.798 661.895 667.544L658.344 666.696C656.393 666.226 654.958 665.504 654.039 664.529C653.13 663.546 652.672 662.32 652.665 660.852C652.66 659.651 652.993 658.59 653.663 657.669C654.343 656.748 655.268 656.027 656.439 655.506C657.619 654.985 658.957 654.727 660.454 654.734C662.56 654.743 664.215 655.213 665.42 656.142C666.634 657.071 667.499 658.294 668.013 659.811Z" fill="#404041"/>
<path d="M682.559 655.11L682.571 657.881L671.542 657.832L671.53 655.06L682.559 655.11ZM674.722 649.976L677.992 649.99L678.081 670.276C678.085 671.2 678.222 671.893 678.492 672.356C678.771 672.81 679.123 673.117 679.549 673.276C679.983 673.425 680.441 673.501 680.921 673.503C681.282 673.505 681.577 673.488 681.808 673.452C682.039 673.407 682.223 673.371 682.362 673.344L683.04 676.284C682.818 676.366 682.509 676.448 682.112 676.529C681.716 676.62 681.212 676.664 680.603 676.661C679.679 676.657 678.773 676.454 677.884 676.053C677.005 675.652 676.272 675.044 675.687 674.228C675.111 673.413 674.82 672.386 674.814 671.148L674.722 649.976Z" fill="#404041"/>
<path d="M693.837 676.942C692.488 676.936 691.263 676.676 690.161 676.163C689.06 675.641 688.184 674.894 687.533 673.921C686.882 672.939 686.553 671.755 686.547 670.369C686.542 669.15 686.778 668.162 687.255 667.407C687.732 666.643 688.371 666.045 689.173 665.614C689.975 665.184 690.86 664.864 691.829 664.656C692.807 664.439 693.791 664.268 694.778 664.143C696.071 663.982 697.119 663.862 697.922 663.783C698.735 663.694 699.325 663.544 699.694 663.333C700.072 663.123 700.259 662.754 700.257 662.227L700.257 662.116C700.251 660.749 699.872 659.685 699.12 658.924C698.378 658.164 697.254 657.78 695.748 657.773C694.187 657.766 692.965 658.103 692.081 658.782C691.197 659.462 690.577 660.189 690.22 660.963L687.111 659.841C687.66 658.55 688.394 657.547 689.315 656.83C690.245 656.104 691.259 655.601 692.357 655.319C693.464 655.029 694.553 654.886 695.625 654.891C696.308 654.894 697.094 654.98 697.982 655.151C698.878 655.312 699.743 655.643 700.577 656.146C701.42 656.648 702.12 657.404 702.679 658.414C703.238 659.423 703.521 660.773 703.528 662.464L703.589 676.486L700.319 676.472L700.307 673.59L700.14 673.589C699.921 674.05 699.553 674.542 699.038 675.067C698.523 675.591 697.837 676.036 696.98 676.401C696.122 676.767 695.074 676.947 693.837 676.942ZM694.323 674.006C695.616 674.012 696.705 673.763 697.589 673.259C698.483 672.755 699.155 672.102 699.604 671.3C700.062 670.499 700.29 669.654 700.286 668.768L700.273 665.775C700.135 665.94 699.831 666.091 699.36 666.228C698.899 666.355 698.363 666.468 697.754 666.567C697.154 666.657 696.568 666.737 695.995 666.809C695.432 666.871 694.975 666.924 694.624 666.969C693.775 667.076 692.981 667.252 692.243 667.499C691.515 667.736 690.925 668.098 690.475 668.585C690.033 669.064 689.814 669.719 689.818 670.55C689.823 671.686 690.247 672.547 691.09 673.133C691.943 673.709 693.02 674.001 694.323 674.006Z" fill="#404041"/>
<path d="M718.721 655.271L718.733 658.042L707.704 657.993L707.692 655.221L718.721 655.271ZM710.884 650.137L714.154 650.151L714.243 670.437C714.247 671.361 714.384 672.054 714.654 672.517C714.933 672.971 715.285 673.278 715.711 673.437C716.145 673.586 716.603 673.662 717.083 673.664C717.444 673.666 717.739 673.649 717.97 673.613C718.201 673.568 718.385 673.532 718.524 673.505L719.202 676.445C718.98 676.527 718.671 676.609 718.274 676.69C717.878 676.781 717.374 676.825 716.765 676.822C715.841 676.818 714.935 676.615 714.046 676.214C713.167 675.813 712.434 675.205 711.849 674.389C711.273 673.574 710.982 672.547 710.976 671.309L710.884 650.137Z" fill="#404041"/>
<path d="M723.733 676.576L723.64 655.292L726.911 655.307L727.003 676.591L723.733 676.576ZM725.288 651.753C724.65 651.75 724.1 651.53 723.636 651.094C723.181 650.658 722.953 650.135 722.95 649.525C722.947 648.916 723.172 648.395 723.622 647.962C724.082 647.53 724.631 647.316 725.268 647.319C725.906 647.321 726.452 647.541 726.906 647.977C727.37 648.413 727.603 648.936 727.606 649.546C727.609 650.156 727.38 650.677 726.92 651.109C726.469 651.541 725.925 651.755 725.288 651.753Z" fill="#404041"/>
<path d="M742.378 655.376L742.39 658.147L730.917 658.096L730.905 655.325L742.378 655.376ZM734.434 676.624L734.328 652.403C734.323 651.183 734.605 650.168 735.174 649.358C735.743 648.548 736.484 647.941 737.397 647.539C738.31 647.136 739.274 646.937 740.29 646.942C741.094 646.946 741.75 647.013 742.259 647.145C742.767 647.276 743.147 647.398 743.397 647.51L742.467 650.333C742.3 650.276 742.069 650.206 741.773 650.122C741.486 650.037 741.107 649.994 740.636 649.992C739.555 649.987 738.776 650.256 738.298 650.799C737.829 651.342 737.597 652.14 737.602 653.193L737.704 676.638L734.434 676.624Z" fill="#404041"/>
<path d="M561.956 486.125C595.396 447.766 605.455 407.588 607.592 397.266C608.339 394.285 608.751 391.225 608.82 388.145C608.68 361.107 587.354 339.067 561.189 338.927C535.025 338.788 513.928 360.601 514.069 387.639C514.168 390.721 514.612 393.785 515.392 396.773C517.626 407.079 528.095 447.427 561.956 486.125ZM561.308 361.746C575.466 361.822 587.002 373.749 587.078 388.373C587.155 402.998 575.742 414.803 561.584 414.727C547.427 414.651 535.9 402.734 535.824 388.1C535.748 373.465 547.151 361.671 561.308 361.746Z" fill="#384041"/>
<path d="M561.956 486.125C595.396 447.766 605.455 407.588 607.592 397.266C608.339 394.285 608.751 391.225 608.82 388.145C608.68 361.107 587.354 339.067 561.189 338.927C535.025 338.788 513.928 360.601 514.069 387.639C514.168 390.721 514.612 393.785 515.392 396.773C517.626 407.079 528.095 447.427 561.956 486.125ZM561.308 361.746C575.466 361.822 587.002 373.749 587.078 388.373C587.155 402.998 575.742 414.803 561.584 414.727C547.427 414.651 535.9 402.734 535.824 388.1C535.748 373.465 547.151 361.671 561.308 361.746Z" fill="#3B4243"/>
<path d="M620.906 400.571C619.088 410.028 607.324 462.239 562.236 508.989C559.543 506.19 556.958 503.379 554.48 500.554C510.883 450.722 502.154 398.38 502.154 398.38C502.154 398.38 493.096 434.377 515.131 470.034C528.03 488.532 543.052 503.959 555.793 515.422C551.231 519.796 546.347 524.081 541.141 528.277C533.455 521.596 518.729 522.368 505.671 530.813C490.66 540.483 483.576 556.582 489.794 566.762C492.58 571.329 497.603 573.9 503.631 574.51L503.701 574.511C511.075 575.219 519.929 572.956 528.144 567.658C541.523 559.003 548.6 545.255 545.535 535.163C545.532 534.666 545.531 534.362 545.53 534.301C549.411 531.514 555.312 527.056 562.319 521.123C569.379 527.131 575.337 531.654 579.238 534.483C579.24 534.919 578.508 548.467 586.5 554.248C594.493 560.028 621.532 575.186 621.532 575.186L623.055 572.781L593.37 552.582C592.946 552.282 592.651 551.83 592.545 551.32C592.44 550.81 592.532 550.281 592.803 549.842C592.935 549.627 593.11 549.441 593.315 549.297C593.521 549.152 593.754 549.051 594 548.999C594.246 548.947 594.5 548.946 594.748 548.996C594.995 549.046 595.231 549.145 595.441 549.288L625.127 569.488L627.646 565.498L597.96 545.298C597.536 544.998 597.241 544.546 597.136 544.036C597.031 543.526 597.123 542.997 597.393 542.558C597.526 542.342 597.7 542.155 597.907 542.009C598.113 541.864 598.347 541.762 598.594 541.71C598.842 541.658 599.098 541.658 599.346 541.708C599.595 541.759 599.831 541.86 600.041 542.005L629.727 562.194L632.246 558.204L602.561 538.004C602.138 537.706 601.843 537.257 601.736 536.749C601.628 536.242 601.717 535.714 601.984 535.274C602.116 535.058 602.291 534.872 602.497 534.726C602.703 534.58 602.937 534.478 603.184 534.425C603.431 534.372 603.686 534.371 603.935 534.42C604.184 534.469 604.421 534.568 604.632 534.711L634.318 554.91L635.841 552.496C635.841 552.496 611.781 532.874 603.369 527.527C596.045 522.866 585.998 527.434 583.574 528.546C578.321 524.291 573.408 519.926 568.786 515.502C582.601 503.224 595.107 489.523 606.104 474.619C606.71 473.416 607.386 472.143 608.272 470.718C627.376 439.57 622.41 407.857 620.906 400.571Z" fill="#3B4243"/>
<path d="M649.221 432.628C660.755 415.329 646.377 399.218 646.377 399.218C636.495 424.818 649.221 432.628 649.221 432.628Z" fill="#3B4243"/>
<path d="M626.418 462.029C620.257 471.488 619.483 479.001 620.435 484.436C621.068 488.31 622.883 491.901 625.627 494.705C626.794 495.309 644.741 504.057 658.57 477.59C658.57 477.59 639.511 478.865 630.233 487.173C630.884 485.032 631.211 482.8 631.202 480.553C631.432 470.971 626.418 462.029 626.418 462.029Z" fill="#3B4243"/>
<path d="M608.303 486.351C597.918 500.186 604.91 510.943 604.91 510.943L604.97 510.944C604.97 510.944 615.459 526.573 641.366 506.347C641.366 506.347 621.678 501.023 610.863 505.636C615.177 499.58 615.806 491.417 615.566 485.772C615.493 483.612 615.273 481.458 614.91 479.324C612.47 481.427 610.256 483.781 608.303 486.351Z" fill="#3B4243"/>
<path d="M647.049 442.892C646.595 431.071 635.038 421.488 635.038 421.488C631.149 445.116 645.172 450.377 645.634 450.541C648.865 450.774 652.087 450.09 654.934 448.566C660.597 445.659 667.302 438.757 670.257 422.599C665.509 424.75 661.038 427.466 656.937 430.691C652.87 433.91 649.04 438.031 647.049 442.892Z" fill="#3B4243"/>
<path d="M641.967 465.186C642.245 453.294 631.971 441.984 631.971 441.984C624.268 465.627 638.871 473.81 639.405 474.096C644.095 474.369 648.718 473.006 652.499 470.236C657.378 466.849 662.483 460.596 665.573 448.973C661.663 450.689 657.872 452.665 654.225 454.888C649.684 457.71 644.876 461.271 641.967 465.186Z" fill="#3B4243"/>
<path d="M474.11 432.041C474.11 432.041 486.759 424.36 476.623 398.659C476.623 398.659 462.414 414.624 474.11 432.041Z" fill="#3B4243"/>
<path d="M496.982 461.651C496.982 461.651 492.012 470.539 492.293 480.154C492.313 482.4 492.662 484.635 493.331 486.785C483.965 478.377 464.892 476.896 464.892 476.896C478.97 503.514 496.866 494.959 498.017 494.367L498.067 494.367C500.785 491.596 502.564 488.023 503.151 484.153C504.136 478.698 503.244 471.177 496.982 461.651Z" fill="#3B4243"/>
<path d="M508.639 479.009C508.297 481.139 508.097 483.29 508.041 485.45C507.88 491.093 508.585 499.283 512.953 505.366C502.099 500.636 482.465 505.748 482.465 505.748C508.576 526.255 518.902 510.737 518.902 510.737C518.902 510.737 525.791 500.055 515.25 486.107C513.293 483.519 511.077 481.141 508.639 479.009Z" fill="#3B4243"/>
<path d="M477.856 450.051C478.316 449.891 492.295 444.781 488.148 421.11C488.148 421.11 476.69 430.569 476.371 442.386C474.339 437.504 470.425 433.34 466.344 430.067C462.212 426.8 457.715 424.036 452.948 421.832C456.043 438.053 462.841 444.997 468.535 447.965C471.397 449.523 474.626 450.246 477.856 450.051Z" fill="#3B4243"/>
<path d="M484.226 473.665C484.747 473.384 499.234 465.358 491.313 441.63C491.313 441.63 481.157 452.83 481.56 464.726C478.59 460.779 473.754 457.167 469.204 454.346C465.532 452.086 461.72 450.069 457.793 448.308C461.015 459.965 466.176 466.274 471.081 469.714C474.9 472.509 479.541 473.904 484.226 473.665Z" fill="#3B4243"/>
<path d="M385.034 646.827L393.571 670.891L393.904 670.893L402.237 646.902L405.844 646.917L395.532 675.415L391.98 675.4L381.427 646.812L385.034 646.827Z" fill="#384041"/>
<path d="M416.621 675.953C414.697 675.944 413.007 675.477 411.551 674.551C410.105 673.625 408.971 672.333 408.15 670.676C407.338 669.018 406.928 667.084 406.919 664.873C406.909 662.643 407.303 660.698 408.101 659.038C408.908 657.379 410.031 656.092 411.469 655.178C412.918 654.265 414.604 653.812 416.527 653.82C418.451 653.829 420.136 654.296 421.583 655.222C423.039 656.148 424.173 657.445 424.984 659.111C425.805 660.778 426.221 662.726 426.23 664.956C426.239 667.167 425.841 669.098 425.034 670.749C424.236 672.399 423.113 673.681 421.665 674.595C420.226 675.508 418.545 675.961 416.621 675.953ZM416.609 672.998C418.07 673.004 419.271 672.633 420.211 671.885C421.151 671.136 421.845 670.149 422.293 668.925C422.741 667.7 422.962 666.373 422.956 664.942C422.95 663.511 422.718 662.177 422.259 660.939C421.801 659.701 421.098 658.7 420.152 657.934C419.205 657.168 418.001 656.781 416.54 656.775C415.079 656.769 413.878 657.145 412.938 657.902C411.998 658.66 411.303 659.656 410.855 660.89C410.408 662.124 410.187 663.456 410.193 664.887C410.199 666.318 410.431 667.647 410.889 668.876C411.348 670.104 412.05 671.097 412.997 671.853C413.943 672.61 415.147 672.992 416.609 672.998Z" fill="#384041"/>
<path d="M440.449 654.203L440.461 656.99L429.418 656.942L429.406 654.155L440.449 654.203ZM432.603 649.04L435.877 649.054L435.964 669.458C435.968 670.387 436.105 671.085 436.375 671.55C436.654 672.007 437.007 672.315 437.433 672.475C437.868 672.625 438.327 672.701 438.807 672.704C439.168 672.705 439.464 672.688 439.695 672.652C439.926 672.606 440.111 672.57 440.25 672.543L440.928 675.5C440.706 675.583 440.397 675.665 440 675.747C439.602 675.838 439.098 675.882 438.488 675.88C437.563 675.876 436.656 675.672 435.766 675.269C434.886 674.865 434.153 674.254 433.567 673.433C432.99 672.613 432.699 671.581 432.693 670.336L432.603 649.04Z" fill="#384041"/>
<path d="M445.465 675.631L445.374 654.224L448.537 654.237L448.551 657.471L448.773 657.472C449.157 656.414 449.856 655.558 450.871 654.903C451.885 654.247 453.031 653.922 454.307 653.928C454.548 653.929 454.848 653.935 455.209 653.946C455.57 653.957 455.843 653.972 456.028 653.991L456.042 657.336C455.931 657.308 455.676 657.265 455.278 657.207C454.89 657.141 454.478 657.106 454.043 657.104C453.007 657.1 452.083 657.314 451.271 657.747C450.469 658.171 449.833 658.763 449.364 659.523C448.905 660.274 448.678 661.132 448.682 662.099L448.739 675.645L445.465 675.631Z" fill="#384041"/>
<path d="M468.288 676.176C466.235 676.167 464.462 675.704 462.969 674.787C461.485 673.861 460.338 672.574 459.526 670.926C458.724 669.268 458.318 667.343 458.309 665.15C458.299 662.958 458.689 661.027 459.477 659.358C460.275 657.68 461.388 656.374 462.818 655.442C464.257 654.501 465.938 654.034 467.862 654.042C468.971 654.047 470.068 654.238 471.152 654.614C472.236 654.99 473.223 655.598 474.115 656.439C475.006 657.269 475.718 658.369 476.251 659.737C476.784 661.105 477.055 662.788 477.063 664.786L477.069 666.179L460.643 666.108L460.631 663.265L473.728 663.322C473.722 662.114 473.477 661.035 472.992 660.085C472.517 659.135 471.838 658.385 470.957 657.833C470.086 657.281 469.058 657.002 467.874 656.997C466.57 656.991 465.443 657.312 464.493 657.958C463.553 658.595 462.83 659.428 462.326 660.457C461.821 661.486 461.572 662.591 461.577 663.771L461.585 665.666C461.592 667.283 461.875 668.655 462.435 669.781C463.003 670.899 463.789 671.752 464.79 672.342C465.791 672.922 466.953 673.215 468.276 673.221C469.136 673.225 469.912 673.107 470.605 672.869C471.307 672.621 471.911 672.252 472.418 671.762C472.924 671.262 473.315 670.641 473.589 669.899L476.756 670.805C476.427 671.881 475.872 672.827 475.089 673.641C474.306 674.446 473.338 675.073 472.184 675.524C471.03 675.965 469.731 676.182 468.288 676.176Z" fill="#384041"/>
<path d="M501.715 684.348C500.134 684.341 498.773 684.131 497.634 683.717C496.494 683.313 495.544 682.779 494.783 682.116C494.031 681.462 493.432 680.763 492.984 680.018L495.585 678.189C495.882 678.581 496.259 679.028 496.714 679.532C497.17 680.045 497.791 680.489 498.579 680.864C499.376 681.248 500.417 681.443 501.703 681.449C503.423 681.456 504.841 681.044 505.957 680.213C507.072 679.382 507.626 678.074 507.619 676.29L507.6 671.942L507.323 671.94C507.084 672.33 506.744 672.811 506.302 673.385C505.87 673.95 505.243 674.454 504.422 674.896C503.61 675.33 502.51 675.543 501.123 675.537C499.403 675.53 497.856 675.114 496.484 674.291C495.121 673.467 494.038 672.273 493.236 670.709C492.444 669.145 492.043 667.247 492.033 665.017C492.024 662.825 492.4 660.917 493.16 659.294C493.921 657.662 494.984 656.403 496.349 655.517C497.714 654.622 499.294 654.178 501.088 654.186C502.475 654.192 503.577 654.429 504.393 654.897C505.218 655.356 505.849 655.879 506.286 656.466C506.732 657.044 507.077 657.519 507.319 657.892L507.652 657.893L507.637 654.493L510.8 654.507L510.894 676.527C510.901 678.367 510.491 679.861 509.664 681.009C508.846 682.167 507.74 683.013 506.345 683.546C504.96 684.088 503.417 684.355 501.715 684.348ZM501.554 672.584C502.868 672.59 503.976 672.293 504.88 671.693C505.784 671.093 506.469 670.227 506.936 669.096C507.403 667.964 507.633 666.609 507.626 665.029C507.62 663.487 507.383 662.125 506.915 660.943C506.448 659.761 505.76 658.833 504.85 658.16C503.941 657.487 502.821 657.148 501.489 657.142C500.102 657.136 498.947 657.484 498.025 658.186C497.112 658.889 496.427 659.833 495.97 661.021C495.522 662.208 495.301 663.526 495.307 664.976C495.313 666.462 495.55 667.778 496.017 668.923C496.494 670.059 497.191 670.954 498.11 671.608C499.037 672.253 500.185 672.579 501.554 672.584Z" fill="#384041"/>
<path d="M530.276 667.245L530.223 654.59L533.497 654.605L533.588 676.012L530.313 675.998L530.298 672.374L530.076 672.373C529.581 673.458 528.808 674.379 527.757 675.137C526.706 675.885 525.376 676.255 523.766 676.248C522.435 676.242 521.25 675.945 520.211 675.355C519.173 674.756 518.355 673.86 517.758 672.668C517.161 671.467 516.859 669.956 516.851 668.135L516.794 654.532L520.068 654.547L520.124 667.926C520.131 669.487 520.571 670.734 521.444 671.667C522.327 672.6 523.448 673.069 524.807 673.075C525.621 673.079 526.448 672.873 527.288 672.459C528.137 672.044 528.847 671.406 529.416 670.545C529.995 669.683 530.282 668.583 530.276 667.245Z" fill="#384041"/>
<path d="M539.584 676.038L539.494 654.63L542.768 654.645L542.858 676.052L539.584 676.038ZM541.143 651.07C540.505 651.067 539.954 650.846 539.49 650.408C539.034 649.969 538.806 649.443 538.803 648.83C538.8 648.217 539.025 647.693 539.476 647.258C539.937 646.823 540.486 646.607 541.124 646.61C541.762 646.613 542.309 646.833 542.764 647.272C543.228 647.711 543.462 648.237 543.464 648.85C543.467 649.463 543.238 649.987 542.777 650.422C542.326 650.857 541.781 651.073 541.143 651.07Z" fill="#384041"/>
<path d="M556.903 676.559C555.127 676.551 553.558 676.094 552.195 675.186C550.831 674.27 549.762 672.983 548.987 671.326C548.213 669.66 547.821 667.693 547.811 665.426C547.801 663.177 548.177 661.228 548.938 659.577C549.698 657.927 550.761 656.654 552.126 655.758C553.491 654.863 555.071 654.419 556.865 654.427C558.252 654.433 559.349 654.67 560.156 655.138C560.972 655.597 561.594 656.12 562.022 656.707C562.459 657.285 562.798 657.76 563.04 658.133L563.318 658.134L563.273 647.598L566.547 647.612L566.668 676.155L563.505 676.141L563.491 672.852L563.103 672.85C562.864 673.24 562.524 673.731 562.082 674.323C561.641 674.907 561.01 675.429 560.188 675.89C559.367 676.342 558.272 676.565 556.903 676.559ZM557.335 673.606C558.648 673.612 559.756 673.273 560.66 672.589C561.563 671.896 562.248 670.937 562.715 669.713C563.181 668.479 563.411 667.054 563.404 665.437C563.397 663.839 563.16 662.44 562.693 661.239C562.225 660.029 561.537 659.088 560.628 658.415C559.718 657.733 558.598 657.389 557.266 657.383C555.879 657.377 554.724 657.73 553.802 658.441C552.89 659.144 552.205 660.102 551.747 661.317C551.299 662.523 551.078 663.879 551.085 665.384C551.091 666.908 551.328 668.293 551.796 669.54C552.273 670.778 552.971 671.766 553.89 672.504C554.818 673.233 555.966 673.6 557.335 673.606Z" fill="#384041"/>
<path d="M582.055 676.667C580.002 676.658 578.229 676.196 576.736 675.279C575.252 674.352 574.105 673.065 573.293 671.417C572.491 669.76 572.085 667.835 572.076 665.642C572.066 663.449 572.456 661.518 573.244 659.849C574.042 658.171 575.155 656.866 576.585 655.934C578.024 654.992 579.705 654.526 581.629 654.534C582.739 654.539 583.835 654.729 584.919 655.106C586.003 655.482 586.99 656.09 587.882 656.93C588.773 657.761 589.485 658.86 590.018 660.228C590.551 661.597 590.822 663.279 590.83 665.277L590.836 666.671L574.41 666.6L574.398 663.757L587.495 663.813C587.49 662.605 587.244 661.527 586.76 660.577C586.284 659.627 585.606 658.876 584.725 658.324C583.853 657.772 582.825 657.494 581.641 657.489C580.337 657.483 579.21 657.803 578.26 658.449C577.32 659.086 576.597 659.92 576.093 660.949C575.589 661.978 575.339 663.082 575.344 664.262L575.352 666.158C575.359 667.775 575.642 669.146 576.202 670.273C576.771 671.39 577.556 672.244 578.557 672.834C579.558 673.414 580.72 673.707 582.043 673.713C582.903 673.716 583.679 673.599 584.372 673.36C585.074 673.113 585.678 672.744 586.185 672.253C586.691 671.754 587.082 671.133 587.356 670.391L590.523 671.296C590.194 672.373 589.639 673.318 588.856 674.132C588.074 674.937 587.105 675.565 585.951 676.015C584.797 676.456 583.498 676.674 582.055 676.667Z" fill="#384041"/>
<path d="M615.482 684.839C613.901 684.833 612.54 684.622 611.401 684.209C610.262 683.804 609.311 683.27 608.55 682.607C607.798 681.954 607.199 681.254 606.752 680.509L609.352 678.681C609.65 679.072 610.026 679.52 610.481 680.024C610.937 680.537 611.558 680.981 612.346 681.356C613.143 681.74 614.184 681.935 615.47 681.94C617.19 681.948 618.608 681.536 619.724 680.705C620.839 679.873 621.393 678.566 621.386 676.782L621.367 672.433L621.09 672.432C620.851 672.821 620.511 673.303 620.069 673.877C619.637 674.442 619.01 674.946 618.189 675.388C617.377 675.821 616.277 676.035 614.89 676.029C613.17 676.021 611.623 675.606 610.251 674.782C608.888 673.959 607.806 672.765 607.004 671.2C606.211 669.636 605.81 667.739 605.8 665.509C605.791 663.316 606.167 661.409 606.927 659.786C607.688 658.154 608.751 656.895 610.116 656.009C611.481 655.114 613.061 654.67 614.855 654.677C616.242 654.683 617.344 654.92 618.16 655.389C618.985 655.847 619.616 656.37 620.053 656.958C620.499 657.536 620.844 658.011 621.086 658.384L621.419 658.385L621.404 654.984L624.567 654.998L624.661 677.019C624.668 678.858 624.259 680.353 623.431 681.501C622.613 682.659 621.507 683.504 620.112 684.037C618.727 684.579 617.184 684.847 615.482 684.839ZM615.321 673.076C616.635 673.082 617.743 672.785 618.647 672.185C619.551 671.584 620.236 670.719 620.703 669.587C621.17 668.456 621.4 667.1 621.393 665.521C621.387 663.978 621.15 662.616 620.682 661.434C620.215 660.252 619.527 659.325 618.617 658.652C617.708 657.979 616.588 657.64 615.256 657.634C613.869 657.628 612.714 657.976 611.792 658.678C610.88 659.38 610.194 660.325 609.737 661.512C609.289 662.7 609.068 664.018 609.074 665.467C609.08 666.954 609.317 668.27 609.784 669.415C610.261 670.55 610.958 671.445 611.877 672.099C612.804 672.745 613.953 673.07 615.321 673.076Z" fill="#384041"/>
<path d="M644.043 667.737L643.99 655.082L647.264 655.096L647.355 676.504L644.081 676.489L644.065 672.866L643.843 672.865C643.348 673.95 642.575 674.871 641.524 675.628C640.473 676.376 639.143 676.747 637.534 676.74C636.202 676.734 635.017 676.436 633.978 675.846C632.94 675.247 632.122 674.352 631.525 673.16C630.928 671.959 630.626 670.448 630.618 668.627L630.561 655.024L633.835 655.038L633.891 668.418C633.898 669.979 634.338 671.226 635.211 672.159C636.094 673.091 637.215 673.561 638.574 673.567C639.388 673.57 640.215 673.365 641.055 672.95C641.904 672.536 642.614 671.898 643.183 671.036C643.762 670.175 644.049 669.075 644.043 667.737Z" fill="#384041"/>
<path d="M668.375 659.982L665.437 660.805C665.25 660.312 664.975 659.832 664.613 659.366C664.259 658.891 663.777 658.498 663.165 658.189C662.553 657.88 661.771 657.723 660.818 657.719C659.514 657.714 658.429 658.011 657.562 658.611C656.705 659.202 656.278 659.957 656.282 660.877C656.285 661.695 656.584 662.342 657.178 662.818C657.772 663.295 658.698 663.694 659.957 664.015L663.124 664.809C665.031 665.282 666.454 665.999 667.392 666.96C668.33 667.912 668.802 669.135 668.808 670.631C668.814 671.858 668.467 672.953 667.768 673.916C667.078 674.879 666.111 675.637 664.864 676.189C663.618 676.741 662.167 677.014 660.512 677.006C658.338 676.997 656.537 676.515 655.109 675.561C653.681 674.608 652.773 673.219 652.386 671.397L655.49 670.63C655.791 671.783 656.355 672.649 657.18 673.229C658.015 673.809 659.103 674.101 660.444 674.107C661.97 674.114 663.18 673.794 664.075 673.147C664.978 672.492 665.428 671.704 665.424 670.784C665.421 670.041 665.159 669.417 664.639 668.913C664.119 668.4 663.322 668.015 662.248 667.76L658.693 666.908C656.74 666.435 655.303 665.709 654.383 664.729C653.473 663.741 653.014 662.508 653.008 661.03C653.003 659.822 653.336 658.755 654.007 657.829C654.688 656.903 655.614 656.178 656.787 655.653C657.968 655.129 659.308 654.87 660.806 654.876C662.915 654.885 664.573 655.357 665.779 656.291C666.994 657.226 667.86 658.456 668.375 659.982Z" fill="#384041"/>
<path d="M682.939 655.25L682.951 658.038L671.908 657.99L671.896 655.203L682.939 655.25ZM675.093 650.088L678.367 650.102L678.453 670.506C678.457 671.435 678.594 672.132 678.864 672.598C679.144 673.054 679.496 673.363 679.923 673.522C680.358 673.673 680.816 673.749 681.297 673.751C681.658 673.753 681.954 673.736 682.185 673.699C682.416 673.654 682.6 673.618 682.739 673.59L683.417 676.548C683.196 676.631 682.886 676.713 682.489 676.795C682.092 676.886 681.588 676.93 680.977 676.928C680.053 676.924 679.145 676.72 678.256 676.317C677.375 675.913 676.642 675.301 676.056 674.481C675.479 673.661 675.188 672.629 675.183 671.384L675.093 650.088Z" fill="#384041"/>
<path d="M694.227 677.208C692.877 677.202 691.65 676.941 690.548 676.425C689.445 675.9 688.568 675.149 687.916 674.17C687.265 673.182 686.936 671.992 686.93 670.598C686.925 669.372 687.161 668.379 687.639 667.619C688.116 666.85 688.757 666.248 689.559 665.815C690.362 665.382 691.249 665.061 692.219 664.851C693.198 664.632 694.183 664.46 695.172 664.334C696.466 664.173 697.515 664.052 698.319 663.972C699.133 663.882 699.724 663.731 700.093 663.519C700.471 663.307 700.659 662.936 700.657 662.407L700.657 662.295C700.651 660.92 700.272 659.85 699.519 659.085C698.776 658.32 697.651 657.934 696.143 657.928C694.58 657.921 693.356 658.259 692.471 658.943C691.586 659.627 690.965 660.358 690.608 661.137L687.495 660.009C688.045 658.71 688.781 657.701 689.702 656.98C690.633 656.25 691.649 655.743 692.748 655.46C693.857 655.167 694.947 655.024 696.02 655.028C696.704 655.031 697.491 655.118 698.38 655.289C699.277 655.451 700.144 655.785 700.978 656.29C701.822 656.795 702.523 657.556 703.083 658.571C703.642 659.586 703.925 660.944 703.932 662.644L703.992 676.748L700.718 676.734L700.706 673.835L700.539 673.834C700.319 674.298 699.951 674.794 699.436 675.321C698.92 675.848 698.233 676.296 697.374 676.664C696.516 677.032 695.467 677.213 694.227 677.208ZM694.714 674.255C696.009 674.261 697.099 674.01 697.985 673.503C698.88 672.996 699.552 672.339 700.002 671.533C700.461 670.726 700.689 669.877 700.685 668.985L700.672 665.975C700.534 666.141 700.23 666.293 699.759 666.431C699.297 666.559 698.761 666.673 698.151 666.772C697.55 666.862 696.963 666.944 696.39 667.015C695.826 667.078 695.368 667.132 695.017 667.177C694.167 667.285 693.372 667.462 692.633 667.71C691.904 667.948 691.313 668.313 690.862 668.803C690.42 669.285 690.201 669.943 690.205 670.779C690.21 671.922 690.634 672.788 691.478 673.377C692.331 673.957 693.41 674.25 694.714 674.255Z" fill="#384041"/>
<path d="M719.144 655.407L719.156 658.194L708.113 658.146L708.101 655.359L719.144 655.407ZM711.298 650.244L714.572 650.258L714.659 670.662C714.663 671.591 714.8 672.289 715.07 672.754C715.349 673.211 715.702 673.519 716.128 673.679C716.563 673.829 717.022 673.906 717.503 673.908C717.863 673.909 718.159 673.892 718.39 673.856C718.621 673.81 718.806 673.774 718.945 673.747L719.623 676.704C719.401 676.787 719.092 676.869 718.695 676.951C718.297 677.042 717.793 677.087 717.183 677.084C716.258 677.08 715.351 676.876 714.461 676.473C713.581 676.07 712.848 675.458 712.262 674.638C711.685 673.818 711.394 672.785 711.388 671.54L711.298 650.244Z" fill="#384041"/>
<path d="M724.16 676.835L724.069 655.428L727.343 655.442L727.434 676.85L724.16 676.835ZM725.719 651.867C725.081 651.865 724.53 651.644 724.065 651.205C723.61 650.767 723.382 650.241 723.379 649.627C723.376 649.014 723.601 648.49 724.052 648.055C724.513 647.621 725.062 647.405 725.7 647.408C726.338 647.41 726.885 647.631 727.34 648.07C727.804 648.508 728.038 649.034 728.04 649.648C728.043 650.261 727.814 650.785 727.353 651.219C726.902 651.654 726.357 651.87 725.719 651.867Z" fill="#384041"/>
<path d="M742.829 655.509L742.841 658.297L731.354 658.247L731.342 655.46L742.829 655.509ZM734.874 676.882L734.771 652.52C734.765 651.293 735.048 650.272 735.618 649.457C736.188 648.642 736.93 648.032 737.843 647.627C738.757 647.222 739.723 647.022 740.74 647.027C741.545 647.03 742.202 647.098 742.711 647.23C743.22 647.362 743.6 647.485 743.85 647.597L742.919 650.437C742.752 650.38 742.521 650.309 742.224 650.224C741.937 650.14 741.558 650.096 741.086 650.094C740.004 650.089 739.224 650.36 738.745 650.906C738.276 651.452 738.043 652.255 738.048 653.314L738.148 676.896L734.874 676.882Z" fill="#384041"/>
<defs>
<linearGradient id="paint0_linear_301_86" x1="608.326" y1="12.6898" x2="608.326" y2="1182.02" gradientUnits="userSpaceOnUse">
<stop stop-color="#F3A741"/>
<stop offset="0.571181" stop-color="#F5F5F5"/>
<stop offset="1" stop-color="#F3A741" stop-opacity="0"/>
</linearGradient>
</defs>
</svg>
