<svg width="70" height="98" viewBox="0 0 70 98" fill="none" xmlns="http://www.w3.org/2000/svg">
<path d="M64.0319 74.2287L43.1546 66.5099C42.9709 66.441 42.7748 66.4109 42.5788 66.4216C42.3828 66.4322 42.1911 66.4834 42.0159 66.5719L34.9889 70.0752L27.9663 66.5719C27.7901 66.4843 27.5978 66.4337 27.4012 66.423C27.2046 66.4124 27.0079 66.442 26.8232 66.5099L5.94597 74.2287C4.20461 74.8779 2.70273 76.0414 1.64046 77.5642C0.578186 79.087 0.00594804 80.8969 0 82.7526V96.5624C0 96.9437 0.151711 97.3093 0.421756 97.5789C0.691802 97.8485 1.05806 98 1.43996 98H68.56C68.9419 98 69.3082 97.8485 69.5782 97.5789C69.8483 97.3093 70 96.9437 70 96.5624V82.7526C69.9936 80.894 69.4186 79.0816 68.352 77.5583C67.2854 76.0349 65.7781 74.8732 64.0319 74.2287ZM2.8888 82.7526C2.89282 81.4827 3.28419 80.2442 4.0108 79.2019C4.73741 78.1596 5.76475 77.363 6.95612 76.9182L27.2486 69.3984L31.7678 71.6543L29.8937 72.5788C29.6525 72.6967 29.4494 72.8799 29.3076 73.1075C29.1658 73.3351 29.091 73.598 29.0917 73.866V95.0983H12.4768V88.879C12.4876 88.6838 12.4584 88.4884 12.3911 88.3048C12.3237 88.1213 12.2196 87.9533 12.0851 87.8113C11.9505 87.6693 11.7883 87.5562 11.6084 87.4789C11.4286 87.4015 11.2348 87.3617 11.039 87.3617C10.8432 87.3617 10.6494 87.4015 10.4695 87.4789C10.2897 87.5562 10.1275 87.6693 9.99295 87.8113C9.85837 87.9533 9.75423 88.1213 9.68688 88.3048C9.61953 88.4884 9.5904 88.6838 9.60126 88.879V95.0983H2.8888V82.7526ZM67.1334 95.1381H60.4209V88.9188C60.4318 88.7236 60.4026 88.5283 60.3353 88.3447C60.2679 88.1611 60.1638 87.9932 60.0292 87.8512C59.8947 87.7091 59.7325 87.596 59.5526 87.5187C59.3728 87.4414 59.179 87.4015 58.9832 87.4015C58.7873 87.4015 58.5936 87.4414 58.4137 87.5187C58.2338 87.596 58.0717 87.7091 57.9371 87.8512C57.8025 87.9932 57.6984 88.1611 57.631 88.3447C57.5637 88.5283 57.5346 88.7236 57.5454 88.9188V95.1381H31.9849V74.7905L42.7736 69.4294L63.066 76.9491C64.2574 77.394 65.2847 78.1906 66.0113 79.2328C66.7379 80.2751 67.1294 81.5137 67.1334 82.7835V95.1381Z" fill="#FCFCFC"/>
<path d="M37.5454 81.7307H35.627C35.2594 81.7511 34.9137 81.9112 34.6607 82.1782C34.4078 82.4451 34.2668 82.7986 34.2668 83.1661C34.2668 83.5336 34.4078 83.8871 34.6607 84.154C34.9137 84.421 35.2594 84.5811 35.627 84.6015H37.5454C37.7409 84.6123 37.9366 84.5832 38.1205 84.516C38.3044 84.4487 38.4726 84.3448 38.6148 84.2104C38.7571 84.0761 38.8704 83.9142 38.9478 83.7346C39.0253 83.555 39.0652 83.3616 39.0652 83.1661C39.0652 82.9706 39.0253 82.7772 38.9478 82.5976C38.8704 82.418 38.7571 82.2561 38.6148 82.1218C38.4726 81.9874 38.3044 81.8835 38.1205 81.8162C37.9366 81.749 37.7409 81.7199 37.5454 81.7307Z" fill="#FCFCFC"/>
<path d="M37.5454 89.3879H35.627C35.2594 89.4082 34.9137 89.5683 34.6607 89.8353C34.4078 90.1022 34.2668 90.4558 34.2668 90.8232C34.2668 91.1907 34.4078 91.5443 34.6607 91.8112C34.9137 92.0782 35.2594 92.2383 35.627 92.2586H37.5454C37.7409 92.2695 37.9366 92.2404 38.1205 92.1732C38.3044 92.1059 38.4726 92.0019 38.6148 91.8676C38.7571 91.7332 38.8704 91.5713 38.9478 91.3918C39.0253 91.2122 39.0652 91.0187 39.0652 90.8232C39.0652 90.6277 39.0253 90.4343 38.9478 90.2547C38.8704 90.0752 38.7571 89.9133 38.6148 89.7789C38.4726 89.6445 38.3044 89.5406 38.1205 89.4733C37.9366 89.4061 37.7409 89.377 37.5454 89.3879Z" fill="#FCFCFC"/>
<path d="M51.7235 39.5716H18.2277C17.0405 39.5739 15.9024 40.0459 15.0629 40.884C14.2234 41.7222 13.7507 42.8583 13.7484 44.0436C13.7507 45.6497 14.3911 47.1893 15.5291 48.3246C16.667 49.4598 18.2096 50.0981 19.8183 50.0993H20.1373C20.2416 52.236 20.808 54.3249 21.7977 56.2224C22.7874 58.1199 24.1769 59.7809 25.8706 61.0914V62.6749L34.9756 67.2177L44.0806 62.6749V61.0914C45.7744 59.7809 47.1639 58.1199 48.1536 56.2224C49.1433 54.3249 49.7097 52.236 49.8139 50.0993H50.1374C51.7457 50.0981 53.2878 49.4597 54.4251 48.3243C55.5623 47.1889 56.2017 45.6493 56.2029 44.0436C56.2006 42.8583 55.7279 41.7222 54.8884 40.884C54.0488 40.0459 52.9108 39.5739 51.7235 39.5716Z" fill="#FCFCFC"/>
<path d="M19.3354 26.6376C19.4417 27.3321 19.5702 28.407 19.6633 29.1811C19.7386 29.8003 19.8095 30.4063 19.8804 30.9504H50.0974C50.1683 30.4108 50.2392 29.8048 50.3145 29.1811C50.4076 28.3981 50.5361 27.3321 50.6425 26.6376C52.7751 25.8986 54.6188 24.5048 55.9097 22.6559C57.2006 20.807 57.8724 18.5977 57.829 16.3444C57.7005 10.594 52.8223 5.91404 46.9561 5.89193C46.6937 5.89426 46.4428 6.00028 46.2585 6.1868C46.0741 6.37332 45.9713 6.62516 45.9725 6.88719V11.9962C45.9789 12.3765 45.8376 12.7445 45.5782 13.0232C45.3189 13.3019 44.9617 13.4697 44.5813 13.4913C44.3887 13.4979 44.1968 13.4656 44.017 13.3965C43.8371 13.3274 43.6731 13.2229 43.5346 13.0892C43.3961 12.9554 43.2859 12.7952 43.2108 12.618C43.1356 12.4409 43.0969 12.2505 43.097 12.0582V8.1169C43.103 5.98447 42.266 3.93579 40.7677 2.41596C39.2695 0.896136 37.231 0.027958 35.0952 0H34.887C32.7551 0.034884 30.7227 0.906727 29.2301 2.42676C27.7374 3.94679 26.9045 5.99266 26.9118 8.12133V12.0006C26.9181 12.3817 26.7762 12.7503 26.516 13.0291C26.2557 13.3079 25.8973 13.4752 25.5161 13.4958C25.3239 13.5017 25.1325 13.469 24.9532 13.3996C24.7739 13.3302 24.6103 13.2256 24.4723 13.0919C24.3343 12.9582 24.2246 12.7983 24.1497 12.6214C24.0748 12.4446 24.0362 12.2546 24.0363 12.0626V6.89161C24.0375 6.62842 23.9342 6.37545 23.749 6.1881C23.5638 6.00074 23.3119 5.89426 23.0483 5.89193C17.1821 5.91404 12.3039 10.6028 12.1754 16.3444C12.1315 18.5942 12.8 20.8005 14.0856 22.6487C15.3713 24.497 17.2085 25.8929 19.3354 26.6376Z" fill="#FCFCFC"/>
<path d="M49.8449 33.8164H20.1285V36.6872H49.8449V33.8164Z" fill="#FCFCFC"/>
</svg>
