<svg   viewBox="0 0 302 321" fill="none" xmlns="http://www.w3.org/2000/svg">
<path d="M203.09 62H101.42C96.7379 61.9947 92.2491 60.1324 88.9384 56.8217C85.6276 53.5109 83.7653 49.0221 83.76 44.34V17.67C83.7627 12.9862 85.6238 8.49479 88.9348 5.18188C92.2458 1.86898 96.7362 0.00529771 101.42 0H189.69C190.353 0 190.989 0.263337 191.458 0.732178C191.927 1.20102 192.19 1.83696 192.19 2.5C192.19 3.16304 191.927 3.79898 191.458 4.26782C190.989 4.73666 190.353 5 189.69 5H101.42C98.064 5.00529 94.8469 6.3408 92.4739 8.71387C90.1008 11.0869 88.7653 14.304 88.76 17.66V44.33C88.7627 47.6877 90.097 50.9074 92.4703 53.2826C94.8437 55.6578 98.0623 56.9947 101.42 57H203.09C206.446 56.9947 209.663 55.6592 212.036 53.2861C214.409 50.9131 215.745 47.696 215.75 44.34V17.67C215.747 14.3123 214.413 11.0926 212.04 8.71741C209.666 6.34218 206.448 5.0053 203.09 5C202.427 5 201.791 4.73666 201.322 4.26782C200.853 3.79898 200.59 3.16304 200.59 2.5C200.59 1.83696 200.853 1.20102 201.322 0.732178C201.791 0.263337 202.427 0 203.09 0C207.772 0.0052935 212.261 1.8676 215.572 5.17834C218.882 8.48909 220.745 12.9779 220.75 17.66V44.33C220.747 49.0138 218.886 53.5052 215.575 56.8181C212.264 60.131 207.774 61.9947 203.09 62Z" fill="#384041"/>
<path d="M236.8 320.94H67.69C60.1452 320.929 52.9124 317.928 47.5774 312.593C42.2424 307.258 39.2406 300.025 39.23 292.48V47.41C39.2511 39.8731 42.258 32.6515 47.5921 27.3268C52.9262 22.002 60.153 19.0079 67.69 19H75.13C75.793 19 76.4289 19.2633 76.8977 19.7322C77.3666 20.201 77.63 20.837 77.63 21.5C77.63 22.163 77.3666 22.799 76.8977 23.2678C76.4289 23.7367 75.793 24 75.13 24H67.69C61.4696 24.0053 55.5055 26.4786 51.1071 30.8771C46.7086 35.2755 44.2353 41.2396 44.23 47.46V292.53C44.2511 298.741 46.7312 304.691 51.1276 309.078C55.5241 313.465 61.4791 315.932 67.69 315.94H236.8C243.019 315.932 248.982 313.458 253.38 309.06C257.778 304.662 260.252 298.7 260.26 292.48V47.41C260.241 41.1984 257.762 35.247 253.365 30.8594C248.968 26.4717 243.012 24.0053 236.8 24L218.29 24.25C217.629 24.2502 216.995 23.9918 216.522 23.5303C216.049 23.0687 215.776 22.4406 215.76 21.78C215.756 21.4517 215.817 21.1258 215.939 20.8209C216.061 20.5161 216.242 20.2384 216.471 20.0034C216.7 19.7685 216.974 19.5811 217.276 19.4518C217.577 19.3225 217.902 19.2539 218.23 19.25L236.77 19C244.32 19.0026 251.56 22.0009 256.902 27.3368C262.243 32.6726 265.249 39.91 265.26 47.46V292.53C265.236 300.066 262.228 307.286 256.895 312.61C251.561 317.934 244.336 320.929 236.8 320.94V320.94Z" fill="#384041"/>
<path d="M228.12 300.44H76.39C74.0682 300.443 71.7686 299.988 69.6226 299.102C67.4765 298.216 65.526 296.916 63.8824 295.276C62.2388 293.636 60.9343 291.688 60.0434 289.544C59.1525 287.4 58.6926 285.102 58.6899 282.78V57.1099C58.6952 52.4278 60.5575 47.939 63.8683 44.6282C67.179 41.3175 71.6678 39.4552 76.3499 39.4499L86.1499 39.1999C86.4785 39.1879 86.8061 39.2416 87.1136 39.3579C87.4211 39.4741 87.7023 39.6506 87.9407 39.8769C88.1791 40.1032 88.37 40.3748 88.5021 40.6758C88.6342 40.9769 88.7048 41.3012 88.7099 41.6299C88.7234 42.2933 88.4748 42.9352 88.018 43.4163C87.5612 43.8975 86.9331 44.179 86.2699 44.1999L76.4099 44.4499C74.7435 44.4459 73.0925 44.7703 71.5514 45.4044C70.0103 46.0385 68.6091 46.97 67.4279 48.1456C66.2468 49.3212 65.3088 50.7178 64.6674 52.2559C64.026 53.794 63.6939 55.4435 63.6899 57.1099V282.78C63.6952 286.136 65.0307 289.353 67.4038 291.726C69.7769 294.099 72.9939 295.435 76.3499 295.44H228.12C231.476 295.435 234.693 294.099 237.066 291.726C239.439 289.353 240.775 286.136 240.78 282.78V57.1099C240.775 53.7539 239.439 50.5368 237.066 48.1638C234.693 45.7907 231.476 44.4552 228.12 44.4499C227.457 44.4499 226.821 44.1866 226.352 43.7177C225.883 43.2489 225.62 42.6129 225.62 41.9499C225.62 41.2869 225.883 40.651 226.352 40.1822C226.821 39.7134 227.457 39.4499 228.12 39.4499C232.802 39.4552 237.291 41.3175 240.602 44.6282C243.912 47.939 245.775 52.4278 245.78 57.1099V282.78C245.775 287.462 243.912 291.951 240.602 295.262C237.291 298.572 232.802 300.435 228.12 300.44V300.44Z" fill="#384041"/>
<path d="M179.19 187.43H94.6899C94.0269 187.43 93.391 187.166 92.9222 186.697C92.4533 186.229 92.1899 185.593 92.1899 184.93C92.1899 184.267 92.4533 183.631 92.9222 183.162C93.391 182.693 94.0269 182.43 94.6899 182.43H179.19C179.853 182.43 180.489 182.693 180.958 183.162C181.427 183.631 181.69 184.267 181.69 184.93C181.69 185.593 181.427 186.229 180.958 186.697C180.489 187.166 179.853 187.43 179.19 187.43Z" fill="#384041"/>
<path d="M204.58 192.93C202.998 192.93 201.451 192.461 200.136 191.581C198.82 190.702 197.795 189.453 197.189 187.991C196.584 186.529 196.425 184.921 196.734 183.369C197.042 181.817 197.804 180.392 198.923 179.273C200.042 178.154 201.468 177.392 203.019 177.083C204.571 176.775 206.18 176.933 207.642 177.539C209.103 178.144 210.353 179.17 211.232 180.485C212.111 181.801 212.58 183.347 212.58 184.93C212.58 187.051 211.737 189.086 210.237 190.587C208.737 192.087 206.702 192.93 204.58 192.93ZM204.58 181.93C203.987 181.93 203.407 182.106 202.913 182.435C202.42 182.765 202.036 183.233 201.808 183.782C201.581 184.33 201.522 184.933 201.638 185.515C201.753 186.097 202.039 186.631 202.459 187.051C202.878 187.471 203.413 187.756 203.995 187.872C204.577 187.988 205.18 187.928 205.728 187.701C206.276 187.474 206.745 187.09 207.074 186.596C207.404 186.103 207.58 185.523 207.58 184.93C207.58 184.134 207.264 183.371 206.701 182.808C206.139 182.246 205.376 181.93 204.58 181.93Z" fill="#384041"/>
<path d="M179.19 224.26H94.6899C94.0269 224.26 93.391 223.996 92.9222 223.527C92.4533 223.059 92.1899 222.423 92.1899 221.76C92.1899 221.097 92.4533 220.461 92.9222 219.992C93.391 219.523 94.0269 219.26 94.6899 219.26H179.19C179.853 219.26 180.489 219.523 180.958 219.992C181.427 220.461 181.69 221.097 181.69 221.76C181.69 222.423 181.427 223.059 180.958 223.527C180.489 223.996 179.853 224.26 179.19 224.26Z" fill="#384041"/>
<path d="M204.58 229.76C202.998 229.76 201.451 229.291 200.136 228.412C198.82 227.532 197.795 226.283 197.189 224.821C196.584 223.359 196.425 221.751 196.734 220.199C197.042 218.647 197.804 217.222 198.923 216.103C200.042 214.984 201.468 214.222 203.019 213.913C204.571 213.605 206.18 213.763 207.642 214.369C209.103 214.974 210.353 216 211.232 217.315C212.111 218.631 212.58 220.178 212.58 221.76C212.58 223.882 211.737 225.916 210.237 227.417C208.737 228.917 206.702 229.76 204.58 229.76ZM204.58 218.76C203.987 218.76 203.407 218.936 202.913 219.265C202.42 219.595 202.036 220.064 201.808 220.612C201.581 221.16 201.522 221.763 201.638 222.345C201.753 222.927 202.039 223.462 202.459 223.881C202.878 224.301 203.413 224.586 203.995 224.702C204.577 224.818 205.18 224.758 205.728 224.531C206.276 224.304 206.745 223.92 207.074 223.427C207.404 222.933 207.58 222.353 207.58 221.76C207.58 220.964 207.264 220.201 206.701 219.638C206.139 219.076 205.376 218.76 204.58 218.76Z" fill="#384041"/>
<path d="M179.19 224.26H94.6899C94.0269 224.26 93.391 223.996 92.9222 223.527C92.4533 223.059 92.1899 222.423 92.1899 221.76C92.1899 221.097 92.4533 220.461 92.9222 219.992C93.391 219.523 94.0269 219.26 94.6899 219.26H179.19C179.853 219.26 180.489 219.523 180.958 219.992C181.427 220.461 181.69 221.097 181.69 221.76C181.69 222.423 181.427 223.059 180.958 223.527C180.489 223.996 179.853 224.26 179.19 224.26Z" fill="#384041"/>
<path d="M204.58 229.76C202.998 229.76 201.451 229.291 200.136 228.412C198.82 227.532 197.795 226.283 197.189 224.821C196.584 223.359 196.425 221.751 196.734 220.199C197.042 218.647 197.804 217.222 198.923 216.103C200.042 214.984 201.468 214.222 203.019 213.913C204.571 213.605 206.18 213.763 207.642 214.369C209.103 214.974 210.353 216 211.232 217.315C212.111 218.631 212.58 220.178 212.58 221.76C212.58 223.882 211.737 225.916 210.237 227.417C208.737 228.917 206.702 229.76 204.58 229.76ZM204.58 218.76C203.987 218.76 203.407 218.936 202.913 219.265C202.42 219.595 202.036 220.064 201.808 220.612C201.581 221.16 201.522 221.763 201.638 222.345C201.753 222.927 202.039 223.462 202.459 223.881C202.878 224.301 203.413 224.586 203.995 224.702C204.577 224.818 205.18 224.758 205.728 224.531C206.276 224.304 206.745 223.92 207.074 223.427C207.404 222.933 207.58 222.353 207.58 221.76C207.58 220.964 207.264 220.201 206.701 219.638C206.139 219.076 205.376 218.76 204.58 218.76Z" fill="#384041"/>
<path d="M179.19 261.08H94.6899C94.0269 261.08 93.391 260.817 92.9222 260.348C92.4533 259.879 92.1899 259.243 92.1899 258.58C92.1899 257.917 92.4533 257.281 92.9222 256.812C93.391 256.344 94.0269 256.08 94.6899 256.08H179.19C179.853 256.08 180.489 256.344 180.958 256.812C181.427 257.281 181.69 257.917 181.69 258.58C181.69 259.243 181.427 259.879 180.958 260.348C180.489 260.817 179.853 261.08 179.19 261.08V261.08Z" fill="#384041"/>
<path d="M204.58 266.58C202.998 266.58 201.451 266.111 200.136 265.232C198.82 264.353 197.795 263.103 197.189 261.642C196.584 260.18 196.425 258.571 196.734 257.019C197.042 255.467 197.804 254.042 198.923 252.923C200.042 251.804 201.468 251.042 203.019 250.734C204.571 250.425 206.18 250.584 207.642 251.189C209.103 251.795 210.353 252.82 211.232 254.136C212.111 255.451 212.58 256.998 212.58 258.58C212.58 260.702 211.737 262.737 210.237 264.237C208.737 265.737 206.702 266.58 204.58 266.58ZM204.58 255.58C203.987 255.58 203.407 255.756 202.913 256.086C202.42 256.415 202.036 256.884 201.808 257.432C201.581 257.98 201.522 258.583 201.638 259.165C201.753 259.747 202.039 260.282 202.459 260.701C202.878 261.121 203.413 261.407 203.995 261.522C204.577 261.638 205.18 261.579 205.728 261.352C206.276 261.125 206.745 260.74 207.074 260.247C207.404 259.753 207.58 259.173 207.58 258.58C207.58 257.784 207.264 257.021 206.701 256.459C206.139 255.896 205.376 255.58 204.58 255.58Z" fill="#384041"/>
<path d="M283 247.83C282.337 247.83 281.701 247.567 281.232 247.098C280.763 246.629 280.5 245.993 280.5 245.33V140.15C280.5 139.487 280.763 138.851 281.232 138.383C281.701 137.914 282.337 137.65 283 137.65C283.663 137.65 284.299 137.914 284.768 138.383C285.237 138.851 285.5 139.487 285.5 140.15V245.33C285.5 245.993 285.237 246.629 284.768 247.098C284.299 247.567 283.663 247.83 283 247.83Z" fill="#384041"/>
<path d="M299.48 234.65C298.817 234.65 298.181 234.387 297.712 233.918C297.243 233.449 296.98 232.813 296.98 232.15V170.65C296.98 169.987 297.243 169.351 297.712 168.883C298.181 168.414 298.817 168.15 299.48 168.15C300.143 168.15 300.779 168.414 301.248 168.883C301.717 169.351 301.98 169.987 301.98 170.65V232.15C301.98 232.813 301.717 233.449 301.248 233.918C300.779 234.387 300.143 234.65 299.48 234.65Z" fill="#384041"/>
<path d="M18.98 186.33C18.3169 186.33 17.6811 186.067 17.2122 185.598C16.7434 185.129 16.48 184.493 16.48 183.83V78.6504C16.48 77.9873 16.7434 77.3514 17.2122 76.8826C17.6811 76.4137 18.3169 76.1504 18.98 76.1504C19.643 76.1504 20.2789 76.4137 20.7477 76.8826C21.2166 77.3514 21.48 77.9873 21.48 78.6504V183.83C21.48 184.493 21.2166 185.129 20.7477 185.598C20.2789 186.067 19.643 186.33 18.98 186.33V186.33Z" fill="#384041"/>
<path d="M2.5 155.83C1.83696 155.83 1.20108 155.567 0.732239 155.098C0.263398 154.629 0 153.993 0 153.33V91.8301C0 91.167 0.263398 90.5312 0.732239 90.0624C1.20108 89.5935 1.83696 89.3301 2.5 89.3301C3.16304 89.3301 3.79892 89.5935 4.26776 90.0624C4.7366 90.5312 5 91.167 5 91.8301V153.33C5 153.993 4.7366 154.629 4.26776 155.098C3.79892 155.567 3.16304 155.83 2.5 155.83V155.83Z" fill="#384041"/>
<path d="M172.032 144.229L151.155 136.51C150.971 136.441 150.775 136.411 150.579 136.422C150.383 136.432 150.191 136.483 150.016 136.572L142.989 140.075L135.966 136.572C135.79 136.484 135.598 136.434 135.401 136.423C135.205 136.412 135.008 136.442 134.823 136.51L113.946 144.229C112.205 144.878 110.703 146.041 109.64 147.564C108.578 149.087 108.006 150.897 108 152.753V166.562C108 166.944 108.152 167.309 108.422 167.579C108.692 167.849 109.058 168 109.44 168H176.56C176.942 168 177.308 167.849 177.578 167.579C177.848 167.309 178 166.944 178 166.562V152.753C177.994 150.894 177.419 149.082 176.352 147.558C175.285 146.035 173.778 144.873 172.032 144.229ZM110.889 152.753C110.893 151.483 111.284 150.244 112.011 149.202C112.737 148.16 113.765 147.363 114.956 146.918L135.249 139.398L139.768 141.654L137.894 142.579C137.652 142.697 137.449 142.88 137.308 143.107C137.166 143.335 137.091 143.598 137.092 143.866V165.098H120.477V158.879C120.488 158.684 120.458 158.488 120.391 158.305C120.324 158.121 120.22 157.953 120.085 157.811C119.95 157.669 119.788 157.556 119.608 157.479C119.429 157.402 119.235 157.362 119.039 157.362C118.843 157.362 118.649 157.402 118.47 157.479C118.29 157.556 118.128 157.669 117.993 157.811C117.858 157.953 117.754 158.121 117.687 158.305C117.62 158.488 117.59 158.684 117.601 158.879V165.098H110.889V152.753ZM175.133 165.138H168.421V158.919C168.432 158.724 168.403 158.528 168.335 158.345C168.268 158.161 168.164 157.993 168.029 157.851C167.895 157.709 167.732 157.596 167.553 157.519C167.373 157.441 167.179 157.401 166.983 157.401C166.787 157.401 166.594 157.441 166.414 157.519C166.234 157.596 166.072 157.709 165.937 157.851C165.803 157.993 165.698 158.161 165.631 158.345C165.564 158.528 165.535 158.724 165.545 158.919V165.138H139.985V144.791L150.774 139.429L171.066 146.949C172.257 147.394 173.285 148.191 174.011 149.233C174.738 150.275 175.129 151.514 175.133 152.784V165.138Z" fill="#384041"/>
<path d="M145.545 151.731H143.627C143.259 151.751 142.914 151.911 142.661 152.178C142.408 152.445 142.267 152.799 142.267 153.166C142.267 153.534 142.408 153.887 142.661 154.154C142.914 154.421 143.259 154.581 143.627 154.602H145.545C145.741 154.612 145.937 154.583 146.12 154.516C146.304 154.449 146.473 154.345 146.615 154.21C146.757 154.076 146.87 153.914 146.948 153.735C147.025 153.555 147.065 153.362 147.065 153.166C147.065 152.971 147.025 152.777 146.948 152.598C146.87 152.418 146.757 152.256 146.615 152.122C146.473 151.987 146.304 151.883 146.12 151.816C145.937 151.749 145.741 151.72 145.545 151.731Z" fill="#384041"/>
<path d="M145.545 159.388H143.627C143.259 159.408 142.914 159.568 142.661 159.835C142.408 160.102 142.267 160.456 142.267 160.823C142.267 161.191 142.408 161.544 142.661 161.811C142.914 162.078 143.259 162.238 143.627 162.259H145.545C145.741 162.269 145.937 162.24 146.12 162.173C146.304 162.106 146.473 162.002 146.615 161.868C146.757 161.733 146.87 161.571 146.948 161.392C147.025 161.212 147.065 161.019 147.065 160.823C147.065 160.628 147.025 160.434 146.948 160.255C146.87 160.075 146.757 159.913 146.615 159.779C146.473 159.645 146.304 159.541 146.12 159.473C145.937 159.406 145.741 159.377 145.545 159.388Z" fill="#384041"/>
<path d="M159.724 109.572H126.228C125.04 109.574 123.902 110.046 123.063 110.884C122.223 111.722 121.751 112.858 121.748 114.044C121.751 115.65 122.391 117.189 123.529 118.325C124.667 119.46 126.21 120.098 127.818 120.099H128.137C128.242 122.236 128.808 124.325 129.798 126.222C130.787 128.12 132.177 129.781 133.871 131.091V132.675L142.976 137.218L152.081 132.675V131.091C153.774 129.781 155.164 128.12 156.154 126.222C157.143 124.325 157.71 122.236 157.814 120.099H158.137C159.746 120.098 161.288 119.46 162.425 118.324C163.562 117.189 164.202 115.649 164.203 114.044C164.201 112.858 163.728 111.722 162.888 110.884C162.049 110.046 160.911 109.574 159.724 109.572Z" fill="#384041"/>
<path d="M127.335 96.6376C127.442 97.3321 127.57 98.407 127.663 99.1811C127.739 99.8003 127.809 100.406 127.88 100.95H158.097C158.168 100.411 158.239 99.8048 158.315 99.1811C158.408 98.3981 158.536 97.3321 158.642 96.6376C160.775 95.8986 162.619 94.5048 163.91 92.6559C165.201 90.807 165.872 88.5977 165.829 86.3444C165.7 80.594 160.822 75.914 154.956 75.8919C154.694 75.8943 154.443 76.0003 154.258 76.1868C154.074 76.3733 153.971 76.6252 153.973 76.8872V81.9962C153.979 82.3765 153.838 82.7445 153.578 83.0232C153.319 83.3019 152.962 83.4697 152.581 83.4913C152.389 83.4979 152.197 83.4656 152.017 83.3965C151.837 83.3274 151.673 83.2229 151.535 83.0892C151.396 82.9554 151.286 82.7952 151.211 82.618C151.136 82.4409 151.097 82.2505 151.097 82.0582V78.1169C151.103 75.9845 150.266 73.9358 148.768 72.416C147.269 70.8961 145.231 70.028 143.095 70H142.887C140.755 70.0349 138.723 70.9067 137.23 72.4268C135.737 73.9468 134.905 75.9927 134.912 78.1213V82.0006C134.918 82.3817 134.776 82.7503 134.516 83.0291C134.256 83.3079 133.897 83.4752 133.516 83.4958C133.324 83.5017 133.132 83.469 132.953 83.3996C132.774 83.3302 132.61 83.2256 132.472 83.0919C132.334 82.9582 132.225 82.7983 132.15 82.6214C132.075 82.4446 132.036 82.2546 132.036 82.0626V76.8916C132.037 76.6284 131.934 76.3754 131.749 76.1881C131.564 76.0007 131.312 75.8943 131.048 75.8919C125.182 75.914 120.304 80.6028 120.175 86.3444C120.131 88.5942 120.8 90.8005 122.086 92.6487C123.371 94.497 125.208 95.8929 127.335 96.6376Z" fill="#384041"/>
<path d="M157.845 103.816H128.128V106.687H157.845V103.816Z" fill="#384041"/>
</svg>
