<svg width="891" height="891" viewBox="0 0 891 891" fill="none" xmlns="http://www.w3.org/2000/svg">
<path fill-rule="evenodd" clip-rule="evenodd" d="M87.39 87.405C203.93 -29.135 392.88 -29.135 509.39 87.405C625.9 203.945 625.93 392.905 509.39 509.405C392.85 625.905 203.89 625.945 87.39 509.405C-29.11 392.865 -29.15 203.905 87.39 87.405Z" fill="#384041"/>
<path d="M518.864 455.214L455.203 518.875L581.344 645.016L645.005 581.355L518.864 455.214Z" fill="#384041"/>
<path d="M680.941 579.586L579.563 680.964L788.81 890.211L890.188 788.833L680.941 579.586Z" fill="#384041"/>
<path fill-rule="evenodd" clip-rule="evenodd" d="M121.09 121.105C219.01 23.185 377.75 23.185 475.66 121.105C573.57 219.025 573.57 377.755 475.66 475.665C377.75 573.575 219.09 573.625 121.09 475.705C23.09 377.785 23.21 219.105 121.09 121.105Z" fill="white"/>
<path d="M375.82 354.455H370.42V311.405C370.418 310.544 370.074 309.719 369.465 309.11C368.856 308.501 368.031 308.158 367.17 308.155H289.29C288.428 308.155 287.602 308.498 286.992 309.107C286.383 309.717 286.04 310.543 286.04 311.405V354.455H280.63C280.204 354.455 279.782 354.539 279.388 354.703C278.994 354.866 278.637 355.106 278.336 355.408C278.035 355.71 277.796 356.068 277.634 356.462C277.472 356.857 277.389 357.279 277.39 357.705V370.705C277.39 371.565 277.732 372.389 278.339 372.996C278.947 373.604 279.771 373.945 280.63 373.945H375.82C376.246 373.947 376.669 373.864 377.063 373.702C377.457 373.539 377.816 373.301 378.118 373C378.42 372.699 378.659 372.341 378.823 371.947C378.986 371.554 379.07 371.132 379.07 370.705V357.705C379.071 357.278 378.988 356.855 378.825 356.46C378.663 356.065 378.423 355.706 378.121 355.404C377.819 355.102 377.46 354.863 377.065 354.7C376.671 354.537 376.247 354.454 375.82 354.455ZM292.53 314.645H363.92V354.455H292.53V314.645ZM372.58 367.435H283.88V360.915H372.58V367.435Z" fill="#011839"/>
<path d="M405.46 230.276H367.17C366.729 230.251 366.287 230.317 365.872 230.469C365.457 230.621 365.078 230.856 364.757 231.16C364.435 231.463 364.18 231.829 364.005 232.235C363.83 232.641 363.74 233.079 363.74 233.521C363.74 233.962 363.83 234.4 364.005 234.806C364.18 235.212 364.435 235.578 364.757 235.881C365.078 236.185 365.457 236.42 365.872 236.572C366.287 236.724 366.729 236.79 367.17 236.766H402.22V256.236H193.66V236.766H228.66C229.49 236.719 230.27 236.357 230.841 235.754C231.412 235.15 231.73 234.351 231.73 233.521C231.73 232.69 231.412 231.891 230.841 231.287C230.27 230.684 229.49 230.322 228.66 230.276H190.42C189.994 230.274 189.571 230.357 189.177 230.519C188.783 230.682 188.425 230.92 188.123 231.221C187.821 231.522 187.581 231.88 187.418 232.273C187.254 232.667 187.17 233.089 187.17 233.516V272.586C187.174 276.919 188.314 281.177 190.478 284.932C192.641 288.687 195.752 291.809 199.5 293.986V402.056H190.42C189.979 402.031 189.537 402.097 189.122 402.249C188.707 402.401 188.328 402.636 188.007 402.94C187.685 403.243 187.43 403.609 187.255 404.015C187.08 404.421 186.99 404.859 186.99 405.301C186.99 405.743 187.08 406.18 187.255 406.586C187.43 406.992 187.685 407.358 188.007 407.661C188.328 407.965 188.707 408.2 189.122 408.352C189.537 408.504 189.979 408.57 190.42 408.546H405.42C405.861 408.57 406.303 408.504 406.718 408.352C407.133 408.2 407.513 407.965 407.834 407.661C408.155 407.358 408.411 406.992 408.585 406.586C408.76 406.18 408.85 405.743 408.85 405.301C408.85 404.859 408.76 404.421 408.585 404.015C408.411 403.609 408.155 403.243 407.834 402.94C407.513 402.636 407.133 402.401 406.718 402.249C406.303 402.097 405.861 402.031 405.42 402.056H396.34V293.986C400.088 291.809 403.199 288.687 405.363 284.932C407.526 281.177 408.667 276.919 408.67 272.586V233.516C408.67 232.661 408.333 231.842 407.732 231.235C407.131 230.628 406.314 230.283 405.46 230.276ZM359.17 272.586C359.17 277.428 357.246 282.073 353.822 285.497C350.398 288.922 345.753 290.845 340.91 290.845C336.067 290.845 331.423 288.922 327.998 285.497C324.574 282.073 322.65 277.428 322.65 272.586V262.725H359.17V272.586ZM236.67 262.725H273.17V272.586C273.17 277.428 271.246 282.073 267.822 285.497C264.398 288.922 259.753 290.845 254.91 290.845C250.067 290.845 245.423 288.922 241.998 285.497C238.574 282.073 236.65 277.428 236.65 272.586L236.67 262.725ZM279.67 262.725H316.17V272.586C316.17 277.428 314.246 282.073 310.822 285.497C307.398 288.922 302.753 290.845 297.91 290.845C293.067 290.845 288.423 288.922 284.998 285.497C281.574 282.073 279.65 277.428 279.65 272.586L279.67 262.725ZM193.67 272.586V262.725H230.17V272.586C230.17 277.428 228.246 282.073 224.822 285.497C221.398 288.922 216.753 290.845 211.91 290.845C207.067 290.845 202.423 288.922 198.998 285.497C195.574 282.073 193.65 277.428 193.65 272.586H193.67ZM260.09 402.056H223.3V339.315H260.08L260.09 402.056ZM389.9 402.056H266.57V336.056C266.57 335.629 266.486 335.207 266.323 334.813C266.159 334.42 265.92 334.062 265.618 333.761C265.316 333.46 264.957 333.222 264.563 333.059C264.169 332.897 263.747 332.814 263.32 332.815H220.05C219.191 332.815 218.367 333.157 217.759 333.764C217.152 334.372 216.81 335.196 216.81 336.056V402.056H205.99V296.616C211.221 297.905 216.731 297.453 221.681 295.327C226.632 293.2 230.753 289.517 233.42 284.836C235.583 288.629 238.712 291.783 242.488 293.976C246.264 296.17 250.553 297.325 254.92 297.325C259.287 297.325 263.576 296.17 267.352 293.976C271.129 291.783 274.257 288.629 276.42 284.836C278.583 288.629 281.712 291.783 285.488 293.976C289.264 296.17 293.553 297.325 297.92 297.325C302.287 297.325 306.576 296.17 310.352 293.976C314.129 291.783 317.257 288.629 319.42 284.836C321.583 288.629 324.712 291.783 328.488 293.976C332.264 296.17 336.553 297.325 340.92 297.325C345.287 297.325 349.576 296.17 353.352 293.976C357.129 291.783 360.257 288.629 362.42 284.836C365.089 289.518 369.212 293.202 374.164 295.328C379.117 297.454 384.628 297.906 389.86 296.616L389.9 402.056ZM402.23 272.586C402.23 274.983 401.758 277.358 400.84 279.573C399.923 281.789 398.578 283.802 396.882 285.497C395.186 287.193 393.173 288.538 390.958 289.456C388.743 290.373 386.368 290.846 383.97 290.846C381.572 290.846 379.198 290.373 376.982 289.456C374.767 288.538 372.754 287.193 371.058 285.497C369.363 283.802 368.018 281.789 367.1 279.573C366.183 277.358 365.71 274.983 365.71 272.586V262.725H402.23V272.586Z" fill="#011839"/>
<path d="M250.34 379.335C250.767 379.336 251.191 379.253 251.586 379.09C251.98 378.927 252.339 378.688 252.641 378.386C252.943 378.084 253.183 377.725 253.346 377.33C253.508 376.935 253.592 376.512 253.59 376.085V365.275C253.615 364.834 253.549 364.392 253.397 363.977C253.245 363.562 253.01 363.182 252.706 362.861C252.402 362.54 252.036 362.284 251.63 362.11C251.225 361.935 250.787 361.845 250.345 361.845C249.903 361.845 249.466 361.935 249.06 362.11C248.654 362.284 248.288 362.54 247.984 362.861C247.681 363.182 247.445 363.562 247.293 363.977C247.141 364.392 247.076 364.834 247.1 365.275V376.085C247.099 376.511 247.182 376.934 247.344 377.328C247.506 377.722 247.745 378.081 248.046 378.382C248.347 378.684 248.704 378.924 249.098 379.087C249.492 379.251 249.914 379.335 250.34 379.335Z" fill="#011839"/>
<path d="M267.78 231.104C268.273 231.846 268.942 232.454 269.727 232.875C270.513 233.295 271.39 233.515 272.28 233.514H323.6C324.491 233.515 325.368 233.295 326.153 232.875C326.938 232.454 327.607 231.846 328.1 231.104L330.82 227.024H265.06L267.78 231.104Z" fill="#3B4243"/>
<path d="M297.94 201.065C292.48 201.073 287.205 203.044 283.078 206.619C278.951 210.193 276.247 215.133 275.46 220.535H320.46C319.672 215.126 316.962 210.181 312.827 206.606C308.691 203.03 303.407 201.064 297.94 201.065Z" fill="#3B4243"/>
<path d="M357.43 249.745V193.495C357.432 192.642 357.265 191.798 356.939 191.01C356.613 190.222 356.135 189.506 355.532 188.903C354.929 188.3 354.213 187.822 353.425 187.496C352.637 187.171 351.793 187.004 350.94 187.005H244.94C244.088 187.005 243.244 187.173 242.457 187.499C241.669 187.825 240.954 188.303 240.351 188.906C239.748 189.508 239.27 190.224 238.944 191.011C238.618 191.799 238.45 192.643 238.45 193.495V249.745H357.43ZM339.58 225.585L333.5 234.705C332.412 236.334 330.94 237.669 329.213 238.594C327.487 239.518 325.559 240.003 323.6 240.005H272.28C270.321 240.005 268.393 239.521 266.666 238.596C264.939 237.672 263.467 236.335 262.38 234.705L256.3 225.585C255.903 224.99 255.712 224.28 255.759 223.566C255.806 222.852 256.088 222.173 256.56 221.635C256.88 221.282 257.27 221.002 257.707 220.812C258.143 220.623 258.615 220.528 259.09 220.535H268.92C269.666 213.957 272.62 207.827 277.301 203.146C281.982 198.465 288.113 195.51 294.69 194.765V193.625C294.679 192.765 295 191.934 295.587 191.306C296.174 190.678 296.982 190.301 297.84 190.255C298.274 190.24 298.707 190.313 299.112 190.469C299.518 190.626 299.887 190.862 300.199 191.165C300.511 191.467 300.759 191.829 300.927 192.23C301.096 192.63 301.182 193.06 301.18 193.495V194.765C307.76 195.508 313.892 198.462 318.575 203.143C323.258 207.824 326.214 213.956 326.96 220.535H336.79C337.266 220.528 337.737 220.623 338.174 220.812C338.61 221.002 339.001 221.282 339.32 221.635C339.792 222.173 340.074 222.852 340.121 223.566C340.168 224.28 339.978 224.99 339.58 225.585Z" fill="#3B4243"/>
</svg>
