<svg width="823" height="1350" viewBox="0 0 823 1350" fill="none" xmlns="http://www.w3.org/2000/svg">
<path d="M165.78 0C74.51 0 0 74.19 0 165.47V1184.22C0 1275.49 74.51 1350 165.78 1350H656.47C747.75 1350 822.26 1275.49 822.26 1184.22V165.47C822.26 74.19 747.75 0 656.47 0H165.78ZM165.78 64.23H656.47C713.25 64.23 758.03 108.7 758.03 165.47V1184.22C758.03 1240.99 713.25 1285.78 656.47 1285.78H165.78C109.01 1285.78 64.23 1240.99 64.23 1184.22V165.47C64.21 108.7 108.99 64.28 165.78 64.28V64.23Z" fill="black"/>
<path d="M353.061 1169.98C344.562 1170.42 336.585 1174.22 330.88 1180.54C325.174 1186.85 322.204 1195.17 322.621 1203.67C323.038 1212.17 326.809 1220.16 333.108 1225.89C339.406 1231.61 347.718 1234.6 356.221 1234.21H466.011C470.354 1234.41 474.694 1233.73 478.767 1232.21C482.84 1230.69 486.562 1228.35 489.707 1225.35C492.853 1222.35 495.357 1218.74 497.068 1214.74C498.778 1210.75 499.66 1206.44 499.66 1202.09C499.66 1197.75 498.778 1193.44 497.068 1189.45C495.357 1185.45 492.853 1181.84 489.707 1178.84C486.562 1175.84 482.84 1173.5 478.767 1171.98C474.694 1170.46 470.354 1169.78 466.011 1169.98H356.221C355.221 1169.93 354.121 1169.93 353.061 1169.98Z" fill="black"/>
<path d="M217.67 32.0098L277.52 119.07H544.64L604.49 32.0098H217.67Z" fill="black"/>
<path d="M425.645 527.568C472.834 474.009 487.239 418.096 490.311 403.734C491.381 399.586 491.982 395.331 492.101 391.049C492.101 353.472 462.348 323 425.645 323C388.943 323 359.189 353.472 359.189 391.049C359.306 395.331 359.907 399.586 360.979 403.734C364.038 418.04 378.429 474.037 425.645 527.568ZM425.645 354.713C445.505 354.713 461.601 371.203 461.601 391.528C461.601 411.852 445.505 428.343 425.645 428.343C405.786 428.343 389.704 411.866 389.704 391.528C389.704 371.189 405.786 354.713 425.645 354.713V354.713Z" fill="white"/>
<path d="M509.225 407.934C506.604 421.098 489.704 493.784 426.067 559.126C422.309 555.255 418.701 551.365 415.243 547.456C354.411 478.491 342.543 405.777 342.543 405.777C342.543 405.777 329.562 455.898 360.232 505.313C378.202 530.937 399.175 552.276 416.976 568.119C410.54 574.236 403.652 580.23 396.314 586.103C385.574 576.871 364.897 578.055 346.504 589.895C325.362 603.454 315.298 625.892 323.952 640.001C327.828 646.329 334.861 649.867 343.318 650.67H343.417C353.762 651.601 366.208 648.387 377.779 640.959C396.624 628.824 406.659 609.655 402.431 595.645C402.431 594.955 402.431 594.532 402.431 594.447C407.899 590.543 416.215 584.299 426.096 575.997C435.962 584.299 444.292 590.543 449.746 594.447C449.746 595.053 448.619 613.898 459.796 621.875C470.973 629.853 508.817 650.727 508.817 650.727L510.973 647.372L469.45 619.507C468.858 619.093 468.447 618.468 468.303 617.759C468.159 617.051 468.292 616.315 468.675 615.702C468.863 615.402 469.109 615.143 469.398 614.94C469.688 614.737 470.015 614.595 470.361 614.521C470.707 614.447 471.064 614.444 471.412 614.511C471.759 614.579 472.089 614.715 472.382 614.912L513.905 642.777L517.471 637.21L475.948 609.345C475.356 608.931 474.945 608.305 474.801 607.597C474.656 606.889 474.79 606.152 475.173 605.54C475.36 605.238 475.607 604.977 475.898 604.773C476.188 604.569 476.518 604.425 476.865 604.352C477.213 604.278 477.572 604.275 477.92 604.344C478.269 604.412 478.6 604.55 478.894 604.75L520.416 632.601L523.982 627.034L482.46 599.169C481.869 598.757 481.458 598.135 481.311 597.43C481.164 596.725 481.293 595.991 481.67 595.377C481.858 595.076 482.104 594.815 482.395 594.611C482.685 594.406 483.014 594.263 483.361 594.188C483.708 594.113 484.066 594.108 484.415 594.175C484.764 594.241 485.096 594.377 485.391 594.574L526.914 622.439L529.07 619.07C529.07 619.07 495.441 591.967 483.672 584.595C473.425 578.168 459.288 584.595 455.877 586.16C448.534 580.282 441.67 574.25 435.215 568.133C454.698 550.957 472.354 531.814 487.9 511.007C488.76 509.33 489.718 507.554 490.973 505.567C518.02 462.113 511.283 418.054 509.225 407.934Z" fill="white"/>
<path d="M548.958 452.783C565.223 428.681 545.209 406.412 545.209 406.412C531.199 442.029 548.958 452.783 548.958 452.783Z" fill="#F6941D"/>
<path d="M516.851 493.586C508.126 506.793 506.984 517.251 508.281 524.806C509.141 530.192 511.665 535.175 515.498 539.055C517.132 539.887 542.277 551.924 561.897 514.996C561.897 514.996 535.117 516.913 522.023 528.541C522.954 525.557 523.429 522.449 523.433 519.323C523.827 505.99 516.851 493.586 516.851 493.586Z" fill="#F6941D"/>
<path d="M491.213 527.427C476.526 546.751 486.265 561.663 486.265 561.663H486.35C486.35 561.663 500.966 583.326 537.499 554.996C537.499 554.996 509.888 547.737 494.666 554.235C500.769 545.778 501.713 534.418 501.417 526.567C501.33 523.563 501.038 520.568 500.543 517.603C497.101 520.546 493.974 523.838 491.213 527.427V527.427Z" fill="#F6941D"/>
<path d="M545.899 467.046C545.349 450.598 529.183 437.349 529.183 437.349C523.545 470.26 543.207 477.476 543.855 477.702C548.393 478.001 552.924 477.025 556.935 474.883C564.912 470.795 574.384 461.141 578.655 438.631C571.968 441.66 565.666 445.474 559.881 449.992C554.144 454.502 548.732 460.267 545.899 467.046Z" fill="#F6941D"/>
<path d="M538.641 497.984C539.12 481.437 524.772 465.777 524.772 465.777C513.778 498.731 534.229 510.006 534.976 510.401C541.562 510.745 548.066 508.814 553.398 504.932C560.276 500.182 567.492 491.444 571.918 475.249C566.413 477.666 561.074 480.444 555.935 483.565C549.536 487.525 542.757 492.515 538.641 497.984Z" fill="#F6941D"/>
<path d="M302.332 452.783C302.332 452.783 320.091 442.029 306.081 406.412C306.081 406.412 286.081 428.681 302.332 452.783Z" fill="#F6941D"/>
<path d="M334.439 493.586C334.439 493.586 327.392 505.99 327.716 519.365C327.727 522.491 328.202 525.597 329.125 528.583C316.032 516.955 289.252 515.038 289.252 515.038C308.829 551.966 334.03 539.929 335.651 539.098H335.722C339.56 535.221 342.084 530.236 342.938 524.848C344.362 517.251 343.164 506.793 334.439 493.586Z" fill="#F6941D"/>
<path d="M350.803 517.618C350.307 520.583 350.01 523.577 349.915 526.582C349.647 534.433 350.577 545.821 356.666 554.25C341.458 547.752 313.847 555.011 313.847 555.011C350.366 583.341 364.982 561.677 364.982 561.677C364.982 561.677 374.735 546.765 360.035 527.442C357.305 523.857 354.211 520.565 350.803 517.618Z" fill="#F6941D"/>
<path d="M307.489 477.758C308.138 477.533 327.814 470.316 322.162 437.406C322.162 437.406 305.995 450.654 305.46 467.103C302.641 460.323 297.172 454.559 291.464 450.034C285.683 445.518 279.385 441.705 272.704 438.674C276.932 461.225 286.432 470.838 294.41 474.925C298.42 477.072 302.951 478.054 307.489 477.758V477.758Z" fill="#F6941D"/>
<path d="M316.341 510.472C317.074 510.077 337.483 498.802 326.532 465.849C326.532 465.849 312.183 481.508 312.663 498.055C308.519 492.586 301.753 487.597 295.383 483.706C290.242 480.589 284.903 477.811 279.399 475.391C283.839 491.585 291.042 500.324 297.906 505.074C303.25 508.934 309.759 510.839 316.341 510.472V510.472Z" fill="#F6941D"/>
<path d="M292.832 674.093V668.507H331.833V674.093H315.481V720.509H309.184V674.093H292.832Z" fill="#F6941D"/>
<path d="M383.263 694.508C383.263 699.992 382.273 704.732 380.292 708.727C378.312 712.722 375.595 715.803 372.142 717.969C368.688 720.136 364.744 721.22 360.309 721.22C355.874 721.22 351.93 720.136 348.477 717.969C345.024 715.803 342.307 712.722 340.326 708.727C338.346 704.732 337.356 699.992 337.356 694.508C337.356 689.023 338.346 684.284 340.326 680.289C342.307 676.294 345.024 673.213 348.477 671.046C351.93 668.88 355.874 667.796 360.309 667.796C364.744 667.796 368.688 668.88 372.142 671.046C375.595 673.213 378.312 676.294 380.292 680.289C382.273 684.284 383.263 689.023 383.263 694.508ZM377.169 694.508C377.169 690.005 376.416 686.205 374.909 683.107C373.42 680.01 371.397 677.665 368.841 676.074C366.302 674.483 363.458 673.687 360.309 673.687C357.161 673.687 354.308 674.483 351.752 676.074C349.213 677.665 347.19 680.01 345.684 683.107C344.194 686.205 343.449 690.005 343.449 694.508C343.449 699.011 344.194 702.811 345.684 705.909C347.19 709.006 349.213 711.351 351.752 712.942C354.308 714.533 357.161 715.329 360.309 715.329C363.458 715.329 366.302 714.533 368.841 712.942C371.397 711.351 373.42 709.006 374.909 705.909C376.416 702.811 377.169 699.011 377.169 694.508Z" fill="#F6941D"/>
<path d="M393.851 720.509V668.507H400.148V714.923H424.321V720.509H393.851Z" fill="#F6941D"/>
<path d="M440.368 668.507V720.509H434.071V668.507H440.368Z" fill="#F6941D"/>
<path d="M494.229 668.507V720.509H488.135L459.798 679.679H459.291V720.509H452.994V668.507H459.087L487.526 709.438H488.033V668.507H494.229Z" fill="#F6941D"/>
<path d="M506.829 720.509V668.507H513.126V694.305H513.736L537.096 668.507H545.322L523.486 691.969L545.322 720.509H537.705L519.627 696.336L513.126 703.649V720.509H506.829Z" fill="#F6941D"/>
<path d="M292.832 674.093V668.507H331.833V674.093H315.481V720.509H309.184V674.093H292.832Z" stroke="black"/>
<path d="M383.263 694.508C383.263 699.992 382.273 704.732 380.292 708.727C378.312 712.722 375.595 715.803 372.142 717.969C368.688 720.136 364.744 721.22 360.309 721.22C355.874 721.22 351.93 720.136 348.477 717.969C345.024 715.803 342.307 712.722 340.326 708.727C338.346 704.732 337.356 699.992 337.356 694.508C337.356 689.023 338.346 684.284 340.326 680.289C342.307 676.294 345.024 673.213 348.477 671.046C351.93 668.88 355.874 667.796 360.309 667.796C364.744 667.796 368.688 668.88 372.142 671.046C375.595 673.213 378.312 676.294 380.292 680.289C382.273 684.284 383.263 689.023 383.263 694.508ZM377.169 694.508C377.169 690.005 376.416 686.205 374.909 683.107C373.42 680.01 371.397 677.665 368.841 676.074C366.302 674.483 363.458 673.687 360.309 673.687C357.161 673.687 354.308 674.483 351.752 676.074C349.213 677.665 347.19 680.01 345.684 683.107C344.194 686.205 343.449 690.005 343.449 694.508C343.449 699.011 344.194 702.811 345.684 705.909C347.19 709.006 349.213 711.351 351.752 712.942C354.308 714.533 357.161 715.329 360.309 715.329C363.458 715.329 366.302 714.533 368.841 712.942C371.397 711.351 373.42 709.006 374.909 705.909C376.416 702.811 377.169 699.011 377.169 694.508Z" stroke="black"/>
<path d="M393.851 720.509V668.507H400.148V714.923H424.321V720.509H393.851Z" stroke="black"/>
<path d="M440.368 668.507V720.509H434.071V668.507H440.368Z" stroke="black"/>
<path d="M494.229 668.507V720.509H488.135L459.798 679.679H459.291V720.509H452.994V668.507H459.087L487.526 709.438H488.033V668.507H494.229Z" stroke="black"/>
<path d="M506.829 720.509V668.507H513.126V694.305H513.736L537.096 668.507H545.322L523.486 691.969L545.322 720.509H537.705L519.627 696.336L513.126 703.649V720.509H506.829Z" stroke="black"/>
<path d="M425.645 527.568C472.834 474.009 487.239 418.096 490.311 403.734C491.381 399.586 491.982 395.331 492.101 391.049C492.101 353.472 462.348 323 425.645 323C388.943 323 359.189 353.472 359.189 391.049C359.306 395.331 359.907 399.586 360.979 403.734C364.038 418.04 378.429 474.037 425.645 527.568ZM425.645 354.713C445.505 354.713 461.601 371.203 461.601 391.528C461.601 411.852 445.505 428.343 425.645 428.343C405.786 428.343 389.704 411.866 389.704 391.528C389.704 371.189 405.786 354.713 425.645 354.713V354.713Z" fill="white"/>
<path d="M425.645 527.568C472.834 474.009 487.239 418.096 490.311 403.734C491.381 399.586 491.982 395.331 492.101 391.049C492.101 353.472 462.348 323 425.645 323C388.943 323 359.189 353.472 359.189 391.049C359.306 395.331 359.907 399.586 360.979 403.734C364.038 418.04 378.429 474.037 425.645 527.568ZM425.645 354.713C445.505 354.713 461.601 371.203 461.601 391.528C461.601 411.852 445.505 428.343 425.645 428.343C405.786 428.343 389.704 411.866 389.704 391.528C389.704 371.189 405.786 354.713 425.645 354.713V354.713Z" fill="#384041"/>
<path d="M509.225 407.934C506.604 421.098 489.704 493.784 426.067 559.126C422.309 555.255 418.701 551.365 415.243 547.456C354.411 478.491 342.543 405.777 342.543 405.777C342.543 405.777 329.562 455.898 360.232 505.313C378.202 530.937 399.175 552.276 416.976 568.119C410.54 574.236 403.652 580.23 396.314 586.103C385.574 576.871 364.897 578.055 346.504 589.895C325.362 603.454 315.298 625.892 323.952 640.001C327.828 646.329 334.861 649.867 343.318 650.67H343.417C353.762 651.601 366.208 648.387 377.779 640.959C396.624 628.824 406.659 609.655 402.431 595.645C402.431 594.955 402.431 594.532 402.431 594.447C407.899 590.543 416.215 584.299 426.096 575.997C435.962 584.299 444.292 590.543 449.746 594.447C449.746 595.053 448.619 613.898 459.796 621.875C470.973 629.853 508.817 650.727 508.817 650.727L510.973 647.372L469.45 619.507C468.858 619.093 468.447 618.468 468.303 617.759C468.159 617.051 468.292 616.315 468.675 615.702C468.863 615.402 469.109 615.143 469.398 614.94C469.688 614.737 470.015 614.595 470.361 614.521C470.707 614.447 471.064 614.444 471.412 614.511C471.759 614.579 472.089 614.715 472.382 614.912L513.905 642.777L517.471 637.21L475.948 609.345C475.356 608.931 474.945 608.305 474.801 607.597C474.656 606.889 474.79 606.152 475.173 605.54C475.36 605.238 475.607 604.977 475.898 604.773C476.188 604.569 476.518 604.425 476.865 604.352C477.213 604.278 477.572 604.275 477.92 604.344C478.269 604.412 478.6 604.55 478.894 604.75L520.416 632.601L523.982 627.034L482.46 599.169C481.869 598.757 481.458 598.135 481.311 597.43C481.164 596.725 481.293 595.991 481.67 595.377C481.858 595.076 482.104 594.815 482.395 594.611C482.685 594.406 483.014 594.263 483.361 594.188C483.708 594.113 484.066 594.108 484.415 594.175C484.764 594.241 485.096 594.377 485.391 594.574L526.914 622.439L529.07 619.07C529.07 619.07 495.441 591.967 483.672 584.595C473.425 578.168 459.288 584.595 455.877 586.16C448.534 580.282 441.67 574.25 435.215 568.133C454.698 550.957 472.354 531.814 487.9 511.007C488.76 509.33 489.718 507.554 490.973 505.567C518.02 462.113 511.283 418.054 509.225 407.934Z" fill="#384041"/>
<path d="M548.958 452.783C565.223 428.681 545.209 406.412 545.209 406.412C531.199 442.029 548.958 452.783 548.958 452.783Z" fill="#F6941D"/>
<path d="M516.851 493.586C508.126 506.793 506.984 517.251 508.281 524.806C509.141 530.192 511.665 535.175 515.498 539.055C517.132 539.887 542.277 551.924 561.897 514.996C561.897 514.996 535.117 516.913 522.023 528.541C522.954 525.557 523.429 522.449 523.433 519.323C523.827 505.99 516.851 493.586 516.851 493.586Z" fill="#F6941D"/>
<path d="M491.213 527.427C476.526 546.751 486.265 561.663 486.265 561.663H486.35C486.35 561.663 500.966 583.326 537.499 554.996C537.499 554.996 509.888 547.737 494.666 554.235C500.769 545.778 501.713 534.418 501.417 526.567C501.33 523.563 501.038 520.568 500.543 517.603C497.101 520.546 493.974 523.838 491.213 527.427V527.427Z" fill="#F6941D"/>
<path d="M545.899 467.046C545.349 450.598 529.183 437.349 529.183 437.349C523.545 470.26 543.207 477.476 543.855 477.702C548.393 478.001 552.924 477.025 556.935 474.883C564.912 470.795 574.384 461.141 578.655 438.631C571.968 441.66 565.666 445.474 559.881 449.992C554.144 454.502 548.732 460.267 545.899 467.046Z" fill="#F6941D"/>
<path d="M538.641 497.984C539.12 481.437 524.772 465.777 524.772 465.777C513.778 498.731 534.229 510.006 534.976 510.401C541.562 510.745 548.066 508.814 553.398 504.932C560.276 500.182 567.492 491.444 571.918 475.249C566.413 477.666 561.074 480.444 555.935 483.565C549.536 487.525 542.757 492.515 538.641 497.984Z" fill="#F6941D"/>
<path d="M302.332 452.783C302.332 452.783 320.091 442.029 306.081 406.412C306.081 406.412 286.081 428.681 302.332 452.783Z" fill="#F6941D"/>
<path d="M334.439 493.586C334.439 493.586 327.392 505.99 327.716 519.365C327.727 522.491 328.202 525.597 329.125 528.583C316.032 516.955 289.252 515.038 289.252 515.038C308.829 551.966 334.03 539.929 335.651 539.098H335.722C339.56 535.221 342.084 530.236 342.938 524.848C344.362 517.251 343.164 506.793 334.439 493.586Z" fill="#F6941D"/>
<path d="M350.803 517.618C350.307 520.583 350.01 523.577 349.915 526.582C349.647 534.433 350.577 545.821 356.666 554.25C341.458 547.752 313.847 555.011 313.847 555.011C350.366 583.341 364.982 561.677 364.982 561.677C364.982 561.677 374.735 546.765 360.035 527.442C357.305 523.857 354.211 520.565 350.803 517.618Z" fill="#F6941D"/>
<path d="M307.489 477.758C308.138 477.533 327.814 470.316 322.162 437.406C322.162 437.406 305.995 450.654 305.46 467.103C302.641 460.323 297.172 454.559 291.464 450.034C285.683 445.518 279.385 441.705 272.704 438.674C276.932 461.225 286.432 470.838 294.41 474.925C298.42 477.072 302.951 478.054 307.489 477.758V477.758Z" fill="#F6941D"/>
<path d="M316.341 510.472C317.074 510.077 337.483 498.802 326.532 465.849C326.532 465.849 312.183 481.508 312.663 498.055C308.519 492.586 301.753 487.597 295.383 483.706C290.242 480.589 284.903 477.811 279.399 475.391C283.839 491.585 291.042 500.324 297.906 505.074C303.25 508.934 309.759 510.839 316.341 510.472V510.472Z" fill="#F6941D"/>
<g opacity="0.44">
<path d="M176.058 750.984L187.933 784.654H188.401L200.276 750.984H205.354L190.667 790.982H185.667L170.98 750.984H176.058Z" fill="#384041"/>
<path d="M220.353 791.607C217.645 791.607 215.268 790.963 213.224 789.674C211.193 788.385 209.605 786.581 208.459 784.264C207.326 781.946 206.76 779.238 206.76 776.139C206.76 773.014 207.326 770.287 208.459 767.956C209.605 765.625 211.193 763.816 213.224 762.527C215.268 761.238 217.645 760.593 220.353 760.593C223.061 760.593 225.431 761.238 227.462 762.527C229.506 763.816 231.094 765.625 232.227 767.956C233.373 770.287 233.946 773.014 233.946 776.139C233.946 779.238 233.373 781.946 232.227 784.264C231.094 786.581 229.506 788.385 227.462 789.674C225.431 790.963 223.061 791.607 220.353 791.607ZM220.353 787.467C222.41 787.467 224.103 786.939 225.431 785.885C226.759 784.83 227.742 783.443 228.38 781.725C229.018 780.006 229.337 778.144 229.337 776.139C229.337 774.134 229.018 772.266 228.38 770.534C227.742 768.802 226.759 767.403 225.431 766.335C224.103 765.267 222.41 764.734 220.353 764.734C218.296 764.734 216.603 765.267 215.275 766.335C213.947 767.403 212.964 768.802 212.326 770.534C211.688 772.266 211.369 774.134 211.369 776.139C211.369 778.144 211.688 780.006 212.326 781.725C212.964 783.443 213.947 784.83 215.275 785.885C216.603 786.939 218.296 787.467 220.353 787.467Z" fill="#384041"/>
<path d="M254.028 760.984V764.89H238.482V760.984H254.028ZM243.013 753.797H247.622V782.389C247.622 783.691 247.811 784.667 248.188 785.318C248.579 785.956 249.074 786.386 249.672 786.607C250.284 786.816 250.929 786.92 251.606 786.92C252.114 786.92 252.53 786.894 252.856 786.842C253.181 786.777 253.442 786.725 253.637 786.685L254.575 790.826C254.262 790.943 253.826 791.06 253.266 791.177C252.706 791.308 251.997 791.373 251.137 791.373C249.835 791.373 248.559 791.093 247.309 790.533C246.072 789.973 245.044 789.12 244.224 787.974C243.416 786.829 243.013 785.383 243.013 783.639V753.797Z" fill="#384041"/>
<path d="M260.961 790.982V760.984H265.414V765.515H265.726C266.273 764.03 267.263 762.826 268.695 761.902C270.127 760.977 271.742 760.515 273.538 760.515C273.877 760.515 274.3 760.522 274.808 760.535C275.316 760.548 275.7 760.567 275.96 760.593V765.28C275.804 765.241 275.446 765.183 274.886 765.105C274.339 765.013 273.76 764.968 273.148 764.968C271.689 764.968 270.387 765.274 269.242 765.886C268.109 766.485 267.211 767.318 266.547 768.386C265.896 769.44 265.57 770.645 265.57 771.999V790.982H260.961Z" fill="#384041"/>
<path d="M293.088 791.607C290.198 791.607 287.704 790.969 285.608 789.693C283.525 788.404 281.917 786.607 280.784 784.303C279.664 781.985 279.104 779.29 279.104 776.217C279.104 773.145 279.664 770.436 280.784 768.093C281.917 765.736 283.492 763.9 285.51 762.585C287.541 761.257 289.911 760.593 292.619 760.593C294.182 760.593 295.725 760.854 297.248 761.374C298.771 761.895 300.158 762.741 301.408 763.913C302.658 765.072 303.654 766.608 304.396 768.522C305.138 770.436 305.509 772.793 305.509 775.592V777.545H282.385V773.561H300.822C300.822 771.869 300.483 770.358 299.806 769.03C299.142 767.702 298.192 766.654 296.955 765.886C295.731 765.118 294.286 764.734 292.619 764.734C290.783 764.734 289.195 765.189 287.854 766.101C286.526 766.999 285.504 768.171 284.788 769.616C284.072 771.061 283.714 772.611 283.714 774.264V776.92C283.714 779.186 284.104 781.106 284.885 782.682C285.68 784.244 286.78 785.436 288.186 786.256C289.592 787.063 291.226 787.467 293.088 787.467C294.299 787.467 295.393 787.297 296.369 786.959C297.359 786.607 298.211 786.087 298.928 785.396C299.644 784.693 300.197 783.821 300.588 782.779L305.04 784.029C304.572 785.54 303.784 786.868 302.677 788.013C301.571 789.146 300.204 790.032 298.576 790.67C296.949 791.295 295.119 791.607 293.088 791.607Z" fill="#384041"/>
<path d="M340.097 802.856C337.871 802.856 335.957 802.57 334.355 801.997C332.754 801.437 331.419 800.695 330.352 799.771C329.297 798.859 328.457 797.883 327.832 796.841L331.504 794.263C331.921 794.81 332.448 795.435 333.086 796.138C333.724 796.854 334.596 797.473 335.703 797.993C336.823 798.527 338.287 798.794 340.097 798.794C342.519 798.794 344.517 798.208 346.093 797.036C347.668 795.865 348.456 794.029 348.456 791.529V785.436H348.065C347.727 785.982 347.245 786.659 346.62 787.467C346.008 788.261 345.123 788.97 343.964 789.595C342.818 790.207 341.269 790.513 339.316 790.513C336.894 790.513 334.72 789.94 332.793 788.795C330.879 787.649 329.362 785.982 328.242 783.795C327.136 781.608 326.582 778.951 326.582 775.827C326.582 772.754 327.123 770.078 328.203 767.8C329.284 765.508 330.788 763.737 332.715 762.488C334.642 761.225 336.868 760.593 339.394 760.593C341.347 760.593 342.896 760.919 344.042 761.57C345.201 762.208 346.086 762.937 346.698 763.757C347.323 764.564 347.805 765.228 348.144 765.749H348.612V760.984H353.065V791.841C353.065 794.419 352.479 796.516 351.307 798.13C350.149 799.758 348.586 800.949 346.62 801.704C344.667 802.472 342.493 802.856 340.097 802.856ZM339.941 786.373C341.79 786.373 343.352 785.95 344.628 785.103C345.904 784.257 346.874 783.04 347.538 781.451C348.202 779.863 348.534 777.962 348.534 775.749C348.534 773.587 348.209 771.68 347.558 770.026C346.907 768.373 345.943 767.077 344.667 766.14C343.391 765.202 341.816 764.734 339.941 764.734C337.988 764.734 336.36 765.228 335.058 766.218C333.769 767.207 332.799 768.535 332.148 770.202C331.51 771.869 331.191 773.717 331.191 775.749C331.191 777.832 331.517 779.674 332.168 781.276C332.832 782.864 333.808 784.114 335.097 785.025C336.399 785.924 338.014 786.373 339.941 786.373Z" fill="#384041"/>
<path d="M380.407 778.717V760.984H385.017V790.982H380.407V785.904H380.095C379.392 787.428 378.298 788.723 376.814 789.791C375.33 790.845 373.455 791.373 371.189 791.373C369.314 791.373 367.648 790.963 366.189 790.142C364.731 789.309 363.585 788.059 362.752 786.392C361.919 784.713 361.502 782.597 361.502 780.045V760.984H366.111V779.733C366.111 781.92 366.723 783.665 367.947 784.967C369.184 786.269 370.76 786.92 372.674 786.92C373.819 786.92 374.985 786.627 376.169 786.041C377.367 785.455 378.37 784.557 379.177 783.346C379.997 782.135 380.407 780.592 380.407 778.717Z" fill="#384041"/>
<path d="M393.459 790.982V760.984H398.068V790.982H393.459ZM395.802 755.984C394.904 755.984 394.129 755.678 393.478 755.066C392.84 754.454 392.521 753.719 392.521 752.859C392.521 752 392.84 751.264 393.478 750.652C394.129 750.04 394.904 749.734 395.802 749.734C396.701 749.734 397.469 750.04 398.107 750.652C398.758 751.264 399.083 752 399.083 752.859C399.083 753.719 398.758 754.454 398.107 755.066C397.469 755.678 396.701 755.984 395.802 755.984Z" fill="#384041"/>
<path d="M417.837 791.607C415.337 791.607 413.13 790.976 411.216 789.713C409.302 788.437 407.805 786.64 406.724 784.322C405.644 781.992 405.103 779.238 405.103 776.061C405.103 772.91 405.644 770.176 406.724 767.858C407.805 765.541 409.309 763.751 411.236 762.488C413.163 761.225 415.389 760.593 417.915 760.593C419.868 760.593 421.411 760.919 422.544 761.57C423.69 762.208 424.562 762.937 425.161 763.757C425.773 764.564 426.248 765.228 426.587 765.749H426.977V750.984H431.586V790.982H427.133V786.373H426.587C426.248 786.92 425.766 787.61 425.141 788.443C424.516 789.263 423.624 789.999 422.466 790.65C421.307 791.288 419.764 791.607 417.837 791.607ZM418.462 787.467C420.311 787.467 421.873 786.985 423.149 786.021C424.425 785.045 425.395 783.697 426.059 781.979C426.723 780.247 427.055 778.248 427.055 775.983C427.055 773.743 426.73 771.784 426.079 770.104C425.428 768.412 424.464 767.097 423.188 766.159C421.912 765.209 420.337 764.734 418.462 764.734C416.509 764.734 414.881 765.235 413.579 766.237C412.29 767.227 411.32 768.574 410.669 770.28C410.031 771.973 409.712 773.874 409.712 775.983C409.712 778.118 410.038 780.058 410.689 781.803C411.353 783.535 412.33 784.915 413.619 785.943C414.921 786.959 416.535 787.467 418.462 787.467Z" fill="#384041"/>
<path d="M453.245 791.607C450.355 791.607 447.861 790.969 445.765 789.693C443.682 788.404 442.074 786.607 440.941 784.303C439.822 781.985 439.262 779.29 439.262 776.217C439.262 773.145 439.822 770.436 440.941 768.093C442.074 765.736 443.649 763.9 445.668 762.585C447.699 761.257 450.068 760.593 452.777 760.593C454.339 760.593 455.882 760.854 457.405 761.374C458.929 761.895 460.315 762.741 461.565 763.913C462.815 765.072 463.811 766.608 464.553 768.522C465.295 770.436 465.666 772.793 465.666 775.592V777.545H442.543V773.561H460.979C460.979 771.869 460.641 770.358 459.964 769.03C459.3 767.702 458.349 766.654 457.112 765.886C455.888 765.118 454.443 764.734 452.777 764.734C450.941 764.734 449.352 765.189 448.011 766.101C446.683 766.999 445.661 768.171 444.945 769.616C444.229 771.061 443.871 772.611 443.871 774.264V776.92C443.871 779.186 444.261 781.106 445.043 782.682C445.837 784.244 446.937 785.436 448.343 786.256C449.749 787.063 451.383 787.467 453.245 787.467C454.456 787.467 455.55 787.297 456.526 786.959C457.516 786.607 458.369 786.087 459.085 785.396C459.801 784.693 460.354 783.821 460.745 782.779L465.198 784.029C464.729 785.54 463.941 786.868 462.835 788.013C461.728 789.146 460.361 790.032 458.733 790.67C457.106 791.295 455.276 791.607 453.245 791.607Z" fill="#384041"/>
<path d="M500.254 802.856C498.028 802.856 496.114 802.57 494.513 801.997C492.911 801.437 491.576 800.695 490.509 799.771C489.454 798.859 488.614 797.883 487.989 796.841L491.661 794.263C492.078 794.81 492.605 795.435 493.243 796.138C493.881 796.854 494.753 797.473 495.86 797.993C496.98 798.527 498.445 798.794 500.254 798.794C502.676 798.794 504.675 798.208 506.25 797.036C507.826 795.865 508.613 794.029 508.613 791.529V785.436H508.223C507.884 785.982 507.402 786.659 506.777 787.467C506.166 788.261 505.28 788.97 504.121 789.595C502.976 790.207 501.426 790.513 499.473 790.513C497.051 790.513 494.877 789.94 492.95 788.795C491.036 787.649 489.519 785.982 488.4 783.795C487.293 781.608 486.74 778.951 486.74 775.827C486.74 772.754 487.28 770.078 488.361 767.8C489.441 765.508 490.945 763.737 492.872 762.488C494.799 761.225 497.025 760.593 499.551 760.593C501.504 760.593 503.054 760.919 504.199 761.57C505.358 762.208 506.244 762.937 506.856 763.757C507.481 764.564 507.962 765.228 508.301 765.749H508.77V760.984H513.222V791.841C513.222 794.419 512.637 796.516 511.465 798.13C510.306 799.758 508.744 800.949 506.777 801.704C504.824 802.472 502.65 802.856 500.254 802.856ZM500.098 786.373C501.947 786.373 503.509 785.95 504.785 785.103C506.061 784.257 507.031 783.04 507.695 781.451C508.359 779.863 508.691 777.962 508.691 775.749C508.691 773.587 508.366 771.68 507.715 770.026C507.064 768.373 506.1 767.077 504.824 766.14C503.548 765.202 501.973 764.734 500.098 764.734C498.145 764.734 496.518 765.228 495.216 766.218C493.927 767.207 492.957 768.535 492.306 770.202C491.668 771.869 491.349 773.717 491.349 775.749C491.349 777.832 491.674 779.674 492.325 781.276C492.989 782.864 493.966 784.114 495.255 785.025C496.557 785.924 498.171 786.373 500.098 786.373Z" fill="#384041"/>
<path d="M540.565 778.717V760.984H545.174V790.982H540.565V785.904H540.252C539.549 787.428 538.455 788.723 536.971 789.791C535.487 790.845 533.612 791.373 531.346 791.373C529.472 791.373 527.805 790.963 526.347 790.142C524.888 789.309 523.743 788.059 522.909 786.392C522.076 784.713 521.659 782.597 521.659 780.045V760.984H526.269V779.733C526.269 781.92 526.881 783.665 528.104 784.967C529.341 786.269 530.917 786.92 532.831 786.92C533.977 786.92 535.142 786.627 536.327 786.041C537.524 785.455 538.527 784.557 539.334 783.346C540.155 782.135 540.565 780.592 540.565 778.717Z" fill="#384041"/>
<path d="M574.865 767.702L570.724 768.874C570.464 768.184 570.08 767.513 569.572 766.862C569.077 766.198 568.4 765.651 567.541 765.222C566.681 764.792 565.581 764.577 564.24 764.577C562.404 764.577 560.874 765 559.651 765.847C558.44 766.68 557.834 767.741 557.834 769.03C557.834 770.176 558.251 771.081 559.084 771.745C559.917 772.409 561.219 772.962 562.99 773.405L567.443 774.499C570.125 775.15 572.124 776.146 573.439 777.487C574.754 778.815 575.411 780.527 575.411 782.623C575.411 784.342 574.917 785.878 573.927 787.232C572.951 788.586 571.584 789.654 569.826 790.435C568.068 791.216 566.024 791.607 563.693 791.607C560.634 791.607 558.101 790.943 556.096 789.615C554.091 788.287 552.822 786.347 552.288 783.795L556.662 782.701C557.079 784.316 557.867 785.527 559.026 786.334C560.197 787.141 561.727 787.545 563.615 787.545C565.763 787.545 567.469 787.089 568.732 786.178C570.008 785.253 570.646 784.147 570.646 782.858C570.646 781.816 570.281 780.944 569.552 780.24C568.823 779.524 567.703 778.991 566.193 778.639L561.193 777.467C558.446 776.816 556.428 775.807 555.139 774.44C553.863 773.06 553.225 771.335 553.225 769.265C553.225 767.572 553.7 766.075 554.651 764.773C555.614 763.471 556.923 762.448 558.576 761.706C560.243 760.964 562.131 760.593 564.24 760.593C567.209 760.593 569.539 761.244 571.232 762.546C572.938 763.848 574.148 765.567 574.865 767.702Z" fill="#384041"/>
<path d="M595.396 760.984V764.89H579.85V760.984H595.396ZM584.381 753.797H588.99V782.389C588.99 783.691 589.179 784.667 589.556 785.318C589.947 785.956 590.442 786.386 591.04 786.607C591.652 786.816 592.297 786.92 592.974 786.92C593.482 786.92 593.898 786.894 594.224 786.842C594.549 786.777 594.81 786.725 595.005 786.685L595.943 790.826C595.63 790.943 595.194 791.06 594.634 791.177C594.074 791.308 593.365 791.373 592.505 791.373C591.203 791.373 589.927 791.093 588.677 790.533C587.44 789.973 586.412 789.12 585.592 787.974C584.784 786.829 584.381 785.383 584.381 783.639V753.797Z" fill="#384041"/>
<path d="M611.157 791.685C609.256 791.685 607.53 791.327 605.981 790.611C604.432 789.882 603.201 788.834 602.29 787.467C601.378 786.087 600.923 784.42 600.923 782.467C600.923 780.748 601.261 779.355 601.938 778.287C602.615 777.207 603.52 776.36 604.653 775.749C605.786 775.137 607.036 774.681 608.403 774.381C609.783 774.069 611.17 773.822 612.563 773.639C614.386 773.405 615.863 773.229 616.996 773.112C618.142 772.982 618.975 772.767 619.496 772.467C620.03 772.168 620.297 771.647 620.297 770.905V770.749C620.297 768.822 619.769 767.325 618.715 766.257C617.673 765.189 616.091 764.655 613.969 764.655C611.768 764.655 610.043 765.137 608.793 766.101C607.543 767.064 606.665 768.093 606.157 769.186L601.782 767.624C602.563 765.801 603.605 764.382 604.907 763.366C606.222 762.338 607.654 761.622 609.204 761.218C610.766 760.801 612.302 760.593 613.813 760.593C614.776 760.593 615.883 760.71 617.133 760.945C618.396 761.166 619.613 761.628 620.785 762.331C621.97 763.034 622.953 764.096 623.734 765.515C624.515 766.934 624.906 768.835 624.906 771.218V790.982H620.297V786.92H620.062C619.75 787.571 619.229 788.267 618.5 789.01C617.771 789.752 616.801 790.383 615.59 790.904C614.379 791.425 612.901 791.685 611.157 791.685ZM611.86 787.545C613.682 787.545 615.219 787.187 616.469 786.471C617.732 785.755 618.682 784.83 619.32 783.697C619.971 782.565 620.297 781.373 620.297 780.123V775.905C620.101 776.139 619.672 776.354 619.008 776.549C618.357 776.732 617.601 776.894 616.742 777.038C615.896 777.168 615.069 777.285 614.262 777.389C613.468 777.48 612.823 777.558 612.328 777.623C611.13 777.78 610.011 778.034 608.969 778.385C607.941 778.724 607.107 779.238 606.469 779.928C605.844 780.605 605.532 781.529 605.532 782.701C605.532 784.303 606.124 785.514 607.309 786.334C608.507 787.141 610.024 787.545 611.86 787.545Z" fill="#384041"/>
<path d="M646.365 760.984V764.89H630.819V760.984H646.365ZM635.35 753.797H639.959V782.389C639.959 783.691 640.147 784.667 640.525 785.318C640.916 785.956 641.41 786.386 642.009 786.607C642.621 786.816 643.266 786.92 643.943 786.92C644.451 786.92 644.867 786.894 645.193 786.842C645.518 786.777 645.779 786.725 645.974 786.685L646.911 790.826C646.599 790.943 646.163 791.06 645.603 791.177C645.043 791.308 644.333 791.373 643.474 791.373C642.172 791.373 640.896 791.093 639.646 790.533C638.409 789.973 637.381 789.12 636.56 787.974C635.753 786.829 635.35 785.383 635.35 783.639V753.797Z" fill="#384041"/>
<path d="M653.298 790.982V760.984H657.907V790.982H653.298ZM655.641 755.984C654.743 755.984 653.968 755.678 653.317 755.066C652.679 754.454 652.36 753.719 652.36 752.859C652.36 752 652.679 751.264 653.317 750.652C653.968 750.04 654.743 749.734 655.641 749.734C656.54 749.734 657.308 750.04 657.946 750.652C658.597 751.264 658.922 752 658.922 752.859C658.922 753.719 658.597 754.454 657.946 755.066C657.308 755.678 656.54 755.984 655.641 755.984Z" fill="#384041"/>
<path d="M679.707 760.984V764.89H663.536V760.984H679.707ZM668.38 790.982V756.843C668.38 755.125 668.784 753.692 669.591 752.547C670.398 751.401 671.446 750.542 672.735 749.969C674.024 749.396 675.385 749.109 676.817 749.109C677.95 749.109 678.874 749.201 679.59 749.383C680.306 749.565 680.84 749.734 681.192 749.891L679.864 753.875C679.629 753.797 679.304 753.699 678.887 753.582C678.484 753.465 677.95 753.406 677.286 753.406C675.762 753.406 674.662 753.79 673.985 754.558C673.321 755.326 672.989 756.453 672.989 757.937V790.982H668.38Z" fill="#384041"/>
</g>
</svg>
