<svg width="525" height="615" viewBox="0 0 525 615" fill="none" xmlns="http://www.w3.org/2000/svg">
<path fill-rule="evenodd" clip-rule="evenodd" d="M343.179 256.53L273.889 187.24L307.939 153C308.289 152.65 308.639 152.3 308.939 151.94C298.357 142.063 285.642 134.757 271.779 130.59L244.509 157.9L210.379 123.77C209.989 123.38 209.599 122.97 209.219 122.57C200.862 113.646 196.214 101.876 196.219 89.65C196.221 87.456 196.368 85.2645 196.659 83.09C198.107 72.5657 202.985 62.8126 210.538 55.3422C218.091 47.8717 227.897 43.101 238.437 41.7693C248.977 40.4376 259.661 42.6193 268.835 47.9763C278.009 53.3333 285.16 61.5665 289.179 71.4C305.213 76.1793 320.371 83.5135 334.069 93.12C334.069 91.96 334.129 90.8 334.129 89.65C334.129 65.8733 324.684 43.0705 307.872 26.2579C291.059 9.44524 268.256 0 244.479 0C220.703 0 197.9 9.44524 181.087 26.2579C164.275 43.0705 154.829 65.8733 154.829 89.65C154.829 90.8 154.829 91.96 154.899 93.12C155.727 115.178 164.685 136.151 180.049 152C180.389 152.36 180.739 152.71 181.049 153.06L215.179 187.18L153.889 248.47C158.058 262.337 165.367 275.056 175.249 285.64L244.439 216.45L420.959 392.94C424.84 396.82 430.102 399 435.589 399C441.077 399 446.339 396.82 450.219 392.94C460.559 382.6 457.969 347.32 455.829 330.76C455.689 329.76 455.589 328.38 455.529 327.58L452.909 298.32C452.499 295.51 452.269 287.45 451.909 285.12C451.549 282.79 451.749 280.6 451.449 278.36L450.269 258.36C450.269 256.83 450.049 256.44 450.009 255.14C449.969 253.84 450.079 252.6 450.009 251.39C449.729 246.19 449.499 243.32 449.509 237.7C449.509 235.21 449.259 233.57 449.259 230.98C449.259 226.74 448.779 211.66 449.189 209.98C450.319 205.47 457.359 202.12 462.189 198.32C463.009 197.67 463.429 197.16 464.189 196.57C466.838 194.448 469.119 191.904 470.939 189.04C472.843 185.956 474.279 182.606 475.199 179.1C476.303 174.779 476.917 170.348 477.029 165.89V156.29C476.959 154.72 476.869 153.21 476.759 151.81C475.249 132.48 471.159 110.4 459.629 94.99C456.179 90.38 449.629 84.07 443.409 84.07C439.059 84.07 436.949 84.71 433.329 87.44C429.329 90.44 425.329 95.81 423.069 100.34C422.669 101.13 422.469 101.34 422.069 102.08C421.669 102.82 421.449 103.32 421.069 104.08C419.15 108.127 417.48 112.289 416.069 116.54C413.389 125.61 413.519 125.47 411.519 135.39C410.899 138.49 410.369 142.39 410.049 145.62C408.109 164.52 408.049 179.97 418.329 193.03C418.829 193.67 419.109 193.85 419.609 194.49C421.419 196.82 422.709 197.49 424.139 198.93C425.135 199.848 426.177 200.716 427.259 201.53C428.419 202.47 429.489 203.21 430.639 204.13C432.259 205.42 435.899 208.04 435.899 210.57C435.899 213.49 436.069 229.19 435.839 230.92C435.469 233.58 435.939 237.08 435.619 239.92L435.149 248.67C435.059 251.67 435.149 254.67 434.889 257.67C434.429 263.29 434.289 269.38 433.699 274.9C433.209 279.41 432.919 287.46 432.349 291.97C432.029 294.5 431.809 297.8 431.489 300.33C431.129 303.22 430.919 305.86 430.649 308.7L427.469 340.91L343.119 256.55L343.179 256.53ZM22.3894 159.29C22.3894 165.78 22.1294 173.17 23.1994 179.39C23.8065 182.638 24.992 185.751 26.6994 188.58C28.2778 191.172 30.0707 193.627 32.0594 195.92C33.0594 197.17 33.9194 198.23 34.9094 199.55C35.8707 200.779 36.7366 202.079 37.4994 203.44C41.4094 210.73 40.2794 218.76 39.2794 228.21L38.3894 237.04C37.8794 241.04 37.7194 244.83 37.2894 248.88C36.4694 256.58 35.4594 264.35 35.0794 272.08C34.9894 273.86 34.7294 275.76 34.5694 277.79L32.5694 301.47C32.3994 303.63 32.4694 305.47 32.2894 307.67C31.9794 311.45 31.5394 315.88 31.5594 319.89C31.1894 336.95 27.4294 381.65 38.7494 392.97C42.6313 396.851 47.8955 399.031 53.3844 399.031C58.8734 399.031 64.1376 396.851 68.0194 392.97L131.679 329.31C121.969 319.187 113.668 307.801 106.999 295.46L61.1894 341.26L60.0194 326.79C58.6594 316.3 58.0894 305.79 57.0194 295.44C56.8694 293.98 56.7994 292.92 56.7294 291.51C56.3494 284.76 55.4194 278.3 55.2494 271.58C55.1394 267.51 54.4594 263.72 54.4894 259.63C54.4894 257.88 54.2494 257.14 54.2294 255.63C54.2294 252.57 54.0394 250.28 53.9994 247.14C53.9994 245.65 53.7294 244.91 53.7394 243.14V238.9C53.7394 237.2 53.4694 236.62 53.4794 234.9C53.4794 227.67 53.1394 220.85 53.2294 213.48C53.3194 205.93 57.1194 201.53 61.6294 196.23C63.6148 193.816 65.3378 191.198 66.7694 188.42C67.2473 187.444 67.6713 186.442 68.0394 185.42C71.5594 176.66 70.8994 164.99 70.9194 155.18C70.9194 153.18 70.6594 151.93 70.6594 150.18C70.6594 146.46 70.4094 143.5 70.4194 139.96L69.3094 120.4C68.8394 117.28 69.0094 114.06 68.5994 110.9C67.5994 103.1 67.2494 95.21 65.9294 87.42C65.7094 86.11 65.6794 84.02 64.4294 83.69C63.1494 89.21 62.9594 100.05 62.9494 106.11C62.9494 107.79 62.6794 108.88 62.6894 110.83C62.6894 114.27 62.4294 116.83 62.4394 120.29L61.2094 143.2C61.1194 145.99 60.3594 154.2 58.7094 155.4C57.4894 155.07 57.2894 153.51 57.0694 152.31C56.7897 150.862 56.5894 149.4 56.4694 147.93C56.3094 145.13 55.9694 141.77 55.7394 138.93L55.2294 120C55.2294 116.6 54.9794 114 54.9794 110.54C54.9794 102.54 54.6394 95 53.9794 87.13C53.9398 86.393 53.8395 85.6605 53.6794 84.94C53.4494 83.87 53.6194 83.74 52.4794 83.65C51.1994 89.14 50.9994 100.18 50.9894 106.32C50.9894 108 50.7294 109.08 50.7394 111.04V115.78L49.7394 136.7C49.4494 140.26 49.1694 155.36 46.2394 155.36C44.1694 155.36 43.6794 145.99 43.5194 143.89C43.0594 138.2 42.7494 126.17 42.7594 120.75C42.7594 114.45 42.9494 107.83 42.7594 101.57L42.5194 92.36C42.5194 90.89 42.3394 89.56 42.2594 87.88C42.1354 86.4505 41.8844 85.035 41.5094 83.65H40.7594C40.5994 84.35 40.4394 84.65 40.2794 85.4C39.6294 88.32 38.5094 106.9 38.5194 110.54L37.1294 138.29C36.3594 143.47 36.7994 148.66 35.2394 153.57C34.9708 154.152 34.7371 154.75 34.5394 155.36H33.5394C33.3798 154.799 33.1793 154.251 32.9394 153.72C32.7016 153.076 32.547 152.404 32.4794 151.72C31.6184 145.924 31.1407 140.078 31.0494 134.22C31.1312 132.664 31.1078 131.103 30.9794 129.55C30.6194 126.89 30.5494 105.84 30.5494 101.6C30.5494 97.08 30.4494 87.51 29.5494 83.67C28.6394 83.91 28.6294 84.12 28.3194 84.93C26.0994 90.8 24.4394 111.93 24.0694 119.52L23.6794 124.11C23.2994 126.6 23.4494 129.11 23.3194 131.48C23.2594 132.58 23.0794 132.67 23.0594 133.96C23.0594 134.78 23.0594 135.65 23.0594 136.47C23.0594 137.69 22.8294 137.71 22.7994 138.94C22.5894 145.74 22.3094 152.14 22.3094 159.12L22.3894 159.29Z" fill="#384041"/>
<path fill-rule="evenodd" clip-rule="evenodd" d="M313.799 300L244.569 369.23L175.309 300L170.499 295.18C169.699 294.39 168.919 293.58 168.159 292.77C155.659 279.472 146.863 263.128 142.649 245.37C140.777 237.429 139.831 229.298 139.829 221.14C139.815 195.497 149.241 170.747 166.309 151.61C157.119 140.034 150.628 126.553 147.309 112.15C145.249 113.99 143.239 115.9 141.309 117.87C120.734 138.437 106.759 164.673 101.171 193.224C95.5831 221.775 98.636 251.343 109.939 278.15C111.339 281.483 112.866 284.747 114.519 287.94C120.948 300.447 129.149 311.959 138.869 322.12C139.639 322.92 140.429 323.73 141.219 324.52L229.899 413.2C233.781 417.081 239.045 419.261 244.534 419.261C250.023 419.261 255.288 417.081 259.169 413.2L343.029 329.33L313.799 300ZM315.659 144.25C316.659 145.17 317.659 146.12 318.659 147.1C320.109 148.55 321.519 150.1 322.869 151.57C334.054 164.156 342.042 179.252 346.155 195.58C350.268 211.908 350.386 228.987 346.499 245.37L379.199 278.07C390.507 251.277 393.57 221.722 387.999 193.179C382.427 164.637 368.473 138.403 347.919 117.83C345.919 115.83 343.903 113.923 341.869 112.11C338.983 109.53 336.019 107.083 332.979 104.77C320.702 95.4227 307.014 88.0909 292.429 83.05C288.789 81.79 285.123 80.68 281.429 79.72C257.293 73.479 231.966 73.479 207.829 79.72C206.971 82.9466 206.538 86.2713 206.539 89.61C206.534 94.6117 207.516 99.5653 209.43 104.187C211.343 108.808 214.15 113.006 217.689 116.54L220.409 119.25C237.127 115.269 254.569 115.468 271.192 119.828C287.815 124.188 303.108 132.576 315.719 144.25H315.659Z" fill="#FEAA3A"/>
<path fill-rule="evenodd" clip-rule="evenodd" d="M244.569 453C360.669 453 454.799 476.84 454.799 506.25C454.799 535.66 360.669 559.51 244.569 559.51C128.469 559.51 34.3094 535.71 34.3094 506.29C34.3094 476.87 128.469 453 244.569 453ZM244.569 481.9C297.659 481.9 340.689 492.81 340.689 506.25C340.689 519.69 297.689 530.6 244.569 530.6C191.449 530.6 148.449 519.7 148.449 506.25C148.449 492.8 191.449 481.94 244.569 481.94V481.9Z" fill="#384041"/>
<path fill-rule="evenodd" clip-rule="evenodd" d="M350.939 506.24C350.939 491.36 303.309 479.29 244.549 479.29C185.789 479.29 138.169 491.36 138.169 506.24C138.169 521.12 185.799 533.24 244.549 533.24C303.299 533.24 350.939 521.13 350.939 506.24Z" fill="#FBFBFB"/>
<path d="M20.232 596.18C19.536 594.716 18.528 593.588 17.208 592.796C15.888 591.98 14.352 591.572 12.6 591.572C10.848 591.572 9.264 591.98 7.848 592.796C6.456 593.588 5.352 594.74 4.536 596.252C3.744 597.74 3.348 599.468 3.348 601.436C3.348 603.404 3.744 605.132 4.536 606.62C5.352 608.108 6.456 609.26 7.848 610.076C9.264 610.868 10.848 611.264 12.6 611.264C15.048 611.264 17.064 610.532 18.648 609.068C20.232 607.604 21.156 605.624 21.42 603.128H11.412V600.464H24.912V602.984C24.72 605.048 24.072 606.944 22.968 608.672C21.864 610.376 20.412 611.732 18.612 612.74C16.812 613.724 14.808 614.216 12.6 614.216C10.272 614.216 8.148 613.676 6.228 612.596C4.308 611.492 2.784 609.968 1.656 608.024C0.552 606.08 0 603.884 0 601.436C0 598.988 0.552 596.792 1.656 594.848C2.784 592.88 4.308 591.356 6.228 590.276C8.148 589.172 10.272 588.62 12.6 588.62C15.264 588.62 17.616 589.28 19.656 590.6C21.72 591.92 23.22 593.78 24.156 596.18H20.232Z" fill="black"/>
<path d="M32.5195 591.572V599.96H41.6635V602.66H32.5195V611.3H42.7435V614H29.2435V588.872H42.7435V591.572H32.5195Z" fill="black"/>
<path d="M50.9766 591.572V599.96H60.1206V602.66H50.9766V611.3H61.2006V614H47.7006V588.872H61.2006V591.572H50.9766Z" fill="black"/>
<path d="M85.8856 614H82.6096L69.4336 594.02V614H66.1576V588.872H69.4336L82.6096 608.816V588.872H85.8856V614Z" fill="black"/>
<path d="M121.804 588.908L112.336 614H108.556L99.0878 588.908H102.58L110.464 610.544L118.348 588.908H121.804Z" fill="black"/>
<path d="M128.672 591.572V599.96H137.816V602.66H128.672V611.3H138.896V614H125.396V588.872H138.896V591.572H128.672Z" fill="black"/>
<path d="M151.809 614.252C150.153 614.252 148.665 613.964 147.345 613.388C146.049 612.788 145.029 611.972 144.285 610.94C143.541 609.884 143.157 608.672 143.133 607.304H146.625C146.745 608.48 147.225 609.476 148.065 610.292C148.929 611.084 150.177 611.48 151.809 611.48C153.369 611.48 154.593 611.096 155.481 610.328C156.393 609.536 156.849 608.528 156.849 607.304C156.849 606.344 156.585 605.564 156.057 604.964C155.529 604.364 154.869 603.908 154.077 603.596C153.285 603.284 152.217 602.948 150.873 602.588C149.217 602.156 147.885 601.724 146.877 601.292C145.893 600.86 145.041 600.188 144.321 599.276C143.625 598.34 143.277 597.092 143.277 595.532C143.277 594.164 143.625 592.952 144.321 591.896C145.017 590.84 145.989 590.024 147.237 589.448C148.509 588.872 149.961 588.584 151.593 588.584C153.945 588.584 155.865 589.172 157.353 590.348C158.865 591.524 159.717 593.084 159.909 595.028H156.309C156.189 594.068 155.685 593.228 154.797 592.508C153.909 591.764 152.733 591.392 151.269 591.392C149.901 591.392 148.785 591.752 147.921 592.472C147.057 593.168 146.625 594.152 146.625 595.424C146.625 596.336 146.877 597.08 147.381 597.656C147.909 598.232 148.545 598.676 149.289 598.988C150.057 599.276 151.125 599.612 152.493 599.996C154.149 600.452 155.481 600.908 156.489 601.364C157.497 601.796 158.361 602.48 159.081 603.416C159.801 604.328 160.161 605.576 160.161 607.16C160.161 608.384 159.837 609.536 159.189 610.616C158.541 611.696 157.581 612.572 156.309 613.244C155.037 613.916 153.537 614.252 151.809 614.252Z" fill="black"/>
<path d="M180.426 588.908V591.572H173.586V614H170.31V591.572H163.434V588.908H180.426Z" fill="black"/>
<path d="M187.734 588.908V614H184.458V588.908H187.734Z" fill="black"/>
<path d="M212.326 596.18C211.63 594.716 210.622 593.588 209.302 592.796C207.982 591.98 206.446 591.572 204.694 591.572C202.942 591.572 201.358 591.98 199.942 592.796C198.55 593.588 197.446 594.74 196.63 596.252C195.838 597.74 195.442 599.468 195.442 601.436C195.442 603.404 195.838 605.132 196.63 606.62C197.446 608.108 198.55 609.26 199.942 610.076C201.358 610.868 202.942 611.264 204.694 611.264C207.142 611.264 209.158 610.532 210.742 609.068C212.326 607.604 213.25 605.624 213.514 603.128H203.506V600.464H217.006V602.984C216.814 605.048 216.166 606.944 215.062 608.672C213.958 610.376 212.506 611.732 210.706 612.74C208.906 613.724 206.902 614.216 204.694 614.216C202.366 614.216 200.242 613.676 198.322 612.596C196.402 611.492 194.878 609.968 193.75 608.024C192.646 606.08 192.094 603.884 192.094 601.436C192.094 598.988 192.646 596.792 193.75 594.848C194.878 592.88 196.402 591.356 198.322 590.276C200.242 589.172 202.366 588.62 204.694 588.62C207.358 588.62 209.71 589.28 211.75 590.6C213.814 591.92 215.314 593.78 216.25 596.18H212.326Z" fill="black"/>
<path d="M224.613 588.908V614H221.337V588.908H224.613Z" fill="black"/>
<path d="M249.925 614H246.649L233.473 594.02V614H230.197V588.872H233.473L246.649 608.816V588.872H249.925V614Z" fill="black"/>
<path d="M274.517 596.18C273.821 594.716 272.813 593.588 271.493 592.796C270.173 591.98 268.637 591.572 266.885 591.572C265.133 591.572 263.549 591.98 262.133 592.796C260.741 593.588 259.637 594.74 258.821 596.252C258.029 597.74 257.633 599.468 257.633 601.436C257.633 603.404 258.029 605.132 258.821 606.62C259.637 608.108 260.741 609.26 262.133 610.076C263.549 610.868 265.133 611.264 266.885 611.264C269.333 611.264 271.349 610.532 272.933 609.068C274.517 607.604 275.441 605.624 275.705 603.128H265.697V600.464H279.197V602.984C279.005 605.048 278.357 606.944 277.253 608.672C276.149 610.376 274.697 611.732 272.897 612.74C271.097 613.724 269.093 614.216 266.885 614.216C264.557 614.216 262.433 613.676 260.513 612.596C258.593 611.492 257.069 609.968 255.941 608.024C254.837 606.08 254.285 603.884 254.285 601.436C254.285 598.988 254.837 596.792 255.941 594.848C257.069 592.88 258.593 591.356 260.513 590.276C262.433 589.172 264.557 588.62 266.885 588.62C269.549 588.62 271.901 589.28 273.941 590.6C276.005 591.92 277.505 593.78 278.441 596.18H274.517Z" fill="black"/>
<path d="M286.805 591.572V599.96H295.949V602.66H286.805V611.3H297.029V614H283.529V588.872H297.029V591.572H286.805Z" fill="black"/>
<path d="M321.714 614H318.438L305.262 594.02V614H301.986V588.872H305.262L318.438 608.816V588.872H321.714V614Z" fill="black"/>
<path d="M355.904 596.18C355.208 594.716 354.2 593.588 352.88 592.796C351.56 591.98 350.024 591.572 348.272 591.572C346.52 591.572 344.936 591.98 343.52 592.796C342.128 593.588 341.024 594.74 340.208 596.252C339.416 597.74 339.02 599.468 339.02 601.436C339.02 603.404 339.416 605.132 340.208 606.62C341.024 608.108 342.128 609.26 343.52 610.076C344.936 610.868 346.52 611.264 348.272 611.264C350.72 611.264 352.736 610.532 354.32 609.068C355.904 607.604 356.828 605.624 357.092 603.128H347.084V600.464H360.584V602.984C360.392 605.048 359.744 606.944 358.64 608.672C357.536 610.376 356.084 611.732 354.284 612.74C352.484 613.724 350.48 614.216 348.272 614.216C345.944 614.216 343.82 613.676 341.9 612.596C339.98 611.492 338.456 609.968 337.328 608.024C336.224 606.08 335.672 603.884 335.672 601.436C335.672 598.988 336.224 596.792 337.328 594.848C338.456 592.88 339.98 591.356 341.9 590.276C343.82 589.172 345.944 588.62 348.272 588.62C350.936 588.62 353.288 589.28 355.328 590.6C357.392 591.92 358.892 593.78 359.828 596.18H355.904Z" fill="black"/>
<path d="M368.191 591.572V599.96H377.335V602.66H368.191V611.3H378.415V614H364.915V588.872H378.415V591.572H368.191Z" fill="black"/>
<path d="M404.108 588.908L394.64 614H390.86L381.392 588.908H384.884L392.768 610.544L400.652 588.908H404.108Z" fill="black"/>
<path d="M419.077 614.252C416.749 614.252 414.625 613.712 412.705 612.632C410.785 611.528 409.261 610.004 408.133 608.06C407.029 606.092 406.477 603.884 406.477 601.436C406.477 598.988 407.029 596.792 408.133 594.848C409.261 592.88 410.785 591.356 412.705 590.276C414.625 589.172 416.749 588.62 419.077 588.62C421.429 588.62 423.565 589.172 425.485 590.276C427.405 591.356 428.917 592.868 430.021 594.812C431.125 596.756 431.677 598.964 431.677 601.436C431.677 603.908 431.125 606.116 430.021 608.06C428.917 610.004 427.405 611.528 425.485 612.632C423.565 613.712 421.429 614.252 419.077 614.252ZM419.077 611.408C420.829 611.408 422.401 611 423.793 610.184C425.209 609.368 426.313 608.204 427.105 606.692C427.921 605.18 428.329 603.428 428.329 601.436C428.329 599.42 427.921 597.668 427.105 596.18C426.313 594.668 425.221 593.504 423.829 592.688C422.437 591.872 420.853 591.464 419.077 591.464C417.301 591.464 415.717 591.872 414.325 592.688C412.933 593.504 411.829 594.668 411.013 596.18C410.221 597.668 409.825 599.42 409.825 601.436C409.825 603.428 410.221 605.18 411.013 606.692C411.829 608.204 412.933 609.368 414.325 610.184C415.741 611 417.325 611.408 419.077 611.408Z" fill="black"/>
<path d="M455.729 614H452.453L439.277 594.02V614H436.001V588.872H439.277L452.453 608.816V588.872H455.729V614Z" fill="black"/>
<path d="M469.126 588.908C471.862 588.908 474.226 589.424 476.218 590.456C478.234 591.464 479.77 592.916 480.826 594.812C481.906 596.708 482.446 598.94 482.446 601.508C482.446 604.076 481.906 606.308 480.826 608.204C479.77 610.076 478.234 611.516 476.218 612.524C474.226 613.508 471.862 614 469.126 614H461.314V588.908H469.126ZM469.126 611.3C472.366 611.3 474.838 610.448 476.542 608.744C478.246 607.016 479.098 604.604 479.098 601.508C479.098 598.388 478.234 595.952 476.506 594.2C474.802 592.448 472.342 591.572 469.126 591.572H464.59V611.3H469.126Z" fill="black"/>
<path d="M490.043 591.572V599.96H499.187V602.66H490.043V611.3H500.267V614H486.767V588.872H500.267V591.572H490.043Z" fill="black"/>
<path d="M524.952 614H521.676L508.5 594.02V614H505.224V588.872H508.5L521.676 608.816V588.872H524.952V614Z" fill="black"/>
</svg>
