<svg width="483" height="615" viewBox="0 0 483 615" fill="none" xmlns="http://www.w3.org/2000/svg">
<path fill-rule="evenodd" clip-rule="evenodd" d="M329.87 256.53L260.58 187.24L294.63 153C294.98 152.65 295.33 152.3 295.63 151.94C285.048 142.063 272.332 134.757 258.47 130.59L231.2 157.9L197.07 123.77C196.68 123.38 196.29 122.97 195.91 122.57C187.553 113.646 182.905 101.876 182.91 89.65C182.911 87.456 183.058 85.2645 183.35 83.09C184.797 72.5657 189.676 62.8126 197.229 55.3422C204.782 47.8717 214.588 43.101 225.128 41.7693C235.667 40.4376 246.352 42.6193 255.526 47.9763C264.699 53.3333 271.85 61.5665 275.87 71.4C291.904 76.1793 307.062 83.5135 320.76 93.12C320.76 91.96 320.82 90.8 320.82 89.65C320.82 65.8733 311.375 43.0705 294.562 26.2579C277.749 9.44524 254.947 0 231.17 0C207.393 0 184.59 9.44524 167.778 26.2579C150.965 43.0705 141.52 65.8733 141.52 89.65C141.52 90.8 141.52 91.96 141.59 93.12C142.418 115.178 151.376 136.151 166.74 152C167.08 152.36 167.43 152.71 167.74 153.06L201.87 187.18L140.58 248.47C144.749 262.337 152.058 275.056 161.94 285.64L231.13 216.45L407.65 392.94C411.53 396.82 416.793 399 422.28 399C427.767 399 433.03 396.82 436.91 392.94C447.25 382.6 444.66 347.32 442.52 330.76C442.38 329.76 442.28 328.38 442.22 327.58L439.6 298.32C439.19 295.51 438.96 287.45 438.6 285.12C438.24 282.79 438.44 280.6 438.14 278.36L436.96 258.36C436.96 256.83 436.74 256.44 436.7 255.14C436.66 253.84 436.77 252.6 436.7 251.39C436.42 246.19 436.19 243.32 436.2 237.7C436.2 235.21 435.95 233.57 435.95 230.98C435.95 226.74 435.47 211.66 435.88 209.98C437.01 205.47 444.05 202.12 448.88 198.32C449.7 197.67 450.12 197.16 450.88 196.57C453.529 194.448 455.809 191.904 457.63 189.04C459.534 185.956 460.97 182.606 461.89 179.1C462.993 174.779 463.607 170.348 463.72 165.89V156.29C463.65 154.72 463.56 153.21 463.45 151.81C461.94 132.48 457.85 110.4 446.32 94.99C442.87 90.38 436.32 84.07 430.1 84.07C425.75 84.07 423.64 84.71 420.02 87.44C416.02 90.44 412.02 95.81 409.76 100.34C409.36 101.13 409.16 101.34 408.76 102.08C408.36 102.82 408.14 103.32 407.76 104.08C405.841 108.127 404.171 112.289 402.76 116.54C400.08 125.61 400.21 125.47 398.21 135.39C397.59 138.49 397.06 142.39 396.74 145.62C394.8 164.52 394.74 179.97 405.02 193.03C405.52 193.67 405.8 193.85 406.3 194.49C408.11 196.82 409.4 197.49 410.83 198.93C411.826 199.848 412.867 200.716 413.95 201.53C415.11 202.47 416.18 203.21 417.33 204.13C418.95 205.42 422.59 208.04 422.59 210.57C422.59 213.49 422.76 229.19 422.53 230.92C422.16 233.58 422.63 237.08 422.31 239.92L421.84 248.67C421.75 251.67 421.84 254.67 421.58 257.67C421.12 263.29 420.98 269.38 420.39 274.9C419.9 279.41 419.61 287.46 419.04 291.97C418.72 294.5 418.5 297.8 418.18 300.33C417.82 303.22 417.61 305.86 417.34 308.7L414.16 340.91L329.81 256.55L329.87 256.53ZM9.07997 159.29C9.07997 165.78 8.81997 173.17 9.88997 179.39C10.4971 182.638 11.6826 185.751 13.39 188.58C14.9683 191.172 16.7613 193.627 18.75 195.92C19.75 197.17 20.61 198.23 21.6 199.55C22.5613 200.779 23.4272 202.079 24.19 203.44C28.1 210.73 26.97 218.76 25.97 228.21L25.08 237.04C24.57 241.04 24.41 244.83 23.98 248.88C23.16 256.58 22.15 264.35 21.77 272.08C21.68 273.86 21.42 275.76 21.26 277.79L19.26 301.47C19.09 303.63 19.16 305.47 18.98 307.67C18.67 311.45 18.23 315.88 18.25 319.89C17.88 336.95 14.12 381.65 25.44 392.97C29.3218 396.851 34.586 399.031 40.075 399.031C45.5639 399.031 50.8281 396.851 54.71 392.97L118.37 329.31C108.66 319.187 100.358 307.801 93.69 295.46L47.88 341.26L46.71 326.79C45.35 316.3 44.78 305.79 43.71 295.44C43.56 293.98 43.49 292.92 43.42 291.51C43.04 284.76 42.11 278.3 41.94 271.58C41.83 267.51 41.15 263.72 41.18 259.63C41.18 257.88 40.94 257.14 40.92 255.63C40.92 252.57 40.73 250.28 40.69 247.14C40.69 245.65 40.42 244.91 40.43 243.14V238.9C40.43 237.2 40.16 236.62 40.17 234.9C40.17 227.67 39.83 220.85 39.92 213.48C40.01 205.93 43.81 201.53 48.32 196.23C50.3053 193.816 52.0284 191.198 53.46 188.42C53.9378 187.444 54.3618 186.442 54.73 185.42C58.25 176.66 57.59 164.99 57.61 155.18C57.61 153.18 57.35 151.93 57.35 150.18C57.35 146.46 57.1 143.5 57.11 139.96L56 120.4C55.53 117.28 55.7 114.06 55.29 110.9C54.29 103.1 53.94 95.21 52.62 87.42C52.4 86.11 52.37 84.02 51.12 83.69C49.84 89.21 49.65 100.05 49.64 106.11C49.64 107.79 49.37 108.88 49.38 110.83C49.38 114.27 49.12 116.83 49.13 120.29L47.9 143.2C47.81 145.99 47.05 154.2 45.4 155.4C44.18 155.07 43.98 153.51 43.76 152.31C43.4803 150.862 43.28 149.4 43.16 147.93C43 145.13 42.66 141.77 42.43 138.93L41.92 120C41.92 116.6 41.67 114 41.67 110.54C41.67 102.54 41.33 95 40.67 87.13C40.6304 86.393 40.53 85.6605 40.37 84.94C40.14 83.87 40.31 83.74 39.17 83.65C37.89 89.14 37.69 100.18 37.68 106.32C37.68 108 37.42 109.08 37.43 111.04V115.78L36.43 136.7C36.14 140.26 35.86 155.36 32.93 155.36C30.86 155.36 30.37 145.99 30.21 143.89C29.75 138.2 29.44 126.17 29.45 120.75C29.45 114.45 29.64 107.83 29.45 101.57L29.21 92.36C29.21 90.89 29.03 89.56 28.95 87.88C28.826 86.4505 28.575 85.035 28.2 83.65H27.45C27.29 84.35 27.13 84.65 26.97 85.4C26.32 88.32 25.2 106.9 25.21 110.54L23.82 138.29C23.05 143.47 23.49 148.66 21.93 153.57C21.6614 154.152 21.4277 154.75 21.23 155.36H20.23C20.0704 154.799 19.8698 154.251 19.63 153.72C19.3921 153.076 19.2376 152.404 19.17 151.72C18.3089 145.924 17.8312 140.078 17.74 134.22C17.8217 132.664 17.7983 131.103 17.67 129.55C17.31 126.89 17.24 105.84 17.24 101.6C17.24 97.08 17.14 87.51 16.24 83.67C15.33 83.91 15.32 84.12 15.01 84.93C12.79 90.8 11.13 111.93 10.76 119.52L10.37 124.11C9.98998 126.6 10.14 129.11 10.01 131.48C9.94997 132.58 9.76997 132.67 9.74997 133.96C9.74997 134.78 9.74997 135.65 9.74997 136.47C9.74997 137.69 9.51997 137.71 9.48997 138.94C9.27997 145.74 8.99997 152.14 8.99997 159.12L9.07997 159.29Z" fill="#384041"/>
<path fill-rule="evenodd" clip-rule="evenodd" d="M300.49 300L231.26 369.23L162 300L157.19 295.18C156.39 294.39 155.61 293.58 154.85 292.77C142.349 279.472 133.553 263.128 129.34 245.37C127.468 237.429 126.522 229.298 126.52 221.14C126.506 195.497 135.932 170.747 153 151.61C143.81 140.034 137.319 126.553 134 112.15C131.94 113.99 129.93 115.9 128 117.87C107.424 138.437 93.4496 164.673 87.8616 193.224C82.2737 221.775 85.3265 251.343 96.63 278.15C98.03 281.483 99.5567 284.747 101.21 287.94C107.638 300.447 115.84 311.959 125.56 322.12C126.33 322.92 127.12 323.73 127.91 324.52L216.59 413.2C220.472 417.081 225.736 419.261 231.225 419.261C236.714 419.261 241.978 417.081 245.86 413.2L329.72 329.33L300.49 300ZM302.35 144.25C303.35 145.17 304.35 146.12 305.35 147.1C306.8 148.55 308.21 150.1 309.56 151.57C320.745 164.156 328.732 179.252 332.846 195.58C336.959 211.908 337.077 228.987 333.19 245.37L365.89 278.07C377.197 251.277 380.261 221.722 374.689 193.179C369.117 164.637 355.163 138.403 334.61 117.83C332.61 115.83 330.593 113.923 328.56 112.11C325.673 109.53 322.71 107.083 319.67 104.77C307.392 95.4227 293.704 88.0909 279.12 83.05C275.48 81.79 271.813 80.68 268.12 79.72C243.984 73.479 218.656 73.479 194.52 79.72C193.662 82.9466 193.228 86.2713 193.23 89.61C193.225 94.6117 194.207 99.5653 196.12 104.187C198.034 108.808 200.841 113.006 204.38 116.54L207.1 119.25C223.818 115.269 241.259 115.468 257.882 119.828C274.505 124.188 289.798 132.576 302.41 144.25H302.35Z" fill="#FEAA3A"/>
<path fill-rule="evenodd" clip-rule="evenodd" d="M231.26 453C347.36 453 441.49 476.84 441.49 506.25C441.49 535.66 347.36 559.51 231.26 559.51C115.16 559.51 21 535.71 21 506.29C21 476.87 115.16 453 231.26 453ZM231.26 481.9C284.35 481.9 327.38 492.81 327.38 506.25C327.38 519.69 284.38 530.6 231.26 530.6C178.14 530.6 135.14 519.7 135.14 506.25C135.14 492.8 178.14 481.94 231.26 481.94V481.9Z" fill="#384041"/>
<path fill-rule="evenodd" clip-rule="evenodd" d="M337.63 506.24C337.63 491.36 290 479.29 231.24 479.29C172.48 479.29 124.86 491.36 124.86 506.24C124.86 521.12 172.49 533.24 231.24 533.24C289.99 533.24 337.63 521.13 337.63 506.24Z" fill="#FBFBFB"/>
<path d="M20.5273 614H17.2513L4.07532 594.02V614H0.799316V588.872H4.07532L17.2513 608.816V588.872H20.5273V614Z" fill="black"/>
<path d="M37.4878 614.252C35.1598 614.252 33.0358 613.712 31.1158 612.632C29.1958 611.528 27.6718 610.004 26.5438 608.06C25.4398 606.092 24.8878 603.884 24.8878 601.436C24.8878 598.988 25.4398 596.792 26.5438 594.848C27.6718 592.88 29.1958 591.356 31.1158 590.276C33.0358 589.172 35.1598 588.62 37.4878 588.62C39.8398 588.62 41.9758 589.172 43.8958 590.276C45.8158 591.356 47.3278 592.868 48.4318 594.812C49.5358 596.756 50.0878 598.964 50.0878 601.436C50.0878 603.908 49.5358 606.116 48.4318 608.06C47.3278 610.004 45.8158 611.528 43.8958 612.632C41.9758 613.712 39.8398 614.252 37.4878 614.252ZM37.4878 611.408C39.2398 611.408 40.8118 611 42.2038 610.184C43.6198 609.368 44.7238 608.204 45.5158 606.692C46.3318 605.18 46.7398 603.428 46.7398 601.436C46.7398 599.42 46.3318 597.668 45.5158 596.18C44.7238 594.668 43.6318 593.504 42.2398 592.688C40.8478 591.872 39.2638 591.464 37.4878 591.464C35.7118 591.464 34.1278 591.872 32.7358 592.688C31.3438 593.504 30.2398 594.668 29.4238 596.18C28.6318 597.668 28.2358 599.42 28.2358 601.436C28.2358 603.428 28.6318 605.18 29.4238 606.692C30.2398 608.204 31.3438 609.368 32.7358 610.184C34.1518 611 35.7358 611.408 37.4878 611.408Z" fill="black"/>
<path d="M67.2863 591.572V599.96H76.4303V602.66H67.2863V611.3H77.5103V614H64.0103V588.872H77.5103V591.572H67.2863Z" fill="black"/>
<path d="M90.4233 614.252C88.7673 614.252 87.2793 613.964 85.9593 613.388C84.6633 612.788 83.6433 611.972 82.8993 610.94C82.1553 609.884 81.7713 608.672 81.7473 607.304H85.2393C85.3593 608.48 85.8393 609.476 86.6793 610.292C87.5433 611.084 88.7913 611.48 90.4233 611.48C91.9833 611.48 93.2073 611.096 94.0953 610.328C95.0073 609.536 95.4633 608.528 95.4633 607.304C95.4633 606.344 95.1993 605.564 94.6713 604.964C94.1433 604.364 93.4833 603.908 92.6913 603.596C91.8993 603.284 90.8313 602.948 89.4873 602.588C87.8313 602.156 86.4993 601.724 85.4913 601.292C84.5073 600.86 83.6553 600.188 82.9353 599.276C82.2393 598.34 81.8913 597.092 81.8913 595.532C81.8913 594.164 82.2393 592.952 82.9353 591.896C83.6313 590.84 84.6033 590.024 85.8513 589.448C87.1233 588.872 88.5753 588.584 90.2073 588.584C92.5593 588.584 94.4793 589.172 95.9673 590.348C97.4793 591.524 98.3313 593.084 98.5233 595.028H94.9233C94.8033 594.068 94.2993 593.228 93.4113 592.508C92.5233 591.764 91.3473 591.392 89.8833 591.392C88.5153 591.392 87.3993 591.752 86.5353 592.472C85.6713 593.168 85.2393 594.152 85.2393 595.424C85.2393 596.336 85.4913 597.08 85.9953 597.656C86.5233 598.232 87.1593 598.676 87.9033 598.988C88.6713 599.276 89.7393 599.612 91.1073 599.996C92.7633 600.452 94.0953 600.908 95.1033 601.364C96.1113 601.796 96.9753 602.48 97.6953 603.416C98.4153 604.328 98.7753 605.576 98.7753 607.16C98.7753 608.384 98.4513 609.536 97.8033 610.616C97.1553 611.696 96.1953 612.572 94.9233 613.244C93.6513 613.916 92.1513 614.252 90.4233 614.252Z" fill="black"/>
<path d="M119.04 588.908V591.572H112.2V614H108.924V591.572H102.048V588.908H119.04Z" fill="black"/>
<path d="M137.905 608.42H126.961L124.945 614H121.489L130.561 589.052H134.341L143.377 614H139.921L137.905 608.42ZM136.969 605.756L132.433 593.084L127.897 605.756H136.969Z" fill="black"/>
<path d="M159.895 601.076C160.807 601.22 161.635 601.592 162.379 602.192C163.147 602.792 163.747 603.536 164.179 604.424C164.635 605.312 164.863 606.26 164.863 607.268C164.863 608.54 164.539 609.692 163.891 610.724C163.243 611.732 162.295 612.536 161.047 613.136C159.823 613.712 158.371 614 156.691 614H147.331V588.908H156.331C158.035 588.908 159.487 589.196 160.687 589.772C161.887 590.324 162.787 591.08 163.387 592.04C163.987 593 164.287 594.08 164.287 595.28C164.287 596.768 163.879 598.004 163.063 598.988C162.271 599.948 161.215 600.644 159.895 601.076ZM150.607 599.744H156.115C157.651 599.744 158.839 599.384 159.679 598.664C160.519 597.944 160.939 596.948 160.939 595.676C160.939 594.404 160.519 593.408 159.679 592.688C158.839 591.968 157.627 591.608 156.043 591.608H150.607V599.744ZM156.403 611.3C158.035 611.3 159.307 610.916 160.219 610.148C161.131 609.38 161.587 608.312 161.587 606.944C161.587 605.552 161.107 604.46 160.147 603.668C159.187 602.852 157.903 602.444 156.295 602.444H150.607V611.3H156.403Z" fill="black"/>
<path d="M172.685 611.336H181.469V614H169.409V588.908H172.685V611.336Z" fill="black"/>
<path d="M188.224 588.908V614H184.948V588.908H188.224Z" fill="black"/>
<path d="M201.763 614.252C200.107 614.252 198.619 613.964 197.299 613.388C196.003 612.788 194.983 611.972 194.239 610.94C193.495 609.884 193.111 608.672 193.087 607.304H196.579C196.699 608.48 197.179 609.476 198.019 610.292C198.883 611.084 200.131 611.48 201.763 611.48C203.323 611.48 204.547 611.096 205.435 610.328C206.347 609.536 206.803 608.528 206.803 607.304C206.803 606.344 206.539 605.564 206.011 604.964C205.483 604.364 204.823 603.908 204.031 603.596C203.239 603.284 202.171 602.948 200.827 602.588C199.171 602.156 197.839 601.724 196.831 601.292C195.847 600.86 194.995 600.188 194.275 599.276C193.579 598.34 193.231 597.092 193.231 595.532C193.231 594.164 193.579 592.952 194.275 591.896C194.971 590.84 195.943 590.024 197.191 589.448C198.463 588.872 199.915 588.584 201.547 588.584C203.899 588.584 205.819 589.172 207.307 590.348C208.819 591.524 209.671 593.084 209.863 595.028H206.263C206.143 594.068 205.639 593.228 204.751 592.508C203.863 591.764 202.687 591.392 201.223 591.392C199.855 591.392 198.739 591.752 197.875 592.472C197.011 593.168 196.579 594.152 196.579 595.424C196.579 596.336 196.831 597.08 197.335 597.656C197.863 598.232 198.499 598.676 199.243 598.988C200.011 599.276 201.079 599.612 202.447 599.996C204.103 600.452 205.435 600.908 206.443 601.364C207.451 601.796 208.315 602.48 209.035 603.416C209.755 604.328 210.115 605.576 210.115 607.16C210.115 608.384 209.791 609.536 209.143 610.616C208.495 611.696 207.535 612.572 206.263 613.244C204.991 613.916 203.491 614.252 201.763 614.252Z" fill="black"/>
<path d="M234.268 588.908V614H230.992V602.624H218.212V614H214.936V588.908H218.212V599.924H230.992V588.908H234.268Z" fill="black"/>
<path d="M265.314 589.088V614H262.038V595.424L253.758 614H251.454L243.138 595.388V614H239.862V589.088H243.39L252.606 609.68L261.822 589.088H265.314Z" fill="black"/>
<path d="M274.146 591.572V599.96H283.29V602.66H274.146V611.3H284.37V614H270.87V588.872H284.37V591.572H274.146Z" fill="black"/>
<path d="M309.055 614H305.779L292.603 594.02V614H289.327V588.872H292.603L305.779 608.816V588.872H309.055V614Z" fill="black"/>
<path d="M330.083 588.908V591.572H323.243V614H319.967V591.572H313.091V588.908H330.083Z" fill="black"/>
<path d="M342.072 614.252C340.416 614.252 338.928 613.964 337.608 613.388C336.312 612.788 335.292 611.972 334.548 610.94C333.804 609.884 333.42 608.672 333.396 607.304H336.888C337.008 608.48 337.488 609.476 338.328 610.292C339.192 611.084 340.44 611.48 342.072 611.48C343.632 611.48 344.856 611.096 345.744 610.328C346.656 609.536 347.112 608.528 347.112 607.304C347.112 606.344 346.848 605.564 346.32 604.964C345.792 604.364 345.132 603.908 344.34 603.596C343.548 603.284 342.48 602.948 341.136 602.588C339.48 602.156 338.148 601.724 337.14 601.292C336.156 600.86 335.304 600.188 334.584 599.276C333.888 598.34 333.54 597.092 333.54 595.532C333.54 594.164 333.888 592.952 334.584 591.896C335.28 590.84 336.252 590.024 337.5 589.448C338.772 588.872 340.224 588.584 341.856 588.584C344.208 588.584 346.128 589.172 347.616 590.348C349.128 591.524 349.98 593.084 350.172 595.028H346.572C346.452 594.068 345.948 593.228 345.06 592.508C344.172 591.764 342.996 591.392 341.532 591.392C340.164 591.392 339.048 591.752 338.184 592.472C337.32 593.168 336.888 594.152 336.888 595.424C336.888 596.336 337.14 597.08 337.644 597.656C338.172 598.232 338.808 598.676 339.552 598.988C340.32 599.276 341.388 599.612 342.756 599.996C344.412 600.452 345.744 600.908 346.752 601.364C347.76 601.796 348.624 602.48 349.344 603.416C350.064 604.328 350.424 605.576 350.424 607.16C350.424 608.384 350.1 609.536 349.452 610.616C348.804 611.696 347.844 612.572 346.572 613.244C345.3 613.916 343.8 614.252 342.072 614.252Z" fill="black"/>
<path d="M379.026 588.908V591.572H368.118V600.032H376.974V602.696H368.118V614H364.842V588.908H379.026Z" fill="black"/>
<path d="M394.359 614.252C392.031 614.252 389.907 613.712 387.987 612.632C386.067 611.528 384.543 610.004 383.415 608.06C382.311 606.092 381.759 603.884 381.759 601.436C381.759 598.988 382.311 596.792 383.415 594.848C384.543 592.88 386.067 591.356 387.987 590.276C389.907 589.172 392.031 588.62 394.359 588.62C396.711 588.62 398.847 589.172 400.767 590.276C402.687 591.356 404.199 592.868 405.303 594.812C406.407 596.756 406.959 598.964 406.959 601.436C406.959 603.908 406.407 606.116 405.303 608.06C404.199 610.004 402.687 611.528 400.767 612.632C398.847 613.712 396.711 614.252 394.359 614.252ZM394.359 611.408C396.111 611.408 397.683 611 399.075 610.184C400.491 609.368 401.595 608.204 402.387 606.692C403.203 605.18 403.611 603.428 403.611 601.436C403.611 599.42 403.203 597.668 402.387 596.18C401.595 594.668 400.503 593.504 399.111 592.688C397.719 591.872 396.135 591.464 394.359 591.464C392.583 591.464 390.999 591.872 389.607 592.688C388.215 593.504 387.111 594.668 386.295 596.18C385.503 597.668 385.107 599.42 385.107 601.436C385.107 603.428 385.503 605.18 386.295 606.692C387.111 608.204 388.215 609.368 389.607 610.184C391.023 611 392.607 611.408 394.359 611.408Z" fill="black"/>
<path d="M414.488 588.908V604.784C414.488 607.016 415.028 608.672 416.108 609.752C417.212 610.832 418.736 611.372 420.68 611.372C422.6 611.372 424.1 610.832 425.18 609.752C426.284 608.672 426.836 607.016 426.836 604.784V588.908H430.112V604.748C430.112 606.836 429.692 608.6 428.852 610.04C428.012 611.456 426.872 612.512 425.432 613.208C424.016 613.904 422.42 614.252 420.644 614.252C418.868 614.252 417.26 613.904 415.82 613.208C414.404 612.512 413.276 611.456 412.436 610.04C411.62 608.6 411.212 606.836 411.212 604.748V588.908H414.488Z" fill="black"/>
<path d="M455.305 614H452.029L438.853 594.02V614H435.577V588.872H438.853L452.029 608.816V588.872H455.305V614Z" fill="black"/>
<path d="M468.701 588.908C471.437 588.908 473.801 589.424 475.793 590.456C477.809 591.464 479.345 592.916 480.401 594.812C481.481 596.708 482.021 598.94 482.021 601.508C482.021 604.076 481.481 606.308 480.401 608.204C479.345 610.076 477.809 611.516 475.793 612.524C473.801 613.508 471.437 614 468.701 614H460.889V588.908H468.701ZM468.701 611.3C471.941 611.3 474.413 610.448 476.117 608.744C477.821 607.016 478.673 604.604 478.673 601.508C478.673 598.388 477.809 595.952 476.081 594.2C474.377 592.448 471.917 591.572 468.701 591.572H464.165V611.3H468.701Z" fill="black"/>
</svg>
