<svg width="543" height="615" viewBox="0 0 543 615" fill="none" xmlns="http://www.w3.org/2000/svg">
<path fill-rule="evenodd" clip-rule="evenodd" d="M356.87 256.53L287.58 187.24L321.63 153C321.98 152.65 322.33 152.3 322.63 151.94C312.048 142.063 299.332 134.757 285.47 130.59L258.2 157.9L224.07 123.77C223.68 123.38 223.29 122.97 222.91 122.57C214.553 113.646 209.905 101.876 209.91 89.65C209.911 87.456 210.058 85.2645 210.35 83.09C211.797 72.5657 216.676 62.8126 224.229 55.3422C231.782 47.8717 241.588 43.101 252.128 41.7693C262.667 40.4376 273.352 42.6193 282.526 47.9763C291.699 53.3333 298.85 61.5665 302.87 71.4C318.904 76.1793 334.062 83.5135 347.76 93.12C347.76 91.96 347.82 90.8 347.82 89.65C347.82 65.8733 338.375 43.0705 321.562 26.2579C304.749 9.44524 281.947 0 258.17 0C234.393 0 211.59 9.44524 194.778 26.2579C177.965 43.0705 168.52 65.8733 168.52 89.65C168.52 90.8 168.52 91.96 168.59 93.12C169.418 115.178 178.376 136.151 193.74 152C194.08 152.36 194.43 152.71 194.74 153.06L228.87 187.18L167.58 248.47C171.749 262.337 179.058 275.056 188.94 285.64L258.13 216.45L434.65 392.94C438.53 396.82 443.793 399 449.28 399C454.767 399 460.03 396.82 463.91 392.94C474.25 382.6 471.66 347.32 469.52 330.76C469.38 329.76 469.28 328.38 469.22 327.58L466.6 298.32C466.19 295.51 465.96 287.45 465.6 285.12C465.24 282.79 465.44 280.6 465.14 278.36L463.96 258.36C463.96 256.83 463.74 256.44 463.7 255.14C463.66 253.84 463.77 252.6 463.7 251.39C463.42 246.19 463.19 243.32 463.2 237.7C463.2 235.21 462.95 233.57 462.95 230.98C462.95 226.74 462.47 211.66 462.88 209.98C464.01 205.47 471.05 202.12 475.88 198.32C476.7 197.67 477.12 197.16 477.88 196.57C480.529 194.448 482.809 191.904 484.63 189.04C486.534 185.956 487.97 182.606 488.89 179.1C489.993 174.779 490.607 170.348 490.72 165.89V156.29C490.65 154.72 490.56 153.21 490.45 151.81C488.94 132.48 484.85 110.4 473.32 94.99C469.87 90.38 463.32 84.07 457.1 84.07C452.75 84.07 450.64 84.71 447.02 87.44C443.02 90.44 439.02 95.81 436.76 100.34C436.36 101.13 436.16 101.34 435.76 102.08C435.36 102.82 435.14 103.32 434.76 104.08C432.841 108.127 431.171 112.289 429.76 116.54C427.08 125.61 427.21 125.47 425.21 135.39C424.59 138.49 424.06 142.39 423.74 145.62C421.8 164.52 421.74 179.97 432.02 193.03C432.52 193.67 432.8 193.85 433.3 194.49C435.11 196.82 436.4 197.49 437.83 198.93C438.826 199.848 439.867 200.716 440.95 201.53C442.11 202.47 443.18 203.21 444.33 204.13C445.95 205.42 449.59 208.04 449.59 210.57C449.59 213.49 449.76 229.19 449.53 230.92C449.16 233.58 449.63 237.08 449.31 239.92L448.84 248.67C448.75 251.67 448.84 254.67 448.58 257.67C448.12 263.29 447.98 269.38 447.39 274.9C446.9 279.41 446.61 287.46 446.04 291.97C445.72 294.5 445.5 297.8 445.18 300.33C444.82 303.22 444.61 305.86 444.34 308.7L441.16 340.91L356.81 256.55L356.87 256.53ZM36.08 159.29C36.08 165.78 35.82 173.17 36.89 179.39C37.4971 182.638 38.6826 185.751 40.39 188.58C41.9684 191.172 43.7613 193.627 45.75 195.92C46.75 197.17 47.61 198.23 48.6 199.55C49.5613 200.779 50.4272 202.079 51.19 203.44C55.1 210.73 53.97 218.76 52.97 228.21L52.08 237.04C51.57 241.04 51.41 244.83 50.98 248.88C50.16 256.58 49.15 264.35 48.77 272.08C48.68 273.86 48.42 275.76 48.26 277.79L46.26 301.47C46.09 303.63 46.16 305.47 45.98 307.67C45.67 311.45 45.23 315.88 45.25 319.89C44.88 336.95 41.12 381.65 52.44 392.97C56.3218 396.851 61.586 399.031 67.075 399.031C72.5639 399.031 77.8282 396.851 81.71 392.97L145.37 329.31C135.66 319.187 127.358 307.801 120.69 295.46L74.88 341.26L73.71 326.79C72.35 316.3 71.78 305.79 70.71 295.44C70.56 293.98 70.49 292.92 70.42 291.51C70.04 284.76 69.11 278.3 68.94 271.58C68.83 267.51 68.15 263.72 68.18 259.63C68.18 257.88 67.94 257.14 67.92 255.63C67.92 252.57 67.73 250.28 67.69 247.14C67.69 245.65 67.42 244.91 67.43 243.14V238.9C67.43 237.2 67.16 236.62 67.17 234.9C67.17 227.67 66.83 220.85 66.92 213.48C67.01 205.93 70.81 201.53 75.32 196.23C77.3054 193.816 79.0284 191.198 80.46 188.42C80.9379 187.444 81.3618 186.442 81.73 185.42C85.25 176.66 84.59 164.99 84.61 155.18C84.61 153.18 84.35 151.93 84.35 150.18C84.35 146.46 84.1 143.5 84.11 139.96L83 120.4C82.53 117.28 82.7 114.06 82.29 110.9C81.29 103.1 80.94 95.21 79.62 87.42C79.4 86.11 79.37 84.02 78.12 83.69C76.84 89.21 76.65 100.05 76.64 106.11C76.64 107.79 76.37 108.88 76.38 110.83C76.38 114.27 76.12 116.83 76.13 120.29L74.9 143.2C74.81 145.99 74.05 154.2 72.4 155.4C71.18 155.07 70.98 153.51 70.76 152.31C70.4803 150.862 70.28 149.4 70.16 147.93C70 145.13 69.66 141.77 69.43 138.93L68.92 120C68.92 116.6 68.67 114 68.67 110.54C68.67 102.54 68.33 95 67.67 87.13C67.6304 86.393 67.53 85.6605 67.37 84.94C67.14 83.87 67.31 83.74 66.17 83.65C64.89 89.14 64.69 100.18 64.68 106.32C64.68 108 64.42 109.08 64.43 111.04V115.78L63.43 136.7C63.14 140.26 62.86 155.36 59.93 155.36C57.86 155.36 57.37 145.99 57.21 143.89C56.75 138.2 56.44 126.17 56.45 120.75C56.45 114.45 56.64 107.83 56.45 101.57L56.21 92.36C56.21 90.89 56.03 89.56 55.95 87.88C55.826 86.4505 55.575 85.035 55.2 83.65H54.45C54.29 84.35 54.13 84.65 53.97 85.4C53.32 88.32 52.2 106.9 52.21 110.54L50.82 138.29C50.05 143.47 50.49 148.66 48.93 153.57C48.6614 154.152 48.4277 154.75 48.23 155.36H47.23C47.0704 154.799 46.8698 154.251 46.63 153.72C46.3922 153.076 46.2376 152.404 46.17 151.72C45.3089 145.924 44.8312 140.078 44.74 134.22C44.8217 132.664 44.7984 131.103 44.67 129.55C44.31 126.89 44.24 105.84 44.24 101.6C44.24 97.08 44.14 87.51 43.24 83.67C42.33 83.91 42.32 84.12 42.01 84.93C39.79 90.8 38.13 111.93 37.76 119.52L37.37 124.11C36.99 126.6 37.14 129.11 37.01 131.48C36.95 132.58 36.77 132.67 36.75 133.96C36.75 134.78 36.75 135.65 36.75 136.47C36.75 137.69 36.52 137.71 36.49 138.94C36.28 145.74 36 152.14 36 159.12L36.08 159.29Z" fill="#384041"/>
<path fill-rule="evenodd" clip-rule="evenodd" d="M327.49 300L258.26 369.23L189 300L184.19 295.18C183.39 294.39 182.61 293.58 181.85 292.77C169.349 279.472 160.553 263.128 156.34 245.37C154.468 237.429 153.522 229.298 153.52 221.14C153.506 195.497 162.932 170.747 180 151.61C170.81 140.034 164.319 126.553 161 112.15C158.94 113.99 156.93 115.9 155 117.87C134.424 138.437 120.45 164.673 114.862 193.224C109.274 221.775 112.327 251.343 123.63 278.15C125.03 281.483 126.557 284.747 128.21 287.94C134.638 300.447 142.84 311.959 152.56 322.12C153.33 322.92 154.12 323.73 154.91 324.52L243.59 413.2C247.472 417.081 252.736 419.261 258.225 419.261C263.714 419.261 268.978 417.081 272.86 413.2L356.72 329.33L327.49 300ZM329.35 144.25C330.35 145.17 331.35 146.12 332.35 147.1C333.8 148.55 335.21 150.1 336.56 151.57C347.745 164.156 355.732 179.252 359.846 195.58C363.959 211.908 364.077 228.987 360.19 245.37L392.89 278.07C404.197 251.277 407.261 221.722 401.689 193.179C396.117 164.637 382.164 138.403 361.61 117.83C359.61 115.83 357.593 113.923 355.56 112.11C352.673 109.53 349.71 107.083 346.67 104.77C334.392 95.4227 320.704 88.0909 306.12 83.05C302.48 81.79 298.813 80.68 295.12 79.72C270.984 73.479 245.656 73.479 221.52 79.72C220.662 82.9466 220.228 86.2713 220.23 89.61C220.225 94.6117 221.207 99.5653 223.12 104.187C225.034 108.808 227.841 113.006 231.38 116.54L234.1 119.25C250.818 115.269 268.259 115.468 284.882 119.828C301.505 124.188 316.798 132.576 329.41 144.25H329.35Z" fill="#FEAA3A"/>
<path fill-rule="evenodd" clip-rule="evenodd" d="M258.26 453C374.36 453 468.49 476.84 468.49 506.25C468.49 535.66 374.36 559.51 258.26 559.51C142.16 559.51 48 535.71 48 506.29C48 476.87 142.16 453 258.26 453ZM258.26 481.9C311.35 481.9 354.38 492.81 354.38 506.25C354.38 519.69 311.38 530.6 258.26 530.6C205.14 530.6 162.14 519.7 162.14 506.25C162.14 492.8 205.14 481.94 258.26 481.94V481.9Z" fill="#384041"/>
<path fill-rule="evenodd" clip-rule="evenodd" d="M364.63 506.24C364.63 491.36 317 479.29 258.24 479.29C199.48 479.29 151.86 491.36 151.86 506.24C151.86 521.12 199.49 533.24 258.24 533.24C316.99 533.24 364.63 521.13 364.63 506.24Z" fill="#FBFBFB"/>
<path d="M16.8266 608.42H5.88264L3.86664 614H0.410645L9.48265 589.052H13.2626L22.2986 614H18.8426L16.8266 608.42ZM15.8906 605.756L11.3546 593.084L6.81865 605.756H15.8906Z" fill="black"/>
<path d="M29.4565 588.908V604.784C29.4565 607.016 29.9965 608.672 31.0765 609.752C32.1805 610.832 33.7045 611.372 35.6485 611.372C37.5685 611.372 39.0685 610.832 40.1485 609.752C41.2525 608.672 41.8045 607.016 41.8045 604.784V588.908H45.0805V604.748C45.0805 606.836 44.6605 608.6 43.8205 610.04C42.9805 611.456 41.8405 612.512 40.4005 613.208C38.9845 613.904 37.3885 614.252 35.6125 614.252C33.8365 614.252 32.2285 613.904 30.7885 613.208C29.3725 612.512 28.2445 611.456 27.4045 610.04C26.5885 608.6 26.1805 606.836 26.1805 604.748V588.908H29.4565Z" fill="black"/>
<path d="M49.3214 601.436C49.3214 598.988 49.8734 596.792 50.9774 594.848C52.0814 592.88 53.5814 591.344 55.4774 590.24C57.3974 589.136 59.5214 588.584 61.8494 588.584C64.5854 588.584 66.9734 589.244 69.0134 590.564C71.0534 591.884 72.5414 593.756 73.4774 596.18H69.5534C68.8574 594.668 67.8494 593.504 66.5294 592.688C65.2334 591.872 63.6734 591.464 61.8494 591.464C60.0974 591.464 58.5254 591.872 57.1334 592.688C55.7414 593.504 54.6494 594.668 53.8574 596.18C53.0654 597.668 52.6694 599.42 52.6694 601.436C52.6694 603.428 53.0654 605.18 53.8574 606.692C54.6494 608.18 55.7414 609.332 57.1334 610.148C58.5254 610.964 60.0974 611.372 61.8494 611.372C63.6734 611.372 65.2334 610.976 66.5294 610.184C67.8494 609.368 68.8574 608.204 69.5534 606.692H73.4774C72.5414 609.092 71.0534 610.952 69.0134 612.272C66.9734 613.568 64.5854 614.216 61.8494 614.216C59.5214 614.216 57.3974 613.676 55.4774 612.596C53.5814 611.492 52.0814 609.968 50.9774 608.024C49.8734 606.08 49.3214 603.884 49.3214 601.436Z" fill="black"/>
<path d="M81.558 588.908V604.784C81.558 607.016 82.098 608.672 83.178 609.752C84.282 610.832 85.806 611.372 87.75 611.372C89.67 611.372 91.17 610.832 92.25 609.752C93.354 608.672 93.906 607.016 93.906 604.784V588.908H97.182V604.748C97.182 606.836 96.762 608.6 95.922 610.04C95.082 611.456 93.942 612.512 92.502 613.208C91.086 613.904 89.49 614.252 87.714 614.252C85.938 614.252 84.33 613.904 82.89 613.208C81.474 612.512 80.346 611.456 79.506 610.04C78.69 608.6 78.282 606.836 78.282 604.748V588.908H81.558Z" fill="black"/>
<path d="M122.375 614H119.099L105.923 594.02V614H102.647V588.872H105.923L119.099 608.816V588.872H122.375V614Z" fill="black"/>
<path d="M140.833 591.572V599.96H149.977V602.66H140.833V611.3H151.057V614H137.557V588.872H151.057V591.572H140.833ZM147.457 583.472L139.789 587.576V585.128L147.457 580.628V583.472Z" fill="black"/>
<path d="M171.458 588.908V591.572H164.618V614H161.342V591.572H154.466V588.908H171.458Z" fill="black"/>
<path d="M190.323 608.42H179.379L177.363 614H173.907L182.979 589.052H186.759L195.795 614H192.339L190.323 608.42ZM189.387 605.756L184.851 593.084L180.315 605.756H189.387Z" fill="black"/>
<path d="M212.313 601.076C213.225 601.22 214.053 601.592 214.797 602.192C215.565 602.792 216.165 603.536 216.597 604.424C217.053 605.312 217.281 606.26 217.281 607.268C217.281 608.54 216.957 609.692 216.309 610.724C215.661 611.732 214.713 612.536 213.465 613.136C212.241 613.712 210.789 614 209.109 614H199.749V588.908H208.749C210.453 588.908 211.905 589.196 213.105 589.772C214.305 590.324 215.205 591.08 215.805 592.04C216.405 593 216.705 594.08 216.705 595.28C216.705 596.768 216.297 598.004 215.481 598.988C214.689 599.948 213.633 600.644 212.313 601.076ZM203.025 599.744H208.533C210.069 599.744 211.257 599.384 212.097 598.664C212.937 597.944 213.357 596.948 213.357 595.676C213.357 594.404 212.937 593.408 212.097 592.688C211.257 591.968 210.045 591.608 208.461 591.608H203.025V599.744ZM208.821 611.3C210.453 611.3 211.725 610.916 212.637 610.148C213.549 609.38 214.005 608.312 214.005 606.944C214.005 605.552 213.525 604.46 212.565 603.668C211.605 602.852 210.321 602.444 208.713 602.444H203.025V611.3H208.821Z" fill="black"/>
<path d="M225.103 611.336H233.887V614H221.827V588.908H225.103V611.336Z" fill="black"/>
<path d="M240.642 588.908V614H237.366V588.908H240.642Z" fill="black"/>
<path d="M254.181 614.252C252.525 614.252 251.037 613.964 249.717 613.388C248.421 612.788 247.401 611.972 246.657 610.94C245.913 609.884 245.529 608.672 245.505 607.304H248.997C249.117 608.48 249.597 609.476 250.437 610.292C251.301 611.084 252.549 611.48 254.181 611.48C255.741 611.48 256.965 611.096 257.853 610.328C258.765 609.536 259.221 608.528 259.221 607.304C259.221 606.344 258.957 605.564 258.429 604.964C257.901 604.364 257.241 603.908 256.449 603.596C255.657 603.284 254.589 602.948 253.245 602.588C251.589 602.156 250.257 601.724 249.249 601.292C248.265 600.86 247.413 600.188 246.693 599.276C245.997 598.34 245.649 597.092 245.649 595.532C245.649 594.164 245.997 592.952 246.693 591.896C247.389 590.84 248.361 590.024 249.609 589.448C250.881 588.872 252.333 588.584 253.965 588.584C256.317 588.584 258.237 589.172 259.725 590.348C261.237 591.524 262.089 593.084 262.281 595.028H258.681C258.561 594.068 258.057 593.228 257.169 592.508C256.281 591.764 255.105 591.392 253.641 591.392C252.273 591.392 251.157 591.752 250.293 592.472C249.429 593.168 248.997 594.152 248.997 595.424C248.997 596.336 249.249 597.08 249.753 597.656C250.281 598.232 250.917 598.676 251.661 598.988C252.429 599.276 253.497 599.612 254.865 599.996C256.521 600.452 257.853 600.908 258.861 601.364C259.869 601.796 260.733 602.48 261.453 603.416C262.173 604.328 262.533 605.576 262.533 607.16C262.533 608.384 262.209 609.536 261.561 610.616C260.913 611.696 259.953 612.572 258.681 613.244C257.409 613.916 255.909 614.252 254.181 614.252Z" fill="black"/>
<path d="M275.31 614.252C273.654 614.252 272.166 613.964 270.846 613.388C269.55 612.788 268.53 611.972 267.786 610.94C267.042 609.884 266.658 608.672 266.634 607.304H270.126C270.246 608.48 270.726 609.476 271.566 610.292C272.43 611.084 273.678 611.48 275.31 611.48C276.87 611.48 278.094 611.096 278.982 610.328C279.894 609.536 280.35 608.528 280.35 607.304C280.35 606.344 280.086 605.564 279.558 604.964C279.03 604.364 278.37 603.908 277.578 603.596C276.786 603.284 275.718 602.948 274.374 602.588C272.718 602.156 271.386 601.724 270.378 601.292C269.394 600.86 268.542 600.188 267.822 599.276C267.126 598.34 266.778 597.092 266.778 595.532C266.778 594.164 267.126 592.952 267.822 591.896C268.518 590.84 269.49 590.024 270.738 589.448C272.01 588.872 273.462 588.584 275.094 588.584C277.446 588.584 279.366 589.172 280.854 590.348C282.366 591.524 283.218 593.084 283.41 595.028H279.81C279.69 594.068 279.186 593.228 278.298 592.508C277.41 591.764 276.234 591.392 274.77 591.392C273.402 591.392 272.286 591.752 271.422 592.472C270.558 593.168 270.126 594.152 270.126 595.424C270.126 596.336 270.378 597.08 270.882 597.656C271.41 598.232 272.046 598.676 272.79 598.988C273.558 599.276 274.626 599.612 275.994 599.996C277.65 600.452 278.982 600.908 279.99 601.364C280.998 601.796 281.862 602.48 282.582 603.416C283.302 604.328 283.662 605.576 283.662 607.16C283.662 608.384 283.338 609.536 282.69 610.616C282.042 611.696 281.082 612.572 279.81 613.244C278.538 613.916 277.038 614.252 275.31 614.252Z" fill="black"/>
<path d="M291.759 591.572V599.96H300.903V602.66H291.759V611.3H301.983V614H288.483V588.872H301.983V591.572H291.759Z" fill="black"/>
<path d="M332.392 589.088V614H329.116V595.424L320.836 614H318.532L310.216 595.388V614H306.94V589.088H310.468L319.684 609.68L328.9 589.088H332.392Z" fill="black"/>
<path d="M341.224 591.572V599.96H350.368V602.66H341.224V611.3H351.448V614H337.948V588.872H351.448V591.572H341.224Z" fill="black"/>
<path d="M376.133 614H372.857L359.681 594.02V614H356.405V588.872H359.681L372.857 608.816V588.872H376.133V614Z" fill="black"/>
<path d="M397.161 588.908V591.572H390.321V614H387.045V591.572H380.169V588.908H397.161Z" fill="black"/>
<path d="M426.236 588.908V591.572H419.396V614H416.12V591.572H409.244V588.908H426.236Z" fill="black"/>
<path d="M443.48 614L437.504 603.74H433.544V614H430.268V588.908H438.368C440.264 588.908 441.86 589.232 443.156 589.88C444.476 590.528 445.46 591.404 446.108 592.508C446.756 593.612 447.08 594.872 447.08 596.288C447.08 598.016 446.576 599.54 445.568 600.86C444.584 602.18 443.096 603.056 441.104 603.488L447.404 614H443.48ZM433.544 601.112H438.368C440.144 601.112 441.476 600.68 442.364 599.816C443.252 598.928 443.696 597.752 443.696 596.288C443.696 594.8 443.252 593.648 442.364 592.832C441.5 592.016 440.168 591.608 438.368 591.608H433.544V601.112Z" fill="black"/>
<path d="M463.546 614.252C461.218 614.252 459.094 613.712 457.174 612.632C455.254 611.528 453.73 610.004 452.602 608.06C451.498 606.092 450.946 603.884 450.946 601.436C450.946 598.988 451.498 596.792 452.602 594.848C453.73 592.88 455.254 591.356 457.174 590.276C459.094 589.172 461.218 588.62 463.546 588.62C465.898 588.62 468.034 589.172 469.954 590.276C471.874 591.356 473.386 592.868 474.49 594.812C475.594 596.756 476.146 598.964 476.146 601.436C476.146 603.908 475.594 606.116 474.49 608.06C473.386 610.004 471.874 611.528 469.954 612.632C468.034 613.712 465.898 614.252 463.546 614.252ZM463.546 611.408C465.298 611.408 466.87 611 468.262 610.184C469.678 609.368 470.782 608.204 471.574 606.692C472.39 605.18 472.798 603.428 472.798 601.436C472.798 599.42 472.39 597.668 471.574 596.18C470.782 594.668 469.69 593.504 468.298 592.688C466.906 591.872 465.322 591.464 463.546 591.464C461.77 591.464 460.186 591.872 458.794 592.688C457.402 593.504 456.298 594.668 455.482 596.18C454.69 597.668 454.294 599.42 454.294 601.436C454.294 603.428 454.69 605.18 455.482 606.692C456.298 608.204 457.402 609.368 458.794 610.184C460.21 611 461.794 611.408 463.546 611.408Z" fill="black"/>
<path d="M483.675 588.908V604.784C483.675 607.016 484.215 608.672 485.295 609.752C486.399 610.832 487.923 611.372 489.867 611.372C491.787 611.372 493.287 610.832 494.367 609.752C495.471 608.672 496.023 607.016 496.023 604.784V588.908H499.299V604.748C499.299 606.836 498.879 608.6 498.039 610.04C497.199 611.456 496.059 612.512 494.619 613.208C493.203 613.904 491.607 614.252 489.831 614.252C488.055 614.252 486.447 613.904 485.007 613.208C483.591 612.512 482.463 611.456 481.623 610.04C480.807 608.6 480.399 606.836 480.399 604.748V588.908H483.675Z" fill="black"/>
<path d="M525.5 588.908L516.032 614H512.252L502.784 588.908H506.276L514.16 610.544L522.044 588.908H525.5Z" fill="black"/>
<path d="M532.368 591.572V599.96H541.512V602.66H532.368V611.3H542.592V614H529.092V588.872H542.592V591.572H532.368ZM538.992 583.472L531.324 587.576V585.128L538.992 580.628V583.472Z" fill="black"/>
</svg>
