<svg xmlns="http://www.w3.org/2000/svg" viewBox="0 0 3476.3 2643.9"><defs><style>.cls-1{fill-rule:evenodd;}</style></defs><g id="Calque_2" data-name="Calque 2"><g id="Layer_1" data-name="Layer 1"><g id="Layer_1-2" data-name="Layer_1"><g id="_566031800" data-name=" 566031800"><path id="_566033288" data-name=" 566033288" class="cls-1" d="M138.6,79.6a59.11,59.11,0,0,0-59,59V2505.2a59.11,59.11,0,0,0,59,59h3199a59.43,59.43,0,0,0,59.2-59.1V138.6a59.11,59.11,0,0,0-59-59ZM3337.5,2643.9H138.6C62.2,2643.9,0,2581.7,0,2505.3V138.6C0,62.2,62.2,0,138.6,0H3337.7c76.4,0,138.6,62.2,138.6,138.6V2505.2c-.2,76.4-62.4,138.7-138.8,138.7Z"/><path id="_566033480" data-name=" 566033480" class="cls-1" d="M1000.2,533.1c-217.9,0-395.3,177.3-395.3,395.3s177.3,395.2,395.2,395.2,395.2-177.3,395.2-395.2c.2-218-177.2-395.3-395.1-395.3Zm0,870.2c-261.8,0-474.9-213-474.9-474.9s213.1-474.9,474.9-474.9,474.9,213.1,474.9,474.9-213,474.9-474.9,474.9Z"/><path id="_566033384" data-name=" 566033384" class="cls-1" d="M1000.2,350.2C681.3,350.2,422,609.6,422,928.4s259.3,578.2,578.2,578.2,578.2-259.4,578.2-578.2-259.3-578.2-578.2-578.2Zm0,1236c-362.7,0-657.8-295.1-657.8-657.8s295.1-657.8,657.8-657.8,657.9,295.1,657.9,657.8S1362.9,1586.3,1000.2,1586.2Z"/><path id="_566033432" data-name=" 566033432" class="cls-1" d="M1435.2,968.2h-435a39.78,39.78,0,0,1-39.8-39.8v-435a39.8,39.8,0,1,1,79.6,0V888.6h395.2a39.8,39.8,0,0,1,0,79.6Z"/><path id="_566032736" data-name=" 566032736" class="cls-1" d="M692.5,1275.8a39.8,39.8,0,0,1-28.1-68L972,900.2a39.77,39.77,0,1,1,56.2,56.3L720.6,1264.1a39.19,39.19,0,0,1-28.1,11.7Z"/><path id="_566032424" data-name=" 566032424" class="cls-1" d="M1833.6,2373.3a39.78,39.78,0,0,1-39.8-39.8V2049.2H1660.4v284.3a39.8,39.8,0,0,1-79.6,0V2030a60.45,60.45,0,0,1,60.3-60.4H1813a60.39,60.39,0,0,1,60.3,60.4v303.5a39.69,39.69,0,0,1-39.7,39.8Z"/><path id="_566032640" data-name=" 566032640" class="cls-1" d="M2217.8,2373.3a39.78,39.78,0,0,1-39.8-39.8V1833.9H2044.7v499.6a39.8,39.8,0,1,1-79.6,0V1814.7a60.39,60.39,0,0,1,60.3-60.4h171.9a60.47,60.47,0,0,1,60.4,60.4v518.8a39.86,39.86,0,0,1-39.9,39.8Z"/><path id="_566032400" data-name=" 566032400" class="cls-1" d="M2602,2373.3a39.78,39.78,0,0,1-39.8-39.8v-393H2428.8v393a39.8,39.8,0,0,1-79.6,0V1921.2a60.47,60.47,0,0,1,60.4-60.4h171.9a60.39,60.39,0,0,1,60.3,60.4v412.3a39.71,39.71,0,0,1-39.8,39.8Z"/><path id="_566032472" data-name=" 566032472" class="cls-1" d="M2986.3,2373.3a39.78,39.78,0,0,1-39.8-39.8V1725.2H2813.2v608.3a39.75,39.75,0,1,1-79.5,0V1705.9a60.41,60.41,0,0,1,60.4-60.4H2966a60.39,60.39,0,0,1,60.3,60.4v627.5a40,40,0,0,1-40,39.9Z"/><path id="_566032376" data-name=" 566032376" class="cls-1" d="M3093.9,2373.3h-1581a39.8,39.8,0,0,1,0-79.6h1581a39.8,39.8,0,0,1,0,79.6Z"/><path id="_566032520" data-name=" 566032520" class="cls-1" d="M382.1,2093.1a39.58,39.58,0,0,1-28.1-11.7,40.18,40.18,0,0,1-11.7-28.1,33.09,33.09,0,0,1,.9-7.7,43,43,0,0,1,2.3-7.5,37.78,37.78,0,0,1,3.6-6.9,40.93,40.93,0,0,1,4.9-6.1,39.71,39.71,0,0,1,56.3,0,40.93,40.93,0,0,1,4.9,6.1,28.29,28.29,0,0,1,3.6,6.9,38.32,38.32,0,0,1,2.3,7.5,37.94,37.94,0,0,1,0,15.5,43,43,0,0,1-2.3,7.5,37.78,37.78,0,0,1-3.6,6.9,35.65,35.65,0,0,1-4.9,6,39.88,39.88,0,0,1-28.2,11.6Z"/><path id="_566032208" data-name=" 566032208" class="cls-1" d="M1116.5,2093.1H544.1a39.8,39.8,0,0,1,0-79.6h572.5a39.8,39.8,0,1,1-.1,79.6Z"/><path id="_566032136" data-name=" 566032136" class="cls-1" d="M382.1,2373.3a28.94,28.94,0,0,1-7.7-.9,53.12,53.12,0,0,1-7.5-2.2,56.39,56.39,0,0,1-6.9-3.6,32.51,32.51,0,0,1-6.1-5,40.13,40.13,0,0,1-4.9-6,37.78,37.78,0,0,1-3.6-6.9,38.32,38.32,0,0,1-2.3-7.5,34.38,34.38,0,0,1-.9-7.7,33.94,33.94,0,0,1,.9-7.8,40.53,40.53,0,0,1,2.3-7.5,37.78,37.78,0,0,1,3.6-6.9,36.07,36.07,0,0,1,11-11,32.25,32.25,0,0,1,6.9-3.6,46.59,46.59,0,0,1,7.5-2.3,39.42,39.42,0,0,1,23,2.3,37.78,37.78,0,0,1,6.9,3.6,36.07,36.07,0,0,1,11,11,30.23,30.23,0,0,1,3.6,6.9,38.32,38.32,0,0,1,2.3,7.5,37.94,37.94,0,0,1,0,15.5,43,43,0,0,1-2.3,7.5,37.78,37.78,0,0,1-3.6,6.9,35.65,35.65,0,0,1-4.9,6,36.94,36.94,0,0,1-6.1,5,50,50,0,0,1-6.9,3.6,46.35,46.35,0,0,1-7.5,2.2A33.94,33.94,0,0,1,382.1,2373.3Z"/><path id="_566032352" data-name=" 566032352" class="cls-1" d="M1116.5,2373.3H544.1a39.8,39.8,0,1,1,0-79.6h572.5a39.8,39.8,0,1,1-.1,79.6Z"/><path id="_566031416" data-name=" 566031416" class="cls-1" d="M2359.6,407.9a33.87,33.87,0,0,1-7.8-.8,43,43,0,0,1-7.5-2.3,41.33,41.33,0,0,1-6.9-3.6,36.39,36.39,0,0,1-6.1-4.9,40.31,40.31,0,0,1-11.6-28.2,33.58,33.58,0,0,1,.8-7.7,40.53,40.53,0,0,1,2.3-7.5,37.78,37.78,0,0,1,3.6-6.9,48.46,48.46,0,0,1,4.9-6.1,41.61,41.61,0,0,1,6.1-5,41,41,0,0,1,6.9-3.6,46.35,46.35,0,0,1,7.5-2.2,40.07,40.07,0,0,1,35.9,10.9,40.93,40.93,0,0,1,4.9,6.1,28.29,28.29,0,0,1,3.6,6.9,32.56,32.56,0,0,1,2.3,7.5,33.82,33.82,0,0,1,0,15.5,43,43,0,0,1-2.3,7.5,37.78,37.78,0,0,1-3.6,6.9,40.93,40.93,0,0,1-4.9,6.1,36.39,36.39,0,0,1-6.1,4.9,32.25,32.25,0,0,1-6.9,3.6,35.42,35.42,0,0,1-15.1,2.9Z"/><path id="_566032064" data-name=" 566032064" class="cls-1" d="M3094,408H2521.5a39.8,39.8,0,0,1,0-79.6H3094a39.8,39.8,0,1,1,0,79.6Z"/><path id="_566031728" data-name=" 566031728" class="cls-1" d="M2359.6,688.1a33.87,33.87,0,0,1-7.8-.8,53.12,53.12,0,0,1-7.5-2.2,64.72,64.72,0,0,1-6.9-3.6,36.94,36.94,0,0,1-6.1-5,40.13,40.13,0,0,1-4.9-6,37.78,37.78,0,0,1-3.6-6.9,38.32,38.32,0,0,1-2.3-7.5,33.58,33.58,0,0,1-.8-7.7,39.9,39.9,0,0,1,11.6-28.1,41.61,41.61,0,0,1,6.1-5,34.8,34.8,0,0,1,6.9-3.6,59.44,59.44,0,0,1,7.5-2.3,40.42,40.42,0,0,1,15.5,0,53.71,53.71,0,0,1,7.5,2.3,41,41,0,0,1,6.9,3.6,32.51,32.51,0,0,1,6.1,5,35.65,35.65,0,0,1,4.9,6,30.23,30.23,0,0,1,3.6,6.9,32.56,32.56,0,0,1,2.3,7.5,33.82,33.82,0,0,1,0,15.5,43,43,0,0,1-2.3,7.5,37.78,37.78,0,0,1-3.6,6.9,40.13,40.13,0,0,1-4.9,6,41.29,41.29,0,0,1-28.2,11.5Z"/><path id="_566031968" data-name=" 566031968" class="cls-1" d="M3094,688.1H2521.5a39.8,39.8,0,0,1,0-79.6H3094a39.8,39.8,0,1,1,0,79.6Z"/><path id="_566031824" data-name=" 566031824" class="cls-1" d="M2359.6,968.2a33.87,33.87,0,0,1-7.8-.8,43,43,0,0,1-7.5-2.3,41.33,41.33,0,0,1-6.9-3.6,32.51,32.51,0,0,1-6.1-5,39.83,39.83,0,0,1,0-56.2,49.19,49.19,0,0,1,6.1-5,41,41,0,0,1,6.9-3.6,59.44,59.44,0,0,1,7.5-2.3,40.41,40.41,0,0,1,35.9,11,40.93,40.93,0,0,1,4.9,6.1,28.29,28.29,0,0,1,3.6,6.9,32.56,32.56,0,0,1,2.3,7.5,33.82,33.82,0,0,1,0,15.5,43,43,0,0,1-2.3,7.5,37.78,37.78,0,0,1-3.6,6.9,40.13,40.13,0,0,1-4.9,6,40.76,40.76,0,0,1-28.1,11.4Z"/><path id="_566031704" data-name=" 566031704" class="cls-1" d="M3094,968.2H2521.5a39.8,39.8,0,0,1,0-79.6H3094a39.8,39.8,0,1,1,0,79.6Z"/><path id="_566031536" data-name=" 566031536" class="cls-1" d="M1727.1,1833.9a39.36,39.36,0,0,1-28.1-11.7,39.9,39.9,0,0,1,0-56.3l380.1-380.2a39.93,39.93,0,0,1,49.1-5.8l363.7,224.9L2854,1297.2a39.8,39.8,0,1,1,51.5,60.7l-384.3,326.5a39.73,39.73,0,0,1-46.7,3.5l-361.4-223.5-358,357.9a39.44,39.44,0,0,1-28,11.6Z"/></g></g></g></g></svg>