<svg width="496" height="353" viewBox="0 0 496 353" fill="none" xmlns="http://www.w3.org/2000/svg">
<g clip-path="url(#clip0_31_101)">
<path d="M247.68 145.11C281.16 107.11 291.38 67.44 293.56 57.25C294.319 54.307 294.745 51.2881 294.83 48.25C294.83 21.59 273.72 -0.0299988 247.68 -0.0299988C221.64 -0.0299988 200.53 21.59 200.53 48.25C200.613 51.2883 201.039 54.3074 201.8 57.25C203.97 67.4 214.18 107.13 247.68 145.11ZM247.68 22.47C261.77 22.47 273.19 34.17 273.19 48.59C273.19 63.01 261.77 74.71 247.68 74.71C233.59 74.71 222.18 63.02 222.18 48.59C222.18 34.16 233.59 22.47 247.68 22.47Z" fill="white"/>
<path d="M306.98 60.23C305.12 69.57 293.13 121.14 247.98 167.5C245.313 164.753 242.753 161.993 240.3 159.22C197.14 110.29 188.72 58.7 188.72 58.7C188.72 58.7 179.51 94.26 201.27 129.32C214.02 147.5 228.9 162.64 241.53 173.88C236.963 178.22 232.077 182.473 226.87 186.64C219.25 180.09 204.58 180.93 191.53 189.33C176.53 198.95 169.39 214.87 175.53 224.88C178.28 229.37 183.27 231.88 189.27 232.45H189.34C196.68 233.11 205.51 230.83 213.72 225.56C227.09 216.95 234.21 203.35 231.21 193.41C231.21 192.92 231.21 192.62 231.21 192.56C235.09 189.79 240.99 185.36 248 179.47C255 185.36 260.91 189.79 264.78 192.56C264.78 192.99 263.98 206.36 271.91 212.02C279.84 217.68 306.69 232.49 306.69 232.49L308.22 230.11L278.76 210.34C278.34 210.046 278.048 209.602 277.946 209.1C277.843 208.597 277.938 208.075 278.21 207.64C278.343 207.427 278.517 207.243 278.723 207.1C278.928 206.956 279.161 206.854 279.406 206.802C279.652 206.75 279.905 206.748 280.151 206.795C280.398 206.843 280.632 206.94 280.84 207.08L310.3 226.85L312.83 222.9L283.37 203.13C282.95 202.836 282.658 202.392 282.556 201.89C282.453 201.387 282.548 200.865 282.82 200.43C282.953 200.216 283.128 200.031 283.334 199.886C283.54 199.741 283.774 199.639 284.021 199.587C284.267 199.535 284.522 199.533 284.769 199.582C285.016 199.63 285.251 199.728 285.46 199.87L314.92 219.63L317.45 215.68L287.99 195.91C287.571 195.618 287.279 195.177 287.175 194.676C287.071 194.176 287.162 193.655 287.43 193.22C287.563 193.006 287.738 192.821 287.944 192.676C288.15 192.531 288.383 192.429 288.629 192.376C288.875 192.323 289.13 192.32 289.377 192.367C289.625 192.414 289.86 192.51 290.07 192.65L319.53 212.42L321.06 210.03C321.06 210.03 297.2 190.8 288.85 185.57C281.58 181.01 271.55 185.57 269.13 186.68C263.92 182.51 259.05 178.23 254.47 173.89C268.293 161.704 280.82 148.122 291.85 133.36C292.46 132.17 293.14 130.91 294.03 129.5C313.22 98.67 308.44 67.41 306.98 60.23Z" fill="white"/>
<path d="M335.17 92.05C346.71 74.95 332.51 59.15 332.51 59.15C322.57 84.42 335.17 92.05 335.17 92.05Z" fill="#F6941D"/>
<path d="M312.39 121C306.2 130.37 305.39 137.79 306.31 143.15C306.92 146.972 308.71 150.507 311.43 153.26C312.59 153.85 330.43 162.39 344.35 136.19C344.35 136.19 325.35 137.55 316.06 145.8C316.72 143.683 317.057 141.478 317.06 139.26C317.34 129.8 312.39 121 312.39 121Z" fill="#F6941D"/>
<path d="M294.2 145.01C283.78 158.72 290.69 169.3 290.69 169.3H290.75C290.75 169.3 301.12 184.67 327.04 164.57C327.04 164.57 307.45 159.42 296.65 164.03C300.98 158.03 301.65 149.97 301.44 144.4C301.378 142.268 301.171 140.143 300.82 138.04C298.378 140.128 296.159 142.464 294.2 145.01Z" fill="#F6941D"/>
<path d="M333 102.17C332.61 90.5 321.14 81.1 321.14 81.1C317.14 104.45 331.09 109.57 331.55 109.73C334.769 109.943 337.984 109.25 340.83 107.73C346.49 104.83 353.21 97.98 356.24 82.01C351.496 84.1588 347.024 86.8644 342.92 90.07C338.85 93.27 335.01 97.36 333 102.17Z" fill="#F6941D"/>
<path d="M327.85 124.12C328.19 112.38 318.01 101.27 318.01 101.27C310.21 124.65 324.72 132.65 325.25 132.93C329.923 133.174 334.537 131.804 338.32 129.05C343.2 125.68 348.32 119.48 351.46 107.99C347.554 109.705 343.766 111.676 340.12 113.89C335.58 116.7 330.77 120.24 327.85 124.12Z" fill="#F6941D"/>
<path d="M160.19 92.05C160.19 92.05 172.79 84.42 162.85 59.15C162.85 59.15 148.66 74.95 160.19 92.05Z" fill="#F6941D"/>
<path d="M182.97 121C182.97 121 177.97 129.8 178.2 139.29C178.208 141.507 178.545 143.712 179.2 145.83C169.91 137.58 150.91 136.22 150.91 136.22C164.8 162.42 182.68 153.88 183.83 153.29H183.88C186.603 150.539 188.394 147.003 189 143.18C190.01 137.79 189.16 130.37 182.97 121Z" fill="#F6941D"/>
<path d="M194.58 138.05C194.228 140.154 194.018 142.278 193.95 144.41C193.76 149.98 194.42 158.06 198.74 164.04C187.95 159.43 168.36 164.58 168.36 164.58C194.27 184.68 204.64 169.31 204.64 169.31C204.64 169.31 211.56 158.73 201.13 145.02C199.193 142.477 196.998 140.141 194.58 138.05Z" fill="#F6941D"/>
<path d="M163.85 109.77C164.31 109.61 178.27 104.49 174.26 81.14C174.26 81.14 162.79 90.54 162.41 102.21C160.41 97.4 156.53 93.31 152.48 90.1C148.378 86.8957 143.91 84.1901 139.17 82.04C142.17 98.04 148.91 104.86 154.57 107.76C157.415 109.283 160.63 109.98 163.85 109.77Z" fill="#F6941D"/>
<path d="M170.13 132.98C170.65 132.7 185.13 124.7 177.36 101.32C177.36 101.32 167.18 112.43 167.52 124.17C164.58 120.29 159.78 116.75 155.26 113.99C151.613 111.778 147.825 109.807 143.92 108.09C147.07 119.58 152.18 125.78 157.05 129.15C160.842 131.888 165.46 133.241 170.13 132.98Z" fill="#F6941D"/>
<path d="M153.45 249.069V245.105H181.121V249.069H169.519V282H165.052V249.069H153.45Z" fill="#F6941D"/>
<path d="M217.61 263.553C217.61 267.444 216.907 270.807 215.502 273.641C214.097 276.475 212.17 278.661 209.72 280.199C207.27 281.736 204.471 282.504 201.325 282.504C198.178 282.504 195.38 281.736 192.93 280.199C190.48 278.661 188.552 276.475 187.147 273.641C185.742 270.807 185.039 267.444 185.039 263.553C185.039 259.661 185.742 256.299 187.147 253.464C188.552 250.63 190.48 248.444 192.93 246.907C195.38 245.37 198.178 244.601 201.325 244.601C204.471 244.601 207.27 245.37 209.72 246.907C212.17 248.444 214.097 250.63 215.502 253.464C216.907 256.299 217.61 259.661 217.61 263.553ZM213.286 263.553C213.286 260.358 212.752 257.662 211.683 255.464C210.626 253.266 209.191 251.603 207.378 250.474C205.576 249.345 203.558 248.78 201.325 248.78C199.091 248.78 197.067 249.345 195.254 250.474C193.452 251.603 192.017 253.266 190.948 255.464C189.891 257.662 189.363 260.358 189.363 263.553C189.363 266.747 189.891 269.444 190.948 271.641C192.017 273.839 193.452 275.503 195.254 276.632C197.067 277.76 199.091 278.325 201.325 278.325C203.558 278.325 205.576 277.76 207.378 276.632C209.191 275.503 210.626 273.839 211.683 271.641C212.752 269.444 213.286 266.747 213.286 263.553Z" fill="#F6941D"/>
<path d="M225.122 282V245.105H229.59V278.037H246.74V282H225.122Z" fill="#F6941D"/>
<path d="M258.126 245.105V282H253.658V245.105H258.126Z" fill="#F6941D"/>
<path d="M296.34 245.105V282H292.016L271.912 253.032H271.551V282H267.084V245.105H271.407L291.584 274.145H291.944V245.105H296.34Z" fill="#F6941D"/>
<path d="M305.28 282V245.105H309.747V263.409H310.18L326.753 245.105H332.59L317.097 261.751L332.59 282H327.186L314.359 264.85L309.747 270.038V282H305.28Z" fill="#F6941D"/>
<path d="M153.45 249.069V245.105H181.121V249.069H169.519V282H165.052V249.069H153.45Z" stroke="black"/>
<path d="M217.61 263.553C217.61 267.444 216.907 270.807 215.502 273.641C214.097 276.475 212.17 278.661 209.72 280.199C207.27 281.736 204.471 282.504 201.325 282.504C198.178 282.504 195.38 281.736 192.93 280.199C190.48 278.661 188.552 276.475 187.147 273.641C185.742 270.807 185.039 267.444 185.039 263.553C185.039 259.661 185.742 256.299 187.147 253.464C188.552 250.63 190.48 248.444 192.93 246.907C195.38 245.37 198.178 244.601 201.325 244.601C204.471 244.601 207.27 245.37 209.72 246.907C212.17 248.444 214.097 250.63 215.502 253.464C216.907 256.299 217.61 259.661 217.61 263.553ZM213.286 263.553C213.286 260.358 212.752 257.662 211.683 255.464C210.626 253.266 209.191 251.603 207.378 250.474C205.576 249.345 203.558 248.78 201.325 248.78C199.091 248.78 197.067 249.345 195.254 250.474C193.452 251.603 192.017 253.266 190.948 255.464C189.891 257.662 189.363 260.358 189.363 263.553C189.363 266.747 189.891 269.444 190.948 271.641C192.017 273.839 193.452 275.503 195.254 276.632C197.067 277.76 199.091 278.325 201.325 278.325C203.558 278.325 205.576 277.76 207.378 276.632C209.191 275.503 210.626 273.839 211.683 271.641C212.752 269.444 213.286 266.747 213.286 263.553Z" stroke="black"/>
<path d="M225.122 282V245.105H229.59V278.037H246.74V282H225.122Z" stroke="black"/>
<path d="M258.126 245.105V282H253.658V245.105H258.126Z" stroke="black"/>
<path d="M296.34 245.105V282H292.016L271.912 253.032H271.551V282H267.084V245.105H271.407L291.584 274.145H291.944V245.105H296.34Z" stroke="black"/>
<path d="M305.28 282V245.105H309.747V263.409H310.18L326.753 245.105H332.59L317.097 261.751L332.59 282H327.186L314.359 264.85L309.747 270.038V282H305.28Z" stroke="black"/>
<path d="M70.6004 303.622L79.0251 327.51H79.3577L87.7825 303.622H91.3852L80.9651 332H77.4178L66.9977 303.622H70.6004ZM102.027 332.443C100.106 332.443 98.4197 331.986 96.9694 331.072C95.5283 330.157 94.4013 328.878 93.5884 327.233C92.7847 325.589 92.3828 323.668 92.3828 321.469C92.3828 319.252 92.7847 317.317 93.5884 315.663C94.4013 314.01 95.5283 312.726 96.9694 311.811C98.4197 310.896 100.106 310.439 102.027 310.439C103.948 310.439 105.63 310.896 107.071 311.811C108.521 312.726 109.648 314.01 110.452 315.663C111.265 317.317 111.671 319.252 111.671 321.469C111.671 323.668 111.265 325.589 110.452 327.233C109.648 328.878 108.521 330.157 107.071 331.072C105.63 331.986 103.948 332.443 102.027 332.443ZM102.027 329.506C103.487 329.506 104.687 329.132 105.63 328.383C106.572 327.635 107.269 326.651 107.722 325.432C108.175 324.213 108.401 322.892 108.401 321.469C108.401 320.046 108.175 318.721 107.722 317.492C107.269 316.264 106.572 315.271 105.63 314.513C104.687 313.756 103.487 313.377 102.027 313.377C100.567 313.377 99.3665 313.756 98.4243 314.513C97.482 315.271 96.7846 316.264 96.332 317.492C95.8793 318.721 95.653 320.046 95.653 321.469C95.653 322.892 95.8793 324.213 96.332 325.432C96.7846 326.651 97.482 327.635 98.4243 328.383C99.3665 329.132 100.567 329.506 102.027 329.506ZM125.919 310.716V313.488H114.889V310.716H125.919ZM118.104 305.617H121.374V325.903C121.374 326.827 121.508 327.52 121.776 327.982C122.053 328.434 122.404 328.739 122.829 328.896C123.263 329.044 123.721 329.118 124.201 329.118C124.561 329.118 124.857 329.099 125.088 329.062C125.319 329.016 125.503 328.979 125.642 328.952L126.307 331.889C126.085 331.972 125.776 332.055 125.379 332.139C124.981 332.231 124.478 332.277 123.868 332.277C122.945 332.277 122.039 332.079 121.152 331.681C120.275 331.284 119.545 330.679 118.963 329.866C118.39 329.053 118.104 328.028 118.104 326.79V305.617ZM130.838 332V310.716H133.997V313.931H134.219C134.607 312.878 135.309 312.023 136.325 311.368C137.342 310.712 138.487 310.384 139.762 310.384C140.002 310.384 140.302 310.388 140.662 310.398C141.023 310.407 141.295 310.421 141.48 310.439V313.765C141.369 313.737 141.115 313.696 140.718 313.64C140.33 313.575 139.919 313.543 139.485 313.543C138.45 313.543 137.526 313.76 136.713 314.194C135.91 314.619 135.272 315.21 134.801 315.968C134.339 316.716 134.108 317.571 134.108 318.531V332H130.838ZM153.632 332.443C151.581 332.443 149.812 331.991 148.325 331.085C146.847 330.171 145.706 328.896 144.903 327.261C144.108 325.617 143.711 323.705 143.711 321.524C143.711 319.344 144.108 317.423 144.903 315.76C145.706 314.088 146.824 312.786 148.256 311.853C149.697 310.91 151.378 310.439 153.3 310.439C154.408 310.439 155.503 310.624 156.584 310.993C157.664 311.363 158.648 311.963 159.535 312.795C160.422 313.617 161.129 314.707 161.655 316.065C162.182 317.423 162.445 319.095 162.445 321.081V322.467H146.039V319.64H159.119C159.119 318.439 158.879 317.367 158.399 316.425C157.928 315.483 157.253 314.739 156.376 314.194C155.507 313.649 154.482 313.377 153.3 313.377C151.997 313.377 150.87 313.7 149.919 314.347C148.976 314.984 148.251 315.816 147.743 316.841C147.235 317.866 146.981 318.966 146.981 320.139V322.023C146.981 323.631 147.258 324.993 147.812 326.111C148.376 327.219 149.157 328.065 150.154 328.647C151.152 329.219 152.311 329.506 153.632 329.506C154.491 329.506 155.267 329.386 155.96 329.146C156.662 328.896 157.267 328.527 157.775 328.037C158.283 327.538 158.676 326.919 158.953 326.18L162.112 327.067C161.78 328.139 161.221 329.081 160.436 329.894C159.651 330.697 158.681 331.326 157.526 331.778C156.371 332.222 155.073 332.443 153.632 332.443ZM186.985 340.425C185.405 340.425 184.047 340.222 182.911 339.815C181.775 339.418 180.828 338.891 180.07 338.235C179.322 337.589 178.726 336.896 178.283 336.157L180.888 334.328C181.184 334.716 181.558 335.159 182.01 335.658C182.463 336.166 183.082 336.605 183.867 336.974C184.662 337.353 185.701 337.543 186.985 337.543C188.703 337.543 190.121 337.127 191.239 336.296C192.357 335.464 192.915 334.162 192.915 332.388V328.065H192.638C192.398 328.453 192.056 328.933 191.613 329.506C191.179 330.069 190.551 330.573 189.728 331.016C188.916 331.45 187.816 331.667 186.431 331.667C184.712 331.667 183.17 331.261 181.803 330.448C180.445 329.635 179.368 328.453 178.574 326.901C177.789 325.349 177.396 323.464 177.396 321.247C177.396 319.067 177.78 317.169 178.546 315.552C179.313 313.926 180.38 312.67 181.747 311.783C183.114 310.887 184.694 310.439 186.486 310.439C187.872 310.439 188.971 310.67 189.784 311.132C190.606 311.585 191.234 312.102 191.668 312.684C192.112 313.257 192.454 313.728 192.694 314.097H193.026V310.716H196.186V332.61C196.186 334.439 195.77 335.926 194.939 337.071C194.116 338.226 193.008 339.071 191.613 339.607C190.227 340.152 188.685 340.425 186.985 340.425ZM186.874 328.73C188.186 328.73 189.294 328.43 190.2 327.829C191.105 327.229 191.793 326.365 192.264 325.238C192.735 324.111 192.971 322.762 192.971 321.192C192.971 319.658 192.74 318.305 192.278 317.132C191.816 315.959 191.133 315.04 190.227 314.374C189.322 313.709 188.204 313.377 186.874 313.377C185.488 313.377 184.334 313.728 183.41 314.43C182.495 315.132 181.807 316.074 181.345 317.257C180.893 318.439 180.666 319.751 180.666 321.192C180.666 322.67 180.897 323.977 181.359 325.113C181.83 326.24 182.523 327.127 183.438 327.774C184.361 328.411 185.507 328.73 186.874 328.73ZM215.585 323.298V310.716H218.855V332H215.585V328.397H215.363C214.864 329.478 214.088 330.397 213.035 331.155C211.982 331.903 210.652 332.277 209.044 332.277C207.714 332.277 206.532 331.986 205.497 331.404C204.463 330.813 203.65 329.926 203.058 328.744C202.467 327.552 202.172 326.051 202.172 324.24V310.716H205.442V324.019C205.442 325.571 205.876 326.808 206.744 327.732C207.622 328.656 208.74 329.118 210.098 329.118C210.91 329.118 211.737 328.91 212.578 328.494C213.428 328.079 214.139 327.441 214.712 326.582C215.294 325.723 215.585 324.628 215.585 323.298ZM224.844 332V310.716H228.115V332H224.844ZM226.507 307.169C225.87 307.169 225.32 306.952 224.858 306.518C224.406 306.084 224.179 305.562 224.179 304.952C224.179 304.342 224.406 303.82 224.858 303.386C225.32 302.952 225.87 302.735 226.507 302.735C227.145 302.735 227.69 302.952 228.142 303.386C228.604 303.82 228.835 304.342 228.835 304.952C228.835 305.562 228.604 306.084 228.142 306.518C227.69 306.952 227.145 307.169 226.507 307.169ZM242.141 332.443C240.367 332.443 238.801 331.995 237.443 331.099C236.085 330.194 235.023 328.919 234.256 327.275C233.49 325.621 233.106 323.668 233.106 321.414C233.106 319.178 233.49 317.238 234.256 315.594C235.023 313.95 236.09 312.679 237.457 311.783C238.824 310.887 240.404 310.439 242.196 310.439C243.582 310.439 244.677 310.67 245.48 311.132C246.293 311.585 246.912 312.102 247.337 312.684C247.771 313.257 248.108 313.728 248.349 314.097H248.626V303.622H251.896V332H248.737V328.73H248.349C248.108 329.118 247.767 329.607 247.323 330.199C246.88 330.781 246.247 331.303 245.425 331.764C244.603 332.217 243.508 332.443 242.141 332.443ZM242.584 329.506C243.896 329.506 245.004 329.164 245.91 328.48C246.815 327.788 247.503 326.832 247.974 325.612C248.446 324.384 248.681 322.966 248.681 321.358C248.681 319.769 248.45 318.379 247.988 317.187C247.526 315.986 246.843 315.053 245.937 314.388C245.032 313.714 243.914 313.377 242.584 313.377C241.199 313.377 240.044 313.732 239.12 314.444C238.206 315.146 237.517 316.102 237.055 317.312C236.603 318.513 236.376 319.862 236.376 321.358C236.376 322.873 236.607 324.25 237.069 325.487C237.54 326.716 238.233 327.695 239.148 328.425C240.072 329.146 241.217 329.506 242.584 329.506ZM267.263 332.443C265.212 332.443 263.443 331.991 261.956 331.085C260.478 330.171 259.337 328.896 258.533 327.261C257.739 325.617 257.341 323.705 257.341 321.524C257.341 319.344 257.739 317.423 258.533 315.76C259.337 314.088 260.455 312.786 261.886 311.853C263.327 310.91 265.009 310.439 266.93 310.439C268.039 310.439 269.133 310.624 270.214 310.993C271.295 311.363 272.279 311.963 273.166 312.795C274.052 313.617 274.759 314.707 275.286 316.065C275.812 317.423 276.075 319.095 276.075 321.081V322.467H259.669V319.64H272.75C272.75 318.439 272.51 317.367 272.029 316.425C271.558 315.483 270.884 314.739 270.006 314.194C269.138 313.649 268.113 313.377 266.93 313.377C265.628 313.377 264.501 313.7 263.549 314.347C262.607 314.984 261.882 315.816 261.374 316.841C260.866 317.866 260.612 318.966 260.612 320.139V322.023C260.612 323.631 260.889 324.993 261.443 326.111C262.006 327.219 262.787 328.065 263.785 328.647C264.782 329.219 265.942 329.506 267.263 329.506C268.122 329.506 268.898 329.386 269.591 329.146C270.293 328.896 270.898 328.527 271.406 328.037C271.914 327.538 272.306 326.919 272.584 326.18L275.743 327.067C275.41 328.139 274.851 329.081 274.066 329.894C273.281 330.697 272.311 331.326 271.156 331.778C270.002 332.222 268.704 332.443 267.263 332.443ZM300.615 340.425C299.036 340.425 297.678 340.222 296.542 339.815C295.405 339.418 294.458 338.891 293.701 338.235C292.953 337.589 292.357 336.896 291.913 336.157L294.518 334.328C294.814 334.716 295.188 335.159 295.641 335.658C296.094 336.166 296.712 336.605 297.498 336.974C298.292 337.353 299.331 337.543 300.615 337.543C302.334 337.543 303.752 337.127 304.869 336.296C305.987 335.464 306.546 334.162 306.546 332.388V328.065H306.269C306.029 328.453 305.687 328.933 305.243 329.506C304.809 330.069 304.181 330.573 303.359 331.016C302.546 331.45 301.447 331.667 300.061 331.667C298.343 331.667 296.8 331.261 295.433 330.448C294.075 329.635 292.999 328.453 292.204 326.901C291.419 325.349 291.027 323.464 291.027 321.247C291.027 319.067 291.41 317.169 292.177 315.552C292.943 313.926 294.01 312.67 295.378 311.783C296.745 310.887 298.324 310.439 300.117 310.439C301.502 310.439 302.601 310.67 303.414 311.132C304.237 311.585 304.865 312.102 305.299 312.684C305.742 313.257 306.084 313.728 306.324 314.097H306.657V310.716H309.816V332.61C309.816 334.439 309.4 335.926 308.569 337.071C307.747 338.226 306.638 339.071 305.243 339.607C303.858 340.152 302.315 340.425 300.615 340.425ZM300.505 328.73C301.816 328.73 302.925 328.43 303.83 327.829C304.735 327.229 305.424 326.365 305.895 325.238C306.366 324.111 306.601 322.762 306.601 321.192C306.601 319.658 306.37 318.305 305.909 317.132C305.447 315.959 304.763 315.04 303.858 314.374C302.953 313.709 301.835 313.377 300.505 313.377C299.119 313.377 297.964 313.728 297.04 314.43C296.126 315.132 295.438 316.074 294.976 317.257C294.523 318.439 294.297 319.751 294.297 321.192C294.297 322.67 294.528 323.977 294.99 325.113C295.461 326.24 296.154 327.127 297.068 327.774C297.992 328.411 299.137 328.73 300.505 328.73ZM329.215 323.298V310.716H332.485V332H329.215V328.397H328.994C328.495 329.478 327.719 330.397 326.666 331.155C325.613 331.903 324.282 332.277 322.675 332.277C321.345 332.277 320.162 331.986 319.128 331.404C318.093 330.813 317.28 329.926 316.689 328.744C316.098 327.552 315.802 326.051 315.802 324.24V310.716H319.072V324.019C319.072 325.571 319.506 326.808 320.375 327.732C321.252 328.656 322.37 329.118 323.728 329.118C324.541 329.118 325.368 328.91 326.208 328.494C327.058 328.079 327.77 327.441 328.342 326.582C328.924 325.723 329.215 324.628 329.215 323.298ZM353.551 315.483L350.613 316.314C350.428 315.825 350.156 315.349 349.796 314.887C349.445 314.416 348.964 314.028 348.355 313.723C347.745 313.418 346.964 313.266 346.013 313.266C344.71 313.266 343.625 313.566 342.757 314.167C341.897 314.758 341.468 315.511 341.468 316.425C341.468 317.238 341.764 317.88 342.355 318.351C342.946 318.822 343.87 319.215 345.126 319.529L348.285 320.305C350.188 320.767 351.606 321.474 352.539 322.425C353.472 323.367 353.939 324.582 353.939 326.069C353.939 327.289 353.588 328.379 352.886 329.34C352.193 330.3 351.223 331.058 349.976 331.612C348.729 332.166 347.278 332.443 345.625 332.443C343.454 332.443 341.657 331.972 340.235 331.03C338.812 330.088 337.911 328.711 337.533 326.901L340.637 326.125C340.932 327.27 341.491 328.129 342.313 328.702C343.145 329.275 344.23 329.561 345.569 329.561C347.094 329.561 348.304 329.238 349.2 328.591C350.105 327.935 350.558 327.15 350.558 326.236C350.558 325.497 350.299 324.878 349.782 324.379C349.265 323.871 348.47 323.492 347.398 323.243L343.851 322.411C341.902 321.949 340.47 321.233 339.556 320.264C338.65 319.284 338.198 318.06 338.198 316.592C338.198 315.391 338.535 314.328 339.209 313.405C339.893 312.481 340.821 311.756 341.994 311.229C343.177 310.703 344.516 310.439 346.013 310.439C348.119 310.439 349.773 310.901 350.973 311.825C352.184 312.749 353.043 313.968 353.551 315.483ZM368.117 310.716V313.488H357.088V310.716H368.117ZM360.302 305.617H363.573V325.903C363.573 326.827 363.706 327.52 363.974 327.982C364.252 328.434 364.603 328.739 365.027 328.896C365.462 329.044 365.919 329.118 366.399 329.118C366.76 329.118 367.055 329.099 367.286 329.062C367.517 329.016 367.702 328.979 367.84 328.952L368.505 331.889C368.284 331.972 367.974 332.055 367.577 332.139C367.18 332.231 366.676 332.277 366.067 332.277C365.143 332.277 364.238 332.079 363.351 331.681C362.473 331.284 361.743 330.679 361.162 329.866C360.589 329.053 360.302 328.028 360.302 326.79V305.617ZM379.3 332.499C377.951 332.499 376.727 332.245 375.628 331.737C374.528 331.219 373.655 330.476 373.009 329.506C372.362 328.527 372.039 327.344 372.039 325.959C372.039 324.739 372.279 323.751 372.759 322.993C373.24 322.227 373.882 321.626 374.685 321.192C375.489 320.758 376.376 320.434 377.346 320.222C378.325 320 379.309 319.825 380.297 319.695C381.591 319.529 382.639 319.404 383.443 319.321C384.256 319.229 384.847 319.076 385.216 318.864C385.595 318.652 385.785 318.282 385.785 317.755V317.645C385.785 316.277 385.41 315.215 384.662 314.458C383.923 313.7 382.801 313.321 381.295 313.321C379.734 313.321 378.51 313.663 377.623 314.347C376.736 315.03 376.113 315.76 375.752 316.536L372.649 315.428C373.203 314.134 373.942 313.127 374.866 312.407C375.799 311.677 376.815 311.169 377.914 310.883C379.023 310.587 380.113 310.439 381.184 310.439C381.868 310.439 382.653 310.522 383.54 310.689C384.436 310.846 385.3 311.174 386.131 311.672C386.972 312.171 387.669 312.924 388.223 313.931C388.778 314.938 389.055 316.287 389.055 317.977V332H385.785V329.118H385.618C385.397 329.58 385.027 330.074 384.51 330.6C383.992 331.127 383.304 331.575 382.445 331.945C381.586 332.314 380.538 332.499 379.3 332.499ZM379.799 329.561C381.092 329.561 382.182 329.307 383.069 328.799C383.965 328.291 384.639 327.635 385.092 326.832C385.554 326.028 385.785 325.183 385.785 324.296V321.303C385.646 321.469 385.341 321.621 384.87 321.76C384.408 321.889 383.872 322.005 383.263 322.106C382.662 322.199 382.076 322.282 381.503 322.356C380.939 322.421 380.482 322.476 380.131 322.522C379.281 322.633 378.487 322.813 377.748 323.063C377.018 323.303 376.427 323.668 375.974 324.157C375.531 324.638 375.309 325.293 375.309 326.125C375.309 327.261 375.729 328.12 376.57 328.702C377.42 329.275 378.496 329.561 379.799 329.561ZM404.28 310.716V313.488H393.25V310.716H404.28ZM396.464 305.617H399.735V325.903C399.735 326.827 399.869 327.52 400.136 327.982C400.414 328.434 400.765 328.739 401.19 328.896C401.624 329.044 402.081 329.118 402.561 329.118C402.922 329.118 403.217 329.099 403.448 329.062C403.679 329.016 403.864 328.979 404.002 328.952L404.668 331.889C404.446 331.972 404.136 332.055 403.739 332.139C403.342 332.231 402.838 332.277 402.229 332.277C401.305 332.277 400.4 332.079 399.513 331.681C398.635 331.284 397.906 330.679 397.324 329.866C396.751 329.053 396.464 328.028 396.464 326.79V305.617ZM409.199 332V310.716H412.469V332H409.199ZM410.861 307.169C410.224 307.169 409.674 306.952 409.212 306.518C408.76 306.084 408.534 305.562 408.534 304.952C408.534 304.342 408.76 303.82 409.212 303.386C409.674 302.952 410.224 302.735 410.861 302.735C411.499 302.735 412.044 302.952 412.496 303.386C412.958 303.82 413.189 304.342 413.189 304.952C413.189 305.562 412.958 306.084 412.496 306.518C412.044 306.952 411.499 307.169 410.861 307.169ZM427.936 310.716V313.488H416.463V310.716H427.936ZM419.899 332V307.779C419.899 306.559 420.186 305.543 420.758 304.73C421.331 303.917 422.075 303.308 422.989 302.901C423.904 302.495 424.869 302.292 425.885 302.292C426.689 302.292 427.345 302.356 427.853 302.486C428.361 302.615 428.74 302.735 428.989 302.846L428.047 305.673C427.881 305.617 427.65 305.548 427.354 305.465C427.068 305.382 426.689 305.34 426.218 305.34C425.137 305.34 424.357 305.613 423.876 306.158C423.405 306.703 423.17 307.502 423.17 308.555V332H419.899Z" fill="#404041"/>
<path d="M247.68 145.11C281.16 107.11 291.38 67.44 293.56 57.25C294.319 54.307 294.745 51.2881 294.83 48.25C294.83 21.59 273.72 -0.0299988 247.68 -0.0299988C221.64 -0.0299988 200.53 21.59 200.53 48.25C200.613 51.2883 201.039 54.3074 201.8 57.25C203.97 67.4 214.18 107.13 247.68 145.11ZM247.68 22.47C261.77 22.47 273.19 34.17 273.19 48.59C273.19 63.01 261.77 74.71 247.68 74.71C233.59 74.71 222.18 63.02 222.18 48.59C222.18 34.16 233.59 22.47 247.68 22.47Z" fill="white"/>
<path d="M247.68 145.11C281.16 107.11 291.38 67.44 293.56 57.25C294.319 54.307 294.745 51.2881 294.83 48.25C294.83 21.59 273.72 -0.0299988 247.68 -0.0299988C221.64 -0.0299988 200.53 21.59 200.53 48.25C200.613 51.2883 201.039 54.3074 201.8 57.25C203.97 67.4 214.18 107.13 247.68 145.11ZM247.68 22.47C261.77 22.47 273.19 34.17 273.19 48.59C273.19 63.01 261.77 74.71 247.68 74.71C233.59 74.71 222.18 63.02 222.18 48.59C222.18 34.16 233.59 22.47 247.68 22.47Z" fill="white"/>
<path d="M306.98 60.23C305.12 69.57 293.13 121.14 247.98 167.5C245.313 164.753 242.753 161.993 240.3 159.22C197.14 110.29 188.72 58.7 188.72 58.7C188.72 58.7 179.51 94.26 201.27 129.32C214.02 147.5 228.9 162.64 241.53 173.88C236.963 178.22 232.077 182.473 226.87 186.64C219.25 180.09 204.58 180.93 191.53 189.33C176.53 198.95 169.39 214.87 175.53 224.88C178.28 229.37 183.27 231.88 189.27 232.45H189.34C196.68 233.11 205.51 230.83 213.72 225.56C227.09 216.95 234.21 203.35 231.21 193.41C231.21 192.92 231.21 192.62 231.21 192.56C235.09 189.79 240.99 185.36 248 179.47C255 185.36 260.91 189.79 264.78 192.56C264.78 192.99 263.98 206.36 271.91 212.02C279.84 217.68 306.69 232.49 306.69 232.49L308.22 230.11L278.76 210.34C278.34 210.046 278.048 209.602 277.946 209.1C277.843 208.597 277.938 208.075 278.21 207.64C278.343 207.427 278.517 207.243 278.723 207.1C278.928 206.956 279.161 206.854 279.406 206.802C279.652 206.75 279.905 206.748 280.151 206.795C280.398 206.843 280.632 206.94 280.84 207.08L310.3 226.85L312.83 222.9L283.37 203.13C282.95 202.836 282.658 202.392 282.556 201.89C282.453 201.387 282.548 200.865 282.82 200.43C282.953 200.216 283.128 200.031 283.334 199.886C283.54 199.741 283.774 199.639 284.021 199.587C284.267 199.535 284.522 199.533 284.769 199.582C285.016 199.63 285.251 199.728 285.46 199.87L314.92 219.63L317.45 215.68L287.99 195.91C287.571 195.618 287.279 195.177 287.175 194.676C287.071 194.176 287.162 193.655 287.43 193.22C287.563 193.006 287.738 192.821 287.944 192.676C288.15 192.531 288.383 192.429 288.629 192.376C288.875 192.323 289.13 192.32 289.377 192.367C289.625 192.414 289.86 192.51 290.07 192.65L319.53 212.42L321.06 210.03C321.06 210.03 297.2 190.8 288.85 185.57C281.58 181.01 271.55 185.57 269.13 186.68C263.92 182.51 259.05 178.23 254.47 173.89C268.293 161.704 280.82 148.122 291.85 133.36C292.46 132.17 293.14 130.91 294.03 129.5C313.22 98.67 308.44 67.41 306.98 60.23Z" fill="white"/>
<path d="M335.17 92.05C346.71 74.95 332.51 59.15 332.51 59.15C322.57 84.42 335.17 92.05 335.17 92.05Z" fill="#F6941D"/>
<path d="M312.39 121C306.2 130.37 305.39 137.79 306.31 143.15C306.92 146.972 308.71 150.507 311.43 153.26C312.59 153.85 330.43 162.39 344.35 136.19C344.35 136.19 325.35 137.55 316.06 145.8C316.72 143.683 317.057 141.478 317.06 139.26C317.34 129.8 312.39 121 312.39 121Z" fill="#F6941D"/>
<path d="M294.2 145.01C283.78 158.72 290.69 169.3 290.69 169.3H290.75C290.75 169.3 301.12 184.67 327.04 164.57C327.04 164.57 307.45 159.42 296.65 164.03C300.98 158.03 301.65 149.97 301.44 144.4C301.378 142.268 301.171 140.143 300.82 138.04C298.378 140.128 296.159 142.464 294.2 145.01Z" fill="#F6941D"/>
<path d="M333 102.17C332.61 90.5 321.14 81.1 321.14 81.1C317.14 104.45 331.09 109.57 331.55 109.73C334.769 109.943 337.984 109.25 340.83 107.73C346.49 104.83 353.21 97.98 356.24 82.01C351.496 84.1588 347.024 86.8644 342.92 90.07C338.85 93.27 335.01 97.36 333 102.17Z" fill="#F6941D"/>
<path d="M327.85 124.12C328.19 112.38 318.01 101.27 318.01 101.27C310.21 124.65 324.72 132.65 325.25 132.93C329.923 133.174 334.537 131.804 338.32 129.05C343.2 125.68 348.32 119.48 351.46 107.99C347.554 109.705 343.766 111.676 340.12 113.89C335.58 116.7 330.77 120.24 327.85 124.12Z" fill="#F6941D"/>
<path d="M160.19 92.05C160.19 92.05 172.79 84.42 162.85 59.15C162.85 59.15 148.66 74.95 160.19 92.05Z" fill="#F6941D"/>
<path d="M182.97 121C182.97 121 177.97 129.8 178.2 139.29C178.208 141.507 178.545 143.712 179.2 145.83C169.91 137.58 150.91 136.22 150.91 136.22C164.8 162.42 182.68 153.88 183.83 153.29H183.88C186.603 150.539 188.394 147.003 189 143.18C190.01 137.79 189.16 130.37 182.97 121Z" fill="#F6941D"/>
<path d="M194.58 138.05C194.228 140.154 194.018 142.278 193.95 144.41C193.76 149.98 194.42 158.06 198.74 164.04C187.95 159.43 168.36 164.58 168.36 164.58C194.27 184.68 204.64 169.31 204.64 169.31C204.64 169.31 211.56 158.73 201.13 145.02C199.193 142.477 196.998 140.141 194.58 138.05Z" fill="#F6941D"/>
<path d="M163.85 109.77C164.31 109.61 178.27 104.49 174.26 81.14C174.26 81.14 162.79 90.54 162.41 102.21C160.41 97.4 156.53 93.31 152.48 90.1C148.378 86.8957 143.91 84.1901 139.17 82.04C142.17 98.04 148.91 104.86 154.57 107.76C157.415 109.283 160.63 109.98 163.85 109.77Z" fill="#F6941D"/>
<path d="M170.13 132.98C170.65 132.7 185.13 124.7 177.36 101.32C177.36 101.32 167.18 112.43 167.52 124.17C164.58 120.29 159.78 116.75 155.26 113.99C151.613 111.778 147.825 109.807 143.92 108.09C147.07 119.58 152.18 125.78 157.05 129.15C160.842 131.888 165.46 133.241 170.13 132.98Z" fill="#F6941D"/>
<path d="M70.6003 303.622L79.025 327.51H79.3576L87.7824 303.622H91.3851L80.9649 332H77.4177L66.9976 303.622H70.6003Z" fill="white"/>
<path d="M102.027 332.443C100.105 332.443 98.4196 331.986 96.9692 331.072C95.5282 330.157 94.4012 328.878 93.5882 327.233C92.7846 325.589 92.3827 323.668 92.3827 321.469C92.3827 319.252 92.7846 317.317 93.5882 315.663C94.4012 314.01 95.5282 312.726 96.9692 311.811C98.4196 310.897 100.105 310.439 102.027 310.439C103.948 310.439 105.63 310.897 107.071 311.811C108.521 312.726 109.648 314.01 110.452 315.663C111.265 317.317 111.671 319.252 111.671 321.469C111.671 323.668 111.265 325.589 110.452 327.233C109.648 328.878 108.521 330.157 107.071 331.072C105.63 331.986 103.948 332.443 102.027 332.443ZM102.027 329.506C103.486 329.506 104.687 329.132 105.63 328.383C106.572 327.635 107.269 326.651 107.722 325.432C108.175 324.213 108.401 322.892 108.401 321.469C108.401 320.046 108.175 318.721 107.722 317.492C107.269 316.264 106.572 315.271 105.63 314.513C104.687 313.756 103.486 313.377 102.027 313.377C100.567 313.377 99.3664 313.756 98.4242 314.513C97.4819 315.271 96.7845 316.264 96.3318 317.492C95.8792 318.721 95.6529 320.046 95.6529 321.469C95.6529 322.892 95.8792 324.213 96.3318 325.432C96.7845 326.651 97.4819 327.635 98.4242 328.383C99.3664 329.132 100.567 329.506 102.027 329.506Z" fill="white"/>
<path d="M125.919 310.716V313.488H114.889V310.716H125.919ZM118.104 305.617H121.374V325.903C121.374 326.827 121.508 327.52 121.776 327.982C122.053 328.434 122.404 328.739 122.829 328.896C123.263 329.044 123.72 329.118 124.201 329.118C124.561 329.118 124.857 329.099 125.088 329.062C125.319 329.016 125.503 328.979 125.642 328.952L126.307 331.889C126.085 331.972 125.776 332.055 125.379 332.139C124.981 332.231 124.478 332.277 123.868 332.277C122.944 332.277 122.039 332.079 121.152 331.681C120.275 331.284 119.545 330.679 118.963 329.866C118.39 329.053 118.104 328.028 118.104 326.79V305.617Z" fill="white"/>
<path d="M130.838 332V310.716H133.997V313.931H134.219C134.607 312.878 135.309 312.024 136.325 311.368C137.341 310.712 138.487 310.384 139.762 310.384C140.002 310.384 140.302 310.388 140.662 310.398C141.023 310.407 141.295 310.421 141.48 310.439V313.765C141.369 313.737 141.115 313.696 140.718 313.64C140.33 313.575 139.919 313.543 139.485 313.543C138.45 313.543 137.526 313.76 136.713 314.194C135.91 314.619 135.272 315.211 134.801 315.968C134.339 316.716 134.108 317.571 134.108 318.531V332H130.838Z" fill="white"/>
<path d="M153.632 332.443C151.581 332.443 149.812 331.991 148.325 331.085C146.847 330.171 145.706 328.896 144.902 327.261C144.108 325.617 143.711 323.705 143.711 321.524C143.711 319.344 144.108 317.423 144.902 315.76C145.706 314.088 146.824 312.786 148.256 311.853C149.697 310.91 151.378 310.439 153.3 310.439C154.408 310.439 155.503 310.624 156.584 310.993C157.664 311.363 158.648 311.963 159.535 312.795C160.422 313.617 161.128 314.707 161.655 316.065C162.182 317.423 162.445 319.095 162.445 321.081V322.467H146.039V319.64H159.119C159.119 318.439 158.879 317.368 158.399 316.425C157.928 315.483 157.253 314.739 156.376 314.194C155.507 313.649 154.482 313.377 153.3 313.377C151.997 313.377 150.87 313.7 149.919 314.347C148.976 314.984 148.251 315.816 147.743 316.841C147.235 317.866 146.981 318.966 146.981 320.139V322.023C146.981 323.631 147.258 324.993 147.812 326.111C148.376 327.22 149.156 328.065 150.154 328.647C151.152 329.219 152.311 329.506 153.632 329.506C154.491 329.506 155.267 329.386 155.96 329.146C156.662 328.896 157.267 328.527 157.775 328.037C158.283 327.538 158.676 326.919 158.953 326.18L162.112 327.067C161.78 328.139 161.221 329.081 160.436 329.894C159.65 330.697 158.68 331.326 157.526 331.778C156.371 332.222 155.073 332.443 153.632 332.443Z" fill="white"/>
<path d="M186.985 340.425C185.405 340.425 184.047 340.222 182.911 339.815C181.775 339.418 180.828 338.891 180.07 338.235C179.322 337.589 178.726 336.896 178.283 336.157L180.888 334.328C181.183 334.716 181.558 335.159 182.01 335.658C182.463 336.166 183.082 336.605 183.867 336.975C184.661 337.353 185.701 337.543 186.985 337.543C188.703 337.543 190.121 337.127 191.239 336.296C192.356 335.464 192.915 334.162 192.915 332.388V328.065H192.638C192.398 328.453 192.056 328.933 191.613 329.506C191.179 330.069 190.55 330.573 189.728 331.016C188.915 331.45 187.816 331.667 186.43 331.667C184.712 331.667 183.17 331.261 181.802 330.448C180.444 329.635 179.368 328.453 178.574 326.901C177.789 325.349 177.396 323.464 177.396 321.247C177.396 319.067 177.779 317.169 178.546 315.552C179.313 313.926 180.38 312.67 181.747 311.783C183.114 310.887 184.694 310.439 186.486 310.439C187.872 310.439 188.971 310.67 189.784 311.132C190.606 311.585 191.234 312.102 191.668 312.684C192.112 313.257 192.453 313.728 192.694 314.097H193.026V310.716H196.186V332.61C196.186 334.439 195.77 335.926 194.938 337.071C194.116 338.226 193.008 339.071 191.613 339.607C190.227 340.152 188.684 340.425 186.985 340.425ZM186.874 328.73C188.186 328.73 189.294 328.43 190.199 327.829C191.105 327.229 191.793 326.365 192.264 325.238C192.735 324.111 192.971 322.762 192.971 321.192C192.971 319.658 192.74 318.305 192.278 317.132C191.816 315.959 191.132 315.04 190.227 314.374C189.322 313.709 188.204 313.377 186.874 313.377C185.488 313.377 184.334 313.728 183.41 314.43C182.495 315.132 181.807 316.074 181.345 317.257C180.893 318.439 180.666 319.751 180.666 321.192C180.666 322.67 180.897 323.977 181.359 325.113C181.83 326.24 182.523 327.127 183.437 327.774C184.361 328.411 185.507 328.73 186.874 328.73Z" fill="white"/>
<path d="M215.585 323.298V310.716H218.855V332H215.585V328.397H215.363C214.864 329.478 214.088 330.397 213.035 331.155C211.982 331.903 210.652 332.277 209.044 332.277C207.714 332.277 206.532 331.986 205.497 331.404C204.462 330.813 203.65 329.926 203.058 328.744C202.467 327.552 202.172 326.051 202.172 324.24V310.716H205.442V324.019C205.442 325.571 205.876 326.808 206.744 327.732C207.622 328.656 208.74 329.118 210.097 329.118C210.91 329.118 211.737 328.91 212.578 328.494C213.428 328.079 214.139 327.441 214.712 326.582C215.294 325.723 215.585 324.628 215.585 323.298Z" fill="white"/>
<path d="M224.844 332V310.716H228.114V332H224.844ZM226.507 307.169C225.87 307.169 225.32 306.952 224.858 306.518C224.405 306.084 224.179 305.562 224.179 304.952C224.179 304.342 224.405 303.82 224.858 303.386C225.32 302.952 225.87 302.735 226.507 302.735C227.144 302.735 227.689 302.952 228.142 303.386C228.604 303.82 228.835 304.342 228.835 304.952C228.835 305.562 228.604 306.084 228.142 306.518C227.689 306.952 227.144 307.169 226.507 307.169Z" fill="white"/>
<path d="M242.141 332.443C240.367 332.443 238.801 331.995 237.443 331.099C236.085 330.194 235.023 328.919 234.256 327.275C233.49 325.621 233.106 323.668 233.106 321.414C233.106 319.178 233.49 317.238 234.256 315.594C235.023 313.95 236.09 312.679 237.457 311.783C238.824 310.887 240.404 310.439 242.196 310.439C243.582 310.439 244.676 310.67 245.48 311.132C246.293 311.585 246.912 312.102 247.337 312.684C247.771 313.257 248.108 313.728 248.348 314.097H248.626V303.622H251.896V332H248.736V328.73H248.348C248.108 329.118 247.766 329.607 247.323 330.199C246.88 330.781 246.247 331.303 245.425 331.764C244.603 332.217 243.508 332.443 242.141 332.443ZM242.584 329.506C243.896 329.506 245.004 329.164 245.91 328.48C246.815 327.788 247.503 326.832 247.974 325.612C248.445 324.384 248.681 322.966 248.681 321.358C248.681 319.769 248.45 318.379 247.988 317.187C247.526 315.986 246.843 315.053 245.937 314.388C245.032 313.714 243.914 313.377 242.584 313.377C241.198 313.377 240.044 313.732 239.12 314.444C238.205 315.146 237.517 316.102 237.055 317.312C236.603 318.513 236.376 319.862 236.376 321.358C236.376 322.873 236.607 324.25 237.069 325.487C237.54 326.716 238.233 327.695 239.148 328.425C240.071 329.146 241.217 329.506 242.584 329.506Z" fill="white"/>
<path d="M267.263 332.443C265.212 332.443 263.443 331.991 261.956 331.085C260.478 330.171 259.337 328.896 258.533 327.261C257.739 325.617 257.341 323.705 257.341 321.524C257.341 319.344 257.739 317.423 258.533 315.76C259.337 314.088 260.454 312.786 261.886 311.853C263.327 310.91 265.009 310.439 266.93 310.439C268.039 310.439 269.133 310.624 270.214 310.993C271.295 311.363 272.279 311.963 273.165 312.795C274.052 313.617 274.759 314.707 275.286 316.065C275.812 317.423 276.075 319.095 276.075 321.081V322.467H259.669V319.64H272.75C272.75 318.439 272.51 317.368 272.029 316.425C271.558 315.483 270.884 314.739 270.006 314.194C269.138 313.649 268.112 313.377 266.93 313.377C265.628 313.377 264.501 313.7 263.549 314.347C262.607 314.984 261.882 315.816 261.374 316.841C260.865 317.866 260.611 318.966 260.611 320.139V322.023C260.611 323.631 260.889 324.993 261.443 326.111C262.006 327.22 262.787 328.065 263.785 328.647C264.782 329.219 265.942 329.506 267.263 329.506C268.122 329.506 268.898 329.386 269.59 329.146C270.293 328.896 270.898 328.527 271.406 328.037C271.914 327.538 272.306 326.919 272.583 326.18L275.743 327.067C275.41 328.139 274.851 329.081 274.066 329.894C273.281 330.697 272.311 331.326 271.156 331.778C270.002 332.222 268.704 332.443 267.263 332.443Z" fill="white"/>
<path d="M300.615 340.425C299.036 340.425 297.678 340.222 296.541 339.815C295.405 339.418 294.458 338.891 293.701 338.235C292.953 337.589 292.357 336.896 291.913 336.157L294.518 334.328C294.814 334.716 295.188 335.159 295.641 335.658C296.093 336.166 296.712 336.605 297.498 336.975C298.292 337.353 299.331 337.543 300.615 337.543C302.333 337.543 303.751 337.127 304.869 336.296C305.987 335.464 306.546 334.162 306.546 332.388V328.065H306.269C306.029 328.453 305.687 328.933 305.243 329.506C304.809 330.069 304.181 330.573 303.359 331.016C302.546 331.45 301.447 331.667 300.061 331.667C298.343 331.667 296.8 331.261 295.433 330.448C294.075 329.635 292.999 328.453 292.204 326.901C291.419 325.349 291.027 323.464 291.027 321.247C291.027 319.067 291.41 317.169 292.177 315.552C292.943 313.926 294.01 312.67 295.377 311.783C296.745 310.887 298.324 310.439 300.116 310.439C301.502 310.439 302.601 310.67 303.414 311.132C304.236 311.585 304.865 312.102 305.299 312.684C305.742 313.257 306.084 313.728 306.324 314.097H306.657V310.716H309.816V332.61C309.816 334.439 309.4 335.926 308.569 337.071C307.747 338.226 306.638 339.071 305.243 339.607C303.858 340.152 302.315 340.425 300.615 340.425ZM300.504 328.73C301.816 328.73 302.925 328.43 303.83 327.829C304.735 327.229 305.423 326.365 305.895 325.238C306.366 324.111 306.601 322.762 306.601 321.192C306.601 319.658 306.37 318.305 305.908 317.132C305.447 315.959 304.763 315.04 303.858 314.374C302.952 313.709 301.835 313.377 300.504 313.377C299.119 313.377 297.964 313.728 297.04 314.43C296.126 315.132 295.438 316.074 294.976 317.257C294.523 318.439 294.297 319.751 294.297 321.192C294.297 322.67 294.528 323.977 294.99 325.113C295.461 326.24 296.153 327.127 297.068 327.774C297.992 328.411 299.137 328.73 300.504 328.73Z" fill="white"/>
<path d="M329.215 323.298V310.716H332.485V332H329.215V328.397H328.993C328.495 329.478 327.719 330.397 326.666 331.155C325.612 331.903 324.282 332.277 322.675 332.277C321.345 332.277 320.162 331.986 319.128 331.404C318.093 330.813 317.28 329.926 316.689 328.744C316.098 327.552 315.802 326.051 315.802 324.24V310.716H319.072V324.019C319.072 325.571 319.506 326.808 320.375 327.732C321.252 328.656 322.37 329.118 323.728 329.118C324.541 329.118 325.368 328.91 326.208 328.494C327.058 328.079 327.769 327.441 328.342 326.582C328.924 325.723 329.215 324.628 329.215 323.298Z" fill="white"/>
<path d="M353.551 315.483L350.613 316.314C350.428 315.825 350.156 315.349 349.796 314.887C349.445 314.416 348.964 314.028 348.354 313.723C347.745 313.418 346.964 313.266 346.013 313.266C344.71 313.266 343.625 313.566 342.756 314.167C341.897 314.758 341.468 315.511 341.468 316.425C341.468 317.238 341.763 317.88 342.355 318.351C342.946 318.822 343.87 319.215 345.126 319.529L348.285 320.305C350.188 320.767 351.606 321.474 352.539 322.425C353.472 323.367 353.939 324.582 353.939 326.069C353.939 327.289 353.588 328.379 352.886 329.34C352.193 330.3 351.223 331.058 349.976 331.612C348.729 332.166 347.278 332.443 345.625 332.443C343.454 332.443 341.657 331.972 340.235 331.03C338.812 330.088 337.911 328.711 337.533 326.901L340.636 326.125C340.932 327.27 341.491 328.129 342.313 328.702C343.144 329.275 344.23 329.561 345.569 329.561C347.094 329.561 348.304 329.238 349.2 328.591C350.105 327.935 350.558 327.15 350.558 326.236C350.558 325.497 350.299 324.878 349.782 324.379C349.264 323.871 348.47 323.492 347.398 323.243L343.851 322.411C341.902 321.949 340.47 321.233 339.556 320.264C338.65 319.284 338.198 318.06 338.198 316.592C338.198 315.391 338.535 314.328 339.209 313.405C339.893 312.481 340.821 311.756 341.994 311.229C343.177 310.703 344.516 310.439 346.013 310.439C348.119 310.439 349.772 310.901 350.973 311.825C352.184 312.749 353.043 313.968 353.551 315.483Z" fill="white"/>
<path d="M368.117 310.716V313.488H357.088V310.716H368.117ZM360.302 305.617H363.572V325.903C363.572 326.827 363.706 327.52 363.974 327.982C364.251 328.434 364.602 328.739 365.027 328.896C365.462 329.044 365.919 329.118 366.399 329.118C366.759 329.118 367.055 329.099 367.286 329.062C367.517 329.016 367.702 328.979 367.84 328.952L368.505 331.889C368.284 331.972 367.974 332.055 367.577 332.139C367.18 332.231 366.676 332.277 366.067 332.277C365.143 332.277 364.238 332.079 363.351 331.681C362.473 331.284 361.743 330.679 361.161 329.866C360.589 329.053 360.302 328.028 360.302 326.79V305.617Z" fill="white"/>
<path d="M379.3 332.499C377.951 332.499 376.727 332.245 375.628 331.737C374.528 331.219 373.655 330.476 373.009 329.506C372.362 328.527 372.039 327.344 372.039 325.959C372.039 324.739 372.279 323.751 372.759 322.993C373.24 322.227 373.882 321.626 374.685 321.192C375.489 320.758 376.376 320.434 377.346 320.222C378.325 320 379.309 319.825 380.297 319.695C381.591 319.529 382.639 319.404 383.443 319.321C384.256 319.229 384.847 319.076 385.216 318.864C385.595 318.652 385.784 318.282 385.784 317.755V317.645C385.784 316.277 385.41 315.215 384.662 314.458C383.923 313.7 382.801 313.321 381.295 313.321C379.734 313.321 378.51 313.663 377.623 314.347C376.736 315.03 376.113 315.76 375.752 316.536L372.648 315.428C373.203 314.134 373.942 313.127 374.866 312.407C375.799 311.677 376.815 311.169 377.914 310.883C379.022 310.587 380.113 310.439 381.184 310.439C381.868 310.439 382.653 310.522 383.54 310.689C384.436 310.846 385.299 311.174 386.131 311.672C386.971 312.171 387.669 312.924 388.223 313.931C388.777 314.938 389.055 316.287 389.055 317.977V332H385.784V329.118H385.618C385.396 329.58 385.027 330.074 384.51 330.6C383.992 331.127 383.304 331.575 382.445 331.945C381.586 332.314 380.537 332.499 379.3 332.499ZM379.798 329.561C381.092 329.561 382.182 329.307 383.069 328.799C383.965 328.291 384.639 327.635 385.092 326.832C385.554 326.028 385.784 325.183 385.784 324.296V321.303C385.646 321.469 385.341 321.621 384.87 321.76C384.408 321.889 383.872 322.005 383.263 322.106C382.662 322.199 382.076 322.282 381.503 322.356C380.939 322.421 380.482 322.476 380.131 322.522C379.281 322.633 378.487 322.813 377.748 323.063C377.018 323.303 376.427 323.668 375.974 324.157C375.531 324.638 375.309 325.293 375.309 326.125C375.309 327.261 375.729 328.12 376.57 328.702C377.42 329.275 378.496 329.561 379.798 329.561Z" fill="white"/>
<path d="M404.279 310.716V313.488H393.25V310.716H404.279ZM396.464 305.617H399.735V325.903C399.735 326.827 399.868 327.52 400.136 327.982C400.413 328.434 400.765 328.739 401.189 328.896C401.624 329.044 402.081 329.118 402.561 329.118C402.922 329.118 403.217 329.099 403.448 329.062C403.679 329.016 403.864 328.979 404.002 328.952L404.667 331.889C404.446 331.972 404.136 332.055 403.739 332.139C403.342 332.231 402.838 332.277 402.229 332.277C401.305 332.277 400.4 332.079 399.513 331.681C398.635 331.284 397.905 330.679 397.323 329.866C396.751 329.053 396.464 328.028 396.464 326.79V305.617Z" fill="white"/>
<path d="M409.199 332V310.716H412.469V332H409.199ZM410.861 307.169C410.224 307.169 409.674 306.952 409.212 306.518C408.76 306.084 408.533 305.562 408.533 304.952C408.533 304.342 408.76 303.82 409.212 303.386C409.674 302.952 410.224 302.735 410.861 302.735C411.499 302.735 412.044 302.952 412.496 303.386C412.958 303.82 413.189 304.342 413.189 304.952C413.189 305.562 412.958 306.084 412.496 306.518C412.044 306.952 411.499 307.169 410.861 307.169Z" fill="white"/>
<path d="M427.936 310.716V313.488H416.463V310.716H427.936ZM419.899 332V307.779C419.899 306.559 420.186 305.543 420.758 304.73C421.331 303.917 422.075 303.308 422.989 302.901C423.904 302.495 424.869 302.292 425.885 302.292C426.689 302.292 427.345 302.356 427.853 302.486C428.361 302.615 428.74 302.735 428.989 302.846L428.047 305.673C427.881 305.617 427.65 305.548 427.354 305.465C427.068 305.382 426.689 305.34 426.218 305.34C425.137 305.34 424.356 305.613 423.876 306.158C423.405 306.703 423.169 307.502 423.169 308.555V332H419.899Z" fill="white"/>
</g>
<defs>
<clipPath id="clip0_31_101">
<rect width="495.36" height="352.75" fill="white"/>
</clipPath>
</defs>
</svg>
