<svg id="Calque_1" data-name="Calque 1" fill="white" xmlns="http://www.w3.org/2000/svg" viewBox="0 0 17.81 12.85"><path d="M17.91,8.34a1.32,1.32,0,0,0-.05-.44.95.95,0,0,0-.4-1.81H17V6a4.77,4.77,0,0,0-4.77-4.76H6.76A4.77,4.77,0,0,0,2,6v.14H1.55a1,1,0,0,0-.36,1.83,1.53,1.53,0,0,0,0,.37,1.28,1.28,0,0,0,.71,2.34H2A3.69,3.69,0,0,0,5.69,14h7.63A3.69,3.69,0,0,0,17,10.63h.13a1.28,1.28,0,0,0,1.28-1.28A1.25,1.25,0,0,0,17.91,8.34Zm-1,.75a1.35,1.35,0,0,1-1.67.14l0,0a4,4,0,0,0-3.88-.37,4.15,4.15,0,0,1-3.48-.08,4.43,4.43,0,0,0-3.19,0,5,5,0,0,1-1.51.3,1.58,1.58,0,0,1-1.32-.44.82.82,0,0,1-.1-.24h0a1,1,0,0,1,0-.39H17.28A1,1,0,0,1,17,9.09ZM2.57,6A4.2,4.2,0,0,1,6.76,1.76h5.49A4.2,4.2,0,0,1,16.44,6v.14H2.57Zm-1,.72H17.46a.37.37,0,0,1,.38.37.38.38,0,0,1-.38.37H1.55A.38.38,0,0,1,1.17,7,.37.37,0,0,1,1.55,6.67Zm11.77,6.79H5.69a3.13,3.13,0,0,1-3.11-2.83H16.43A3.13,3.13,0,0,1,13.32,13.46Zm3.81-3.41H1.88a.7.7,0,0,1-.71-.7.7.7,0,0,1,.18-.46l0,.07a2,2,0,0,0,1.8.68,5.83,5.83,0,0,0,1.68-.32,3.78,3.78,0,0,1,2.82,0,4.66,4.66,0,0,0,3.9.07,3.37,3.37,0,0,1,3.33.32l0,0A1.75,1.75,0,0,0,16,10a2.09,2.09,0,0,0,1.36-.51,1.77,1.77,0,0,0,.4-.52.68.68,0,0,1,.1.35A.7.7,0,0,1,17.13,10.05Z" transform="translate(-0.6 -1.19)"/></svg>