<svg width="825" height="702" viewBox="0 0 825 702" fill="none" xmlns="http://www.w3.org/2000/svg">
<g opacity="0.04" clip-path="url(#clip0_238_453)">
<path d="M421.827 702C616.034 702 773.47 544.852 773.47 351C773.47 157.148 616.034 0 421.827 0C227.62 0 70.1838 157.148 70.1838 351C70.1838 544.852 227.62 702 421.827 702Z" fill="white"/>
<path d="M421.827 682.044C604.992 682.044 753.477 533.831 753.477 351C753.477 168.17 604.992 19.9561 421.827 19.9561C238.661 19.9561 90.1763 168.17 90.1763 351C90.1763 533.831 238.661 682.044 421.827 682.044Z" fill="#FAFAFA"/>
<path d="M129.507 304.724C121.34 304.724 114.053 301.833 108.978 296.588C103.902 291.342 101.247 283.968 101.543 275.42C102.102 260.458 97.9175 245.703 89.5845 233.254C85.6919 227.309 81.0208 224.411 74.9795 224.131C66.5481 223.758 57.5094 223.292 48.4552 222.476C36.7774 221.419 22.2657 218.497 13.6942 205.146C2.79489 188.128 -1.65048 169.586 0.544957 150.027C2.43677 133.156 11.1562 121.189 26.4697 114.444L28.8987 113.379C39.9538 108.538 50.3937 103.96 59.1521 96.2361L74.3489 82.8467L72.0133 102.942C71.7312 104.986 71.06 106.956 70.0358 108.747C69.8724 109.058 69.7089 109.377 69.6388 109.524C63.9004 123.541 54.0247 135.483 41.3239 143.763C31.0864 150.516 27.3106 164.745 32.4566 176.821C34.7921 182.315 41.7988 195.091 55.3996 195.091C57.5664 195.074 59.7212 194.768 61.8069 194.182C68.8136 192.239 75.6256 189.247 82.827 186.084L84.7499 185.245C92.2237 181.966 99.7832 178.422 107.101 174.98C111.99 171.661 114.816 166.431 116.521 157.503C116.778 156.158 116.965 154.721 117.168 153.197C117.436 150.81 117.833 148.439 118.359 146.095C119.363 141.898 120.492 137.143 122.672 132.62C130.862 115.57 144.836 103.774 164.206 97.5727C171.719 95.1637 178.095 94.0447 184.276 94.0447C187.557 94.0607 190.827 94.4254 194.031 95.1326C208.512 98.241 219.722 111.506 220.127 125.999L220.812 151.457L206.02 130.724C200.835 123.473 194.887 120.093 187.297 120.093C184.669 120.122 182.054 120.472 179.512 121.134C174.18 122.603 168.99 124.543 164.003 126.931C155.704 130.739 149.71 137.143 146.183 145.955C144.229 150.843 142.29 156.197 139.994 162.81C137.144 171.141 133.392 177.272 128.168 182.098C126.528 183.624 124.768 185.017 122.905 186.263C121.107 187.716 119.402 189.099 117.79 190.545C104.618 202.326 106.634 211.526 109.857 218.171C110.753 220.02 111.671 221.862 112.59 223.696C115.548 229.33 118.168 235.135 120.437 241.08C122.664 247.296 123.949 253.606 125.186 259.73C125.459 261.082 125.731 262.442 126.019 263.794C126.42 265.899 126.68 268.027 126.798 270.166C126.868 271.573 127.022 272.974 127.257 274.363C127.88 277.525 128.814 277.525 129.165 277.525C129.74 277.507 130.311 277.413 130.862 277.246C137.144 275.482 141.925 273.399 145.475 270.866C152.481 265.9 159.395 260.507 166.113 255.324C172.341 250.451 178.85 245.424 185.436 240.66C196.647 232.563 211.906 222.701 230.411 218.272C234.812 217.17 239.328 216.593 243.864 216.554C251.162 216.503 258.347 218.357 264.705 221.932L283.117 232.135L262.541 236.262C245.055 239.828 228.504 247.537 208.893 261.261C202.486 265.745 196.071 270.586 189.866 275.194C183.272 280.144 176.444 285.296 169.508 290.083C156.514 299.113 144.595 303.737 132.1 304.631C131.212 304.693 130.348 304.724 129.507 304.724Z" fill="#605C5F"/>
<path d="M8.28351 150.897C9.84055 137.189 16.5592 127.312 29.615 121.561C41.6432 116.269 53.9438 111.21 64.306 102.072C64.1113 103.766 63.0915 105.095 62.4764 106.579C57.3582 119.181 48.4851 129.91 37.0577 137.313C23.5348 146.242 18.6924 164.426 25.3331 179.914C32.1997 195.922 46.2598 206.584 63.9167 201.672C72.1457 199.396 80.0477 195.805 87.9108 192.347C95.6493 188.959 103.302 185.353 110.963 181.763C118.989 176.595 122.407 168.312 124.198 158.955C124.898 155.287 125.093 151.511 125.965 147.889C126.93 143.849 127.927 139.691 129.717 135.969C137.316 120.155 150.13 110.247 166.619 104.962C174.981 102.282 183.576 100.751 192.404 102.631C203.366 104.963 212.046 114.964 212.35 126.123C203.412 113.612 191.618 109.983 177.628 113.511C171.829 115.084 166.188 117.183 160.773 119.782C150.434 124.522 143.194 132.441 138.974 142.978C136.701 148.659 134.638 154.417 132.652 160.206C130.566 166.299 127.685 171.863 122.905 176.3C121.484 177.624 119.953 178.825 118.328 179.89C116.397 181.445 114.435 182.999 112.621 184.662C101.216 194.857 95.8439 206.91 102.866 221.457C106.416 228.793 110.387 235.989 113.135 243.612C115.642 250.606 116.887 258.012 118.421 265.294C119.145 268.721 118.974 272.334 119.651 275.769C121.115 283.167 125.794 286.648 132.995 284.636C138.935 282.973 145.062 280.641 150.029 277.105C163.645 267.407 176.499 256.613 190.037 246.799C202.899 237.473 216.546 229.43 232.249 225.677C241.879 223.346 251.369 223.26 260.953 228.568C239.582 232.927 221.458 242.874 204.393 254.818C191.073 264.143 178.375 274.347 165.023 283.625C154.996 290.619 144.05 295.903 131.508 296.836C118.966 297.768 108.814 290.176 109.32 275.652C109.918 259.09 105.289 242.758 96.0853 228.964C91.2117 221.535 84.6176 216.748 75.3143 216.329C66.5793 215.94 57.8442 215.481 49.1404 214.697C37.8518 213.679 26.7968 211.138 20.2338 200.911C10.5179 185.789 6.25935 168.957 8.28351 150.897Z" fill="white"/>
<path d="M241.832 148.644C237.94 140.624 237.605 132.48 240.828 125.719C244.145 118.725 251.073 113.69 260.291 111.483C265.951 110.131 266.13 109.081 266.255 108.32L266.395 107.488C267.173 102.826 267.952 98.0855 267.173 94.5497C263.6 78.4171 248.006 66.2633 230.902 66.2633C227.706 66.261 224.524 66.6897 221.443 67.5378C213.658 69.6903 211.268 73.7002 212.988 81.8519C213.184 82.8461 213.327 83.85 213.416 84.8593C213.416 85.1391 213.471 85.4266 213.51 85.7063L215.682 102.958L201.357 93.0655C197.883 90.7159 194.85 87.7751 192.396 84.3775C184.494 73.2805 184.891 64.3905 186.612 58.8964C188.332 53.4023 193.105 45.8412 205.997 41.1941C212.842 38.8002 220.052 37.6117 227.305 37.6816C249.929 37.6816 273.425 48.0404 287.166 64.103C292.451 70.1586 296.916 76.881 300.447 84.0977C305.422 94.5186 306.341 104.559 303.094 113.138C299.98 121.398 293.044 128.027 283.063 132.286L281.459 132.969C275.457 135.526 269.781 137.943 264.729 141.098C262.448 142.52 260.244 144.797 257.909 147.214C256.718 148.449 255.48 149.724 254.156 150.967L246.418 158.249L241.832 148.644Z" fill="#605C5F"/>
<path d="M262.128 119.036C267.383 117.785 272.927 115.857 273.962 109.586C274.873 104.092 275.978 98.1396 274.811 92.8709C269.423 68.5632 243.366 53.4331 219.403 60.0462C207.647 63.2867 202.844 71.3375 205.39 83.4524C205.615 84.5093 205.67 85.605 205.81 86.6774C203.079 84.8392 200.694 82.5348 198.764 79.87C188.971 66.1231 192.762 54.2257 208.66 48.5063C231.595 40.2457 264.277 49.2834 281.272 69.1149C286.108 74.6557 290.199 80.8027 293.441 87.4001C301.008 103.245 297.637 117.575 280.019 125.105C273.417 127.926 266.683 130.684 260.626 134.469C256.165 137.251 252.708 141.634 248.839 145.271C242.914 132.969 248.029 122.401 262.128 119.036Z" fill="white"/>
<path d="M148.472 245.112C159.472 228.7 171.501 215.435 185.242 204.548C197.324 194.982 213.424 184.149 233.564 181.95C230.081 175.506 227.349 168.685 225.421 161.621C219.715 141.113 224.775 123.224 240.478 108.467L252.739 117.684C248.294 126.286 248.948 135.51 251.307 146.708C255.495 166.61 263.81 180.256 277.481 189.666C282.362 193.031 286.084 197.663 289.073 201.75C295.659 210.749 296.313 224.286 290.576 232.547L280.338 247.312L276.227 228.21C276.017 227.208 275.807 226.237 275.589 225.273C273.137 214.394 266.909 208.659 256.001 207.299C253.85 207.03 251.684 206.895 249.516 206.895C239.216 206.895 229.142 210.065 219.582 216.321C212.303 221.084 205.008 226.221 197.955 231.187C192.085 235.329 186.004 239.61 179.901 243.706C175.097 246.923 170.099 249.752 165.272 252.495C163.163 253.684 160.991 254.919 158.896 256.147L148.472 245.112Z" fill="#605C5F"/>
<path d="M215.316 209.824C201.848 218.644 188.932 228.296 175.557 237.256C168.939 241.701 161.831 245.415 154.942 249.456C164.86 234.691 176.312 221.566 190.084 210.656C206.892 197.344 224.946 187.195 247.975 189.736C240.993 180.788 235.885 170.529 232.957 159.569C228.014 141.813 232.436 126.752 245.85 114.14C240.104 125.26 241.311 136.878 243.724 148.332C247.788 167.651 256.181 184.436 273.09 196.085C276.897 198.712 280.05 202.574 282.822 206.358C287.571 212.847 287.975 222.678 284.207 228.117C283.857 226.501 283.553 225.009 283.219 223.548C280.105 209.607 271.237 201.338 256.99 199.567C241.832 197.709 227.874 201.595 215.316 209.824Z" fill="white"/>
<path d="M208.138 187.685C208.045 187.25 207.959 186.83 207.865 186.418C207.173 183.31 205.849 182.113 202.813 181.756C202.038 181.657 201.258 181.608 200.477 181.608C196.554 181.651 192.733 182.867 189.508 185.097C186.332 187.18 183.108 189.449 179.994 191.64C177.355 193.505 174.63 195.425 171.867 197.274C169.593 198.829 167.289 200.103 165.07 201.362C164.136 201.89 163.209 202.419 162.291 202.955L151.874 191.936C156.582 184.707 162.402 178.264 169.118 172.842C173.79 169.12 179.776 165.017 187.11 162.965C186.529 161.448 186.01 159.873 185.553 158.241C182.587 147.587 185.327 137.92 193.463 130.265L205.709 139.513C204.494 141.844 204.424 144.68 205.46 149.615C207.079 157.331 210.224 162.561 215.339 166.089C217.757 167.857 219.862 170.016 221.567 172.477C225.585 177.963 225.896 186.006 222.299 191.197L212.069 205.962L208.138 187.685Z" fill="white"/>
<path d="M193.066 156.189C190.863 148.278 192.832 141.572 198.811 135.984C196.25 140.934 196.787 146.087 197.861 151.216C199.675 159.826 203.405 167.301 210.948 172.492C212.634 173.773 214.098 175.319 215.285 177.07C217.402 179.96 217.581 184.359 215.9 186.776C215.744 186.061 215.604 185.4 215.456 184.74C214.063 178.523 210.123 174.847 203.778 174.062C197.245 173.277 190.649 174.896 185.226 178.616C179.224 182.54 173.47 186.845 167.507 190.84C164.564 192.814 161.396 194.477 158.328 196.279C162.607 189.733 167.89 183.898 173.984 178.989C181.474 173.052 189.516 168.529 199.777 169.664C196.654 165.669 194.372 161.085 193.066 156.189V156.189Z" fill="white"/>
<path d="M40.6 143.025C50.8064 138.479 56.404 130.079 59.2845 114.933C59.6426 113.029 59.9073 111.048 60.1798 108.934C60.5351 105.8 61.0548 102.688 61.7369 99.6087C63.0681 94.0447 64.5707 87.7502 67.3811 81.8986C78.1403 59.5104 96.5212 44.0228 122.01 35.8555C131.905 32.685 140.274 31.1929 148.347 31.1929C152.583 31.1869 156.808 31.6271 160.952 32.5062C179.356 36.4539 193.65 53.3092 194.117 71.7109L194.802 97.1608L180.018 76.4823C172.544 66.0225 163.513 60.9403 152.411 60.9403C148.635 60.9799 144.878 61.4809 141.224 62.4323C133.369 64.4139 125.654 67.7632 119.737 70.4597C107.841 75.8994 99.246 85.0847 94.1934 97.7048C91.5309 104.365 88.8528 111.693 85.7698 120.668C82.0563 131.509 77.2061 139.451 70.4797 145.66C62.4609 153.042 53.8971 157.044 44.4381 157.86L40.6 143.025Z" fill="#605C5F"/>
<path d="M139.324 54.8556C131.485 56.8217 123.855 59.9689 116.49 63.3493C102.477 69.7759 92.683 80.4921 86.9609 94.7752C83.8468 102.461 81.083 110.271 78.3971 118.088C75.5711 126.341 71.6785 133.894 65.1622 139.886C59.1053 145.481 52.2076 149.366 43.7373 150.097C58.4358 143.554 64.1268 130.926 66.9139 116.371C67.8637 111.405 68.1284 106.268 69.304 101.388C70.6119 95.902 71.9743 90.2758 74.3955 85.2324C84.6876 63.8156 102.049 50.3873 124.377 43.2691C135.704 39.64 147.343 37.5652 159.309 40.1607C174.155 43.3468 185.919 56.8605 186.324 71.9751C174.257 54.9955 158.274 50.0609 139.324 54.8556Z" fill="white"/>
<path d="M424.038 410.977C428.427 392.328 434.606 374.146 442.489 356.681C449.223 341.877 458.332 328.542 465.517 318.603C476.105 303.908 490.882 296.456 509.434 296.456C513.571 296.462 517.702 296.789 521.789 297.435C544.07 300.893 562.957 325.527 563.915 336.538C564.91 348.304 563.371 360.145 559.399 371.267L558.193 374.764L514.05 390.896L522.684 373.466C525.294 368.201 527.554 362.77 529.45 357.209C529.8 356.183 530.189 355.158 530.571 354.163C531.24 352.422 532.455 349.267 532.377 348.016C532.242 347.918 532.101 347.827 531.956 347.744C531.767 347.625 531.559 347.538 531.341 347.488C530.026 347.682 526.849 351.56 525.495 353.215L524.654 354.241C515.561 365.252 507.83 377.997 501.065 393.134L499.726 396.134L420.69 425.05L424.038 410.977Z" fill="#605C5F"/>
<path d="M359.638 230.822L359.849 230.449C361.958 226.719 366.918 218.015 375.839 218.015C383.049 218.015 388.895 223.579 395.995 232.555L396.167 232.772C396.283 232.92 396.392 233.068 396.517 233.207C411.309 247.568 407.113 262.457 401.803 273.826C388.14 303.1 375.248 333.414 362.776 362.726L356.851 376.629L371.441 365.423L372.756 364.366C373.465 363.783 374.267 363.131 375.147 362.493C383.173 356.634 391.752 353.541 399.966 353.541C414.579 353.541 426.794 362.952 433.442 379.372C436.556 386.98 432.944 396.219 431.768 398.869C428.701 405.801 425.369 413.261 421.29 422.353L419.943 425.345L340.642 454.323L346.746 438.385C348.506 433.792 349.86 430.272 351.082 426.961C351.565 425.651 352.009 424.293 352.414 422.889C343.461 426.884 335.068 434.375 333.262 441.151L331.137 449.155L328.599 458.729L248.862 487.902L359.638 230.822Z" fill="#605C5F"/>
<path d="M379.74 368.733C378.518 369.619 377.404 370.622 376.19 371.547L339.319 399.887C340.448 396.08 340.783 394.347 341.468 392.761C359.062 351.94 375.948 310.777 394.75 270.508C400.737 257.686 400.978 248.338 391.052 238.717C390.634 238.281 390.243 237.819 389.884 237.334C378.72 223.229 373.714 221.792 366.622 234.28L263.156 474.403L322.114 452.839C323.323 448.275 324.532 443.716 325.742 439.162C329.183 426.262 347.992 412.842 363.22 412.259C361.554 418.336 360.425 424.179 358.377 429.681C356.945 433.51 355.494 437.338 354.025 441.167L414.205 419.183C417.719 411.37 421.209 403.555 424.676 395.738C426.451 391.728 427.79 386.001 426.233 382.302C417.358 360.395 398.354 355.158 379.74 368.733Z" fill="white"/>
<path d="M608.034 306.962L608.166 306.674C626.251 265.488 643.659 230.021 661.378 198.331C671.841 179.626 678.155 168.335 688.245 161.66C698.334 154.985 710.402 153.663 732.496 151.13C734.995 150.843 737.58 150.54 740.063 150.097C742.375 149.672 744.719 149.451 747.07 149.436C755.937 149.436 761.239 152.956 764.127 155.909C768.549 160.424 770.698 166.75 770.511 174.692C770.13 191.089 767.459 207.33 765.171 219.701C762.882 232.073 760.063 244.188 757.315 256.031C755.712 262.97 754.053 270.143 752.535 277.199C750.355 287.301 744.353 293.883 734.676 296.758C725.552 299.47 716.505 302.462 706.929 305.625C702.826 306.985 698.638 308.368 694.333 309.767L681.386 313.987L684.36 300.683C686.431 291.435 689.179 282.468 691.826 273.795C694.691 264.47 697.478 255.339 699.339 246.224C683.647 274.639 670.26 304.264 659.307 334.813L658.03 338.217L588.454 363.667L608.034 306.962Z" fill="#605C5F"/>
<path d="M615.297 309.791L601.198 350.751L651.958 332.148C666.75 290.845 685.839 251.943 708.658 214.604C712.667 245.315 698.63 272.451 691.935 302.346C706.275 297.683 719.292 293.2 732.473 289.283C739.697 287.13 743.372 282.685 744.929 275.528C749.047 256.419 753.96 237.45 757.518 218.256C760.196 203.825 762.399 189.115 762.742 174.482C763.053 160.86 754.731 155.334 741.433 157.72C738.763 158.194 736.069 158.497 733.376 158.816C690.238 163.766 689.35 164.217 668.175 202.085C648.61 237.116 631.366 273.181 615.297 309.791Z" fill="white"/>
<path d="M574.526 625.067C573.327 624.29 572.089 623.591 570.89 622.915C567.909 621.244 564.818 619.511 562.428 616.48L558.948 612.098C548.975 599.524 538.66 586.523 529.45 572.924C525.308 566.8 523.533 559.775 524 551.453L524.07 550.396L586.196 370.303L655.539 344.939L650.954 359.89C650.284 362.058 649.638 364.218 648.999 366.379C677.026 364.203 703.496 362.058 729.024 353.945C753.337 346.174 772.948 331.464 787.327 310.148C788.799 307.957 790.161 305.975 791.469 304.102C792.288 302.976 793.353 302.051 794.583 301.398C794.809 301.266 795.128 301.079 795.603 300.776L804.758 294.979L807.335 305.493C808.742 311.27 810.159 317.018 811.586 322.737C816.063 340.781 820.687 359.447 824.743 377.864C826.3 384.99 821.076 392.629 818.094 395.668C793.703 420.535 764.291 433.101 730.69 433.101C720.605 433.047 710.551 432.006 700.67 429.992C686.174 427.094 671.592 423.659 657.501 420.341C650.494 418.693 643.277 416.991 636.169 415.383C635.804 415.297 635.391 415.227 634.978 415.157L583.814 631.152L574.526 625.067Z" fill="#605C5F"/>
<path d="M799.721 307.335C798.328 308.221 797.993 308.322 797.837 308.547C796.462 310.506 795.105 312.482 793.766 314.477C778.39 337.284 757.58 352.99 731.375 361.336C701.573 370.832 670.596 372.409 638.443 375.005C640.036 369.156 641.718 363.359 643.488 357.613L592.339 376.326L531.793 551.95C531.45 557.677 532.315 563.327 535.888 568.603C546.009 583.5 557.336 597.566 568.516 611.693C570.688 614.437 574.565 615.843 578.777 618.602C595.772 546.79 612.347 476.781 628.968 406.539C633.125 407.138 635.523 407.317 637.843 407.837C659.276 412.694 680.6 418.095 702.141 422.4C744.446 430.839 781.815 421.467 812.505 390.22C815.105 387.57 817.791 382.651 817.106 379.52C811.812 355.461 805.7 331.65 799.721 307.335Z" fill="white"/>
<path d="M124.307 602.943C108.448 602.943 95.9529 596.042 88.1677 582.987C84.6098 577.035 81.3011 571.121 78.3194 565.425L74.2166 557.576L121.045 540.48L124.556 543.907C127 546.285 130.418 547.497 134.677 547.497C136.79 547.463 138.894 547.203 140.951 546.72C167.016 541.032 188.177 527.293 205.429 514.556C209.111 511.844 212.731 508.844 215.845 506.241L216.889 505.371L246.597 494.491L219.473 557.436L217.963 558.648C212.14 563.311 207.227 567.127 202.509 570.655C182.081 585.94 160.352 596.252 137.939 601.327C133.468 602.367 128.897 602.909 124.307 602.943V602.943Z" fill="#605C5F"/>
<path d="M220.875 512.209C217.34 515.162 213.79 518.092 210.084 520.812C189.601 535.911 168.044 548.787 142.641 554.32C131.882 556.651 124.104 554.32 119.114 549.432L85.217 561.827C88.2766 567.663 91.5075 573.406 94.8551 579.016C103.738 593.905 119.27 597.604 136.249 593.781C159.005 588.629 179.372 578.301 197.877 564.469C202.992 560.638 208.037 556.698 213.12 552.618L232.334 508.028L220.875 512.209Z" fill="white"/>
<path d="M273.44 620.987C266.94 613.457 246.971 585.482 241.365 576.832C224.191 550.023 230.217 531.489 230.964 529.429L231.034 529.227L245.896 494.748L326.863 465.125L323.063 479.524C311.775 522.265 288.489 611.522 286.885 617.809L283.195 632.286L273.44 620.987Z" fill="white"/>
<path d="M251.72 500.926L238.275 532.134C238.275 532.134 232.334 548.305 247.928 572.644C253.44 581.247 273.199 608.771 279.357 615.921C281.078 609.168 304.581 519.11 315.551 477.597L251.72 500.926Z" fill="white"/>
<path d="M347.346 574.525C343.038 574.565 338.766 573.738 334.786 572.091C330.806 570.445 327.201 568.014 324.185 564.943C318.058 558.664 314.842 550.015 315.068 540.589C315.364 528.932 318.003 516.258 323.367 500.623C327.735 487.871 332.561 475.157 336.703 464.394L337.972 461.099L416.852 432.246L406.482 455.186C399.094 471.505 391.449 488.415 384.037 505.06C383.399 506.49 382.831 507.959 382.293 509.474L384.419 507.92C389.02 504.477 393.761 500.926 398.798 497.67C409.557 490.738 414.197 482.283 415.349 467.534C416.198 456.654 417.467 445.93 419.133 435.673L419.857 431.173L496.471 403.151L492.26 415.67C496.884 410.806 501.018 406.065 504.794 401.325L506.156 399.608L557.025 381.004L544.569 400.431C532.947 418.378 518.787 434.554 502.528 448.456C500.753 450.01 498.947 451.479 497.203 452.932C493.3 456.047 489.568 459.37 486.024 462.887C485.16 463.788 484.241 464.69 483.307 465.614C480.123 468.762 476.16 472.686 475.615 475.383C473.326 486.752 475.475 497.491 481.843 506.467C482.402 507.309 483.072 508.072 483.836 508.736C484.294 508.439 484.724 508.1 485.121 507.725C491.979 501.338 499.041 494.958 505.86 488.788C517.896 477.846 530.353 466.586 541.945 455.077L554.798 463.112L544.031 494.344L542.653 495.649C535.055 502.845 526.452 511.005 517.741 518.729C511.894 523.936 505.713 528.793 499.733 533.494C496.783 535.825 493.739 538.157 490.804 540.581C484.731 545.5 477.896 548.096 471.022 548.096C464.793 548.096 458.69 546.044 452.975 541.988C445.253 536.501 438.043 530.199 431.068 524.114L426.856 520.439L420.379 526.112C410.258 534.97 399.834 544.125 389.02 553.139C381.751 559.241 373.965 564.701 365.75 569.458C360.151 572.719 353.796 574.465 347.314 574.525H347.346Z" fill="#605C5F"/>
<path d="M426.809 510.103C437.288 518.931 446.833 528.054 457.491 535.615C466.568 542.058 476.681 541.98 485.891 534.504C494.782 527.3 504.023 520.516 512.563 512.901C520.878 505.495 528.975 497.841 537.258 489.984L547.379 460.555C529.053 478.763 509.333 495.657 490.391 513.297C484.163 519.086 479.437 516.46 475.451 510.849C467.503 499.651 465.377 486.573 467.962 473.766C469.184 467.697 475.607 462.366 480.418 457.4C485.642 452.007 491.715 447.422 497.421 442.496C513.126 429.093 526.797 413.484 538.006 396.157L510.89 406.127C500.598 419.058 488.624 430.769 475.934 441.952C478.449 433.217 481.057 424.529 483.929 415.989L426.809 436.877C425.135 447.213 423.921 457.641 423.103 468.109C421.811 484.661 416.291 495.61 403.018 504.166C394.929 509.381 387.447 515.551 379.569 521.068C377.358 522.622 374.586 523.399 372.071 524.503L370.055 522.848C372.305 515.854 373.948 508.58 376.914 501.905C385.244 483.197 393.649 464.532 402.13 445.907L343.974 467.176C339.381 479.105 334.874 491.064 330.74 503.14C326.606 515.217 323.18 528.155 322.853 540.791C322.3 561.998 343.398 573.32 361.912 562.721C369.735 558.191 377.148 552.991 384.068 547.179C399.063 534.644 413.629 521.62 426.809 510.103Z" fill="white"/>
<path d="M68.9926 545.85C66.1277 539.143 63.652 532.522 61.6356 526.166C55.1739 505.759 61.8847 485.485 67.8015 467.588C68.2842 466.127 68.7669 464.674 69.234 463.229C82.8737 421.421 105.256 379.784 137.674 335.955C162.976 301.763 188.13 277.991 216.826 261.183C233.798 251.252 249.477 246.418 264.752 246.418C267.933 246.419 271.111 246.627 274.266 247.04C280.641 247.94 286.548 250.892 291.089 255.448C303.865 268.868 308.84 285.296 305.477 302.952C303.141 315.137 300.556 327.384 298.049 339.219C296.96 344.364 295.87 349.492 294.811 354.582L293.76 359.649L288.668 360.636C286.534 361.075 284.362 361.312 282.183 361.343C273.791 361.343 268.255 356.681 266.613 348.257C266.2 346.166 265.834 344.371 259.396 344.255H258.703C248.286 344.255 238.5 348.14 226.978 356.875C206.643 372.285 188.457 392.194 169.726 419.54C145.078 455.535 130.62 485.158 122.866 515.582C122.088 518.69 121.356 522.047 120.531 526.539C120.322 527.679 120.184 528.832 120.118 529.989L119.838 535.102L71.8965 552.642L68.9926 545.85Z" fill="#605C5F"/>
<path d="M76.155 542.796L112.348 529.585C112.427 528.099 112.601 526.619 112.87 525.155C113.579 521.27 114.357 517.47 115.322 513.685C124.532 477.566 142.462 445.612 163.303 415.18C179.878 390.966 198.671 368.593 222.268 350.681C233.284 342.335 245.211 336.235 259.528 336.476C266.745 336.6 272.685 338.722 274.25 346.765C275.55 353.409 279.7 354.435 287.189 352.981C290.708 336.056 294.523 318.789 297.831 301.475C300.798 285.895 296.228 272.109 285.445 260.779C282.127 257.517 277.854 255.397 273.246 254.725C254.164 252.223 236.858 258.447 220.765 267.866C189.578 286.128 165.241 311.749 143.941 340.548C115.478 379.022 91.5152 419.998 76.6377 465.614C70.5341 484.342 62.8734 504.267 69.0627 523.803C71.0946 530.222 73.4847 536.524 76.155 542.796Z" fill="white"/>
<path d="M493.957 389.971C500.387 375.548 508.274 361.833 518.652 349.298C522.918 344.13 528.212 336.756 535.779 340.96C543.697 345.381 538.893 353.58 536.846 359.703C534.845 365.591 532.452 371.339 529.683 376.908L552.027 368.741C555.623 358.64 557.027 347.89 556.145 337.206C555.468 329.435 539.018 307.98 520.574 305.112C500.613 302.004 483.766 306.589 471.855 323.118C463.493 334.72 455.506 346.928 449.597 359.89C441.918 376.899 435.903 394.608 431.636 412.771L493.957 389.971Z" fill="white"/>
</g>
<defs>
<clipPath id="clip0_238_453">
<rect width="825" height="702" fill="white"/>
</clipPath>
</defs>
</svg>
