<svg width="394" height="566" viewBox="0 0 394 566" fill="none" xmlns="http://www.w3.org/2000/svg">
<path d="M217.529 475.363C220.047 469.563 223.349 464.136 227.342 459.235C229.032 457.184 231.126 454.26 234.108 455.929C237.237 457.681 235.351 460.932 234.528 463.36C233.737 465.694 232.792 467.972 231.698 470.18L240.53 466.945C241.956 462.94 242.514 458.677 242.166 454.44C241.899 451.352 235.4 442.852 228.1 441.717C220.206 440.484 213.544 442.301 208.833 448.853C205.524 453.452 202.362 458.292 200.029 463.436C196.998 470.181 194.624 477.202 192.941 484.403L217.529 475.363Z" fill="#F6941D"/>
<path d="M172.377 466.939C171.897 467.294 171.45 467.692 170.976 468.03L156.392 479.269C156.839 477.764 156.97 477.087 157.242 476.449C164.199 460.261 170.872 443.943 178.314 427.974C180.685 422.889 180.784 419.185 176.853 415.366C176.685 415.195 176.531 415.013 176.389 414.82C171.979 409.228 169.994 408.65 167.192 413.609L126.271 508.812L149.588 500.296C150.068 498.477 150.546 496.67 151.022 494.873C152.385 489.755 159.821 484.436 165.846 484.207C165.186 486.613 164.755 488.932 163.926 491.114C163.381 492.636 162.787 494.153 162.209 495.664L186.012 486.935C187.397 483.836 188.776 480.744 190.15 477.66C190.853 476.067 191.371 473.797 190.777 472.33C187.255 463.633 179.742 461.56 172.377 466.939Z" fill="#F6941D"/>
<path d="M265.538 443.556L259.95 459.792L280.034 452.432C285.892 436.168 293.406 420.549 302.458 405.823C304.044 418.001 298.494 428.738 295.845 440.615C301.52 438.765 306.661 436.987 311.873 435.432C314.735 434.581 316.196 432.819 316.807 429.976C318.443 422.398 320.378 414.885 321.785 407.269C322.926 401.555 323.613 395.759 323.84 389.936C323.965 384.535 320.672 382.342 315.411 383.285C314.359 383.476 313.291 383.602 312.228 383.722C295.169 385.686 294.814 385.866 286.44 400.88C278.71 414.754 271.889 429.054 265.538 443.556Z" fill="#F6941D"/>
<path d="M338.478 442.595C337.933 442.945 337.797 442.988 337.737 443.076C337.192 443.854 336.646 444.638 336.101 445.427C330.274 454.293 321.553 460.861 311.426 464.009C299.639 467.774 287.389 468.374 274.675 469.427C275.308 467.11 275.973 464.811 276.671 462.531L256.444 469.951L232.521 539.578C232.299 541.9 232.876 544.229 234.157 546.179C238.148 552.088 242.64 557.636 247.067 563.267C247.923 564.358 249.455 564.903 251.123 565.995L270.957 481.921C272.593 482.155 273.547 482.226 274.462 482.434C282.94 484.36 291.363 486.498 299.895 488.206C316.6 491.55 331.396 487.851 343.51 475.461C344.541 474.408 345.604 472.46 345.331 471.217C343.254 461.691 340.839 452.236 338.478 442.595Z" fill="#F6941D"/>
<path d="M109.55 523.827C108.154 525 106.747 526.156 105.286 527.242C97.1793 533.243 88.6744 538.323 78.6103 540.527C74.3578 541.454 71.283 540.527 69.3094 538.585L55.9033 543.495C57.1136 545.808 58.3857 548.079 59.7196 550.309C63.2306 556.212 69.3748 557.68 76.0752 556.158C85.0707 554.117 93.1286 550.02 100.445 544.537C102.468 543.02 104.463 541.454 106.475 539.839L114.075 522.157L109.55 523.827Z" fill="#F6941D"/>
<path d="M121.751 519.353L116.43 531.727C116.43 531.727 114.085 538.137 120.246 547.789C122.427 551.198 130.239 562.11 132.676 564.947C133.358 562.268 142.653 526.566 146.987 510.094L121.751 519.353Z" fill="#F6941D"/>
<path d="M191.006 523.003C195.149 526.506 198.927 530.096 203.141 533.118C206.729 535.671 210.73 535.644 214.372 532.682C217.889 529.823 221.541 527.128 224.922 524.111C228.193 521.181 231.409 518.142 234.686 515.027L238.698 503.362C231.453 510.58 223.651 517.28 216.16 524.269C213.702 526.566 211.832 525.524 210.251 523.303C208.762 521.194 207.729 518.796 207.219 516.264C206.709 513.732 206.734 511.122 207.29 508.6C207.776 506.188 210.311 504.077 212.197 502.107C214.263 499.969 216.662 498.152 218.919 496.199C225.131 490.885 230.539 484.697 234.975 477.829L224.246 481.746C220.064 486.874 215.438 491.621 210.42 495.931C211.417 492.467 212.448 489.024 213.582 485.636L190.995 493.918C190.335 498.021 189.855 502.151 189.528 506.303C189.021 512.85 186.835 517.214 181.585 520.602C178.39 522.67 175.441 525.114 172.317 527.302C171.372 527.846 170.379 528.3 169.351 528.661L168.549 528.006C169.444 525.234 170.092 522.348 171.275 519.702C174.546 512.288 177.91 504.895 181.247 497.503L158.245 505.937C156.43 510.662 154.647 515.403 153.006 520.193C151.365 524.983 150.019 530.112 149.888 535.12C149.67 543.528 158.011 548.018 165.338 543.817C168.432 542.016 171.363 539.949 174.099 537.641C180.02 532.725 185.783 527.575 191.006 523.003Z" fill="#F6941D"/>
<path d="M52.3378 535.955L66.6543 530.706C66.6857 530.117 66.7549 529.53 66.8615 528.95C67.1395 527.422 67.4448 525.9 67.8265 524.4C71.4683 510.078 78.5612 497.41 86.8044 485.342C93.3466 475.745 100.794 466.874 110.122 459.781C114.483 456.475 119.194 454.058 124.842 454.151C127.699 454.2 130.043 455.04 130.665 458.232C131.177 460.861 132.845 461.271 135.784 460.703C137.174 453.993 138.684 447.157 139.987 440.282C141.165 434.101 139.36 428.64 135.081 424.144C133.77 422.852 132.082 422.011 130.261 421.743C122.71 420.75 115.868 423.216 109.506 426.954C97.1683 434.194 87.5404 444.352 79.1173 455.771C67.8646 471.047 58.4002 487.273 52.5013 505.359C50.0916 512.784 47.0495 520.684 49.5082 528.431C50.3151 530.968 51.2474 533.478 52.3378 535.955Z" fill="#F6941D"/>
<path d="M196.997 394.279C305.796 394.279 393.995 306.017 393.995 197.14C393.995 88.2624 305.796 0 196.997 0C88.1987 0 0 88.2624 0 197.14C0 306.017 88.1987 394.279 196.997 394.279Z" fill="#384041"/>
<path d="M134.421 319.114C133.739 320.92 132.126 322.983 132.545 324.478C133.745 328.76 134.906 333.567 137.692 336.748C140.99 340.501 146.219 341.423 150.591 337.555C155.498 333.223 160.039 328.509 164.766 323.965C173.205 315.781 183.008 311.613 194.958 313.419C196.697 313.588 198.451 313.531 200.176 313.25C209.989 312.12 218.679 314.886 226.05 321.335C230.205 324.985 233.999 329.06 237.903 332.989C245.486 340.627 249.019 341.532 255.501 337.44C262.169 333.229 263.134 328.864 259.617 319.224C266.29 324.854 267.795 333.059 263.515 340.845C258.75 349.574 248.468 353.508 238.818 350.223C237.136 349.69 235.544 348.904 234.097 347.894C209.4 329.611 184.861 329.682 159.914 347.703C151.234 353.972 139.769 352.117 133.091 344.719C126.15 337.053 126.336 327.986 134.421 319.114Z" fill="white"/>
<path d="M196.812 344.937C197.57 344.937 198.371 344.762 199.063 344.937C203.376 346.219 207.661 347.588 211.957 348.925C209.373 352.695 207.225 356.907 204.052 360.088C201.871 362.27 196.795 365.036 195.547 364.114C190.46 360.355 186.279 355.336 182.086 350.507C181.847 350.229 184.12 346.617 185.701 346.143C189.228 345.051 193.056 345.008 196.763 344.506L196.812 344.937Z" fill="white"/>
<path d="M171.657 282.905C162.389 289.086 155.34 289.113 146.867 282.905H171.657Z" fill="white"/>
<path d="M247.639 282.239C237.979 289.08 230.859 289.135 221.002 282.239H247.639Z" fill="white"/>
<path d="M269.36 87.0962C278.208 89.6659 286.593 91.2699 294.291 94.4997C312.729 102.247 326.49 114.823 330.442 135.385C333.043 148.943 329.897 161.486 321.572 172.73C312.075 185.546 299.585 193.757 284.221 197.543C280.307 198.509 278.535 200.32 277.619 204.303C274.986 215.76 271.835 227.141 268.858 238.538C268.736 239.075 268.48 239.573 268.114 239.985C267.748 240.397 267.284 240.71 266.765 240.895C267.91 230.714 268.989 220.523 270.232 210.342C270.892 204.936 270.232 198.389 273.116 194.521C275.869 190.789 282.384 189.834 287.242 187.641C298.925 182.376 308.973 174.951 314.959 163.439C325.176 143.798 319.588 122.903 300.877 108.237C289.973 99.6881 277.434 94.9798 264.148 92.8793C264.148 88.1764 264.584 83.7845 264.066 79.5072C262.703 68.2573 256.782 59.4681 248.234 52.3755C221.378 30.1214 172.453 32.1891 147.309 56.4183C137.583 65.8077 132.475 76.7793 134.514 90.5279C134.684 91.9237 134.775 93.3281 134.786 94.7343C134.786 95.0453 134.546 95.3672 134.688 95.018C125.523 97.6313 116.539 99.4481 108.132 102.76C94.6278 108.079 83.7949 116.907 77.9778 130.721C71.8172 145.348 76.4458 163.455 87.9765 174.323C96.9012 182.747 107.249 188.225 118.605 192.3C120.05 192.818 121.876 194.526 122.083 195.901C124.335 210.833 126.303 225.815 127.317 241.097C126.812 240.19 126.384 239.243 126.036 238.265C123.048 227.059 119.908 215.896 117.258 204.592C116.348 200.697 114.751 198.907 110.776 197.805C99.1474 194.581 88.4999 189.19 79.5861 180.892C57.7787 160.52 56.9609 129.062 77.6671 107.326C88.5708 95.8691 102.244 89.404 117.466 85.8032C119.068 85.4267 121.473 83.7354 121.593 82.4751C123.157 65.9986 131.76 53.925 144.676 44.4483C175.163 22.0359 227.958 26.1877 254.602 53.0521C264.044 62.5724 269.371 73.9041 269.36 87.0962Z" fill="white"/>
<path d="M271.077 269.369C280.432 266.188 288.419 254.987 280.929 246.362C272.162 236.263 228.836 249.668 217.524 252.183C195.907 256.984 174.645 263.345 153.628 270.291C144.834 273.199 125.556 283.728 115.743 280.689C107.216 278.049 98.8803 269.669 107.096 261.796C103.482 268.801 108.034 273.406 115.219 274.792C121.576 276.008 134.797 265.757 140.113 262.969C159.843 252.668 180.598 244.223 202.22 238.843C219.165 234.621 272.004 222.476 286.042 239.427C296.619 252.232 285.808 268.545 271.077 269.369Z" fill="white"/>
</svg>
