<svg id="Artwork" xmlns="http://www.w3.org/2000/svg" viewBox="0 0 4800 3200"><defs><style>.cls-1{fill:#384041;}.cls-2{fill:#e7dbf8;}.cls-3{fill:#fff;}.cls-4{fill:#eee2fe;}.cls-5{fill:#f5eefe;}.cls-6{fill:#f2eafe;}.cls-7{fill:#ffea73;}.cls-8{fill:#ffef93;}.cls-9{fill:#fbfaff;}.cls-10{fill:#e9402b;}</style></defs><rect class="cls-1" width="4800" height="3200"/><path class="cls-2" d="M4439.94,1782a103.33,103.33,0,0,1-206.65,0V1638.89a103.33,103.33,0,1,1,206.65,0Z"/><path class="cls-3" d="M4341.28,1673.32v458.34H4332V1673.32a4.67,4.67,0,0,1,9.33,0Z"/><path class="cls-3" d="M4338.14,1786.36a6.16,6.16,0,0,0,4.38-1.81l59.25-59.25a6.19,6.19,0,0,0-8.76-8.76l-59.25,59.25a6.19,6.19,0,0,0,4.38,10.57Z"/><path class="cls-3" d="M2400,318.87c-1001.18,0-1812.79,811.62-1812.79,1812.79H4212.79C4212.79,1130.49,3401.18,318.87,2400,318.87Z"/><path class="cls-3" d="M1744.61,561.87V709.58H2465.1c-72.37-57-110.09,3.25-162.23-47.26s-114-39.1-138.08-31-59.05,6.51-65.57-34.21-53.77-118.94-133.6-128.71-120.56,70.06-120.56,70.06C1780.46,502.45,1749.1,553.68,1744.61,561.87Z"/><path class="cls-3" d="M3399.24,887.66v160.2H2617.81c78.5-61.84,119.41,3.53,176-51.25s123.69-42.4,149.76-33.57,64.05,7.07,71.12-37.1,58.31-129,144.89-139.6,130.76,76,130.76,76C3360.36,823.22,3394.37,878.78,3399.24,887.66Z"/><path class="cls-4" d="M1293.44,922.38v135.29H698.15c59.8-52.23,91,3,134-43.28S926.42,978.58,946.27,986s48.8,6,54.18-31.33,44.43-108.94,110.39-117.89S1210.45,901,1210.45,901C1263.83,868,1289.73,914.88,1293.44,922.38Z"/><polygon class="cls-2" points="1774.6 357.54 1774.6 2131.66 1671.73 2131.66 1671.73 319.54 1774.6 357.54"/><rect class="cls-3" x="1379.91" y="319.54" width="291.82" height="1812.12"/><rect class="cls-4" x="3997.67" y="1271.99" width="302.28" height="53.49"/><rect class="cls-4" x="3997.67" y="1379.6" width="302.28" height="53.49"/><rect class="cls-4" x="3997.67" y="1487.22" width="302.28" height="53.49"/><rect class="cls-4" x="3997.67" y="1594.83" width="302.28" height="53.49"/><rect class="cls-4" x="3997.67" y="1702.44" width="302.28" height="53.49"/><rect class="cls-4" x="3997.67" y="1810.06" width="302.28" height="53.49"/><rect class="cls-4" x="3997.67" y="1917.67" width="302.28" height="53.49"/><rect class="cls-4" x="3997.67" y="2025.28" width="302.28" height="53.49"/><rect class="cls-4" x="3594.23" y="1218.69" width="642.31" height="912.97"/><polygon class="cls-3" points="1280.86 540.56 1280.86 2131.66 1193.91 2131.66 1193.91 572.68 1280.86 540.56"/><rect class="cls-4" x="1280.87" y="540.56" width="246.66" height="1591.1"/><rect class="cls-3" x="1424.14" y="597.22" width="51.39" height="52.31"/><rect class="cls-3" x="1424.14" y="702.46" width="51.39" height="52.31"/><rect class="cls-3" x="1424.14" y="807.71" width="51.39" height="52.31"/><rect class="cls-3" x="1424.14" y="912.94" width="51.39" height="52.31"/><rect class="cls-3" x="1424.14" y="1018.18" width="51.39" height="52.31"/><rect class="cls-3" x="1424.14" y="1123.42" width="51.39" height="52.31"/><rect class="cls-3" x="1424.14" y="1228.67" width="51.39" height="52.31"/><rect class="cls-3" x="1424.14" y="1333.9" width="51.39" height="52.31"/><polygon class="cls-3" points="3652.9 713.5 3652.9 2131.66 3577.36 2131.66 3577.36 741.4 3652.9 713.5"/><rect class="cls-2" x="3652.91" y="713.5" width="214.29" height="1418.16"/><rect class="cls-3" x="3777.37" y="762.72" width="44.64" height="45.44"/><rect class="cls-3" x="3777.37" y="854.15" width="44.64" height="45.44"/><rect class="cls-3" x="3777.37" y="945.58" width="44.64" height="45.44"/><rect class="cls-3" x="3777.37" y="1037.01" width="44.64" height="45.44"/><rect class="cls-3" x="3777.37" y="1128.44" width="44.64" height="45.44"/><rect class="cls-3" x="3777.37" y="1219.87" width="44.64" height="45.44"/><rect class="cls-3" x="3777.37" y="1311.31" width="44.64" height="45.44"/><rect class="cls-3" x="3777.37" y="1402.73" width="44.64" height="45.44"/><polygon class="cls-3" points="3358.2 175.66 3358.2 2131.66 3246.53 2131.66 3246.53 216.91 3358.2 175.66"/><path class="cls-4" d="M3675,492.45V2131.66H3358.21v-1956C3533.17,175.66,3675,317.49,3675,492.45Z"/><rect class="cls-3" x="3437.78" y="528.23" width="237.22" height="64.97"/><rect class="cls-3" x="3437.78" y="658.95" width="237.22" height="64.97"/><rect class="cls-3" x="3437.78" y="789.67" width="237.22" height="64.97"/><rect class="cls-3" x="3437.78" y="920.4" width="237.22" height="64.97"/><rect class="cls-3" x="3437.78" y="1051.12" width="237.22" height="64.97"/><rect class="cls-3" x="3437.78" y="1181.84" width="237.22" height="64.97"/><rect class="cls-3" x="3437.78" y="1312.56" width="237.22" height="64.98"/><rect class="cls-3" x="3437.78" y="1443.29" width="237.22" height="64.97"/><polygon class="cls-3" points="2516.54 485.06 2516.54 2131.66 2413.67 2131.66 2413.67 523.06 2516.54 485.06"/><rect class="cls-4" x="2516.54" y="485.06" width="291.82" height="1646.6"/><rect class="cls-3" x="2612.4" y="624.88" width="195.96" height="58.07"/><rect class="cls-3" x="2612.4" y="741.72" width="195.96" height="58.08"/><rect class="cls-3" x="2612.4" y="858.58" width="195.96" height="58.07"/><rect class="cls-3" x="2612.4" y="975.42" width="195.96" height="58.07"/><rect class="cls-3" x="2612.4" y="1092.27" width="195.96" height="58.08"/><rect class="cls-3" x="2612.4" y="1209.12" width="195.96" height="58.07"/><rect class="cls-3" x="2612.4" y="1325.97" width="195.96" height="58.07"/><rect class="cls-3" x="2612.4" y="1442.81" width="195.96" height="58.08"/><polygon class="cls-3" points="1824.94 687.96 1824.94 2131.66 1744.61 2131.66 1744.61 717.63 1774.6 706.55 1824.94 687.96"/><polygon class="cls-4" points="2052.8 915.82 2052.8 2131.66 1824.94 2131.66 1824.94 687.96 1950.09 813.11 2052.8 915.82"/><polygon class="cls-4" points="3142.23 1210.27 3142.23 2131.66 3081.66 2131.66 3081.66 1232.64 3142.23 1210.27"/><rect class="cls-2" x="3142.23" y="1210.27" width="171.8" height="921.39"/><rect class="cls-3" x="3239.82" y="1299.9" width="40.82" height="41.55"/><rect class="cls-3" x="3239.82" y="1383.5" width="40.82" height="41.55"/><rect class="cls-3" x="3239.82" y="1467.1" width="40.82" height="41.55"/><rect class="cls-3" x="3239.82" y="1550.69" width="40.82" height="41.55"/><rect class="cls-3" x="3239.82" y="1634.29" width="40.82" height="41.55"/><rect class="cls-3" x="3239.82" y="1717.89" width="40.82" height="41.55"/><rect class="cls-3" x="3239.82" y="1801.49" width="40.82" height="41.55"/><rect class="cls-3" x="3239.82" y="1885.08" width="40.82" height="41.55"/><polygon class="cls-4" points="2186.47 861.04 2186.47 2131.66 2102.94 2131.66 2102.94 891.89 2186.47 861.04"/><rect class="cls-2" x="2186.47" y="861.04" width="236.92" height="1270.62"/><rect class="cls-3" x="2321.05" y="984.65" width="56.29" height="57.3"/><rect class="cls-3" x="2321.05" y="1099.93" width="56.29" height="57.3"/><rect class="cls-3" x="2321.05" y="1215.22" width="56.29" height="57.3"/><rect class="cls-3" x="2321.05" y="1330.49" width="56.29" height="57.3"/><rect class="cls-3" x="2321.05" y="1445.78" width="56.29" height="57.3"/><rect class="cls-3" x="2321.05" y="1561.06" width="56.29" height="57.3"/><rect class="cls-3" x="2321.05" y="1676.35" width="56.29" height="57.3"/><rect class="cls-3" x="2321.05" y="1791.62" width="56.29" height="57.3"/><polygon class="cls-3" points="920.59 1023.13 920.59 2131.66 808.91 2131.66 808.91 1064.39 920.59 1023.13"/><path class="cls-4" d="M1237.39,1339.93v791.73H920.59V1023.13c116.48,0,218.28,62.87,273.32,156.53a314.77,314.77,0,0,1,40.74,118.46A318.57,318.57,0,0,1,1237.39,1339.93Z"/><path class="cls-3" d="M1237.39,1339.93v.08H995.86v-41.89h238.79A318.57,318.57,0,0,1,1237.39,1339.93Z"/><rect class="cls-3" x="995.86" y="1382.4" width="241.53" height="41.89"/><rect class="cls-3" x="995.86" y="1466.69" width="241.53" height="41.89"/><rect class="cls-3" x="995.86" y="1550.97" width="241.53" height="41.89"/><rect class="cls-3" x="995.86" y="1635.26" width="241.53" height="41.89"/><rect class="cls-3" x="995.86" y="1719.54" width="241.53" height="41.89"/><rect class="cls-3" x="995.86" y="1803.82" width="241.53" height="41.9"/><path class="cls-2" d="M3050.28,911.55V2131.66H2921V726a197.83,197.83,0,0,1,129.28,185.59Z"/><rect class="cls-3" x="2730.25" y="1110.43" width="213.98" height="1021.23"/><rect class="cls-2" x="2873.95" y="1197.92" width="40.82" height="41.55"/><rect class="cls-2" x="2873.95" y="1281.52" width="40.82" height="41.55"/><rect class="cls-2" x="2873.95" y="1365.12" width="40.82" height="41.55"/><path class="cls-3" d="M4211.62,2131.66H3675v-223c17.1-10.78,76.52-44.16,137.66-30.4,1,.22,2,.45,3,.7l.78.21a51.84,51.84,0,0,1,12.24,4.9q1.93,1.08,3.76,2.32c50.68,34.25,39.72,154.75,35.19,169,5.39-10.41,42.83-74.42,99.69-72.31,50.52,1.88,55.15,91.28,49.79,110.74-3.78,13.69,2.68-5,23.89-19.13a80.16,80.16,0,0,1,8-4.68,77.53,77.53,0,0,1,27.08-8c49-5.36,75.07,42.89,77.37,51.32C4155.55,2121.14,4180.6,2099.56,4211.62,2131.66Z"/><path class="cls-5" d="M3773.08,1492c0,186-124.48,278.06-278,278.06S3217,1678,3217,1492c0-200.89,193.59-378.66,278.06-378.66S3773.08,1291.09,3773.08,1492Z"/><path class="cls-2" d="M3503,1378v751.22l-16-.11V1378a8,8,0,1,1,16,0Z"/><path class="cls-2" d="M3495,1602.85a8,8,0,0,1-5.66-13.65L3608,1470.6a8,8,0,0,1,11.31,11.32l-118.59,118.59A8,8,0,0,1,3495,1602.85Z"/><path class="cls-2" d="M3495,1486a8,8,0,0,1-5.66-2.34l-58-58a8,8,0,1,1,11.31-11.31l58,58A8,8,0,0,1,3495,1486Z"/><path class="cls-2" d="M3844.23,2136.37l-407.92-2.48-17.43-.11-325.64-2c20-161.23,211-102.63,211-102.63,2.53.78,37-42.26,42.35-46.78,20.44-17.18,45.81-32,72.31-40.88a177.42,177.42,0,0,1,17.43-4.88l1.07-.25c99.82-21.85,134.72,60.9,116.93,139.48,39-80.4,153.54-63.21,126,30.59-3.19,10.83,2.25-3.94,20.12-15.15a70.24,70.24,0,0,1,6.75-3.71,68.67,68.67,0,0,1,22.82-6.36c41.33-4.24,63.27,34,65.21,40.63C3797,2128,3818.09,2111,3844.23,2136.37Z"/><path class="cls-3" d="M1416.61,2131.66H850c21-18.63,37.94-6.11,39.37-10.63,1.56-4.89,19.17-32.88,52.34-29.77s43.53,29.77,39.89,18.48-.51-64.25,33.68-64.25,79.8,44.88,76.69,40-23.83-89.76,25.92-100.42a115.18,115.18,0,0,1,40.22-1c2.85.4,5.65.88,8.37,1.43h0c.13,0,.69.06,1.61.18,8.7,1,50.07,7.85,76.36,42.86,28.21,37.59-31-64.2,51.39-91.8a103.53,103.53,0,0,1,10-2.81l2.17-.49C1403.44,1913.08,1458.81,2028.07,1416.61,2131.66Z"/><path class="cls-5" d="M1033,1729.51c0,87,58.25,130.1,130.1,130.1s130.1-43.07,130.1-130.1c0-94-90.58-177.16-130.1-177.16S1033,1635.52,1033,1729.51Z"/><path class="cls-2" d="M1168.1,1655.55v476.11h-10V1655.55a5,5,0,1,1,10,0Z"/><path class="cls-2" d="M1163.1,1807.49a5,5,0,0,1-3.54-1.47l-80.36-80.36a5,5,0,0,1,7.07-7.07l80.37,80.36a5,5,0,0,1-3.54,8.54Z"/><path class="cls-2" d="M1163.1,1728.32a5,5,0,0,1-3.54-8.53l39.31-39.31a5,5,0,1,1,7.07,7.07l-39.3,39.31A5,5,0,0,1,1163.1,1728.32Z"/><path class="cls-2" d="M656,1711a151.22,151.22,0,0,0-302.38,0,13.45,13.45,0,0,0,1.82,26.78H654.22A13.45,13.45,0,0,0,656,1711Z"/><path class="cls-3" d="M1013,1542.92c-3-155.77-130.18-281.13-286.67-281.13s-283.68,125.36-286.66,281.13a25.51,25.51,0,0,0,3.44,50.78h566.44a25.51,25.51,0,0,0,3.45-50.78Z"/><path class="cls-2" d="M1076.65,1806.66a110.93,110.93,0,0,0-221.82,0,9.87,9.87,0,0,0,1.34,19.65h219.15a9.87,9.87,0,0,0,1.33-19.65Z"/><path class="cls-6" d="M942.21,1881.53H726.32a5,5,0,1,1,0-10H942.21A18.55,18.55,0,0,0,960.74,1853v-84.58a5,5,0,0,1,10,0V1853A28.56,28.56,0,0,1,942.21,1881.53Z"/><path class="cls-6" d="M965.74,1820.49a5,5,0,0,1-3.53-1.47L928.15,1785a5,5,0,0,1,7.07-7.07L969.28,1812a5,5,0,0,1-3.54,8.54Z"/><path class="cls-6" d="M726.32,1783.88H528.38a28.57,28.57,0,0,1-28.53-28.54v-99.79a5,5,0,0,1,10,0v99.79a18.56,18.56,0,0,0,18.53,18.54H726.32a5,5,0,1,1,0,10Z"/><path class="cls-6" d="M504.85,1719.58a5,5,0,0,1-3.53-8.53l35-35a5,5,0,1,1,7.07,7.07l-35,35A5,5,0,0,1,504.85,1719.58Z"/><path class="cls-6" d="M734.32,1395.26v736.4h-16v-736.4a8,8,0,0,1,16,0Z"/><path class="cls-6" d="M726.32,1557.3a8,8,0,0,1-5.65-13.66l97.85-97.85a8,8,0,1,1,11.32,11.31L732,1555A8,8,0,0,1,726.32,1557.3Z"/><path class="cls-3" d="M3800.08,1783.28a118.32,118.32,0,0,0-236.59,0,10.52,10.52,0,0,0,1.43,21h233.74a10.52,10.52,0,0,0,1.42-21Z"/><path class="cls-3" d="M4136.77,1638.57c-2.3-119.83-100.14-216.26-220.51-216.26s-218.21,96.43-220.51,216.26a19.62,19.62,0,0,0,2.65,39.06h435.72a19.62,19.62,0,0,0,2.65-39.06Z"/><path class="cls-3" d="M4209.63,1880.57a110.93,110.93,0,0,0-221.82,0,9.87,9.87,0,0,0,1.34,19.64H4208.3a9.86,9.86,0,0,0,1.33-19.64Z"/><path class="cls-2" d="M4103.72,1842.33v84.58a28.56,28.56,0,0,1-28.53,28.53H3908.26v-10h166.93a18.55,18.55,0,0,0,18.53-18.53v-84.58a5,5,0,1,1,10,0Z"/><path class="cls-7" d="M4098.72,1894.39a5,5,0,0,1-3.53-1.47l-34.06-34.06a5,5,0,1,1,7.07-7.07l34.06,34.06a5,5,0,0,1-3.54,8.54Z"/><path class="cls-2" d="M3913.76,1856.82H3705.32a28.56,28.56,0,0,1-28.53-28.53V1728.5a5,5,0,0,1,10,0v99.79a18.55,18.55,0,0,0,18.53,18.53h208.44a5,5,0,0,1,0,10Z"/><path class="cls-8" d="M3681.79,1792.53a5,5,0,0,1-3.54-8.53l35-35a5,5,0,0,1,7.07,7.07l-35,35A5,5,0,0,1,3681.79,1792.53Z"/><path class="cls-2" d="M3924.26,1499.8v631.86h-16V1499.8a8,8,0,0,1,16,0Z"/><path class="cls-2" d="M3916.26,1661.84a8,8,0,0,1-5.66-13.66l97.86-97.85a8,8,0,0,1,11.31,11.31l-97.85,97.86A8,8,0,0,1,3916.26,1661.84Z"/><path class="cls-3" d="M995.79,485.06H451c70.87-55.32,85.56-4.51,93.72-33.3s41.54-19.48,49.69-16.09a9,9,0,0,0,5,.61q-.39-4.26-.39-8.63c0-56.88,49.81-103,111.26-103,52.89,0,97.16,34.15,108.46,79.94a12.85,12.85,0,0,0,14.3,9.76,53.17,53.17,0,0,1,22.61,1.46c29.24,8.45,26,50.66,63.34,33.77S949.1,480,995.79,485.06Z"/><path class="cls-3" d="M4461.24,775.91h-496.9c64.64-56.95,78-4.64,85.48-34.28s37.9-20,45.33-16.57a7.28,7.28,0,0,0,4.57.63q-.36-4.4-.36-8.88c0-58.56,45.44-106,101.49-106,48.24,0,88.62,35.16,98.93,82.3,1.48,6.76,7.15,11,13,10a43.17,43.17,0,0,1,20.63,1.5c26.67,8.7,23.71,52.15,57.78,34.76S4418.64,770.69,4461.24,775.91Z"/><path class="cls-3" d="M4142.6,1253.33H3591.8c71.65-62.83,86.51-5.12,94.75-37.82s42-22.12,50.25-18.28a8.15,8.15,0,0,0,5.06.7q-.39-4.85-.39-9.8c0-64.61,50.37-117,112.5-117,53.47,0,98.23,38.79,109.66,90.79,1.64,7.47,7.92,12.16,14.46,11.09a48.22,48.22,0,0,1,22.86,1.66c29.56,9.6,26.29,57.54,64.05,38.35S4095.39,1247.57,4142.6,1253.33Z"/><path class="cls-2" d="M3317.44,528.23H2643.52c87.67-65.84,105.85-5.36,115.94-39.63s51.39-23.18,61.48-19.15a11.41,11.41,0,0,0,6.19.73c-.32-3.39-.49-6.81-.49-10.27,0-67.69,61.63-122.56,137.65-122.56,65.43,0,120.19,40.64,134.18,95.13a15.88,15.88,0,0,0,17.68,11.62,68.33,68.33,0,0,1,28,1.74c36.17,10.06,32.17,60.29,78.37,40.19S3259.67,522.2,3317.44,528.23Z"/><path class="cls-9" d="M4033,2131.66c-95.62,449.72-372.32,832.49-750.17,1068.34H1517.22c-377.85-235.85-654.55-618.62-750.17-1068.34Z"/><path class="cls-2" d="M2590.28,2155.66H3777.6a12,12,0,1,0,0-24H2590.28a12,12,0,0,0,0,24Z"/><path class="cls-2" d="M1743.19,2155.66H2384.4a12,12,0,0,0,0-24H1743.19a12,12,0,0,0,0,24Z"/><path class="cls-2" d="M1104.23,2155.66h578.21a12,12,0,0,0,0-24H1104.23a12,12,0,0,0,0,24Z"/><path class="cls-2" d="M677.15,2155.66h343a12,12,0,0,0,0-24h-343a12,12,0,0,0,0,24Z"/><path class="cls-2" d="M3885.45,2155.66h237.4a12,12,0,0,0,0-24h-237.4a12,12,0,0,0,0,24Z"/><path class="cls-10" d="M3050.68,397.54a26.78,26.78,0,1,1,26.77-26.78A26.81,26.81,0,0,1,3050.68,397.54Zm0-43.55a16.78,16.78,0,1,0,16.77,16.77A16.79,16.79,0,0,0,3050.68,354Z"/><path class="cls-10" d="M3050.68,422.5a5,5,0,0,1-5-5v-1a5,5,0,0,1,10,0v1A5,5,0,0,1,3050.68,422.5Z"/><path class="cls-10" d="M3050.68,789.78a5,5,0,0,1-5-5v-2a5,5,0,0,1,10,0v2A5,5,0,0,1,3050.68,789.78Zm0-26.23a5,5,0,0,1-5-5v-2a5,5,0,0,1,10,0v2A5,5,0,0,1,3050.68,763.55Zm0-26.23a5,5,0,0,1-5-5v-2a5,5,0,1,1,10,0v2A5,5,0,0,1,3050.68,737.32Zm0-26.24a5,5,0,0,1-5-5v-2a5,5,0,0,1,10,0v2A5,5,0,0,1,3050.68,711.08Zm0-26.23a5,5,0,0,1-5-5v-2a5,5,0,1,1,10,0v2A5,5,0,0,1,3050.68,684.85Zm0-26.24a5,5,0,0,1-5-5v-2a5,5,0,0,1,10,0v2A5,5,0,0,1,3050.68,658.61Zm0-26.23a5,5,0,0,1-5-5v-2a5,5,0,0,1,10,0v2A5,5,0,0,1,3050.68,632.38Zm0-26.24a5,5,0,0,1-5-5v-2a5,5,0,0,1,10,0v2A5,5,0,0,1,3050.68,606.14Zm0-26.23a5,5,0,0,1-5-5v-2a5,5,0,1,1,10,0v2A5,5,0,0,1,3050.68,579.91Zm0-26.24a5,5,0,0,1-5-5v-2a5,5,0,1,1,10,0v2A5,5,0,0,1,3050.68,553.67Zm0-26.23a5,5,0,0,1-5-5v-2a5,5,0,0,1,10,0v2A5,5,0,0,1,3050.68,527.44Zm0-26.23a5,5,0,0,1-5-5v-2a5,5,0,0,1,10,0v2A5,5,0,0,1,3050.68,501.21Zm0-26.24a5,5,0,0,1-5-5v-2a5,5,0,1,1,10,0v2A5,5,0,0,1,3050.68,475Zm0-26.23a5,5,0,0,1-5-5v-2a5,5,0,1,1,10,0v2A5,5,0,0,1,3050.68,448.74Z"/><path class="cls-10" d="M3050.68,815a5,5,0,0,1-5-5v-1a5,5,0,0,1,10,0v1A5,5,0,0,1,3050.68,815Z"/><path class="cls-10" d="M3050.68,140.88a67.82,67.82,0,0,0-67.82,67.82c0,47.75,67.82,114,67.82,114s67.81-66.27,67.81-114A67.82,67.82,0,0,0,3050.68,140.88Z"/><circle class="cls-3" cx="3050.68" cy="208.7" r="30.9"/><path class="cls-10" d="M521.7,611.81a98.46,98.46,0,0,0-98.46,98.46c0,69.32,98.46,165.54,98.46,165.54s98.46-96.22,98.46-165.54A98.46,98.46,0,0,0,521.7,611.81Z"/><path class="cls-10" d="M521.7,984.22a26.78,26.78,0,1,1,26.78-26.78A26.81,26.81,0,0,1,521.7,984.22Zm0-43.56a16.78,16.78,0,1,0,16.78,16.78A16.8,16.8,0,0,0,521.7,940.66Z"/><path class="cls-10" d="M521.7,1009.18a5,5,0,0,1-5-5v-1a5,5,0,0,1,10,0v1A5,5,0,0,1,521.7,1009.18Z"/><path class="cls-10" d="M521.7,1602.07a5,5,0,0,1-5-5v-2a5,5,0,0,1,10,0v2A5,5,0,0,1,521.7,1602.07Zm0-25.78a5,5,0,0,1-5-5v-2a5,5,0,0,1,10,0v2A5,5,0,0,1,521.7,1576.29Zm0-25.77a5,5,0,0,1-5-5v-2a5,5,0,0,1,10,0v2A5,5,0,0,1,521.7,1550.52Zm0-25.78a5,5,0,0,1-5-5v-2a5,5,0,0,1,10,0v2A5,5,0,0,1,521.7,1524.74Zm0-25.78a5,5,0,0,1-5-5v-2a5,5,0,0,1,10,0v2A5,5,0,0,1,521.7,1499Zm0-25.78a5,5,0,0,1-5-5v-2a5,5,0,0,1,10,0v2A5,5,0,0,1,521.7,1473.18Zm0-25.78a5,5,0,0,1-5-5v-2a5,5,0,0,1,10,0v2A5,5,0,0,1,521.7,1447.4Zm0-25.77a5,5,0,0,1-5-5v-2a5,5,0,0,1,10,0v2A5,5,0,0,1,521.7,1421.63Zm0-25.78a5,5,0,0,1-5-5v-2a5,5,0,0,1,10,0v2A5,5,0,0,1,521.7,1395.85Zm0-25.78a5,5,0,0,1-5-5v-2a5,5,0,0,1,10,0v2A5,5,0,0,1,521.7,1370.07Zm0-25.78a5,5,0,0,1-5-5v-2a5,5,0,0,1,10,0v2A5,5,0,0,1,521.7,1344.29Zm0-25.78a5,5,0,0,1-5-5v-2a5,5,0,0,1,10,0v2A5,5,0,0,1,521.7,1318.51Zm0-25.77a5,5,0,0,1-5-5v-2a5,5,0,0,1,10,0v2A5,5,0,0,1,521.7,1292.74Zm0-25.78a5,5,0,0,1-5-5v-2a5,5,0,0,1,10,0v2A5,5,0,0,1,521.7,1267Zm0-25.78a5,5,0,0,1-5-5v-2a5,5,0,0,1,10,0v2A5,5,0,0,1,521.7,1241.18Zm0-25.78a5,5,0,0,1-5-5v-2a5,5,0,0,1,10,0v2A5,5,0,0,1,521.7,1215.4Zm0-25.78a5,5,0,0,1-5-5v-2a5,5,0,0,1,10,0v2A5,5,0,0,1,521.7,1189.62Zm0-25.77a5,5,0,0,1-5-5v-2a5,5,0,0,1,10,0v2A5,5,0,0,1,521.7,1163.85Zm0-25.78a5,5,0,0,1-5-5v-2a5,5,0,0,1,10,0v2A5,5,0,0,1,521.7,1138.07Zm0-25.78a5,5,0,0,1-5-5v-2a5,5,0,0,1,10,0v2A5,5,0,0,1,521.7,1112.29Zm0-25.78a5,5,0,0,1-5-5v-2a5,5,0,0,1,10,0v2A5,5,0,0,1,521.7,1086.51Zm0-25.78a5,5,0,0,1-5-5v-2a5,5,0,0,1,10,0v2A5,5,0,0,1,521.7,1060.73Zm0-25.77a5,5,0,0,1-5-5v-2a5,5,0,0,1,10,0v2A5,5,0,0,1,521.7,1035Z"/><path class="cls-10" d="M521.7,1626.87a5,5,0,0,1-5-5v-1a5,5,0,0,1,10,0v1A5,5,0,0,1,521.7,1626.87Z"/><circle class="cls-3" cx="521.7" cy="710.27" r="44.87"/><path class="cls-10" d="M4253.51,758a134.78,134.78,0,0,0-134.78,134.78c0,94.89,134.78,226.61,134.78,226.61S4388.3,987.64,4388.3,892.75A134.78,134.78,0,0,0,4253.51,758Z"/><circle class="cls-3" cx="4253.51" cy="892.75" r="61.42" transform="translate(2407.39 4827.37) rotate(-76.72)"/><path class="cls-10" d="M4253.51,1223a37.85,37.85,0,1,1,37.85-37.85A37.89,37.89,0,0,1,4253.51,1223Zm0-65.69a27.85,27.85,0,1,0,27.85,27.84A27.87,27.87,0,0,0,4253.51,1157.26Z"/><path class="cls-10" d="M4253.51,1260.08a5,5,0,0,1-5-5v-1a5,5,0,0,1,10,0v1A5,5,0,0,1,4253.51,1260.08Z"/><path class="cls-10" d="M4253.51,2061.54a5,5,0,0,1-5-5v-2a5,5,0,0,1,10,0v2A5,5,0,0,1,4253.51,2061.54Zm0-25.86a5,5,0,0,1-5-5v-2a5,5,0,0,1,10,0v2A5,5,0,0,1,4253.51,2035.68Zm0-25.85a5,5,0,0,1-5-5v-2a5,5,0,0,1,10,0v2A5,5,0,0,1,4253.51,2009.83Zm0-25.85a5,5,0,0,1-5-5v-2a5,5,0,1,1,10,0v2A5,5,0,0,1,4253.51,1984Zm0-25.86a5,5,0,0,1-5-5v-2a5,5,0,0,1,10,0v2A5,5,0,0,1,4253.51,1958.12Zm0-25.85a5,5,0,0,1-5-5v-2a5,5,0,1,1,10,0v2A5,5,0,0,1,4253.51,1932.27Zm0-25.85a5,5,0,0,1-5-5v-2a5,5,0,0,1,10,0v2A5,5,0,0,1,4253.51,1906.42Zm0-25.86a5,5,0,0,1-5-5v-2a5,5,0,1,1,10,0v2A5,5,0,0,1,4253.51,1880.56Zm0-25.85a5,5,0,0,1-5-5v-2a5,5,0,0,1,10,0v2A5,5,0,0,1,4253.51,1854.71Zm0-25.85a5,5,0,0,1-5-5v-2a5,5,0,0,1,10,0v2A5,5,0,0,1,4253.51,1828.86Zm0-25.86a5,5,0,0,1-5-5v-2a5,5,0,0,1,10,0v2A5,5,0,0,1,4253.51,1803Zm0-25.85a5,5,0,0,1-5-5v-2a5,5,0,1,1,10,0v2A5,5,0,0,1,4253.51,1777.15Zm0-25.85a5,5,0,0,1-5-5v-2a5,5,0,1,1,10,0v2A5,5,0,0,1,4253.51,1751.3Zm0-25.86a5,5,0,0,1-5-5v-2a5,5,0,1,1,10,0v2A5,5,0,0,1,4253.51,1725.44Zm0-25.85a5,5,0,0,1-5-5v-2a5,5,0,0,1,10,0v2A5,5,0,0,1,4253.51,1699.59Zm0-25.85a5,5,0,0,1-5-5v-2a5,5,0,0,1,10,0v2A5,5,0,0,1,4253.51,1673.74Zm0-25.86a5,5,0,0,1-5-5v-2a5,5,0,0,1,10,0v2A5,5,0,0,1,4253.51,1647.88Zm0-25.85a5,5,0,0,1-5-5v-2a5,5,0,0,1,10,0v2A5,5,0,0,1,4253.51,1622Zm0-25.85a5,5,0,0,1-5-5v-2a5,5,0,0,1,10,0v2A5,5,0,0,1,4253.51,1596.18Zm0-25.86a5,5,0,0,1-5-5v-2a5,5,0,0,1,10,0v2A5,5,0,0,1,4253.51,1570.32Zm0-25.85a5,5,0,0,1-5-5v-2a5,5,0,1,1,10,0v2A5,5,0,0,1,4253.51,1544.47Zm0-25.85a5,5,0,0,1-5-5v-2a5,5,0,0,1,10,0v2A5,5,0,0,1,4253.51,1518.62Zm0-25.86a5,5,0,0,1-5-5v-2a5,5,0,0,1,10,0v2A5,5,0,0,1,4253.51,1492.76Zm0-25.85a5,5,0,0,1-5-5v-2a5,5,0,0,1,10,0v2A5,5,0,0,1,4253.51,1466.91Zm0-25.85a5,5,0,0,1-5-5v-2a5,5,0,1,1,10,0v2A5,5,0,0,1,4253.51,1441.06Zm0-25.86a5,5,0,0,1-5-5v-2a5,5,0,0,1,10,0v2A5,5,0,0,1,4253.51,1415.2Zm0-25.85a5,5,0,0,1-5-5v-2a5,5,0,1,1,10,0v2A5,5,0,0,1,4253.51,1389.35Zm0-25.85a5,5,0,0,1-5-5v-2a5,5,0,0,1,10,0v2A5,5,0,0,1,4253.51,1363.5Zm0-25.86a5,5,0,0,1-5-5v-2a5,5,0,1,1,10,0v2A5,5,0,0,1,4253.51,1337.64Zm0-25.85a5,5,0,0,1-5-5v-2a5,5,0,0,1,10,0v2A5,5,0,0,1,4253.51,1311.79Zm0-25.85a5,5,0,0,1-5-5v-2a5,5,0,1,1,10,0v2A5,5,0,0,1,4253.51,1285.94Z"/><path class="cls-10" d="M4253.51,2086.4a5,5,0,0,1-5-5v-1a5,5,0,1,1,10,0v1A5,5,0,0,1,4253.51,2086.4Z"/></svg>