<svg xmlns="http://www.w3.org/2000/svg" viewBox="0 0 995.6 621.7"><defs><style>.cls-1{fill:#231f20;}</style></defs><g id="Calque_2" data-name="Calque 2"><g id="Layer_2" data-name="Layer 2"><polygon class="cls-1" points="995.6 621.71 836.19 621.71 836.19 346.36 782.57 346.36 782.57 249.26 836.19 249.26 836.19 20.29 794.16 20.29 794.16 205.79 717.35 205.79 717.35 621.71 665.18 621.71 665.18 436.06 589.1 359.98 501.42 447.66 501.42 621.71 455.77 621.71 455.77 317.95 413.02 275.2 413.02 53.62 387.66 53.62 387.66 144.05 317.37 214.34 317.37 415.92 269.55 415.92 269.55 621.71 218.1 621.71 218.1 388.96 153.62 453.45 153.62 621.71 0 621.71 0 601.42 133.33 601.42 133.33 445.05 238.39 339.98 238.39 601.42 249.26 601.42 249.26 395.63 297.08 395.63 297.08 205.93 367.37 135.65 367.37 33.33 433.31 33.33 433.31 266.8 476.06 309.55 476.06 601.42 481.13 601.42 481.13 439.25 589.1 331.29 685.47 427.66 685.47 601.42 697.06 601.42 697.06 185.5 773.87 185.5 773.87 0 856.47 0 856.47 269.55 802.85 269.55 802.85 326.07 856.47 326.07 856.47 601.42 995.6 601.42 995.6 621.71"/></g></g></svg>