<svg width="972" height="526" viewBox="0 0 972 526" fill="none" xmlns="http://www.w3.org/2000/svg">
<path d="M201.32 336.559C194.188 336.585 187.273 334.108 181.78 329.559C178.753 327.066 176.284 323.964 174.536 320.454C172.787 316.944 171.798 313.104 171.631 309.186C171.465 305.268 172.127 301.359 173.572 297.714C175.017 294.069 177.214 290.768 180.02 288.029L460.95 8.85866C466.392 3.50729 473.624 0.361731 481.249 0.0293139C488.875 -0.303103 496.353 2.20114 502.24 7.05861C505.258 9.55216 507.717 12.6529 509.458 16.1592C511.199 19.6655 512.182 23.4988 512.345 27.4102C512.507 31.3215 511.844 35.2233 510.399 38.8617C508.955 42.5001 506.761 45.7938 503.96 48.5287L222.96 327.739C217.187 333.41 209.413 336.579 201.32 336.559V336.559Z" fill="#4B1535"/>
<path fill-rule="evenodd" clip-rule="evenodd" d="M492.2 19.0092C493.56 20.1083 494.67 21.4851 495.456 23.0475C496.241 24.6099 496.684 26.322 496.755 28.0694C496.826 29.8167 496.524 31.559 495.867 33.1799C495.211 34.8009 494.217 36.2633 492.95 37.4691L212.01 316.669C209.316 319.241 205.782 320.751 202.061 320.918C198.34 321.085 194.684 319.899 191.77 317.579V317.579C190.411 316.477 189.302 315.098 188.517 313.534C187.732 311.97 187.29 310.257 187.219 308.509C187.148 306.76 187.45 305.017 188.106 303.394C188.761 301.772 189.755 300.308 191.02 299.099L471.95 19.9191C474.641 17.3384 478.179 15.8235 481.904 15.6561C485.629 15.4887 489.288 16.6803 492.2 19.0092V19.0092Z" fill="white"/>
<path d="M763.24 336.559C755.149 336.592 747.372 333.43 741.6 327.759L460.6 48.5294C457.795 45.7917 455.598 42.4932 454.154 38.8492C452.71 35.2053 452.05 31.2978 452.218 27.3817C452.386 23.4656 453.378 19.6288 455.129 16.1219C456.88 12.615 459.351 9.51682 462.38 7.0294C468.266 2.19063 475.734 -0.299675 483.346 0.0381872C490.958 0.37605 498.176 3.51814 503.61 8.85935L784.54 288.039C787.343 290.777 789.538 294.075 790.982 297.717C792.426 301.359 793.087 305.265 792.922 309.18C792.757 313.094 791.769 316.93 790.024 320.438C788.278 323.946 785.813 327.047 782.79 329.539C777.294 334.092 770.377 336.576 763.24 336.559V336.559Z" fill="#4B1535"/>
<path fill-rule="evenodd" clip-rule="evenodd" d="M472.4 19.0088C471.04 20.1074 469.93 21.4834 469.143 23.0449C468.357 24.6065 467.912 26.3177 467.84 28.0646C467.767 29.8114 468.067 31.5538 468.721 33.1754C469.374 34.797 470.366 36.2607 471.63 37.4688L752.57 316.669C755.264 319.241 758.798 320.75 762.519 320.918C766.24 321.085 769.896 319.899 772.81 317.579V317.579C774.172 316.479 775.284 315.102 776.071 313.538C776.859 311.975 777.304 310.262 777.377 308.513C777.45 306.764 777.149 305.02 776.494 303.396C775.839 301.773 774.846 300.308 773.58 299.099L492.64 19.9187C489.952 17.3349 486.416 15.8177 482.691 15.6503C478.967 15.4828 475.309 16.6766 472.4 19.0088V19.0088Z" fill="white"/>
<path d="M486.33 90.2694C476.762 90.2765 467.44 87.2336 459.719 81.5825C451.998 75.9313 446.279 67.9662 443.393 58.8436C440.506 49.721 440.603 39.9158 443.668 30.8519C446.734 21.788 452.609 13.9371 460.44 8.43929V8.43929C466.227 4.38019 472.888 1.7413 479.885 0.736404C486.881 -0.268491 494.016 0.388853 500.711 2.65523C507.406 4.9216 513.473 8.73324 518.421 13.7813C523.368 18.8294 527.057 24.972 529.188 31.7114C531.319 38.4507 531.833 45.5974 530.687 52.5722C529.542 59.5471 526.769 66.1539 522.595 71.8576C518.42 77.5613 512.96 82.2014 506.658 85.4019C500.356 88.6024 493.388 90.2734 486.32 90.2794L486.33 90.2694ZM477.82 33.2193C475.029 35.1705 473 38.0292 472.081 41.3082C471.161 44.5872 471.407 48.0837 472.776 51.202C474.145 54.3202 476.553 56.8672 479.59 58.409C482.626 59.9508 486.103 60.3919 489.429 59.6573C492.754 58.9227 495.722 57.0577 497.827 54.3802C499.931 51.7027 501.042 48.3783 500.97 44.9735C500.899 41.5686 499.648 38.294 497.433 35.7076C495.217 33.1212 492.173 31.383 488.82 30.7893C486.917 30.4456 484.965 30.4836 483.076 30.9007C481.188 31.3179 479.401 32.1059 477.82 33.2193Z" fill="#4B1535"/>
<path fill-rule="evenodd" clip-rule="evenodd" d="M469.13 20.8286C473.969 17.4451 479.702 15.5721 485.605 15.4462C491.508 15.3204 497.316 16.9473 502.294 20.1214C507.273 23.2956 511.198 27.8745 513.575 33.2792C515.952 38.684 516.673 44.6721 515.647 50.4866C514.622 56.3012 511.895 61.6811 507.813 65.9465C503.73 70.2118 498.475 73.1711 492.71 74.4503C486.946 75.7294 480.932 75.271 475.429 73.133C469.925 70.995 465.179 67.2734 461.79 62.4386C459.538 59.2252 457.941 55.5994 457.091 51.7685C456.24 47.9376 456.154 43.9767 456.835 40.1123C457.517 36.2478 458.954 32.5555 461.063 29.2467C463.173 25.9378 465.914 23.0773 469.13 20.8286V20.8286Z" fill="#F6AE44"/>
<path d="M451.78 51.509C450.534 51.569 449.316 51.1335 448.39 50.2979C447.465 49.4622 446.907 48.2942 446.84 47.049C446.84 46.309 446.92 42.739 451.41 42.229H451.7H452.06L485.41 40.869L519.52 39.499L519.89 48.809C497.78 49.689 456.39 51.359 452.11 51.549H451.78V51.509Z" fill="#4B1535"/>
<path d="M909.02 525.459H62.19C45.7141 525.446 29.9156 518.9 18.2579 507.258C6.60015 495.615 0.0344078 479.825 0 463.349V303.139C0.0211735 286.653 6.58043 270.848 18.239 259.191C29.8976 247.534 45.7036 240.978 62.19 240.959H909.02C925.506 240.978 941.312 247.534 952.971 259.191C964.63 270.848 971.189 286.653 971.21 303.139V463.349C971.176 479.825 964.61 495.615 952.952 507.258C941.294 518.9 925.496 525.446 909.02 525.459ZM62.19 272.159C53.9683 272.159 46.0833 275.425 40.2697 281.239C34.4561 287.052 31.19 294.937 31.19 303.159V463.349C31.19 471.571 34.4561 479.456 40.2697 485.269C46.0833 491.083 53.9683 494.349 62.19 494.349H909.02C917.242 494.349 925.127 491.083 930.94 485.269C936.754 479.456 940.02 471.571 940.02 463.349V303.139C940.02 294.917 936.754 287.032 930.94 281.219C925.127 275.405 917.242 272.139 909.02 272.139L62.19 272.159Z" fill="#4B1535"/>
<path fill-rule="evenodd" clip-rule="evenodd" d="M62.1899 256.559H909.02C921.363 256.596 933.191 261.515 941.92 270.242C950.649 278.969 955.57 290.795 955.61 303.139V463.349C955.57 475.69 950.648 487.514 941.918 496.238C933.189 504.962 921.361 509.877 909.02 509.909H62.1899C49.8484 509.877 38.021 504.962 29.2914 496.238C20.5618 487.514 15.6396 475.69 15.6 463.349V303.139C15.6395 290.795 20.5611 278.969 29.2902 270.242C38.0192 261.515 49.8466 256.596 62.1899 256.559V256.559Z" fill="#E4A951"/>
<path fill-rule="evenodd" clip-rule="evenodd" d="M860.73 256.559H904.95C932.81 256.559 955.64 277.559 955.64 303.139V463.349C955.64 488.959 932.81 509.909 904.95 509.909H66.28C38.43 509.909 15.6 488.909 15.6 463.349V448.669C31.33 470.829 51.71 470.859 74.15 475.399C74.15 475.399 691.22 474.079 800.89 471.849C910.56 469.619 914.14 430.769 914.14 430.769C914.14 430.769 919.58 365.869 915.9 321.769C912.22 277.669 883.39 273.799 860.73 256.559Z" fill="#7D3E3A"/>
<path d="M879.62 509.169H879.32C866.73 508.169 858.15 508.289 852.92 509.169H840.77C841.784 507.534 843.284 506.258 845.06 505.519C850.25 502.989 861.31 501.969 879.98 503.449C896.67 504.769 911.66 505.379 925.49 505.349C918.93 507.888 911.954 509.184 904.92 509.169H879.62Z" fill="#63293A"/>
<path d="M955.61 449.659C923.493 460.079 889.606 463.926 855.97 460.969C808.97 456.789 776.88 448.969 762.23 441.139C756.81 438.249 753.51 435.229 752.41 432.199C751.09 428.599 752.6 425.329 757.08 422.579C763.38 418.749 776.66 415.919 797.4 414.959C837.4 413.139 885.65 399.089 924.34 375.879C935.472 369.282 945.943 361.631 955.61 353.029V361.279C947.034 368.39 937.92 374.826 928.35 380.529C888.59 404.369 838.95 418.809 797.76 420.679C778.45 421.559 766.43 423.979 761.15 427.199C759.28 428.319 758.6 429.479 758.98 430.549C759.59 432.229 761.92 434.209 765.98 436.329C779.84 443.699 810.83 451.199 856.73 455.269C893.28 458.519 926.22 453.129 955.65 443.479L955.61 449.659Z" fill="#63293A"/>
<path d="M953.71 476.919C908 485.059 858.34 487.529 808.29 478.839C737.34 466.519 680.8 476.479 622.06 486.839C602.37 490.299 582.4 493.839 561.37 496.599C524.27 501.469 484.26 503.389 438.96 501.689C393.66 499.989 343.24 494.69 285.13 485.13C240.8 477.82 203.18 487.879 171.28 509.189H160.58C195.31 483.839 236.87 471.35 286.48 479.52C344.25 489.06 394.39 494.32 439.27 495.99C484.15 497.66 523.61 495.769 560.27 490.929C580.9 488.239 600.86 484.72 620.61 481.23C680.03 470.78 737.26 460.68 809.67 473.23C859.67 481.92 909.44 479.229 955.12 470.809C954.805 472.879 954.333 474.921 953.71 476.919Z" fill="#63293A"/>
<path d="M51.46 507.219C58.56 501.719 66.3399 496.079 74.7499 490.469C108.51 468.14 144.788 449.873 182.83 436.049C215.58 424.049 251.47 419.989 283.42 419.329C315.37 418.669 343.18 421.419 360.15 423.209C363.97 423.619 358.91 423.099 361.66 423.369C503.51 438.029 633.17 416.169 729.56 376.049C798.56 347.359 850.36 309.389 877.31 268.849H885.1C857.95 311.449 804.33 351.319 732.64 381.159C635.18 421.719 504.11 443.859 360.84 429.039C357.04 428.649 362.07 429.199 359.27 428.899C342.49 427.139 314.91 424.419 283.59 425.049C252.27 425.679 217.4 429.669 185.59 441.279C148.088 454.903 112.326 472.911 79.0499 494.929C72.0499 499.579 65.58 504.219 59.53 508.789C56.8043 508.469 54.1067 507.944 51.46 507.219Z" fill="#63293A"/>
<path d="M267.78 268.849C302.86 285.771 340.193 297.559 378.63 303.849C429.077 312.234 480.563 312.234 531.01 303.849C571.01 297.159 609.16 285.309 643.1 268.919H656.38C619.38 288.199 577.07 301.979 532.38 309.459C481.036 318.011 428.633 318.038 377.28 309.539C334.66 302.359 292.94 289.049 254.52 268.919L267.78 268.849Z" fill="#63293A"/>
<path d="M15.6 351.979C83.47 332.099 166.6 325.169 261.81 351.269C288.35 358.529 315.08 364.659 341.72 369.529C447.93 388.919 552.43 388.369 638.56 362.019C697.9 343.869 748.56 313.459 785.02 268.849H793.3C755.85 316.229 703.05 348.409 640.92 367.379C553.5 394.109 447.68 394.719 340.27 375.109C313.43 370.219 286.48 364.029 259.66 356.689C165.83 330.969 83.9899 337.899 17.2499 357.569L15.6 358.059V351.979Z" fill="#63293A"/>
<path d="M655.72 509.169C674.45 505.789 691 504.169 705.58 504.419C717.355 504.415 729.076 506.013 740.42 509.169H655.72Z" fill="#63293A"/>
<path d="M15.6 464.459C27.8666 456.57 40.5739 449.388 53.66 442.949C83.09 428.599 115.78 418.039 148.43 417.349C161.27 417.099 168.94 415.009 172.13 412.039C172.737 411.545 173.185 410.884 173.42 410.137C173.654 409.391 173.665 408.592 173.45 407.839C172.9 405.939 171.2 403.839 168.45 401.619C158.6 393.919 136.82 386.619 106.6 385.309C80.81 384.239 48.38 388.059 15.6 397.849V391.779C48.46 382.229 80.94 378.519 106.9 379.589C138.9 380.939 162.31 388.969 173.12 397.469C176.89 400.469 179.28 403.519 180.12 406.539C181.06 409.949 180.18 413.139 177.24 415.869C172.84 419.939 163.51 422.769 148.58 423.069C117.26 423.729 85.69 433.989 57.14 447.899C42.9913 454.845 29.2972 462.681 16.14 471.359C15.7748 469.252 15.5909 467.118 15.59 464.979L15.6 464.459Z" fill="#63293A"/>
<path d="M15.6 428.349C24.95 424.969 35.21 421.829 46.79 418.889L48.79 424.359C37.5473 427.157 26.4672 430.572 15.6 434.589V428.349Z" fill="#63293A"/>
<path d="M22.12 291.459C32.9407 290.601 43.8002 290.334 54.65 290.659C71.1741 291.16 87.642 292.831 103.93 295.659C118.07 298.049 130.66 300.279 142.4 302.339C194.24 311.499 229.61 317.709 237.86 313.009C239.78 311.909 238.96 309.129 234.94 304.239C225.73 293.039 203.18 283.309 178.94 272.889L169.7 268.889H184.61C208.61 279.259 230.72 289.049 240.61 301.039C247.29 309.179 247.4 314.509 241.73 317.729C231.06 323.839 194.52 317.399 141 307.969C128.76 305.819 115.65 303.509 102.56 301.289C86.6515 298.528 70.5684 296.891 54.43 296.389C42.5641 296.044 30.6882 296.431 18.87 297.549C19.7806 295.431 20.8677 293.394 22.12 291.459V291.459Z" fill="#63293A"/>
<path d="M87.29 268.849C88.17 269.099 89.03 269.369 89.91 269.649C106.46 274.789 119.28 277.179 126.4 276.959C127.609 276.996 128.816 276.831 129.97 276.469C129.7 275.639 128.65 274.469 126.76 272.839C125.3 271.629 123.51 270.279 121.48 268.839H131.71C134.71 271.369 136.3 273.629 136.71 275.549C137.26 277.999 136.24 279.869 133.82 281.189C131.562 282.218 129.101 282.724 126.62 282.669C118.62 282.919 104.89 280.419 87.46 274.969C81.13 272.969 74.8299 271.429 68.8099 270.159C66.7199 269.719 64.6899 269.309 62.6799 268.949C63.8599 268.869 65.0399 268.839 66.2499 268.839L87.29 268.849Z" fill="#63293A"/>
<path d="M955.61 317.859C949.932 324.591 943.755 330.886 937.13 336.689C917.52 353.879 890.84 369.779 854.63 381.689C828.09 390.439 804 392.999 783.81 395.109C772.21 396.319 761.9 397.419 753.43 399.459C722.65 406.859 705.6 413.759 700.6 420.829C696.31 426.829 702.6 433.749 718.14 441.969L714.46 446.789C695.29 436.639 688.03 427.289 694.69 417.909C700.63 409.519 719 401.799 751.56 393.909C760.56 391.739 771.08 390.639 782.93 389.369C802.73 387.309 826.36 384.809 852.1 376.369C887.32 364.759 913.17 349.369 932.1 332.749C940.646 325.302 948.388 316.98 955.2 307.919C955.431 309.613 955.551 311.32 955.56 313.029L955.61 317.859Z" fill="#63293A"/>
<path fill-rule="evenodd" clip-rule="evenodd" d="M66.28 256.559H904.95C928.05 256.559 947.69 270.969 953.71 290.489C915.4 271.439 884.52 275.089 887.77 272.589C892.69 268.769 179.5 268.849 75.8599 268.959C51.1899 268.959 31.66 279.799 16.21 296.209C19.84 273.859 40.95 256.559 66.28 256.559Z" fill="#B58571"/>
<path d="M283.79 443.549C268.72 443.549 256.35 438.669 246.94 429.149C237.53 419.629 232.75 407.349 232.75 392.519V373.899C232.75 359.259 237.33 347.019 246.37 337.519C255.56 327.829 267.66 322.899 282.37 322.899C297.08 322.899 309.14 326.699 317.98 334.209C324.59 339.829 332.41 350.319 332.11 368.419C332.069 370.573 331.55 372.691 330.59 374.619L330.4 375.009C329.208 377.407 327.371 379.426 325.096 380.839C322.821 382.252 320.198 383.003 317.52 383.009H297.31C293.491 383.009 289.828 381.492 287.128 378.792C284.427 376.091 282.91 372.428 282.91 368.609V368.349C282.426 370.1 282.207 371.914 282.26 373.729V392.489C282.229 394.069 282.404 395.645 282.78 397.179C282.93 393.462 284.511 389.947 287.193 387.37C289.875 384.792 293.45 383.352 297.17 383.349H317.36C320.44 383.35 323.438 384.339 325.914 386.169C328.391 387.999 330.215 390.576 331.12 393.519L331.23 393.879C331.627 395.177 331.843 396.523 331.87 397.879C332.16 415.979 324.72 426.439 318.42 432.029C309.85 439.629 298.2 443.509 283.79 443.549Z" fill="#7D3E3A"/>
<path d="M392.35 442.259H333.35C329.531 442.259 325.868 440.742 323.168 438.042C320.467 435.341 318.95 431.678 318.95 427.859V338.559C318.95 334.74 320.467 331.077 323.168 328.377C325.868 325.676 329.531 324.159 333.35 324.159H354.08C357.899 324.159 361.562 325.676 364.262 328.377C366.963 331.077 368.48 334.74 368.48 338.559V397.559H392.39C394.281 397.559 396.154 397.932 397.901 398.655C399.648 399.379 401.235 400.44 402.572 401.777C403.909 403.114 404.97 404.701 405.694 406.448C406.418 408.196 406.79 410.068 406.79 411.959V427.959C406.763 431.768 405.229 435.411 402.523 438.091C399.817 440.771 396.159 442.27 392.35 442.259V442.259Z" fill="#7D3E3A"/>
<path d="M442.77 443.549C427.4 443.549 414.7 438.449 404.95 428.549C395.2 418.649 390.27 406.159 390.27 391.289V375.209C390.27 360.399 395.19 347.869 404.9 337.979C414.61 328.089 427.38 322.979 442.62 322.979C457.86 322.979 470.45 328.039 480.24 337.979C490.03 347.919 494.95 360.349 494.95 375.169V391.25C494.95 406.1 490.04 418.63 480.35 428.51C470.66 438.39 458.01 443.509 442.77 443.549ZM441.55 398.679C441.936 398.773 442.333 398.813 442.73 398.799C443.032 398.807 443.334 398.78 443.63 398.719C443.68 398.672 443.724 398.618 443.76 398.559C444.86 397.049 445.44 394.56 445.44 391.25V375.059C445.44 371.839 444.88 369.459 443.77 367.969C443.731 367.927 443.698 367.88 443.67 367.829L443.59 367.74C443.262 367.666 442.926 367.635 442.59 367.65C442.187 367.641 441.784 367.681 441.39 367.77L441.33 367.849C439.98 369.789 439.69 372.849 439.69 375.059V391.25C439.69 394.53 440.28 396.989 441.43 398.559C441.461 398.607 441.502 398.648 441.55 398.679V398.679Z" fill="#7D3E3A"/>
<path d="M530.71 443.549C517.64 443.549 506.3 440.269 496.93 433.909C489.17 428.649 480.01 418.349 480.42 399.199C480.447 397.862 480.662 396.536 481.06 395.259L481.17 394.899C481.813 392.815 482.921 390.903 484.411 389.309C485.901 387.716 487.733 386.481 489.77 385.699C484.61 379.399 481.93 371.479 481.93 362.379C481.93 350.379 487.18 340.059 497.12 332.669C505.93 326.169 516.84 322.899 529.58 322.899C542.9 322.899 554.11 326.289 562.88 332.959C572.81 340.609 577.88 351.629 577.58 364.899C577.551 366.219 577.339 367.528 576.95 368.789L576.84 369.149C576.24 371.115 575.225 372.93 573.864 374.47C572.503 376.011 570.827 377.241 568.95 378.079C575.33 384.899 578.68 393.799 578.68 404.079C578.68 416.609 573.44 427.019 563.52 434.179C554.95 440.349 543.95 443.509 530.71 443.549Z" fill="#7D3E3A"/>
<path d="M638.37 442.259H579.95C576.131 442.259 572.468 440.742 569.768 438.042C567.067 435.341 565.55 431.678 565.55 427.859V338.559C565.55 334.74 567.067 331.077 569.768 328.377C572.468 325.676 576.131 324.159 579.95 324.159H638.44C642.259 324.159 645.922 325.676 648.622 328.377C651.323 331.077 652.84 334.74 652.84 338.559V354.559C652.844 357.203 652.118 359.796 650.744 362.054C649.37 364.312 647.4 366.148 645.05 367.359C646.036 369.348 646.547 371.539 646.54 373.759V389.759C646.543 392.944 645.488 396.039 643.54 398.559C646.262 399.601 648.603 401.445 650.255 403.847C651.907 406.248 652.791 409.095 652.79 412.009V428.009C652.75 431.806 651.213 435.433 648.513 438.102C645.812 440.77 642.167 442.265 638.37 442.259Z" fill="#7D3E3A"/>
<path d="M687.07 442.259H654.4C650.581 442.259 646.918 440.742 644.218 438.042C641.517 435.341 640 431.678 640 427.859V338.559C640 334.74 641.517 331.077 644.218 328.377C646.918 325.676 650.581 324.159 654.4 324.159H687.07C701.39 324.159 713.64 328.989 723.46 338.509C733.28 348.029 738.46 360.509 738.46 375.169V391.249C738.46 405.809 733.26 418.509 723.46 427.989C713.66 437.469 701.39 442.259 687.07 442.259Z" fill="#7D3E3A"/>
<path d="M317.36 397.739L317.47 398.099C317.63 408.279 314.76 415.999 308.86 421.259C302.95 426.509 294.59 429.119 283.75 429.149C272.75 429.149 263.84 425.769 257.19 419.029C250.54 412.289 247.19 403.439 247.19 392.519V373.899C247.19 363.012 250.407 354.196 256.84 347.449C263.28 340.649 271.84 337.299 282.36 337.299C293.693 337.299 302.457 339.929 308.65 345.189C314.843 350.449 317.86 358.116 317.7 368.189L317.51 368.579H297.31C297.31 363.079 296.16 359.169 293.79 356.809C291.42 354.449 287.66 353.259 282.32 353.259C280.201 353.166 278.096 353.636 276.218 354.622C274.34 355.607 272.757 357.073 271.63 358.869C269.12 362.579 267.86 367.559 267.86 373.769V392.529C267.86 398.799 269.23 403.799 271.98 407.529C274.73 411.259 278.64 413.169 283.75 413.169C288.48 413.169 291.92 411.989 294.04 409.619C296.16 407.249 297.17 403.269 297.17 397.709L317.36 397.739Z" fill="white"/>
<path d="M354.04 411.909H392.35V427.859H333.31V338.569H354.04V411.909Z" fill="white"/>
<path d="M480.52 391.249C480.52 402.229 477.027 411.285 470.04 418.419C463.04 425.569 453.98 429.119 442.73 429.149C431.48 429.179 422.24 425.569 415.23 418.419C408.22 411.269 404.67 402.229 404.67 391.249V375.169C404.67 364.222 408.173 355.172 415.18 348.019C422.187 340.866 431.333 337.292 442.62 337.299C453.807 337.299 462.92 340.872 469.96 348.019C477 355.166 480.52 364.215 480.52 375.169V391.249ZM459.84 375.059C459.84 368.679 458.35 363.449 455.33 359.379C452.31 355.309 448.09 353.249 442.62 353.249C437.15 353.249 432.75 355.249 429.75 359.329C426.75 363.409 425.32 368.649 425.32 375.059V391.249C425.32 397.719 426.84 402.969 429.83 407.069C432.82 411.169 437.15 413.199 442.73 413.199C448.31 413.199 452.38 411.199 455.38 407.069C458.38 402.939 459.84 397.719 459.84 391.249V375.059Z" fill="white"/>
<path d="M543.55 404.179C543.633 402.801 543.396 401.423 542.856 400.153C542.316 398.883 541.489 397.755 540.44 396.859C538.35 395.159 534.55 393.369 529.11 391.449C517.997 387.842 509.757 383.999 504.39 379.919C499.05 375.849 496.33 369.999 496.33 362.379C496.33 354.759 499.49 348.849 505.71 344.229C511.93 339.609 519.92 337.299 529.58 337.299C539.747 337.299 547.94 339.672 554.16 344.419C560.38 349.209 563.37 355.889 563.16 364.579L563.05 364.939H542.95C542.95 360.729 541.8 357.679 539.54 355.779C537.28 353.879 533.77 352.919 529.17 352.919C525.41 352.919 522.44 353.846 520.26 355.699C519.237 356.508 518.414 357.541 517.852 358.718C517.29 359.895 517.006 361.185 517.02 362.489C517.002 363.73 517.298 364.955 517.88 366.051C518.462 367.147 519.312 368.079 520.35 368.759C522.6 370.329 526.75 372.329 532.83 374.699C543.17 377.752 551 381.492 556.32 385.919C561.64 390.345 564.307 396.396 564.32 404.069C564.32 411.909 561.32 418.069 555.14 422.489C548.96 426.909 540.86 429.119 530.72 429.149C520.58 429.179 512.07 426.759 505.06 421.999C498.05 417.239 494.64 409.759 494.86 399.499L494.97 399.149H515.15C515.15 404.339 516.44 408.029 518.97 410.229C521.5 412.429 525.46 413.499 530.72 413.499C535.06 413.499 538.28 412.649 540.42 410.919C541.434 410.12 542.245 409.093 542.789 407.922C543.333 406.751 543.593 405.469 543.55 404.179V404.179Z" fill="white"/>
<path d="M632.12 389.659H600.66V411.909H638.37V427.859H579.93V338.569H638.42V354.519H600.66V373.709H632.12V389.659Z" fill="white"/>
<path d="M654.4 427.859V338.559H687.07C697.57 338.559 706.36 341.989 713.44 348.849C720.52 355.709 724.06 364.482 724.06 375.169V391.249C724.06 402.009 720.52 410.802 713.44 417.629C706.36 424.455 697.57 427.865 687.07 427.859H654.4ZM675.13 354.509V411.909H687.07C689.325 411.937 691.554 411.43 693.576 410.431C695.597 409.431 697.353 407.967 698.7 406.159C701.747 402.312 703.27 397.342 703.27 391.249V375.059C703.27 369.059 701.75 364.059 698.7 360.259C697.353 358.45 695.597 356.986 693.576 355.987C691.554 354.987 689.325 354.481 687.07 354.509H675.13Z" fill="white"/>
<path d="M193.24 347.229C186.007 347.217 178.962 344.922 173.11 340.67C167.258 336.418 162.899 330.427 160.653 323.551C158.407 316.675 158.389 309.266 160.603 302.38C162.817 295.493 167.148 289.482 172.98 285.203C178.812 280.924 185.846 278.595 193.079 278.55C200.312 278.504 207.375 280.744 213.26 284.949C219.145 289.154 223.552 295.111 225.853 301.968C228.153 308.826 228.229 316.235 226.07 323.139C223.904 330.144 219.544 336.267 213.633 340.604C207.721 344.942 200.572 347.264 193.24 347.229V347.229ZM193.24 308.779C192.379 308.788 191.542 309.069 190.85 309.58C190.157 310.092 189.643 310.809 189.38 311.629V311.629C189.218 312.134 189.159 312.667 189.205 313.196C189.252 313.725 189.403 314.239 189.65 314.709C189.899 315.189 190.242 315.614 190.66 315.958C191.078 316.302 191.561 316.557 192.08 316.709C193.114 317.025 194.232 316.92 195.189 316.416C196.146 315.912 196.865 315.051 197.19 314.019C197.507 312.987 197.405 311.872 196.905 310.915C196.405 309.959 195.548 309.238 194.52 308.909C194.102 308.801 193.671 308.758 193.24 308.779V308.779Z" fill="#4B1535"/>
<path fill-rule="evenodd" clip-rule="evenodd" d="M174.95 307.129C176.087 303.502 178.275 300.293 181.235 297.909C184.196 295.525 187.797 294.072 191.584 293.735C195.37 293.398 199.171 294.191 202.507 296.014C205.843 297.837 208.563 300.608 210.324 303.977C212.084 307.346 212.806 311.161 212.399 314.941C211.991 318.72 210.472 322.294 208.033 325.21C205.594 328.126 202.346 330.253 198.698 331.323C195.05 332.392 191.167 332.356 187.54 331.219C185.129 330.467 182.891 329.247 180.952 327.629C179.014 326.01 177.414 324.025 176.245 321.787C175.075 319.549 174.359 317.103 174.136 314.587C173.914 312.072 174.191 309.537 174.95 307.129V307.129Z" fill="#CE985F"/>
<g opacity="0.37">
<path fill-rule="evenodd" clip-rule="evenodd" d="M204.2 297.669C182.2 294.539 177.11 308.509 176.28 322.479C166.3 302.349 189.4 286.119 204.2 297.669Z" fill="#FDEDC5"/>
</g>
<path d="M176.15 331.969C175.469 331.958 174.798 331.802 174.182 331.51C173.567 331.219 173.02 330.799 172.58 330.279C170.33 327.569 171.82 325.219 173.31 323.699L173.46 323.569C173.88 323.149 174.3 322.799 174.62 322.569L206.88 295.569L212.88 302.709C204.06 310.079 181.33 329.069 179.38 330.709C178.488 331.501 177.343 331.948 176.15 331.969V331.969Z" fill="#4B1535"/>
<path d="M755.86 347.229C750.47 347.226 745.156 345.954 740.349 343.517C735.542 341.079 731.376 337.544 728.188 333.198C725 328.851 722.881 323.816 722 318.498C721.12 313.181 721.503 307.731 723.12 302.589C725.021 296.526 728.566 291.109 733.36 286.94C738.155 282.771 744.012 280.013 750.28 278.973C756.548 277.932 762.982 278.65 768.866 281.047C774.751 283.443 779.855 287.425 783.613 292.548C787.371 297.671 789.634 303.736 790.152 310.069C790.67 316.402 789.421 322.754 786.545 328.42C783.67 334.085 779.28 338.843 773.862 342.163C768.445 345.484 762.214 347.237 755.86 347.229ZM755.86 308.779C754.991 308.786 754.147 309.07 753.451 309.59C752.755 310.109 752.243 310.838 751.99 311.669V311.669C751.83 312.175 751.772 312.708 751.82 313.237C751.868 313.766 752.021 314.28 752.27 314.749C752.517 315.228 752.86 315.652 753.275 315.996C753.691 316.34 754.172 316.596 754.69 316.749C755.726 317.065 756.844 316.961 757.803 316.457C758.762 315.953 759.483 315.091 759.81 314.059C760.133 313.03 760.034 311.915 759.535 310.958C759.036 310.002 758.178 309.283 757.15 308.959C756.735 308.832 756.303 308.771 755.87 308.779H755.86Z" fill="#4B1535"/>
<path fill-rule="evenodd" clip-rule="evenodd" d="M737.56 307.129C738.697 303.502 740.885 300.293 743.845 297.909C746.806 295.525 750.407 294.072 754.194 293.735C757.98 293.398 761.781 294.191 765.117 296.014C768.453 297.837 771.173 300.608 772.934 303.977C774.694 307.346 775.417 311.161 775.009 314.941C774.601 318.72 773.082 322.294 770.643 325.21C768.204 328.126 764.956 330.253 761.308 331.323C757.66 332.392 753.777 332.356 750.15 331.219C747.74 330.466 745.502 329.246 743.565 327.627C741.627 326.008 740.028 324.023 738.858 321.785C737.689 319.548 736.972 317.102 736.749 314.587C736.527 312.072 736.802 309.537 737.56 307.129V307.129Z" fill="#CE985F"/>
<g opacity="0.37">
<path fill-rule="evenodd" clip-rule="evenodd" d="M766.82 297.669C744.82 294.539 739.73 308.509 738.91 322.479C728.95 302.349 752.05 286.119 766.82 297.669Z" fill="#FDE9B6"/>
</g>
<path d="M738.78 331.969C738.099 331.959 737.428 331.803 736.812 331.511C736.196 331.22 735.65 330.8 735.21 330.279C732.96 327.569 734.44 325.219 735.94 323.699L736.1 323.569C736.52 323.149 736.94 322.799 737.26 322.569L769.52 295.569L775.52 302.709C766.7 310.079 743.96 329.079 742.02 330.709C741.125 331.503 739.976 331.95 738.78 331.969V331.969Z" fill="#4B1535"/>
</svg>
