<?xml version="1.0" encoding="utf-8"?>
<!-- Generator: Adobe Illustrator 26.0.1, SVG Export Plug-In . SVG Version: 6.00 Build 0)  -->
<svg version="1.1" id="Calque_1" xmlns="http://www.w3.org/2000/svg" xmlns:xlink="http://www.w3.org/1999/xlink" x="0px" y="0px"
	 viewBox="0 0 1137 1192" style="enable-background:new 0 0 1137 1192;" xml:space="preserve">
<style type="text/css">
	.st0{clip-path:url(#SVGID_00000119797914724011328850000009770300977678848430_);}
	.st1{fill:#4F544A;}
	.st2{fill-rule:evenodd;clip-rule:evenodd;fill:#384041;}
	.st3{fill:#FFFFFF;}
	.st4{fill-rule:evenodd;clip-rule:evenodd;fill:#FFFFFF;}
</style>
<g>
	<defs>
		<rect id="SVGID_1_" width="1136.1" height="1191.6"/>
	</defs>
	<clipPath id="SVGID_00000091698404583811508520000001869130229064781973_">
		<use xlink:href="#SVGID_1_"  style="overflow:visible;"/>
	</clipPath>
	<g style="clip-path:url(#SVGID_00000091698404583811508520000001869130229064781973_);">
		<path class="st1" d="M708.6,170.1l-20.4,5.2l-10-18.7c-31-57.7-70.6-87.3-111.1-97.9C546,53.3,524,52.4,502.5,56
			c-21.5,3.6-42.2,10.7-61.4,21c-40.2,21.5-70.5,54.1-78.5,84.5l-7.4,28.1l-27.3-9.4c-19.4-6.6-51.2-5-81.4,5.5
			c-76.9,26.8-102.1,120.5-79.9,192.2c-30.4-44.1-42.5-82.7-42.1-115.8c0.4-34,13.4-61.6,33.6-83.1c19-20.3,44.3-34.9,70.7-44.1
			c30.7-10.7,63.8-14.2,90.8-11.2c17.7-36.2,52.8-71,96.1-94.2C440.2,16.4,466.7,7.3,494,2.8c28.8-4.8,58.2-3.5,86.5,3.7
			c49.6,13,97.3,45.8,135,107c44-7.1,85.4-0.2,120.8,16c32.3,14.8,60.1,38,80.3,67.3c19.7,28.7,30.9,62.4,30.7,97.3
			c-0.2,36-12.5,72.8-40,106.2C975.2,248.3,853.1,133.3,708.6,170.1"/>
		<path class="st2" d="M553.9,223.7c206.9,0,374.6,167.5,374.6,374.1S760.7,972,553.9,972S179.3,804.5,179.3,597.8
			S347,223.7,553.9,223.7z"/>
		<path class="st3" d="M720.8,431c-38.6-38.5-89.3-62.5-143.6-67.8c-54.3-5.3-108.7,8.4-154,38.7c-45.3,30.3-78.7,75.4-94.5,127.6
			c-15.8,52.2-13,108.2,7.9,158.6c20.9,50.4,58.6,91.9,106.7,117.6c48.1,25.7,103.6,33.9,157.1,23.3
			c53.5-10.6,101.6-39.5,136.2-81.7c34.6-42.2,53.5-95,53.5-149.5c0-31-6.1-61.7-18-90.3C760.2,478.9,742.8,452.9,720.8,431
			 M553.8,346c58.3,0,114.8,20.3,159.8,57.3c45,37,75.9,88.5,87.2,145.7c11.4,57.2,2.5,116.5-25,167.9c-27.5,51.4-72,91.7-125.8,114
			c-53.9,22.3-113.8,25.2-169.6,8.3c-55.8-16.9-104-52.7-136.3-101.2c-32.4-48.5-46.9-106.7-41.2-164.7
			c5.7-58,31.4-112.3,72.6-153.5c23.4-23.4,51.2-42,81.8-54.7S520.8,345.9,553.8,346L553.8,346z"/>
		<path class="st4" d="M572,719.4v354.7h-36.3V719c0-27.1-46.9-36.4-46.9-89.9c0-52.9-0.1-105.8-0.2-158.7h17
			c0.1,58.9,0.2,117.8,0.3,176.8h10.6c-0.1-58.9-0.2-117.8-0.3-176.8h18.6l0.3,176.7h10.6l-0.3-176.8h18.6
			c0.1,58.9,0.2,117.8,0.3,176.7h10.6c-0.1-58.9-0.2-117.8-0.3-176.8h18.6l0.3,176.7h10.6l-0.3-176.7h16.5
			c0.1,52.9,0.1,105.8,0.2,158.7c0,55.5-48.4,62.4-48.4,90.5"/>
	</g>
</g>
</svg>
