<svg width="1137" height="1192" viewBox="0 0 1137 1192" fill="none" xmlns="http://www.w3.org/2000/svg">
<g clip-path="url(#clip0_260_495)">
<path d="M708.57 170.11L688.19 175.31L678.19 156.61C647.19 98.89 607.62 69.28 567.07 58.66C545.977 53.2875 523.995 52.3781 502.53 55.99C481.058 59.5458 460.327 66.6423 441.18 76.99C400.97 98.51 370.7 131.07 362.72 161.47L355.3 189.61L327.96 180.26C308.6 173.64 276.77 175.26 246.56 185.79C169.67 212.61 144.46 306.33 166.63 378C136.27 333.89 124.16 295.26 124.53 262.16C124.9 228.16 137.94 200.59 158.08 179.08C177.08 158.75 202.36 144.17 228.8 134.94C259.46 124.24 292.56 120.7 319.65 123.73C337.36 87.52 372.43 52.73 415.79 29.53C440.216 16.3598 466.659 7.33391 494.04 2.81997C522.822 -1.96788 552.287 -0.697476 580.55 6.54997C630.11 19.55 677.86 52.35 715.55 113.55C759.55 106.49 800.99 113.31 836.31 129.55C868.648 144.333 896.397 167.57 916.63 196.81C936.34 225.55 947.54 259.22 947.32 294.09C947.1 330.09 934.81 366.85 907.32 400.26C975.19 248.31 853.09 133.26 708.62 170.06" fill="#4F544A"/>
<path fill-rule="evenodd" clip-rule="evenodd" d="M553.86 223.68C760.73 223.68 928.42 391.19 928.42 597.82C928.42 804.45 760.73 971.95 553.86 971.95C346.99 971.95 179.31 804.45 179.31 597.82C179.31 391.19 347.01 223.68 553.86 223.68Z" fill="#384041"/>
<path d="M720.85 431.02C682.267 392.493 631.52 368.534 577.254 363.224C522.988 357.915 468.56 371.582 423.24 401.9C377.921 432.217 344.513 477.308 328.709 529.492C312.905 581.677 315.681 637.726 336.564 688.094C357.448 738.461 395.147 780.03 443.241 805.721C491.334 831.411 546.847 839.634 600.323 828.987C653.798 818.341 701.929 789.485 736.517 747.334C771.104 705.183 790.009 652.345 790.01 597.82C790.021 566.835 783.918 536.151 772.05 507.529C760.182 478.906 742.783 452.907 720.85 431.02M553.85 345.97C612.149 345.997 668.635 366.237 713.684 403.241C758.734 440.245 789.559 491.724 800.91 548.908C812.26 606.091 803.433 665.441 775.931 716.845C748.43 768.25 703.957 808.529 650.088 830.821C596.219 853.112 536.288 856.037 480.505 839.096C424.721 822.155 376.537 786.397 344.162 737.915C311.787 689.432 297.223 631.224 302.951 573.207C308.68 515.19 334.347 460.954 375.58 419.74C398.976 396.312 426.769 377.735 457.363 365.076C487.957 352.417 520.75 345.924 553.86 345.97H553.85Z" fill="white"/>
<path fill-rule="evenodd" clip-rule="evenodd" d="M571.96 719.44V1074.1H535.62V719.02C535.62 691.89 488.67 682.63 488.67 629.14C488.67 576.226 488.593 523.313 488.44 470.4H505.44C505.52 529.32 505.607 588.236 505.7 647.15H516.26C516.18 588.23 516.093 529.313 516 470.4H534.62L534.96 647.06H545.52L545.25 470.31H563.88C563.96 529.223 564.047 588.136 564.14 647.05H574.7C574.62 588.13 574.533 529.213 574.44 470.3H593.06L593.33 647.04H603.89L603.62 470.3H620.14C620.213 523.213 620.29 576.126 620.37 629.04C620.37 684.54 571.97 691.48 571.97 719.57" fill="white"/>
<path d="M-0.0400391 1051.17C12.6766 1049.25 25.5188 1048.27 38.38 1048.26C64.38 1048.26 82.82 1054.26 95.07 1065.71C107.53 1077.13 114.8 1093.33 114.8 1115.97C114.8 1138.81 107.74 1157.5 94.66 1170.38C81.58 1183.46 59.98 1190.52 32.77 1190.52C21.8108 1190.58 10.8567 1190.03 -0.0400391 1188.86V1051.17ZM18.03 1174.94C22.6 1175.78 29.24 1175.94 36.3 1175.94C74.93 1175.94 95.9 1154.35 95.9 1116.55C96.11 1083.55 77.42 1062.55 39.21 1062.55C32.1042 1062.44 25.006 1063.06 18.03 1064.42V1174.94Z" fill="#384041"/>
<path d="M210.78 1123.61H156.37V1174.07H217.01V1189.23H138.3V1049.23H213.89V1064.39H156.37V1108.63H210.78V1123.61Z" fill="#384041"/>
<path d="M237.96 1167.26C247.752 1173.14 258.939 1176.3 270.36 1176.4C288.84 1176.4 299.64 1166.64 299.64 1152.52C299.64 1139.43 292.16 1131.96 273.26 1124.69C250.42 1116.59 236.26 1104.75 236.26 1085.02C236.26 1063.22 254.32 1047.02 281.53 1047.02C295.86 1047.02 306.24 1050.34 312.47 1053.87L307.47 1068.62C299.302 1064.22 290.166 1061.94 280.89 1061.97C261.78 1061.97 254.51 1073.39 254.51 1082.97C254.51 1096.05 263.03 1102.49 282.34 1109.97C306.01 1119.11 318.06 1130.53 318.06 1151.09C318.06 1172.69 302.06 1191.38 269.06 1191.38C255.56 1191.38 240.82 1187.38 233.34 1182.45L237.96 1167.26Z" fill="#384041"/>
<path d="M440.66 1184.71C434.02 1188.03 420.72 1191.35 403.66 1191.35C364.2 1191.35 334.5 1166.43 334.5 1120.53C334.5 1076.72 364.2 1047.02 407.6 1047.02C425.05 1047.02 436.05 1050.76 440.83 1053.25L436.47 1067.99C429.61 1064.67 419.85 1062.18 408.22 1062.18C375.41 1062.18 353.61 1083.18 353.61 1119.91C353.61 1154.18 373.34 1176.19 407.39 1176.19C418.39 1176.19 429.61 1173.91 436.88 1170.38L440.66 1184.71Z" fill="#384041"/>
<path d="M463.29 1051.17C472.43 1049.3 485.51 1048.26 497.97 1048.26C517.29 1048.26 529.75 1051.8 538.47 1059.69C545.53 1065.92 549.47 1075.47 549.47 1086.27C549.47 1104.75 537.84 1117 523.1 1121.99V1122.61C533.9 1126.35 540.34 1136.32 543.66 1150.86C548.23 1170.38 551.55 1183.86 554.46 1189.27H535.77C533.48 1185.33 530.37 1173.27 526.42 1155.84C522.27 1136.53 514.79 1129.26 498.42 1128.63H481.42V1189.27H463.29V1051.17ZM481.36 1114.93H499.84C519.15 1114.93 531.41 1104.34 531.41 1088.35C531.41 1070.28 518.32 1062.35 499.22 1062.18C490.5 1062.18 484.27 1063.01 481.36 1063.84V1114.93Z" fill="#384041"/>
<path d="M593.08 1049.3V1189.3H575.01V1049.3H593.08Z" fill="#384041"/>
<path d="M624.64 1050.96C636.109 1049.1 647.712 1048.2 659.33 1048.26C677.19 1048.26 690.27 1052.42 698.58 1059.89C706.26 1066.54 710.83 1076.72 710.83 1089.18C710.83 1101.84 707.09 1111.81 700.03 1119.08C690.48 1129.26 674.9 1134.45 657.25 1134.45C651.85 1134.45 646.87 1134.24 642.71 1133.2V1189.27H624.64V1050.96ZM642.71 1118.46C647.63 1119.57 652.669 1120.05 657.71 1119.91C679.52 1119.91 692.81 1109.32 692.81 1090.01C692.81 1071.52 679.73 1062.59 659.81 1062.59C651.92 1062.59 645.9 1063.22 642.81 1064.05L642.71 1118.46Z" fill="#384041"/>
<path d="M761.7 1064.67H719.13V1049.3H822.76V1064.67H779.96V1189.27H761.7V1064.67Z" fill="#384041"/>
<path d="M856.4 1049.3V1189.3H838.33V1049.3H856.4Z" fill="#384041"/>
<path d="M1007.58 1117.83C1007.58 1166.01 978.3 1191.56 942.58 1191.56C905.58 1191.56 879.65 1162.9 879.65 1120.56C879.65 1076.12 907.27 1047.05 944.65 1047.05C982.87 1047.02 1007.58 1076.3 1007.58 1117.83ZM898.96 1120.12C898.96 1150.02 915.16 1176.81 943.61 1176.81C972.27 1176.81 988.46 1150.44 988.46 1118.67C988.46 1090.84 973.93 1061.76 943.81 1061.76C913.96 1061.76 898.96 1089.38 898.96 1120.12Z" fill="#384041"/>
<path d="M1031.04 1189.27V1049.27H1050.77L1095.63 1120.09C1104.99 1134.7 1113.39 1149.9 1120.76 1165.61L1121.17 1165.4C1119.51 1146.71 1119.09 1129.68 1119.09 1107.88V1049.31H1136.09V1189.31H1117.82L1073.38 1118.31C1063.62 1102.73 1054.27 1086.74 1047.21 1071.58L1046.59 1071.79C1047.59 1089.44 1048.04 1106.27 1048.04 1129.52V1189.33L1031.04 1189.27Z" fill="#384041"/>
</g>
<defs>
<clipPath id="clip0_260_495">
<rect width="1136.12" height="1191.56" fill="white"/>
</clipPath>
</defs>
</svg>
