<svg width="246" height="246" viewBox="0 0 246 246" fill="none" xmlns="http://www.w3.org/2000/svg">
<path d="M199.875 0H46.125C20.6509 0 0 20.6509 0 46.125V199.875C0 225.349 20.6509 246 46.125 246H199.875C225.349 246 246 225.349 246 199.875V46.125C246 20.6509 225.349 0 199.875 0Z" fill="#384041"/>
<path fill-rule="evenodd" clip-rule="evenodd" d="M86.2842 188.364H180.191V73.5419H110.328C109.877 73.5594 109.427 73.4856 109.005 73.3251C108.583 73.1645 108.198 72.9205 107.873 72.6076C107.548 72.2948 107.289 71.9195 107.113 71.5043C106.936 71.089 106.845 70.6424 106.845 70.1912C106.845 69.7399 106.936 69.2933 107.113 68.8781C107.289 68.4628 107.548 68.0876 107.873 67.7747C108.198 67.4618 108.583 67.2178 109.005 67.0573C109.427 66.8967 109.877 66.823 110.328 66.8404H183.544C184.433 66.8417 185.284 67.1956 185.912 67.8243C186.54 68.453 186.892 69.3052 186.892 70.1937V191.717C186.892 192.606 186.54 193.458 185.912 194.087C185.284 194.715 184.433 195.069 183.544 195.07H82.9459C82.0566 195.07 81.2037 194.717 80.5748 194.088C79.946 193.459 79.5927 192.607 79.5927 191.717V113.396C79.6261 112.53 79.9938 111.71 80.6186 111.109C81.2433 110.508 82.0765 110.172 82.9434 110.172C83.8103 110.172 84.6436 110.508 85.2683 111.109C85.893 111.71 86.2607 112.53 86.2942 113.396L86.2842 188.364Z" fill="#FFFFFE"/>
<path d="M136.849 131.493L115.047 124.126L132.304 106.869L139.616 128.505C139.787 128.902 139.839 129.341 139.766 129.767C139.693 130.193 139.498 130.589 139.205 130.907C138.911 131.224 138.532 131.45 138.113 131.557C137.694 131.664 137.253 131.647 136.844 131.508L136.849 131.493ZM111.279 121.568L129.757 103.105L89.8677 63.2264L71.4047 81.7094L111.279 121.583V121.568ZM68.2366 78.5263L62.9164 73.2011C60.5083 70.7438 59.1673 67.4354 59.1849 63.9948C59.2025 60.5543 60.5773 57.2597 63.0105 54.8272C65.4437 52.3946 68.7386 51.0207 72.1792 51.0041C75.6197 50.9874 78.9278 52.3293 81.3845 54.7381L86.6896 60.0433L68.2366 78.5263Z" fill="#FFFFFE"/>
</svg>
