<svg width="187" height="213" viewBox="0 0 187 213" fill="none" xmlns="http://www.w3.org/2000/svg">
<path d="M75.9241 29.1949C76.5281 30.4588 77.7513 33.4787 77.4468 36.7474C75.4673 36.2398 73.6806 36.1891 72.2442 36.9149C67.4274 39.3563 73.9141 41.3459 72.8228 44.8785C71.7316 48.4111 69.3866 48.7004 71.7316 51.0402C74.0765 53.3801 93.9529 56.5675 99.3483 63.3079C99.3483 63.3079 98.7037 59.8413 87.6742 55.6641C76.6448 51.4869 76.0002 49.8221 75.5992 48.8577C75.1982 47.8934 77.396 44.6196 75.5992 42.8229C74.8277 42.0514 76.8225 41.6656 81.4464 44.5587C86.0703 47.4518 99.6833 56.1818 107.332 55.4103C108.347 55.4103 108.616 56.1818 107.332 58.9632C106.961 59.753 106.808 60.6274 106.887 61.4963C106.966 62.3653 107.276 63.1974 107.784 63.9068C107.784 63.9068 107.88 59.7652 112.352 55.2784C112.505 55.0632 112.604 54.8144 112.641 54.5529C112.678 54.2914 112.651 54.0249 112.563 53.7759C112.475 53.527 112.328 53.303 112.135 53.1227C111.942 52.9425 111.708 52.8114 111.454 52.7406C112.432 49.7376 113.603 46.8012 114.961 43.9497C117.179 45.4723 126.498 51.223 131.619 44.6958C136.188 38.8487 133.355 34.2248 131.919 32.5144C132.188 32.2403 132.457 31.9611 132.711 31.6668C142.71 20.0894 135.644 0.822445 113.296 3.77643C108.168 4.40035 103.145 5.70792 98.3636 7.66433C95.638 5.33464 85.0247 -2.6594 72.3254 1.97968C57.5552 7.37502 57.941 22.0181 62.8187 26.8957C65.8235 29.9004 71.2849 30.2507 75.9241 29.1949ZM124.986 45.0714C119.509 45.6754 116.428 43.9192 115.342 43.1223C116.357 41.1276 117.54 39.3207 118.742 38.2193C122.709 38.0337 126.535 36.6949 129.752 34.367C132.594 36.92 131.457 44.3608 124.986 45.0714ZM85.1669 5.70515C91.3034 7.48668 93.826 8.64899 94.8614 9.32404C87.1413 13.4251 84.5172 18.0337 84.5172 18.0337C92.5367 10.0143 116.763 2.11164 127.66 9.43063C138.558 16.7496 135.01 33.0422 121.773 35.6308C108.535 38.2193 99.0387 26.2562 99.0387 26.2562C100.587 33.2605 108.175 37.8082 116.205 38.2244C113.667 40.8332 108.287 46.8783 107.439 52.1264C103.566 51.2686 97.45 49.2841 92.618 45.65C88.6234 42.6351 83.9893 39.3106 79.8222 37.5696C79.6648 34.9405 79.1826 30.3116 77.7564 28.6874C79.6476 28.1455 81.3916 27.1825 82.8574 25.8704C82.8574 25.8704 70.7824 31.7784 65.1332 23.1702C59.484 14.562 72.3254 1.97968 85.1669 5.70515Z" fill="#EEEEEE"/>
<path d="M137.548 130.671H135.548C120.717 130.671 118.966 142.72 115.357 139.117C107.779 131.539 91.2069 130.737 86.2784 130.671H48.2109C45.7111 130.671 43.3136 131.664 41.546 133.432C39.7784 135.199 38.7853 137.597 38.7853 140.096C38.7853 142.596 39.7784 144.994 41.546 146.761C43.3136 148.529 45.7111 149.522 48.2109 149.522H137.548C138.786 149.522 140.011 149.278 141.155 148.804C142.298 148.331 143.337 147.636 144.213 146.761C145.088 145.886 145.782 144.847 146.256 143.703C146.729 142.56 146.973 141.334 146.973 140.096C146.973 138.859 146.729 137.633 146.256 136.489C145.782 135.346 145.088 134.307 144.213 133.432C143.337 132.556 142.298 131.862 141.155 131.389C140.011 130.915 138.786 130.671 137.548 130.671Z" fill="#EEEEEE"/>
<path d="M66.4885 61.1153C65.5596 59.4505 64.5952 57.7755 63.6359 56.1006C62.6766 54.4257 61.6919 52.7609 60.7174 51.1265C59.7429 49.4922 58.7785 47.8883 57.8294 46.3403C56.8802 44.7922 55.9514 43.2949 55.0631 41.9042C54.1749 40.5135 53.3272 39.1786 52.5253 37.9605C50.9467 35.5293 49.5814 33.5295 48.6119 32.1337C47.6425 30.7379 47.0892 29.9563 47.0892 29.9563C47.0892 29.9563 47.475 30.8496 48.1957 32.3824C48.9165 33.9152 49.9367 36.0876 51.2614 38.6863C51.9162 39.9806 52.6268 41.3865 53.4085 42.8483C54.1901 44.31 54.9971 45.8936 55.8702 47.462C56.7432 49.0303 57.6365 50.6951 58.5704 52.3548C59.5043 54.0145 60.4586 55.6895 61.4179 57.3695C62.3772 59.0495 63.3568 60.7092 64.3313 62.3436L65.3464 64.054C66.1213 63.8172 66.908 63.5854 67.7066 63.3587C67.3006 62.6176 66.8844 61.8665 66.4885 61.1153Z" fill="#F7951E"/>
<path d="M50.5304 65.7188C49.16 64.3585 47.7896 62.9932 46.4242 61.6583C45.0589 60.3234 43.7138 59.0292 42.3992 57.7857C41.0846 56.5421 39.8005 55.3443 38.5823 54.2328C37.3641 53.1212 36.1967 52.0452 35.1156 51.0757C32.9585 49.1318 31.1211 47.5533 29.8268 46.457C28.5325 45.3606 27.7711 44.7566 27.7711 44.7566C27.7711 44.7566 28.3751 45.518 29.4715 46.8122C30.5678 48.1065 32.1463 49.949 34.0903 52.101C35.0598 53.1821 36.1206 54.3546 37.2474 55.5676C38.3742 56.7807 39.5619 58.075 40.8004 59.3845C42.0388 60.694 43.3382 62.0491 44.6782 63.4094C46.0182 64.7697 47.3683 66.1451 48.7387 67.5155C49.6219 68.3987 50.5101 69.2717 51.3933 70.1447C52.1276 69.7116 52.8822 69.292 53.657 68.8859C52.6216 67.8268 51.5794 66.7711 50.5304 65.7188Z" fill="#F7951E"/>
<path d="M40.3892 78.3925C38.7092 77.4333 37.0342 76.4689 35.3744 75.5451C33.7147 74.6214 32.0753 73.7078 30.4815 72.8449C28.8877 71.9821 27.3397 71.1598 25.8677 70.3833C24.3958 69.6067 23 68.891 21.7057 68.2363C19.1221 66.9166 16.9396 65.866 15.4017 65.1453C13.8637 64.4245 12.9755 64.0337 12.9755 64.0337C12.9755 64.0337 13.7572 64.6123 15.153 65.5564C16.5488 66.5004 18.5486 67.8912 20.9798 69.4697C22.198 70.2615 23.5177 71.1243 24.9236 72.0075C26.3296 72.8906 27.8117 73.8296 29.3598 74.7736C30.9079 75.7177 32.5067 76.6871 34.1461 77.6566C35.7856 78.626 37.3996 79.5701 39.0391 80.5294C39.5669 79.8526 40.1253 79.1979 40.7141 78.5651L40.3892 78.3925Z" fill="#F7951E"/>
<path d="M28.2888 91.8073C26.4463 91.3352 24.6293 90.8886 22.868 90.4622C21.1067 90.0359 19.3962 89.6552 17.7923 89.2847C16.1884 88.9142 14.6353 88.5843 13.2242 88.2696C10.3818 87.6605 8.00135 87.2139 6.33146 86.9144C4.66156 86.615 3.70226 86.4678 3.70226 86.4678C3.70226 86.4678 4.60573 86.823 6.20457 87.3966C7.8034 87.9701 10.0875 88.7772 12.8486 89.6705C14.2292 90.1222 15.7215 90.6094 17.3101 91.0916C18.8988 91.5738 20.5738 92.1067 22.3097 92.6143C24.0456 93.1218 25.8626 93.6294 27.6797 94.1674C29.4207 94.675 31.1921 95.1368 32.9635 95.619C33.0186 94.7687 33.1169 93.9216 33.2579 93.0812C31.5779 92.6549 29.9435 92.2184 28.2888 91.8073Z" fill="#F7951E"/>
<path d="M31.4256 109.308C29.4918 109.308 27.558 109.308 25.6546 109.348C23.7512 109.389 21.8834 109.409 20.0714 109.455C18.2593 109.501 16.5184 109.572 14.8485 109.633C13.1786 109.694 11.6153 109.775 10.1687 109.851C7.27051 110.003 4.85449 110.186 3.15922 110.328C1.46394 110.47 0.504639 110.577 0.504639 110.577C0.504639 110.577 1.46902 110.688 3.15922 110.831C4.84941 110.973 7.27051 111.155 10.1687 111.303C11.6153 111.384 13.1887 111.47 14.8485 111.521C16.5082 111.572 18.2593 111.658 20.0714 111.698C21.8834 111.739 23.7563 111.785 25.6546 111.805C27.5529 111.825 29.4918 111.841 31.4256 111.846C32.923 111.846 34.4203 111.846 35.9074 111.846C35.4174 111.066 35.0285 110.227 34.7502 109.348L31.4256 109.308Z" fill="#F7951E"/>
<path d="M33.2123 125.443C31.3496 125.951 29.4817 126.458 27.6545 126.966C25.8272 127.473 24.0254 127.981 22.2844 128.514C20.5434 129.047 18.8736 129.529 17.2849 130.037C15.6962 130.544 14.209 131.001 12.8233 131.473C10.0622 132.366 7.77306 133.168 6.1793 133.742C4.58553 134.315 3.67699 134.671 3.67699 134.671C3.67699 134.671 4.63629 134.528 6.30619 134.229C7.97608 133.93 10.3667 133.478 13.1989 132.874C14.6201 132.574 16.1581 132.25 17.7671 131.859C19.376 131.468 21.0967 131.107 22.8427 130.676C24.5888 130.245 26.3957 129.808 28.2635 129.336C30.1314 128.864 31.9789 128.372 33.8468 127.879L34.2325 127.773C33.9239 126.993 33.6778 126.191 33.4966 125.372L33.2123 125.443Z" fill="#F7951E"/>
<path d="M29.3598 146.37C27.8117 147.309 26.3144 148.253 24.9236 149.136C23.5329 150.019 22.198 150.872 20.9798 151.674C18.5486 153.252 16.5437 154.623 15.153 155.587C13.7622 156.551 12.9755 157.135 12.9755 157.135C12.9755 157.135 13.8688 156.744 15.4017 156.024C16.9345 155.303 19.1221 154.252 21.7057 152.933C23 152.273 24.4059 151.562 25.8677 150.78C27.3295 149.999 28.9131 149.192 30.4815 148.324C31.4966 147.781 32.5118 147.217 33.5269 146.644C33.2898 145.835 33.12 145.009 33.0193 144.172C31.7707 144.903 30.5475 145.644 29.3598 146.37Z" fill="#F7951E"/>
<path d="M45.1705 157.247L44.6629 157.754C43.3331 159.115 42.0337 160.465 40.7851 161.779C39.5365 163.094 38.3488 164.383 37.2321 165.601C36.1155 166.819 35.0445 167.982 34.0751 169.063C32.1311 171.22 30.5526 173.057 29.4562 174.352C28.3599 175.646 27.7559 176.407 27.7559 176.407C27.7559 176.407 28.5172 175.803 29.8115 174.707C31.1058 173.61 32.9432 172.032 35.1004 170.088C36.1815 169.119 37.354 168.058 38.567 166.936C39.7801 165.814 41.0744 164.622 42.3839 163.383C43.6935 162.145 45.0487 160.845 46.409 159.511L48.3834 157.577H48.226C47.199 157.57 46.1753 157.46 45.1705 157.247Z" fill="#F7951E"/>
<path d="M140.771 159.49C142.131 160.82 143.481 162.114 144.796 163.363C146.111 164.611 147.4 165.799 148.618 166.916C149.836 168.032 150.998 169.098 152.08 170.068C154.237 172.012 156.074 173.59 157.368 174.686C158.663 175.783 159.424 176.387 159.424 176.387C159.424 176.387 158.82 175.625 157.724 174.331C156.627 173.037 155.049 171.2 153.105 169.042C152.135 167.961 151.075 166.794 149.953 165.581C148.831 164.368 147.638 163.043 146.4 161.759C145.161 160.475 143.862 159.094 142.527 157.734L141.761 156.957C140.783 157.234 139.779 157.412 138.766 157.49C139.426 158.171 140.086 158.835 140.771 159.49Z" fill="#F7951E"/>
<path d="M115.722 162.282C116.23 163.901 116.56 164.82 116.56 164.82C116.56 164.82 116.453 163.85 116.215 162.17C116.042 160.972 115.814 159.399 115.509 157.556H114.281C114.854 159.46 115.352 161.069 115.722 162.282Z" fill="#F7951E"/>
<path d="M74.8785 162.47C74.7211 164.155 74.6653 165.129 74.6653 165.129C74.6653 165.129 74.9394 164.195 75.3708 162.556C75.7058 161.282 76.1423 159.576 76.6245 157.561H75.381C75.1526 159.526 74.9902 161.196 74.8785 162.47Z" fill="#F7951E"/>
<path d="M96.7597 162.881C96.8104 164.581 96.8713 165.55 96.8713 165.55C96.8713 165.55 97.0338 164.591 97.2622 162.911C97.4449 161.556 97.6784 159.724 97.922 157.556H96.6531C96.6683 159.708 96.714 161.531 96.7597 162.881Z" fill="#F7951E"/>
<path d="M156.713 148.314C158.302 149.182 159.855 149.994 161.327 150.77C162.799 151.547 164.195 152.263 165.489 152.922C168.073 154.242 170.26 155.288 171.793 156.013C173.326 156.739 174.219 157.125 174.219 157.125C174.219 157.125 173.438 156.546 172.042 155.577C170.646 154.607 168.651 153.242 166.215 151.664C164.997 150.872 163.677 150.014 162.271 149.126C160.865 148.238 159.383 147.299 157.835 146.36C156.287 145.421 154.688 144.441 153.054 143.472L152.871 143.37C152.808 144.242 152.669 145.106 152.455 145.954C153.896 146.771 155.313 147.558 156.713 148.314Z" fill="#F7951E"/>
<path d="M153.328 127.895C155.196 128.402 157.064 128.91 158.911 129.351C160.759 129.793 162.571 130.27 164.337 130.691C166.104 131.113 167.809 131.503 169.413 131.874C171.017 132.244 172.57 132.574 173.981 132.889C176.818 133.493 179.199 133.94 180.869 134.244C182.539 134.549 183.498 134.686 183.498 134.686C183.498 134.686 182.594 134.331 181.001 133.757C179.407 133.183 177.118 132.381 174.357 131.488C172.976 131.036 171.479 130.544 169.89 130.062C168.301 129.58 166.631 129.047 164.89 128.539C163.149 128.032 161.337 127.524 159.52 126.991C157.703 126.458 155.825 125.976 153.963 125.469L152.44 125.068C152.263 125.893 152.02 126.702 151.714 127.489L153.328 127.895Z" fill="#F7951E"/>
<path d="M155.774 111.846C157.703 111.846 159.637 111.846 161.54 111.805C163.444 111.764 165.317 111.749 167.124 111.698C168.931 111.648 170.677 111.582 172.352 111.521C174.027 111.46 175.58 111.384 177.031 111.303C179.93 111.155 182.346 110.973 184.036 110.831C185.726 110.688 186.69 110.577 186.69 110.577C186.69 110.577 185.726 110.47 184.036 110.328C182.346 110.186 179.93 110.003 177.031 109.851C175.58 109.775 173.986 109.689 172.352 109.633C170.717 109.577 168.936 109.496 167.124 109.455C165.312 109.414 163.444 109.369 161.54 109.348C159.637 109.328 157.703 109.318 155.774 109.308H152.435C152.16 110.187 151.773 111.026 151.283 111.805C152.775 111.836 154.297 111.841 155.774 111.846Z" fill="#F7951E"/>
<path d="M153.983 95.7104C155.846 95.2029 157.713 94.6953 159.541 94.1878C161.368 93.6802 163.175 93.1726 164.911 92.6346C166.647 92.0966 168.322 91.6195 169.91 91.112C171.499 90.6044 172.996 90.1425 174.377 89.6908C177.138 88.7975 179.422 87.9955 181.021 87.4169C182.62 86.8383 183.518 86.4881 183.518 86.4881C183.518 86.4881 182.559 86.6353 180.889 86.9348C179.219 87.2342 176.828 87.6809 174.001 88.2899C172.58 88.5894 171.042 88.9142 169.433 89.305C167.824 89.6959 166.098 90.0562 164.357 90.4826C162.617 90.9089 160.774 91.3556 158.932 91.8276C157.089 92.2996 155.221 92.7869 153.348 93.2792L152.653 93.4721C152.785 94.3127 152.871 95.1599 152.912 96.0099L153.983 95.7104Z" fill="#F7951E"/>
<path d="M148.08 80.5903C149.75 79.6157 151.42 78.6463 153.054 77.6718C154.688 76.6973 156.292 75.7329 157.835 74.7889C159.378 73.8448 160.881 72.9058 162.271 72.0227C163.662 71.1395 164.997 70.2818 166.215 69.4849C168.652 67.9064 170.651 66.541 172.042 65.5716C173.433 64.6022 174.22 64.0489 174.22 64.0489C174.22 64.0489 173.326 64.4347 171.793 65.1605C170.26 65.8863 168.073 66.9319 165.489 68.2515C164.195 68.9063 162.794 69.6169 161.327 70.3985C159.86 71.1801 158.282 71.9872 156.714 72.8601C155.145 73.7331 153.48 74.6264 151.821 75.5604C150.161 76.4943 148.486 77.4485 146.811 78.4078L145.567 79.1285C146.139 79.7782 146.681 80.4397 147.192 81.1131L148.08 80.5903Z" fill="#F7951E"/>
<path d="M138.461 67.5105C139.822 66.1401 141.182 64.7697 142.522 63.4043C143.862 62.039 145.146 60.694 146.395 59.3794C147.643 58.0648 148.831 56.7807 149.948 55.5626C151.064 54.3444 152.13 53.177 153.1 52.0959C155.044 49.9439 156.622 48.1015 157.718 46.8072C158.815 45.5129 159.419 44.7516 159.419 44.7516C159.419 44.7516 158.657 45.3556 157.363 46.4519C156.069 47.5482 154.231 49.1267 152.074 51.0707C150.993 52.0401 149.826 53.1009 148.613 54.2277C147.4 55.3545 146.1 56.5421 144.791 57.7806C143.481 59.019 142.126 60.3184 140.766 61.6533C139.405 62.9881 138.03 64.3433 136.66 65.7137C135.446 66.9319 134.238 68.15 133.051 69.3631C133.812 69.7843 134.573 70.2107 135.274 70.6523L138.461 67.5105Z" fill="#F7951E"/>
<path d="M122.321 55.8265C123.102 54.1211 123.696 52.6695 124.107 51.6493C124.518 50.6291 124.721 50.0251 124.721 50.0251C124.721 50.0251 124.32 50.5327 123.666 51.4006C123.011 52.2685 122.092 53.5628 121.052 55.121C119.595 57.268 117.905 59.9631 116.199 62.8613C117.001 63.0643 117.798 63.2825 118.585 63.5059C120.057 60.7194 121.351 58.0547 122.321 55.8265Z" fill="#F7951E"/>
<path d="M47.1602 124.403C47.1602 124.403 62.443 124.535 80.6241 124.58C80.7104 124.154 80.7967 123.712 80.8829 123.291C80.9692 122.87 81.0505 122.469 81.1317 122.063C67.4273 122.246 54.4286 122.626 49.3377 123.433L47.1145 124.118C47.084 124.163 47.0718 124.217 47.0803 124.27C47.0888 124.323 47.1174 124.37 47.1602 124.403Z" fill="#5D5D5D"/>
<path d="M47.1145 124.124L49.3376 123.438C48.0637 123.636 47.282 123.865 47.1145 124.124Z" fill="#5D5D5D"/>
<path d="M106.236 124.575H108.586L108.281 123.362C108.16 122.878 108.038 122.401 107.916 121.931H105.708C105.83 122.567 105.957 123.212 106.089 123.865C106.134 124.088 106.185 124.337 106.236 124.575Z" fill="#5D5D5D"/>
<path d="M80.6241 124.585H82.9589C83.0046 124.286 83.0554 123.976 83.101 123.682C83.1823 123.129 83.2635 122.581 83.3396 122.037L81.1317 122.063C81.0505 122.469 80.9642 122.88 80.8829 123.291C80.8017 123.702 80.7003 124.159 80.6241 124.585Z" fill="#5D5D5D"/>
<path d="M84.8775 130.671H86.2835C85.3902 130.656 84.8775 130.671 84.8775 130.671Z" fill="#5D5D5D"/>
<path d="M139.548 110.577H46.3075C42.247 110.577 38.9732 114.571 38.9732 119.484C38.9732 124.398 42.2622 128.392 46.3075 128.392H139.548C143.608 128.392 146.887 124.398 146.887 119.484C146.887 114.571 143.593 110.577 139.548 110.577ZM139.548 125.92H46.3075C43.6276 125.92 41.445 123.032 41.445 119.484C41.445 115.937 43.6276 113.049 46.3075 113.049H139.548C142.233 113.049 144.415 115.937 144.415 119.484C144.415 123.032 142.233 125.925 139.548 125.925V125.92Z" fill="#EEEEEE"/>
<path d="M142.248 99.3242H85.4003C74.0511 99.3242 72.0157 108.709 69.2546 105.922C63.0521 99.715 48.1905 99.3242 45.3989 99.3242H44.9472C44.3119 99.3034 43.679 99.4106 43.0859 99.6393C42.4929 99.8681 41.952 100.214 41.4952 100.656C41.0385 101.098 40.6753 101.627 40.4273 102.212C40.1792 102.798 40.0514 103.427 40.0514 104.062C40.0514 104.698 40.1792 105.327 40.4273 105.912C40.6753 106.497 41.0385 107.027 41.4952 107.469C41.952 107.911 42.4929 108.256 43.0859 108.485C43.679 108.714 44.3119 108.821 44.9472 108.8H142.248C142.883 108.821 143.516 108.714 144.109 108.485C144.702 108.256 145.243 107.911 145.7 107.469C146.157 107.027 146.52 106.497 146.768 105.912C147.016 105.327 147.144 104.698 147.144 104.062C147.144 103.427 147.016 102.798 146.768 102.212C146.52 101.627 146.157 101.098 145.7 100.656C145.243 100.214 144.702 99.8681 144.109 99.6393C143.516 99.4106 142.883 99.3034 142.248 99.3242Z" fill="#EEEEEE"/>
<path d="M92.8819 63.8865C63.0115 63.8865 38.7955 77.8596 38.7955 95.1013H146.989C146.989 77.8596 122.772 63.8865 92.8819 63.8865ZM53.0023 88.3153C51.4796 88.3153 50.2208 87.8991 50.2208 87.3915C50.2208 86.884 51.4644 86.4627 53.0023 86.4627C54.5402 86.4627 55.7838 86.8789 55.7838 87.3915C55.7838 87.9042 54.5402 88.3153 53.0023 88.3153ZM70.5743 73.2611C70.5743 72.7536 71.8178 72.3323 73.3558 72.3323C74.8937 72.3323 76.1372 72.7485 76.1372 73.2611C76.1372 73.7738 74.8937 74.19 73.3558 74.19C71.8178 74.19 70.5743 73.7738 70.5743 73.2611ZM74.2542 83.2194C72.7315 83.2194 71.4727 82.8032 71.4727 82.2906C71.4727 81.7779 72.7213 81.3617 74.2542 81.3617C75.787 81.3617 77.0356 81.7779 77.0356 82.2906C77.0356 82.8032 75.7921 83.2194 74.2542 83.2194ZM92.8819 71.4085C92.8819 70.901 94.1305 70.4797 95.6633 70.4797C97.1962 70.4797 98.4448 70.8959 98.4448 71.4085C98.4448 71.9212 97.2013 72.3323 95.6633 72.3323C94.1254 72.3323 92.8819 71.9161 92.8819 71.4085ZM98.4651 84.1432C96.9424 84.1432 95.6836 83.727 95.6836 83.2194C95.6836 82.7119 96.9424 82.2754 98.4651 82.2754C99.9878 82.2754 101.247 82.6916 101.247 83.2042C101.247 83.7168 99.9878 84.1432 98.4651 84.1432ZM112.489 76.1847C110.966 76.1847 109.708 75.7735 109.708 75.2609C109.708 74.7483 110.951 74.3321 112.489 74.3321C114.027 74.3321 115.271 74.7483 115.271 75.2609C115.271 75.7735 114.027 76.1847 112.489 76.1847ZM126.792 87.4068C125.27 87.4068 124.011 86.9906 124.011 86.4779C124.011 85.9653 125.255 85.5491 126.792 85.5491C128.33 85.5491 129.574 85.9653 129.574 86.4779C129.574 86.9906 128.33 87.3915 126.792 87.3915V87.4068Z" fill="#EEEEEE"/>
<path d="M142.192 118.82C142.192 118.754 142.192 118.688 142.156 118.627C142.121 118.566 142.111 118.408 142.085 118.302L142.009 118.043C141.984 117.947 141.953 117.855 141.923 117.759C141.893 117.662 141.837 117.53 141.791 117.414C141.745 117.297 141.74 117.277 141.71 117.211C141.634 117.038 141.547 116.86 141.456 116.703L141.349 116.525C141.278 116.404 141.207 116.282 141.131 116.165C141.055 116.048 141.045 116.038 141.004 115.977C140.964 115.916 140.832 115.744 140.745 115.627C140.659 115.51 140.659 115.52 140.618 115.47C140.481 115.307 140.339 115.15 140.187 114.998C138.954 113.764 136.634 114.175 136.634 116.799C136.639 116.884 136.639 116.969 136.634 117.053C136.634 117.053 136.634 117.094 136.634 117.114C136.634 117.134 136.634 117.241 136.609 117.302V117.368C136.609 117.429 136.609 117.49 136.568 117.556C136.57 117.574 136.57 117.593 136.568 117.612C136.552 117.677 136.532 117.742 136.507 117.804V117.855C136.482 117.921 136.456 117.987 136.426 118.048V118.094C136.39 118.16 136.355 118.226 136.314 118.292C136.274 118.358 136.314 118.292 136.314 118.332C136.272 118.402 136.226 118.47 136.177 118.535V118.566L136.01 118.774C135.944 118.845 135.883 118.916 135.812 118.987L135.578 119.2L135.309 119.413C135.21 119.488 135.106 119.557 135 119.621L134.66 119.824C134.261 120.046 133.847 120.239 133.421 120.403C132.624 120.705 131.804 120.943 130.97 121.114C130.711 121.17 130.437 121.225 130.152 121.276H130.026C129.741 121.327 129.452 121.378 129.147 121.418C128.833 121.464 128.498 121.505 128.158 121.545H128.021L127.138 121.631H126.894C126.556 121.662 126.217 121.687 125.879 121.708H125.818C125.442 121.733 125.051 121.753 124.65 121.768H119.636C116.489 121.768 111.652 121.768 105.931 121.768H100.424C77.066 121.992 45.1705 122.372 47.1602 124.403C47.1602 124.403 63.7729 124.545 82.9589 124.585L118.986 124.585L121.29 124.555H122.549L124.706 124.519H128.929L129.873 124.494H130.843L133.284 124.418H133.381L134.101 124.393L135.487 124.332H135.563C136.208 124.301 136.791 124.271 137.314 124.235H137.365C137.873 124.2 138.329 124.164 138.71 124.129H138.761C139.025 124.098 139.268 124.073 139.446 124.042H139.578C139.669 124.03 139.758 124.013 139.847 123.992L140.045 123.946H140.08C140.124 123.933 140.167 123.916 140.207 123.895C140.371 123.81 140.527 123.712 140.674 123.601C140.75 123.545 140.822 123.484 140.893 123.423C140.964 123.362 141.009 123.327 141.06 123.276C141.152 123.19 141.238 123.098 141.319 123.002L141.38 122.931C141.842 122.343 142.14 121.642 142.243 120.901C142.243 120.901 142.243 120.865 142.243 120.845C142.264 120.702 142.278 120.558 142.283 120.413V120.368C142.322 119.85 142.291 119.329 142.192 118.82Z" fill="#EEEEEE"/>
<path d="M145.506 178.046C145.045 177.722 145.298 176.93 145.395 174.935C145.491 172.94 145.689 171.113 141.882 169.763C138.076 168.413 135.203 173.895 137.127 176.818C139.05 179.742 139.979 182.569 138.725 182.523C137.472 182.477 136.314 180.422 137.152 179.417C137.847 178.579 133.599 176.879 133.162 180.853C133.123 181.171 133.111 181.492 133.127 181.813C131.787 183.092 130.193 184.168 129.894 183.381C129.386 182.036 133.655 175.727 134.213 174.798C134.771 173.869 135.228 171.316 133.096 170.991C131.665 170.712 130.316 170.11 129.153 169.23C129.153 169.23 130.406 165.053 127.671 162.83C124.935 160.607 122.336 163.845 123.539 166.469C124.133 167.758 125.569 169.119 126.884 170.281C125.767 176.646 121.879 180.021 119.433 182.036C117.494 183.635 115.042 183.64 114.514 181.645C115.616 183.01 117.052 182.264 116.732 181.894C116.26 181.341 116.595 180.087 117.814 179.6C119.032 179.112 126.483 174.524 122.813 171.128C119.402 167.956 112.591 171.687 110.829 177.031C110.906 175.95 110.906 174.864 110.829 173.783C110.271 164.505 105.673 168.149 105.449 168.865C105.377 169.493 105.402 170.128 105.525 170.748C105.112 170.023 104.469 169.457 103.698 169.139C101.592 168.21 96.6988 172.839 95.3537 176.138C94.824 177.445 94.5037 178.827 94.4046 180.234C93.0037 181.823 90.6385 183.721 90.2679 182.741C89.7604 181.396 94.029 175.087 94.5822 174.159C95.1355 173.23 95.5974 170.677 93.4707 170.352C92.0379 170.064 90.6903 169.451 89.5319 168.56C89.5319 168.56 90.7856 164.383 88.0448 162.16C85.3039 159.937 82.7102 163.175 83.9183 165.799C84.4258 166.865 85.4765 167.987 86.5779 168.997C85.776 172.357 83.3295 180.584 78.0965 183.548C77.2691 183.965 79.4872 179.087 81.1977 176.199C82.9082 173.311 83.6036 170.393 81.7662 169.626C79.9288 168.86 77.9696 169.489 78.0965 170.464C78.2234 171.438 75.5586 178.255 71.0667 181.807C70.1835 182.503 72.3356 177.214 74.8683 174.011C77.4011 170.809 74.9952 167.956 72.0818 169.281C69.1684 170.606 64.2957 174.864 64.1028 176.894C63.91 178.925 65.793 177.849 65.453 176.894C64.9911 175.559 69.3359 172.671 69.884 173.341C70.4322 174.011 65.6661 179.838 66.4275 183.457C67.1888 187.076 69.1277 186.289 69.7165 185.868C70.3053 185.447 74.6602 180.33 75.5637 178.539C75.1272 179.508 73.5334 183.29 74.4876 184.63C75.584 186.152 76.7666 186.396 77.1879 186.254C77.6092 186.112 85.5019 180.615 88.6792 170.91C89.3848 171.54 89.8822 172.042 89.9025 172.331C90.0903 174.869 86.0805 178.828 85.4308 182.214C84.7811 185.599 86.8418 186.624 89.7147 186.274C91.3135 186.091 93.1458 183.96 94.4706 182.097C94.7041 183.792 95.4857 185.274 97.1708 186.051C99.5361 187.152 102.698 183.944 104.581 181.63C102.993 185.898 99.5056 190.639 92.1104 194.872C90.2983 195.921 88.4158 196.844 86.4764 197.633C78.269 192.999 71.0565 188.863 65.9453 189.187C58.8901 189.649 58.5196 194.106 60.9305 198.278C62.9608 201.78 75.7008 205.384 87.4053 201.633C98.8103 208.495 113.433 217.301 125.052 210.622C137.487 203.475 130.635 197.166 129.229 196.41C127.742 195.481 129.041 193.162 127.742 192.7C126.442 192.238 128.858 199.562 122.823 203.648C116.788 207.734 108.347 208.845 96.1912 202.81C94.4706 201.958 92.7702 201.059 91.1156 200.151C92.1157 199.675 93.0854 199.138 94.0188 198.542C103.891 192.253 108.825 186.548 110.368 180.087C110.317 184.817 113.525 187.015 115.875 186.294C124.782 183.249 127.508 174.793 128.249 171.443C128.99 172.103 129.523 172.626 129.543 172.925C129.731 175.463 125.721 179.422 125.072 182.807C124.422 186.193 126.483 187.218 129.361 186.868C130.726 186.71 132.264 185.127 133.513 183.508C134.005 184.706 134.898 185.696 136.04 186.308C137.181 186.92 138.501 187.116 139.771 186.863C143.248 186.172 143.293 182.076 141.37 177.915C139.446 173.753 143.151 172.448 143.431 172.682C143.71 172.915 141.355 174.351 141.725 176.808C142.096 179.265 145.973 178.371 145.506 178.046ZM62.5091 192.715C62.1639 190.548 71.9194 192.908 82.7305 198.892C70.2901 202.364 63.2654 196.187 62.5091 192.715ZM99.7747 183.102C97.0845 182.498 101.257 175.169 105.388 172.951C105.534 172.839 105.649 172.692 105.723 172.524C105.878 174.26 105.83 176.007 105.581 177.732C104.277 179.848 101.703 183.533 99.7747 183.102ZM119.681 174.524C119.813 175.392 117.651 176.747 115.621 177.63C115.442 177.716 115.272 177.82 115.113 177.94C116.54 174.565 119.443 172.951 119.681 174.524Z" fill="#EEEEEE"/>
<path d="M62.3872 187.279C65.732 182.884 65.3615 176.661 59.4737 176.62C73.5334 166.271 70.5387 157.521 65.9148 154.349C61.0421 151.009 47.2617 156.714 42.5667 164.576C37.8717 172.438 41.7089 174.392 42.5667 174.808C43.4245 175.224 44.4904 173.692 44.3533 172.93C44.2163 172.169 43.3788 172.996 42.8915 172.58C41.6987 171.606 43.6478 165.748 50.6065 160.947C57.5653 156.145 64.8184 158.165 64.3109 163.622C63.9505 167.86 57.7582 172.621 55.0224 174.499C56.0341 172.21 57.3082 170.047 58.819 168.053C59.8341 166.454 57.4587 161.962 56.3116 163.53C53.7738 166.956 44.4091 179.742 45.3837 183.503C46.3582 187.264 50.3223 190.101 50.8146 189C51.1496 188.228 51.8298 182.432 54.2966 176.214C54.8041 177.519 55.7025 179.848 56.1695 179.813C56.8192 179.767 58.9357 179.813 59.2809 181.437C59.8849 184.223 55.1493 191.04 49.0737 190.532C48.287 190.436 48.8402 189.416 47.9621 189.517C47.084 189.619 46.7998 191.324 48.424 192.487C50.0482 193.649 58.8748 191.908 62.3872 187.279Z" fill="#EEEEEE"/>
</svg>
