<svg width="187" height="213" viewBox="0 0 187 213" fill="none" xmlns="http://www.w3.org/2000/svg">
<path d="M75.4194 28.6377C76.0234 29.9015 77.2467 32.9215 76.9421 36.1901C74.9626 35.6826 73.176 35.6318 71.7396 36.3576C66.9228 38.799 73.4095 40.7886 72.3182 44.3212C71.2269 47.8538 68.882 48.1431 71.2269 50.483C73.5719 52.8228 93.4482 56.0103 98.8437 62.7506C98.8437 62.7506 98.199 59.284 87.1696 55.1068C76.1402 50.9296 75.4956 49.2648 75.0946 48.3005C74.6936 47.3361 76.8914 44.0623 75.0946 42.2656C74.3231 41.4941 76.3178 41.1084 80.9418 44.0014C85.5657 46.8945 99.1787 55.6245 106.828 54.853C107.843 54.853 108.112 55.6245 106.828 58.4059C106.457 59.1957 106.303 60.0701 106.382 60.9391C106.462 61.808 106.771 62.6401 107.279 63.3496C107.279 63.3496 107.376 59.2079 111.848 54.7211C112.001 54.5059 112.1 54.2571 112.136 53.9956C112.173 53.7341 112.146 53.4676 112.058 53.2187C111.97 52.9697 111.823 52.7457 111.63 52.5655C111.437 52.3852 111.204 52.2542 110.949 52.1833C111.927 49.1803 113.099 46.2439 114.456 43.3924C116.674 44.915 125.993 50.6657 131.115 44.1385C135.683 38.2914 132.851 33.6676 131.414 31.9571C131.683 31.683 131.952 31.4039 132.206 31.1095C142.205 19.5321 135.14 0.265163 112.792 3.21915C107.663 3.84307 102.641 5.15064 97.859 7.10705C95.1333 4.77735 84.5201 -3.21669 71.8208 1.4224C57.0506 6.81774 57.4363 21.4608 62.314 26.3384C65.3188 29.3432 70.7803 29.6934 75.4194 28.6377ZM124.481 44.5141C119.004 45.1181 115.923 43.3619 114.837 42.5651C115.852 40.5703 117.035 38.7634 118.238 37.662C122.204 37.4765 126.03 36.1376 129.247 33.8097C132.089 36.3627 130.952 43.8035 124.481 44.5141ZM84.6622 5.14787C90.7987 6.9294 93.3213 8.09171 94.3568 8.76676C86.6367 12.8678 84.0125 17.4765 84.0125 17.4765C92.0321 9.45704 116.258 1.55436 127.156 8.87335C138.053 16.1923 134.505 32.485 121.268 35.0735C108.031 37.662 98.534 25.6989 98.534 25.6989C100.082 32.7032 107.67 37.2509 115.7 37.6671C113.162 40.276 107.782 46.321 106.934 51.5691C103.062 50.7114 96.9454 48.7268 92.1133 45.0927C88.1188 42.0778 83.4847 38.7533 79.3175 37.0124C79.1602 34.3832 78.678 29.7543 77.2517 28.1301C79.143 27.5883 80.8869 26.6252 82.3528 25.3132C82.3528 25.3132 70.2778 31.2211 64.6286 22.6129C58.9793 14.0048 71.8208 1.4224 84.6622 5.14787Z" fill="black"/>
<path d="M137.043 130.114H135.043C120.212 130.114 118.461 142.163 114.852 138.56C107.274 130.982 90.7022 130.18 85.7738 130.114H47.7062C45.2064 130.114 42.809 131.107 41.0414 132.874C39.2737 134.642 38.2807 137.039 38.2807 139.539C38.2807 142.039 39.2737 144.436 41.0414 146.204C42.809 147.971 45.2064 148.964 47.7062 148.964H137.043C138.281 148.964 139.507 148.721 140.65 148.247C141.794 147.773 142.833 147.079 143.708 146.204C144.583 145.329 145.277 144.29 145.751 143.146C146.225 142.003 146.469 140.777 146.469 139.539C146.469 138.301 146.225 137.076 145.751 135.932C145.277 134.789 144.583 133.75 143.708 132.874C142.833 131.999 141.794 131.305 140.65 130.831C139.507 130.358 138.281 130.114 137.043 130.114Z" fill="black"/>
<path d="M65.9838 60.558C65.055 58.8932 64.0906 57.2183 63.1313 55.5433C62.172 53.8684 61.1873 52.2036 60.2128 50.5693C59.2382 48.9349 58.2739 47.331 57.3247 45.783C56.3756 44.2349 55.4467 42.7376 54.5585 41.3469C53.6702 39.9562 52.8226 38.6213 52.0206 37.4032C50.4421 34.972 49.0767 32.9722 48.1073 31.5764C47.1378 30.1806 46.5846 29.399 46.5846 29.399C46.5846 29.399 46.9703 30.2923 47.6911 31.8251C48.4118 33.358 49.432 35.5303 50.7568 38.129C51.4116 39.4233 52.1222 40.8292 52.9038 42.291C53.6855 43.7527 54.4925 45.3363 55.3655 46.9047C56.2385 48.473 57.1318 50.1378 58.0658 51.7975C58.9997 53.4573 59.9539 55.1322 60.9132 56.8122C61.8725 58.4922 62.8521 60.152 63.8267 61.7863L64.8418 63.4968C65.6167 63.2599 66.4034 63.0281 67.202 62.8014C66.7959 62.0604 66.3797 61.3092 65.9838 60.558Z" fill="#F7951E"/>
<path d="M50.0258 65.1615C48.6554 63.8013 47.2849 62.4359 45.9196 61.101C44.5542 59.7662 43.2092 58.4719 41.8946 57.2284C40.58 55.9849 39.2958 54.787 38.0777 53.6755C36.8595 52.5639 35.6921 51.4879 34.611 50.5185C32.4538 48.5745 30.6164 46.996 29.3221 45.8997C28.0278 44.8034 27.2665 44.1994 27.2665 44.1994C27.2665 44.1994 27.8705 44.9607 28.9668 46.255C30.0632 47.5492 31.6417 49.3917 33.5857 51.5437C34.5551 52.6248 35.616 53.7973 36.7428 55.0103C37.8696 56.2234 39.0573 57.5177 40.2957 58.8272C41.5342 60.1367 42.8336 61.4919 44.1735 62.8521C45.5135 64.2124 46.8636 65.5879 48.2341 66.9583C49.1172 67.8414 50.0055 68.7144 50.8887 69.5874C51.6229 69.1543 52.3775 68.7347 53.1524 68.3287C52.117 67.2696 51.0748 66.2139 50.0258 65.1615Z" fill="#F7951E"/>
<path d="M39.8846 77.8353C38.2045 76.876 36.5295 75.9116 34.8698 74.9879C33.2101 74.0641 31.5706 73.1505 29.9769 72.2876C28.3831 71.4248 26.835 70.6026 25.3631 69.826C23.8911 69.0494 22.4953 68.3338 21.201 67.679C18.6175 66.3594 16.435 65.3087 14.897 64.588C13.3591 63.8673 12.4709 63.4764 12.4709 63.4764C12.4709 63.4764 13.2525 64.055 14.6483 64.9991C16.0441 65.9432 18.044 67.3339 20.4752 68.9124C21.6934 69.7042 23.013 70.567 24.419 71.4502C25.825 72.3333 27.3071 73.2723 28.8551 74.2164C30.4032 75.1604 32.002 76.1299 33.6415 77.0993C35.2809 78.0687 36.895 79.0128 38.5344 79.9721C39.0623 79.2953 39.6206 78.6406 40.2094 78.0078L39.8846 77.8353Z" fill="#F7951E"/>
<path d="M27.7842 91.25C25.9417 90.778 24.1246 90.3313 22.3634 89.905C20.6021 89.4786 18.8916 89.0979 17.2877 88.7274C15.6838 88.3569 14.1306 88.027 12.7196 87.7123C9.8772 87.1032 7.49671 86.6566 5.82682 86.3571C4.15692 86.0577 3.19762 85.9105 3.19762 85.9105C3.19762 85.9105 4.10109 86.2658 5.69993 86.8393C7.29876 87.4128 9.58282 88.2199 12.344 89.1132C13.7246 89.5649 15.2168 90.0522 16.8055 90.5343C18.3942 91.0165 20.0692 91.5494 21.805 92.057C23.5409 92.5646 25.358 93.0721 27.1751 93.6101C28.9161 94.1177 30.6875 94.5796 32.4589 95.0617C32.514 94.2114 32.6122 93.3644 32.7533 92.524C31.0732 92.0976 29.4388 91.6611 27.7842 91.25Z" fill="#F7951E"/>
<path d="M30.921 108.751C28.9872 108.751 27.0533 108.751 25.15 108.791C23.2466 108.832 21.3787 108.852 19.5667 108.898C17.7547 108.943 16.0137 109.015 14.3438 109.075C12.674 109.136 11.1106 109.218 9.66408 109.294C6.76587 109.446 4.34985 109.629 2.65458 109.771C0.959302 109.913 0 110.019 0 110.019C0 110.019 0.964378 110.131 2.65458 110.273C4.34478 110.415 6.76587 110.598 9.66408 110.745C11.1106 110.827 12.6841 110.913 14.3438 110.964C16.0036 111.014 17.7547 111.101 19.5667 111.141C21.3787 111.182 23.2517 111.227 25.15 111.248C27.0483 111.268 28.9872 111.283 30.921 111.288C32.4183 111.288 33.9156 111.288 35.4028 111.288C34.9128 110.508 34.5239 109.669 34.2456 108.791L30.921 108.751Z" fill="#F7951E"/>
<path d="M32.7077 124.886C30.8449 125.393 28.9771 125.901 27.1498 126.409C25.3226 126.916 23.5207 127.424 21.7798 127.957C20.0388 128.49 18.3689 128.972 16.7802 129.479C15.1915 129.987 13.7044 130.444 12.3187 130.916C9.55755 131.809 7.26842 132.611 5.67466 133.184C4.0809 133.758 3.17235 134.113 3.17235 134.113C3.17235 134.113 4.13165 133.971 5.80155 133.672C7.47144 133.372 9.86209 132.921 12.6943 132.317C14.1155 132.017 15.6534 131.692 17.2624 131.301C18.8714 130.911 20.5921 130.55 22.3381 130.119C24.0841 129.687 25.8911 129.251 27.7589 128.779C29.6268 128.307 31.4743 127.814 33.3421 127.322L33.7279 127.216C33.4192 126.436 33.1731 125.633 32.9919 124.815L32.7077 124.886Z" fill="#F7951E"/>
<path d="M28.8551 145.813C27.3071 146.752 25.8097 147.696 24.419 148.579C23.0283 149.462 21.6934 150.315 20.4752 151.117C18.044 152.695 16.0391 154.065 14.6483 155.03C13.2576 155.994 12.4709 156.578 12.4709 156.578C12.4709 156.578 13.3642 156.187 14.897 155.466C16.4299 154.746 18.6175 153.695 21.201 152.375C22.4953 151.715 23.9013 151.005 25.3631 150.223C26.8249 149.442 28.4085 148.635 29.9769 147.767C30.992 147.224 32.0071 146.66 33.0223 146.087C32.7852 145.278 32.6154 144.451 32.5147 143.615C31.2661 144.346 30.0428 145.087 28.8551 145.813Z" fill="#F7951E"/>
<path d="M44.6658 156.689L44.1583 157.197C42.8285 158.557 41.5291 159.907 40.2805 161.222C39.0319 162.537 37.8441 163.826 36.7275 165.044C35.6109 166.262 34.5399 167.424 33.5704 168.505C31.6264 170.663 30.0479 172.5 28.9516 173.794C27.8552 175.088 27.2512 175.85 27.2512 175.85C27.2512 175.85 28.0126 175.246 29.3069 174.15C30.6012 173.053 32.4386 171.475 34.5957 169.531C35.6768 168.561 36.8493 167.501 38.0624 166.379C39.2755 165.257 40.5698 164.064 41.8793 162.826C43.1888 161.587 44.544 160.288 45.9043 158.953L47.8787 157.019H47.7214C46.6944 157.013 45.6706 156.902 44.6658 156.689Z" fill="#F7951E"/>
<path d="M140.266 158.933C141.627 160.263 142.977 161.557 144.291 162.806C145.606 164.054 146.895 165.242 148.113 166.358C149.331 167.475 150.494 168.541 151.575 169.51C153.732 171.454 155.569 173.033 156.864 174.129C158.158 175.226 158.919 175.83 158.919 175.83C158.919 175.83 158.315 175.068 157.219 173.774C156.123 172.48 154.544 170.642 152.6 168.485C151.631 167.404 150.57 166.237 149.448 165.024C148.326 163.811 147.134 162.486 145.895 161.202C144.657 159.918 143.357 158.537 142.022 157.177L141.256 156.4C140.278 156.677 139.275 156.855 138.261 156.933C138.921 157.613 139.581 158.278 140.266 158.933Z" fill="#F7951E"/>
<path d="M115.218 161.724C115.725 163.344 116.055 164.262 116.055 164.262C116.055 164.262 115.949 163.293 115.71 161.613C115.538 160.415 115.309 158.842 115.005 156.999H113.776C114.35 158.902 114.847 160.511 115.218 161.724Z" fill="#F7951E"/>
<path d="M74.3739 161.912C74.2165 163.597 74.1607 164.572 74.1607 164.572C74.1607 164.572 74.4348 163.638 74.8662 161.999C75.2012 160.725 75.6377 159.019 76.1199 157.004H74.8764C74.6479 158.968 74.4855 160.638 74.3739 161.912Z" fill="#F7951E"/>
<path d="M96.255 162.323C96.3058 164.024 96.3667 164.993 96.3667 164.993C96.3667 164.993 96.5291 164.034 96.7575 162.354C96.9402 160.999 97.1737 159.166 97.4174 156.999H96.1484C96.1637 159.151 96.2093 160.973 96.255 162.323Z" fill="#F7951E"/>
<path d="M156.209 147.756C157.798 148.624 159.351 149.437 160.823 150.213C162.295 150.99 163.69 151.705 164.985 152.365C167.568 153.685 169.756 154.73 171.289 155.456C172.821 156.182 173.715 156.568 173.715 156.568C173.715 156.568 172.933 155.989 171.537 155.02C170.142 154.05 168.147 152.685 165.71 151.106C164.492 150.315 163.173 149.457 161.767 148.569C160.361 147.68 158.879 146.741 157.331 145.802C155.782 144.863 154.184 143.884 152.549 142.914L152.367 142.813C152.303 143.685 152.164 144.549 151.95 145.396C153.392 146.214 154.808 147 156.209 147.756Z" fill="#F7951E"/>
<path d="M152.823 127.337C154.691 127.845 156.559 128.353 158.407 128.794C160.254 129.236 162.066 129.713 163.833 130.134C165.599 130.555 167.304 130.946 168.908 131.317C170.512 131.687 172.065 132.017 173.476 132.332C176.314 132.936 178.694 133.382 180.364 133.687C182.034 133.991 182.993 134.129 182.993 134.129C182.993 134.129 182.09 133.773 180.496 133.2C178.902 132.626 176.613 131.824 173.852 130.931C172.471 130.479 170.974 129.987 169.385 129.505C167.797 129.022 166.127 128.49 164.386 127.982C162.645 127.474 160.833 126.967 159.016 126.434C157.199 125.901 155.321 125.419 153.458 124.911L151.935 124.51C151.758 125.335 151.515 126.145 151.209 126.931L152.823 127.337Z" fill="#F7951E"/>
<path d="M155.27 111.288C157.199 111.288 159.132 111.288 161.036 111.248C162.939 111.207 164.812 111.192 166.619 111.141C168.426 111.09 170.172 111.024 171.847 110.964C173.522 110.903 175.075 110.827 176.527 110.745C179.425 110.598 181.841 110.415 183.531 110.273C185.221 110.131 186.186 110.019 186.186 110.019C186.186 110.019 185.221 109.913 183.531 109.771C181.841 109.629 179.425 109.446 176.527 109.294C175.075 109.218 173.481 109.131 171.847 109.075C170.213 109.02 168.431 108.938 166.619 108.898C164.807 108.857 162.939 108.812 161.036 108.791C159.132 108.771 157.199 108.761 155.27 108.751H151.93C151.655 109.629 151.268 110.469 150.778 111.248C152.27 111.278 153.793 111.283 155.27 111.288Z" fill="#F7951E"/>
<path d="M153.478 95.1531C155.341 94.6456 157.209 94.138 159.036 93.6305C160.863 93.1229 162.67 92.6154 164.406 92.0773C166.142 91.5393 167.817 91.0622 169.406 90.5547C170.994 90.0471 172.492 89.5852 173.872 89.1335C176.633 88.2402 178.917 87.4383 180.516 86.8596C182.115 86.281 183.014 85.9308 183.014 85.9308C183.014 85.9308 182.054 86.078 180.384 86.3775C178.714 86.6769 176.324 87.1236 173.497 87.7326C172.075 88.0321 170.538 88.3569 168.929 88.7478C167.32 89.1386 165.594 89.4989 163.853 89.9253C162.112 90.3516 160.269 90.7983 158.427 91.2703C156.584 91.7424 154.717 92.2296 152.844 92.7219L152.148 92.9148C152.28 93.7554 152.367 94.6026 152.407 95.4526L153.478 95.1531Z" fill="#F7951E"/>
<path d="M147.575 80.033C149.245 79.0585 150.915 78.089 152.549 77.1145C154.184 76.14 155.788 75.1756 157.331 74.2316C158.874 73.2875 160.376 72.3486 161.767 71.4654C163.157 70.5822 164.492 69.7245 165.711 68.9276C168.147 67.3491 170.147 65.9838 171.537 65.0143C172.928 64.0449 173.715 63.4917 173.715 63.4917C173.715 63.4917 172.822 63.8774 171.289 64.6032C169.756 65.329 167.568 66.3746 164.985 67.6942C163.69 68.349 162.29 69.0596 160.823 69.8412C159.356 70.6229 157.777 71.4299 156.209 72.3029C154.641 73.1759 152.976 74.0692 151.316 75.0031C149.656 75.937 147.981 76.8912 146.306 77.8505L145.063 78.5712C145.635 79.2209 146.176 79.8824 146.687 80.5558L147.575 80.033Z" fill="#F7951E"/>
<path d="M137.957 66.9532C139.317 65.5828 140.677 64.2124 142.017 62.847C143.357 61.4817 144.641 60.1367 145.89 58.8221C147.139 57.5075 148.326 56.2234 149.443 55.0053C150.56 53.7871 151.626 52.6198 152.595 51.5387C154.539 49.3866 156.117 47.5442 157.214 46.2499C158.31 44.9556 158.914 44.1943 158.914 44.1943C158.914 44.1943 158.153 44.7983 156.859 45.8946C155.564 46.9909 153.727 48.5694 151.57 50.5134C150.489 51.4828 149.321 52.5436 148.108 53.6704C146.895 54.7972 145.596 55.9849 144.286 57.2233C142.977 58.4617 141.621 59.7611 140.261 61.096C138.901 62.4308 137.525 63.786 136.155 65.1564C134.942 66.3746 133.734 67.5927 132.546 68.8058C133.307 69.227 134.069 69.6534 134.769 70.095L137.957 66.9532Z" fill="#F7951E"/>
<path d="M121.816 55.2692C122.598 53.5638 123.192 52.1122 123.603 51.092C124.014 50.0718 124.217 49.4678 124.217 49.4678C124.217 49.4678 123.816 49.9754 123.161 50.8433C122.506 51.7113 121.588 53.0055 120.547 54.5637C119.09 56.7107 117.4 59.4058 115.695 62.304C116.497 62.507 117.294 62.7253 118.08 62.9486C119.552 60.1621 120.847 57.4974 121.816 55.2692Z" fill="#F7951E"/>
<path d="M46.6555 123.845C46.6555 123.845 61.9384 123.977 80.1195 124.023C80.2057 123.597 80.292 123.155 80.3783 122.734C80.4646 122.313 80.5458 121.912 80.627 121.506C66.9227 121.688 53.9239 122.069 48.833 122.876L46.6099 123.561C46.5794 123.605 46.5671 123.659 46.5756 123.712C46.5841 123.765 46.6128 123.813 46.6555 123.845Z" fill="#5D5D5D"/>
<path d="M46.6099 123.566L48.833 122.881C47.559 123.079 46.7774 123.307 46.6099 123.566Z" fill="#5D5D5D"/>
<path d="M105.731 124.018H108.081L107.777 122.805C107.655 122.321 107.533 121.844 107.411 121.374H105.203C105.325 122.01 105.452 122.654 105.584 123.307C105.63 123.531 105.681 123.779 105.731 124.018Z" fill="#5D5D5D"/>
<path d="M80.1195 124.028H82.4543C82.5 123.729 82.5507 123.419 82.5964 123.125C82.6776 122.571 82.7588 122.023 82.835 121.48L80.627 121.506C80.5458 121.912 80.4595 122.323 80.3783 122.734C80.2971 123.145 80.1956 123.602 80.1195 124.028Z" fill="#5D5D5D"/>
<path d="M84.3729 130.114H85.7789C84.8856 130.099 84.3729 130.114 84.3729 130.114Z" fill="#5D5D5D"/>
<path d="M139.043 110.02H45.8029C41.7424 110.02 38.4686 114.014 38.4686 118.927C38.4686 123.84 41.7576 127.835 45.8029 127.835H139.043C143.104 127.835 146.382 123.84 146.382 118.927C146.382 114.014 143.088 110.02 139.043 110.02ZM139.043 125.363H45.8029C43.123 125.363 40.9404 122.475 40.9404 118.927C40.9404 115.379 43.123 112.491 45.8029 112.491H139.043C141.728 112.491 143.911 115.379 143.911 118.927C143.911 122.475 141.728 125.368 139.043 125.368V125.363Z" fill="black"/>
<path d="M141.743 98.7669H84.8957C73.5465 98.7669 71.5111 108.152 68.7499 105.365C62.5475 99.1578 47.6859 98.7669 44.8943 98.7669H44.4426C43.8073 98.7461 43.1743 98.8533 42.5813 99.082C41.9883 99.3108 41.4473 99.6565 40.9906 100.098C40.5338 100.541 40.1707 101.07 39.9226 101.655C39.6746 102.24 39.5468 102.869 39.5468 103.505C39.5468 104.141 39.6746 104.77 39.9226 105.355C40.1707 105.94 40.5338 106.469 40.9906 106.911C41.4473 107.354 41.9883 107.699 42.5813 107.928C43.1743 108.157 43.8073 108.264 44.4426 108.243H141.743C142.378 108.264 143.011 108.157 143.604 107.928C144.197 107.699 144.738 107.354 145.195 106.911C145.652 106.469 146.015 105.94 146.263 105.355C146.511 104.77 146.639 104.141 146.639 103.505C146.639 102.869 146.511 102.24 146.263 101.655C146.015 101.07 145.652 100.541 145.195 100.098C144.738 99.6565 144.197 99.3108 143.604 99.082C143.011 98.8533 142.378 98.7461 141.743 98.7669Z" fill="black"/>
<path d="M92.3772 63.3292C62.5069 63.3292 38.2909 77.3023 38.2909 94.5441H146.484C146.484 77.3023 122.268 63.3292 92.3772 63.3292ZM52.4977 87.758C50.975 87.758 49.7162 87.3418 49.7162 86.8343C49.7162 86.3267 50.9597 85.9054 52.4977 85.9054C54.0356 85.9054 55.2791 86.3216 55.2791 86.8343C55.2791 87.3469 54.0356 87.758 52.4977 87.758ZM70.0696 72.7038C70.0696 72.1963 71.3132 71.775 72.8511 71.775C74.389 71.775 75.6326 72.1912 75.6326 72.7038C75.6326 73.2165 74.389 73.6327 72.8511 73.6327C71.3132 73.6327 70.0696 73.2165 70.0696 72.7038ZM73.7495 82.6621C72.2268 82.6621 70.968 82.2459 70.968 81.7333C70.968 81.2207 72.2167 80.8045 73.7495 80.8045C75.2824 80.8045 76.531 81.2207 76.531 81.7333C76.531 82.2459 75.2874 82.6621 73.7495 82.6621ZM92.3772 70.8512C92.3772 70.3437 93.6258 69.9224 95.1587 69.9224C96.6915 69.9224 97.9402 70.3386 97.9402 70.8512C97.9402 71.3639 96.6966 71.775 95.1587 71.775C93.6208 71.775 92.3772 71.3588 92.3772 70.8512ZM97.9605 83.5859C96.4378 83.5859 95.179 83.1697 95.179 82.6621C95.179 82.1546 96.4378 81.7181 97.9605 81.7181C99.4832 81.7181 100.742 82.1343 100.742 82.6469C100.742 83.1595 99.4832 83.5859 97.9605 83.5859ZM111.985 75.6274C110.462 75.6274 109.203 75.2163 109.203 74.7036C109.203 74.191 110.447 73.7748 111.985 73.7748C113.522 73.7748 114.766 74.191 114.766 74.7036C114.766 75.2163 113.522 75.6274 111.985 75.6274ZM126.288 86.8495C124.765 86.8495 123.506 86.4333 123.506 85.9207C123.506 85.408 124.75 84.9918 126.288 84.9918C127.826 84.9918 129.069 85.408 129.069 85.9207C129.069 86.4333 127.826 86.8343 126.288 86.8343V86.8495Z" fill="black"/>
<path d="M141.687 118.262C141.687 118.196 141.687 118.13 141.652 118.069C141.616 118.008 141.606 117.851 141.581 117.745L141.505 117.486C141.479 117.389 141.449 117.298 141.418 117.201C141.388 117.105 141.332 116.973 141.286 116.856C141.241 116.74 141.236 116.719 141.205 116.653C141.129 116.481 141.043 116.303 140.951 116.146L140.845 115.968C140.774 115.846 140.703 115.724 140.627 115.608C140.55 115.491 140.54 115.481 140.5 115.42C140.459 115.359 140.327 115.186 140.241 115.07C140.154 114.953 140.154 114.963 140.114 114.912C139.977 114.75 139.835 114.593 139.682 114.44C138.449 113.207 136.129 113.618 136.129 116.242C136.135 116.327 136.135 116.411 136.129 116.496C136.129 116.496 136.129 116.537 136.129 116.557C136.129 116.577 136.129 116.684 136.104 116.745V116.811C136.104 116.872 136.104 116.932 136.063 116.998C136.066 117.017 136.066 117.036 136.063 117.054C136.048 117.12 136.027 117.184 136.003 117.247V117.298C135.977 117.364 135.952 117.43 135.921 117.491V117.536C135.886 117.602 135.85 117.668 135.81 117.734C135.769 117.8 135.81 117.734 135.81 117.775C135.768 117.845 135.722 117.913 135.673 117.978V118.008L135.505 118.217C135.439 118.288 135.378 118.359 135.307 118.43L135.074 118.643L134.805 118.856C134.705 118.931 134.602 119 134.495 119.064L134.155 119.267C133.756 119.489 133.342 119.682 132.917 119.846C132.12 120.148 131.3 120.385 130.465 120.556C130.206 120.612 129.932 120.668 129.648 120.719H129.521C129.237 120.77 128.947 120.82 128.643 120.861C128.328 120.907 127.993 120.947 127.653 120.988H127.516L126.633 121.074H126.389C126.051 121.105 125.712 121.13 125.374 121.15H125.313C124.938 121.176 124.547 121.196 124.146 121.211H119.131C115.984 121.211 111.147 121.211 105.427 121.211H99.9196C76.5614 121.434 44.6659 121.815 46.6555 123.845C46.6555 123.845 63.2682 123.988 82.4543 124.028L118.481 124.028L120.786 123.998H122.044L124.202 123.962H128.425L129.369 123.937H130.338L132.78 123.861H132.876L133.597 123.835L134.982 123.774H135.059C135.703 123.744 136.287 123.713 136.81 123.678H136.86C137.368 123.642 137.825 123.607 138.205 123.571H138.256C138.52 123.541 138.764 123.515 138.941 123.485H139.073C139.164 123.473 139.254 123.456 139.342 123.434L139.54 123.389H139.576C139.619 123.375 139.662 123.358 139.703 123.338C139.866 123.253 140.022 123.154 140.17 123.043C140.246 122.988 140.317 122.927 140.388 122.866C140.459 122.805 140.505 122.769 140.555 122.719C140.647 122.632 140.733 122.541 140.814 122.445L140.875 122.373C141.338 121.785 141.636 121.085 141.738 120.343C141.738 120.343 141.738 120.308 141.738 120.287C141.759 120.144 141.773 120 141.779 119.856V119.81C141.817 119.293 141.786 118.772 141.687 118.262Z" fill="black"/>
<path d="M145.002 177.489C144.54 177.164 144.794 176.373 144.89 174.378C144.987 172.383 145.185 170.556 141.378 169.206C137.571 167.856 134.698 173.337 136.622 176.261C138.546 179.184 139.474 182.012 138.221 181.966C136.967 181.92 135.81 179.865 136.647 178.86C137.343 178.022 133.094 176.322 132.658 180.296C132.618 180.614 132.607 180.935 132.622 181.255C131.282 182.534 129.689 183.61 129.389 182.824C128.881 181.479 133.15 175.17 133.708 174.241C134.267 173.312 134.724 170.759 132.592 170.434C131.16 170.155 129.811 169.552 128.648 168.673C128.648 168.673 129.902 164.496 127.166 162.273C124.43 160.049 121.831 163.288 123.034 165.912C123.628 167.201 125.065 168.561 126.379 169.724C125.263 176.088 121.375 179.464 118.928 181.479C116.989 183.077 114.538 183.082 114.01 181.088C115.111 182.453 116.548 181.707 116.228 181.336C115.756 180.783 116.091 179.53 117.309 179.042C118.527 178.555 125.978 173.967 122.308 170.571C118.898 167.399 112.086 171.129 110.325 176.474C110.401 175.393 110.401 174.307 110.325 173.226C109.767 163.948 105.168 167.592 104.945 168.307C104.872 168.935 104.898 169.571 105.021 170.191C104.608 169.466 103.965 168.9 103.194 168.582C101.087 167.653 96.1942 172.282 94.8491 175.581C94.3194 176.888 93.9991 178.27 93.9 179.677C92.4991 181.265 90.1338 183.164 89.7633 182.184C89.2557 180.839 93.5244 174.53 94.0776 173.601C94.6309 172.672 95.0927 170.119 92.966 169.795C91.5332 169.507 90.1857 168.894 89.0273 168.003C89.0273 168.003 90.281 163.826 87.5401 161.603C84.7993 159.38 82.2056 162.618 83.4136 165.242C83.9212 166.308 84.9719 167.429 86.0733 168.439C85.2713 171.799 82.8248 180.027 77.5918 182.991C76.7645 183.407 78.9826 178.53 80.6931 175.642C82.4036 172.754 83.0989 169.835 81.2615 169.069C79.4241 168.302 77.4649 168.932 77.5918 169.906C77.7187 170.881 75.054 177.697 70.562 181.25C69.6789 181.946 71.8309 176.657 74.3637 173.454C76.8964 170.251 74.4906 167.399 71.5772 168.724C68.6637 170.048 63.7911 174.307 63.5982 176.337C63.4053 178.367 65.2884 177.291 64.9483 176.337C64.4864 175.002 68.8312 172.114 69.3794 172.784C69.9276 173.454 65.1615 179.281 65.9229 182.9C66.6842 186.519 68.6231 185.732 69.2119 185.311C69.8007 184.889 74.1556 179.773 75.0591 177.982C74.6226 178.951 73.0288 182.732 73.983 184.072C75.0794 185.595 76.262 185.839 76.6833 185.696C77.1046 185.554 84.9972 180.057 88.1746 170.353C88.8801 170.982 89.3775 171.485 89.3978 171.774C89.5856 174.312 85.5758 178.271 84.9262 181.656C84.2765 185.042 86.3372 186.067 89.21 185.717C90.8089 185.534 92.6412 183.402 93.9659 181.54C94.1994 183.235 94.9811 184.717 96.6662 185.493C99.0315 186.595 102.194 183.387 104.077 181.073C102.488 185.341 99.001 190.082 91.6058 194.315C89.7936 195.364 87.9112 196.286 85.9718 197.076C77.7644 192.442 70.5519 188.305 65.4407 188.63C58.3855 189.092 58.015 193.548 60.4259 197.72C62.4562 201.223 75.1961 204.826 86.9006 201.075C98.3056 207.938 112.929 216.744 124.547 210.064C136.982 202.918 130.13 196.609 128.724 195.853C127.237 194.924 128.536 192.604 127.237 192.142C125.938 191.681 128.354 199.005 122.319 203.09C116.284 207.176 107.843 208.288 95.6866 202.253C93.9659 201.4 92.2656 200.502 90.6109 199.593C91.6111 199.118 92.5807 198.58 93.5142 197.984C103.386 191.696 108.32 185.991 109.863 179.53C109.812 184.26 113.02 186.458 115.37 185.737C124.278 182.692 127.003 174.236 127.745 170.886C128.486 171.546 129.019 172.068 129.039 172.368C129.227 174.906 125.217 178.865 124.567 182.25C123.917 185.636 125.978 186.661 128.856 186.311C130.221 186.153 131.759 184.57 133.008 182.951C133.5 184.149 134.393 185.139 135.535 185.751C136.677 186.363 137.996 186.559 139.266 186.305C142.743 185.615 142.789 181.519 140.865 177.357C138.941 173.195 142.647 171.891 142.926 172.124C143.205 172.358 140.85 173.794 141.22 176.251C141.591 178.707 145.469 177.814 145.002 177.489ZM62.0044 192.158C61.6593 189.99 71.4147 192.351 82.2259 198.335C69.7854 201.806 62.7607 195.629 62.0044 192.158ZM99.27 182.544C96.5799 181.94 100.752 174.611 104.884 172.393C105.029 172.281 105.144 172.135 105.219 171.967C105.373 173.702 105.326 175.45 105.077 177.175C103.772 179.291 101.199 182.976 99.27 182.544ZM119.177 173.967C119.309 174.835 117.147 176.19 115.116 177.073C114.937 177.159 114.767 177.263 114.609 177.383C116.035 174.007 118.938 172.393 119.177 173.967Z" fill="black"/>
<path d="M61.8825 186.722C65.2274 182.326 64.8569 176.104 58.9691 176.063C73.0287 165.714 70.0341 156.964 65.4101 153.791C60.5375 150.452 46.757 156.157 42.062 164.019C37.367 171.881 41.2043 173.835 42.062 174.251C42.9198 174.667 43.9857 173.134 43.8487 172.373C43.7116 171.612 42.8741 172.439 42.3869 172.023C41.1941 171.048 43.1432 165.191 50.1019 160.39C57.0607 155.588 64.3138 157.608 63.8062 163.064C63.4458 167.303 57.2535 172.063 54.5177 173.941C55.5295 171.653 56.8036 169.49 58.3143 167.495C59.3295 165.897 56.9541 161.405 55.807 162.973C53.2691 166.399 43.9045 179.184 44.879 182.945C45.8536 186.706 49.8177 189.544 50.31 188.442C50.645 187.671 51.3251 181.875 53.7919 175.657C54.2995 176.961 55.1979 179.291 55.6648 179.256C56.3145 179.21 58.4311 179.256 58.7762 180.88C59.3802 183.666 54.6446 190.483 48.5691 189.975C47.7823 189.879 48.3356 188.859 47.4575 188.96C46.5794 189.062 46.2952 190.767 47.9194 191.929C49.5436 193.092 58.3702 191.351 61.8825 186.722Z" fill="black"/>
</svg>
