<svg width="100%" height="990" fill="none" xmlns="http://www.w3.org/2000/svg">
<g opacity="0.7">
<path d="M-589.218 1913.95C-509.73 1919.95 -313.081 1884.83 -162.4 1696.4C-11.7176 1507.98 55.6361 1097.24 70.4777 915.429C60.8683 640.647 111.958 85.0004 393.194 60.6717M-597.88 1901.36C-518.391 1907.35 -321.743 1872.23 -171.061 1683.81C-20.3788 1495.39 46.975 1084.65 61.8166 902.837C52.2072 628.055 103.297 72.4089 384.533 48.0802M-610.693 1895.72C-531.204 1901.71 -334.556 1866.59 -183.874 1678.17C-33.1923 1489.75 34.1614 1079.01 49.0031 897.197C39.3937 622.415 90.4838 66.7686 371.72 42.4398" stroke="#ED9D25" stroke-width="2"/>
</g>
</svg>
