<svg xmlns="http://www.w3.org/2000/svg" fill="white" viewBox="0 0 17.81 17.81"><g id="Calque_2" data-name="Calque 2"><g id="Calque_1-2" data-name="Calque 1"><path d="M10.44,8.93l1.37-1.44a2.48,2.48,0,0,0,.88.16,2.53,2.53,0,0,0,1.83-.78L17.63,3.6a.64.64,0,0,0-.9-.91L13.87,5.33a.07.07,0,0,1-.1-.1l2.64-2.86a.64.64,0,0,0,0-.89l-.06-.06a.64.64,0,0,0-.9,0L12.59,4.05a.09.09,0,0,1-.11,0,.07.07,0,0,1,0-.1l2.65-2.86a.64.64,0,0,0-.92-.9L11,3.29A2.52,2.52,0,0,0,10.32,6L8.85,7.41,7.68,6.29a3.32,3.32,0,0,0-.63-3.82c-1.24-1.24-4.62-2.64-6-1.28s0,4.74,1.28,6a3.34,3.34,0,0,0,3.82.63L7.25,8.93.43,15.43a1.36,1.36,0,0,0-.43,1,1.39,1.39,0,0,0,.41,1,1.35,1.35,0,0,0,1,.4h0a1.31,1.31,0,0,0,1-.43L8.85,10.6l6.46,6.78a1.33,1.33,0,0,0,1,.43h0a1.37,1.37,0,0,0,1.38-1.4,1.35,1.35,0,0,0-.42-1Zm1.19-3.39a.28.28,0,0,0-.39-.41l-.46.43a2,2,0,0,1,.56-1.85L14.61.6a.07.07,0,0,1,.1,0,.07.07,0,0,1,0,.09L12.06,3.55a.65.65,0,0,0,.92.92l2.86-2.65a.07.07,0,0,1,.09,0l.06.06A.07.07,0,0,1,16,2L13.35,4.83a.65.65,0,0,0,.91.92l2.86-2.64a.07.07,0,0,1,.1,0,.09.09,0,0,1,0,.1L14.11,6.47A2,2,0,0,1,12.26,7l.43-.45a.3.3,0,0,0,0-.41.29.29,0,0,0-.41,0L10,8.53,9.26,7.8ZM2,17A.81.81,0,0,1,.81,17a.79.79,0,0,1,0-1.15L7.65,9.34l.8.85Zm14.91,0a.76.76,0,0,1-.57.24h0a.77.77,0,0,1-.57-.25L7.86,8.74h0L5.42,6.18a.28.28,0,0,0-.4,0,.29.29,0,0,0,0,.41l.74.78a2.73,2.73,0,0,1-3-.6C1.57,5.58.49,2.58,1.48,1.59s4,.1,5.16,1.29a2.73,2.73,0,0,1,.6,3l-.78-.74a.29.29,0,0,0-.41,0,.28.28,0,0,0,0,.4L16.87,15.85a.77.77,0,0,1,.25.57A.78.78,0,0,1,16.88,17Z"/></g></g></svg>