<svg width="58" height="68" viewBox="0 0 58 68" fill="none" xmlns="http://www.w3.org/2000/svg">
<path d="M28.8909 68C49.4057 50.1965 55.6679 31.6106 57.0037 26.8364C57.4689 25.4576 57.7299 24.0432 57.7819 22.6198C57.7819 10.1293 44.8468 0 28.8909 0C12.9351 0 0 10.1293 0 22.6198C0.0507636 24.0433 0.311819 25.4578 0.778189 26.8364C2.10785 31.5918 8.36397 50.2059 28.8909 68ZM28.8909 10.5415C37.5245 10.5415 44.5221 16.0231 44.5221 22.7791C44.5221 29.5351 37.5245 35.0167 28.8909 35.0167C20.2574 35.0167 13.2659 29.5398 13.2659 22.7791C13.2659 16.0185 20.2574 10.5415 28.8909 10.5415Z" fill="#F7951E"/>
</svg>
