<svg id="Layer_1" data-name="Layer 1" fill="#F6941D" xmlns="http://www.w3.org/2000/svg" viewBox="0 0 208.22 300"><path d="M116.33,12.67A104.08,104.08,0,0,0,16.2,145.26a76.85,76.85,0,0,0,6.05,16.12c21.35,39.09,94.08,151.29,94.08,151.29s72.74-112.2,94.09-151.29a78,78,0,0,0,6.05-16.12A104.11,104.11,0,0,0,116.33,12.67ZM159.46,151a55.07,55.07,0,1,1,12-34.25A55.05,55.05,0,0,1,159.46,151ZM116.33,80.19A36.59,36.59,0,1,0,145,139.5a36.34,36.34,0,0,0,7.94-22.72A36.7,36.7,0,0,0,116.33,80.19Z" transform="translate(-12.22 -12.67)"/></svg>