<svg xmlns="http://www.w3.org/2000/svg" fill="white" width="496" height="353" viewBox="0 0 657.03 510.35"><g id="Calque_2" data-name="Calque 2"><g id="Calque_vectoriel" data-name="Calque vectoriel"><path d="M223.59,52c7.11-18.11,14.07,31.84,16.26,35.9,1.85,3.65,2.64,20.35,7.06,19.61,2.37-5.67-22.73-73.35-7.08-60.16,6.83,13.68,7.36,29.88,11.72,44.5,1.42,3.92.74,11.32,4.82,13.15a6.55,6.55,0,0,0,.65-.64,2.17,2.17,0,0,0,0-.36c-4.2-13.16-5.75-27.55-9.35-41.05-1.77-5.9-4.61-12-4-18.26.93-6.22,7-.62,7.42,3,7.71,22.94,14.24,46.27,21,69.46-2.19,6.59-7.51-18.51-8.49-20.35l0,.09c-2.74-11.31-6.13-22.41-10-33.39-2.86-6-2.66-14-7.39-18.66-1.1,7.64,3.75,14.82,4.82,22.29,2,12.18,6.47,24.87,7.12,36.86a2.27,2.27,0,0,1-1.08,2.3c-7.19,10.65-13-54.38-19.76-58.08-2.17-.06,1.61,14.38,1.91,16.26,3.23,14.42,9,28.57,9.87,43.39C240.66,124.56,233,54.36,227,51c-3.27,5.59,1.18,13.38,2,19.45,4.59,15.79,5.1,32.43,8.53,48.43.88,2.76,1.18,8.2,3.95,9.52,4,1.56,12.57,2.62,11.57,8.25a.78.78,0,0,1-1.09-.43c-5.7-6.49-14.45-1.71-15.66-13.41-2.7-10.87-4.05-22-5.53-33.07C229.28,77,223.45,64.92,223.59,52Z"/><path d="M260.24,133.4c1.3-6.51,8.56-10.05,9.86-16.31,0-1-.9-2.53.21-3.19,7.52,7.34-9.27,14-8.22,21.87a76.17,76.17,0,0,0,3,12.75c6.77,19.17,13,38.52,20.39,57.46,3.84,8.63,5.13,19,12,25.87,16.66,12.5,34.27,1.57,28.58-19.2-4.5-23.25-7.42-46.86-11.93-70,1-.55,1.16-1.75,1.62-2.69,4.38,17,5.62,34.71,9,52,4.13,18.71,12.15,54.78-19.67,46.33-7.66-1.58-12.92-8.17-15.39-15.25C279.56,193.47,265,164.19,260.24,133.4Z"/><path d="M291,80.83c1.06-11.35,7.33-97,27.72-78.14,4.94,30.52-1.35,62.49.06,93.48-.69,15.06,3.25,30.81-2.43,45.19.11,1.57,1.61,4,.12,5-2.91-3.52-2.76-9.78-5.26-14-2.66-5-9.24-6.57-12.53-11.35C290,109.85,290.89,94.31,291,80.83Zm2.48,13.84c.91,33.16,15.81,22,21.61,42.41,4.26-12.7.58-26.55,1.29-39.71C316,68.63,318.6,39.92,317.9,11.2c-.33-2.76.1-6.27-2.37-8.13C298.75-2.33,292.23,82.4,293.45,94.67Z"/><path d="M299.84,224.73c.48-12.65,2.93-25.11,4.43-37.65,1.59-17.15,3.55-37,12.65-51,1.18,2.44-2.3,8.84-3.37,11.3-5.35,14.26-6,29.76-7.83,44.74-1.42,18.4-11.36,42.79,3.77,57.49,28.06-1.16,35.9-61.43,46.22-82.6,4.16-11.37,7.23-23.14,12-34.26,3.06-6.15-5.42-10.92-6.93-16.66-13.49-28.41,5.24-62.34,31.77-75.4,15.94-7.54,22.22,18,23.49,29.45,2.05,17.93-1.4,38.83-14.45,52.11-7.54,7.56-22,6.91-25.93,18-11,26.39-12.78,55.41-20.51,82.77,0,1.29-1.84,2.07-2.19.46,7.19-28,9.69-57.61,20.56-84.6,3.52-10.61,16-11.61,24.26-17,18.46-16.22,20.19-46.45,11.6-68.26-2.09-4.32-5.55-11.31-10.9-11.59-10.88,2.22-19.87,11.13-27,19.31-12.48,15.94-17.94,39-6.7,57.06,2,3.71,5.73,6.88,6.13,11.29-6.13,19.51-13.75,39-20.49,58.52-6.59,18.95-16.09,64.79-41.33,64.1h0a6,6,0,0,1-1.24-.75h0l0,0h0C299.4,244,299.27,234.79,299.84,224.73Z"/><path d="M309.23,252.34h0Z"/><path d="M320.19,275.21c1.51-18.29,14.24-33.84,27.21-45.92,3.87-3.06,7.51-6.35,8.11-11.5.74-1,.49,3.22.35,3.68,0-.06,0-.12.05-.18-.68,7.36-8.28,10.36-12.6,15.56-6.9,7.5-13.32,15.52-17.39,24.92-12.85,33.3,13.06,22.22,21.25.88-9.86-.21-12-11.28-4.57-16.75,9.88-6.64,11.94,6.84,8.48,13.63,19.74-4.74,37.17-17.37,57.88-18.81,53.49-2.72,106.26,12.71,159.58,13.92,31.54.08,60.6-11.79,88.49-25.17-73,54.79-165,9.64-246.93,14.05-21.58,1.13-39.49,15.09-60.2,19.1C346.52,274.64,322.12,301.35,320.19,275.21Zm29.64-26.61c-6.77-6.19-16.1,11.43-1.45,11.12C349.41,256.6,351.33,252.06,349.83,248.6Z"/><path d="M0,217.44c71.24,42.27,113.07,45.11,194.15,33.06,26.87-4,52.81-17.92,80.4-14.46-1.64-17.59-5.78-34.85-9.86-52-4.06-16.9-6.83-34.6-14.74-50.19,3.53-5.13,9.15,17.85,10.05,20.56,6.73,27.06,13.92,54.3,16.93,82.07,25.16,2.06,42.28,36.34,22.52,54.81-4.63,2.61-10.71-2.69-13.4-6.19-10.2-13-10.18-30.38-11.32-46.09-25-3.56-48.74,8.55-73,12.89C132.64,265.82,57.09,263.61,0,217.44Zm277.1,22c1.68,16.77.69,43.43,20.12,49.54,6.13-2.95,7.82-11.47,8.54-17.66C305.8,255.34,292.84,241.51,277.1,239.48Z"/><path d="M351.77,226.25c.73-1.32.72-4.8,2.69-4.55.8.5.52,1.53.12,2.2-.65,1.14-.77,2.63-1.63,3.6C352.18,228.09,351.45,227,351.77,226.25Z"/><path d="M417.12,465.08a.16.16,0,0,1,0,.07A.16.16,0,0,0,417.12,465.08Z"/><path d="M417,465.05h0Z"/><path d="M417,465.05Z"/><path d="M468.4,510.35c-13.36-.29-22.72-6.24-25.35-19.87-5.61-26.37,25.23-46.35,47.66-33.59,7.22,4.93,5.6,15.31.09,20.88-.5.65-.54.74.25,1a185.75,185.75,0,0,1,23.63,8.58c22.42-18.42,1.79-55.76-23.39-60.14-51.07-1-91.14,60.74-147.55,42.13a79.78,79.78,0,0,1-19.63-9.14c-1.27-1.5,2.73-2,3.62-2.42,2-.7,3.39,1,4.94,1.89,45.77,30.37,89.93-13.46,131.58-29.81,13.17-4.7,28.27-8.45,41.51-2,21.5,12.05,34.47,37.52,16.14,58.37-.37.95-3.36,2.86-1.37,3.34,11.48,4.21,23.39,7.34,35.66,7.57,27.3,4.14,63.62-25.29,47.72-53.37-12.85-17.15-41.58-20.09-45.45,5.46-6.08,2.35-6.33,1.44-4.72-4.3,2.83-8.71,11.56-14.58,20.32-16.11,15.32-3.14,33.75,4,39.32,19.41,5.6,26.29-21.24,47.15-45,50.29-17.26,3.4-34.86-.64-51.27-6a73.31,73.31,0,0,1-48.7,17.9Zm-1.1-54.28c-19.27,5.39-24.9,34.65-9.75,47.29,17.34,10.55,41.76,2.08,54.87-11.87.76-.63,0-.64-.53-1-7.91-3.2-15.89-6.23-24-8.92-8.42,2.93-20.73,11.27-29.11,3,1.7-5.32,18.27-7.65,24.05-7,3.72.61,2.82-.17,4.82-2.88,6.59-13-8.75-22.59-20.35-18.58ZM472.71,480c-1.72.49-7.76,1.26-7.3,3.19,5.64,4.67,12.93,1.75,17.51-2.66a39.91,39.91,0,0,0-10.21-.53Z"/><path d="M229.38,465.08a.15.15,0,0,0,0,.07Z"/><path d="M229.5,465.05h0Z"/><path d="M229.49,465.05h0Z"/><path d="M167.92,510.35c13.35-.29,22.71-6.24,25.34-19.87,5.62-26.37-25.23-46.35-47.66-33.59-7.21,4.93-5.6,15.31-.09,20.88.5.65.55.74-.25,1a186.17,186.17,0,0,0-23.62,8.58c-22.43-18.42-1.8-55.76,23.38-60.14,51.07-1,91.14,60.74,147.55,42.13a79.61,79.61,0,0,0,19.63-9.14c1.27-1.5-2.73-2-3.61-2.42-2-.7-3.39,1-4.95,1.89-45.77,30.37-89.93-13.46-131.58-29.81-13.17-4.7-28.27-8.45-41.51-2-21.5,12.05-34.47,37.52-16.13,58.37.36.95,3.36,2.86,1.36,3.34-11.47,4.21-23.38,7.34-35.66,7.57-27.29,4.14-63.62-25.29-47.71-53.37,12.85-17.15,41.57-20.09,45.45,5.46,6.08,2.35,6.33,1.44,4.72-4.3-2.84-8.71-11.57-14.58-20.33-16.11-15.31-3.14-33.75,4-39.32,19.41-5.6,26.29,21.24,47.15,45,50.29,17.25,3.4,34.85-.64,51.26-6a73.32,73.32,0,0,0,48.71,17.9Zm1.1-54.28c19.27,5.39,24.9,34.65,9.74,47.29-17.33,10.55-41.76,2.08-54.86-11.87-.76-.63,0-.64.52-1,7.92-3.2,15.9-6.23,24-8.92,8.42,2.93,20.74,11.27,29.12,3-1.7-5.32-18.28-7.65-24-7-3.72.61-2.83-.17-4.83-2.88-6.59-13,8.75-22.59,20.36-18.58ZM163.6,480c1.72.49,7.77,1.26,7.3,3.19-5.64,4.67-12.93,1.75-17.5-2.66a39.81,39.81,0,0,1,10.2-.53Z"/><path d="M14.32,394.44v-2c10.25-2.18,12.45-6.32,12.48-17.81V325.53c.46-9.75-2.38-16.26-12.48-17.81v-2c8.49.59,16.35,1.22,25,.56,11.32-.64,22.32-3.29,33-.1C95.87,312,95.06,342.61,70.68,347c28.26.91,36.45,39.32,7.54,47-9.48,3.26-27.5.41-36.54.07A204.7,204.7,0,0,0,14.32,394.44ZM23.48,391c7.31-1,10.9-.71,18.27,0-2.65-2.31-6-3.52-5.72-7.28,0-.82,0-2.55-.07-3.25V319.68c-.41-7.43,1.51-7.12,7-11.38-7.6.7-13.11,1-20.61-.06,5.22,4.18,7.55,4.24,6.89,11.44v60.78c0,.78,0,2.48,0,3.25C29.54,387.45,26.14,388.69,23.48,391Zm18.2-44.46c7.26,0,20,.77,24.84-3.77,10.45-7.67,9.72-26.44-1.69-32.83-6.55-3.93-17.58-3.75-21.65,3.51C40.39,318.29,42.15,340.51,41.68,346.53Zm0,2.53c1,7.87-3,34,3.87,39.3,6,5.48,24.13,4.45,29.29-2.57,9.83-10.28,6.11-31.41-8.65-35.23C61.48,348.64,48.17,349.11,41.68,349.06Zm25-3.77c22-5.19,22.33-33.44-.59-37.57C79.53,316.09,80,337.54,66.65,345.29Zm3,46.81c26.33-3.25,26.69-35,1.82-41.8C87.07,359.22,86.62,385.53,69.64,392.1Z"/><path d="M114.36,364.15c-1.65,24.76,19.32,36.56,37.25,17.94l1.3,1.75C128.6,411,86.79,388.63,103.73,354.2c11.06-22.48,50.68-17.83,49.83,9.95ZM129.57,394c-23.29-1.47-28.1-37.18-12-50.44C92.48,355.67,99.92,397.11,129.57,394Zm-15.21-32.11H140.3C142.73,336.84,114.66,333.64,114.36,361.87Zm33.8,0c-.23-8.38-4.37-16.68-12.61-19.18,6,4.75,7.37,11.35,7,19.18Z"/><path d="M160.12,394.44v-1.76c6.56-1.28,7.52-3.92,7.68-10.72v-62.8c-.15-6.7-1.15-9.63-7.68-10.73V307l20.94-2.41V382c.16,6.72,1.06,9.46,7.6,10.72v1.76Zm6.51-2.86h13c-2.19-1.54-4.1-2.69-3.64-5.79,0-.83,0-77.64,0-78.46l-10.66,1.17,2.53,1.82c2.12,1.27,2.18,2.46,2.15,5.27-1,2.56,2.34,75.49-2,74.82Z"/><path d="M209.85,377.86c-8,7.11-3.27,11.36,6.18,10.47,6.77.08,22.06-.62,26.52,2,16,8.1,10.06,31.94-5.68,37.06-10.14,4.53-27.56,4.08-36.18-1.76-11.28-6.88-9.05-20.41,1.5-26.91-8.87-7.48-1.49-16.21,5.85-21.91-20.78-11-8.33-37.93,12.93-37.05,1.16-14.36,20-16.91,23.21-4.1-.36,7.21-9.16,5.53-10.73-.19-3.41-6-9.35-3-10.27,4.29C264.67,343.05,244.17,394.28,209.85,377.86Zm-5,22.62c-14.52,12.32,1.23,28.84,16.58,27.18,12.09,1.14,31.23-11,21.42-23.7C236.84,398.65,213.93,403,204.85,400.48Zm7-23.59c-10-8.6-9.23-26.72,2.15-34.39C196.26,346.94,194.46,370.25,211.87,376.89Zm34,39.46c5.85-7.53,2.87-19-5.75-22-6.5-2-18-.87-25.19-1.27-7,.31-15.05-1-11.58-9.29-6.16,5.38-2.83,15.16,5.53,15C222.09,400.32,254.84,392.83,245.87,416.35Zm-12.42-56.76c.85-24.68-23.94-22.95-22.94.72C210,384.8,234.62,384,233.45,359.59Zm-4,17.69c15.52-5.55,15.05-28.92.07-34.39C238.21,351.23,237.4,368.72,229.42,377.28Zm.39-46.87c3.88.85,5.2,4.67,7.32,7.25C244.84,340.53,238.26,328,229.81,330.41Z"/><path d="M255.88,394.44v-1.76c6.55-1.28,7.52-3.92,7.67-10.72V354.65c-.15-6.7-1.15-9.63-7.67-10.72V342.5l20.93-2.41V382c.16,6.72,1.07,9.46,7.61,10.72v1.76Zm6.5-2.86h13c-2.19-1.54-4.09-2.69-3.64-5.79v-43L261.08,344l2.54,1.82c2.11,1.26,2.18,2.47,2.14,5.27-.91,3.77,2.24,37.74-2,39.33Zm-.58-69.23c-.32-10.16,15.78-10.16,15.47,0C277.63,332.45,261.43,332.45,261.8,322.35Zm7.41-6.05c-12,2.42-1.27,16.93,1.43,10.53.08-1,.09-8.13,0-9.16A1.32,1.32,0,0,0,269.21,316.3Z"/><path d="M349.81,390.47h-1.56l-35.49-70.66-3.83,44c-1.61,13.57,1.21,25.95,16.05,28.6v2H289.49v-2c12.84-5.1,15.86-14.33,17-29l4.1-46.87c-3.29-6-6.95-8.51-13.72-8.84v-2h31.46c-2.69,6.31-1.64,7.85,1.76,15.28l25.15,49.93,20.81-48.56c3-7.66,3.62-9.68-.13-16.65h31.27v2c-10.33.8-13.79,8-12,17.23l5.46,48.23c.75,8.91,3,18.31,13.66,19.24v2H373v-2c7.28-2,12.94-4.19,13.26-11.44.19-1.44-6.57-58-6.82-60.84Zm-38.09.65c-3.86-4.31-5-5.86-6-11.11-2.21,5.41-4.11,7.62-8.84,11.11Zm37.12-4.42,3.57-8.45c-1.71-7.16-36.52-63.6-31.07-70.08H306.39C316.06,314.07,342.47,376.73,348.84,386.7Zm33.35,4.42h19.95c-3.7-2.86-5.69-4.1-6.3-10.33l-7.15-62.08c-1.36-5.23,3.34-7.66,6.89-10.54H380.5l8.19,71.71.26,1.43C390.33,386.45,385.86,388.53,382.19,391.12Z"/><path d="M420.54,394.44v-1.76c6.56-1.28,7.52-3.92,7.67-10.72V354.65c-.15-6.7-1.15-9.63-7.67-10.72V342.5l20.93-2.41V382c.16,6.72,1.07,9.46,7.61,10.72v1.76Zm6.5-2.86h13c-2.19-1.54-4.09-2.69-3.64-5.79v-43L425.74,344l2.54,1.82c2.11,1.26,2.18,2.47,2.14,5.27-.91,3.77,2.24,37.74-2,39.33Zm-.58-69.23c-.32-10.16,15.78-10.16,15.47,0C442.29,332.45,426.09,332.45,426.46,322.35Zm7.41-6.05c-12,2.42-1.27,16.93,1.43,10.53.08-1,.09-8.13,0-9.16A1.32,1.32,0,0,0,433.87,316.3Z"/><path d="M488,388.39c-35.74,25.09-52.31-27,0-26.45,0-5.49.18-11.62-1.76-15.87s-8.39-5.72-11.44-2.17c-3.52,3.45-.66,13.84-7.93,13.16-6-.06-6.52-8-2.79-11.6,3.72-4.11,10.14-5.83,16-5.82,38.85,1.08,8.35,49.95,28.86,53v1.76H488Zm-14.3,4.94c-17.68-3.62-12.18-23.82,2.86-28.14C453.71,366.79,448.3,394.26,473.72,393.33Zm0-51.35c-9,.89-14,14.36-6.57,11.8C468.82,348.89,469,345.08,473.72,342ZM488,385.53V364C458.92,365.92,463.77,404,488,385.53Zm2.21,6.05h9.62c-.19-.12-1.61-1.3-1.76-1.37-1.62-.87-2-2.68-1.82-4.42-1.57-13.06,5.46-39.6-11.31-43.94C494.15,347.31,488.92,380.85,490.23,391.58Z"/><path d="M574.35,355.63c.48,2.95.18,22.92.26,26.33.14,6.7,1.21,9.45,7.67,10.72v1.76H553.74v-1.76c6.54-1.26,7.45-4,7.61-10.72V360c1.65-21.89-15.83-19.13-25.62-4.49V382c.16,6.72,1.07,9.46,7.61,10.72v1.76H514.8v-1.76c6.56-1.28,7.52-3.92,7.67-10.72V354.65c-.15-6.7-1.15-9.63-7.67-10.72V342.5l20.93-2.41v12.22c9.15-14.74,33-18.36,38,.65,8.3-13.22,27.71-19.24,36.93-4.55,7.28,9.67-4.71,43.79,10.14,44.27v1.76H592.29v-1.76c6.6-1.26,7.51-4,7.67-10.72V360C601.67,337.84,583.91,341.1,574.35,355.63ZM521.3,391.58h13c-2.19-1.54-4.09-2.69-3.64-5.79v-43L520,344l2.54,1.82c2.11,1.26,2.18,2.47,2.14,5.27-.91,3.77,2.24,37.74-2,39.33Zm38.88,0h13c-2.25-1.66-3.94-2.64-3.64-5.79-1.26-13.47,6.33-46.87-16.19-43.68,9.81,1.8,9.78,7.45,10.21,17.81v25.22C563.85,389,562.72,389.46,560.18,391.58Zm38.61,0h13l-1.56-1.17a.25.25,0,0,0-.19-.2c-1.64-.85-1.95-2.65-1.89-4.42-1.51-13.43,6.74-46.49-16.19-43.68,9.81,1.8,9.79,7.45,10.21,17.81v25.22C602.46,389,601.34,389.46,598.79,391.58Z"/></g></g></svg>