<svg width="726" height="621" viewBox="0 0 726 621" fill="none" xmlns="http://www.w3.org/2000/svg">
<path fill-rule="evenodd" clip-rule="evenodd" d="M445.87 256.53L376.58 187.24L410.63 153.04C410.98 152.69 411.33 152.34 411.63 151.98C401.047 142.104 388.332 134.798 374.47 130.63L347.2 157.9L313.07 123.77C312.68 123.38 312.29 122.97 311.91 122.57C303.553 113.646 298.906 101.876 298.91 89.6501C298.911 87.4561 299.058 85.2646 299.35 83.0901C300.797 72.5658 305.676 62.8127 313.229 55.3423C320.782 47.8718 330.588 43.101 341.127 41.7693C351.667 40.4376 362.352 42.6193 371.525 47.9763C380.699 53.3333 387.85 61.5666 391.87 71.4001C407.903 76.181 423.061 83.515 436.76 93.1201C436.76 91.9601 436.82 90.8001 436.82 89.6501C436.82 65.8735 427.375 43.0704 410.562 26.2578C393.749 9.44518 370.947 0 347.17 0C323.393 0 300.59 9.44518 283.778 26.2578C266.965 43.0704 257.52 65.8735 257.52 89.6501C257.52 90.8001 257.52 91.9601 257.59 93.1201C258.302 111.682 264.767 129.564 276.09 144.29C278.161 146.976 280.381 149.543 282.74 151.98C283.08 152.34 283.43 152.69 283.74 153.04L317.87 187.16L256.58 248.45C260.75 262.316 268.059 275.036 277.94 285.62L347.13 216.43L523.65 392.94C527.53 396.82 532.792 399 538.28 399C543.767 399 549.03 396.82 552.91 392.94C563.25 382.6 560.66 347.32 558.52 330.76C558.38 329.76 558.28 328.38 558.22 327.58L555.6 298.32C555.19 295.51 554.96 287.45 554.6 285.12C554.24 282.79 554.44 280.6 554.14 278.36L552.96 258.36C552.96 256.83 552.74 256.44 552.7 255.14C552.66 253.84 552.77 252.6 552.7 251.39C552.42 246.19 552.19 243.32 552.2 237.7C552.2 235.21 551.95 233.57 551.95 230.98C551.95 226.74 551.47 211.66 551.88 209.98C553.01 205.47 560.05 202.12 564.88 198.32C565.7 197.67 566.12 197.16 566.88 196.57C569.53 194.45 571.811 191.905 573.63 189.04C575.535 185.957 576.971 182.607 577.89 179.1C578.994 174.779 579.608 170.348 579.72 165.89V156.29C579.65 154.72 579.56 153.21 579.45 151.81C577.94 132.48 573.85 110.4 562.32 94.99C558.87 90.38 552.32 84.0701 546.1 84.0701C541.75 84.0701 539.64 84.7099 536.02 87.4399C532.02 90.4399 528.02 95.8101 525.76 100.34C525.36 101.13 525.16 101.34 524.76 102.08C524.36 102.82 524.14 103.32 523.76 104.08C521.836 108.126 520.166 112.287 518.76 116.54C516.08 125.61 516.21 125.47 514.21 135.39C513.59 138.49 513.06 142.39 512.74 145.62C510.8 164.52 510.74 179.97 521.02 193.03C521.52 193.67 521.8 193.85 522.3 194.49C524.11 196.82 525.4 197.49 526.83 198.93C527.826 199.849 528.867 200.717 529.95 201.53C531.11 202.47 532.18 203.21 533.33 204.13C534.95 205.42 538.59 208.04 538.59 210.57C538.59 213.49 538.76 229.19 538.53 230.92C538.16 233.58 538.63 237.08 538.31 239.92L537.84 248.67C537.75 251.62 537.84 254.67 537.58 257.67C537.12 263.29 536.98 269.38 536.39 274.9C535.9 279.41 535.61 287.46 535.04 291.97C534.72 294.5 534.5 297.8 534.18 300.33C533.82 303.22 533.61 305.86 533.34 308.7L530.16 340.91L445.81 256.55L445.87 256.53ZM125.08 159.29C125.08 165.78 124.82 173.17 125.89 179.39C126.498 182.638 127.683 185.751 129.39 188.58C130.966 191.174 132.759 193.629 134.75 195.92C135.75 197.17 136.61 198.23 137.6 199.55C138.563 200.777 139.429 202.078 140.19 203.44C144.1 210.73 142.97 218.76 141.97 228.21L141.08 237.04C140.57 241.04 140.41 244.83 139.98 248.88C139.16 256.58 138.15 264.35 137.77 272.08C137.68 273.86 137.42 275.76 137.26 277.79L135.26 301.47C135.09 303.63 135.16 305.47 134.98 307.67C134.67 311.45 134.23 315.88 134.25 319.89C133.88 336.95 130.12 381.65 141.44 392.97C145.322 396.851 150.586 399.031 156.075 399.031C161.564 399.031 166.828 396.851 170.71 392.97L234.37 329.31C224.66 319.187 216.359 307.801 209.69 295.46L163.88 341.26L162.71 326.79C161.35 316.3 160.78 305.79 159.71 295.44C159.56 293.98 159.49 292.92 159.42 291.51C159.04 284.76 158.11 278.3 157.94 271.58C157.83 267.51 157.15 263.72 157.18 259.63C157.18 257.88 156.94 257.14 156.92 255.63C156.92 252.57 156.73 250.28 156.69 247.14C156.69 245.65 156.42 244.91 156.43 243.14C156.43 241.72 156.43 240.31 156.43 238.9C156.43 237.2 156.16 236.62 156.17 234.9C156.17 227.67 155.83 220.85 155.92 213.48C156.01 205.93 159.81 201.53 164.32 196.23C166.303 193.815 168.026 191.197 169.46 188.42C169.92 187.56 170.34 186.42 170.73 185.42C174.25 176.66 173.59 164.99 173.61 155.18C173.61 153.18 173.35 151.93 173.35 150.18C173.35 146.46 173.1 143.5 173.11 139.96L172.01 120.4C171.54 117.28 171.71 114.06 171.3 110.9C170.3 103.1 169.95 95.2099 168.63 87.4199C168.41 86.1099 168.38 84.0199 167.13 83.6899C165.85 89.2099 165.66 100.05 165.65 106.11C165.65 107.79 165.38 108.88 165.39 110.83C165.39 114.27 165.13 116.83 165.14 120.29L163.9 143.2C163.81 145.99 163.05 154.2 161.4 155.4C160.18 155.07 159.98 153.51 159.76 152.31C159.48 150.862 159.28 149.4 159.16 147.93C159 145.13 158.66 141.77 158.43 138.93L157.92 120.02C157.92 116.62 157.67 114.02 157.67 110.56C157.67 102.56 157.33 95.0201 156.67 87.1501C156.634 86.4128 156.534 85.6797 156.37 84.96C156.14 83.89 156.31 83.7599 155.17 83.6699C153.89 89.1599 153.69 100.2 153.68 106.34C153.68 108.02 153.42 109.1 153.43 111.06C153.43 112.64 153.43 114.22 153.43 115.8L152.43 136.72C152.14 140.28 151.86 155.38 148.93 155.38C146.86 155.38 146.37 146.01 146.21 143.91C145.75 138.22 145.44 126.19 145.45 120.77C145.45 114.47 145.64 107.85 145.45 101.59L145.21 92.3801C145.21 90.9101 145.03 89.5801 144.95 87.9001C144.826 86.4707 144.575 85.0548 144.2 83.6699H143.45C143.29 84.3699 143.13 84.6699 142.97 85.4199C142.32 88.3399 141.2 106.92 141.21 110.56L139.82 138.31C139.05 143.49 139.49 148.68 137.93 153.59C137.659 154.171 137.425 154.769 137.23 155.38H136.23C136.074 154.818 135.873 154.27 135.63 153.74C135.393 153.095 135.239 152.423 135.17 151.74C134.309 145.944 133.831 140.098 133.74 134.24C133.822 132.684 133.799 131.123 133.67 129.57C133.31 126.91 133.24 105.86 133.24 101.62C133.24 97.1001 133.14 87.5299 132.24 83.6899C131.33 83.9299 131.32 84.14 131.01 84.95C128.79 90.82 127.13 111.95 126.76 119.54L126.37 124.13C125.99 126.62 126.14 129.13 126.01 131.5C125.95 132.6 125.77 132.69 125.75 133.98C125.75 134.8 125.8 135.67 125.75 136.49C125.75 137.71 125.52 137.73 125.49 138.96C125.28 145.76 125 152.16 125 159.14L125.08 159.29Z" fill="#384041"/>
<path fill-rule="evenodd" clip-rule="evenodd" d="M416.49 300.041L347.26 369.271L278.03 300.041L273.22 295.221C272.42 294.431 271.64 293.621 270.88 292.811C261.053 282.366 253.488 270.005 248.66 256.501C247.363 252.866 246.265 249.164 245.37 245.411C243.496 237.471 242.549 229.339 242.55 221.181C242.518 195.528 251.934 170.763 269 151.611C259.809 140.035 253.318 126.554 250 112.151C247.94 113.991 245.93 115.901 244 117.871C223.424 138.438 209.45 164.674 203.862 193.225C198.274 221.776 201.326 251.344 212.63 278.151C214.03 281.451 215.557 284.714 217.21 287.941C223.636 300.449 231.837 311.962 241.56 322.121C242.33 322.921 243.12 323.731 243.91 324.521L332.59 413.201C336.472 417.082 341.736 419.262 347.225 419.262C352.714 419.262 357.978 417.082 361.86 413.201L445.72 329.331L416.49 300.041ZM418.35 144.291C419.35 145.211 420.35 146.161 421.35 147.141C422.8 148.591 424.21 150.091 425.56 151.611C442.634 170.759 452.054 195.526 452.02 221.181C452.017 229.34 451.067 237.471 449.19 245.411L481.89 278.111C493.198 251.318 496.263 221.763 490.691 193.22C485.119 164.677 471.165 138.444 450.61 117.871C448.61 115.871 446.593 113.964 444.56 112.151C441.673 109.571 438.71 107.124 435.67 104.811C423.393 95.4626 409.705 88.1307 395.12 83.0909C391.48 81.8309 387.813 80.7209 384.12 79.7609C359.983 73.5198 334.656 73.5198 310.52 79.7609C309.662 82.9874 309.228 86.3123 309.23 89.651C309.221 94.6532 310.202 99.6076 312.116 104.229C314.029 108.851 316.838 113.049 320.38 116.581L323.1 119.291C342.836 114.602 363.509 115.742 382.61 122.571C395.889 127.315 408.068 134.704 418.41 144.291H418.35Z" fill="#FEAA3A"/>
<path fill-rule="evenodd" clip-rule="evenodd" d="M347.26 453.04C463.36 453.04 557.49 476.88 557.49 506.29C557.49 535.7 463.36 559.55 347.26 559.55C231.16 559.55 137.04 535.71 137.04 506.29C137.04 476.87 231.16 453.04 347.26 453.04ZM347.26 481.94C400.35 481.94 443.38 492.85 443.38 506.29C443.38 519.73 400.38 530.64 347.26 530.64C294.14 530.64 251.14 519.74 251.14 506.29C251.14 492.84 294.14 481.94 347.26 481.94Z" fill="#384041"/>
<path fill-rule="evenodd" clip-rule="evenodd" d="M453.63 506.24C453.63 491.36 406 479.29 347.24 479.29C288.48 479.29 240.86 491.36 240.86 506.24C240.86 521.12 288.49 533.19 347.24 533.19C405.99 533.19 453.63 521.13 453.63 506.24Z" fill="#FBFBFB"/>
<path d="M6.59091 620.366H0L10.0426 591.276H17.9688L27.9972 620.366H21.4062L14.1193 597.923H13.892L6.59091 620.366ZM6.17898 608.932H21.7472V613.733H6.17898V608.932Z" fill="#384041"/>
<path d="M49.4673 591.276H55.6179V610.168C55.6179 612.289 55.1113 614.145 54.098 615.736C53.0942 617.327 51.688 618.567 49.8793 619.457C48.0705 620.338 45.9635 620.778 43.5582 620.778C41.1435 620.778 39.0317 620.338 37.223 619.457C35.4143 618.567 34.008 617.327 33.0043 615.736C32.0005 614.145 31.4986 612.289 31.4986 610.168V591.276H37.6491V609.642C37.6491 610.75 37.8906 611.735 38.3736 612.597C38.866 613.458 39.5573 614.135 40.4474 614.628C41.3376 615.12 42.3745 615.366 43.5582 615.366C44.7514 615.366 45.7884 615.12 46.669 614.628C47.5592 614.135 48.2457 613.458 48.7287 612.597C49.2211 611.735 49.4673 610.75 49.4673 609.642V591.276Z" fill="#384041"/>
<path d="M86.3459 601.46H80.1243C80.0107 600.655 79.7786 599.94 79.4283 599.315C79.0779 598.681 78.6281 598.141 78.0788 597.696C77.5296 597.251 76.8951 596.91 76.1754 596.673C75.4652 596.437 74.6934 596.318 73.8601 596.318C72.3544 596.318 71.0429 596.692 69.9254 597.44C68.808 598.179 67.9415 599.259 67.326 600.679C66.7105 602.09 66.4027 603.804 66.4027 605.821C66.4027 607.895 66.7105 609.637 67.326 611.048C67.951 612.459 68.8222 613.525 69.9396 614.244C71.0571 614.964 72.3497 615.324 73.8175 615.324C74.6413 615.324 75.4036 615.215 76.1044 614.997C76.8146 614.779 77.4444 614.462 77.9936 614.045C78.5428 613.619 78.9974 613.103 79.3572 612.497C79.7266 611.891 79.9822 611.2 80.1243 610.423L86.3459 610.452C86.1849 611.787 85.7824 613.075 85.1385 614.315C84.504 615.546 83.647 616.65 82.5675 617.625C81.4974 618.591 80.219 619.358 78.7322 619.926C77.255 620.485 75.5836 620.764 73.718 620.764C71.1233 620.764 68.8033 620.177 66.7578 619.003C64.7218 617.829 63.112 616.129 61.9283 613.903C60.754 611.678 60.1669 608.984 60.1669 605.821C60.1669 602.649 60.7635 599.95 61.9567 597.724C63.1499 595.499 64.7692 593.804 66.8146 592.639C68.8601 591.465 71.1612 590.878 73.718 590.878C75.4036 590.878 76.9661 591.115 78.4055 591.588C79.8544 592.062 81.1375 592.753 82.255 593.662C83.3724 594.562 84.2815 595.665 84.9822 596.972C85.6925 598.278 86.147 599.775 86.3459 601.46Z" fill="#384041"/>
<path d="M108.725 591.276H114.876V610.168C114.876 612.289 114.369 614.145 113.356 615.736C112.352 617.327 110.946 618.567 109.137 619.457C107.328 620.338 105.221 620.778 102.816 620.778C100.401 620.778 98.2895 620.338 96.4808 619.457C94.6721 618.567 93.2659 617.327 92.2621 615.736C91.2583 614.145 90.7564 612.289 90.7564 610.168V591.276H96.907V609.642C96.907 610.75 97.1484 611.735 97.6314 612.597C98.1238 613.458 98.8151 614.135 99.7053 614.628C100.595 615.12 101.632 615.366 102.816 615.366C104.009 615.366 105.046 615.12 105.927 614.628C106.817 614.135 107.504 613.458 107.987 612.597C108.479 611.735 108.725 610.75 108.725 609.642V591.276Z" fill="#384041"/>
<path d="M144.268 591.276V620.366H138.956L126.3 602.057H126.087V620.366H119.936V591.276H125.334L137.891 609.571H138.146V591.276H144.268Z" fill="#384041"/>
<path d="M167.866 620.366V591.276H187.468V596.347H174.016V603.278H186.46V608.349H174.016V615.295H187.525V620.366H167.866ZM175.536 588.463L178.548 582H184.144L179.812 588.463H175.536Z" fill="#384041"/>
<path d="M191.25 596.347V591.276H215.142V596.347H206.236V620.366H200.156V596.347H191.25Z" fill="#384041"/>
<path d="M220.536 620.366H213.945L223.988 591.276H231.914L241.942 620.366H235.352L228.065 597.923H227.837L220.536 620.366ZM220.124 608.932H235.692V613.733H220.124V608.932Z" fill="#384041"/>
<path d="M245.444 620.366V591.276H257.092C259.232 591.276 261.017 591.593 262.447 592.227C263.877 592.862 264.951 593.742 265.671 594.869C266.391 595.987 266.751 597.275 266.751 598.733C266.751 599.869 266.523 600.868 266.069 601.73C265.614 602.582 264.989 603.283 264.194 603.832C263.408 604.372 262.508 604.756 261.495 604.983V605.267C262.603 605.314 263.64 605.627 264.606 606.205C265.581 606.782 266.372 607.592 266.978 608.634C267.584 609.666 267.887 610.897 267.887 612.327C267.887 613.87 267.504 615.248 266.737 616.46C265.979 617.663 264.857 618.615 263.37 619.315C261.883 620.016 260.051 620.366 257.873 620.366H245.444ZM251.594 615.338H256.609C258.323 615.338 259.573 615.011 260.359 614.358C261.145 613.695 261.538 612.814 261.538 611.716C261.538 610.911 261.344 610.201 260.955 609.585C260.567 608.97 260.013 608.487 259.293 608.136C258.583 607.786 257.736 607.611 256.751 607.611H251.594V615.338ZM251.594 603.449H256.154C256.997 603.449 257.745 603.302 258.398 603.009C259.061 602.706 259.582 602.279 259.961 601.73C260.349 601.181 260.543 600.523 260.543 599.756C260.543 598.705 260.169 597.857 259.421 597.213C258.683 596.569 257.631 596.247 256.268 596.247H251.594V603.449Z" fill="#384041"/>
<path d="M271.889 620.366V591.276H278.04V615.295H290.511V620.366H271.889Z" fill="#384041"/>
<path d="M300.735 591.276V620.366H294.585V591.276H300.735Z" fill="#384041"/>
<path d="M321.577 599.642C321.463 598.496 320.975 597.606 320.114 596.972C319.252 596.337 318.082 596.02 316.605 596.02C315.601 596.02 314.754 596.162 314.062 596.446C313.371 596.721 312.841 597.104 312.472 597.597C312.112 598.089 311.932 598.648 311.932 599.273C311.913 599.794 312.022 600.248 312.259 600.636C312.505 601.025 312.841 601.361 313.267 601.645C313.693 601.92 314.186 602.161 314.744 602.369C315.303 602.568 315.9 602.739 316.534 602.881L319.148 603.506C320.417 603.79 321.581 604.169 322.642 604.642C323.703 605.116 324.621 605.698 325.398 606.389C326.174 607.081 326.776 607.895 327.202 608.832C327.637 609.77 327.86 610.845 327.869 612.057C327.86 613.837 327.405 615.381 326.506 616.688C325.616 617.985 324.328 618.993 322.642 619.713C320.966 620.423 318.944 620.778 316.577 620.778C314.228 620.778 312.183 620.419 310.44 619.699C308.707 618.979 307.353 617.914 306.378 616.503C305.412 615.082 304.905 613.326 304.858 611.233H310.81C310.876 612.208 311.155 613.023 311.648 613.676C312.15 614.32 312.817 614.808 313.651 615.139C314.493 615.461 315.445 615.622 316.506 615.622C317.547 615.622 318.452 615.471 319.219 615.168C319.995 614.865 320.597 614.443 321.023 613.903C321.449 613.364 321.662 612.743 321.662 612.043C321.662 611.389 321.468 610.84 321.08 610.395C320.701 609.95 320.142 609.571 319.403 609.259C318.674 608.946 317.779 608.662 316.719 608.406L313.551 607.611C311.098 607.014 309.162 606.081 307.741 604.812C306.321 603.544 305.616 601.834 305.625 599.685C305.616 597.923 306.084 596.384 307.031 595.068C307.988 593.752 309.299 592.724 310.966 591.986C312.633 591.247 314.527 590.878 316.648 590.878C318.807 590.878 320.691 591.247 322.301 591.986C323.92 592.724 325.18 593.752 326.08 595.068C326.979 596.384 327.443 597.909 327.472 599.642H321.577Z" fill="#384041"/>
<path d="M347.788 599.642C347.674 598.496 347.186 597.606 346.325 596.972C345.463 596.337 344.293 596.02 342.816 596.02C341.812 596.02 340.965 596.162 340.273 596.446C339.582 596.721 339.052 597.104 338.683 597.597C338.323 598.089 338.143 598.648 338.143 599.273C338.124 599.794 338.233 600.248 338.469 600.636C338.716 601.025 339.052 601.361 339.478 601.645C339.904 601.92 340.397 602.161 340.955 602.369C341.514 602.568 342.111 602.739 342.745 602.881L345.359 603.506C346.628 603.79 347.792 604.169 348.853 604.642C349.914 605.116 350.832 605.698 351.609 606.389C352.385 607.081 352.986 607.895 353.413 608.832C353.848 609.77 354.071 610.845 354.08 612.057C354.071 613.837 353.616 615.381 352.717 616.688C351.826 617.985 350.539 618.993 348.853 619.713C347.177 620.423 345.155 620.778 342.788 620.778C340.439 620.778 338.394 620.419 336.651 619.699C334.918 618.979 333.564 617.914 332.589 616.503C331.623 615.082 331.116 613.326 331.069 611.233H337.021C337.087 612.208 337.366 613.023 337.859 613.676C338.361 614.32 339.028 614.808 339.862 615.139C340.704 615.461 341.656 615.622 342.717 615.622C343.758 615.622 344.663 615.471 345.43 615.168C346.206 614.865 346.808 614.443 347.234 613.903C347.66 613.364 347.873 612.743 347.873 612.043C347.873 611.389 347.679 610.84 347.29 610.395C346.912 609.95 346.353 609.571 345.614 609.259C344.885 608.946 343.99 608.662 342.93 608.406L339.762 607.611C337.309 607.014 335.373 606.081 333.952 604.812C332.532 603.544 331.826 601.834 331.836 599.685C331.826 597.923 332.295 596.384 333.242 595.068C334.199 593.752 335.51 592.724 337.177 591.986C338.844 591.247 340.737 590.878 342.859 590.878C345.018 590.878 346.902 591.247 348.512 591.986C350.131 592.724 351.391 593.752 352.29 595.068C353.19 596.384 353.654 597.909 353.683 599.642H347.788Z" fill="#384041"/>
<path d="M358.217 620.366V591.276H377.82V596.347H364.368V603.278H376.811V608.349H364.368V615.295H377.876V620.366H358.217Z" fill="#384041"/>
<path d="M382.71 591.276H390.295L398.306 610.821H398.647L406.658 591.276H414.244V620.366H408.278V601.432H408.036L400.508 620.224H396.445L388.917 601.361H388.675V620.366H382.71V591.276Z" fill="#384041"/>
<path d="M419.311 620.366V591.276H438.913V596.347H425.462V603.278H437.905V608.349H425.462V615.295H438.97V620.366H419.311Z" fill="#384041"/>
<path d="M468.136 591.276V620.366H462.823L450.167 602.057H449.954V620.366H443.803V591.276H449.201L461.758 609.571H462.013V591.276H468.136Z" fill="#384041"/>
<path d="M472.109 596.347V591.276H496.001V596.347H487.095V620.366H481.016V596.347H472.109Z" fill="#384041"/>
<path d="M515.717 599.642C515.604 598.496 515.116 597.606 514.254 596.972C513.393 596.337 512.223 596.02 510.746 596.02C509.742 596.02 508.894 596.162 508.203 596.446C507.512 596.721 506.982 597.104 506.612 597.597C506.252 598.089 506.072 598.648 506.072 599.273C506.054 599.794 506.162 600.248 506.399 600.636C506.645 601.025 506.982 601.361 507.408 601.645C507.834 601.92 508.326 602.161 508.885 602.369C509.444 602.568 510.04 602.739 510.675 602.881L513.288 603.506C514.557 603.79 515.722 604.169 516.783 604.642C517.843 605.116 518.762 605.698 519.538 606.389C520.315 607.081 520.916 607.895 521.342 608.832C521.778 609.77 522 610.845 522.01 612.057C522 613.837 521.546 615.381 520.646 616.688C519.756 617.985 518.468 618.993 516.783 619.713C515.107 620.423 513.085 620.778 510.717 620.778C508.369 620.778 506.323 620.419 504.581 619.699C502.848 618.979 501.494 617.914 500.518 616.503C499.553 615.082 499.046 613.326 498.999 611.233H504.95C505.017 612.208 505.296 613.023 505.788 613.676C506.29 614.32 506.958 614.808 507.791 615.139C508.634 615.461 509.586 615.622 510.646 615.622C511.688 615.622 512.592 615.471 513.359 615.168C514.136 614.865 514.737 614.443 515.163 613.903C515.589 613.364 515.803 612.743 515.803 612.043C515.803 611.389 515.608 610.84 515.22 610.395C514.841 609.95 514.283 609.571 513.544 609.259C512.815 608.946 511.92 608.662 510.859 608.406L507.692 607.611C505.239 607.014 503.303 606.081 501.882 604.812C500.462 603.544 499.756 601.834 499.766 599.685C499.756 597.923 500.225 596.384 501.172 595.068C502.128 593.752 503.44 592.724 505.107 591.986C506.773 591.247 508.667 590.878 510.788 590.878C512.947 590.878 514.832 591.247 516.442 591.986C518.061 592.724 519.321 593.752 520.22 595.068C521.12 596.384 521.584 597.909 521.612 599.642H515.717Z" fill="#384041"/>
<path d="M534.297 596.347V591.276H558.189V596.347H549.283V620.366H543.203V596.347H534.297Z" fill="#384041"/>
<path d="M562.124 620.366V591.276H573.601C575.798 591.276 577.673 591.669 579.226 592.455C580.788 593.231 581.977 594.334 582.791 595.764C583.615 597.185 584.027 598.856 584.027 600.778C584.027 602.71 583.61 604.372 582.777 605.764C581.944 607.147 580.736 608.207 579.155 608.946C577.583 609.685 575.679 610.054 573.445 610.054H565.76V605.111H572.45C573.624 605.111 574.6 604.95 575.376 604.628C576.153 604.306 576.731 603.823 577.109 603.179C577.498 602.535 577.692 601.735 577.692 600.778C577.692 599.812 577.498 598.998 577.109 598.335C576.731 597.672 576.148 597.17 575.362 596.83C574.586 596.479 573.606 596.304 572.422 596.304H568.274V620.366H562.124ZM577.834 607.128L585.064 620.366H578.274L571.2 607.128H577.834Z" fill="#384041"/>
<path d="M615.107 605.821C615.107 608.993 614.505 611.692 613.303 613.918C612.109 616.143 610.481 617.843 608.416 619.017C606.361 620.182 604.051 620.764 601.484 620.764C598.899 620.764 596.579 620.177 594.524 619.003C592.469 617.829 590.845 616.129 589.652 613.903C588.459 611.678 587.862 608.984 587.862 605.821C587.862 602.649 588.459 599.95 589.652 597.724C590.845 595.499 592.469 593.804 594.524 592.639C596.579 591.465 598.899 590.878 601.484 590.878C604.051 590.878 606.361 591.465 608.416 592.639C610.481 593.804 612.109 595.499 613.303 597.724C614.505 599.95 615.107 602.649 615.107 605.821ZM608.871 605.821C608.871 603.766 608.563 602.033 607.947 600.622C607.341 599.211 606.484 598.141 605.376 597.412C604.268 596.683 602.971 596.318 601.484 596.318C599.998 596.318 598.7 596.683 597.592 597.412C596.484 598.141 595.623 599.211 595.007 600.622C594.401 602.033 594.098 603.766 594.098 605.821C594.098 607.876 594.401 609.609 595.007 611.02C595.623 612.431 596.484 613.501 597.592 614.23C598.7 614.959 599.998 615.324 601.484 615.324C602.971 615.324 604.268 614.959 605.376 614.23C606.484 613.501 607.341 612.431 607.947 611.02C608.563 609.609 608.871 607.876 608.871 605.821Z" fill="#384041"/>
<path d="M637.631 591.276H643.782V610.168C643.782 612.289 643.275 614.145 642.262 615.736C641.258 617.327 639.852 618.567 638.043 619.457C636.235 620.338 634.128 620.778 631.722 620.778C629.308 620.778 627.196 620.338 625.387 619.457C623.578 618.567 622.172 617.327 621.168 615.736C620.165 614.145 619.663 612.289 619.663 610.168V591.276H625.813V609.642C625.813 610.75 626.055 611.735 626.538 612.597C627.03 613.458 627.721 614.135 628.612 614.628C629.502 615.12 630.539 615.366 631.722 615.366C632.915 615.366 633.952 615.12 634.833 614.628C635.723 614.135 636.41 613.458 636.893 612.597C637.385 611.735 637.631 610.75 637.631 609.642V591.276Z" fill="#384041"/>
<path d="M654.098 591.276L661.129 613.378H661.399L668.445 591.276H675.263L665.234 620.366H657.308L647.266 591.276H654.098Z" fill="#384041"/>
<path d="M678.764 620.366V591.276H698.366V596.347H684.915V603.278H697.358V608.349H684.915V615.295H698.423V620.366H678.764ZM686.435 588.463L689.446 582H695.043L690.71 588.463H686.435Z" fill="#384041"/>
<path d="M719.038 599.642C718.924 598.496 718.436 597.606 717.575 596.972C716.713 596.337 715.543 596.02 714.066 596.02C713.062 596.02 712.215 596.162 711.523 596.446C710.832 596.721 710.302 597.104 709.933 597.597C709.573 598.089 709.393 598.648 709.393 599.273C709.374 599.794 709.483 600.248 709.719 600.636C709.966 601.025 710.302 601.361 710.728 601.645C711.154 601.92 711.647 602.161 712.205 602.369C712.764 602.568 713.361 602.739 713.995 602.881L716.609 603.506C717.878 603.79 719.042 604.169 720.103 604.642C721.164 605.116 722.082 605.698 722.859 606.389C723.635 607.081 724.237 607.895 724.663 608.832C725.098 609.77 725.321 610.845 725.33 612.057C725.321 613.837 724.866 615.381 723.967 616.688C723.076 617.985 721.789 618.993 720.103 619.713C718.427 620.423 716.405 620.778 714.038 620.778C711.689 620.778 709.644 620.419 707.901 619.699C706.168 618.979 704.814 617.914 703.839 616.503C702.873 615.082 702.366 613.326 702.319 611.233H708.271C708.337 612.208 708.616 613.023 709.109 613.676C709.611 614.32 710.278 614.808 711.112 615.139C711.954 615.461 712.906 615.622 713.967 615.622C715.008 615.622 715.913 615.471 716.68 615.168C717.456 614.865 718.058 614.443 718.484 613.903C718.91 613.364 719.123 612.743 719.123 612.043C719.123 611.389 718.929 610.84 718.54 610.395C718.162 609.95 717.603 609.571 716.864 609.259C716.135 608.946 715.24 608.662 714.18 608.406L711.012 607.611C708.559 607.014 706.623 606.081 705.202 604.812C703.782 603.544 703.076 601.834 703.086 599.685C703.076 597.923 703.545 596.384 704.492 595.068C705.449 593.752 706.76 592.724 708.427 591.986C710.093 591.247 711.987 590.878 714.109 590.878C716.268 590.878 718.152 591.247 719.762 591.986C721.381 592.724 722.641 593.752 723.54 595.068C724.44 596.384 724.904 597.909 724.933 599.642H719.038Z" fill="#384041"/>
</svg>
