<svg width="742" height="622" viewBox="0 0 742 622" fill="none" xmlns="http://www.w3.org/2000/svg">
<path fill-rule="evenodd" clip-rule="evenodd" d="M461.2 256.53L391.91 187.24L425.96 153.04C426.31 152.69 426.66 152.34 426.96 151.98C416.378 142.104 403.662 134.798 389.8 130.63L362.53 157.9L328.4 123.77C328.01 123.38 327.62 122.97 327.24 122.57C318.884 113.646 314.236 101.876 314.24 89.6501C314.241 87.4561 314.388 85.2646 314.68 83.0901C316.128 72.5658 321.006 62.8127 328.559 55.3423C336.112 47.8718 345.918 43.101 356.458 41.7693C366.997 40.4376 377.682 42.6193 386.856 47.9763C396.029 53.3333 403.18 61.5666 407.2 71.4001C423.233 76.181 438.391 83.515 452.09 93.1201C452.09 91.9601 452.15 90.8001 452.15 89.6501C452.15 65.8735 442.705 43.0704 425.892 26.2578C409.08 9.44518 386.277 0 362.5 0C338.724 0 315.921 9.44518 299.108 26.2578C282.295 43.0704 272.85 65.8735 272.85 89.6501C272.85 90.8001 272.85 91.9601 272.92 93.1201C273.632 111.682 280.097 129.564 291.42 144.29C293.491 146.976 295.711 149.543 298.07 151.98C298.41 152.34 298.76 152.69 299.07 153.04L333.2 187.16L271.91 248.45C276.08 262.316 283.389 275.036 293.27 285.62L362.46 216.43L538.98 392.94C542.86 396.82 548.123 399 553.61 399C559.097 399 564.36 396.82 568.24 392.94C578.58 382.6 575.99 347.32 573.85 330.76C573.71 329.76 573.61 328.38 573.55 327.58L570.93 298.32C570.52 295.51 570.29 287.45 569.93 285.12C569.57 282.79 569.77 280.6 569.47 278.36L568.29 258.36C568.29 256.83 568.07 256.44 568.03 255.14C567.99 253.84 568.1 252.6 568.03 251.39C567.75 246.19 567.52 243.32 567.53 237.7C567.53 235.21 567.28 233.57 567.28 230.98C567.28 226.74 566.8 211.66 567.21 209.98C568.34 205.47 575.38 202.12 580.21 198.32C581.03 197.67 581.45 197.16 582.21 196.57C584.86 194.45 587.141 191.905 588.96 189.04C590.866 185.957 592.301 182.607 593.22 179.1C594.324 174.779 594.938 170.348 595.05 165.89V156.29C594.98 154.72 594.89 153.21 594.78 151.81C593.27 132.48 589.18 110.4 577.65 94.99C574.2 90.38 567.65 84.0701 561.43 84.0701C557.08 84.0701 554.97 84.7099 551.35 87.4399C547.35 90.4399 543.35 95.8101 541.09 100.34C540.69 101.13 540.49 101.34 540.09 102.08C539.69 102.82 539.47 103.32 539.09 104.08C537.166 108.126 535.497 112.287 534.09 116.54C531.41 125.61 531.54 125.47 529.54 135.39C528.92 138.49 528.39 142.39 528.07 145.62C526.13 164.52 526.07 179.97 536.35 193.03C536.85 193.67 537.13 193.85 537.63 194.49C539.44 196.82 540.73 197.49 542.16 198.93C543.156 199.849 544.197 200.717 545.28 201.53C546.44 202.47 547.51 203.21 548.66 204.13C550.28 205.42 553.92 208.04 553.92 210.57C553.92 213.49 554.09 229.19 553.86 230.92C553.49 233.58 553.96 237.08 553.64 239.92L553.17 248.67C553.08 251.62 553.17 254.67 552.91 257.67C552.45 263.29 552.31 269.38 551.72 274.9C551.23 279.41 550.94 287.46 550.37 291.97C550.05 294.5 549.83 297.8 549.51 300.33C549.15 303.22 548.94 305.86 548.67 308.7L545.49 340.91L461.14 256.55L461.2 256.53ZM140.41 159.29C140.41 165.78 140.15 173.17 141.22 179.39C141.828 182.638 143.013 185.751 144.72 188.58C146.296 191.174 148.089 193.629 150.08 195.92C151.08 197.17 151.94 198.23 152.93 199.55C153.894 200.777 154.76 202.078 155.52 203.44C159.43 210.73 158.3 218.76 157.3 228.21L156.41 237.04C155.9 241.04 155.74 244.83 155.31 248.88C154.49 256.58 153.48 264.35 153.1 272.08C153.01 273.86 152.75 275.76 152.59 277.79L150.59 301.47C150.42 303.63 150.49 305.47 150.31 307.67C150 311.45 149.56 315.88 149.58 319.89C149.21 336.95 145.45 381.65 156.77 392.97C160.652 396.851 165.916 399.031 171.405 399.031C176.894 399.031 182.158 396.851 186.04 392.97L249.7 329.31C239.99 319.187 231.689 307.801 225.02 295.46L179.21 341.26L178.04 326.79C176.68 316.3 176.11 305.79 175.04 295.44C174.89 293.98 174.82 292.92 174.75 291.51C174.37 284.76 173.44 278.3 173.27 271.58C173.16 267.51 172.48 263.72 172.51 259.63C172.51 257.88 172.27 257.14 172.25 255.63C172.25 252.57 172.06 250.28 172.02 247.14C172.02 245.65 171.75 244.91 171.76 243.14C171.76 241.72 171.76 240.31 171.76 238.9C171.76 237.2 171.49 236.62 171.5 234.9C171.5 227.67 171.16 220.85 171.25 213.48C171.34 205.93 175.14 201.53 179.65 196.23C181.633 193.815 183.356 191.197 184.79 188.42C185.25 187.56 185.67 186.42 186.06 185.42C189.58 176.66 188.92 164.99 188.94 155.18C188.94 153.18 188.68 151.93 188.68 150.18C188.68 146.46 188.43 143.5 188.44 139.96L187.34 120.4C186.87 117.28 187.04 114.06 186.63 110.9C185.63 103.1 185.28 95.2099 183.96 87.4199C183.74 86.1099 183.71 84.0199 182.46 83.6899C181.18 89.2099 180.99 100.05 180.98 106.11C180.98 107.79 180.71 108.88 180.72 110.83C180.72 114.27 180.46 116.83 180.47 120.29L179.23 143.2C179.14 145.99 178.38 154.2 176.73 155.4C175.51 155.07 175.31 153.51 175.09 152.31C174.81 150.862 174.61 149.4 174.49 147.93C174.33 145.13 173.99 141.77 173.76 138.93L173.25 120.02C173.25 116.62 173 114.02 173 110.56C173 102.56 172.66 95.0201 172 87.1501C171.965 86.4128 171.864 85.6797 171.7 84.96C171.47 83.89 171.64 83.7599 170.5 83.6699C169.22 89.1599 169.02 100.2 169.01 106.34C169.01 108.02 168.75 109.1 168.76 111.06C168.76 112.64 168.76 114.22 168.76 115.8L167.76 136.72C167.47 140.28 167.19 155.38 164.26 155.38C162.19 155.38 161.7 146.01 161.54 143.91C161.08 138.22 160.77 126.19 160.78 120.77C160.78 114.47 160.97 107.85 160.78 101.59L160.54 92.3801C160.54 90.9101 160.36 89.5801 160.28 87.9001C160.156 86.4707 159.905 85.0548 159.53 83.6699H158.78C158.62 84.3699 158.46 84.6699 158.3 85.4199C157.65 88.3399 156.53 106.92 156.54 110.56L155.15 138.31C154.38 143.49 154.82 148.68 153.26 153.59C152.989 154.171 152.756 154.769 152.56 155.38H151.56C151.404 154.818 151.203 154.27 150.96 153.74C150.723 153.095 150.569 152.423 150.5 151.74C149.639 145.944 149.162 140.098 149.07 134.24C149.152 132.684 149.129 131.123 149 129.57C148.64 126.91 148.57 105.86 148.57 101.62C148.57 97.1001 148.47 87.5299 147.57 83.6899C146.66 83.9299 146.65 84.14 146.34 84.95C144.12 90.82 142.46 111.95 142.09 119.54L141.7 124.13C141.32 126.62 141.47 129.13 141.34 131.5C141.28 132.6 141.1 132.69 141.08 133.98C141.08 134.8 141.13 135.67 141.08 136.49C141.08 137.71 140.85 137.73 140.82 138.96C140.61 145.76 140.33 152.16 140.33 159.14L140.41 159.29Z" fill="#384041"/>
<path fill-rule="evenodd" clip-rule="evenodd" d="M431.82 300.041L362.59 369.271L293.36 300.041L288.55 295.221C287.75 294.431 286.97 293.621 286.21 292.811C276.383 282.366 268.818 270.005 263.99 256.501C262.694 252.866 261.595 249.164 260.7 245.411C258.826 237.471 257.88 229.339 257.88 221.181C257.848 195.528 267.264 170.763 284.33 151.611C275.139 140.035 268.648 126.554 265.33 112.151C263.27 113.991 261.26 115.901 259.33 117.871C238.755 138.438 224.78 164.674 219.192 193.225C213.604 221.776 216.657 251.344 227.96 278.151C229.36 281.451 230.887 284.714 232.54 287.941C238.966 300.449 247.167 311.962 256.89 322.121C257.66 322.921 258.45 323.731 259.24 324.521L347.92 413.201C351.802 417.082 357.066 419.262 362.555 419.262C368.044 419.262 373.308 417.082 377.19 413.201L461.05 329.331L431.82 300.041ZM433.68 144.291C434.68 145.211 435.68 146.161 436.68 147.141C438.13 148.591 439.54 150.091 440.89 151.611C457.964 170.759 467.385 195.526 467.35 221.181C467.347 229.34 466.397 237.471 464.52 245.411L497.22 278.111C508.528 251.318 511.593 221.763 506.021 193.22C500.449 164.677 486.495 138.444 465.94 117.871C463.94 115.871 461.923 113.964 459.89 112.151C457.003 109.571 454.04 107.124 451 104.811C438.723 95.4626 425.035 88.1307 410.45 83.0909C406.81 81.8309 403.143 80.7209 399.45 79.7609C375.314 73.5198 349.986 73.5198 325.85 79.7609C324.992 82.9874 324.558 86.3123 324.56 89.651C324.552 94.6532 325.532 99.6076 327.446 104.229C329.36 108.851 332.168 113.049 335.71 116.581L338.43 119.291C358.166 114.602 378.839 115.742 397.94 122.571C411.22 127.315 423.398 134.704 433.74 144.291H433.68Z" fill="#FEAA3A"/>
<path fill-rule="evenodd" clip-rule="evenodd" d="M362.59 453.04C478.69 453.04 572.82 476.88 572.82 506.29C572.82 535.7 478.69 559.55 362.59 559.55C246.49 559.55 152.37 535.71 152.37 506.29C152.37 476.87 246.49 453.04 362.59 453.04ZM362.59 481.94C415.68 481.94 458.71 492.85 458.71 506.29C458.71 519.73 415.71 530.64 362.59 530.64C309.47 530.64 266.47 519.74 266.47 506.29C266.47 492.84 309.47 481.94 362.59 481.94Z" fill="#384041"/>
<path fill-rule="evenodd" clip-rule="evenodd" d="M468.96 506.24C468.96 491.36 421.33 479.29 362.57 479.29C303.81 479.29 256.19 491.36 256.19 506.24C256.19 521.12 303.82 533.19 362.57 533.19C421.32 533.19 468.96 521.13 468.96 506.24Z" fill="#FBFBFB"/>
<path d="M6.59091 620.352H0L10.0426 591.261H17.9688L27.9972 620.352H21.4062L14.1193 597.909H13.892L6.59091 620.352ZM6.17898 608.918H21.7472V613.719H6.17898V608.918Z" fill="#384041"/>
<path d="M49.4673 591.261H55.6179V610.153C55.6179 612.275 55.1113 614.131 54.098 615.722C53.0942 617.313 51.688 618.553 49.8793 619.443C48.0705 620.324 45.9635 620.764 43.5582 620.764C41.1435 620.764 39.0317 620.324 37.223 619.443C35.4143 618.553 34.008 617.313 33.0043 615.722C32.0005 614.131 31.4986 612.275 31.4986 610.153V591.261H37.6491V609.628C37.6491 610.736 37.8906 611.721 38.3736 612.582C38.866 613.444 39.5573 614.121 40.4474 614.614C41.3376 615.106 42.3745 615.352 43.5582 615.352C44.7514 615.352 45.7884 615.106 46.669 614.614C47.5592 614.121 48.2457 613.444 48.7287 612.582C49.2211 611.721 49.4673 610.736 49.4673 609.628V591.261Z" fill="#384041"/>
<path d="M86.3459 601.446H80.1243C80.0107 600.641 79.7786 599.926 79.4283 599.301C79.0779 598.667 78.6281 598.127 78.0788 597.682C77.5296 597.237 76.8951 596.896 76.1754 596.659C75.4652 596.422 74.6934 596.304 73.8601 596.304C72.3544 596.304 71.0429 596.678 69.9254 597.426C68.808 598.165 67.9415 599.244 67.326 600.665C66.7105 602.076 66.4027 603.79 66.4027 605.807C66.4027 607.881 66.7105 609.623 67.326 611.034C67.951 612.445 68.8222 613.51 69.9396 614.23C71.0571 614.95 72.3497 615.31 73.8175 615.31C74.6413 615.31 75.4036 615.201 76.1044 614.983C76.8146 614.765 77.4444 614.448 77.9936 614.031C78.5428 613.605 78.9974 613.089 79.3572 612.483C79.7266 611.877 79.9822 611.186 80.1243 610.409L86.3459 610.438C86.1849 611.773 85.7824 613.061 85.1385 614.301C84.504 615.532 83.647 616.635 82.5675 617.611C81.4974 618.577 80.219 619.344 78.7322 619.912C77.255 620.471 75.5836 620.75 73.718 620.75C71.1233 620.75 68.8033 620.163 66.7578 618.989C64.7218 617.814 63.112 616.115 61.9283 613.889C60.754 611.664 60.1669 608.97 60.1669 605.807C60.1669 602.635 60.7635 599.936 61.9567 597.71C63.1499 595.485 64.7692 593.79 66.8146 592.625C68.8601 591.451 71.1612 590.864 73.718 590.864C75.4036 590.864 76.9661 591.1 78.4055 591.574C79.8544 592.047 81.1375 592.739 82.255 593.648C83.3724 594.547 84.2815 595.651 84.9822 596.957C85.6925 598.264 86.147 599.76 86.3459 601.446Z" fill="#384041"/>
<path d="M108.725 591.261H114.876V610.153C114.876 612.275 114.369 614.131 113.356 615.722C112.352 617.313 110.946 618.553 109.137 619.443C107.328 620.324 105.221 620.764 102.816 620.764C100.401 620.764 98.2895 620.324 96.4808 619.443C94.6721 618.553 93.2659 617.313 92.2621 615.722C91.2583 614.131 90.7564 612.275 90.7564 610.153V591.261H96.907V609.628C96.907 610.736 97.1484 611.721 97.6314 612.582C98.1238 613.444 98.8151 614.121 99.7053 614.614C100.595 615.106 101.632 615.352 102.816 615.352C104.009 615.352 105.046 615.106 105.927 614.614C106.817 614.121 107.504 613.444 107.987 612.582C108.479 611.721 108.725 610.736 108.725 609.628V591.261Z" fill="#384041"/>
<path d="M144.268 591.261V620.352H138.956L126.3 602.043H126.087V620.352H119.936V591.261H125.334L137.891 609.557H138.146V591.261H144.268Z" fill="#384041"/>
<path d="M183.196 620.366V591.276H202.798V596.347H189.347V603.278H201.79V608.349H189.347V615.295H202.855V620.366H183.196ZM190.866 588.463L193.878 582H199.474L195.142 588.463H190.866Z" fill="#384041"/>
<path d="M206.58 596.347V591.276H230.472V596.347H221.566V620.366H215.486V596.347H206.58Z" fill="#384041"/>
<path d="M235.866 620.366H229.275L239.318 591.276H247.244L257.273 620.366H250.682L243.395 597.923H243.168L235.866 620.366ZM235.454 608.932H251.023V613.733H235.454V608.932Z" fill="#384041"/>
<path d="M260.774 620.366V591.276H272.422C274.562 591.276 276.347 591.593 277.777 592.227C279.207 592.862 280.282 593.742 281.001 594.869C281.721 595.987 282.081 597.275 282.081 598.733C282.081 599.869 281.854 600.868 281.399 601.73C280.945 602.582 280.32 603.283 279.524 603.832C278.738 604.372 277.839 604.756 276.825 604.983V605.267C277.933 605.314 278.97 605.627 279.936 606.205C280.911 606.782 281.702 607.592 282.308 608.634C282.914 609.666 283.217 610.897 283.217 612.327C283.217 613.87 282.834 615.248 282.067 616.46C281.309 617.663 280.187 618.615 278.7 619.315C277.214 620.016 275.381 620.366 273.203 620.366H260.774ZM266.925 615.338H271.939C273.653 615.338 274.903 615.011 275.689 614.358C276.475 613.695 276.868 612.814 276.868 611.716C276.868 610.911 276.674 610.201 276.286 609.585C275.897 608.97 275.343 608.487 274.624 608.136C273.913 607.786 273.066 607.611 272.081 607.611H266.925V615.338ZM266.925 603.449H271.484C272.327 603.449 273.075 603.302 273.729 603.009C274.392 602.706 274.912 602.279 275.291 601.73C275.679 601.181 275.874 600.523 275.874 599.756C275.874 598.705 275.5 597.857 274.751 597.213C274.013 596.569 272.962 596.247 271.598 596.247H266.925V603.449Z" fill="#384041"/>
<path d="M287.219 620.366V591.276H293.37V615.295H305.842V620.366H287.219Z" fill="#384041"/>
<path d="M316.065 591.276V620.366H309.915V591.276H316.065Z" fill="#384041"/>
<path d="M336.907 599.642C336.793 598.496 336.306 597.606 335.444 596.972C334.582 596.337 333.413 596.02 331.935 596.02C330.932 596.02 330.084 596.162 329.393 596.446C328.701 596.721 328.171 597.104 327.802 597.597C327.442 598.089 327.262 598.648 327.262 599.273C327.243 599.794 327.352 600.248 327.589 600.636C327.835 601.025 328.171 601.361 328.597 601.645C329.023 601.92 329.516 602.161 330.075 602.369C330.633 602.568 331.23 602.739 331.864 602.881L334.478 603.506C335.747 603.79 336.912 604.169 337.972 604.642C339.033 605.116 339.951 605.698 340.728 606.389C341.504 607.081 342.106 607.895 342.532 608.832C342.968 609.77 343.19 610.845 343.2 612.057C343.19 613.837 342.736 615.381 341.836 616.688C340.946 617.985 339.658 618.993 337.972 619.713C336.296 620.423 334.274 620.778 331.907 620.778C329.558 620.778 327.513 620.419 325.771 619.699C324.038 618.979 322.683 617.914 321.708 616.503C320.742 615.082 320.236 613.326 320.188 611.233H326.14C326.206 612.208 326.486 613.023 326.978 613.676C327.48 614.32 328.148 614.808 328.981 615.139C329.824 615.461 330.775 615.622 331.836 615.622C332.878 615.622 333.782 615.471 334.549 615.168C335.326 614.865 335.927 614.443 336.353 613.903C336.779 613.364 336.992 612.743 336.992 612.043C336.992 611.389 336.798 610.84 336.41 610.395C336.031 609.95 335.472 609.571 334.734 609.259C334.004 608.946 333.11 608.662 332.049 608.406L328.881 607.611C326.429 607.014 324.492 606.081 323.072 604.812C321.651 603.544 320.946 601.834 320.955 599.685C320.946 597.923 321.415 596.384 322.362 595.068C323.318 593.752 324.629 592.724 326.296 591.986C327.963 591.247 329.857 590.878 331.978 590.878C334.137 590.878 336.022 591.247 337.631 591.986C339.251 592.724 340.51 593.752 341.41 595.068C342.309 596.384 342.773 597.909 342.802 599.642H336.907Z" fill="#384041"/>
<path d="M363.118 599.642C363.004 598.496 362.517 597.606 361.655 596.972C360.793 596.337 359.624 596.02 358.146 596.02C357.143 596.02 356.295 596.162 355.604 596.446C354.912 596.721 354.382 597.104 354.013 597.597C353.653 598.089 353.473 598.648 353.473 599.273C353.454 599.794 353.563 600.248 353.8 600.636C354.046 601.025 354.382 601.361 354.808 601.645C355.234 601.92 355.727 602.161 356.286 602.369C356.844 602.568 357.441 602.739 358.075 602.881L360.689 603.506C361.958 603.79 363.123 604.169 364.183 604.642C365.244 605.116 366.162 605.698 366.939 606.389C367.715 607.081 368.317 607.895 368.743 608.832C369.178 609.77 369.401 610.845 369.411 612.057C369.401 613.837 368.946 615.381 368.047 616.688C367.157 617.985 365.869 618.993 364.183 619.713C362.507 620.423 360.485 620.778 358.118 620.778C355.769 620.778 353.724 620.419 351.982 619.699C350.249 618.979 348.894 617.914 347.919 616.503C346.953 615.082 346.446 613.326 346.399 611.233H352.351C352.417 612.208 352.696 613.023 353.189 613.676C353.691 614.32 354.358 614.808 355.192 615.139C356.035 615.461 356.986 615.622 358.047 615.622C359.089 615.622 359.993 615.471 360.76 615.168C361.536 614.865 362.138 614.443 362.564 613.903C362.99 613.364 363.203 612.743 363.203 612.043C363.203 611.389 363.009 610.84 362.621 610.395C362.242 609.95 361.683 609.571 360.945 609.259C360.215 608.946 359.321 608.662 358.26 608.406L355.092 607.611C352.64 607.014 350.703 606.081 349.283 604.812C347.862 603.544 347.157 601.834 347.166 599.685C347.157 597.923 347.625 596.384 348.572 595.068C349.529 593.752 350.84 592.724 352.507 591.986C354.174 591.247 356.068 590.878 358.189 590.878C360.348 590.878 362.232 591.247 363.842 591.986C365.462 592.724 366.721 593.752 367.621 595.068C368.52 596.384 368.984 597.909 369.013 599.642H363.118Z" fill="#384041"/>
<path d="M373.548 620.366V591.276H393.15V596.347H379.698V603.278H392.141V608.349H379.698V615.295H393.207V620.366H373.548Z" fill="#384041"/>
<path d="M398.04 591.276H405.625L413.636 610.821H413.977L421.989 591.276H429.574V620.366H423.608V601.432H423.366L415.838 620.224H411.776L404.247 601.361H404.006V620.366H398.04V591.276Z" fill="#384041"/>
<path d="M434.641 620.366V591.276H454.244V596.347H440.792V603.278H453.235V608.349H440.792V615.295H454.3V620.366H434.641Z" fill="#384041"/>
<path d="M483.466 591.276V620.366H478.153L465.497 602.057H465.284V620.366H459.133V591.276H464.531L477.088 609.571H477.344V591.276H483.466Z" fill="#384041"/>
<path d="M487.44 596.347V591.276H511.332V596.347H502.425V620.366H496.346V596.347H487.44Z" fill="#384041"/>
<path d="M531.048 599.642C530.934 598.496 530.446 597.606 529.584 596.972C528.723 596.337 527.553 596.02 526.076 596.02C525.072 596.02 524.225 596.162 523.533 596.446C522.842 596.721 522.312 597.104 521.942 597.597C521.582 598.089 521.403 598.648 521.403 599.273C521.384 599.794 521.492 600.248 521.729 600.636C521.975 601.025 522.312 601.361 522.738 601.645C523.164 601.92 523.656 602.161 524.215 602.369C524.774 602.568 525.37 602.739 526.005 602.881L528.618 603.506C529.887 603.79 531.052 604.169 532.113 604.642C533.173 605.116 534.092 605.698 534.868 606.389C535.645 607.081 536.246 607.895 536.673 608.832C537.108 609.77 537.331 610.845 537.34 612.057C537.331 613.837 536.876 615.381 535.977 616.688C535.086 617.985 533.798 618.993 532.113 619.713C530.437 620.423 528.415 620.778 526.047 620.778C523.699 620.778 521.653 620.419 519.911 619.699C518.178 618.979 516.824 617.914 515.849 616.503C514.883 615.082 514.376 613.326 514.329 611.233H520.28C520.347 612.208 520.626 613.023 521.118 613.676C521.62 614.32 522.288 614.808 523.121 615.139C523.964 615.461 524.916 615.622 525.976 615.622C527.018 615.622 527.922 615.471 528.69 615.168C529.466 614.865 530.067 614.443 530.493 613.903C530.92 613.364 531.133 612.743 531.133 612.043C531.133 611.389 530.939 610.84 530.55 610.395C530.172 609.95 529.613 609.571 528.874 609.259C528.145 608.946 527.25 608.662 526.19 608.406L523.022 607.611C520.569 607.014 518.633 606.081 517.212 604.812C515.792 603.544 515.086 601.834 515.096 599.685C515.086 597.923 515.555 596.384 516.502 595.068C517.458 593.752 518.77 592.724 520.437 591.986C522.103 591.247 523.997 590.878 526.118 590.878C528.278 590.878 530.162 591.247 531.772 591.986C533.391 592.724 534.651 593.752 535.55 595.068C536.45 596.384 536.914 597.909 536.942 599.642H531.048Z" fill="#384041"/>
<path d="M549.627 596.347V591.276H573.519V596.347H564.613V620.366H558.533V596.347H549.627Z" fill="#384041"/>
<path d="M577.454 620.366V591.276H588.931C591.128 591.276 593.003 591.669 594.556 592.455C596.118 593.231 597.307 594.334 598.121 595.764C598.945 597.185 599.357 598.856 599.357 600.778C599.357 602.71 598.94 604.372 598.107 605.764C597.274 607.147 596.066 608.207 594.485 608.946C592.913 609.685 591.01 610.054 588.775 610.054H581.09V605.111H587.78C588.955 605.111 589.93 604.95 590.707 604.628C591.483 604.306 592.061 603.823 592.44 603.179C592.828 602.535 593.022 601.735 593.022 600.778C593.022 599.812 592.828 598.998 592.44 598.335C592.061 597.672 591.478 597.17 590.692 596.83C589.916 596.479 588.936 596.304 587.752 596.304H583.604V620.366H577.454ZM593.164 607.128L600.394 620.366H593.604L586.53 607.128H593.164Z" fill="#384041"/>
<path d="M630.437 605.821C630.437 608.993 629.835 611.692 628.633 613.918C627.44 616.143 625.811 617.843 623.746 619.017C621.691 620.182 619.381 620.764 616.815 620.764C614.229 620.764 611.909 620.177 609.854 619.003C607.799 617.829 606.175 616.129 604.982 613.903C603.789 611.678 603.192 608.984 603.192 605.821C603.192 602.649 603.789 599.95 604.982 597.724C606.175 595.499 607.799 593.804 609.854 592.639C611.909 591.465 614.229 590.878 616.815 590.878C619.381 590.878 621.691 591.465 623.746 592.639C625.811 593.804 627.44 595.499 628.633 597.724C629.835 599.95 630.437 602.649 630.437 605.821ZM624.201 605.821C624.201 603.766 623.893 602.033 623.278 600.622C622.672 599.211 621.815 598.141 620.707 597.412C619.599 596.683 618.301 596.318 616.815 596.318C615.328 596.318 614.031 596.683 612.923 597.412C611.815 598.141 610.953 599.211 610.337 600.622C609.731 602.033 609.428 603.766 609.428 605.821C609.428 607.876 609.731 609.609 610.337 611.02C610.953 612.431 611.815 613.501 612.923 614.23C614.031 614.959 615.328 615.324 616.815 615.324C618.301 615.324 619.599 614.959 620.707 614.23C621.815 613.501 622.672 612.431 623.278 611.02C623.893 609.609 624.201 607.876 624.201 605.821Z" fill="#384041"/>
<path d="M652.962 591.276H659.112V610.168C659.112 612.289 658.605 614.145 657.592 615.736C656.588 617.327 655.182 618.567 653.373 619.457C651.565 620.338 649.458 620.778 647.052 620.778C644.638 620.778 642.526 620.338 640.717 619.457C638.909 618.567 637.502 617.327 636.498 615.736C635.495 614.145 634.993 612.289 634.993 610.168V591.276H641.143V609.642C641.143 610.75 641.385 611.735 641.868 612.597C642.36 613.458 643.052 614.135 643.942 614.628C644.832 615.12 645.869 615.366 647.052 615.366C648.246 615.366 649.283 615.12 650.163 614.628C651.053 614.135 651.74 613.458 652.223 612.597C652.715 611.735 652.962 610.75 652.962 609.642V591.276Z" fill="#384041"/>
<path d="M669.428 591.276L676.459 613.378H676.729L683.775 591.276H690.593L680.565 620.366H672.638L662.596 591.276H669.428Z" fill="#384041"/>
<path d="M694.094 620.366V591.276H713.697V596.347H700.245V603.278H712.688V608.349H700.245V615.295H713.753V620.366H694.094ZM701.765 588.463L704.776 582H710.373L706.04 588.463H701.765Z" fill="#384041"/>
<path d="M735.118 600.04C735.005 598.894 734.517 598.004 733.655 597.369C732.793 596.735 731.624 596.418 730.147 596.418C729.143 596.418 728.295 596.56 727.604 596.844C726.913 597.118 726.382 597.502 726.013 597.994C725.653 598.487 725.473 599.045 725.473 599.67C725.454 600.191 725.563 600.646 725.8 601.034C726.046 601.422 726.382 601.759 726.809 602.043C727.235 602.317 727.727 602.559 728.286 602.767C728.845 602.966 729.441 603.136 730.076 603.278L732.689 603.903C733.958 604.187 735.123 604.566 736.184 605.04C737.244 605.513 738.163 606.096 738.939 606.787C739.716 607.478 740.317 608.293 740.743 609.23C741.179 610.168 741.401 611.242 741.411 612.455C741.401 614.235 740.947 615.778 740.047 617.085C739.157 618.383 737.869 619.391 736.184 620.111C734.507 620.821 732.486 621.176 730.118 621.176C727.77 621.176 725.724 620.816 723.982 620.097C722.249 619.377 720.895 618.312 719.919 616.901C718.953 615.48 718.447 613.723 718.399 611.631H724.351C724.417 612.606 724.697 613.42 725.189 614.074C725.691 614.718 726.359 615.205 727.192 615.537C728.035 615.859 728.987 616.02 730.047 616.02C731.089 616.02 731.993 615.868 732.76 615.565C733.537 615.262 734.138 614.841 734.564 614.301C734.99 613.761 735.203 613.141 735.203 612.44C735.203 611.787 735.009 611.238 734.621 610.793C734.242 610.348 733.684 609.969 732.945 609.656C732.216 609.344 731.321 609.06 730.26 608.804L727.093 608.008C724.64 607.412 722.703 606.479 721.283 605.21C719.863 603.941 719.157 602.232 719.167 600.082C719.157 598.321 719.626 596.782 720.573 595.466C721.529 594.15 722.841 593.122 724.507 592.383C726.174 591.645 728.068 591.276 730.189 591.276C732.348 591.276 734.233 591.645 735.843 592.383C737.462 593.122 738.721 594.15 739.621 595.466C740.521 596.782 740.985 598.307 741.013 600.04H735.118Z" fill="#384041"/>
<path d="M163.049 599.642C162.935 598.496 162.448 597.606 161.586 596.972C160.724 596.337 159.555 596.02 158.077 596.02C157.074 596.02 156.226 596.162 155.535 596.446C154.843 596.721 154.313 597.104 153.944 597.597C153.584 598.089 153.404 598.648 153.404 599.273C153.385 599.794 153.494 600.248 153.731 600.636C153.977 601.025 154.313 601.361 154.739 601.645C155.165 601.92 155.658 602.161 156.217 602.369C156.775 602.568 157.372 602.739 158.006 602.881L160.62 603.506C161.889 603.79 163.054 604.169 164.114 604.642C165.175 605.116 166.093 605.698 166.87 606.389C167.646 607.081 168.248 607.895 168.674 608.832C169.11 609.77 169.332 610.845 169.342 612.057C169.332 613.837 168.878 615.381 167.978 616.688C167.088 617.985 165.8 618.993 164.114 619.713C162.438 620.423 160.416 620.778 158.049 620.778C155.7 620.778 153.655 620.419 151.913 619.699C150.18 618.979 148.826 617.914 147.85 616.503C146.884 615.082 146.378 613.326 146.33 611.233H152.282C152.348 612.208 152.628 613.023 153.12 613.676C153.622 614.32 154.29 614.808 155.123 615.139C155.966 615.461 156.917 615.622 157.978 615.622C159.02 615.622 159.924 615.471 160.691 615.168C161.468 614.865 162.069 614.443 162.495 613.903C162.921 613.364 163.134 612.743 163.134 612.043C163.134 611.389 162.94 610.84 162.552 610.395C162.173 609.95 161.614 609.571 160.876 609.259C160.146 608.946 159.252 608.662 158.191 608.406L155.023 607.611C152.571 607.014 150.634 606.081 149.214 604.812C147.793 603.544 147.088 601.834 147.097 599.685C147.088 597.923 147.557 596.384 148.504 595.068C149.46 593.752 150.771 592.724 152.438 591.986C154.105 591.247 155.999 590.878 158.12 590.878C160.279 590.878 162.164 591.247 163.773 591.986C165.393 592.724 166.652 593.752 167.552 595.068C168.451 596.384 168.915 597.909 168.944 599.642H163.049Z" fill="#384041"/>
</svg>
