<svg width="34" height="23" viewBox="0 0 34 23" fill="none" xmlns="http://www.w3.org/2000/svg">
<g clip-path="url(#clip0_237_209)">
<path fill-rule="evenodd" clip-rule="evenodd" d="M10.6812 3.87842V19.5297H0C0 12.4399 4.42414 6.36663 10.6812 3.87842V3.87842Z" fill="#656B6C"/>
<path fill-rule="evenodd" clip-rule="evenodd" d="M11.9851 3.42072C13.6096 2.92451 15.3001 2.67307 16.9999 2.67481C18.6997 2.67305 20.3901 2.9245 22.0145 3.42072V19.5299H11.9851V3.42072Z" fill="white"/>
<path fill-rule="evenodd" clip-rule="evenodd" d="M23.3186 3.87842C29.5757 6.36663 33.9991 12.4399 33.9991 19.5297H23.3186V3.87842Z" fill="#384041"/>
<path fill-rule="evenodd" clip-rule="evenodd" d="M15.8666 1.68558V3.79772H18.1332V1.68558H18.5706C18.7298 1.51472 18.8136 1.3213 18.8136 1.12372C18.8136 0.503575 18.001 0 17.0002 0C15.9995 0 15.1869 0.503055 15.1869 1.12372C15.1869 1.32095 15.2707 1.51472 15.4299 1.68558H15.8666Z" fill="white"/>
<path fill-rule="evenodd" clip-rule="evenodd" d="M33.9992 21.3143C33.9991 21.1653 33.9394 21.0224 33.8331 20.9171C33.7269 20.8117 33.5828 20.7525 33.4325 20.7524H0.566174C0.415899 20.7525 0.271795 20.8117 0.165535 20.9171C0.059275 21.0224 -0.000441907 21.1653 -0.000488281 21.3143V22.4384C-0.000302935 22.5873 0.0594659 22.7301 0.165706 22.8353C0.271946 22.9406 0.415974 22.9998 0.566174 22.9999H33.4332C33.5833 22.9996 33.7271 22.9403 33.8332 22.8351C33.9393 22.7298 33.999 22.5872 33.9992 22.4384V21.3143Z" fill="white"/>
<path fill-rule="evenodd" clip-rule="evenodd" d="M6.63585 12.5196C6.07793 12.274 5.66663 11.4366 5.66663 10.4425C5.66663 9.25581 6.25271 8.2915 6.97455 8.2915C7.6964 8.2915 8.28248 9.25494 8.28248 10.4425C8.28248 11.4366 7.871 12.274 7.31308 12.5196C7.26899 13.1472 7.22561 13.9009 7.22561 14.4036C7.22561 15.8156 7.40161 19.8668 7.40161 19.8668H6.54872C6.54872 19.8668 6.72437 15.8156 6.72437 14.4036C6.72437 13.9006 6.68029 13.1472 6.6369 12.5196H6.63585Z" fill="#1A1A1A"/>
<path fill-rule="evenodd" clip-rule="evenodd" d="M26.6177 12.1622C26.6665 12.8271 26.7227 13.7095 26.7227 14.2748C26.7221 15.6905 26.5463 19.7545 26.5463 19.7545H27.4016C27.4016 19.7545 27.2244 15.6905 27.2244 14.2748C27.2244 13.7095 27.2802 12.8271 27.3294 12.1622C27.6268 11.8536 28.0166 11.3932 28.1042 11.022C28.2699 10.3198 27.9678 8.29248 27.9678 8.29248H27.7885L27.6756 11.1465H27.526L27.4109 8.29248H27.1609L27.0481 11.1465H26.8999L26.7848 8.29248H26.5348L26.4219 11.1465H26.2737L26.1586 8.29248H25.9795C25.9795 8.29248 25.6772 10.3198 25.8428 11.022C25.9303 11.3932 26.3201 11.8536 26.6177 12.1622Z" fill="#1A1A1A"/>
<path fill-rule="evenodd" clip-rule="evenodd" d="M16.7189 14.3392C15.3496 14.1299 14.2799 12.4068 14.2799 10.3148C14.2799 9.60462 14.4055 8.90693 14.6443 8.29199H19.3557C19.5945 8.90693 19.7202 9.60462 19.7202 10.3148C19.7202 12.4063 18.6505 14.1293 17.2812 14.3392C17.2637 15.0555 17.2495 15.7937 17.2495 16.271C17.2495 16.786 17.2577 17.5536 17.267 18.2018L18.5875 19.6416H15.4143L16.6459 18.2983C16.6984 17.6266 16.7509 16.8075 16.7509 16.2704C16.7509 15.7932 16.7366 15.055 16.7192 14.3387L16.7189 14.3392Z" fill="#1A1A1A"/>
</g>
<defs>
<clipPath id="clip0_237_209">
<rect width="34" height="23" fill="white"/>
</clipPath>
</defs>
</svg>
