<svg width="680" height="745" viewBox="0 0 680 745" fill="none" xmlns="http://www.w3.org/2000/svg">
<g clip-path="url(#clip0_251_456)">
<path fill-rule="evenodd" clip-rule="evenodd" d="M679.2 415.85C515.54 432.27 196.94 476.7 79.98 634.38L169.8 686.21L339.6 784.21L509.4 686.21L679.2 588.21V415.85Z" fill="#384041"/>
<path fill-rule="evenodd" clip-rule="evenodd" d="M394.6 164.27V214.03H344.84V164.27H394.6ZM344.84 103.96H394.6V153.71H344.84V103.96ZM334.28 164.27V214.03H284.6V164.27H334.28ZM284.6 103.96H334.36V153.71H284.6V103.96ZM292.4 323.54C419.72 304.17 550.52 296.87 679.24 297.66V196.06L549.84 121.35V78.35H505.12V95.49L339.6 0L169.8 98L0 196V400.07C91.24 361.21 195.47 338.27 292.36 323.54H292.4Z" fill="#384041"/>
<path fill-rule="evenodd" clip-rule="evenodd" d="M490.14 370.38L487.89 365.76C508.497 364.56 529.35 363.85 550.45 363.63C529.89 365.63 509.787 367.88 490.14 370.38ZM152.71 456.21C115.61 472.577 82.0999 490.87 52.1799 511.09L39.4 488.49C72.2675 470.771 106.108 454.919 140.76 441.01L152.71 456.21ZM264.6 415.75C235.98 424.15 208.893 433.373 183.34 443.42L170.57 429.56C197.71 419.653 225.407 410.86 253.66 403.18L264.6 415.75ZM449.19 376.06C437.517 377.82 426.02 379.667 414.7 381.6L409.32 372.84C421.593 371.327 433.953 369.993 446.4 368.84L449.19 376.06ZM679.19 344.25C413.74 342.58 158.19 377.87 -0.0100098 451.1V588.21L39.26 610.88C130.347 482.88 343.657 402.27 679.19 369.05V344.25ZM289.97 408.62L281.97 395.88C308.637 389.427 335.757 383.937 363.33 379.41L371.25 389.66C342.983 395.36 315.893 401.68 289.98 408.62H289.97Z" fill="#384041"/>
</g>
<defs>
<clipPath id="clip0_251_456">
<rect width="679.2" height="784.27" fill="white"/>
</clipPath>
</defs>
</svg>
