<svg width="1379" height="1024" viewBox="0 0 1379 1024" fill="none" xmlns="http://www.w3.org/2000/svg">
<g clip-path="url(#clip0_250_454)">
<path d="M1142.89 516.157C1155.04 540.046 1168.37 564.602 1164.3 571.343C1164.09 573.692 1163.1 575.892 1161.48 577.577C1158.71 580.521 1154.8 581.966 1151.9 584.182C1150.36 585.403 1139.62 572.707 1134.6 569.427C1124.99 563.053 1129.21 573.728 1122.76 571.72C1100.84 560.673 1058.15 516.792 1067.7 551.257C1057.78 537.968 1061.71 534.944 1060.94 535.546C1038.06 518.232 1033.45 528.728 1044.44 555.123C1029.49 531.802 1026.84 519.873 1015.99 500.329C1001.37 490.673 999.877 498.754 998.438 506.825C995.219 500.108 991.315 493.748 986.791 487.851C986.272 502.178 961.028 486.717 974.53 518.136C976.113 516.906 964.609 504.855 969.5 508.07C974.669 524.996 977.456 543.713 1005.5 577.961C1000.04 572.946 994.843 567.65 989.922 562.093C993.226 566.521 999.842 575.374 1002.36 580.416L998.231 576.601C1014.63 591.884 1023.48 592.07 1039.08 607.961C1063.67 630.887 1070.71 660.308 1070.19 669.028C1069.75 672.645 1068.19 674.887 1065.31 675.289C1062.43 675.692 1058.29 674.423 1052.63 670.991C1047.7 667.539 1042.34 663.428 1036.66 658.729C1030.98 654.031 1024.95 648.764 1018.62 642.897C1011.62 636.521 1004.6 630.102 997.767 623.865L977.928 606.081C981.24 610.507 984.544 614.935 988.646 618.755C969.732 598.439 947.358 566.839 932.684 557.194C940.092 565.45 943.404 569.876 950.019 578.721C923.657 550.165 914.047 550.579 918.428 568.119C920.815 566.308 923.97 563.878 926.354 562.049L924.813 563.27C942.908 584.18 959.568 611.505 974.198 638.524C979.021 647.487 983.624 656.422 987.903 664.995C998.15 688.042 1017.37 722.063 1004.42 718.057C977.581 703.828 954.08 694.002 948.78 711.96C947.339 720.022 911.067 678.193 896.377 668.56C891.479 665.355 889.109 667.163 890.836 672.81L900.77 686.07C902.506 691.715 896.81 689.118 895.231 690.329C878.182 682.51 841.067 641.288 838.636 656.902C838.464 660.108 839.824 665.621 842.617 673.569C840.138 669.946 833.513 661.094 831.016 656.058C829.475 657.279 835.274 666.734 841.906 675.576C836.062 666.12 829.439 657.277 823.603 647.82C826.117 652.853 825.328 653.459 827.853 658.499C823.894 652.184 820.261 645.665 816.969 638.971C818.902 644.186 820.401 649.554 821.45 655.018C826.476 666.566 823.286 669.003 817.617 666.409L801.414 663.335C798.756 662.839 796.089 662.344 793.32 661.742C766.652 649.887 734.913 632.518 726.395 646.077C728.761 644.252 731.121 642.392 736.813 645.018C729.551 643.647 723.074 641.653 725.764 653.548C723.232 648.518 724.02 647.904 724.818 647.297C724.046 647.899 722.443 649.123 724.975 654.153C739.988 677.46 751.326 682.656 760.371 689.681C728.392 667.826 737.333 701.624 768.218 753.888C774.388 764.331 781.436 775.532 789.135 787.074C830.984 851.589 802.767 845.455 768.141 809.362C756.596 797.328 747.587 790.32 741.116 788.337C734.025 793.811 717.747 785.427 713.984 795.314C711.618 797.139 729.819 817.999 734.932 828.039C729.064 818.598 720.84 810.988 720.059 811.592C719.444 819.05 754.267 861.982 748.587 859.418C733.896 849.822 699.673 799.444 686.733 795.744C682.006 792.814 678.227 791.291 675.378 791.042C672.528 790.793 670.642 791.857 669.556 794.04C668.47 796.223 668.236 799.479 668.687 803.685C653.611 821.065 707.986 932.69 636.388 869.303C647.785 874.479 682.66 917.355 683.271 909.916C684.107 881.331 670.083 836.315 683.485 823.773C685.451 822.884 688.473 823.279 693.104 825.52C689.491 825.344 687.757 827.068 687.079 829.941C681.79 855.049 694.242 901.311 697.528 933.685C701.198 951.778 639.088 881.023 619.219 873.895C613.28 870.365 607.939 867.887 603.357 866.771C595.29 866.018 609.601 889.876 624.692 913.131C659.815 962.826 697.443 989.605 721.966 1033.52C738.824 1062.39 709.984 1035.78 698.418 1028.09C693.258 1023.69 687.793 1018.79 682.254 1013.75C671.163 1003.69 659.81 993.087 649.901 984.402C657.361 992.612 664.032 1001.43 672.274 1009.03C672.855 1015.56 674.248 1023.17 672.883 1026.89C671.518 1030.61 667.332 1030.39 657.245 1021.49C621.024 985.771 588.254 934.271 554.891 890.207L561.562 899.022C557.438 895.224 553.314 891.427 555.861 896.444C563.518 911.483 580.965 932.906 591.974 952.345C586.847 942.326 577.648 928.499 571.757 919.08C577.648 928.499 582.723 938.528 588.639 947.942C585.305 943.539 586.075 942.928 582.74 938.525C589.403 947.342 598.654 961.158 600.465 966.734C595.553 958.914 590.236 951.363 584.536 944.113C590.45 953.517 597.121 962.332 603.038 971.746C602.747 964.935 588.617 947.919 584.303 937.281C586.859 942.296 590.194 946.7 592.75 951.715C590.025 946.706 587.727 941.472 585.882 936.07C584.341 937.291 586.07 942.902 592.75 951.715C589.406 947.314 590.194 946.7 586.859 942.296C589.413 947.303 596.076 956.12 598.649 961.132C596.857 955.516 594.335 950.494 605.122 963.108C598.92 956.291 593.086 949.138 587.647 941.682C603.554 964.326 621.001 985.749 635.353 1009.59C626.049 995.82 613.637 977.483 604.333 963.714C622.75 991.373 640.513 1019.59 659.028 1047.2C639.737 1020.22 628.417 993.958 611.996 978.743C599.701 967.334 620.774 999.97 625.192 1010.6C627.466 1008.8 606.378 976.175 617.19 988.784C655.109 1029.25 680.462 1086.65 683.378 1105.69C684.031 1110.1 683.643 1113.22 682.37 1115.14C675.812 1118.48 665.711 1119.43 635.855 1086.65C647.426 1098.64 655.645 1106.27 664.6 1113.24C655.64 1106.24 642.566 1095.44 643.312 1094.85C622.534 1054.93 624.937 1038.96 621.587 1016.98C619.791 1009.69 617.424 1002.54 614.509 995.626C604.835 972.581 586.248 943.693 548.129 902.501C497.869 848.325 461.708 820.885 432.378 805.781C426.516 802.763 420.923 800.235 415.55 798.081C370.641 775.087 313.631 735.602 356.436 828.502C365.269 849.691 390.765 885.883 415.048 912.079C423.671 921.698 432.322 931.102 440.961 940.444C466.869 968.392 492.707 995.509 517.851 1024.94C550.514 1062.51 570.886 1060.52 571.067 1042.19C571.931 1039.09 572.051 1035.14 571.217 1030.24C568.69 1015.53 557.519 992.257 532.962 956.729C520.332 938.555 512.216 934.385 504.732 933.25C500.987 932.683 497.425 932.852 493.613 932.353C488.17 928.713 485.868 930.544 480.975 927.365C493.38 938.697 507.294 948.833 516.607 962.6C543.772 1004.51 540.941 1027.84 512.733 1000.82C492.834 981.326 467.27 955.735 441.545 927.631C432.982 918.264 424.397 908.611 416.022 898.805C399.239 879.202 381.307 851.117 374.299 835.528C381.307 851.117 395.865 874.825 413.347 895.759C420.964 904.736 428.703 913.48 436.471 922.018C459.782 947.612 483.271 971.308 504.489 993.283C539.395 1029.08 521.603 986.83 527.375 978.871C527.736 975.009 528.171 971.113 528.811 967.521C529.316 964.243 530.193 961.037 531.425 957.968C531.907 950.6 560.094 998.686 563.765 1009.86C564.274 1014.38 564.502 1018.92 564.448 1023.46C563.789 1045.03 565.861 1085.61 495.305 1000.52C552.375 1068.11 565.653 1050.6 569.174 1032.38C568.467 1027.04 567.13 1021.8 565.193 1016.77C560.698 1004.4 552.345 987.909 538.904 966.137C529.607 952.357 515.708 942.21 520.874 952.202C524.549 960.06 527.747 968.136 530.448 976.385C534.747 997.576 545.805 1031.05 516.878 1004.58C491.058 982.713 459.4 949.825 427.152 912.186C419.091 902.781 411.071 893.004 403.447 882.755C364.438 829.241 355.928 793.729 380.536 809.491C349.95 784.364 367.778 833.625 406.761 886.527C416.92 899.705 427.725 912.452 438.399 924.553C502.551 997.129 560.632 1048.2 526.003 972.153C522.016 962.739 517.541 953.543 512.598 944.603C504.056 930.225 520.303 938.497 529.567 952.338C554.892 989.355 566.651 1013.02 569.872 1027.89C570.95 1032.85 571.087 1036.83 570.465 1039.98C568.254 1055.53 557.629 1063.9 525.309 1033.09C492.751 1000.13 454.508 952.117 417.147 912.371C409.713 904.384 402.343 896.71 395.114 889.507C337.469 815.329 336.963 780.52 347.14 772.494C362.247 767.612 400.056 794.091 429.873 810.714C436.128 813.862 443.586 819.064 451.276 824.61C458.965 830.156 466.899 836.07 474.134 840.609C482.133 846.686 490.45 853.326 499.084 860.528C516.324 874.977 534.942 891.81 554.792 911.318C578.851 934.561 601.628 970.705 611.466 993.28C614.778 1000.79 616.586 1006.84 616.562 1010.42C612.877 1034.44 643.632 1101.67 615.874 1095.41C599.176 1045.24 587.504 977.041 547.692 931.032C514.466 892.492 485.007 866.746 460.19 850.962C454.463 847.292 448.544 843.943 442.459 840.929C417.624 836.562 373.279 808.192 390.415 858.011C392.726 856.179 384.179 841.82 389.881 844.362C384.958 841.208 396.889 859.951 385.259 848.025C376.696 812.56 417.901 843.394 436.881 845.831C442.176 847.774 447.699 850.052 453.494 852.784C482.366 866.464 517.283 891.694 560.839 941.787C552.344 927.381 534.866 905.983 525.866 899.003C504.205 885.596 480.095 869.423 457.871 856.194C452.315 852.878 446.881 849.764 441.677 846.903C413.582 832.775 376.749 812.559 388.703 852.397C399.567 843.832 419.756 849.014 439.893 854.244C444.335 855.745 448.685 857.517 452.918 859.552C475.472 870.352 502.22 891.287 533.427 928.247C586.843 991.679 598.609 1037.29 596.093 1069.1C595.882 1071.76 595.57 1074.33 595.176 1076.8C588.421 1095.96 601.884 1155.71 517.282 1060.58C548.153 1092.53 588.012 1131.5 582.774 1107.45C580.816 1130.11 518.503 1052.58 482.71 1017.47C462.741 998.036 463.366 1011.61 468.185 1028.93C470.139 1020.35 458.268 987.493 474.413 1009.94C520.991 1071.72 482.43 1059.91 475.896 1072.1L490.376 1060.68C487.667 1069.85 480.813 1075.26 468.426 1072.3C465.403 1072.08 462.282 1071.64 459.144 1071.21C459.424 1065.18 477.015 1086.16 474.522 1076.47C469.775 1074.46 465.761 1073.27 461.238 1070.99C456.715 1068.71 451.672 1065.45 444.903 1059.16C449.759 1066.96 458.189 1077.74 463.799 1084.94C454.553 1075.33 446.193 1064.89 438.823 1053.74C432.5 1044.34 427.007 1034.39 422.409 1024.01C425.296 1027.7 424.513 1028.3 427.39 1031.99C424.513 1028.3 422.409 1024.01 419.508 1020.29C419.329 1026.42 425.513 1037.9 432.122 1049.54C438.73 1061.17 445.821 1072.98 447.746 1080.18C438.527 1070 430.361 1053.2 418.051 1045.38C420.15 1049.64 428.578 1060.41 427.816 1061.02C421.158 1060.48 401.565 980.995 407.356 1036.48C413.487 1049.06 422.706 1059.24 428.837 1071.83C388.114 1016.75 380.805 1055.39 350.152 943.973C347.723 956.333 334.18 989.513 337.008 993.092C333.408 990.115 327.792 982.931 324.175 979.957C319.034 978.201 330.305 992.544 331.611 997.349C321.582 987.807 313.123 977.056 303.093 967.513C305.914 971.103 311.539 978.286 314.391 981.851C299.459 964.498 291.255 965.235 286.873 962.898C255.473 946.978 203.908 894.657 158.704 848.96L160.763 853.158C127.51 809.635 100.257 767.212 87.5747 736.526L98.4498 745.388C104.447 746.47 92.6706 726.687 98.6829 727.757C106.715 733.052 111.609 733.549 116.046 733.685C120.482 733.821 242.289 870.223 130.687 737.394C100.77 701.763 190.984 794.45 204.435 795.465C215.445 795.912 226.403 796.234 233.844 791.871C237.043 790.004 240.725 787.921 241.876 782.972C243.027 778.022 241.634 770.363 234.61 757.249C200.29 705.336 234.299 727.77 234.614 713.448C219.501 697.232 215.544 700.342 203.795 688.496C207.681 681.201 213.135 675.86 218.893 670.957L224.838 666.053C242.363 651.048 256.389 632.945 264.562 605.389C239.612 610.996 221.354 625.386 198.256 632.889C195.877 634.39 193.635 635.944 191.465 637.593C185.149 642.519 179.249 647.971 173.827 653.893C171.92 656.833 170.125 659.714 168.844 662.173C167.812 664.445 167.348 666.257 168.067 667.156C177.306 679.021 141.838 733.115 102.6 633.993C91.6038 606.237 95.7934 581.307 55.882 535.072C59.1243 531.834 63.4475 529.339 62.5646 521.24C55.612 513.727 48.8637 507.927 43.69 504.951C55.7908 511.919 63.1071 498.522 57.8521 483.904C50.9816 464.761 31.0106 440.334 11.4655 419.064C27.6721 439.13 6.8932 409.751 26.6779 431.717C28.2166 431.895 36.6594 440.714 38.0357 440.181C83.228 496.312 53.4708 455.341 41.4579 437.124C26.1803 414.716 50.5031 443.358 51.1656 441.333C71.343 464.574 66.4301 455.257 53.0653 434.96C53.4586 432.49 52.7965 428.653 54.3893 427.776C79.1715 449.028 104.053 464.599 76.9869 422.61C61.7667 399.427 57.0374 410.192 37.5805 387.505C19.1962 366.799 19.0033 369.728 18.2061 371.353C23.6317 380.993 21.1792 379.837 0.294734 353.596C-1.73116 351.853 -13.7025 336.044 -19.9978 325.908C-27.1697 307.88 -14.3266 321.859 -15.8418 318.622C-16.6948 316.269 -17.1825 315.805 -9.68052 322.543C-8.8709 317.717 -9.01441 318.773 -9.47193 308.097C-6.23045 307.947 -2.98502 308.388 0.110617 309.398C3.77935 310.598 8.11271 312.827 13.6072 316.855C18.0584 320.105 26.3548 326.218 34.7048 332.685C43.0549 339.151 51.4378 345.956 56.1137 350.577C86.6846 388.329 106.82 403.382 121.227 408.365C125.341 409.82 129.683 410.481 134.027 410.312C140.629 407.591 152.973 411.92 155.284 403.082C141.219 393.041 133.027 392.468 124.577 391.065C120.4 390.313 116.429 389.737 112.283 388.607C99.9546 385.147 86.0344 376.748 63.3061 341.903C66.6648 346.292 67.464 345.603 69.2347 348.115C62.004 338.923 55.5497 329.546 49.4668 320.149C51.5447 321.972 55.4786 323.818 58.8006 326.924C57.201 325.431 43.1549 300.938 42.8069 299.355C41.0759 291.528 47.9219 297.854 56.4914 305.402C63.1947 307.586 53.9863 288.645 72.7991 306.437C73.5837 303.825 75.6507 302.86 79.352 304.045C135.049 348.567 164.868 353.604 187.501 350.066C196.203 349.206 204.984 349.433 213.645 350.742C217.232 351.336 220.785 352.132 224.288 353.126C230.269 345.007 265.825 380.394 276.303 379.277C281.225 382.467 271.233 369.228 263.765 361.029C267.102 365.441 277.101 378.669 275.357 373.026C273.613 367.382 266.154 359.181 258.692 350.963C266.15 359.164 273.645 367.367 278.533 370.564C271.871 361.747 265.206 352.922 257.756 344.719C266.002 352.306 275.996 365.554 286.781 378.16C281.711 368.111 270.923 355.488 263.464 347.287C272.98 357.388 288.97 376.471 301.501 390.367C314.032 404.263 323.075 412.951 318.74 402.254C317.816 399.416 311.826 391.844 304.628 383.517C297.43 375.191 288.944 366.026 283.145 360.014C290.404 368.374 297.223 375.76 303.642 382.318C322.004 399.829 351.811 432.665 350.708 419.558C352.144 411.471 324.876 383.653 307.442 362.21C413.333 475.924 371.06 354.965 405.032 356.669C415.599 397.38 382.154 381.302 386.097 413.215C413.53 412.975 430.186 400.118 434.357 368.967L429.597 372.659C433.56 369.583 444.166 375.355 444.814 367.881C443.734 354.752 422.32 336.351 407.483 319.906C408.255 319.304 409.865 318.069 413.981 321.868C380.832 319.506 367.622 343.704 321.95 323.118C323.242 308.153 343.732 320.281 354.176 319.171C328.95 310.721 318.804 325.556 269.315 279.983C266.351 254.35 262.613 229.311 258.623 202.723C257.955 197.667 257.293 192.67 256.637 187.732C254.204 167.935 252.728 148.979 253.325 131.729C254.095 131.118 265.682 143.134 267.274 141.902C267.936 134.408 255.446 116.132 258.738 112.565C258.038 108.5 258.233 105.671 264.143 110.379C283.522 129.946 281.193 120.714 284.846 119.546C300.171 133.902 294.013 119.767 293.826 113.689C288.731 101.092 324.43 142.92 322.976 135.4C349.617 165.326 362.001 176.38 356.779 164.173C376.442 185.1 369.966 171.384 367.703 163.447C381.324 175.223 367.36 150.34 383.385 165.499C377.503 151.49 383.801 153.838 373.192 133.945C372.579 127.573 370.116 119.531 386.478 137.011C384.731 130.341 405.687 154.378 399.454 142.212C391.566 129.782 387.289 119.1 391.413 122.943C468.716 195.895 443.662 110.526 481.835 123.064C477.733 119.244 471.11 110.401 467.001 106.591C479.994 110.552 485.568 106.287 501.867 114.684C506.765 117.889 519.083 129.366 520.692 128.13C521.465 127.528 516.459 117.449 517.249 116.843C532.023 129.894 543.09 138.862 547.519 138.872C549.736 138.913 550.296 136.737 548.85 131.769C547.404 126.801 543.917 119.002 538.063 107.823C537.897 102.595 558.639 123.64 557.663 115.432C561.557 113.734 558.092 101.987 562.976 102.651C586.066 128.526 582.945 117.682 575.338 101.869C581.697 104.741 566.212 79.4129 559.961 70.1582C590.419 106.734 607.773 125.758 583.5 88.673C594.384 98.6414 588.557 85.8297 593.331 86.3514C583.844 68.639 558.713 34.9993 579.202 63.2562C563.23 42.7157 553.715 31.6516 555.227 32.0082C551.998 26.0115 557.954 31.0369 563.145 34.8455C568.335 38.654 572.757 41.2283 566.497 30.3399C585.54 51.693 558.345 27.8045 543.464 6.20664C532.614 -10.8203 536.745 -7.82373 543.645 -1.09972C550.545 5.62429 564.637 23.2475 569.052 27.8587C542.638 -8.31047 537.351 -12.4629 541.341 -5.23021C545.879 2.72704 515.988 -36.435 527.589 -23.4223C512.977 -44.6658 541.054 -13.7865 545.327 -10.6642C539.188 -19.9415 522.934 -43.0601 530.657 -32.7227C519.302 -49.8109 520.177 -50.5245 526.973 -41.7985C542.969 -21.272 561.226 6.51981 579.348 27.4328C576.834 22.3998 573.53 17.9723 574.328 17.3652C576.711 15.5367 581.732 25.6044 585.044 30.0302C589.944 33.2435 577.508 14.9209 581.61 18.7413C589.024 26.9875 596.43 35.2354 603.046 44.0888C596.43 35.2354 586.508 21.9458 579.9 13.0907C593.126 30.8079 593.002 23.936 601.205 31.5768L597.902 27.1493C602.003 30.9697 606.104 34.7814 609.409 39.2176C602.003 30.9697 587.183 14.4755 592.879 17.0729C598.575 19.6703 618.409 46.2426 625.701 47.6711C620.802 44.4578 610.881 31.1769 603.475 22.9289C601.757 17.2801 608.374 26.1335 611.677 30.561C609.968 24.9105 593.562 9.63756 595.946 7.80914C600.835 11.0154 609.047 18.6545 612.467 29.9556C586.821 -6.08764 569.247 -41.3602 578.921 -41.8143C578.249 -34.3265 589.079 -14.7966 599.127 5.37357C595.33 -26.5693 642.715 6.78109 698.742 69.5468C699.534 66.3512 721.862 93.9349 715.895 82.5962C727.373 95.0887 737.928 100.917 746.254 115.421C749.559 119.857 733.159 104.565 739.768 113.429C748.077 127.936 766.205 148.875 775.213 155.899C815.992 187.1 807.413 158.871 791.308 115.504C789.598 109.853 801.897 121.325 810.082 128.961C806.787 124.531 802.685 120.711 799.388 116.273C823.967 139.214 851.059 167.191 880.663 200.205L845.216 157.727C864.15 178.057 883.96 204.643 900.577 223.826C917.409 244.856 923.423 247.525 916.735 235.233C898.38 200.564 895.609 181.789 880.566 151.546C863.016 116.259 907.175 152.091 935.379 174.866C913.609 143.116 914.504 141.844 920.644 147.595C926.783 153.347 938.218 166.293 935.959 160.845C934.673 156.753 931.562 150.188 926.874 141.543C932.179 146.355 894.707 93.6736 929.767 138.521C900.056 96.3232 914.984 114.14 932.892 136.069C943.644 148.336 947.046 150.781 917.74 109.301C917.273 106.161 902.914 85.1935 898.285 78.9537C874.182 46.5869 876.332 51.1484 874.089 52.2578C829.81 -3.60427 843.432 18.6215 858.303 42.6839C881.581 78.0806 859.142 52.155 848.619 42.3403C839.265 34.097 866.398 74.918 844.998 50.4991C824.669 27.5257 835.232 46.0466 842.312 59.831C846.105 66.6675 854.414 81.1749 850.337 77.3492C831.564 63.8926 841.579 84.0331 835.222 88.8938C843.287 89.6749 838.976 72.1301 862.75 95.6858C867.641 98.9008 855.984 79.9658 860.12 83.7792C875.632 99.6697 891.896 108.12 901.144 128.888C859.276 84.3776 840.713 84.6175 851.796 117.909C857.056 141.722 893.347 190.481 907.654 221.327C906.07 222.557 897.02 211.844 885.513 196.65C892.4 205.248 901.981 218.753 909.371 226.967C906.417 226.912 897.855 216.754 889.672 207.628C846.056 157.111 810.889 128.352 767.274 78.2342C770.576 82.653 774.671 86.4839 777.975 90.9114C754.853 59.8994 725.793 12.5358 736.258 11.4851L743.797 26.6031C741.166 14.6966 747.661 16.7322 756.194 20.7077C760.617 22.6728 763.853 23.4157 764.901 21.613C764.883 17.919 764.401 14.2393 763.466 10.6634C762.071 6.07588 760.122 0.837163 758.027 -4.64423C755.931 -10.1256 753.729 -15.8217 751.81 -21.3118C749.311 -26.357 769.113 0.231023 769.001 -6.62511C770.481 -14.713 752.265 -42.5223 766.089 -34.2041C765.042 -39.7619 758.596 -52.4482 767.134 -44.8754C763.9 -53.8515 775.792 -42.5336 771.518 -52.8889C769.581 -62.4372 771.746 -66.4021 781.479 -59.9529C773.14 -77.7801 796.848 -52.2573 794.677 -61.0219C795.632 -63.9417 808.966 -50.0086 808.794 -53.9446C857.214 5.5755 825.993 -41.3315 839.897 -26.7053C856.863 -7.96576 828.388 -49.4505 878.974 16.4726C880.22 16.5743 879.518 14.4359 905.01 47.8295C919.903 67.0623 883.296 17.3677 930.821 81.204C922.661 70.2556 950.315 105.928 950.091 103.102C935.189 80.5632 943.311 87.9753 962.036 109.084C962.435 98.9257 990.734 128.079 983.921 111.16C993.793 116.663 1005.73 125.982 1018.02 136.311C1030.31 146.639 1043.05 157.839 1054.49 167.078C1061.52 170.648 1068.38 174.572 1084.86 192.32C1082.77 185.065 1106.67 213.648 1115.18 222.745C1121.11 228.294 1148.2 263.498 1143.94 257.902C1160.81 280.696 1168.53 291.533 1172.24 297.25C1175.95 302.968 1175.65 303.546 1176.44 305.831C1206.84 354.312 1240.09 412.385 1237.16 428.519C1235.7 436.584 1265.38 476.507 1283.57 504.33C1259.65 485.51 1229.17 459.336 1210.52 450.752C1205.84 448.611 1201.92 447.562 1198.81 447.793C1191.87 447.147 1187.61 451.083 1186.76 459.398C1186.43 464.403 1186.72 469.432 1187.6 474.374C1195.91 494.816 1188.79 500.258 1208.72 533.698C1202.12 524.833 1194.73 516.547 1189.85 513.347C1192.35 518.382 1198.93 527.253 1201.46 532.291C1204.9 543.571 1198.43 541.557 1173.75 511.734C1184.58 531.327 1200.16 547.249 1213.37 564.952C1191.97 539.559 1166.62 517.186 1146.68 483.748C1155.93 504.507 1174.94 531.701 1193.97 558.91C1180.1 548.628 1170.06 528.484 1156.07 511.358C1147.88 503.697 1156.2 518.211 1158.7 523.246C1156.2 518.211 1147.08 504.312 1142.99 500.482C1137.32 497.87 1142.34 507.947 1151.14 521.59C1152.84 525.398 1150.92 524.47 1142.89 516.157Z" fill="url(#paint0_linear_250_454)"/>
</g>
<defs>
<linearGradient id="paint0_linear_250_454" x1="536.986" y1="-50.3262" x2="769.935" y2="1097.96" gradientUnits="userSpaceOnUse">
<stop stop-color="#F3A741"/>
<stop offset="0.571181" stop-color="#F5F5F5"/>
<stop offset="1" stop-color="#F3A741" stop-opacity="0"/>
</linearGradient>
<clipPath id="clip0_250_454">
<rect width="1242.84" height="1171.79" fill="white" transform="translate(-72 73.0977) rotate(-11.4678)"/>
</clipPath>
</defs>
</svg>
