<svg width="494" height="526" viewBox="0 0 494 526" fill="none" xmlns="http://www.w3.org/2000/svg">
<g  opacity="0.7"  clip-path="url(#clip0_250_454)">
<path d="M408.733 264.342C413.084 273.602 417.846 283.128 416.52 285.674C416.47 286.572 416.151 287.405 415.615 288.036C414.697 289.139 413.381 289.658 412.412 290.48C411.898 290.934 408.126 285.974 406.387 284.673C403.056 282.145 404.59 286.272 402.375 285.445C394.812 281.016 379.879 263.823 383.441 277.111C379.942 271.932 381.253 270.809 380.996 271.032C373.05 264.194 371.573 268.173 375.553 278.383C370.254 269.315 369.243 264.722 365.372 257.138C360.305 253.308 359.87 256.39 359.453 259.468C358.296 256.867 356.909 254.395 355.315 252.096C355.267 257.579 346.531 251.43 351.412 263.586C351.94 263.129 347.914 258.41 349.609 259.685C351.521 266.215 352.638 273.41 362.497 286.781C360.594 284.811 358.775 282.736 357.049 280.563C358.214 282.289 360.547 285.739 361.449 287.693L360.009 286.195C365.732 292.197 368.746 292.347 374.202 298.575C382.784 307.578 385.447 318.911 385.348 322.247C385.228 323.628 384.718 324.473 383.741 324.601C382.765 324.73 381.344 324.206 379.385 322.841C377.675 321.474 375.813 319.851 373.835 318C371.857 316.149 369.759 314.078 367.549 311.774C365.108 309.268 362.661 306.746 360.276 304.296L353.36 297.305C354.528 299.03 355.693 300.756 357.124 302.256C350.5 294.304 342.596 281.998 337.512 278.171C340.109 281.401 341.277 283.126 343.609 286.573C334.374 275.398 331.105 275.47 332.755 282.228C333.552 281.556 334.604 280.653 335.4 279.974L334.886 280.428C341.236 288.601 347.156 299.218 352.381 309.699C354.104 313.176 355.752 316.64 357.287 319.962C360.984 328.882 367.834 342.087 363.388 340.436C354.121 334.744 346.028 330.769 344.385 337.601C343.967 340.676 331.238 324.327 326.148 320.505C324.451 319.233 323.661 319.904 324.299 322.083L327.802 327.252C328.444 329.43 326.48 328.384 325.954 328.833C320.077 325.685 307.066 309.561 306.379 315.52C306.349 316.747 306.862 318.87 307.884 321.94C307.008 320.53 304.672 317.08 303.776 315.128C303.262 315.582 305.322 319.256 307.66 322.702C305.585 319.028 303.25 315.581 301.178 311.906C302.079 313.857 301.816 314.081 302.721 316.035C301.316 313.58 300.02 311.051 298.839 308.456C299.544 310.472 300.102 312.541 300.509 314.644C302.324 319.112 301.26 320.017 299.306 318.973L293.76 317.65C292.851 317.436 291.938 317.222 290.989 316.967C281.801 312.186 270.835 305.247 268.056 310.364C268.846 309.687 269.633 308.995 271.595 310.052C269.109 309.462 266.885 308.64 267.909 313.22C267.001 311.271 267.264 311.043 267.53 310.817C267.273 311.041 266.738 311.496 267.645 313.445C272.968 322.508 276.876 324.6 280.019 327.373C268.932 318.713 272.281 331.74 283.269 352.038C285.464 356.094 287.965 360.448 290.691 364.938C305.523 390.028 295.858 387.424 283.742 373.287C279.701 368.574 276.57 365.808 274.349 364.991C271.983 367.023 266.364 363.666 265.171 367.419C264.382 368.097 270.768 376.251 272.6 380.143C270.516 376.474 267.647 373.485 267.387 373.709C267.244 376.56 279.49 393.319 277.532 392.286C272.443 388.478 260.334 368.872 255.894 367.339C254.258 366.174 252.958 365.556 251.985 365.435C251.012 365.315 250.38 365.705 250.029 366.532C249.679 367.358 249.628 368.603 249.82 370.219C244.842 376.74 264.364 419.988 239.41 395.064C243.338 397.149 255.601 413.886 255.742 411.042C255.77 400.1 250.589 382.73 255.04 378.046C255.702 377.723 256.735 377.902 258.332 378.802C257.1 378.702 256.525 379.347 256.32 380.441C254.744 390.012 259.401 407.845 260.811 420.275C262.224 427.239 240.435 399.577 233.604 396.668C231.55 395.263 229.709 394.265 228.138 393.797C225.384 393.436 230.472 402.703 235.821 411.747C248.229 431.099 261.285 441.695 270.031 458.737C276.032 469.949 265.971 459.494 261.963 456.446C260.166 454.712 258.261 452.787 256.329 450.808C252.461 446.853 248.5 442.691 245.047 439.275C247.661 442.486 250.013 445.923 252.888 448.911C253.144 451.415 253.687 454.344 253.256 455.757C252.824 457.17 251.397 457.047 247.881 453.546C235.225 439.539 223.601 419.517 211.843 402.338L214.194 405.775C212.756 404.283 211.317 402.791 212.229 404.736C214.972 410.566 221.107 418.929 225.031 426.474C223.195 422.59 219.937 417.211 217.847 413.55C219.937 417.211 221.756 421.098 223.856 424.757C222.68 423.041 222.937 422.814 221.762 421.097C224.11 424.534 227.385 429.91 228.052 432.062C226.309 429.023 224.43 426.082 222.424 423.254C224.522 426.91 226.874 430.346 228.973 434.005C228.813 431.394 223.848 424.749 222.283 420.635C223.199 422.579 224.374 424.296 225.289 426.24C224.316 424.297 223.487 422.271 222.81 420.185C222.296 420.639 222.935 422.804 225.289 426.24C224.111 424.524 224.374 424.296 223.199 422.579C224.113 424.52 226.462 427.957 227.383 429.9C226.722 427.733 225.818 425.786 229.605 430.715C227.432 428.048 225.381 425.256 223.461 422.351C229.082 431.168 235.217 439.531 240.319 448.792C237.026 443.434 232.634 436.298 229.342 430.94C235.863 441.701 242.166 452.67 248.72 463.414C241.907 452.904 237.816 442.742 232.087 436.766C227.797 432.285 235.267 444.976 236.868 449.086C237.626 448.418 230.15 435.732 233.946 440.659C247.224 456.502 256.374 478.715 257.538 486.037C257.801 487.732 257.696 488.921 257.28 489.646C255.077 490.866 251.645 491.139 241.183 478.317C245.231 483.011 248.099 486.007 251.211 488.761C248.097 485.997 243.547 481.744 243.796 481.522C236.361 466.047 237.036 459.95 235.697 451.499C235.02 448.689 234.15 445.932 233.095 443.256C229.593 434.341 223.003 423.108 209.651 406.987C192.047 385.782 179.485 374.946 169.36 368.897C167.337 367.688 165.409 366.669 163.56 365.796C148.059 356.584 128.288 340.947 143.702 376.917C146.9 385.113 155.909 399.206 164.414 409.459C167.437 413.221 170.468 416.901 173.494 420.558C182.569 431.496 191.612 442.116 200.44 453.615C211.901 468.302 218.821 467.723 218.718 460.704C218.985 459.524 218.99 458.012 218.662 456.127C217.669 450.47 213.656 441.453 204.973 427.623C200.508 420.547 197.706 418.878 195.148 418.375C193.867 418.125 192.656 418.157 191.353 417.932C189.467 416.489 188.699 417.169 187.004 415.907C191.33 420.36 196.16 424.367 199.456 429.725C209.084 446.021 208.33 454.935 198.48 444.329C191.528 436.684 182.592 426.651 173.578 415.655C170.577 411.99 167.567 408.215 164.627 404.383C158.734 396.723 152.375 385.804 149.848 379.769C152.375 385.804 157.546 395.016 163.688 403.192C166.363 406.7 169.077 410.119 171.799 413.459C179.968 423.473 188.181 432.761 195.605 441.369C207.814 455.397 201.375 439.051 203.269 436.054C203.358 434.578 203.471 433.09 203.656 431.72C203.799 430.468 204.068 429.248 204.461 428.084C204.558 425.266 214.59 443.939 215.941 448.253C216.155 449.987 216.273 451.728 216.296 453.466C216.265 461.723 217.336 477.289 192.542 444.057C212.586 470.464 216.95 463.875 217.986 456.928C217.697 454.875 217.194 452.855 216.489 450.912C214.847 446.132 211.854 439.741 207.081 431.28C203.791 425.918 198.966 421.906 200.815 425.78C202.138 428.823 203.299 431.946 204.293 435.13C205.948 443.286 210.015 456.209 199.925 445.809C190.936 437.2 179.858 424.317 168.537 409.609C165.708 405.934 162.888 402.117 160.2 398.122C146.433 377.272 143.216 363.593 151.738 369.852C141.096 359.952 147.61 378.982 161.362 399.597C164.94 404.736 168.735 409.716 172.479 414.447C194.979 442.825 215.219 462.911 202.742 433.469C201.299 429.827 199.692 426.264 197.929 422.795C194.89 417.21 200.498 420.525 203.777 425.91C212.735 440.318 216.952 449.489 218.183 455.213C218.595 457.123 218.677 458.649 218.494 459.851C217.88 465.788 214.337 468.899 203.053 456.807C191.668 443.888 178.213 425.151 165.131 409.59C162.528 406.463 159.949 403.458 157.422 400.634C137.124 371.701 136.638 358.363 140.032 355.38C145.133 353.645 158.247 364.128 168.552 370.764C170.71 372.026 173.297 374.086 175.966 376.279C178.634 378.473 181.389 380.81 183.894 382.613C186.673 385.013 189.565 387.631 192.57 390.468C198.572 396.158 205.063 402.773 211.999 410.424C220.402 419.544 228.484 433.594 232.037 442.33C233.233 445.235 233.903 447.568 233.927 448.941C232.888 458.109 243.966 484.138 234.457 481.493C228.319 462.124 223.731 435.894 209.758 417.912C198.096 402.85 187.832 392.723 179.238 386.454C177.255 384.997 175.209 383.66 173.11 382.451C164.612 380.555 149.255 369.289 155.539 388.527C156.309 387.846 153.269 382.268 155.234 383.293C153.529 382.041 157.761 389.328 153.693 384.655C150.458 370.993 164.768 383.174 171.254 384.279C173.075 385.071 174.976 385.993 176.974 387.091C186.93 392.591 199.048 402.57 214.332 422.15C211.31 416.555 205.165 408.201 202.037 405.447C194.54 400.116 186.183 393.704 178.496 388.437C176.574 387.117 174.695 385.875 172.897 384.732C163.202 379.068 150.476 370.993 154.905 386.361C158.528 383.178 165.451 385.344 172.355 387.528C173.882 388.143 175.379 388.861 176.839 389.679C184.617 394.019 193.915 402.279 204.875 416.717C223.637 441.495 228.054 459.072 227.483 471.237C227.435 472.254 227.352 473.232 227.24 474.175C225.112 481.455 230.234 504.464 200.566 467.261C211.367 479.78 225.292 495.065 223.292 485.804C222.829 494.466 200.91 464.208 188.405 450.44C181.429 442.814 181.764 448.02 183.561 454.696C184.149 451.429 179.811 438.736 185.511 447.481C201.93 471.563 188.691 466.694 186.576 471.303L191.404 467.06C190.564 470.549 188.278 472.559 184.033 471.315C183.002 471.202 181.935 471.006 180.862 470.811C180.903 468.505 187.083 476.701 186.147 472.967C184.512 472.151 183.134 471.661 181.573 470.747C180.012 469.833 178.266 468.54 175.904 466.067C177.628 469.099 180.596 473.306 182.571 476.113C179.336 472.349 176.395 468.274 173.785 463.937C171.547 460.278 169.586 456.418 167.927 452.401C168.944 453.843 168.683 454.063 169.695 455.502C168.683 454.063 167.927 452.401 166.906 450.951C166.9 453.295 169.109 457.751 171.465 462.267C173.82 466.784 176.341 471.371 177.061 474.146C173.83 470.163 170.898 463.655 166.635 460.547C167.388 462.199 170.356 466.402 170.102 466.629C167.829 466.359 160.442 435.737 162.913 457.042C165.114 461.919 168.345 465.901 170.546 470.777C156.182 449.311 154.041 464.05 142.6 421.093C141.884 425.806 137.57 438.394 138.565 439.79C137.312 438.618 135.335 435.815 134.076 434.643C132.31 433.925 136.277 439.52 136.765 441.373C133.264 437.627 130.286 433.433 126.785 429.687C127.778 431.088 129.758 433.89 130.761 435.281C125.52 428.5 122.733 428.708 121.219 427.774C110.382 421.393 92.3506 400.887 76.5449 382.976L77.2839 384.603C65.5677 367.632 55.905 351.137 51.3101 339.268L55.0934 342.761C57.1455 343.229 52.9571 335.545 55.0143 336.009C57.7973 338.11 59.4686 338.344 60.9808 338.436C62.4929 338.528 105.202 391.873 66.0003 339.988C55.4913 326.071 87.0483 362.386 91.6383 362.896C95.392 363.166 99.1268 363.388 101.622 361.783C102.694 361.097 103.93 360.332 104.277 358.447C104.625 356.561 104.081 353.615 101.571 348.528C89.4163 328.334 101.201 337.233 101.179 331.75C95.8861 325.402 94.5666 326.558 90.4588 321.915C91.7167 319.155 93.5261 317.158 95.4428 315.332L97.4233 313.507C103.257 307.917 107.871 301.109 110.407 290.626C101.96 292.55 95.8714 297.898 88.0724 300.564C87.2758 301.118 86.5261 301.693 85.8021 302.305C83.6952 304.135 81.735 306.171 79.9417 308.39C79.3185 309.499 78.7333 310.587 78.3192 311.517C77.988 312.378 77.8462 313.068 78.0991 313.419C81.3525 318.047 69.7596 338.449 55.5055 300.127C51.5109 289.396 52.7136 279.884 38.7055 261.815C39.7806 260.603 41.2305 259.687 40.857 256.576C38.4216 253.636 36.0713 251.353 34.2825 250.167C38.4663 252.945 40.8375 247.879 38.9164 242.232C36.4045 234.837 29.3834 225.301 22.5359 216.978C28.2356 224.81 20.8949 213.369 27.8304 221.961C28.356 222.043 31.3106 225.497 31.7746 225.305C47.6701 247.213 37.1675 231.252 32.9126 224.165C27.5081 215.444 36.0491 226.635 36.2565 225.865C43.3371 234.949 41.5802 231.336 36.8462 223.441C36.9579 222.498 36.6979 221.022 37.2325 220.701C45.8635 229.064 54.4773 235.252 44.882 218.925C39.4901 209.908 37.9762 213.989 31.1459 205.123C24.6988 197.027 24.6594 198.147 24.4025 198.762C26.3369 202.504 25.4913 202.039 18.1429 191.799C17.4373 191.113 13.2181 184.95 10.983 181.011C8.37847 174.04 12.878 179.51 12.3329 178.257C12.0213 177.348 11.851 177.166 14.4665 179.814C14.6988 177.973 14.6594 178.376 14.4077 174.283C15.5102 174.254 16.6195 174.452 17.6828 174.867C18.943 175.36 20.4389 176.252 22.3463 177.845C23.8915 179.13 26.7719 181.546 29.6737 184.098C32.5756 186.65 35.4917 189.332 37.1257 191.145C47.8765 205.881 54.8691 211.828 59.8207 213.866C61.2347 214.461 62.7192 214.753 64.1971 214.727C66.4212 213.744 70.6639 215.513 71.3718 212.149C66.4913 208.176 63.6962 207.883 60.806 207.269C59.3767 206.944 58.019 206.687 56.5967 206.217C52.3671 204.781 47.5509 201.439 39.4972 187.887C40.6805 189.598 40.9465 189.341 41.5721 190.32C39.0269 186.733 36.7445 183.083 34.5884 179.429C35.3125 180.146 36.6688 180.888 37.8281 182.108C37.2699 181.522 32.2661 172.013 32.1333 171.404C31.4735 168.39 33.8618 170.875 36.8482 173.843C39.1507 174.74 35.8444 167.402 42.4113 174.386C42.655 173.393 43.3503 173.042 44.6215 173.529C63.9903 191.084 74.1908 193.282 81.867 192.13C84.8229 191.879 87.8152 192.045 90.7767 192.624C92.0037 192.884 93.221 193.221 94.4228 193.633C96.3868 190.577 108.814 204.451 112.372 204.118C114.077 205.384 110.555 200.223 107.938 197.015C109.114 198.735 112.639 203.892 111.994 201.715C111.349 199.537 108.735 196.329 106.12 193.114C108.734 196.322 111.36 199.532 113.054 200.8C110.705 197.363 108.356 193.923 105.745 190.714C108.622 193.694 112.145 198.858 115.931 203.784C114.114 199.889 110.326 194.957 107.712 191.748C111.044 195.703 116.661 203.157 121.054 208.593C125.446 214.028 128.604 217.438 127.032 213.301C126.691 212.205 124.583 209.251 122.057 205.997C119.531 202.743 116.558 199.156 114.529 196.801C117.076 200.068 119.465 202.959 121.71 205.528C128.121 212.401 138.568 225.248 138.074 220.217C138.49 217.132 128.954 206.231 122.824 197.86C159.909 242.371 144.425 195.657 156.01 196.615C159.974 212.305 148.44 205.845 150.069 218.105C159.41 218.26 164.967 213.485 166.107 201.59L164.519 202.961C165.841 201.818 169.505 204.125 169.659 201.268C169.173 196.229 161.715 188.988 156.514 182.555C156.771 182.331 157.308 181.872 158.744 183.365C147.434 182.162 143.153 191.312 127.413 183.016C127.719 177.295 134.806 182.125 138.353 181.794C129.686 178.33 126.364 183.922 109.1 166.02C107.86 156.174 106.362 146.549 104.764 136.328C104.491 134.386 104.22 132.466 103.953 130.568C102.946 122.963 102.273 115.688 102.321 109.086C102.578 108.859 106.632 113.566 107.163 113.108C107.321 110.243 102.903 103.131 103.992 101.794C103.718 100.23 103.759 99.1484 105.814 101.005C112.589 108.675 111.713 105.117 112.947 104.703C118.295 110.34 116.071 104.87 115.952 102.54C114.104 97.6688 126.638 114.012 126.075 111.119C135.417 122.821 139.734 127.167 137.846 122.444C144.73 130.637 142.402 125.325 141.559 122.264C146.304 126.897 141.325 117.24 146.919 123.191C144.789 117.772 146.955 118.728 143.164 111.013C142.898 108.566 141.986 105.463 147.716 112.307C147.061 109.736 154.414 119.132 152.182 114.415C149.384 109.583 147.831 105.453 149.27 106.962C176.253 135.602 166.953 102.675 180.066 107.821C178.634 106.321 176.299 102.874 174.866 101.378C179.326 103.012 181.186 101.428 186.813 104.791C188.509 106.063 192.808 110.57 193.345 110.111C193.602 109.888 191.807 105.982 192.07 105.757C197.219 110.889 201.069 114.424 202.577 114.467C203.333 114.503 203.504 113.674 202.967 111.758C202.43 109.842 201.172 106.824 199.078 102.489C198.974 100.485 206.228 108.732 205.821 105.58C207.132 104.964 205.847 100.433 207.516 100.731C215.612 110.851 214.452 106.669 211.719 100.543C213.911 101.7 208.409 91.859 206.197 88.2578C216.899 102.542 222.98 109.985 214.38 95.5616C218.176 99.4779 216.077 94.5179 217.707 94.7607C214.317 87.8905 205.456 74.7787 212.688 85.7869C207.064 77.7751 203.723 73.4514 204.242 73.6015C203.088 71.2754 205.162 73.254 206.964 74.7596C208.766 76.2651 210.295 77.291 208.065 73.0638C214.742 81.4145 205.266 72.0193 200.004 63.6123C196.155 56.9924 197.589 58.1774 200 60.8152C202.41 63.4529 207.368 70.3303 208.913 72.1363C199.592 58.044 197.754 56.4058 199.178 59.2122C200.795 62.3011 190.263 47.0311 194.331 52.12C189.164 43.8511 199.003 55.9321 200.486 57.1665C198.312 53.5576 192.569 44.5557 195.292 48.5849C191.271 41.9371 191.563 41.6716 193.956 45.0753C199.588 53.0819 206.056 63.8919 212.416 72.0658C211.514 70.1152 210.349 68.3895 210.615 68.1641C211.411 67.4852 213.211 71.3868 214.379 73.1119C216.076 74.3868 211.676 67.2564 213.107 68.7567C215.707 71.9822 218.303 75.2082 220.636 78.659C218.303 75.2082 214.804 70.0283 212.474 66.5769C217.138 73.4825 217.034 70.849 219.897 73.8497L218.732 72.124C220.163 73.6243 221.593 75.1212 222.759 76.8503C220.163 73.6243 214.967 67.1728 216.931 68.219C218.894 69.2651 225.887 79.6222 228.384 80.2349C226.686 78.96 223.188 73.7835 220.592 70.5574C219.956 68.3782 222.289 71.829 223.454 73.5547C222.821 71.3748 217.096 65.3769 217.891 64.698C219.586 65.9701 222.451 68.9702 223.717 73.3299C214.659 59.2927 208.357 45.6232 211.647 45.5363C211.486 48.3985 215.35 55.9769 218.953 63.7936C217.373 51.5235 233.81 64.7247 253.455 89.2713C253.696 88.0543 261.549 98.8212 259.414 94.4242C263.436 99.3127 267.083 101.64 270.049 107.271C271.214 109 265.491 102.995 267.822 106.449C270.782 112.081 277.144 120.265 280.275 123.036C294.443 135.355 291.268 124.465 285.393 107.708C284.76 105.528 289.052 110.033 291.908 113.031C290.746 111.305 289.315 109.805 288.152 108.075C296.729 117.084 306.207 128.044 316.586 140.957L304.132 124.366C310.763 132.324 317.748 142.686 323.58 150.184C329.502 158.391 331.574 159.467 329.186 154.698C322.623 141.253 321.51 134.036 316.115 122.316C309.821 108.642 325.182 122.764 334.992 131.742C327.293 119.384 327.586 118.905 329.729 121.163C331.871 123.422 335.882 128.484 335.064 126.376C334.589 124.798 333.47 122.255 331.796 118.901C333.646 120.792 320.411 100.275 332.754 117.769C322.256 101.338 327.5 108.297 333.796 116.858C337.569 121.654 338.749 122.621 328.396 106.468C328.208 105.261 323.13 97.1005 321.497 94.6687C312.997 82.0536 313.771 83.8203 313.017 84.225C297.435 62.4285 302.274 71.0648 307.555 80.4158C315.801 94.184 307.925 84.0513 304.254 80.1971C300.994 76.9553 310.601 92.8361 303.094 83.2898C295.964 74.3069 299.728 81.4965 302.263 86.8403C303.616 89.4932 306.576 95.1251 305.153 93.623C298.639 88.2995 302.231 96.1045 300.11 97.9093C302.863 98.281 301.237 91.5216 309.546 100.759C311.24 102.034 307.1 94.676 308.543 96.174C313.968 102.4 319.584 105.783 322.92 113.822C308.261 96.3956 301.941 96.3206 306.015 109.173C308.02 118.342 320.818 137.345 325.968 149.29C325.44 149.747 322.261 145.562 318.206 139.638C320.628 142.994 324.013 148.253 326.603 151.466C325.597 151.418 322.59 147.45 319.721 143.881C304.413 124.138 292.177 112.805 276.873 93.2152C278.037 94.9375 279.466 96.4418 280.631 98.1675C272.478 86.0802 262.155 67.676 265.71 67.3676L268.413 73.2264C267.41 68.6419 269.64 69.48 272.582 71.0796C274.106 71.8721 275.215 72.1858 275.556 71.5047C275.517 70.0895 275.319 68.6756 274.969 67.2974C274.452 65.5276 273.742 63.5033 272.979 61.3848C272.216 59.2663 271.414 57.0645 270.712 54.9443C269.815 52.9892 276.798 63.352 276.698 60.7247C277.13 57.6399 270.676 46.8235 275.458 50.1342C275.052 47.9958 272.743 43.0782 275.719 46.0558C274.537 42.5884 278.688 47.0307 277.14 43.0256C276.394 39.3507 277.096 37.8513 280.468 40.4092C277.468 33.5054 285.772 43.4953 284.953 40.1184C285.252 39.0085 289.919 44.4656 289.825 42.9563C306.85 66.1913 295.796 47.9425 300.662 53.6702C306.609 61.0011 296.538 44.854 314.359 70.5612C314.784 70.6113 314.526 69.7859 323.508 82.8067C328.753 90.3079 315.839 70.9429 332.598 95.8232C329.721 91.5559 339.459 105.469 339.357 104.385C334.08 95.617 336.912 98.5293 343.479 106.783C343.524 102.896 353.424 114.318 350.951 107.775C354.363 109.972 358.511 113.649 362.789 117.716C367.068 121.783 371.509 126.188 375.486 129.83C377.915 131.26 380.286 132.825 386.058 139.772C385.281 136.974 393.678 148.138 396.657 151.699C398.726 153.878 408.27 167.607 406.767 165.425C412.716 174.308 415.444 178.528 416.759 180.752C418.073 182.975 417.978 183.194 418.266 184.076C429.057 202.921 440.901 225.465 440.047 231.619C439.623 234.695 450.089 250.255 456.535 261.076C448.222 253.652 437.604 243.352 431.175 239.896C429.564 239.034 428.218 238.597 427.161 238.657C424.793 238.347 423.376 239.817 423.16 242.994C423.096 244.909 423.238 246.838 423.583 248.739C426.596 256.644 424.222 258.664 431.31 271.653C428.982 268.198 426.389 264.957 424.699 263.688C425.597 265.639 427.916 269.096 428.824 271.049C430.095 275.401 427.876 274.571 419.2 262.925C423.066 270.528 428.515 276.767 433.172 283.667C425.658 273.748 416.824 264.95 409.732 251.961C413.068 259.997 419.787 270.584 426.511 281.178C421.697 277.115 418.096 269.308 413.177 262.622C410.318 259.614 413.282 265.248 414.181 267.199C413.282 265.248 410.053 259.842 408.624 258.338C406.669 257.287 408.47 261.192 411.591 266.497C412.205 267.971 411.541 267.599 408.733 264.342Z" fill="#F3A741"/>
</g>
<defs>
<clipPath id="clip0_250_454">
<rect width="421" height="451" fill="white" transform="translate(-9 83.7021) rotate(-11.4678)"/>
</clipPath>
</defs>
</svg>
