<svg width="467" height="473" viewBox="0 0 467 473" fill="none" xmlns="http://www.w3.org/2000/svg">
<g opacity="0.7">
<path d="M416.936 236.901C421.481 246.566 426.455 256.508 425.07 259.166C425.017 260.103 424.684 260.972 424.124 261.631C423.165 262.782 421.791 263.324 420.779 264.182C420.242 264.656 416.302 259.479 414.485 258.121C411.006 255.482 412.608 259.79 410.295 258.927C402.395 254.304 386.797 236.359 390.517 250.228C386.863 244.823 388.232 243.651 387.963 243.883C379.664 236.746 378.121 240.899 382.278 251.556C376.743 242.091 375.687 237.297 371.644 229.382C366.351 225.384 365.897 228.601 365.461 231.814C364.253 229.099 362.804 226.519 361.139 224.119C361.089 229.842 351.964 223.424 357.062 236.112C357.613 235.635 353.408 230.709 355.179 232.04C357.176 238.856 358.343 246.365 368.641 260.321C366.653 258.265 364.753 256.099 362.95 253.831C364.167 255.633 366.604 259.233 367.546 261.273L366.042 259.709C372.02 265.974 375.168 266.13 380.867 272.631C389.831 282.027 392.613 293.856 392.509 297.338C392.384 298.779 391.851 299.661 390.831 299.795C389.811 299.929 388.327 299.382 386.281 297.958C384.495 296.531 382.55 294.837 380.484 292.905C378.417 290.973 376.226 288.812 373.918 286.407C371.368 283.791 368.812 281.159 366.321 278.602L359.097 271.305C360.317 273.106 361.534 274.907 363.028 276.473C356.109 268.173 347.853 255.329 342.543 251.335C345.256 254.706 346.476 256.506 348.911 260.104C339.265 248.44 335.851 248.515 337.574 255.569C338.407 254.868 339.505 253.925 340.337 253.216L339.8 253.69C346.433 262.221 352.616 273.302 358.074 284.241C359.874 287.87 361.595 291.486 363.199 294.953C367.06 304.263 374.215 318.045 369.571 316.322C359.892 310.381 351.438 306.232 349.722 313.363C349.285 316.573 335.99 299.509 330.673 295.52C328.9 294.192 328.075 294.892 328.742 297.167L332.401 302.562C333.071 304.835 331.02 303.743 330.47 304.212C324.332 300.926 310.741 284.097 310.023 290.317C309.992 291.597 310.528 293.813 311.595 297.017C310.68 295.546 308.24 291.945 307.305 289.907C306.768 290.381 308.919 294.216 311.362 297.813C309.194 293.978 306.755 290.38 304.591 286.545C305.532 288.581 305.257 288.815 306.203 290.854C304.735 288.292 303.381 285.652 302.148 282.944C302.884 285.048 303.467 287.207 303.892 289.402C305.788 294.066 304.676 295.01 302.635 293.921L296.842 292.54C295.893 292.316 294.939 292.093 293.948 291.827C284.351 286.837 272.897 279.594 269.994 284.935C270.819 284.229 271.641 283.506 273.69 284.61C271.094 283.994 268.771 283.136 269.84 287.916C268.892 285.882 269.167 285.644 269.444 285.408C269.176 285.642 268.617 286.117 269.564 288.151C275.125 297.61 279.207 299.794 282.49 302.688C270.909 293.649 274.407 307.246 285.884 328.431C288.177 332.665 290.789 337.209 293.637 341.895C309.129 368.083 299.034 365.365 286.378 350.61C282.157 345.69 278.887 342.804 276.567 341.951C274.096 344.072 268.226 340.568 266.98 344.485C266.156 345.193 272.827 353.703 274.74 357.765C272.563 353.936 269.567 350.816 269.295 351.05C269.146 354.026 281.937 371.518 279.892 370.439C274.576 366.465 261.928 346.002 257.29 344.401C255.581 343.186 254.223 342.541 253.207 342.414C252.191 342.289 251.531 342.696 251.164 343.559C250.798 344.421 250.745 345.721 250.946 347.407C245.746 354.214 266.137 399.353 240.072 373.339C244.175 375.515 256.984 392.984 257.131 390.015C257.161 378.595 251.749 360.465 256.398 355.577C257.09 355.24 258.169 355.426 259.837 356.366C258.55 356.261 257.949 356.935 257.735 358.076C256.089 368.066 260.953 386.679 262.426 399.652C263.902 406.921 241.143 378.049 234.007 375.013C231.862 373.547 229.939 372.505 228.298 372.016C225.421 371.64 230.736 381.312 236.323 390.751C249.284 410.949 262.921 422.009 272.057 439.796C278.325 451.498 267.816 440.586 263.629 437.405C261.752 435.595 259.763 433.586 257.745 431.52C253.704 427.392 249.567 423.048 245.96 419.483C248.69 422.834 251.147 426.422 254.15 429.54C254.418 432.154 254.985 435.211 254.535 436.686C254.083 438.16 252.593 438.032 248.92 434.378C235.701 419.759 223.559 398.861 211.277 380.931L213.733 384.518C212.231 382.961 210.728 381.404 211.681 383.434C214.546 389.519 220.954 398.247 225.053 406.122C223.135 402.068 219.732 396.454 217.549 392.633C219.732 396.454 221.632 400.511 223.825 404.33C222.597 402.539 222.865 402.302 221.638 400.51C224.091 404.097 227.512 409.708 228.208 411.955C226.388 408.783 224.425 405.713 222.33 402.761C224.521 406.577 226.978 410.164 229.17 413.983C229.003 411.257 223.817 404.322 222.182 400.028C223.139 402.057 224.366 403.849 225.322 405.878C224.306 403.85 223.44 401.735 222.733 399.558C222.196 400.032 222.863 402.292 225.322 405.878C224.092 404.087 224.366 403.849 223.139 402.057C224.094 404.083 226.547 407.67 227.509 409.698C226.819 407.436 225.875 405.404 229.83 410.549C227.561 407.765 225.418 404.851 223.413 401.819C229.284 411.022 235.692 419.75 241.022 429.416C237.582 423.824 232.994 416.376 229.556 410.784C236.367 422.015 242.951 433.464 249.797 444.677C242.68 433.708 238.407 423.102 232.423 416.864C227.942 412.187 235.745 425.433 237.417 429.723C238.209 429.026 230.4 415.785 234.365 420.927C248.234 437.463 257.792 460.648 259.007 468.29C259.282 470.059 259.172 471.3 258.738 472.057C256.437 473.33 252.852 473.615 241.924 460.232C246.152 465.131 249.148 468.258 252.399 471.133C249.146 468.248 244.393 463.809 244.653 463.577C236.887 447.426 237.592 441.062 236.194 432.241C235.487 429.309 234.578 426.431 233.476 423.638C229.818 414.333 222.934 402.609 208.988 385.783C190.6 363.651 177.478 352.341 166.902 346.028C164.789 344.766 162.775 343.702 160.844 342.791C144.653 333.176 124.001 316.855 140.102 354.398C143.442 362.953 152.852 377.662 161.736 388.363C164.894 392.29 168.06 396.131 171.221 399.948C180.7 411.364 190.145 422.448 199.367 434.45C211.338 449.779 218.566 449.175 218.459 441.849C218.737 440.617 218.743 439.039 218.4 437.072C217.363 431.168 213.171 421.756 204.101 407.321C199.438 399.936 196.511 398.194 193.839 397.669C192.501 397.408 191.236 397.442 189.875 397.207C187.905 395.701 187.103 396.41 185.332 395.093C189.851 399.741 194.896 403.923 198.339 409.515C208.395 426.524 207.608 435.828 197.319 424.758C190.058 416.779 180.724 406.307 171.308 394.83C168.174 391.005 165.03 387.065 161.959 383.065C155.803 375.07 149.161 363.674 146.521 357.375C149.161 363.674 154.562 373.289 160.978 381.822C163.772 385.484 166.607 389.052 169.45 392.538C177.983 402.99 186.562 412.684 194.316 421.669C207.069 436.31 200.343 419.249 202.322 416.121C202.414 414.581 202.533 413.028 202.726 411.598C202.875 410.291 203.156 409.018 203.567 407.803C203.668 404.861 214.147 424.351 215.558 428.854C215.781 430.663 215.905 432.481 215.929 434.295C215.896 442.913 217.015 459.159 191.117 424.474C212.053 452.036 216.612 445.159 217.694 437.908C217.392 435.765 216.867 433.657 216.13 431.629C214.415 426.64 211.289 419.969 206.303 411.138C202.867 405.542 197.827 401.354 199.758 405.398C201.14 408.574 202.353 411.834 203.391 415.157C205.12 423.669 209.368 437.157 198.829 426.303C189.439 417.317 177.868 403.871 166.043 388.52C163.088 384.684 160.142 380.7 157.334 376.531C142.954 354.769 139.594 340.492 148.496 347.024C137.38 336.691 144.184 356.554 158.548 378.07C162.286 383.434 166.25 388.631 170.16 393.569C193.662 423.188 214.804 444.152 201.771 413.423C200.264 409.622 198.585 405.903 196.744 402.282C193.569 396.453 199.427 399.913 202.852 405.534C212.209 420.572 216.614 430.144 217.9 436.118C218.33 438.111 218.416 439.704 218.225 440.959C217.583 447.155 213.882 450.402 202.096 437.782C190.204 424.298 176.15 404.741 162.485 388.5C159.766 385.236 157.072 382.1 154.433 379.152C133.231 348.954 132.723 335.033 136.268 331.92C141.596 330.109 155.294 341.05 166.058 347.976C168.313 349.293 171.015 351.444 173.803 353.732C176.589 356.022 179.467 358.462 182.084 360.343C184.986 362.848 188.007 365.581 191.146 368.542C197.415 374.481 204.195 381.385 211.44 389.37C220.218 398.889 228.659 413.554 232.371 422.672C233.62 425.704 234.32 428.139 234.345 429.572C233.26 439.141 244.831 466.308 234.898 463.547C228.487 443.331 223.695 415.954 209.099 397.186C196.918 381.465 186.197 370.895 177.22 364.352C175.149 362.832 173.012 361.436 170.819 360.174C161.943 358.195 145.902 346.437 152.466 366.516C153.27 365.805 150.095 359.983 152.147 361.053C150.366 359.746 154.787 367.352 150.538 362.475C147.159 348.215 162.106 360.929 168.881 362.082C170.783 362.909 172.769 363.871 174.855 365.017C185.255 370.758 197.913 381.173 213.877 401.609C210.721 395.77 204.302 387.05 201.035 384.176C193.204 378.612 184.475 371.919 176.445 366.422C174.438 365.044 172.475 363.748 170.597 362.555C160.47 356.643 147.177 348.215 151.804 364.255C155.588 360.933 162.819 363.194 170.031 365.473C171.626 366.115 173.189 366.865 174.714 367.718C182.839 372.248 192.551 380.869 203.999 395.939C223.597 421.8 228.21 440.146 227.614 452.843C227.564 453.904 227.477 454.925 227.36 455.909C225.137 463.507 230.487 487.522 199.498 448.693C210.78 461.759 225.325 477.712 223.236 468.047C222.753 477.087 199.857 445.506 186.796 431.136C179.509 423.177 179.859 428.61 181.736 435.578C182.35 432.168 177.819 418.92 183.773 428.048C200.923 453.183 187.094 448.101 184.885 452.911L189.928 448.483C189.051 452.124 186.663 454.222 182.229 452.924C181.152 452.806 180.037 452.601 178.917 452.398C178.959 449.991 185.415 458.545 184.437 454.648C182.729 453.797 181.29 453.285 179.659 452.331C178.029 451.377 176.205 450.028 173.738 447.446C175.539 450.611 178.639 455.002 180.702 457.932C177.323 454.003 174.251 449.75 171.524 445.223C169.187 441.404 167.138 437.376 165.406 433.183C166.468 434.688 166.195 434.918 167.252 436.42C166.195 434.918 165.406 433.183 164.339 431.67C164.333 434.116 166.64 438.767 169.101 443.48C171.561 448.195 174.194 452.982 174.946 455.879C171.571 451.722 168.509 444.929 164.056 441.685C164.843 443.409 167.943 447.796 167.677 448.033C165.303 447.751 157.587 415.79 160.168 438.027C162.467 443.117 165.842 447.273 168.141 452.362C153.138 429.958 150.901 445.341 138.951 400.506C138.203 405.425 133.697 418.563 134.736 420.021C133.427 418.797 131.362 415.872 130.047 414.648C128.202 413.899 132.346 419.739 132.856 421.673C129.199 417.763 126.088 413.386 122.431 409.476C123.469 410.938 125.537 413.863 126.584 415.314C121.11 408.237 118.199 408.454 116.617 407.479C105.298 400.819 86.4634 379.416 69.9538 360.722L70.7257 362.42C58.4878 344.707 48.3948 327.491 43.5952 315.103L47.547 318.749C49.6905 319.237 45.3156 311.217 47.4644 311.702C50.3713 313.894 52.1171 314.139 53.6966 314.235C55.276 314.331 99.8872 370.008 58.9396 315.855C47.9626 301.329 80.925 339.232 85.7194 339.764C89.6403 340.046 93.5414 340.278 96.1477 338.603C97.2675 337.887 98.5585 337.088 98.921 335.121C99.2845 333.152 98.7162 330.077 96.0945 324.768C83.3985 303.691 95.708 312.979 95.685 307.256C90.1564 300.631 88.7781 301.837 84.4874 296.991C85.8013 294.111 87.6913 292.026 89.6934 290.12L91.7621 288.216C97.8556 282.381 102.675 275.276 105.324 264.334C96.5008 266.342 90.141 271.924 81.9947 274.707C81.1626 275.285 80.3795 275.885 79.6233 276.524C77.4226 278.434 75.3751 280.559 73.5019 282.875C72.851 284.032 72.2397 285.168 71.8072 286.139C71.4612 287.037 71.3131 287.757 71.5773 288.124C74.9755 292.954 62.8664 314.248 47.9775 274.251C43.805 263.05 45.0612 253.122 30.4293 234.263C31.5523 232.998 33.0667 232.042 32.6766 228.795C30.1327 225.727 27.6778 223.344 25.8093 222.106C30.1794 225.005 32.6562 219.718 30.6496 213.824C28.0258 206.106 20.692 196.153 13.5396 187.466C19.4931 195.64 11.8255 183.699 19.0699 192.667C19.6189 192.752 22.7051 196.357 23.1897 196.157C39.7931 219.023 28.8228 202.364 24.3784 194.967C18.7332 185.865 27.6546 197.545 27.8712 196.741C35.2671 206.223 33.432 202.452 28.4872 194.211C28.6039 193.227 28.3323 191.687 28.8907 191.352C37.9061 200.08 46.9035 206.539 36.8808 189.498C31.2488 180.087 29.6675 184.346 22.533 175.092C15.7988 166.642 15.7576 167.811 15.4893 168.453C17.5099 172.359 16.6266 171.874 8.95094 161.186C8.21391 160.47 3.80681 154.037 1.47217 149.926C-1.24835 142.65 3.45157 148.359 2.88219 147.052C2.55671 146.103 2.37883 145.913 5.11081 148.677C5.35346 146.755 5.3123 147.176 5.04939 142.904C6.20099 142.874 7.35969 143.08 8.47035 143.513C9.78667 144.028 11.3492 144.959 13.3415 146.622C14.9555 147.963 17.9642 150.484 20.9953 153.148C24.0264 155.812 27.0724 158.611 28.7791 160.503C40.0087 175.884 47.3127 182.091 52.4848 184.218C53.9618 184.839 55.5124 185.143 57.0561 185.116C59.3793 184.09 63.8109 185.937 64.5504 182.426C59.4525 178.279 56.5329 177.973 53.514 177.332C52.0211 176.993 50.6029 176.725 49.1173 176.234C44.6993 174.735 39.6686 171.247 31.2562 157.103C32.4922 158.889 32.7701 158.62 33.4235 159.642C30.765 155.898 28.3809 152.089 26.1288 148.275C26.8852 149.023 28.3019 149.798 29.5128 151.071C28.9297 150.459 23.7031 140.535 23.5644 139.899C22.8752 136.753 25.3699 139.347 28.4893 142.445C30.8943 143.381 27.4408 135.722 34.3001 143.011C34.5547 141.975 35.2809 141.609 36.6087 142.117C56.8401 160.44 67.4949 162.734 75.513 161.531C78.6005 161.269 81.7261 161.443 84.8194 162.047C86.1011 162.318 87.3726 162.67 88.6279 163.1C90.6794 159.91 103.66 174.391 107.376 174.043C109.157 175.365 105.479 169.978 102.745 166.63C103.973 168.425 107.655 173.808 106.982 171.535C106.308 169.262 103.578 165.914 100.846 162.558C103.576 165.907 106.319 169.257 108.089 170.58C105.635 166.993 103.182 163.403 100.454 160.053C103.459 163.164 107.139 168.553 111.094 173.695C109.196 169.63 105.239 164.482 102.509 161.133C105.989 165.261 111.856 173.04 116.445 178.714C121.033 184.387 124.331 187.946 122.689 183.628C122.333 182.484 120.131 179.401 117.493 176.005C114.854 172.608 111.749 168.864 109.63 166.407C112.29 169.816 114.785 172.834 117.13 175.515C123.827 182.689 134.739 196.097 134.223 190.846C134.658 187.627 124.697 176.249 118.294 167.512C157.031 213.969 140.857 165.212 152.958 166.212C157.098 182.588 145.051 175.846 146.752 188.642C156.509 188.804 162.314 183.82 163.505 171.405L161.846 172.836C163.227 171.643 167.054 174.051 167.215 171.069C166.707 165.81 158.917 158.252 153.484 151.538C153.753 151.304 154.314 150.825 155.814 152.383C144 151.127 139.528 160.678 123.087 152.019C123.407 146.048 130.81 151.089 134.515 150.743C125.462 147.128 121.992 152.964 103.959 134.28C102.664 124.003 101.099 113.957 99.4297 103.289C99.1445 101.262 98.8614 99.2584 98.5825 97.2774C97.5307 89.3398 96.8277 81.7467 96.8779 74.8561C97.1463 74.6191 101.381 79.532 101.936 79.0539C102.101 76.0637 97.4858 68.6407 98.6233 67.2452C98.3371 65.6128 98.3799 64.4839 100.526 66.4217C107.603 74.4271 106.688 70.7135 107.977 70.2814C113.563 76.1649 111.24 70.4557 111.116 68.0238C109.186 62.9396 122.278 79.9975 121.69 76.978C131.448 89.1916 135.957 93.7277 133.985 88.7982C141.176 97.3494 138.744 91.8051 137.863 88.6103C142.82 93.4459 137.619 83.3666 143.462 89.5778C141.237 83.9219 143.5 84.9197 139.54 76.8673C139.262 74.3133 138.309 71.0746 144.295 78.2179C143.61 75.5345 151.291 85.3413 148.959 80.4181C146.037 75.3748 144.415 71.0642 145.918 72.6392C174.102 102.532 164.388 68.1647 178.085 73.5357C176.589 71.9702 174.15 68.3724 172.654 66.811C177.312 68.5165 179.255 66.8632 185.133 70.3733C186.904 71.7009 191.395 76.405 191.956 75.9259C192.224 75.6931 190.349 71.6163 190.624 71.3815C196.002 76.7379 200.024 80.4275 201.599 80.4724C202.388 80.5099 202.567 79.6447 202.006 77.6449C201.445 75.6451 200.131 72.4952 197.944 67.9706C197.835 65.879 205.412 74.4866 204.987 71.1968C206.357 70.5538 205.014 65.8247 206.758 66.1357C215.214 76.6982 214.003 72.3334 211.148 65.9395C213.437 67.1471 207.69 56.8758 205.38 53.1171C216.559 68.0259 222.91 75.7944 213.927 60.7403C217.892 64.8278 215.7 59.651 217.403 59.9044C213.862 52.7338 204.606 39.0486 212.16 50.5382C206.286 42.1761 202.796 37.6633 203.338 37.82C202.132 35.3922 204.299 37.4573 206.181 39.0287C208.063 40.6 209.66 41.6708 207.331 37.2587C214.305 45.9746 204.407 36.1686 198.911 27.394C194.891 20.4846 196.389 21.7214 198.907 24.4746C201.424 27.2276 206.603 34.4057 208.217 36.2907C198.481 21.5822 196.561 19.8724 198.048 22.8015C199.737 26.0254 188.736 10.0877 192.985 15.3992C187.588 6.76869 197.866 19.3779 199.415 20.6663C197.144 16.8996 191.145 7.5041 193.989 11.7095C189.789 4.771 190.094 4.49389 192.594 8.04642C198.477 16.4031 205.233 27.6858 211.876 36.2171C210.934 34.1812 209.717 32.3801 209.995 32.1448C210.826 31.4362 212.706 35.5084 213.926 37.309C215.699 38.6396 211.103 31.1974 212.598 32.7633C215.313 36.1299 218.025 39.4969 220.462 43.0986C218.025 39.4969 214.37 34.0905 211.936 30.4882C216.808 37.6958 216.7 34.9471 219.69 38.079L218.473 36.2779C219.968 37.8438 221.462 39.4061 222.679 41.2108C219.968 37.8438 214.54 31.1102 216.592 32.2021C218.642 33.294 225.947 44.1039 228.555 44.7434C226.781 43.4128 223.128 38.0099 220.416 34.6428C219.752 32.3683 222.189 35.97 223.405 37.7711C222.744 35.4959 216.764 29.2357 217.595 28.5271C219.365 29.8549 222.358 32.9862 223.68 37.5365C214.219 22.8855 207.636 8.61828 211.073 8.52758C210.904 11.5149 214.941 19.4247 218.704 27.5832C217.054 14.7766 234.223 28.555 254.743 54.1749C254.994 52.9047 263.197 64.1424 260.967 59.5532C265.168 64.6554 268.977 67.0845 272.076 72.9617C273.292 74.7663 267.315 68.4987 269.749 72.1038C272.841 77.982 279.486 86.5239 282.757 89.416C297.556 102.274 294.24 90.9075 288.103 73.4178C287.442 71.1425 291.925 75.8445 294.908 78.9736C293.694 77.1721 292.2 75.6065 290.985 73.8009C299.944 83.2038 309.844 94.643 320.685 108.121L307.676 90.8042C314.603 99.1102 321.899 109.925 327.99 117.751C334.176 126.317 336.341 127.44 333.846 122.462C326.991 108.43 325.828 100.897 320.193 88.6646C313.619 74.3926 329.664 89.1322 339.911 98.5027C331.869 85.6044 332.175 85.1044 334.413 87.4611C336.651 89.8189 340.84 95.1023 339.986 92.9021C339.49 91.2551 338.321 88.6009 336.572 85.1002C338.505 87.0739 324.68 65.6598 337.573 83.9187C326.608 66.7693 332.085 74.0326 338.661 82.9679C342.602 87.9736 343.835 88.9829 333.021 72.1236C332.825 70.8638 327.52 62.3465 325.815 59.8084C316.936 46.6416 317.745 48.4856 316.957 48.908C300.681 26.1584 305.736 35.1723 311.252 44.9322C319.865 59.3025 311.638 48.7267 307.804 44.704C304.399 41.3204 314.433 57.8956 306.592 47.9319C299.145 38.5562 303.076 46.0602 305.724 51.6376C307.137 54.4065 310.229 60.2847 308.743 58.7169C301.939 53.1607 305.691 61.3069 303.475 63.1907C306.351 63.5786 304.652 56.5236 313.331 66.165C315.101 67.4957 310.777 59.816 312.284 61.3795C317.95 67.8777 323.817 71.4086 327.301 79.7991C311.989 61.6108 305.388 61.5325 309.643 74.9469C311.738 84.5168 325.105 104.351 330.485 116.818C329.933 117.295 326.613 112.927 322.377 106.744C324.907 110.247 328.443 115.736 331.148 119.089C330.097 119.039 326.956 114.898 323.96 111.173C307.97 90.5662 295.189 78.7377 279.203 58.2913C280.419 60.0889 281.912 61.659 283.129 63.4601C274.613 50.8443 263.83 31.6354 267.543 31.3135L270.367 37.4285C269.319 32.6435 271.648 33.5182 274.721 35.1878C276.313 36.0149 277.472 36.3424 277.828 35.6315C277.787 34.1544 277.58 32.6787 277.215 31.2402C276.675 29.393 275.933 27.2802 275.136 25.0691C274.339 22.8579 273.501 20.5599 272.768 18.347C271.831 16.3064 279.125 27.1223 279.021 24.3801C279.472 21.1604 272.73 9.87106 277.725 13.3265C277.301 11.0946 274.889 5.962 277.998 9.0698C276.763 5.45078 281.099 10.0873 279.482 5.90709C278.703 2.0715 279.436 0.50654 282.959 3.17629C279.825 -4.02939 288.499 6.39733 287.643 2.87277C287.956 1.71434 292.83 7.41006 292.732 5.83476C310.515 30.0857 298.969 11.039 304.052 17.0171C310.264 24.6686 299.744 7.81545 318.359 34.6467C318.803 34.699 318.533 33.8375 327.915 47.4277C333.394 55.2569 319.905 35.0451 337.41 61.0133C334.405 56.5594 344.577 71.0809 344.47 69.9495C338.958 60.7981 341.916 63.8378 348.776 72.4524C348.823 68.3954 359.164 80.3168 356.58 73.4877C360.144 75.7808 364.477 79.6186 368.946 83.8634C373.415 88.1083 378.054 92.7059 382.208 96.5071C384.745 97.9996 387.222 99.6331 393.251 106.884C392.439 103.964 401.21 115.616 404.322 119.332C406.483 121.607 416.452 135.936 414.882 133.659C421.096 142.93 423.946 147.335 425.319 149.656C426.692 151.976 426.592 152.205 426.893 153.125C438.165 172.794 450.536 196.324 449.644 202.747C449.201 205.957 460.134 222.198 466.867 233.492C458.183 225.743 447.092 214.993 440.377 211.386C438.694 210.486 437.289 210.03 436.184 210.093C433.711 209.769 432.231 211.303 432.005 214.619C431.938 216.618 432.087 218.631 432.447 220.616C435.594 228.866 433.115 230.975 440.518 244.532C438.087 240.925 435.378 237.543 433.613 236.218C434.551 238.255 436.973 241.863 437.921 243.901C439.249 248.443 436.931 247.577 427.869 235.422C431.907 243.357 437.599 249.869 442.463 257.071C434.614 246.718 425.387 237.535 417.979 223.978C421.464 232.366 428.482 243.416 435.505 254.473C430.477 250.232 426.716 242.084 421.578 235.106C418.591 231.966 421.687 237.846 422.626 239.883C421.687 237.846 418.315 232.204 416.822 230.634C414.78 229.537 416.661 233.613 419.921 239.15C420.562 240.689 419.869 240.3 416.936 236.901Z" fill="#384041"/>
</g>
</svg>
