<svg xmlns="http://www.w3.org/2000/svg" fill='#384041' viewBox="0 0 1500 1125"><g id="Calque_2" data-name="Calque 2"><g id="Layer_1" data-name="Layer 1"><path d="M1232.14,107.14h-62.75C1147.29,44.78,1087.7,0,1017.86,0H482.14C412.3,0,352.71,44.78,330.61,107.14H267.86C120.17,107.14,0,227.31,0,375V964.29C0,1052.91,72.09,1125,160.71,1125H1339.29c88.62,0,160.71-72.09,160.71-160.71V375C1500,227.31,1379.83,107.14,1232.14,107.14Zm160.72,857.15a53.63,53.63,0,0,1-53.57,53.57H160.71a53.63,53.63,0,0,1-53.57-53.57V375c0-88.62,72.09-160.71,160.72-160.71H375a53.56,53.56,0,0,0,53.57-53.58,53.63,53.63,0,0,1,53.57-53.57h535.72a53.63,53.63,0,0,1,53.57,53.57A53.56,53.56,0,0,0,1125,214.29h107.14c88.63,0,160.72,72.09,160.72,160.71ZM750,241.07c-192,0-348.21,156.22-348.21,348.22S558,937.5,750,937.5s348.21-156.22,348.21-348.21S942,241.07,750,241.07Zm0,589.29c-132.93,0-241.07-108.14-241.07-241.07S617.07,348.21,750,348.21,991.07,456.35,991.07,589.29,882.93,830.36,750,830.36Z"/></g></g></svg>