<svg width="45" height="39" viewBox="0 0 45 39" fill="none" xmlns="http://www.w3.org/2000/svg">
<g clip-path="url(#clip0_184_56)">
<path d="M22.5005 0C15.1425 0 9.11255 5.2104 9.11255 11.5697C9.11255 14.0338 10.0206 16.3238 11.5574 18.206L20.8665 32.1535C22.1702 33.6297 23.0369 33.3493 24.1209 32.0755L34.389 16.9318C34.596 16.6066 34.7589 16.2603 34.9007 15.9065C35.5523 14.5304 35.8874 13.0572 35.8871 11.5697C35.8875 5.2104 29.8593 0 22.5005 0ZM22.5005 5.421C26.4632 5.421 29.6141 8.14554 29.6141 11.5697C29.6141 14.9939 26.4632 17.7173 22.5005 17.7173C18.5382 17.7173 15.386 14.9943 15.386 11.5697C15.386 8.14554 18.5382 5.42139 22.5005 5.42139V5.421Z" fill="#E4A951"/>
<path d="M31.0108 19.0742L30.9892 19.1234C30.996 19.1085 31.0014 19.0933 31.0081 19.0785L31.0108 19.0742V19.0742ZM28.7316 28.6082L28.1092 29.2751C28.9507 29.3632 29.7652 29.4665 30.528 29.5917L28.0624 30.2247L31.3533 30.9833L33.8062 30.3128C35.3128 30.7508 37.399 31.2863 38.0902 31.8951H33.1717L33.6604 33.1337H38.7643C38.749 33.8318 37.309 34.3989 35.9338 34.8583L32.4459 34.2047L29.1595 35.2253L32.6695 35.9195C30.6202 36.4031 27.1795 36.6971 24.331 36.8325L24.2113 35.4129H20.7886L20.6685 36.8325C17.82 36.6971 14.3797 36.4035 12.33 35.9199L15.8404 35.2253L12.5541 34.2047L9.06566 34.8583C7.71026 34.5014 6.25091 33.8318 6.23561 33.1337H11.34L11.8287 31.8951H6.91016C7.60136 31.2863 9.68756 30.7508 11.1942 30.3128L13.6471 30.9833L16.938 30.2247L14.4724 29.5917C15.2686 29.4642 16.0695 29.3592 16.8736 29.277L16.2603 28.6089C9.60701 29.2084 4.07741 30.4848 2.62751 32.5007C0.314959 35.7136 8.84606 38.9455 22.2165 38.9958C22.4154 39.0044 22.6116 38.9981 22.797 38.9958C36.1597 38.9428 44.6832 35.712 42.3724 32.5007C40.9216 30.4841 35.3884 29.2072 28.7311 28.6082H28.7316Z" fill="#E4A951"/>
</g>
<defs>
<clipPath id="clip0_184_56">
<rect width="45" height="39" fill="white"/>
</clipPath>
</defs>
</svg>
