<svg width="129" height="220" viewBox="0 0 129 220" fill="none" xmlns="http://www.w3.org/2000/svg">
<g clip-path="url(#clip0_68_101)">
<path d="M73.4789 179.673C74.56 177.147 75.978 174.783 77.6936 172.646C78.4231 171.753 79.3267 170.479 80.6139 171.206C81.9647 171.969 81.1504 173.386 80.7951 174.443C80.4536 175.46 80.0456 176.453 79.5738 177.415L83.3907 176.01C84.0061 174.265 84.2467 172.408 84.0967 170.562C83.9814 169.216 81.1763 165.513 78.0254 165.019C74.6179 164.482 71.7423 165.273 69.7091 168.128C68.2807 170.132 66.9158 172.24 65.911 174.481C64.6018 177.419 63.5773 180.479 62.8518 183.616L73.4789 179.673Z" fill="white"/>
<path d="M53.9754 176.01C53.7683 176.164 53.5754 176.338 53.3707 176.485C51.3681 178.047 49.3702 179.604 47.0758 181.382C47.2688 180.726 47.3276 180.431 47.4429 180.153C50.448 173.1 53.3259 165.991 56.5381 159.034C57.5617 156.818 57.6041 155.204 55.9074 153.54C55.8352 153.466 55.7684 153.387 55.7074 153.303C53.8036 150.866 52.9494 150.614 51.7375 152.775L34.0884 194.253L44.1507 190.528C44.3578 189.736 44.5641 188.948 44.7696 188.166C45.3509 185.938 48.563 183.616 51.1516 183.521C50.8692 184.569 50.6809 185.579 50.3256 186.53C50.0903 187.193 49.8314 187.854 49.582 188.513L59.8561 184.709C60.4538 183.359 61.0492 182.012 61.6422 180.669C61.9458 179.975 62.1693 178.986 61.9128 178.346C60.4044 174.562 57.1593 173.657 53.9754 176.01Z" fill="white"/>
<path d="M94.1921 165.822L91.78 172.896L100.449 169.689C102.978 162.605 106.221 155.802 110.128 149.388C110.813 154.693 108.417 159.371 107.276 164.546C109.723 163.74 111.945 162.965 114.194 162.288C115.428 161.917 116.058 161.149 116.312 159.911C117.018 156.609 117.854 153.336 118.461 150.018C118.957 147.525 119.255 144.997 119.353 142.457C119.407 140.104 117.985 139.148 115.715 139.559C115.26 139.642 114.799 139.697 114.34 139.749C106.977 140.605 106.824 140.684 103.21 147.225C99.8798 153.267 96.9359 159.497 94.1921 165.822Z" fill="white"/>
<path d="M125.676 165.397C125.44 165.549 125.381 165.568 125.356 165.606C125.12 165.946 124.885 166.288 124.65 166.63C122.136 170.494 118.372 173.355 114.001 174.726C108.914 176.366 103.626 176.628 98.1359 177.087C98.4088 176.077 98.6959 175.076 98.9971 174.082L90.2667 177.315L79.9408 207.647C79.8435 208.659 80.0927 209.674 80.6467 210.523C82.3693 213.097 84.3083 215.515 86.2168 217.968C86.5863 218.443 87.2475 218.681 87.9676 219.156L96.5357 182.525C97.2416 182.627 97.6534 182.658 98.0511 182.748C101.708 183.588 105.346 184.519 109.027 185.263C116.237 186.72 122.623 185.109 127.852 179.711C128.297 179.252 128.756 178.403 128.638 177.861C127.739 173.716 126.69 169.592 125.676 165.397Z" fill="white"/>
<path d="M26.8641 200.787C26.2593 201.298 25.6522 201.802 25.0215 202.275C21.5246 204.89 17.8513 207.103 13.5096 208.063C11.6717 208.467 10.3445 208.063 9.49262 207.217L3.70605 209.356C4.22847 210.364 4.77755 211.354 5.35331 212.325C6.87113 214.897 9.52086 215.536 12.413 214.873C16.2958 213.984 19.7738 212.199 22.9319 209.81C23.8073 209.149 24.6662 208.467 25.5345 207.764L28.8149 200.06L26.8641 200.787Z" fill="white"/>
<path d="M32.1282 198.829L29.8338 204.219C29.8338 204.219 28.8195 207.012 31.481 211.217C32.4223 212.703 35.7945 217.457 36.8464 218.693C37.1405 217.526 41.1528 201.971 43.0236 194.795L32.1282 198.829Z" fill="white"/>
<path d="M62.0212 200.428C63.8096 201.954 65.4404 203.518 67.2594 204.835C68.8079 205.948 70.5351 205.936 72.1071 204.645C73.6249 203.399 75.2039 202.225 76.6605 200.911C78.0725 199.634 79.4609 198.31 80.8752 196.953L82.6071 191.871C79.4797 195.016 76.1123 197.935 72.8789 200.98C71.8176 201.98 71.0105 201.526 70.3304 200.559C69.6883 199.64 69.2428 198.595 69.0224 197.492C68.802 196.389 68.8115 195.252 69.0502 194.153C69.2597 193.102 70.3563 192.183 71.1681 191.325C72.06 190.393 73.0954 189.601 74.0697 188.75C76.7507 186.436 79.0843 183.74 80.9975 180.747L76.3617 182.463C74.5569 184.697 72.5599 186.765 70.3939 188.643C70.8246 187.134 71.2693 185.634 71.7611 184.158L62.0118 187.766C61.7247 189.554 61.5176 191.353 61.3787 193.162C61.1575 196.014 60.2163 197.916 57.9501 199.392C56.5688 200.293 55.2957 201.358 53.9496 202.311C53.5419 202.548 53.1134 202.746 52.6695 202.903L52.3283 202.632C52.7118 201.424 52.9919 200.167 53.5049 199.014C54.9168 195.784 56.3687 192.563 57.8089 189.342L47.8807 193.017C47.0971 195.075 46.3276 197.141 45.6216 199.228C44.9156 201.315 44.3273 203.542 44.2709 205.722C44.1767 209.385 47.7771 211.341 50.9375 209.511C52.2727 208.726 53.538 207.826 54.7191 206.82C57.2818 204.664 59.7668 202.413 62.0212 200.428Z" fill="white"/>
<path d="M2.16002 206.071L8.33722 203.784C8.35075 203.528 8.38062 203.272 8.42664 203.019C8.54665 202.354 8.68079 201.69 8.84551 201.037C10.4175 194.788 13.4766 189.278 17.03 184.02C19.8539 179.839 23.0684 175.974 27.0971 172.884C28.9797 171.444 31.0128 170.391 33.4508 170.431C34.6839 170.452 35.6981 170.819 35.9664 172.209C36.1876 173.355 36.9076 173.533 38.1737 173.286C38.7738 170.362 39.4256 167.384 39.9904 164.389C40.4963 161.696 39.7174 159.316 37.8725 157.358C37.3066 156.795 36.578 156.429 35.7922 156.312C32.5354 155.879 29.5797 156.954 26.8335 158.582C21.52 161.748 17.3665 166.162 13.7355 171.137C8.87611 177.793 4.79327 184.862 2.24709 192.741C1.20461 195.976 -0.106131 199.418 0.952818 202.793C1.29403 203.899 1.70349 204.992 2.16002 206.071Z" fill="white"/>
<path d="M78.7007 1.77914C80.9433 2.68951 83.2636 3.44301 85.4097 4.55542C87.8218 5.79857 90.2997 7.09163 92.3447 8.84582C94.9214 11.0493 97.7994 11.6364 100.96 12.0666C105.024 12.6204 109.196 13.0816 113.032 14.4435C121.355 17.4005 125.257 26.6706 122.626 35.3132C120.743 41.4933 116.821 45.5175 111.279 48.3532C104.746 51.6809 97.7288 53.0429 90.5703 53.8867C90.3353 53.9102 90.0983 53.9055 89.8644 53.8724C89.6289 53.811 89.3984 53.7315 89.1749 53.6348C92.94 51.8283 96.5546 50.1359 100.134 48.3793C105.68 45.6577 110.109 41.8213 112.371 35.8052C114.99 28.8645 111.738 21.5815 104.708 19.2093C102.383 18.4249 99.875 18.2039 97.2464 17.6857C98.2418 24.9972 96.9429 31.0751 89.3231 34.1223C89.7938 32.1994 90.535 30.4024 90.6551 28.565C91.1751 20.5832 87.1605 14.3342 79.6585 11.7457C69.1278 8.1161 58.7148 8.65566 48.8031 13.8541C44.0307 16.3546 40.4256 20.3099 39.6679 25.9765C39.3572 28.3083 39.9879 30.7708 40.1879 33.1621C37.4347 33.2857 33.4224 29.7844 32.893 26.3972C32.5611 24.1225 32.2882 23.8396 29.9726 24.0916C24.3814 24.6953 19.8185 27.2387 17.1476 32.2945C14.3049 37.6711 16.3875 45.0658 21.501 49.3657C24.1107 51.5549 28.4642 53.4707 32.3046 54.0436C29.8549 50.1311 31.0151 46.1996 31.9446 41.8356C33.2436 46.3232 33.3754 51.2483 39.3125 52.4106C35.938 47.2051 34.5026 42.097 38.536 36.4969C38.6136 37.21 38.6772 37.6854 38.7101 38.1489C38.9125 40.8658 39.3855 43.4923 41.0421 45.7551C43.3412 48.9022 49.3843 49.7841 52.3682 47.2812C54.7355 45.2964 54.8085 42.4987 54.5779 39.6892C54.5167 38.9357 54.2719 38.1988 54.1072 37.4572C53.5566 34.9852 53.7919 32.6819 55.7733 30.3834C56.5546 41.6002 63.2636 47.217 73.7284 49.8554C72.6906 50.3807 72.1446 50.8252 71.5422 50.9298C69.7232 51.2483 67.8853 51.6096 66.0498 51.6429C60.8178 51.7179 55.666 52.953 50.9586 55.2606C46.0851 57.6257 43.8448 61.4882 44.4049 66.9077C44.965 72.3271 45.8168 77.6943 46.4969 83.0876C46.6875 84.5898 46.7699 86.1063 46.9299 87.9057C49.7538 86.4296 52.42 85.0818 55.0414 83.6509C61.4281 80.1592 67.8053 80.4753 74.1966 83.6034C74.2743 83.6414 74.2978 83.7959 74.392 83.9837C65.7086 84.9487 57.9971 87.9722 52.1023 94.7275C49.5749 97.5601 47.8442 101.024 47.0899 104.761C62.32 91.8348 79.5008 85.3077 99.2373 85.3908C97.6582 76.3584 96.1239 67.5494 94.5614 58.605L102.722 57.0195C103.452 68.7213 104.174 80.3137 104.906 92.0511C103.172 91.9489 101.473 91.8134 99.7738 91.7539C93.3118 91.5163 87.1723 93.0375 81.1128 95.1577C70.2362 98.9609 60.4868 104.794 51.5657 112.034C48.2477 114.73 45.2779 117.862 42.1717 120.777C41.7952 114.47 41.3904 107.867 41.0092 101.262C40.5127 92.6192 40.1009 83.9742 39.5337 75.3363C38.8584 65.0584 34.7355 60.3211 24.7555 57.9846C22.4023 57.4307 19.9785 56.8912 17.75 55.9499C13.0906 53.9818 10.1703 50.1145 8.37712 45.5674C7.11344 42.3632 6.61691 38.8525 5.78857 35.4796C6.03645 34.2119 6.28197 32.9442 6.52513 31.6765C7.31581 30.1956 7.97236 28.6197 8.92306 27.2506C13.2953 20.9635 19.5125 17.9923 26.9393 17.4052C31.5046 17.0416 35.5521 15.6819 38.6042 12.0262C44.6285 4.78598 52.5753 1.39407 61.6846 0.543123C64.9391 0.238873 68.2359 0.405259 71.5163 0.352966L78.7007 1.77914Z" fill="white"/>
<path d="M76.9899 155.264C73.7425 151.021 72.8012 146.402 72.0693 141.544H81.7175C81.2375 146.393 79.955 150.885 76.9899 155.264Z" fill="white"/>
<path d="M106.549 129.833C105.928 134.349 101.908 138.563 97.136 139.516C89.7963 140.981 83.4261 138.772 77.7972 134.007C77.5619 133.812 77.3572 133.586 77.136 133.374C77.0749 133.336 77.0112 133.303 76.9453 133.275L76.2394 133.893C70.3281 138.944 63.6449 141.278 55.9687 139.262C51.2741 138.028 48.5726 134.618 47.2454 129.728C50.9964 132.039 54.4133 131.154 57.7431 129.265C59.828 128.076 61.8518 126.793 63.932 125.602C66.85 123.938 69.921 122.968 73.3049 123.855C73.9968 124.035 74.7639 124.218 75.3028 124.649C76.5147 125.618 77.4819 125.3 78.7291 124.625C81.8753 122.923 85.1463 123.18 88.2526 124.751C90.8599 126.07 93.3096 127.708 95.9005 129.067C97.3791 129.842 98.9305 130.465 100.532 130.929C102.64 131.542 104.645 130.921 106.549 129.833Z" fill="white"/>
<path d="M95.2957 110.406C96.7433 110.405 98.1313 109.824 99.1546 108.79C100.178 107.756 100.753 106.353 100.753 104.891H89.8386C89.8386 106.353 90.4135 107.756 91.4368 108.79C92.4602 109.824 93.8482 110.405 95.2957 110.406Z" fill="white"/>
</g>
<defs>
<clipPath id="clip0_68_101">
<rect width="128.102" height="218.808" fill="white" transform="translate(0.557373 0.352966)"/>
</clipPath>
</defs>
</svg>
