<svg width="129" height="219" viewBox="0 0 129 219" fill="none" xmlns="http://www.w3.org/2000/svg">
<path d="M72.9216 179.32C74.0026 176.794 75.4206 174.43 77.1362 172.293C77.8657 171.4 78.7693 170.126 80.0565 170.853C81.4073 171.616 80.5931 173.033 80.2377 174.09C79.8963 175.107 79.4882 176.1 79.0164 177.062L82.8333 175.657C83.4487 173.912 83.6893 172.055 83.5393 170.209C83.424 168.864 80.6189 165.16 77.468 164.666C74.0605 164.129 71.1849 164.92 69.1517 167.775C67.7233 169.779 66.3584 171.887 65.3536 174.128C64.0444 177.066 63.0199 180.126 62.2944 183.263L72.9216 179.32Z" fill="black"/>
<path d="M53.4181 175.657C53.211 175.811 53.018 175.985 52.8133 176.132C50.8107 177.694 48.8128 179.251 46.5184 181.029C46.7114 180.373 46.7702 180.078 46.8855 179.8C49.8906 172.747 52.7686 165.638 55.9807 158.681C57.0044 156.465 57.0467 154.851 55.3501 153.188C55.2778 153.113 55.211 153.034 55.15 152.95C53.2463 150.513 52.3921 150.261 51.1801 152.422L33.531 193.9L43.5934 190.175C43.8005 189.383 44.0068 188.595 44.2123 187.813C44.7935 185.585 48.0057 183.263 50.5942 183.168C50.3118 184.216 50.1236 185.226 49.7682 186.177C49.5329 186.84 49.274 187.501 49.0246 188.16L59.2988 184.356C59.8965 183.006 60.4918 181.659 61.0848 180.316C61.3884 179.622 61.612 178.633 61.3555 177.993C59.8471 174.209 56.602 173.304 53.4181 175.657Z" fill="black"/>
<path d="M93.6346 165.469L91.2225 172.543L99.8918 169.337C102.42 162.252 105.664 155.449 109.571 149.035C110.255 154.34 107.86 159.018 106.718 164.193C109.166 163.387 111.387 162.612 113.637 161.935C114.87 161.564 115.501 160.796 115.755 159.558C116.461 156.256 117.296 152.983 117.903 149.665C118.399 147.172 118.698 144.644 118.795 142.104C118.849 139.751 117.428 138.795 115.157 139.206C114.703 139.289 114.242 139.344 113.783 139.396C106.42 140.252 106.267 140.331 102.652 146.872C99.3223 152.914 96.3784 159.144 93.6346 165.469Z" fill="black"/>
<path d="M125.118 165.044C124.883 165.196 124.824 165.215 124.798 165.253C124.563 165.593 124.328 165.935 124.092 166.277C121.579 170.141 117.815 173.002 113.444 174.373C108.356 176.013 103.069 176.275 97.5786 176.734C97.8516 175.724 98.1387 174.723 98.4399 173.729L89.7094 176.962L79.3835 207.294C79.2862 208.306 79.5354 209.321 80.0895 210.17C81.812 212.744 83.7511 215.162 85.6596 217.615C86.029 218.09 86.6903 218.328 87.4104 218.803L95.9784 182.172C96.6844 182.274 97.0962 182.305 97.4939 182.396C101.151 183.235 104.789 184.166 108.469 184.91C115.68 186.367 122.066 184.756 127.295 179.358C127.74 178.899 128.199 178.05 128.081 177.509C127.182 173.363 126.133 169.239 125.118 165.044Z" fill="black"/>
<path d="M26.3067 200.434C25.7019 200.945 25.0948 201.449 24.4641 201.922C20.9673 204.537 17.2939 206.75 12.9522 207.71C11.1143 208.114 9.78711 207.71 8.93525 206.864L3.14868 209.003C3.6711 210.011 4.22018 211.001 4.79593 211.972C6.31376 214.544 8.96349 215.183 11.8556 214.52C15.7384 213.631 19.2165 211.846 22.3745 209.457C23.2499 208.796 24.1088 208.114 24.9771 207.411L28.2575 199.707L26.3067 200.434Z" fill="black"/>
<path d="M31.5708 198.476L29.2764 203.867C29.2764 203.867 28.2622 206.659 30.9237 210.864C31.8649 212.35 35.2371 217.104 36.289 218.34C36.5831 217.173 40.5954 201.618 42.4662 194.442L31.5708 198.476Z" fill="black"/>
<path d="M61.4638 200.075C63.2523 201.601 64.883 203.165 66.7021 204.482C68.2505 205.595 69.9777 205.583 71.5497 204.292C73.0675 203.046 74.6465 201.872 76.1032 200.558C77.5151 199.281 78.9035 197.957 80.3178 196.6L82.0498 191.518C78.9223 194.663 75.5549 197.582 72.3216 200.627C71.2603 201.627 70.4531 201.173 69.773 200.206C69.1309 199.287 68.6854 198.242 68.465 197.139C68.2446 196.036 68.2541 194.899 68.4929 193.8C68.7023 192.75 69.7989 191.83 70.6108 190.972C71.5026 190.04 72.5381 189.248 73.5123 188.397C76.1933 186.083 78.527 183.387 80.4402 180.394L75.8043 182.11C73.9996 184.344 72.0025 186.412 69.8366 188.29C70.2672 186.781 70.712 185.281 71.2038 183.805L61.4544 187.413C61.1673 189.201 60.9602 191 60.8214 192.809C60.6002 195.661 59.6589 197.563 57.3927 199.039C56.0114 199.94 54.7383 201.005 53.3923 201.958C52.9845 202.195 52.556 202.393 52.1121 202.55L51.7709 202.279C52.1545 201.071 52.4345 199.814 52.9475 198.661C54.3594 195.431 55.8114 192.21 57.2515 188.989L47.3233 192.664C46.5397 194.722 45.7702 196.788 45.0642 198.875C44.3583 200.962 43.77 203.189 43.7135 205.369C43.6193 209.032 47.2198 210.988 50.3801 209.158C51.7154 208.373 52.9806 207.473 54.1618 206.467C56.7244 204.311 59.2094 202.06 61.4638 200.075Z" fill="black"/>
<path d="M1.60252 205.718L7.77972 203.432C7.79325 203.175 7.82312 202.919 7.86915 202.666C7.98916 202.001 8.12329 201.337 8.28802 200.684C9.85997 194.435 12.9192 188.925 16.4725 183.667C19.2964 179.486 22.5109 175.621 26.5396 172.531C28.4222 171.091 30.4553 170.038 32.8933 170.078C34.1264 170.1 35.1406 170.466 35.4089 171.856C35.6301 173.002 36.3502 173.18 37.6162 172.933C38.2163 170.009 38.8681 167.031 39.4329 164.036C39.9388 161.343 39.1599 158.963 37.315 157.005C36.7491 156.442 36.0205 156.076 35.2347 155.959C31.9779 155.526 29.0222 156.601 26.276 158.229C20.9625 161.395 16.809 165.809 13.178 170.784C8.31861 177.44 4.23578 184.509 1.68959 192.388C0.647117 195.623 -0.663626 199.065 0.395323 202.44C0.736539 203.546 1.146 204.639 1.60252 205.718Z" fill="black"/>
<path d="M78.1433 1.42617C80.386 2.33654 82.7062 3.09004 84.8524 4.20245C87.2644 5.4456 89.7423 6.73866 91.7873 8.49285C94.3641 10.6963 97.2421 11.2834 100.402 11.7136C104.466 12.2675 108.639 12.7286 112.474 14.0906C120.798 17.0475 124.699 26.3176 122.069 34.9602C120.186 41.1403 116.263 45.1645 110.721 48.0002C104.189 51.3279 97.1715 52.6899 90.013 53.5337C89.7779 53.5573 89.5409 53.5525 89.307 53.5195C89.0715 53.458 88.841 53.3786 88.6175 53.2818C92.3827 51.4753 95.9972 49.7829 99.5765 48.0263C105.123 45.3047 109.552 41.4683 111.813 35.4523C114.432 28.5116 111.18 21.2286 104.151 18.8564C101.826 18.072 99.3176 17.8509 96.6891 17.3327C97.6845 24.6443 96.3855 30.7221 88.7658 33.7694C89.2364 31.8464 89.9777 30.0494 90.0977 28.2121C90.6177 20.2302 86.6032 13.9812 79.1011 11.3927C68.5704 7.76313 58.1575 8.3027 48.2457 13.5011C43.4734 16.0016 39.8682 19.9569 39.1105 25.6236C38.7999 27.9553 39.4305 30.4179 39.6306 32.8091C36.8773 32.9327 32.8651 29.4314 32.3356 26.0443C32.0038 23.7695 31.7308 23.4867 29.4152 23.7386C23.824 24.3424 19.2611 26.8857 16.5902 31.9415C13.7475 37.3182 15.8301 44.7129 20.9436 49.0128C23.5534 51.2019 27.9068 53.1178 31.7473 53.6906C29.2976 49.7782 30.4577 45.8467 31.3872 41.4826C32.6862 45.9703 32.818 50.8953 38.7552 52.0577C35.3806 46.8521 33.9452 41.7441 37.9786 36.1439C38.0563 36.857 38.1198 37.3324 38.1527 37.7959C38.3551 40.5128 38.8281 43.1393 40.4848 45.4022C42.7839 48.5493 48.8269 49.4311 51.8108 46.9282C54.1782 44.9434 54.2511 42.1458 54.0205 39.3362C53.9593 38.5827 53.7146 37.8459 53.5498 37.1042C52.9992 34.6322 53.2345 32.3289 55.2159 30.0304C55.9972 41.2473 62.7062 46.864 73.171 49.5024C72.1332 50.0277 71.5873 50.4722 70.9848 50.5768C69.1658 50.8953 67.3279 51.2566 65.4924 51.2899C60.2604 51.365 55.1087 52.6 50.4012 54.9076C45.5277 57.2727 43.2875 61.1352 43.8475 66.5547C44.4076 71.9741 45.2595 77.3413 45.9395 82.7346C46.1301 84.2368 46.2125 85.7533 46.3725 87.5527C49.1964 86.0766 51.8626 84.7289 54.4841 83.2979C60.8707 79.8062 67.2479 80.1223 73.6393 83.2504C73.7169 83.2884 73.7405 83.4429 73.8346 83.6307C65.1512 84.5958 57.4397 87.6193 51.5449 94.3746C49.0175 97.2071 47.2868 100.671 46.5325 104.408C61.7626 91.4818 78.9434 84.9547 98.6799 85.0379C97.1009 76.0055 95.5666 67.1965 94.004 58.252L102.165 56.6666C102.894 68.3683 103.617 79.9607 104.349 91.6981C102.614 91.5959 100.915 91.4604 99.2164 91.401C92.7545 91.1633 86.6149 92.6845 80.5554 94.8048C69.6788 98.6079 59.9294 104.441 51.0084 111.681C47.6903 114.377 44.7206 117.509 41.6143 120.424C41.2378 114.118 40.8331 107.514 40.4518 100.909C39.9553 92.2662 39.5435 83.6212 38.9764 74.9834C38.301 64.7054 34.1781 59.9682 24.1981 57.6316C21.8449 57.0778 19.4211 56.5382 17.1926 55.5969C12.5332 53.6288 9.61289 49.7615 7.81974 45.2144C6.55606 42.0103 6.05953 38.4995 5.2312 35.1266C5.47907 33.8589 5.72459 32.5912 5.96776 31.3235C6.75844 29.8426 7.41499 28.2667 8.36569 26.8976C12.738 20.6106 18.9552 17.6394 26.3819 17.0523C30.9472 16.6886 34.9947 15.329 38.0468 11.6732C44.0711 4.43302 52.0179 1.04111 61.1272 0.190156C64.3817 -0.114094 67.6786 0.052293 70.959 0L78.1433 1.42617Z" fill="black"/>
<path d="M76.4325 154.911C73.1851 150.668 72.2438 146.05 71.512 141.191H81.1602C80.6801 146.04 79.3976 150.532 76.4325 154.911Z" fill="black"/>
<path d="M105.991 129.48C105.37 133.996 101.351 138.21 96.5785 139.163C89.2388 140.628 82.8686 138.419 77.2397 133.654C77.0044 133.459 76.7997 133.233 76.5785 133.021C76.5174 132.983 76.4537 132.95 76.3878 132.922L75.6819 133.54C69.7706 138.591 63.0874 140.925 55.4112 138.909C50.7166 137.676 48.0151 134.265 46.6879 129.375C50.4389 131.686 53.8558 130.801 57.1856 128.912C59.2705 127.723 61.2943 126.44 63.3745 125.249C66.2925 123.585 69.3635 122.615 72.7474 123.502C73.4393 123.682 74.2064 123.865 74.7453 124.296C75.9572 125.265 76.9244 124.947 78.1716 124.272C81.3178 122.57 84.5888 122.827 87.6951 124.398C90.3024 125.717 92.7521 127.355 95.343 128.714C96.8216 129.489 98.373 130.112 99.9741 130.576C102.083 131.189 104.088 130.568 105.991 129.48Z" fill="black"/>
<path d="M94.7382 110.053C96.1858 110.052 97.5738 109.471 98.5971 108.437C99.6205 107.403 100.195 106.001 100.195 104.538H89.2811C89.2811 106.001 89.856 107.403 90.8793 108.437C91.9027 109.471 93.2907 110.052 94.7382 110.053V110.053Z" fill="black"/>
</svg>
