<svg width="500" height="560" viewBox="0 0 500 560" fill="none" xmlns="http://www.w3.org/2000/svg">
<g clip-path="url(#clip0_39_560)">
<path d="M463.376 386.771L462.415 401.527L487.538 400.221C487.538 400.221 485.606 393.528 480.359 391.739C475.113 389.95 463.376 386.771 463.376 386.771Z" fill="#B2AFAB"/>
<path d="M461.967 401.964L462.997 386.24L463.485 386.373C463.602 386.405 475.291 389.574 480.489 391.345C485.876 393.187 487.858 399.827 487.93 400.106L488.076 400.607L461.967 401.964ZM463.757 387.304L462.854 401.09L486.966 399.837C486.402 398.281 484.379 393.549 480.222 392.128C475.652 390.568 466.04 387.924 463.757 387.304Z" fill="black"/>
<path d="M435.029 382.012C435.029 382.012 435.908 373.671 435.908 369.809C447.503 368.293 466 368.431 466 368.431C466 368.431 470.831 384.152 467.656 399.045C447.633 395.873 433.286 388.426 433.286 388.426L435.029 382.012Z" fill="#F9C89F"/>
<path d="M466 368.431C466 368.431 464.69 370.875 463.371 372.173C464.959 378.048 465.537 389.689 459.07 397.369C461.794 397.997 464.656 398.57 467.656 399.045C470.831 384.148 466 368.431 466 368.431Z" fill="#ECA77F"/>
<path d="M467.978 399.512L467.591 399.451C447.74 396.305 433.24 388.865 433.095 388.791L432.799 388.631L434.62 381.925C434.68 381.349 435.493 373.474 435.493 369.801V369.438L435.854 369.39C447.344 367.887 465.809 368.007 466.003 368.007H466.306L466.396 368.296C466.444 368.456 471.221 384.291 468.062 399.118L467.978 399.512ZM433.775 388.205C435.924 389.27 449.38 395.671 467.331 398.574C470.054 385.168 466.311 371.032 465.689 368.842C463.246 368.842 446.947 368.831 436.32 370.174C436.27 374.149 435.449 381.973 435.441 382.055L435.428 382.119L433.775 388.205Z" fill="#87402C"/>
<path d="M447.812 373.086C438.446 374.207 431.905 371.43 428.282 366.672C424.658 361.914 414.927 356.43 414.099 354.365C413.27 352.301 400.745 331.713 401.573 329.749C402.402 327.786 409.544 325.302 415.548 333.161C420 338.54 420.622 342.78 420.622 342.78C420.622 342.78 424.969 342.884 428.697 344.54C432.424 346.197 435.529 345.574 435.529 345.574C435.529 345.574 433.217 339.68 433.286 332.336C430.871 330.37 426.523 324.476 425.797 322.511C422.382 325.712 413.581 328.613 406.543 326.958C399.504 325.304 400.071 319.076 404.369 318.166C414.621 315.994 422.278 309.168 426.523 310.306C430.768 311.444 439.152 317.857 439.152 317.857C436.772 313.099 436.461 305.548 436.461 305.548C436.461 305.548 433.562 300.79 431.801 298.102C430.041 295.413 421.246 289.94 424.194 285.07C427.141 280.2 439.152 286.51 445.571 298.929C450.229 307.824 450.125 312.995 452.818 315.994C453.646 310.306 454.37 305.342 453.749 300.48C453.127 295.618 445.984 286.001 451.058 282.794C456.131 279.587 464.514 296.557 465.343 301.307C466.173 306.057 465.343 317.132 465.343 317.132C465.343 317.132 468.967 310.823 468.449 300.894C467.932 290.965 466.897 283.13 471.038 282.394C475.179 281.658 478.077 293.654 478.596 298.102C479.115 302.549 477.974 318.891 477.974 318.891C477.974 318.891 480.832 330.37 478.73 344.747C476.629 359.123 468.227 368.844 463.725 372.153L447.812 373.086Z" fill="#F9C89F"/>
<path d="M444.652 334.232C444.652 334.232 440.538 345.675 444.652 349.498C448.765 353.322 454.644 356.839 454.644 356.839C454.644 356.839 455.19 350.611 458.593 347.299C461.995 343.988 465.124 339.368 465.22 337.073C465.316 334.778 448.765 330.817 444.652 334.232Z" fill="#ECA77F"/>
<path d="M453.854 317.492C452.462 318.049 450.229 307.822 445.571 298.927C439.324 286.83 427.753 280.536 424.44 284.726C427.55 284.62 429.631 285.804 432.056 287.4C436.392 290.253 440.161 295.13 442.789 299.448C447.4 307.027 449.553 318.335 453.854 317.492Z" fill="#ECA77F"/>
<path d="M425.797 322.509C426.523 324.475 430.87 330.369 433.286 332.334C433.277 335.857 433.736 339.365 434.651 342.767C434.391 335.538 435.841 333.538 435.027 330.676C431.423 326.786 428.713 322.514 427.49 318.583C417.897 323.194 409.887 325.465 401.311 322.807C401.735 324.516 403.35 326.206 406.542 326.957C413.581 328.615 422.382 325.715 425.797 322.509Z" fill="#ECA77F"/>
<path d="M417.342 353.274C414.025 347.122 404.502 332.435 403.79 328.147C402.621 328.536 401.812 329.165 401.567 329.748C400.739 331.712 413.261 352.294 414.092 354.364C414.924 356.433 424.652 361.913 428.275 366.671C431.799 371.294 438.081 374.032 447.027 373.159C442.135 372.213 437.416 370.492 433.901 366.978C427.282 360.36 425.631 359.893 417.342 353.274Z" fill="#ECA77F"/>
<path d="M464.794 318.918C465.499 315.315 465.95 304.791 465.343 301.306C464.515 296.549 456.131 279.587 451.057 282.792C450.955 282.858 450.867 282.928 450.774 282.997C453.893 283.216 455.461 286.86 457.234 289.652C458.647 291.878 459.235 294.397 460.549 296.965C463.509 302.757 464.257 316.461 464.794 318.918Z" fill="#ECA77F"/>
<path d="M477.974 318.889C477.974 318.889 479.113 302.548 478.596 298.1C478.078 293.653 475.179 281.654 471.038 282.392C470.697 282.458 470.371 282.586 470.077 282.77C473.739 283.714 474.85 290.826 475.461 295.344C476.483 302.9 474.637 311.102 474.359 318.918C476.291 332.917 475.946 351.267 463.378 372.173L463.732 372.152C468.233 368.842 476.635 359.121 478.737 344.745C480.838 330.369 477.974 318.889 477.974 318.889Z" fill="#ECA77F"/>
<path d="M437.155 373.023C433.31 371.888 430.166 369.822 427.952 366.923C426.017 364.38 422.185 361.543 419.116 359.262C416.333 357.199 414.136 355.57 413.714 354.517C413.479 353.93 412.191 351.662 410.558 348.793C403.907 337.095 400.627 330.915 401.191 329.588C401.628 328.551 403.254 327.658 405.142 327.418C405.571 327.364 406.003 327.344 406.435 327.355C402.224 326.361 400.747 323.852 400.769 321.834C400.792 319.816 402.203 318.201 404.282 317.759C409.208 316.716 413.636 314.535 417.192 312.781C421.161 310.825 424.296 309.279 426.629 309.9C429.954 310.791 435.625 314.746 438.145 316.585C436.434 312.168 436.096 306.547 436.051 305.667C435.643 304.996 433.059 300.771 431.455 298.321C431.01 297.641 430.05 296.737 428.94 295.69C425.804 292.736 421.511 288.69 423.84 284.849C424.606 283.586 425.937 282.943 427.705 283.01C432.759 283.183 440.962 289.109 445.938 298.732C448.307 303.257 449.441 306.787 450.354 309.626C451.082 311.891 451.636 313.627 452.547 314.968C453.315 309.673 453.917 305.046 453.339 300.526C453.146 299.019 452.283 296.989 451.368 294.84C449.366 290.135 447.098 284.801 450.837 282.439C451.759 281.855 452.818 281.819 453.978 282.333C458.995 284.556 465.045 297.169 465.752 301.231C466.357 304.713 466.096 311.396 465.901 314.899C466.916 312.308 468.373 307.366 468.036 300.909C467.974 299.726 467.905 298.574 467.839 297.46C467.326 288.888 466.955 282.695 470.964 281.981C471.701 281.848 472.435 282.048 473.141 282.573C476.536 285.094 478.628 294.799 479.006 298.047C479.511 302.388 478.479 317.572 478.391 318.852C478.617 319.813 481.148 331.068 479.139 344.804C478.164 351.355 475.817 357.626 472.251 363.209C468.121 370.353 463.724 372.149 463.724 372.149C465.749 370.379 475.972 360.733 478.319 344.683C480.385 330.55 477.598 319.099 477.571 318.985L477.555 318.921V318.857C477.566 318.697 478.676 302.503 478.178 298.145C477.713 294.154 475.546 285.396 472.64 283.239C472.118 282.85 471.612 282.708 471.104 282.797C467.82 283.381 468.19 289.573 468.659 297.412C468.727 298.532 468.795 299.683 468.856 300.867C469.375 310.804 465.846 317.071 465.696 317.334L464.787 318.915L464.925 317.097C464.933 316.986 465.739 306.027 464.925 301.373C464.224 297.343 458.241 285.132 453.63 283.092C452.725 282.69 451.953 282.706 451.267 283.14C448.123 285.126 450.247 290.116 452.12 294.518C453.057 296.722 453.941 298.803 454.149 300.422C454.776 305.334 454.055 310.289 453.22 316.025L453.092 316.9L452.498 316.26C451.107 314.709 450.455 312.681 449.553 309.874C448.652 307.067 447.53 303.572 445.193 299.11C440.418 289.877 432.378 283.993 427.665 283.833C426.191 283.783 425.147 284.268 424.538 285.273C422.555 288.543 426.568 292.315 429.504 295.083C430.651 296.165 431.644 297.1 432.144 297.863C433.887 300.528 436.78 305.275 436.809 305.323L436.865 305.412V305.52C436.865 305.595 437.2 313.041 439.513 317.66L440.314 319.261L438.89 318.172C438.806 318.108 430.52 311.796 426.404 310.692C424.368 310.146 421.36 311.633 417.546 313.512C413.948 315.285 409.471 317.492 404.442 318.558C402.751 318.916 401.604 320.232 401.585 321.832C401.567 323.532 402.881 325.662 406.626 326.542C413.687 328.204 422.377 325.129 425.503 322.196L425.959 321.768L426.175 322.354C426.89 324.294 431.191 330.095 433.536 332.003L433.696 332.128V332.328C433.629 339.507 435.888 345.353 435.912 345.411L436.091 345.87L435.611 345.968C435.478 345.995 432.333 346.595 428.529 344.905C424.924 343.305 420.654 343.183 420.61 343.183H420.263L420.211 342.838C420.211 342.796 419.542 338.633 415.23 333.422C411.17 328.109 406.9 328.023 405.247 328.236C403.47 328.461 402.224 329.265 401.955 329.906C401.521 331.22 408.111 342.81 411.278 348.381C412.99 351.392 414.227 353.567 414.482 354.208C414.816 355.042 417.144 356.769 419.608 358.595C422.723 360.906 426.603 363.783 428.61 366.419C432.455 371.467 439.274 373.834 447.811 373.083C447.812 373.087 443.846 374.375 437.155 373.023ZM420.966 342.378C422.071 342.437 425.661 342.735 428.865 344.158C430.777 345.019 432.874 345.386 434.965 345.225C433.596 341.13 432.889 336.842 432.871 332.525C430.568 330.566 426.808 325.552 425.647 323.191C422.196 326.072 415.151 328.325 408.945 327.755C410.996 328.359 413.487 329.777 415.878 332.907C419.678 337.5 420.724 341.258 420.966 342.378Z" fill="#87402C"/>
<path d="M420.21 346.352C420.326 345.181 420.326 344.002 420.21 342.831L421.033 342.74C421.243 344.619 420.21 346.352 420.21 346.352Z" fill="#87402C"/>
<path d="M436.946 352.31C436.946 352.273 436.488 348.583 435.154 345.749L435.904 345.396C437.847 349.759 436.946 352.31 436.946 352.31Z" fill="#87402C"/>
<path d="M469.929 323.687C461.481 318.191 449.295 316.754 439.614 320.112C439.614 320.112 444 317.492 449.728 317.505C453.432 317.409 457.131 317.84 460.714 318.785C467.499 320.933 469.929 323.687 469.929 323.687Z" fill="#87402C"/>
<path d="M454.987 352.89C455.627 351.243 456.425 349.662 457.369 348.168C460.413 343.191 463.709 342.713 463.709 342.713C457.1 346.918 453.047 357.702 454.367 363.582C454.361 363.582 452.025 360.623 454.987 352.89Z" fill="#87402C"/>
<path d="M368.324 369.809C376.697 374.498 417.831 418.903 423.353 420.557C427.216 411.181 428.319 398.88 428.319 398.88L483.531 417.8C476.906 431.59 478.838 461.102 458.409 476.27C437.98 491.439 429.698 486.476 417 481.231C404.301 475.987 371.725 458.064 363.719 443.446L351.019 430.483L353.664 389.663L368.324 369.809Z" fill="white"/>
<path d="M465.628 412.102C470.729 430.027 453.484 474.214 437.494 472.456C430.414 472.042 368.571 462.59 353.244 396.118L351.024 430.488L363.724 443.451C371.733 458.069 404.305 475.996 417.004 481.236C429.704 486.476 437.989 491.442 458.413 476.275C478.838 461.108 476.911 431.595 483.536 417.805L465.628 412.102Z" fill="#D6D3D0"/>
<path d="M434.837 486.85C429.312 486.85 424.533 484.844 419.039 482.529C418.319 482.227 417.586 481.921 416.839 481.611C406.025 477.149 371.908 459.162 363.383 443.693L350.593 430.638L350.604 430.454L353.257 389.513L368.203 369.265L368.523 369.442C372.698 371.781 384.888 383.846 396.676 395.508C408.071 406.783 419.838 418.427 423.119 420.015C426.792 410.851 427.893 398.958 427.904 398.837L427.952 398.312L484.105 417.553L483.903 417.973C481.82 422.315 480.553 428.401 479.214 434.844C476.316 448.796 472.71 466.159 458.655 476.597C448.336 484.266 441.105 486.85 434.837 486.85ZM351.444 430.329L364.081 443.251C371.993 457.698 404.806 475.757 417.157 480.86C417.904 481.169 418.638 481.475 419.359 481.779C430.835 486.599 439.125 490.08 458.16 475.945C471.964 465.703 475.535 448.503 478.404 434.689C479.711 428.398 480.947 422.444 482.959 418.045L428.676 399.443C428.413 401.898 427.124 412.485 423.731 420.719L423.588 421.065L423.229 420.957C420.328 420.088 408.558 408.439 396.093 396.107C384.632 384.765 372.789 373.045 368.432 370.359L354.068 389.815L351.444 430.329Z" fill="#72716F"/>
<path d="M432.881 442.025C432.751 441.455 432.618 440.745 432.466 439.945C431.492 434.804 429.68 425.235 423.117 420.9L423.574 420.21C427.433 422.756 429.707 426.973 431.136 431.112C431.474 432.09 431.83 433.417 432.168 434.802C433.132 438.37 432.881 442.025 432.881 442.025Z" fill="#72716F"/>
<path d="M422.469 443.552C425.512 431.939 422.76 420.69 422.733 420.577L423.534 420.376C423.553 420.452 424.79 425.498 424.721 432.346C424.721 439.508 422.469 443.552 422.469 443.552Z" fill="#72716F"/>
<path d="M469.084 390.017C469.601 390.121 484.017 395.012 483.533 397.184C483.049 399.355 467.262 398.005 454.058 393.459C438.736 388.178 433.285 381.98 434.492 378.981C428.798 379.808 423.38 396.305 428.315 402.769C432.948 408.836 478.179 424.075 485.22 421.076C492.26 418.077 493.695 399.527 491.845 397.494C485.633 390.667 469.073 385.182 469.073 385.182L469.084 390.017Z" fill="white"/>
<path d="M491.847 397.494C489.588 395.012 485.96 392.709 482.258 390.772C484.01 392.005 485.638 393.298 484.584 395.932C484.309 396.341 483.946 396.683 483.522 396.934C483.54 397.013 483.54 397.096 483.522 397.176C483.256 398.368 478.371 398.496 471.837 397.619C468.433 414.311 450.889 413.508 435.857 409.062C444.688 412.988 449.374 419.455 468.523 423.657C476.143 425.33 481.857 425.066 484.097 424.32C491.853 421.746 493.697 399.527 491.847 397.494Z" fill="#D6D3D0"/>
<path d="M480.723 425.288C472.374 425.784 465.433 423.406 455.709 420.213C443.714 416.273 430.508 406.322 427.987 403.02C424.85 398.91 425.784 391.251 427.987 385.872C429.717 381.636 432.129 378.907 434.441 378.571L434.958 378.496L434.899 379.136C434.899 379.815 434.729 380.437 435.101 381.252C436.474 384.257 442.213 388.934 454.2 393.066C466.375 397.256 480.499 398.637 482.919 397.28C483.063 397.2 483.124 397.12 483.132 397.091C483.461 395.609 470.927 390.745 469.109 390.323L469.087 389.463C469.585 389.563 482.073 393.856 483.741 396.412C483.83 396.534 483.894 396.673 483.928 396.821C483.962 396.968 483.966 397.121 483.94 397.27C483.896 397.43 483.819 397.578 483.713 397.704C483.607 397.831 483.474 397.933 483.324 398.003C480.441 399.615 465.668 397.889 453.931 393.842C443.54 390.264 436.219 385.68 434.348 381.589C434.033 380.955 433.893 380.248 433.94 379.541C432.122 380.218 430.185 382.673 428.754 386.175C426.645 391.342 425.711 398.658 428.652 402.508C430.225 404.566 437.18 410.366 446.606 415.249C449.516 416.758 452.647 418.424 455.948 419.552C470.365 424.478 480.537 426.274 485.864 422.928C489.244 420.805 490.523 413.213 491.262 409.832C492.574 403.83 492.302 398.592 491.545 397.761C485.481 391.096 469.245 385.838 469.08 385.786L469.068 384.915C469.744 385.131 485.944 390.376 492.159 397.206C493.324 398.486 493.28 404.467 492.071 410.009C491.299 413.548 490.137 420.116 486.97 423.076C486.384 423.629 482.879 425.346 480.723 425.288Z" fill="#72716F"/>
<path d="M202.495 348.98C189.039 356.639 149.076 412.698 140.588 428.108C138.931 415.076 130.856 396.563 130.856 396.563L79.9158 428.108C79.9158 428.108 94.6756 470.581 112.836 485.096C130.436 499.162 153.419 495.44 158.388 481.374C163.357 467.308 188.202 407.527 188.202 407.527L202.495 348.98Z" fill="white"/>
<path d="M132.154 453.862C136.299 446.407 137.92 442.979 138.755 434.7C140.919 440.666 142.354 447.887 141.525 457.827C143.953 448.545 142.901 437.443 140.588 428.108C140.029 429.048 141.002 427.354 140.588 428.108C138.931 415.076 130.856 396.563 130.856 396.563L122.257 405.603C132.602 417.642 136.745 437.042 132.154 453.862Z" fill="#D6D3D0"/>
<path d="M170.346 441.499C162.892 453.91 154.487 472.066 142.894 476.201C115.082 487.316 89.6937 449.084 83.6625 425.309L79.9221 428.111C79.9221 428.111 94.682 470.584 112.843 485.1C130.443 499.165 153.425 495.443 158.394 481.377C163.363 467.311 188.209 407.53 188.209 407.53L191.119 395.601C177.894 406.496 178.751 426.504 170.346 441.499Z" fill="#D6D3D0"/>
<path d="M136.958 494.387C128.658 494.387 119.861 491.236 112.583 485.425C94.5379 471.002 79.6787 428.675 79.5313 428.249L79.4224 427.929L131.045 395.959L131.236 396.398C131.314 396.577 138.864 413.986 140.828 426.841C149.986 410.939 188.8 356.302 202.289 348.62L203.126 348.14L188.611 407.617C188.342 408.276 163.693 467.609 158.784 481.504C156.789 487.153 151.961 491.328 145.193 493.262C142.514 494.017 139.742 494.396 136.958 494.387ZM80.4235 428.291C81.8172 432.189 96.0565 471.157 113.102 484.784C122.653 492.418 134.862 495.366 144.966 492.484C151.469 490.626 156.099 486.636 158.003 481.248C162.92 467.324 187.578 407.977 187.826 407.378L201.854 349.874C188.002 359.058 149.815 412.227 140.95 428.319L140.336 429.44L140.176 428.179C138.688 416.462 131.888 400.071 130.665 397.187L80.4235 428.291Z" fill="#72716F"/>
<path d="M141.525 457.827C141.808 456.128 144.181 440.85 140.192 428.233L140.982 427.983C142.976 434.29 143.405 441.241 143.293 446.877C143.309 454.513 141.525 457.827 141.525 457.827Z" fill="#72716F"/>
<path d="M132.154 453.862C137.709 444.259 140.077 427.639 140.099 427.471L140.919 427.586C140.124 432.786 138.979 437.927 137.491 442.972C135.309 450.824 132.154 453.862 132.154 453.862Z" fill="#72716F"/>
<path d="M70.2595 399.735C70.9163 399.459 81.7852 389.633 96.0725 383.841L100.213 388.91L100.957 403.699L76.4028 412.795L69.2583 408.556L68.3276 403.694L70.2595 399.735Z" fill="#B2AFAB"/>
<path d="M76.361 413.258L68.8866 408.822L67.895 403.641L69.9551 399.415L70.0896 399.357C70.205 399.291 70.6791 398.914 71.2286 398.478C74.4003 395.953 84.0437 388.268 95.9154 383.457L96.1989 383.343L100.62 388.753L101.386 403.98L76.361 413.258ZM69.6331 408.297L76.4459 412.341L100.532 403.414L99.8096 389.062L95.9474 384.336C84.3209 389.11 74.8681 396.631 71.7444 399.125C71.0812 399.651 70.7624 399.904 70.5782 400.027L68.76 403.756L69.6331 408.297Z" fill="#72716F"/>
<path d="M51.3491 355.399C57.9746 372.153 90.2752 376.423 92.9664 381.116C95.6576 385.808 92.9664 403.596 92.9664 403.596C92.9664 403.596 120.918 388.703 123.196 383.841C122.38 375.391 121.483 370.049 126.452 367.98C131.422 365.91 142.894 357.624 142.894 357.624L103.111 350.641L51.3491 355.399Z" fill="#F9C89F"/>
<path d="M135.594 356.342C129.587 361.525 120.384 363.268 116.71 367.807C114.252 370.848 118.366 381.045 115.632 390.27C119.5 387.672 122.51 385.309 123.196 383.841C122.38 375.391 121.483 370.049 126.452 367.98C131.421 365.91 142.894 357.623 142.894 357.623L135.594 356.342Z" fill="#ECA77F"/>
<path d="M103.111 350.641L56.9766 354.882C77.3687 366.927 108.426 367.749 128.703 355.133L103.111 350.641Z" fill="#ECA77F"/>
<path d="M92.433 404.349L92.5563 403.534C92.5835 403.358 95.1962 385.834 92.6076 381.321C91.7746 379.871 87.2989 378.264 82.1168 376.406C71.4866 372.592 55.4228 366.827 50.9647 355.551L50.7612 355.037L103.129 350.22L103.183 350.23L143.931 357.382L143.13 357.955C142.659 358.294 131.561 366.296 126.605 368.357C122.246 370.171 122.694 374.684 123.438 382.159L123.611 383.91L123.563 384.012C121.261 388.95 94.3072 403.353 93.1602 403.961L92.433 404.349ZM51.9498 355.759C56.5569 366.355 72.0761 371.923 82.4003 375.626C88.1671 377.697 92.3449 379.195 93.3284 380.908C95.7569 385.141 93.9948 399.247 93.4886 402.833C97.8474 400.479 120.481 388.098 122.768 383.755L122.619 382.236C121.865 374.65 121.366 369.638 126.291 367.589C130.403 365.877 139.159 359.758 141.848 357.851L103.092 351.048L51.9498 355.759Z" fill="#87402C"/>
<path d="M123.127 377.257C124.783 380.152 113.464 391.181 99.3852 397.942C85.3061 404.704 67.2239 408.836 70.2595 399.735C66.3941 402.073 66.5271 406.216 70.5318 418.352C74.5365 430.488 78.8136 432.831 86.5508 432.143C94.2879 431.454 132.24 412.973 134.447 398.493C134.731 395.742 132.418 387.729 130.169 382.634C127.337 376.222 123.127 377.257 123.127 377.257Z" fill="white"/>
<path d="M130.166 382.634C127.337 376.222 123.127 377.257 123.127 377.257C123.92 378.645 121.728 381.898 117.68 385.662C121.831 396.696 124.844 411.057 107.542 422.892C120.191 417.477 133.449 405.021 134.447 398.493C134.728 395.742 132.415 387.729 130.166 382.634Z" fill="#D6D3D0"/>
<path d="M84.1992 432.671C77.9774 432.671 73.8926 429.851 70.1425 418.482C66.008 405.947 65.9872 401.838 70.0448 399.381L71.006 398.797L70.6487 399.866C70.0977 401.517 70.2579 402.695 71.1373 403.468C74.6246 406.535 88.1527 402.873 99.2057 397.569C112.056 391.401 121.581 382.366 122.754 378.613C122.863 378.265 122.952 377.784 122.768 377.462L122.496 376.982L123.029 376.852C123.217 376.804 127.611 375.81 130.547 382.465C132.79 387.533 135.154 395.657 134.859 398.533C132.557 413.624 94.171 431.874 86.586 432.551C85.7498 432.627 84.9617 432.671 84.1992 432.671ZM69.5803 400.735C66.9083 403.059 67.3184 407.276 70.9291 418.222C74.9883 430.529 79.1901 432.384 86.5107 431.73C93.7913 431.09 131.844 412.794 134.036 398.432C134.311 395.743 131.937 387.676 129.788 382.801C127.667 378 124.778 377.576 123.678 377.611C123.728 378.032 123.682 378.459 123.543 378.859C122.169 383.27 111.622 392.528 99.563 398.315C88.417 403.673 74.4725 407.514 70.5927 404.089C69.6812 403.287 69.3432 402.162 69.5803 400.735Z" fill="#72716F"/>
<path d="M97.346 363.875C154.712 363.875 201.216 354.161 201.216 342.18C201.216 330.198 154.712 320.485 97.346 320.485C39.9801 320.485 -6.52417 330.198 -6.52417 342.18C-6.52417 354.161 39.9801 363.875 97.346 363.875Z" fill="white"/>
<path d="M200.721 341.832C200.721 351.476 154.702 361.13 97.3362 361.13C39.9707 361.13 -6.04858 351.348 -6.04858 342.18C-6.04858 330.198 39.9803 320.485 97.3458 320.485C154.711 320.485 200.721 329.852 200.721 341.832Z" fill="#DFE8ED"/>
<path d="M195.715 339.497C195.715 347.45 148.754 355.807 97.3459 355.807C45.9378 355.807 8.36694 342.858 8.36694 333.275C8.36694 330.222 50.633 326.589 102.041 326.589C153.449 326.589 195.715 327.68 195.715 339.497Z" fill="#C5D5DD"/>
<path d="M97.3459 364.35C38.8335 364.35 -7 354.612 -7 342.18C-7 329.748 38.8335 320.01 97.3459 320.01C155.858 320.01 201.692 329.748 201.692 342.18C201.692 354.612 155.858 364.35 97.3459 364.35ZM97.3459 320.962C69.6331 320.962 43.5831 323.214 23.9967 327.306C4.90209 331.294 -6.04847 336.714 -6.04847 342.18C-6.04847 347.645 4.90209 353.062 23.9967 357.063C43.5831 361.154 69.6331 363.407 97.3459 363.407C125.059 363.407 151.109 361.154 170.695 357.063C189.788 353.075 200.74 347.653 200.74 342.18C200.74 336.706 189.788 331.297 170.695 327.306C151.107 323.214 125.059 320.962 97.3459 320.962Z" fill="#556770"/>
<path d="M100.686 246.834C105.14 244.991 107.255 239.889 105.41 235.44C103.565 230.99 98.4593 228.877 94.0055 230.72C89.5517 232.563 87.4367 237.665 89.2815 242.114C91.1263 246.564 96.2324 248.677 100.686 246.834Z" fill="#DFE8ED"/>
<path d="M97.7159 231.769C98.0923 232.45 96.9614 233.796 95.1913 234.771C93.4212 235.746 91.6783 235.984 91.3019 235.302C90.9254 234.62 92.0548 233.275 93.8265 232.298C95.5981 231.322 97.3378 231.085 97.7159 231.769Z" fill="white"/>
<path d="M102.581 231.812C103.521 233.562 103.834 235.58 103.469 237.532C103.103 239.484 102.081 241.253 100.572 242.545C99.0623 243.838 97.1562 244.576 95.1694 244.637C93.1825 244.699 91.2341 244.081 89.6472 242.885C90.2615 244.038 91.1271 245.038 92.1801 245.811C93.2331 246.585 94.4467 247.112 95.7311 247.355C97.0155 247.597 98.338 247.548 99.6008 247.211C100.864 246.874 102.035 246.257 103.027 245.408C104.02 244.558 104.808 243.496 105.335 242.301C105.862 241.106 106.113 239.808 106.07 238.503C106.027 237.198 105.692 235.919 105.088 234.761C104.484 233.602 103.627 232.595 102.581 231.812Z" fill="#C5D5DD"/>
<path d="M97.3459 247.973C95.5254 247.973 93.7458 247.433 92.2321 246.423C90.7184 245.412 89.5387 243.976 88.842 242.296C88.1453 240.615 87.9631 238.766 88.3182 236.983C88.6734 235.199 89.55 233.56 90.8373 232.274C92.1246 230.988 93.7647 230.112 95.5502 229.758C97.3357 229.403 99.1864 229.585 100.868 230.281C102.55 230.977 103.988 232.155 104.999 233.668C106.011 235.18 106.55 236.958 106.55 238.777C106.548 241.215 105.577 243.552 103.852 245.276C102.126 247 99.7863 247.97 97.3459 247.973ZM97.3459 230.528C95.7136 230.528 94.118 231.012 92.7608 231.918C91.4036 232.824 90.3458 234.112 89.7211 235.618C89.0965 237.125 88.933 238.783 89.2515 240.382C89.5699 241.981 90.3559 243.451 91.5101 244.604C92.6643 245.757 94.1349 246.542 95.7358 246.86C97.3367 247.178 98.9961 247.015 100.504 246.391C102.012 245.767 103.301 244.71 104.208 243.354C105.115 241.998 105.599 240.404 105.599 238.773C105.595 236.588 104.725 234.493 103.178 232.948C101.631 231.403 99.5334 230.534 97.3459 230.531V230.528Z" fill="#556770"/>
<path d="M185.849 333.274C185.849 336.009 166.24 347.781 97.346 349.438C36.2512 350.91 8.85879 337.673 8.84277 333.274C8.84277 283.821 48.4673 243.73 97.346 243.73C146.225 243.73 185.849 283.82 185.849 333.274Z" fill="#DFE8ED"/>
<path d="M109.737 246.035C139.71 252.891 177.739 274.349 182.357 333.197C174.266 337.918 159.512 341.319 148.373 342.868C150.146 317.518 142.172 264.383 109.737 246.035Z" fill="#C5D5DD"/>
<path d="M83.9268 246.035C55.1071 252.006 14.885 276.789 11.9712 333.04C14.3436 335.181 21.5826 338.297 27.1476 339.506C31.5928 290.913 51.7703 260.733 83.9268 246.035Z" fill="white"/>
<path opacity="0.7" d="M79.0972 249.939C59.7014 262.198 36.9945 282.248 30.1641 340.277C32.3282 341.128 36.7062 342.119 40.0958 342.658C44.5395 294.069 57.9089 266.443 79.0972 249.939Z" fill="white"/>
<path d="M88.2135 350.026C42.0917 350.026 15.6476 341.3 9.57477 335.408C8.77383 334.634 8.37015 333.917 8.36694 333.275C8.36694 283.637 48.283 243.255 97.3459 243.255C146.409 243.255 186.325 283.637 186.325 333.274C186.325 336.99 164.422 348.301 97.3571 349.918C94.2291 349.991 91.1813 350.028 88.2135 350.026ZM97.3443 244.205C48.8068 244.205 9.31847 284.161 9.31847 333.274C9.31847 333.483 9.44021 333.954 10.2364 334.727C14.4974 338.862 39.6488 350.356 97.3331 348.97C167.885 347.272 185.37 334.972 185.37 333.286C185.372 284.161 145.883 244.205 97.3459 244.205H97.3443Z" fill="#556770"/>
<path d="M235.83 342.364C228.17 344.022 206.635 344.836 202.495 348.98C198.354 353.123 182.067 383.049 166.612 433.521C151.157 483.992 158.053 519.022 158.053 519.022C158.053 519.022 181.244 568.941 259.093 561.219C336.942 553.497 373.108 515.16 373.108 515.16C373.108 515.16 363.722 451.723 363.722 443.449C359.306 433.527 363.817 380.015 368.324 369.809C369.244 367.604 349.09 350.503 330.871 345.539C304.915 346.642 235.83 342.364 235.83 342.364Z" fill="white"/>
<path d="M241.861 358.198C251.368 365.611 265.675 369.388 277.734 367.072C281.803 360.73 283.539 352.366 283.587 344.795C269.849 344.238 256.538 343.545 247.474 343.034C245.421 348.013 241.467 352.688 241.861 358.198Z" fill="#ECA77F"/>
<path d="M363.717 443.449C361.598 438.687 361.185 423.214 362.189 407.985C358.862 413.629 354.619 436.529 351.018 465.314C349.166 480.132 340.785 486.53 338.659 490.371C335.963 495.238 348.815 491.407 347.572 497.333C341.767 527.981 280.664 550.06 237.257 547.529C302.501 586.521 373.098 515.16 373.098 515.16C373.098 515.16 363.717 451.723 363.717 443.449Z" fill="#D6D3D0"/>
<path d="M243.344 562.432C212.01 562.432 191.401 552.447 179.128 543.346C163.693 531.902 157.731 519.319 157.673 519.193L157.643 519.098C157.572 518.748 150.897 483.392 166.212 433.399C181.526 383.406 197.94 352.95 202.201 348.685C205.144 345.744 215.915 344.496 225.418 343.394C229.499 342.922 233.355 342.476 235.742 341.954L235.798 341.941H235.856C236.546 341.984 305.218 346.205 330.848 345.116H330.912L330.975 345.132C347.634 349.673 366.401 364.497 368.555 368.89C368.771 369.33 368.819 369.681 368.702 369.963C363.962 380.685 359.855 433.745 364.095 443.275L364.132 443.443C364.132 451.594 373.423 514.459 373.513 515.093L373.542 515.291L373.404 515.437C373.042 515.822 336.24 553.976 259.13 561.624C253.592 562.179 248.331 562.432 243.344 562.432ZM158.444 518.89C158.846 519.719 164.837 531.734 179.659 542.711C193.766 553.16 218.989 564.775 259.046 560.806C333.448 553.425 370.131 517.58 372.662 515.016C371.982 510.413 363.363 451.924 363.302 443.536C358.756 432.984 363.661 379.326 367.948 369.641C368.329 367.808 349.608 351.096 330.826 345.955C305.421 347.023 238.196 342.924 235.868 342.781C233.44 343.3 229.767 343.726 225.52 344.222C216.615 345.252 205.532 346.536 202.794 349.276C198.575 353.496 182.29 383.769 167.009 433.645C152.016 482.573 158.156 517.364 158.446 518.892L158.444 518.89Z" fill="#72716F"/>
<path d="M243.857 360.482C227.17 390.388 208.401 456.025 209.32 545.242V545.655L212.341 545.625C212.29 545.348 212.237 545.073 212.181 544.799L210.143 544.82C209.29 456.099 227.924 390.84 244.509 361.013C244.265 360.871 244.045 360.692 243.857 360.482Z" fill="#72716F"/>
<path d="M220.485 519.816C220.766 517.536 219.144 515.46 216.861 515.18C214.579 514.899 212.502 516.52 212.22 518.799C211.939 521.079 213.562 523.155 215.844 523.436C218.126 523.717 220.204 522.096 220.485 519.816Z" fill="#757D82"/>
<path d="M216.364 516.011C216.577 516.362 216.101 517.035 215.302 517.517C214.502 517.999 213.685 518.106 213.474 517.756C213.262 517.405 213.737 516.731 214.534 516.248C215.332 515.765 216.152 515.661 216.364 516.011Z" fill="#A8ADB0"/>
<path d="M218.602 515.805C219.284 516.97 219.292 519.7 217.57 520.892C215.758 522.149 213.136 521.473 212.415 520.609C212.625 521.239 212.983 521.809 213.458 522.272C213.934 522.735 214.515 523.078 215.15 523.27C215.786 523.463 216.459 523.501 217.112 523.38C217.765 523.259 218.38 522.984 218.905 522.577C219.429 522.169 219.848 521.642 220.127 521.04C220.406 520.437 220.536 519.777 220.506 519.114C220.476 518.451 220.288 517.805 219.957 517.229C219.625 516.654 219.16 516.167 218.602 515.808V515.805Z" fill="#596266"/>
<path d="M216.346 523.863C215.441 523.863 214.555 523.595 213.803 523.092C213.05 522.589 212.463 521.875 212.116 521.039C211.77 520.203 211.679 519.284 211.856 518.397C212.032 517.509 212.468 516.694 213.109 516.055C213.749 515.415 214.565 514.979 215.453 514.803C216.341 514.626 217.262 514.717 218.098 515.063C218.935 515.409 219.65 515.996 220.153 516.748C220.656 517.5 220.924 518.384 220.924 519.289C220.923 520.501 220.44 521.664 219.581 522.521C218.723 523.379 217.56 523.861 216.346 523.863ZM216.346 515.541C215.604 515.541 214.879 515.76 214.263 516.172C213.646 516.584 213.165 517.169 212.881 517.854C212.598 518.538 212.523 519.291 212.668 520.018C212.813 520.745 213.17 521.413 213.694 521.936C214.219 522.46 214.887 522.817 215.614 522.962C216.342 523.106 217.096 523.032 217.781 522.749C218.466 522.465 219.052 521.985 219.464 521.369C219.876 520.753 220.096 520.028 220.096 519.287C220.095 518.294 219.7 517.341 218.997 516.639C218.294 515.937 217.34 515.542 216.346 515.541Z" fill="#373C3F"/>
<path d="M264.322 527.933C266.56 527.405 267.946 525.165 267.418 522.929C266.889 520.693 264.647 519.309 262.409 519.836C260.171 520.364 258.785 522.604 259.314 524.84C259.842 527.076 262.084 528.46 264.322 527.933Z" fill="#757D82"/>
<path d="M263.4 520.585C263.613 520.936 263.137 521.609 262.34 522.091C261.542 522.573 260.722 522.68 260.51 522.33C260.299 521.979 260.773 521.304 261.572 520.822C262.372 520.34 263.187 520.235 263.4 520.585Z" fill="#A8ADB0"/>
<path d="M265.643 520.379C266.325 521.544 266.333 524.274 264.611 525.466C262.799 526.723 260.179 526.047 259.456 525.181C259.666 525.811 260.024 526.382 260.5 526.845C260.976 527.308 261.556 527.65 262.192 527.843C262.827 528.035 263.5 528.073 264.153 527.952C264.806 527.832 265.421 527.556 265.946 527.149C266.47 526.742 266.89 526.215 267.168 525.612C267.447 525.01 267.577 524.349 267.547 523.686C267.518 523.023 267.329 522.377 266.998 521.802C266.666 521.226 266.202 520.739 265.643 520.38V520.379Z" fill="#596266"/>
<path d="M263.381 528.441C262.475 528.441 261.59 528.173 260.837 527.671C260.085 527.168 259.498 526.454 259.151 525.618C258.805 524.782 258.714 523.862 258.891 522.975C259.067 522.088 259.503 521.273 260.144 520.633C260.784 519.994 261.6 519.558 262.488 519.381C263.376 519.205 264.296 519.296 265.133 519.642C265.97 519.988 266.685 520.574 267.188 521.326C267.691 522.079 267.959 522.963 267.959 523.867C267.957 525.08 267.475 526.242 266.616 527.1C265.758 527.957 264.595 528.44 263.381 528.441ZM263.381 520.119C262.639 520.119 261.914 520.339 261.298 520.751C260.681 521.162 260.2 521.748 259.916 522.432C259.633 523.117 259.558 523.87 259.703 524.597C259.848 525.324 260.205 525.991 260.729 526.515C261.254 527.039 261.922 527.396 262.649 527.54C263.377 527.685 264.131 527.611 264.816 527.327C265.501 527.044 266.087 526.563 266.499 525.947C266.911 525.331 267.131 524.607 267.131 523.866C267.13 522.873 266.734 521.921 266.031 521.219C265.328 520.517 264.375 520.122 263.381 520.121V520.119Z" fill="#373C3F"/>
<path d="M232.039 422.319C232.913 420.205 231.906 417.784 229.791 416.911C227.676 416.038 225.252 417.044 224.379 419.157C223.505 421.271 224.511 423.692 226.627 424.565C228.742 425.438 231.165 424.432 232.039 422.319Z" fill="#757D82"/>
<path d="M230.081 417.382C230.292 417.733 229.818 418.408 229.019 418.89C228.219 419.372 227.402 419.477 227.189 419.127C226.976 418.776 227.454 418.102 228.251 417.621C229.049 417.139 229.874 417.032 230.081 417.382Z" fill="#A8ADB0"/>
<path d="M232.323 417.176C233.006 418.341 233.014 421.071 231.292 422.265C229.48 423.52 226.858 422.844 226.137 421.98C226.346 422.61 226.704 423.18 227.18 423.643C227.656 424.106 228.236 424.449 228.872 424.641C229.508 424.834 230.18 424.872 230.834 424.751C231.487 424.63 232.102 424.355 232.626 423.948C233.151 423.54 233.57 423.014 233.849 422.411C234.127 421.809 234.257 421.148 234.228 420.485C234.198 419.822 234.01 419.176 233.678 418.6C233.347 418.025 232.882 417.538 232.323 417.179V417.176Z" fill="#596266"/>
<path d="M230.068 425.238C229.162 425.239 228.277 424.971 227.524 424.468C226.771 423.966 226.184 423.252 225.837 422.416C225.49 421.58 225.399 420.661 225.576 419.773C225.752 418.886 226.188 418.071 226.828 417.431C227.469 416.791 228.284 416.355 229.173 416.179C230.061 416.002 230.981 416.092 231.818 416.439C232.655 416.785 233.37 417.371 233.873 418.123C234.376 418.875 234.644 419.76 234.644 420.665C234.643 421.877 234.16 423.039 233.302 423.896C232.444 424.754 231.281 425.236 230.068 425.238ZM230.068 416.916C229.326 416.916 228.601 417.136 227.984 417.547C227.367 417.958 226.886 418.544 226.602 419.228C226.318 419.913 226.244 420.666 226.388 421.393C226.533 422.12 226.89 422.787 227.414 423.312C227.938 423.836 228.607 424.193 229.334 424.337C230.062 424.482 230.816 424.408 231.501 424.124C232.186 423.841 232.772 423.361 233.184 422.745C233.596 422.128 233.816 421.404 233.816 420.663C233.815 419.67 233.42 418.718 232.717 418.016C232.014 417.314 231.062 416.919 230.068 416.918V416.916Z" fill="#373C3F"/>
<path d="M273.506 427.877C273.874 425.609 272.333 423.472 270.063 423.104C267.793 422.736 265.655 424.276 265.286 426.544C264.918 428.811 266.459 430.948 268.729 431.316C270.999 431.684 273.137 430.144 273.506 427.877Z" fill="#757D82"/>
<path d="M268.349 425.401C269.148 424.919 269.623 424.245 269.411 423.894C269.199 423.544 268.38 423.651 267.582 424.133C266.784 424.614 266.309 425.289 266.521 425.639C266.733 425.989 267.551 425.883 268.349 425.401Z" fill="#A8ADB0"/>
<path d="M271.642 423.705C272.324 424.87 272.332 427.602 270.61 428.795C268.798 430.051 266.176 429.375 265.455 428.51C265.665 429.139 266.023 429.71 266.499 430.173C266.975 430.636 267.555 430.978 268.191 431.171C268.826 431.364 269.499 431.401 270.152 431.281C270.805 431.16 271.42 430.884 271.945 430.477C272.47 430.07 272.889 429.543 273.167 428.941C273.446 428.338 273.576 427.678 273.546 427.014C273.517 426.351 273.328 425.705 272.997 425.13C272.665 424.555 272.201 424.067 271.642 423.709V423.705Z" fill="#596266"/>
<path d="M269.386 431.768C268.481 431.767 267.596 431.497 266.845 430.993C266.093 430.489 265.507 429.774 265.162 428.938C264.817 428.102 264.728 427.182 264.905 426.295C265.083 425.408 265.521 424.594 266.162 423.955C266.803 423.317 267.619 422.882 268.507 422.707C269.395 422.532 270.316 422.623 271.152 422.971C271.988 423.318 272.702 423.905 273.204 424.657C273.706 425.41 273.974 426.294 273.973 427.199C273.97 428.412 273.486 429.575 272.626 430.432C271.766 431.288 270.601 431.769 269.386 431.768ZM269.386 423.446C268.645 423.446 267.92 423.666 267.303 424.078C266.686 424.489 266.205 425.075 265.922 425.759C265.638 426.444 265.564 427.197 265.709 427.924C265.853 428.651 266.211 429.318 266.735 429.842C267.26 430.366 267.928 430.723 268.656 430.867C269.383 431.012 270.137 430.937 270.823 430.653C271.508 430.37 272.093 429.889 272.505 429.273C272.917 428.657 273.137 427.932 273.136 427.191C273.134 426.198 272.738 425.247 272.035 424.546C271.332 423.844 270.38 423.45 269.386 423.449V423.446Z" fill="#373C3F"/>
<path d="M225.848 468.881C226.129 466.601 224.506 464.526 222.224 464.245C219.942 463.964 217.864 465.585 217.583 467.865C217.302 470.145 218.924 472.221 221.207 472.501C223.489 472.782 225.567 471.161 225.848 468.881Z" fill="#757D82"/>
<path d="M221.727 465.079C221.938 465.429 221.464 466.103 220.665 466.585C219.865 467.066 219.048 467.174 218.835 466.823C218.622 466.473 219.1 465.799 219.897 465.316C220.695 464.832 221.515 464.728 221.727 465.079Z" fill="#A8ADB0"/>
<path d="M223.965 464.872C224.647 466.037 224.655 468.768 222.933 469.96C221.121 471.216 218.499 470.541 217.778 469.677C217.988 470.306 218.346 470.877 218.822 471.34C219.297 471.803 219.878 472.145 220.513 472.338C221.149 472.531 221.822 472.568 222.475 472.448C223.128 472.327 223.743 472.051 224.268 471.644C224.792 471.237 225.212 470.71 225.49 470.108C225.769 469.505 225.899 468.845 225.869 468.182C225.839 467.518 225.651 466.872 225.32 466.297C224.988 465.722 224.524 465.234 223.965 464.876V464.872Z" fill="#596266"/>
<path d="M221.709 472.935C220.804 472.935 219.918 472.667 219.165 472.165C218.412 471.663 217.825 470.948 217.478 470.113C217.132 469.277 217.041 468.357 217.217 467.47C217.394 466.582 217.83 465.767 218.47 465.127C219.11 464.488 219.926 464.052 220.814 463.875C221.702 463.699 222.623 463.789 223.459 464.135C224.296 464.481 225.011 465.068 225.514 465.82C226.017 466.572 226.286 467.456 226.286 468.361C226.284 469.573 225.801 470.736 224.944 471.593C224.086 472.45 222.923 472.933 221.709 472.935ZM221.709 464.613C220.967 464.613 220.242 464.832 219.625 465.244C219.008 465.655 218.528 466.24 218.243 466.925C217.959 467.609 217.885 468.363 218.029 469.089C218.174 469.816 218.531 470.484 219.055 471.008C219.58 471.532 220.248 471.889 220.975 472.034C221.703 472.179 222.457 472.105 223.142 471.821C223.828 471.538 224.413 471.057 224.826 470.441C225.238 469.825 225.458 469.101 225.458 468.36C225.456 467.367 225.061 466.415 224.358 465.713C223.656 465.011 222.703 464.616 221.709 464.615V464.613Z" fill="#373C3F"/>
<path d="M265.752 473.509C267.99 472.981 269.376 470.741 268.848 468.505C268.32 466.27 266.077 464.885 263.84 465.413C261.602 465.94 260.216 468.181 260.744 470.416C261.272 472.652 263.514 474.037 265.752 473.509Z" fill="#757D82"/>
<path d="M264.826 466.164C265.039 466.514 264.563 467.188 263.765 467.67C262.968 468.151 262.148 468.259 261.936 467.908C261.725 467.558 262.199 466.882 262.997 466.401C263.794 465.919 264.614 465.813 264.826 466.164Z" fill="#A8ADB0"/>
<path d="M267.064 465.957C267.746 467.122 267.754 469.853 266.032 471.045C264.22 472.301 261.6 471.626 260.877 470.76C261.087 471.39 261.445 471.96 261.921 472.423C262.397 472.886 262.977 473.229 263.612 473.421C264.248 473.614 264.921 473.652 265.574 473.531C266.227 473.41 266.842 473.135 267.367 472.727C267.891 472.32 268.311 471.793 268.589 471.191C268.868 470.588 268.998 469.928 268.968 469.265C268.938 468.602 268.75 467.956 268.419 467.38C268.087 466.805 267.623 466.318 267.064 465.959V465.957Z" fill="#596266"/>
<path d="M264.808 474.02C263.903 474.02 263.018 473.752 262.265 473.249C261.512 472.747 260.925 472.033 260.579 471.197C260.232 470.361 260.141 469.442 260.318 468.554C260.494 467.667 260.93 466.852 261.57 466.213C262.21 465.573 263.026 465.137 263.914 464.96C264.802 464.784 265.723 464.874 266.559 465.22C267.396 465.566 268.111 466.152 268.614 466.904C269.117 467.656 269.386 468.54 269.386 469.445C269.385 470.657 268.902 471.82 268.044 472.678C267.186 473.536 266.022 474.018 264.808 474.02ZM264.808 465.698C264.066 465.698 263.341 465.918 262.725 466.33C262.108 466.741 261.627 467.327 261.343 468.011C261.06 468.696 260.986 469.449 261.13 470.176C261.275 470.903 261.632 471.57 262.157 472.094C262.682 472.618 263.35 472.975 264.078 473.119C264.805 473.264 265.559 473.189 266.244 472.906C266.93 472.622 267.515 472.141 267.927 471.525C268.339 470.909 268.559 470.184 268.558 469.443C268.557 468.45 268.161 467.499 267.458 466.797C266.755 466.095 265.802 465.701 264.808 465.7V465.698Z" fill="#373C3F"/>
<path d="M249.259 373.48C250.139 371.358 249.13 368.925 247.006 368.046C244.882 367.167 242.446 368.174 241.566 370.297C240.686 372.419 241.695 374.852 243.82 375.731C245.944 376.61 248.379 375.603 249.259 373.48Z" fill="#757D82"/>
<path d="M245.43 368.607C245.643 368.958 245.167 369.631 244.368 370.113C243.569 370.595 242.752 370.702 242.54 370.351C242.329 370.001 242.803 369.326 243.601 368.844C244.399 368.362 245.219 368.257 245.43 368.607Z" fill="#A8ADB0"/>
<path d="M247.668 368.401C248.35 369.566 248.358 372.296 246.636 373.488C244.825 374.744 242.202 374.069 241.481 373.203C241.691 373.833 242.049 374.403 242.525 374.866C243.001 375.33 243.581 375.672 244.217 375.865C244.852 376.057 245.525 376.095 246.178 375.974C246.832 375.853 247.446 375.578 247.971 375.171C248.496 374.764 248.915 374.237 249.194 373.634C249.472 373.032 249.602 372.371 249.572 371.708C249.543 371.045 249.354 370.399 249.023 369.824C248.692 369.248 248.227 368.761 247.668 368.402V368.401Z" fill="#596266"/>
<path d="M245.412 376.467C244.507 376.467 243.622 376.198 242.869 375.696C242.116 375.193 241.529 374.479 241.183 373.643C240.836 372.808 240.746 371.888 240.922 371.001C241.099 370.114 241.534 369.299 242.175 368.659C242.815 368.019 243.63 367.583 244.518 367.407C245.406 367.23 246.327 367.32 247.163 367.666C248 368.012 248.715 368.598 249.218 369.35C249.722 370.102 249.99 370.986 249.991 371.891C249.989 373.104 249.507 374.267 248.648 375.124C247.79 375.982 246.626 376.465 245.412 376.467ZM245.412 368.145C244.671 368.145 243.946 368.364 243.329 368.776C242.712 369.188 242.231 369.773 241.948 370.458C241.664 371.142 241.59 371.896 241.735 372.623C241.879 373.349 242.237 374.017 242.761 374.541C243.286 375.065 243.954 375.421 244.682 375.566C245.409 375.71 246.163 375.636 246.849 375.352C247.534 375.068 248.119 374.588 248.531 373.971C248.943 373.355 249.163 372.631 249.162 371.889C249.161 370.896 248.766 369.944 248.063 369.242C247.36 368.54 246.406 368.145 245.412 368.145Z" fill="#373C3F"/>
<path d="M285.329 378.877C286.209 376.755 285.2 374.322 283.076 373.443C280.952 372.564 278.516 373.572 277.636 375.694C276.757 377.816 277.765 380.249 279.89 381.128C282.014 382.008 284.449 381 285.329 378.877Z" fill="#757D82"/>
<path d="M281.502 374.004C281.713 374.354 281.237 375.029 280.44 375.511C279.642 375.993 278.822 376.1 278.61 375.75C278.399 375.399 278.873 374.724 279.672 374.242C280.472 373.76 281.289 373.653 281.502 374.004Z" fill="#A8ADB0"/>
<path d="M283.744 373.797C284.427 374.962 284.433 377.694 282.713 378.886C280.901 380.141 278.279 379.467 277.556 378.602C277.766 379.232 278.123 379.803 278.599 380.267C279.075 380.73 279.656 381.073 280.292 381.266C280.928 381.459 281.601 381.497 282.255 381.377C282.908 381.256 283.524 380.98 284.049 380.573C284.574 380.166 284.993 379.638 285.272 379.035C285.551 378.432 285.681 377.771 285.651 377.108C285.621 376.444 285.433 375.798 285.101 375.222C284.769 374.647 284.304 374.159 283.744 373.8V373.797Z" fill="#596266"/>
<path d="M281.482 381.86C280.577 381.86 279.692 381.592 278.939 381.089C278.186 380.586 277.599 379.872 277.253 379.036C276.906 378.201 276.815 377.281 276.992 376.394C277.169 375.506 277.605 374.691 278.245 374.052C278.885 373.412 279.701 372.976 280.589 372.8C281.477 372.623 282.398 372.714 283.234 373.06C284.071 373.406 284.786 373.993 285.289 374.745C285.792 375.497 286.06 376.381 286.06 377.286C286.059 378.499 285.576 379.661 284.718 380.519C283.86 381.376 282.696 381.859 281.482 381.86ZM281.482 373.538C280.741 373.538 280.016 373.758 279.399 374.169C278.782 374.581 278.302 375.166 278.018 375.851C277.734 376.535 277.66 377.289 277.804 378.015C277.949 378.742 278.306 379.41 278.831 379.934C279.355 380.458 280.023 380.814 280.751 380.959C281.478 381.103 282.232 381.029 282.917 380.746C283.603 380.462 284.188 379.982 284.6 379.366C285.012 378.75 285.232 378.025 285.232 377.284C285.231 376.291 284.835 375.34 284.132 374.638C283.429 373.936 282.476 373.541 281.482 373.539V373.538Z" fill="#373C3F"/>
<path d="M236.245 336.023C236.245 336.023 232.828 344.126 233.656 346.297C234.241 347.831 235.12 355.004 244.627 360.64C248.248 352.875 249.648 346.105 246.229 343.383C237.63 339.353 236.245 336.023 236.245 336.023Z" fill="white"/>
<path d="M244.805 361.218L244.419 360.989C235.947 355.965 234.177 349.61 233.51 347.226C233.418 346.886 233.342 346.619 233.277 346.448C232.416 344.19 235.519 336.718 235.87 335.873L236.246 334.979L236.618 335.873C236.644 335.93 238.145 339.152 246.406 343.023L246.487 343.073C249.72 345.653 249.211 351.788 244.994 360.818L244.805 361.218ZM236.315 336.916C235.274 339.521 233.462 344.655 234.034 346.153C234.113 346.36 234.194 346.643 234.292 347.002C234.983 349.484 236.588 355.247 244.447 360.059C247.17 354.107 249.553 346.616 246.016 343.735C239.678 340.752 237.204 338.142 236.317 336.916H236.315Z" fill="#72716F"/>
<path d="M334.044 330.646C315.462 336.588 296.949 344.82 284.225 346.381C276.712 351.342 276.915 358.264 275.93 367.282C299.196 366.659 325.326 357.084 334.88 347.883C335.144 347.339 333.488 335.196 334.044 330.646Z" fill="white"/>
<path d="M275.466 367.7L275.517 367.237C275.626 366.242 275.72 365.267 275.812 364.326C276.558 356.644 277.148 350.563 283.991 346.043L284.071 345.99L284.165 345.979C292.575 344.947 303.672 340.935 315.42 336.687C321.442 334.509 327.668 332.257 333.917 330.258L334.519 330.066L334.443 330.694C334.1 333.528 334.641 339.525 334.998 343.497C335.333 347.205 335.364 347.803 335.231 348.069L335.2 348.132L335.151 348.18C330.383 352.771 321.461 357.513 310.669 361.188C299.212 365.089 286.876 367.399 275.93 367.692L275.466 367.7ZM284.361 346.773C277.913 351.079 277.343 356.962 276.619 364.403C276.542 365.203 276.459 366.022 276.374 366.863C299.949 366.115 325.337 356.401 334.492 347.682C334.52 347.202 334.353 345.358 334.191 343.564C333.834 339.608 333.353 334.282 333.578 331.22C327.54 333.166 321.522 335.343 315.696 337.449C303.947 341.698 292.849 345.712 284.361 346.773Z" fill="#72716F"/>
<path d="M237.289 336.653C236.932 336.462 236.585 336.252 236.25 336.023C236.25 336.023 232.833 344.126 233.661 346.297C234.311 348.002 235.329 356.671 248.147 362.461C240.834 357.958 233.526 350.899 237.289 336.653Z" fill="#D6D3D0"/>
<path d="M334.044 330.646C328.189 332.518 322.646 334.12 317.399 335.492C319.592 345.273 317.64 351.361 308.023 355.056C295.281 359.462 304.22 359.105 284.218 364.916C284.228 364.916 275.913 367.28 275.924 367.282C293.843 368.834 323.277 359.053 334.874 347.883C335.144 347.339 333.488 335.196 334.044 330.646Z" fill="#D6D3D0"/>
<path d="M273.718 367.749C269.626 367.769 265.54 367.441 261.503 366.77C237.811 362.698 234.569 351.049 233.502 347.221C233.411 346.89 233.342 346.626 233.268 346.445C232.407 344.182 235.511 336.708 235.862 335.863L236.064 335.383L236.485 335.684C236.636 335.791 245.923 342.127 268.975 342.127C284.193 342.127 305.384 339.371 333.914 330.249L334.524 330.055L334.447 330.695C334.103 333.528 334.644 339.523 335.002 343.489C335.338 347.202 335.369 347.8 335.234 348.068L335.151 348.181C325.693 357.297 298.206 367.748 273.718 367.749ZM236.435 336.642C235.418 339.142 233.451 344.6 234.042 346.15C234.119 346.347 234.202 346.63 234.3 347C235.332 350.703 238.465 361.972 261.643 365.954C288.1 370.502 323.449 358.206 334.502 347.661C334.52 347.303 334.342 345.403 334.182 343.564C333.824 339.611 333.344 334.298 333.566 331.23C296.189 343.108 271.733 343.911 257.768 342.485C244.544 341.133 238.09 337.668 236.435 336.642Z" fill="#72716F"/>
<path d="M156.748 506.62C167.986 522.054 195.869 540.534 256.603 549.635C317.338 558.737 372.581 511.575 372.581 511.575L371.769 506.002C371.769 506.002 378.016 510.471 379.007 522.326C379.732 531.013 376.006 538.874 376.006 538.874C376.006 538.874 376.419 613.065 383.874 640.922C383.321 643.129 318.169 670.158 260.747 664.918C203.326 659.678 146.181 622.719 146.181 622.719C146.181 622.719 151.426 550.733 150.322 523.975C147.01 512.389 150.289 498.324 156.517 497.771L156.748 506.62Z" fill="#B5336F"/>
<path d="M158.446 518.892C158.446 518.892 188.241 555.839 249.593 555.269C310.946 554.699 337.137 539.348 341.143 541.219C352.322 546.44 279.44 581.72 224.631 571.038C205.402 567.289 158.888 556.548 158.446 518.892Z" fill="#C45C8C"/>
<path d="M153.92 551.255C153.92 551.255 202.112 597.13 227.144 610.319C252.177 623.508 181.577 594.262 181.577 594.262C181.577 594.262 186.743 621.215 206.832 630.39C226.922 639.565 161.954 631.576 155.607 605.731C149.26 579.886 153.92 551.255 153.92 551.255Z" fill="#C45C8C"/>
<path d="M376.002 538.879C376.002 538.879 379.728 531.018 379.004 522.331C378.016 510.471 371.765 506.007 371.765 506.007L372.577 511.58C372.577 511.58 357.06 523.272 344.456 530.264C349.978 529.162 357.5 531.644 359.732 534.97C366.772 546.576 350.266 574.895 339.708 588.903C347.04 583.804 359.178 569.556 364.276 559.776C364.582 560.693 364.959 602.938 360.188 621.212C356.046 637.76 302.84 669.615 224.62 657.923C236.28 661.255 248.499 663.814 260.733 664.931C318.155 670.171 383.307 643.142 383.86 640.935C376.416 613.07 376.002 538.879 376.002 538.879Z" fill="#9E2D66"/>
<path d="M275.866 666C270.775 666 265.707 665.792 260.707 665.334C203.84 660.144 146.526 623.442 145.952 623.071L145.747 622.938L145.765 622.695C145.818 621.975 150.99 550.517 149.907 524.052C147.543 515.729 148.437 505.585 151.99 500.419C153.26 498.573 154.811 497.519 156.475 497.378L156.914 497.339L157.156 506.487C165.749 518.215 190.075 539.254 256.664 549.232C287.922 553.913 317.696 543.352 337.16 533.665C357.002 523.791 370.465 512.802 372.132 511.42L371.214 505.114L372.004 505.679C372.267 505.866 378.421 510.395 379.416 522.309C380.1 530.514 376.821 538.082 376.416 538.98C376.436 541.976 377.031 613.787 384.265 640.834L384.294 640.938L384.267 641.04C383.658 643.479 328.689 666 275.866 666ZM146.609 622.509C150.433 624.932 205.839 659.496 260.783 664.51C290.711 667.242 321.908 661.125 342.808 655.511C366.069 649.27 382.021 642.207 383.421 640.85C376.086 613.12 375.592 539.622 375.587 538.881V538.786L375.627 538.702C375.664 538.625 379.299 530.834 378.593 522.365C377.846 513.43 374.034 508.734 372.345 507.062L373.028 511.741L372.855 511.89C372.715 512.009 358.758 523.835 337.558 534.388C317.978 544.133 288.031 554.763 256.551 550.044C189.468 539.991 165.021 518.676 156.421 506.863L156.345 506.761L156.12 498.26C154.859 498.517 153.704 499.399 152.68 500.887C149.246 505.881 148.405 515.761 150.724 523.871L150.74 523.968C151.793 549.656 146.942 617.844 146.609 622.509Z" fill="#4F1733"/>
<path d="M372.009 511.506C372.856 511.075 373.607 510.476 374.215 509.746C373.965 510.448 373.7 511.321 372.486 512.185C372.403 511.914 372.236 511.676 372.009 511.506Z" fill="#72716F"/>
<path d="M153.92 502.097C153.92 502.097 155.44 505.825 156.789 507.379C157.081 506.977 157.11 506.804 157.294 506.671C156.442 505.938 154.679 503.194 153.92 502.097Z" fill="#72716F"/>
<path d="M176.124 564.27C175.998 563.957 156.961 549.152 149.922 524.1L150.723 523.864C151.854 527.672 155.658 537.661 159.676 544.066C165.483 553.332 176.124 564.27 176.124 564.27Z" fill="#4F1733"/>
<path d="M339.719 588.888C352.297 579.025 371.288 550.405 375.615 538.735L376.39 539.023C373.156 547.747 361.779 565.884 350.945 578.713C344.671 586.728 339.719 588.888 339.719 588.888Z" fill="#4F1733"/>
<path d="M240.592 206.809C227.341 212.324 199.459 220.875 192.556 197.155C179.581 187.233 184.547 157.163 216.575 137.581C232.033 115.516 290.008 101.45 315.681 108.069C334.178 104.208 349.086 109.35 357.92 114.965C370.618 114.965 401.263 119.102 417.274 153.301C433.285 187.5 427.764 216.461 421.414 221.288C415.065 226.114 396.294 227.494 396.294 227.494L290.283 197.983L240.592 206.809Z" fill="white"/>
<path d="M201.902 190.034C193.354 190.853 187.004 182.672 188.486 168.748C183.828 180.842 185.641 191.855 192.556 197.147C199.459 220.867 227.342 212.316 240.592 206.801L254.814 204.274C256.909 197.287 259.237 184.659 260.815 177.565C250.463 179.22 231.5 177.136 224.782 169.723C215.949 169.613 218.435 188.44 201.902 190.034Z" fill="#D6D3D0"/>
<path d="M406.339 182.641C400.252 185.431 382.253 185.431 375.789 168.617C359.208 177.891 311.017 172.661 292.733 159.41C294.773 163.869 294.612 163.491 296.821 165.352C292.089 173.799 236.815 177.144 224.811 169.737C227.295 172.22 228.947 173.567 231.029 174.316C250.233 181.198 280.273 178.565 290.086 198.148L290.312 198.108L396.321 227.619C396.321 227.619 415.093 226.239 421.443 221.412C427.185 218.319 435.556 182.918 410.406 141.5C422.018 166.162 415.174 179.396 406.339 182.641Z" fill="#D6D3D0"/>
<path d="M397.447 223.149C400.881 219.087 412.916 214.843 415.974 215.102C419.032 215.361 418.927 217.847 415.611 219.348C412.295 220.849 395.183 225.823 397.447 223.149Z" fill="#CECBC6"/>
<path d="M364.983 194.708C367.004 191.498 368.749 186.956 369.577 183.816C370.405 180.676 371.65 174.116 375.381 175.324C379.111 176.533 376.529 184.115 373.314 188.233C370.512 191.821 368.92 193.41 367.522 194.446C366.046 195.537 363.97 196.949 364.983 194.708Z" fill="#CECBC6"/>
<path d="M377.591 180.811C377.824 179.879 377.803 178.903 377.531 177.983C377.59 179.002 377.591 180.004 377.591 180.811Z" fill="#C9C9C9"/>
<path d="M396.252 227.912L396.181 227.892L290.264 198.405L240.709 207.207C229.573 211.839 214.015 216.246 203.065 211.007C197.778 208.476 194.123 203.901 192.202 197.403C187.507 193.746 185.14 187.606 185.532 180.097C186.158 168.118 194.568 150.585 216.288 137.277C231.571 115.602 289.34 100.92 315.692 107.645C336.998 103.228 352.331 110.944 358.04 114.551C370.646 114.575 401.4 118.421 417.65 153.12C433.948 187.94 427.852 216.907 421.668 221.617C415.294 226.462 397.096 227.849 396.326 227.907L396.252 227.912ZM290.312 197.559L290.403 197.584L396.342 227.076C397.612 226.975 415.188 225.508 421.171 220.96C427.199 216.376 433.017 187.891 416.905 153.477C400.8 119.091 370.29 115.378 357.92 115.378H357.8L357.697 115.314C352.145 111.784 336.956 104.052 315.766 108.474L315.672 108.493L315.579 108.469C289.468 101.733 231.987 116.303 216.913 137.817L216.791 137.933C195.289 151.082 186.971 168.355 186.355 180.135C185.976 187.422 188.268 193.35 192.809 196.826L192.918 196.909L192.955 197.038C194.799 203.373 198.32 207.82 203.419 210.261C214.677 215.645 231.442 210.17 240.434 206.42L240.522 206.394L290.312 197.559Z" fill="#72716F"/>
<path d="M317.989 2.93198C318.002 2.93198 318.734 2.87277 322.558 1.67407L322.806 2.46467C318.542 3.75618 317.989 2.93198 317.989 2.93198Z" fill="#72716F"/>
<path d="M364.681 9.30319L365.162 8.62622C369.415 11.6174 374.371 14.6485 374.421 14.6789C374.418 14.6789 369.558 13.6323 364.681 9.30319Z" fill="#72716F"/>
<path d="M219.649 39.877C219.687 39.6834 220.038 35.74 223.234 31.3453L223.915 31.8159C221.405 35.4279 219.649 39.877 219.649 39.877Z" fill="#72716F"/>
<path d="M192.321 197.495L192.801 196.814C197.415 200.015 205.15 200.667 205.227 200.673C205.219 200.673 200.358 202.254 192.321 197.495Z" fill="#72716F"/>
<path d="M364.725 196.053L364.062 195.558C366.53 192.245 367.934 187.598 369.172 183.498C370.444 179.285 371.448 175.96 373.268 175.049C373.563 174.903 373.886 174.821 374.215 174.809C374.544 174.797 374.872 174.854 375.177 174.977C376.414 175.427 377.231 176.241 377.603 177.398C377.872 178.234 377.886 179.192 377.736 180.191C377.314 185.431 373.314 188.233 373.314 188.233C373.361 188.164 377.997 181.323 376.814 177.651C376.52 176.737 375.892 176.118 374.892 175.755C374.693 175.671 374.477 175.63 374.261 175.636C374.044 175.642 373.831 175.694 373.636 175.788C372.137 176.539 371.129 179.874 369.963 183.738C368.706 187.902 367.282 192.623 364.725 196.053Z" fill="#72716F"/>
<path d="M385.152 208.905C385.803 208.665 390.427 205.906 392.981 202.459C395.534 199.012 401.676 191.428 403.541 193.151C405.405 194.875 397.673 203.839 393.878 206.183C390.083 208.528 385.152 208.905 385.152 208.905Z" fill="#CECBC6"/>
<path d="M382.224 209.546L385.01 208.518C385.569 208.312 390.165 205.569 392.648 202.216C394.286 200.002 399.856 192.761 402.692 192.495C402.894 192.47 403.1 192.488 403.295 192.549C403.489 192.61 403.669 192.712 403.821 192.849C404.141 193.15 404.282 193.586 404.228 194.15C403.92 197.319 397.418 204.485 394.096 206.537C390.251 208.907 385.389 209.302 385.184 209.318L382.224 209.546ZM402.861 193.318H402.768C400.912 193.492 396.681 198.159 393.317 202.706C391.606 205.017 388.992 207.009 387.206 208.185C388.955 207.846 391.512 207.161 393.665 205.831C397.059 203.735 403.153 196.709 403.408 194.068C403.436 193.777 403.387 193.57 403.263 193.455C403.209 193.406 403.146 193.369 403.077 193.345C403.008 193.321 402.934 193.312 402.861 193.318Z" fill="#72716F"/>
<path d="M397.319 223.57L396.772 222.947C401.027 219.218 414.803 212.769 417.746 215.105C418.387 215.608 418.68 216.2 418.637 216.866C418.111 219.089 415.619 219.35 415.619 219.35C416.205 218.994 417.744 217.845 417.81 216.811C417.834 216.427 417.65 216.082 417.232 215.753C415.018 213.999 401.934 219.518 397.319 223.57Z" fill="#72716F"/>
<path d="M235.554 211.208C228.653 233.411 202.395 262.543 206.56 288.365C209.604 307.189 224.021 321.477 231.389 333.046C238.223 343.769 245.355 357.937 276.965 351.041C290.491 347.731 330.766 342.729 339.873 327.15C347.913 313.387 347.082 300.569 347.913 297.543C348.744 294.517 371.113 252.034 371.113 252.034L323.896 214.996L263.985 197.141L243.556 201.071L235.554 211.208Z" fill="#F9C89F"/>
<path d="M339.417 299.648C337.424 314.338 327.899 327.266 312.985 333.057C297.457 339.885 275.406 345.06 267.331 347.021C259.256 348.981 247.455 347.331 241.658 342.367C235.41 337.566 232.599 331.468 226.899 326.922C228.466 329.053 229.924 331.099 231.176 333.062C238.009 343.785 245.14 357.953 276.75 351.059C290.277 347.749 330.553 342.737 339.659 327.166C347.698 313.403 346.867 300.585 347.698 297.559C347.73 297.445 347.796 297.268 347.886 297.045C344.25 296.66 340.304 297.87 339.417 299.648Z" fill="#ECA77F"/>
<path d="M261.777 353.274C243.408 353.274 237.083 343.212 231.801 334.815C231.481 334.297 231.16 333.786 230.84 333.282C228.98 330.361 226.654 327.25 224.194 323.954C216.716 313.944 208.24 302.596 205.958 288.443C203.234 271.559 213.575 252.967 222.699 236.563C227.761 227.46 232.544 218.863 234.958 211.098L235.029 210.965L243.13 200.708L243.28 200.679L263.809 196.73L263.906 196.758L323.888 214.636L323.95 214.684L371.44 251.929L371.28 252.233C371.057 252.657 348.921 294.701 348.113 297.657C347.939 298.297 347.834 299.478 347.703 300.971C347.223 306.433 346.327 316.601 340.03 327.378C332.44 340.363 303.507 346.085 286.206 349.503C282.471 350.243 279.244 350.88 276.862 351.464C271.07 352.718 266.091 353.274 261.777 353.274ZM235.719 211.418C233.273 219.244 228.485 227.852 223.417 236.965C214.358 253.252 204.09 271.711 206.768 288.312C209.02 302.264 217.43 313.525 224.852 323.46C227.322 326.768 229.658 329.892 231.532 332.837C231.852 333.342 232.173 333.856 232.503 334.375C237.906 342.967 243.892 352.482 261.566 352.483C265.857 352.483 270.838 351.923 276.669 350.651C279.059 350.065 282.293 349.426 286.038 348.685C303.193 345.294 331.905 339.618 339.308 326.955C345.51 316.343 346.394 306.297 346.87 300.899C347.009 299.299 347.112 298.151 347.306 297.439C348.107 294.499 368.201 256.29 370.373 252.148L323.494 215.384L263.76 197.579L243.577 201.462L235.719 211.418Z" fill="#87402C"/>
<path d="M251.955 221.957C245.547 220.26 228.367 238.524 228.927 248.536C229.613 260.819 244.698 261.894 252.37 252.305C260.041 242.715 259.876 224.048 251.955 221.957Z" fill="#ECA77F"/>
<path d="M249.556 227.873C243.32 225.9 227.418 239.995 228.589 249.058C230.031 260.179 244.506 262.192 251.224 254.078C257.942 245.964 257.252 230.307 249.556 227.873Z" fill="black"/>
<path d="M248.613 229.526C242.59 227.566 227.468 240.761 228.706 249.4C230.226 260.001 244.182 262.112 250.543 254.483C256.904 246.854 256.046 231.951 248.613 229.526Z" fill="white"/>
<path d="M253.025 250.384C252.397 251.862 251.562 253.242 250.543 254.483C244.177 262.112 230.226 260.001 228.706 249.395C228.421 247.409 229.007 245.183 230.148 242.955C231.542 253.571 245.459 257.415 253.025 250.384Z" fill="#DBDBDB"/>
<path d="M228.34 249.504C227.774 245.564 230.404 240.334 235.377 235.514C240.256 230.784 245.757 228.161 248.754 229.138C251.751 230.114 253.978 233.203 254.816 237.599C255.959 243.6 254.348 250.488 250.811 254.736C247.607 258.577 242.281 260.276 237.235 259.071C235.706 258.717 234.258 258.076 232.969 257.183C230.456 255.421 228.799 252.743 228.34 249.504ZM248.474 229.915C245.712 229.016 240.516 231.556 235.836 236.091C232.162 239.654 228.456 244.994 229.073 249.296C229.714 253.824 232.86 257.181 237.461 258.281C242.244 259.422 247.276 257.833 250.276 254.229C253.65 250.183 255.179 243.597 254.084 237.842C253.464 234.588 252.064 232.106 250.138 230.756C249.628 230.394 249.067 230.111 248.474 229.915Z" fill="black"/>
<path d="M245.72 239.974C243.173 238.669 239.522 240.963 237.566 245.095C235.611 249.227 236.093 253.635 238.638 254.941C241.184 256.247 244.836 253.952 246.792 249.819C248.748 245.687 248.267 241.278 245.72 239.974Z" fill="#0092FF"/>
<path d="M239.615 250.069C238.435 249.072 237.807 247.702 237.392 246.175C235.841 249.925 236.362 253.771 238.662 254.95C241.052 256.175 244.464 254.057 246.337 250.219C244.083 251.644 241.63 251.381 239.615 250.069Z" fill="#005DCC"/>
<path d="M238.483 255.262C235.788 253.881 235.252 249.258 237.288 244.954C238.467 242.462 240.331 240.486 242.289 239.673C243.589 239.129 244.826 239.119 245.875 239.659C248.571 241.04 249.106 245.663 247.07 249.965C245.891 252.458 244.027 254.435 242.069 255.246C240.86 255.754 239.702 255.794 238.705 255.366C238.63 255.334 238.556 255.299 238.483 255.262ZM245.565 240.297C244.671 239.841 243.599 239.847 242.466 240.323C240.674 241.075 238.942 242.911 237.845 245.234C235.979 249.184 236.403 253.396 238.793 254.617C239.692 255.083 240.759 255.066 241.893 254.59C243.685 253.84 245.417 252.004 246.511 249.68C248.381 245.73 247.953 241.518 245.565 240.296V240.297Z" fill="#003084"/>
<path d="M244.137 243.395C242.654 242.635 240.479 244.074 239.279 246.609C238.079 249.144 238.31 251.817 239.795 252.575C241.28 253.334 243.453 251.897 244.653 249.363C245.853 246.83 245.619 244.156 244.137 243.395Z" fill="black"/>
<path d="M242.736 242.805C241.935 242.267 240.813 242.627 240.254 243.605C239.695 244.583 239.897 245.823 240.708 246.363C241.518 246.902 242.63 246.539 243.189 245.562C243.748 244.586 243.546 243.344 242.736 242.805Z" fill="white"/>
<path d="M242.646 249.916C242.273 249.669 241.763 249.835 241.504 250.287C241.244 250.738 241.344 251.308 241.712 251.556C242.08 251.804 242.596 251.638 242.854 251.185C243.112 250.732 243.019 250.164 242.646 249.916Z" fill="white"/>
<path d="M299.461 233.489C306.683 235.794 311.856 260.683 305.102 268.579C296.814 278.268 281.639 270.457 280.217 258.164C278.794 245.871 290.551 230.645 299.461 233.489Z" fill="#ECA77F"/>
<path d="M298.092 239.727C305.315 241.702 311.856 262.437 305.102 269.203C296.814 277.503 281.639 270.804 280.217 260.28C278.794 249.755 289.191 237.292 298.092 239.727Z" fill="black"/>
<path d="M297.974 241.629C304.984 243.49 311.334 263.039 304.777 269.416C296.732 277.242 282.001 270.933 280.622 261.005C279.243 251.076 289.324 239.332 297.974 241.629Z" fill="white"/>
<path d="M280.779 256.21C280.463 257.791 280.409 259.413 280.619 261.011C281.998 270.933 296.729 277.249 304.774 269.423C306.281 267.957 307.1 265.791 307.392 263.309C299.461 271.206 283.695 266.345 280.779 256.21Z" fill="#DBDBDB"/>
<path d="M295.85 273.352C294.054 273.342 292.272 273.035 290.576 272.444C284.97 270.524 280.906 266.057 280.212 261.061C279.443 255.531 282.17 248.949 286.996 244.681C290.531 241.555 294.568 240.295 298.08 241.228C301.591 242.162 305.23 247.47 306.985 254.172C308.772 260.995 308.056 266.804 305.062 269.712C302.607 272.105 299.358 273.352 295.85 273.352ZM295.739 241.755C293.05 241.755 290.161 242.987 287.546 245.3C282.918 249.392 280.3 255.682 281.032 260.947C281.684 265.636 285.535 269.842 290.845 271.67C295.952 273.417 301.054 272.47 304.489 269.128C307.753 265.951 307.505 259.431 306.184 254.39C304.5 247.969 301.08 242.89 297.867 242.037C297.173 241.851 296.458 241.756 295.739 241.755Z" fill="black"/>
<path d="M295.544 252.03C298.82 252.206 301.247 256.05 300.965 260.616C300.683 265.182 297.798 268.741 294.524 268.567C291.249 268.392 288.822 264.546 289.104 259.98C289.386 255.415 292.271 251.854 295.544 252.03Z" fill="#0092FF"/>
<path d="M296.194 263.863C297.926 263.605 299.305 262.743 300.553 261.638C300.072 265.668 297.453 268.72 294.496 268.563C291.42 268.403 289.139 264.828 289.344 260.561C290.837 262.938 293.45 263.959 296.194 263.863Z" fill="#005DCC"/>
<path d="M294.224 268.899C292.987 268.76 291.845 268.134 290.903 267.078C289.383 265.374 288.577 262.712 288.747 259.958C289.04 255.203 292.098 251.487 295.563 251.673C296.912 251.743 298.152 252.383 299.164 253.518C300.684 255.222 301.49 257.884 301.322 260.638C301.027 265.393 297.967 269.109 294.504 268.923C294.411 268.92 294.317 268.911 294.224 268.899ZM295.526 252.386C292.452 252.226 289.731 255.638 289.461 260.003C289.301 262.563 290.041 265.036 291.438 266.601C292.321 267.59 293.384 268.15 294.544 268.202C297.617 268.362 300.337 264.95 300.607 260.587C300.768 258.018 300.026 255.55 298.631 253.985C297.748 252.996 296.675 252.442 295.525 252.385L295.526 252.386Z" fill="#003084"/>
<path d="M295.278 255.797C297.186 255.898 298.594 258.252 298.419 261.053C298.245 263.853 296.559 266.039 294.648 265.935C292.737 265.831 291.332 263.479 291.505 260.678C291.678 257.877 293.367 255.688 295.278 255.797Z" fill="black"/>
<path d="M293.575 255.495C293.84 255.485 294.105 255.528 294.353 255.622C294.601 255.716 294.828 255.859 295.02 256.043C295.212 256.226 295.365 256.446 295.471 256.689C295.576 256.933 295.631 257.195 295.634 257.46C295.652 258.002 295.458 258.53 295.092 258.931C294.726 259.333 294.218 259.575 293.676 259.608C293.411 259.617 293.146 259.574 292.898 259.48C292.649 259.386 292.422 259.243 292.23 259.06C292.038 258.876 291.885 258.657 291.779 258.413C291.674 258.17 291.618 257.908 291.616 257.642C291.597 257.1 291.792 256.571 292.158 256.17C292.524 255.769 293.033 255.526 293.575 255.495Z" fill="white"/>
<path d="M296.535 262.467C296.657 262.463 296.779 262.483 296.893 262.526C297.007 262.569 297.112 262.635 297.2 262.719C297.288 262.803 297.359 262.904 297.408 263.016C297.456 263.128 297.482 263.248 297.484 263.37C297.492 263.619 297.402 263.862 297.234 264.047C297.066 264.231 296.833 264.343 296.583 264.359C296.461 264.364 296.339 264.344 296.225 264.301C296.111 264.258 296.006 264.193 295.918 264.109C295.829 264.024 295.759 263.923 295.71 263.811C295.662 263.699 295.636 263.579 295.635 263.456C295.627 263.207 295.717 262.964 295.885 262.78C296.053 262.595 296.286 262.483 296.535 262.467Z" fill="white"/>
<path d="M341.219 237.698C338.941 253.212 343.082 280.31 341.219 288.378C348.879 278.036 358.611 284.857 358.611 284.857L370.067 264.999L367.306 253.208L341.219 237.698Z" fill="#702C00"/>
<path d="M367.306 253.212L358.833 244.629C370.067 265.004 346.979 265.742 341.666 284.353C341.598 285.968 341.459 287.334 341.219 288.378C348.879 278.036 358.611 284.857 358.611 284.857L370.067 264.999L367.306 253.212Z" fill="#561F01"/>
<path d="M340.366 290.221L340.815 288.285C341.662 284.614 341.247 276.936 340.767 268.046C340.209 257.724 339.577 246.025 340.809 237.639L340.898 237.026L367.669 252.947L370.508 265.068L358.743 285.459L358.372 285.201C357.987 284.93 348.876 278.735 341.552 288.624L340.366 290.221ZM341.542 238.369C340.44 246.627 341.052 257.965 341.593 267.998C342.018 275.84 342.394 282.743 341.89 286.883C348.648 279.167 356.642 283.202 358.466 284.284L369.627 264.94L366.943 253.48L341.542 238.369Z" fill="#160800"/>
<path d="M223.614 299.617C238.798 308.994 238.245 336.026 256.052 336.023C271.238 336.023 289.455 307.339 289.455 307.339L223.614 299.617Z" fill="#630000"/>
<path d="M254.399 310.99C246.832 314.768 244.552 326.674 252.368 335.573C253.573 335.874 254.81 336.025 256.052 336.023C263.531 336.023 271.743 329.063 278.158 322C278.969 310.77 263.852 306.267 254.399 310.99Z" fill="#240000"/>
<path d="M259.778 326.509C252.599 322.348 246.643 326.619 243.747 329.53C246.758 333.411 250.518 336.025 256.052 336.023C260.912 336.023 266.083 333.078 270.868 329.081C268.262 326.261 263.439 324.788 259.778 326.509Z" fill="#FFC2C2"/>
<path d="M259.778 326.509C255.184 323.841 251.096 324.635 247.987 326.312C249.018 326.03 256.568 325.151 256.078 330.83C261.544 324.351 269.962 329.279 264.65 333.437C266.854 332.182 268.936 330.723 270.868 329.08C268.262 326.261 263.439 324.788 259.778 326.509Z" fill="#EA9494"/>
<path d="M256.049 336.438C250.955 336.438 246.942 334.323 243.42 329.785L243.197 329.497L243.453 329.239C246.42 326.264 252.469 321.919 259.793 326.038C263.733 324.318 268.642 326.062 271.166 328.794L271.461 329.114L271.128 329.393C265.535 334.063 260.462 336.434 256.046 336.434L256.049 336.438ZM244.301 329.565C247.597 333.686 251.349 335.61 256.049 335.61C260.177 335.61 264.954 333.403 270.256 329.049C267.815 326.674 263.431 325.244 259.951 326.883L259.756 326.974L259.568 326.866C252.845 322.962 247.211 326.75 244.301 329.565Z" fill="#932E2E"/>
<path d="M256.078 330.83C256.078 330.83 255.782 328.362 259.602 326.133L259.953 326.883C258.289 327.774 256.937 329.151 256.078 330.83Z" fill="#932E2E"/>
<path d="M254.154 318.683C269.513 320.256 281.309 312.761 288.395 307.214L232.168 300.621C237.137 308.167 243.905 317.631 254.154 318.683Z" fill="white"/>
<path d="M234.958 304.708C239.617 311.225 245.701 317.815 254.154 318.683C269.513 320.256 281.309 312.761 288.395 307.214L287.299 307.086C271.249 317.412 249.151 321.333 234.958 304.708Z" fill="#E0E0E0"/>
<path d="M258.348 319.312C256.933 319.312 255.519 319.239 254.112 319.094C243.94 318.051 237.275 309.128 231.827 300.85L231.338 300.109L289.442 306.923L288.641 307.542C278.556 315.437 268.6 319.312 258.348 319.312ZM233.009 301.136C238.262 309.04 244.684 317.3 254.196 318.27C265.463 319.425 276.313 315.903 287.339 307.507L233.009 301.136Z" fill="#838383"/>
<path d="M256.051 336.437C245.743 336.437 241.473 327.68 236.945 318.409C233.485 311.321 229.908 303.991 223.396 299.969L221.809 298.988L290.152 307.009L289.8 307.565C289.05 308.744 271.285 336.439 256.046 336.441L256.051 336.437ZM225.256 300.225C231.077 304.5 234.435 311.377 237.688 318.046C242.097 327.078 246.262 335.61 256.051 335.61C269.676 335.61 286.109 311.651 288.742 307.672L225.256 300.225Z" fill="#87402C"/>
<path d="M255.822 342.764C251.351 342.764 247.669 341.483 244.948 338.944C244.001 337.943 243.367 336.687 243.123 335.332C247.139 342.167 255.568 343.758 266.854 339.813C266.854 339.813 264.594 341.621 261.744 342.114C259.797 342.534 257.813 342.751 255.822 342.764Z" fill="#87402C"/>
<path d="M248.408 301.15C249.927 298.11 259.088 294.928 272.478 297.548C285.868 300.168 295.115 304.167 297.324 290.653C300.636 302.375 291.111 310.236 272.616 310.926C254.12 311.615 247.908 306.512 247.908 306.512C247.908 306.512 240.198 309.381 228.703 303.951C215.865 297.884 209.121 287.512 214.779 275.018C214.779 281.003 216.497 290.668 227.274 292.174C237.853 293.649 246.648 295.256 248.408 301.15Z" fill="#702C00"/>
<path d="M247.798 302.869C233.935 307.855 211.848 297.786 213.373 279.023C210.671 289.72 217.264 298.548 228.703 303.954C240.198 309.396 247.908 306.515 247.908 306.515C247.908 306.515 254.119 311.617 272.616 310.929C288.598 310.332 299.999 303.22 297.964 292.009C298.43 310.574 264.808 313.283 247.798 302.869Z" fill="#561F01"/>
<path d="M269.215 311.403C254.788 311.403 248.932 307.763 247.833 306.974C246.468 307.41 239.119 309.328 228.525 304.322C214.355 297.623 209.075 286.604 214.403 274.845L215.194 273.097V275.018C215.194 280.638 216.771 290.289 227.33 291.764C237.89 293.24 246.223 294.826 248.523 300.246C251.086 297.241 260.104 294.704 272.552 297.141C274.226 297.462 275.833 297.817 277.37 298.15C284.18 299.627 289.559 300.794 292.973 298.47C294.978 297.108 296.266 294.526 296.91 290.583L297.21 288.744L297.718 290.538C298.999 295.072 298.398 299.224 295.981 302.541C292.154 307.794 283.861 310.916 272.627 311.343C271.443 311.383 270.304 311.403 269.215 311.403ZM247.985 306.049L248.169 306.2C248.232 306.249 254.531 311.191 272.6 310.521C283.576 310.113 291.643 307.11 295.316 302.066C297.279 299.374 297.958 296.207 297.348 292.624C296.579 295.754 295.294 297.905 293.444 299.16C289.735 301.682 284.202 300.481 277.199 298.963C275.668 298.63 274.066 298.283 272.393 297.956C259.535 295.439 250.265 298.358 248.773 301.338L248.306 302.272L248.006 301.27C246.338 295.68 237.972 294.086 227.21 292.582C217.195 291.182 214.811 282.919 214.424 276.978C210.603 287.598 215.893 297.439 228.875 303.575C240.088 308.874 247.684 306.155 247.758 306.126L247.985 306.049Z" fill="#160800"/>
<path d="M260.357 235.427C251.524 260.664 230.864 259.697 229.001 272.452C227.495 282.76 233.763 289.829 246.393 291.484C259.022 293.139 273.034 287.616 271.036 278.095C271.033 278.095 266.566 217.684 260.357 235.427Z" fill="#F9C89F"/>
<path d="M228.905 273.368C227.899 283.173 234.142 289.879 246.39 291.484C258.695 293.096 272.307 287.893 271.149 278.819C258.016 294.304 229.482 288.378 228.905 273.368Z" fill="#ECA77F"/>
<path d="M251.285 292.006C249.63 292.007 247.976 291.9 246.335 291.686C239.457 290.785 234.249 288.232 231.277 284.305C228.797 281.032 227.894 276.954 228.591 272.185C229.429 266.451 233.877 263.519 239.519 259.807C246.601 255.144 255.413 249.341 260.356 235.219C260.356 235.219 259.576 242.144 254.511 247.982C249.943 253.934 244.595 257.455 239.974 260.497C234.51 264.095 230.202 266.937 229.401 272.305C228.738 276.845 229.589 280.715 231.929 283.805C234.768 287.552 239.779 289.994 246.438 290.865C255.355 292.035 264.219 289.916 268.476 285.593C270.583 283.456 271.442 280.934 271.028 278.097C271.028 278.097 273.441 281.963 269.066 286.172C265.438 289.853 258.652 292.006 251.285 292.006Z" fill="#87402C"/>
<path d="M340.229 291.828C343.264 283.172 351.847 268.416 362.614 273.795C373.38 279.174 367.445 298.617 356.954 306.201C346.463 313.785 340.658 306.264 339.417 299.64L340.229 291.828Z" fill="#F9C89F"/>
<path d="M345.562 294.643C348.557 289.581 353.869 291.063 352.254 296.724C356.989 291.37 352.575 289.13 351.745 289.13C353.401 286.648 357.015 284.169 359.274 286.648C361.532 289.127 358.239 293.849 354.348 297.703C359.17 295.991 363.967 288.923 361.483 285.614C356.667 280.012 346.539 288.787 345.562 294.643Z" fill="#ECA77F"/>
<path d="M368.279 283.184C367.437 287.894 365.579 292.825 362.684 296.648C356.472 304.854 346.119 307.682 339.456 299.209L339.412 299.648C340.653 306.267 346.46 313.79 356.949 306.209C363.865 301.205 368.795 291.063 368.279 283.184Z" fill="#ECA77F"/>
<path d="M348.679 309.7C347.571 309.706 346.473 309.5 345.443 309.093C344.664 308.782 343.933 308.365 343.269 307.853C339.01 304.25 339.416 299.54 339.416 299.54C340.03 302.812 342.016 306.838 345.75 308.325C348.877 309.572 352.667 308.685 356.711 305.764C363.599 300.784 368.493 290.721 367.85 282.85C367.615 279.96 366.482 276.088 362.428 274.062C359.722 272.711 356.954 272.591 354.2 273.707C347.16 276.557 342.106 286.374 340.229 291.726C340.229 291.726 340.514 287.187 344.459 281.525C346.944 277.844 350.14 274.457 353.89 272.94C356.874 271.732 359.873 271.86 362.798 273.323C366.28 275.062 368.313 278.334 368.677 282.783C369.34 290.911 364.297 301.301 357.196 306.435C353.763 308.916 350.912 309.7 348.679 309.7Z" fill="#87402C"/>
<path d="M354.341 297.706C356.584 296.983 360.39 292.868 361.478 289.274C361.938 287.752 361.84 286.563 361.185 285.739C359.876 284.148 358.141 283.634 356.043 284.22C351.224 285.558 345.922 292.196 345.561 294.643C345.561 294.643 345.033 292.382 348.272 288.741C350.372 286.393 353.137 284.167 355.821 283.421C358.232 282.754 360.307 283.375 361.829 285.219C362.655 286.259 362.806 287.742 362.271 289.514C361.846 290.918 361.047 292.377 360.084 293.705C357.223 297.706 354.341 297.706 354.341 297.706Z" fill="#87402C"/>
<path d="M352.254 296.727C354.497 294.39 354.401 291.857 353.36 290.485C352.879 289.845 350.904 288.885 348.554 289.576L348.322 288.776C350.987 287.997 353.287 289.032 354.016 289.978C354.556 290.711 354.86 291.591 354.888 292.5C354.893 295.253 352.254 296.727 352.254 296.727Z" fill="#87402C"/>
<path d="M370.067 265.004C370.343 264.177 389.668 237.148 399.054 227.494C385.527 194.467 332.935 185.985 316.787 177.573C295.662 180.134 246.39 177.573 246.39 177.573C246.39 177.573 237.003 204.602 235.346 211.221C250.531 203.499 284.462 209.461 317.203 228.321C348.81 246.524 370.067 265.004 370.067 265.004Z" fill="white"/>
<path d="M368.336 197.783C361.169 217.043 356.727 220.712 343.106 221.166C325.784 221.745 285.87 208.91 260.051 208.349C276.454 210.002 297.054 216.717 317.2 228.321C348.81 246.524 370.062 265.004 370.062 265.004C370.338 264.177 389.663 237.148 399.049 227.494C392.814 212.266 380.215 204.236 368.336 197.783Z" fill="#D6D3D0"/>
<path d="M370.256 265.742L369.795 265.316C369.583 265.13 348.203 246.652 316.993 228.68C285.727 210.674 251.476 203.487 235.535 211.589L234.725 212.002L234.946 211.12C236.588 204.559 245.904 177.707 245.999 177.437L246.1 177.144L246.41 177.16C246.902 177.186 295.891 179.693 316.734 177.16L316.862 177.146L316.976 177.205C320.894 179.245 327.053 181.318 334.185 183.717C356.07 191.079 389.143 202.205 399.435 227.336L399.537 227.587L399.348 227.78C390.262 237.125 371.056 263.828 370.452 265.151L370.256 265.742ZM252.438 207.473C270.306 207.473 294.664 214.865 317.407 227.958C346.42 244.666 366.963 261.814 369.962 264.364C372.443 260.437 390.083 236.213 398.567 227.395C388.3 202.789 355.591 191.784 333.922 184.496C326.826 182.108 320.689 180.044 316.708 177.992C296.601 180.402 250.904 178.205 246.68 177.992C245.699 180.822 237.976 203.166 235.977 210.447C240.358 208.441 245.973 207.473 252.438 207.473Z" fill="#72716F"/>
<path d="M289.705 225.405C291.774 223.645 299.476 219.201 303.134 221.838C306.791 224.476 313.825 231.869 311.962 245.263C305.402 226.623 289.705 225.405 289.705 225.405Z" fill="#702C00"/>
<path d="M310.272 234.244C306.608 228.214 301.942 222.189 294.594 222.485C292.447 223.445 290.576 224.664 289.705 225.405C289.705 225.405 305.403 226.623 311.962 245.263C312.229 243.388 312.32 241.492 312.236 239.599C311.882 237.718 311.218 235.909 310.272 234.244Z" fill="#561F01"/>
<path d="M312.133 246.974L311.579 245.398C308.232 235.89 302.448 231.069 298.176 228.699C293.562 226.138 289.711 225.818 289.673 225.809L288.691 225.733L289.441 225.093C291.363 223.466 299.382 218.626 303.377 221.505C305.999 223.4 314.4 230.714 312.369 245.316L312.133 246.974ZM290.719 225.135C293.475 225.648 296.127 226.613 298.568 227.99C302.714 230.291 308.255 234.837 311.747 243.544C312.889 230.498 305.323 223.92 302.895 222.166C299.923 220.02 293.559 223.11 290.719 225.135Z" fill="#160800"/>
<path d="M261.718 219.497C261.374 217.397 259.029 210.834 255.509 210.559C251.99 210.283 241.481 209.545 233.124 221.022C250.027 210.531 261.718 219.497 261.718 219.497Z" fill="#702C00"/>
<path d="M255.831 213.401C249.406 210.947 241.923 213.798 236.093 217.519C235.016 218.61 234.024 219.781 233.124 221.022C250.026 210.531 261.717 219.497 261.717 219.497C261.49 218.369 261.149 217.268 260.696 216.211C258.924 216.331 257.364 213.975 255.831 213.401Z" fill="#561F01"/>
<path d="M231.575 222.461L232.797 220.784C241.352 209.038 252.031 209.878 255.544 210.154C259.442 210.459 261.801 217.474 262.122 219.436L262.282 220.444L261.468 219.823C261.441 219.801 258.537 217.615 253.641 216.72C249.126 215.896 241.947 216.034 233.339 221.371L231.575 222.461ZM252.784 210.839C248.443 210.839 241.14 211.933 234.744 219.604C242.777 215.177 249.496 215.123 253.834 215.923C257.374 216.578 259.871 217.853 261.101 218.599C260.371 215.917 258.218 211.175 255.477 210.959C254.819 210.911 253.899 210.839 252.784 210.839Z" fill="#160800"/>
<path d="M316.617 177.951C316.117 177.728 307.981 174.062 300.779 168.615C293.839 163.797 292.704 159.285 292.704 159.285C298.98 169.096 316.775 177.115 316.955 177.195L316.617 177.951Z" fill="#72716F"/>
<path d="M246.37 177.986C242.952 177.834 238.944 177.026 235.255 175.905C225.134 172.849 224.782 169.616 224.782 169.616C226.816 172.519 237.88 176.782 246.407 177.163L246.37 177.986Z" fill="#72716F"/>
<path d="M257.078 227.912C257.078 227.912 252.45 218.759 243.461 225.511C245.869 221.8 255.367 218.887 257.078 227.912Z" fill="#561F01"/>
<path d="M304.292 239.121C304.292 239.121 298.429 229.747 289.441 236.498C291.848 232.788 302.583 230.096 304.292 239.121Z" fill="#561F01"/>
</g>
<defs>
<clipPath id="clip0_39_560">
<rect width="500" height="560" fill="white"/>
</clipPath>
</defs>
</svg>
