<svg width="20" height="20" viewBox="0 0 20 20" fill="none" xmlns="http://www.w3.org/2000/svg">
<path d="M10.0014 0C4.48601 0 0.0012207 4.21129 0.0012207 9.392C0.0012207 14.3961 4.19062 18.4997 9.45076 18.7686V18.2531C4.49161 17.9842 0.548451 14.1135 0.548451 9.392C0.548451 4.49758 4.78916 0.513859 10.0014 0.513859C15.2137 0.513859 19.4544 4.49758 19.4544 9.392C19.4544 13.8398 15.9546 17.5311 11.4042 18.1709C11.3822 18.3491 11.3512 18.5252 11.3111 18.7018C16.2099 18.0988 20.0017 14.1532 20.0017 9.392C20.0004 4.21291 15.5156 0 10.0014 0Z" fill="#384041"/>
<path d="M10.3119 2.4304C10.312 2.46413 10.3049 2.49753 10.2912 2.52871C10.2775 2.55988 10.2574 2.5882 10.232 2.61205C10.2066 2.6359 10.1764 2.65481 10.1432 2.66769C10.11 2.68057 10.0744 2.68718 10.0385 2.68713C9.02384 2.68767 8.0216 2.89693 7.10228 3.30019C6.16951 3.70616 5.33996 4.29473 4.66928 5.02642C3.29754 6.51657 2.67916 8.46389 2.97498 10.3667C3.41958 13.2352 5.85991 15.5559 8.90784 16.0114C9.08809 16.0385 9.26877 16.0592 9.44946 16.0713V16.5856C9.23945 16.5718 9.02988 16.5496 8.82202 16.5188C5.53907 16.0272 2.91418 13.5284 2.43292 10.4387C2.11381 8.38897 2.77791 6.29264 4.2553 4.68871C5.73269 3.08477 7.83709 2.17124 10.0385 2.17124C10.0746 2.17135 10.1103 2.17814 10.1436 2.19123C10.1769 2.20432 10.2071 2.22346 10.2325 2.24753C10.2579 2.27161 10.278 2.30015 10.2916 2.33153C10.3052 2.36291 10.3121 2.39651 10.3119 2.4304Z" fill="#384041"/>
<path d="M16.949 12.5537C15.8765 14.6189 13.8066 16.0454 11.4793 16.4718C11.4793 16.2973 11.4758 16.1244 11.4702 15.9515C13.5949 15.5336 15.4755 14.218 16.4582 12.329C16.474 12.2987 16.4959 12.2717 16.5227 12.2493C16.5496 12.227 16.5808 12.2099 16.6147 12.199C16.6486 12.188 16.6845 12.1834 16.7203 12.1855C16.756 12.1875 16.7911 12.1962 16.8233 12.2109C16.8555 12.2257 16.8843 12.2463 16.9081 12.2715C16.9318 12.2967 16.9501 12.326 16.9617 12.3579C16.9734 12.3897 16.9783 12.4234 16.9761 12.457C16.9739 12.4906 16.9647 12.5234 16.949 12.5537Z" fill="#384041"/>
<path d="M11.1127 16.5318C11.1127 16.6569 11.1127 16.782 11.1093 16.9071C11.0981 17.342 11.0873 17.7838 11.0269 18.2155C11.0042 18.3928 10.9695 18.5687 10.923 18.7419C10.8586 18.9933 10.7638 19.2371 10.6405 19.4683C10.5694 19.5983 10.3611 19.9992 10.1627 19.9992C10.1418 19.9987 10.1212 19.994 10.1023 19.9854C10.0994 19.9848 10.0963 19.9848 10.0933 19.9854C10.0877 19.9854 10.0803 19.9854 10.0747 19.9854C10.0037 19.9829 9.9367 19.9541 9.88823 19.9053C9.83976 19.8565 9.81379 19.7917 9.81601 19.725V10.2654C9.81348 10.2318 9.81835 10.1981 9.83031 10.1664C9.84227 10.1346 9.86106 10.1055 9.88552 10.0809C9.90997 10.0562 9.93956 10.0366 9.97245 10.0232C10.0053 10.0097 10.0408 10.0028 10.0767 10.0028C10.1126 10.0028 10.148 10.0097 10.1809 10.0232C10.2138 10.0366 10.2434 10.0562 10.2679 10.0809C10.2923 10.1055 10.3111 10.1346 10.3231 10.1664C10.335 10.1981 10.3399 10.2318 10.3374 10.2654V13.5401C10.3506 13.5374 10.364 13.5356 10.3775 13.5348H10.5763C10.8208 13.5348 11.0213 13.7815 11.0303 14.0912C11.0472 14.7318 11.089 15.3724 11.1054 16.013C11.1093 16.1859 11.1127 16.3588 11.1127 16.5318Z" fill="#384041"/>
<path d="M16.4328 3.59296L14.4358 5.4686L14.1714 5.71845L10.4758 9.18831C10.4245 9.08004 10.3323 8.99347 10.2171 8.94535L14.1805 5.22403L16.1758 3.3504C16.1927 3.33429 16.2128 3.3215 16.235 3.31276C16.2572 3.30403 16.2811 3.29953 16.3052 3.29953C16.3292 3.29953 16.3531 3.30403 16.3753 3.31276C16.3975 3.3215 16.4176 3.33429 16.4345 3.3504C16.4683 3.38291 16.487 3.42661 16.4867 3.47201C16.4864 3.51742 16.467 3.56088 16.4328 3.59296Z" fill="#384041"/>
<path d="M16.6225 4.3842L15.3185 5.60871C15.1703 5.74873 14.975 5.83619 14.7659 5.8562C14.5567 5.87621 14.3466 5.82753 14.1714 5.71845C14.1204 5.6863 14.0729 5.64955 14.0296 5.60871C13.986 5.56832 13.9474 5.5235 13.9144 5.47508C13.7983 5.31065 13.7463 5.11355 13.7673 4.91723C13.7883 4.7209 13.8809 4.53744 14.0296 4.39796L15.3353 3.17183C15.3522 3.15572 15.3723 3.14292 15.3946 3.13419C15.4168 3.12545 15.4406 3.12096 15.4647 3.12096C15.4888 3.12096 15.5126 3.12545 15.5348 3.13419C15.557 3.14292 15.5772 3.15572 15.5941 3.17183C15.6281 3.20419 15.6472 3.24783 15.6472 3.29331C15.6472 3.33878 15.6281 3.38243 15.5941 3.41479L14.2861 4.64011C14.2061 4.71509 14.153 4.81159 14.134 4.91623C14.1151 5.02087 14.1313 5.12845 14.1805 5.22403C14.2058 5.27772 14.2417 5.32648 14.2861 5.36778C14.3295 5.40927 14.3801 5.44311 14.4358 5.4686C14.5382 5.51404 14.653 5.5291 14.7646 5.51098C14.8762 5.49287 14.9791 5.44286 15.0593 5.36778L16.3655 4.14164C16.3824 4.12553 16.4026 4.11273 16.4248 4.104C16.447 4.09527 16.4708 4.09077 16.4949 4.09077C16.519 4.09077 16.5428 4.09527 16.565 4.104C16.5872 4.11273 16.6074 4.12553 16.6243 4.14164C16.658 4.17415 16.6768 4.21784 16.6765 4.26325C16.6761 4.30866 16.6568 4.35212 16.6225 4.3842Z" fill="#384041"/>
<path d="M10.5237 9.39199C10.524 9.52074 10.4702 9.64442 10.374 9.73618C10.3226 9.78495 10.2611 9.82339 10.1933 9.84916C10.1318 9.87195 10.0663 9.88363 10.0001 9.88358C9.96408 9.88352 9.92812 9.88013 9.89276 9.87345C9.81994 9.85977 9.75128 9.831 9.69181 9.78923C9.60162 9.7284 9.53436 9.64221 9.49976 9.54312C9.46516 9.44404 9.46501 9.33719 9.49934 9.23802C9.53366 9.13885 9.60067 9.05249 9.6907 8.99144C9.78072 8.93038 9.88909 8.8978 10.0001 8.89838C10.1003 8.89841 10.1984 8.92559 10.2825 8.97666C10.3667 9.02773 10.4333 9.10052 10.4745 9.18629C10.5078 9.2503 10.5246 9.32076 10.5237 9.39199Z" fill="#384041"/>
<path d="M5.48603 10.2998C5.48609 10.3336 5.47905 10.367 5.46534 10.3982C5.45162 10.4293 5.43148 10.4577 5.40608 10.4815C5.38068 10.5054 5.35052 10.5243 5.31732 10.5371C5.28413 10.55 5.24855 10.5566 5.21263 10.5566H4.33335C4.26267 10.5539 4.19581 10.5257 4.14679 10.4778C4.09777 10.4299 4.07039 10.3661 4.07039 10.2996C4.07039 10.2332 4.09777 10.1694 4.14679 10.1215C4.19581 10.0736 4.26267 10.0454 4.33335 10.0427H5.21479C5.287 10.0433 5.35605 10.0706 5.40687 10.1188C5.45769 10.1669 5.48615 10.232 5.48603 10.2998Z" fill="#384041"/>
<path d="M10.5271 4.00599V4.82962C10.5271 4.89771 10.4983 4.96301 10.447 5.01115C10.3958 5.0593 10.3262 5.08635 10.2537 5.08635C10.1812 5.08635 10.1117 5.0593 10.0604 5.01115C10.0091 4.96301 9.98031 4.89771 9.98031 4.82962V4.00599C9.98031 3.9379 10.0091 3.8726 10.0604 3.82446C10.1117 3.77631 10.1812 3.74926 10.2537 3.74926C10.3262 3.74926 10.3958 3.77631 10.447 3.82446C10.4983 3.8726 10.5271 3.9379 10.5271 4.00599Z" fill="#384041"/>
<path d="M16.1064 10.2998C16.1061 10.3679 16.0773 10.433 16.026 10.4811C15.9748 10.5292 15.9054 10.5564 15.833 10.5566H14.9537C14.883 10.5539 14.8161 10.5257 14.7671 10.4778C14.7181 10.4299 14.6907 10.3661 14.6907 10.2996C14.6907 10.2332 14.7181 10.1694 14.7671 10.1215C14.8161 10.0736 14.883 10.0454 14.9537 10.0427H15.833C15.9054 10.043 15.9748 10.0702 16.0261 10.1184C16.0773 10.1666 16.1061 10.2318 16.1064 10.2998Z" fill="#384041"/>
</svg>
