<svg width="109" height="74" viewBox="0 0 109 74" fill="none" xmlns="http://www.w3.org/2000/svg">
<g clip-path="url(#clip0_214_131)">
<path fill-rule="evenodd" clip-rule="evenodd" d="M34.2428 12.479V62.8352H0C0 40.0246 14.1833 20.4846 34.2428 12.479V12.479Z" fill="#0CF246"/>
<path fill-rule="evenodd" clip-rule="evenodd" d="M38.4229 11.0054C43.6308 9.40887 49.0502 8.59988 54.4996 8.6055C59.9489 8.59984 65.3681 9.40882 70.5758 11.0054V62.835H38.4229V11.0054Z" fill="white"/>
<path fill-rule="evenodd" clip-rule="evenodd" d="M74.7566 12.479C94.8161 20.4846 108.997 40.0246 108.997 62.8352H74.7566V12.479Z" fill="#F23030"/>
<path fill-rule="evenodd" clip-rule="evenodd" d="M50.8665 5.42317V12.2187H58.1331V5.42317H59.5353C60.0457 4.87343 60.3143 4.25114 60.3143 3.61545C60.3143 1.6202 57.7091 0 54.5009 0C51.2927 0 48.6875 1.61852 48.6875 3.61545C48.6875 4.25002 48.9562 4.87343 49.4665 5.42317H50.8665Z" fill="white"/>
<path fill-rule="evenodd" clip-rule="evenodd" d="M108.997 68.5768C108.997 68.0974 108.806 67.6377 108.465 67.2987C108.124 66.9597 107.662 66.7692 107.181 66.769H1.81494C1.33318 66.7692 0.871199 66.9597 0.530542 67.2987C0.189885 67.6377 -0.00156032 68.0974 -0.00170898 68.5768V72.1933C-0.00111479 72.6725 0.190497 73.1318 0.53109 73.4705C0.871683 73.8092 1.33342 73.9996 1.81494 73.9999H107.183C107.664 73.999 108.125 73.8084 108.465 73.4697C108.805 73.1311 108.997 72.6721 108.997 72.1933V68.5768Z" fill="white"/>
<path fill-rule="evenodd" clip-rule="evenodd" d="M21.2737 40.2811C19.4851 39.4909 18.1665 36.7969 18.1665 33.5983C18.1665 29.7803 20.0454 26.6777 22.3596 26.6777C24.6737 26.6777 26.5526 29.7775 26.5526 33.5983C26.5526 36.7969 25.2335 39.4909 23.4448 40.2811C23.3035 42.3004 23.1644 44.7254 23.1644 46.3428C23.1644 50.8858 23.7286 63.92 23.7286 63.92H20.9944C20.9944 63.92 21.5575 50.8858 21.5575 46.3428C21.5575 44.7243 21.4162 42.3004 21.2771 40.2811H21.2737Z" fill="#1A1A1A"/>
<path fill-rule="evenodd" clip-rule="evenodd" d="M85.3329 39.131C85.4893 41.2703 85.6694 44.1094 85.6694 45.9283C85.6677 50.483 85.104 63.5584 85.104 63.5584H87.8461C87.8461 63.5584 87.278 50.483 87.278 45.9283C87.278 44.1094 87.4569 41.2703 87.6145 39.131C88.568 38.1381 89.8176 36.6569 90.0986 35.4625C90.6297 33.2033 89.6611 26.6807 89.6611 26.6807H89.0862L88.7244 35.8633H88.2449L87.8758 26.6807H87.0744L86.7126 35.8633H86.2375L85.8685 26.6807H85.067L84.7053 35.8633H84.2302L83.8611 26.6807H83.2868C83.2868 26.6807 82.3176 33.2033 82.8488 35.4625C83.1292 36.6569 84.3788 38.1381 85.3329 39.131Z" fill="#1A1A1A"/>
<path fill-rule="evenodd" clip-rule="evenodd" d="M53.5989 46.135C49.2089 45.4614 45.7798 39.9177 45.7798 33.1868C45.7798 30.9019 46.1825 28.6572 46.9481 26.6787H62.0523C62.8179 28.6572 63.2206 30.9019 63.2206 33.1868C63.2206 39.916 59.7914 45.4597 55.4015 46.135C55.3454 48.4395 55.3 50.8148 55.3 52.3502C55.3 54.0072 55.3263 56.4768 55.3561 58.5625L59.5895 63.1948H49.4165L53.365 58.8728C53.5332 56.7118 53.7015 54.0764 53.7015 52.3485C53.7015 50.8131 53.6555 48.4378 53.6 46.1334L53.5989 46.135Z" fill="#1A1A1A"/>
</g>
<defs>
<clipPath id="clip0_214_131">
<rect width="109" height="74" fill="white"/>
</clipPath>
</defs>
</svg>
