<svg width="883" height="622" viewBox="0 0 883 622" fill="none" xmlns="http://www.w3.org/2000/svg">
<g clip-path="url(#clip0_433_20)">
<path d="M792.8 0H89.27C40.04 0 -0.0100098 42.37 -0.0100098 94.45V526.91C-0.0100098 578.99 40.04 621.36 89.27 621.36H792.8C842.03 621.36 882.09 578.99 882.09 526.91V94.45C882.09 42.37 842.03 0 792.8 0ZM89.27 45.52H792.8C799.532 45.5649 806.169 47.1147 812.225 50.0562C818.281 52.9976 823.603 57.2562 827.8 62.52L504.37 291.77L503.37 292.55C457.86 329.11 396.8 291.55 396.12 291.11L47.97 72.58C55.58 56.56 71.21 45.52 89.27 45.52ZM792.8 575.84H89.27C63.77 575.84 43.02 553.89 43.02 526.91V122.41L374 330.18C376.28 331.64 412.56 354.3 456.68 354.3C479.83 354.3 505.14 348.06 528.82 329.24L839.06 109.38V526.91C839.06 553.89 818.27 575.84 792.8 575.84Z" fill="#384041"/>
</g>
<defs>
<clipPath id="clip0_433_20">
<rect width="882.09" height="621.36" fill="white"/>
</clipPath>
</defs>
</svg>
