<svg width="152" height="172" viewBox="0 0 152 172" fill="none" xmlns="http://www.w3.org/2000/svg">
<path d="M150.608 25.77C95.5281 25.77 75.6081 0.02 75.6081 0C75.6081 0 55.7281 25.77 0.608099 25.77C0.608099 25.77 -11.8119 148.08 75.6081 171.35C162.998 148.08 150.608 25.77 150.608 25.77Z" fill="#F6A310"/>
<path d="M141.498 32.1502C93.0883 32.1502 75.6083 9.49023 75.6083 9.49023C75.6083 9.49023 58.1383 32.1402 9.72828 32.1402C9.72828 32.1402 -1.18172 141.38 75.6083 161.84C152.418 141.39 141.498 32.1502 141.498 32.1502Z" fill="#E5DFF0"/>
<path d="M141.498 32.1502C93.0883 32.1502 75.6083 9.49023 75.6083 9.49023C75.6083 9.49023 58.1383 32.1402 9.72828 32.1402C9.72828 32.1402 -1.18172 141.38 75.6083 161.84C152.418 141.39 141.498 32.1502 141.498 32.1502Z" fill="white"/>
<g style="mix-blend-mode:multiply">
<path d="M104.878 112.32C83.0582 81.5898 60.1682 51.6398 38.0882 21.0898C25.8788 24.3264 13.2885 25.9006 0.658148 25.7698C0.658148 25.7698 -11.7618 148.08 75.6581 171.35C94.8008 166.458 111.721 155.224 123.658 139.48C117.531 130.34 111.271 121.286 104.878 112.32Z" fill="#384041" fill-opacity="0.36"/>
</g>
<path d="M74.6082 44.0303C71.9895 44.0303 69.4297 44.8068 67.2524 46.2616C65.0751 47.7165 63.3781 49.7843 62.376 52.2036C61.3739 54.6228 61.1117 57.285 61.6226 59.8533C62.1334 62.4216 63.3944 64.7807 65.2461 66.6324C67.0977 68.484 69.4569 69.745 72.0252 70.2559C74.5935 70.7667 77.2556 70.5045 79.6749 69.5024C82.0942 68.5003 84.162 66.8033 85.6168 64.626C87.0717 62.4487 87.8482 59.8889 87.8482 57.2703C87.8495 55.5312 87.5079 53.8089 86.843 52.202C86.1781 50.5951 85.2029 49.135 83.9732 47.9053C82.7435 46.6756 81.2834 45.7003 79.6765 45.0354C78.0695 44.3705 76.3472 44.029 74.6082 44.0303V44.0303ZM74.6082 65.0803C73.0635 65.0803 71.5535 64.6222 70.2692 63.7641C68.9848 62.9059 67.9838 61.6861 67.3927 60.259C66.8016 58.8319 66.6469 57.2616 66.9482 55.7466C67.2496 54.2316 67.9934 52.84 69.0857 51.7478C70.1779 50.6555 71.5695 49.9117 73.0845 49.6104C74.5995 49.309 76.1699 49.4637 77.5969 50.0548C79.024 50.6459 80.2438 51.6469 81.1019 52.9313C81.9601 54.2156 82.4182 55.7256 82.4182 57.2703C82.4182 59.3416 81.5953 61.3281 80.1307 62.7928C78.666 64.2574 76.6795 65.0803 74.6082 65.0803V65.0803Z" fill="#384041"/>
<path d="M70.4983 68.8994V123.169C70.5506 124.236 71.0112 125.242 71.7847 125.978C72.5582 126.715 73.5853 127.126 74.6533 127.126C75.7213 127.126 76.7484 126.715 77.5219 125.978C78.2953 125.242 78.7559 124.236 78.8083 123.169V68.8994H70.4983Z" fill="#384041"/>
<path d="M89.8283 115.49C89.8283 117.66 87.7783 119.43 85.2483 119.43H75.0483C72.5183 119.43 70.4683 117.66 70.4683 115.49C70.4683 113.31 72.5183 111.54 75.0483 111.54H85.2483C87.7783 111.54 89.8283 113.31 89.8283 115.49Z" fill="#384041"/>
<path d="M87.6782 102.589C87.5991 103.572 87.1335 104.483 86.3835 105.122C85.6336 105.761 84.6606 106.077 83.6782 105.999H74.8582C73.8757 106.077 72.9027 105.761 72.1528 105.122C71.4029 104.483 70.9372 103.572 70.8582 102.589C70.9372 101.607 71.4029 100.696 72.1528 100.057C72.9027 99.4177 73.8757 99.1021 74.8582 99.1795H83.6782C84.6606 99.1021 85.6336 99.4177 86.3835 100.057C87.1335 100.696 87.5991 101.607 87.6782 102.589Z" fill="#384041"/>
<path d="M78.7883 123.56C78.7883 123.56 79.2083 119.44 86.0483 119.44C86.0483 119.44 85.1683 115.44 84.9283 115.5C84.6883 115.56 76.1583 115.5 76.1583 115.5C76.1583 115.5 75.2383 120.7 75.1583 121.33C75.0783 121.96 78.7883 123.56 78.7883 123.56Z" fill="#384041"/>
</svg>
