<svg width="158" height="222" viewBox="0 0 158 222" fill="none" xmlns="http://www.w3.org/2000/svg">
<g clip-path="url(#clip0_314_93)">
<path d="M154.69 33.32H140.63V3.24001C140.626 2.7511 140.513 2.26929 140.297 1.83025C140.082 1.39122 139.771 1.0062 139.387 0.703713C139.003 0.401222 138.556 0.188997 138.078 0.0827646C137.601 -0.0234683 137.106 -0.020992 136.63 0.0900048L2.46997 33.41C1.76578 33.5841 1.14005 33.9888 0.692444 34.5596C0.244839 35.1304 0.00111886 35.8346 0 36.56V218.29C0.00263751 219.151 0.345851 219.976 0.954773 220.585C1.5637 221.194 2.38886 221.537 3.25 221.54H154.69C155.551 221.537 156.376 221.194 156.985 220.585C157.594 219.976 157.937 219.151 157.94 218.29V36.56C157.937 35.6998 157.594 34.8757 156.984 34.2684C156.375 33.661 155.55 33.32 154.69 33.32V33.32ZM134.14 33.32H29.78L134.14 7.39001V33.32ZM151.45 215.05H6.44995V39.81H151.45V215.05Z" fill="#011839"/>
<path d="M27.05 169.61H44.35C44.7763 169.612 45.1987 169.529 45.593 169.367C45.9872 169.204 46.3455 168.966 46.6475 168.665C46.9494 168.364 47.189 168.006 47.3524 167.613C47.5159 167.219 47.6 166.797 47.6 166.37V149.06C47.6 148.634 47.5159 148.212 47.3524 147.818C47.189 147.424 46.9494 147.067 46.6475 146.766C46.3455 146.465 45.9872 146.226 45.593 146.064C45.1987 145.902 44.7763 145.819 44.35 145.82H27.05C26.6237 145.819 26.2013 145.902 25.807 146.064C25.4128 146.226 25.0544 146.465 24.7525 146.766C24.4506 147.067 24.211 147.424 24.0475 147.818C23.8841 148.212 23.8 148.634 23.8 149.06V166.37C23.8 166.797 23.8841 167.219 24.0475 167.613C24.211 168.006 24.4506 168.364 24.7525 168.665C25.0544 168.966 25.4128 169.204 25.807 169.367C26.2013 169.529 26.6237 169.612 27.05 169.61V169.61ZM30.29 152.31H41.11V163.12H30.29V152.31Z" fill="#011839"/>
<path d="M83.2999 152.31H130.89C131.331 152.335 131.773 152.269 132.188 152.117C132.603 151.965 132.983 151.73 133.304 151.426C133.625 151.123 133.881 150.757 134.055 150.351C134.23 149.945 134.32 149.507 134.32 149.065C134.32 148.623 134.23 148.186 134.055 147.78C133.881 147.374 133.625 147.008 133.304 146.704C132.983 146.401 132.603 146.166 132.188 146.014C131.773 145.862 131.331 145.796 130.89 145.82H83.2999C82.8586 145.796 82.417 145.862 82.002 146.014C81.5869 146.166 81.2073 146.401 80.8862 146.704C80.5652 147.008 80.3094 147.374 80.1346 147.78C79.9599 148.186 79.8698 148.623 79.8698 149.065C79.8698 149.507 79.9599 149.945 80.1346 150.351C80.3094 150.757 80.5652 151.123 80.8862 151.426C81.2073 151.73 81.5869 151.965 82.002 152.117C82.417 152.269 82.8586 152.335 83.2999 152.31Z" fill="#011839"/>
<path d="M61.6599 169.61H130.89C131.331 169.635 131.773 169.569 132.188 169.417C132.603 169.265 132.983 169.03 133.304 168.726C133.625 168.422 133.881 168.056 134.055 167.65C134.23 167.245 134.32 166.807 134.32 166.365C134.32 165.923 134.23 165.486 134.055 165.08C133.881 164.674 133.625 164.308 133.304 164.004C132.983 163.701 132.603 163.466 132.188 163.314C131.773 163.161 131.331 163.096 130.89 163.12H61.6599C60.8304 163.166 60.0502 163.528 59.4792 164.132C58.9083 164.735 58.5902 165.534 58.5902 166.365C58.5902 167.196 58.9083 167.995 59.4792 168.599C60.0502 169.202 60.8304 169.564 61.6599 169.61Z" fill="#011839"/>
<path d="M27.05 204.23H44.35C44.7772 204.231 45.2004 204.148 45.5953 203.985C45.9902 203.822 46.349 203.583 46.651 203.281C46.9531 202.979 47.1924 202.62 47.3553 202.225C47.5182 201.83 47.6013 201.407 47.6 200.98V183.68C47.6013 183.253 47.5182 182.829 47.3553 182.434C47.1924 182.04 46.9531 181.681 46.651 181.379C46.349 181.077 45.9902 180.837 45.5953 180.674C45.2004 180.512 44.7772 180.428 44.35 180.43H27.05C26.6228 180.428 26.1996 180.512 25.8047 180.674C25.4098 180.837 25.051 181.077 24.7489 181.379C24.4469 181.681 24.2076 182.04 24.0447 182.434C23.8818 182.829 23.7987 183.253 23.8 183.68V200.98C23.7987 201.407 23.8818 201.83 24.0447 202.225C24.2076 202.62 24.4469 202.979 24.7489 203.281C25.051 203.583 25.4098 203.822 25.8047 203.985C26.1996 204.148 26.6228 204.231 27.05 204.23V204.23ZM30.29 186.91H41.11V197.73H30.29V186.91Z" fill="#011839"/>
<path d="M130.89 180.43H83.2999C82.8586 180.405 82.417 180.471 82.002 180.623C81.5869 180.775 81.2073 181.01 80.8862 181.314C80.5652 181.618 80.3094 181.984 80.1346 182.39C79.9599 182.796 79.8698 183.233 79.8698 183.675C79.8698 184.117 79.9599 184.554 80.1346 184.96C80.3094 185.366 80.5652 185.732 80.8862 186.036C81.2073 186.339 81.5869 186.575 82.002 186.727C82.417 186.879 82.8586 186.944 83.2999 186.92H130.89C131.331 186.944 131.773 186.879 132.188 186.727C132.603 186.575 132.983 186.339 133.304 186.036C133.625 185.732 133.881 185.366 134.055 184.96C134.23 184.554 134.32 184.117 134.32 183.675C134.32 183.233 134.23 182.796 134.055 182.39C133.881 181.984 133.625 181.618 133.304 181.314C132.983 181.01 132.603 180.775 132.188 180.623C131.773 180.471 131.331 180.405 130.89 180.43Z" fill="#011839"/>
<path d="M61.6599 204.23H130.89C131.331 204.255 131.773 204.189 132.188 204.037C132.603 203.885 132.983 203.65 133.304 203.346C133.625 203.043 133.881 202.677 134.055 202.271C134.23 201.865 134.32 201.427 134.32 200.985C134.32 200.543 134.23 200.106 134.055 199.7C133.881 199.294 133.625 198.928 133.304 198.624C132.983 198.321 132.603 198.086 132.188 197.934C131.773 197.782 131.331 197.716 130.89 197.74H61.6599C60.8304 197.786 60.0502 198.148 59.4792 198.752C58.9083 199.355 58.5902 200.155 58.5902 200.985C58.5902 201.816 58.9083 202.615 59.4792 203.219C60.0502 203.822 60.8304 204.184 61.6599 204.23V204.23Z" fill="#011839"/>
<path d="M78.97 78.75C73.5102 78.7578 68.2352 80.7288 64.1082 84.3033C59.9811 87.8777 57.2772 92.8172 56.49 98.22H101.49C100.702 92.8104 97.9921 87.8655 93.8567 84.2902C89.7213 80.7149 84.4367 78.7482 78.97 78.75V78.75Z" fill="#3B4243"/>
<path d="M48.81 108.79C49.3032 109.532 49.9721 110.14 50.7572 110.56C51.5423 110.981 52.4193 111.201 53.31 111.2H104.63C105.521 111.201 106.398 110.981 107.183 110.56C107.968 110.14 108.637 109.532 109.13 108.79L111.85 104.71H46.09L48.81 108.79Z" fill="#3B4243"/>
<path d="M122.24 50.6201H35.7C32.5455 50.6254 29.5218 51.8808 27.2913 54.1114C25.0607 56.3419 23.8053 59.3657 23.8 62.5201V123.1C23.8053 126.255 25.0607 129.278 27.2913 131.509C29.5218 133.739 32.5455 134.995 35.7 135H122.24C125.394 134.995 128.418 133.739 130.649 131.509C132.879 129.278 134.135 126.255 134.14 123.1V62.5201C134.135 59.3657 132.879 56.3419 130.649 54.1114C128.418 51.8808 125.394 50.6254 122.24 50.6201V50.6201ZM120.61 103.26L114.53 112.39C113.445 114.021 111.973 115.359 110.246 116.284C108.518 117.208 106.589 117.692 104.63 117.69H53.31C51.3507 117.692 49.4215 117.208 47.6942 116.284C45.9669 115.359 44.4951 114.021 43.41 112.39L37.33 103.26C37.0144 102.772 36.8357 102.209 36.8127 101.628C36.7898 101.048 36.9233 100.472 37.1993 99.9606C37.4754 99.4494 37.8838 99.0218 38.3818 98.7227C38.8798 98.4235 39.449 98.2637 40.03 98.2601H49.97C50.7133 91.6806 53.667 85.548 58.3481 80.8651C63.0293 76.1821 69.1608 73.226 75.74 72.4801V71.2201C75.74 70.3582 76.0824 69.5315 76.6919 68.922C77.3014 68.3125 78.128 67.9701 78.99 67.9701C79.8519 67.9701 80.6786 68.3125 81.2881 68.922C81.8976 69.5315 82.24 70.3582 82.24 71.2201V72.4801C88.806 73.2328 94.9235 76.1868 99.5958 80.861C104.268 85.5351 107.22 91.6538 107.97 98.2201H117.89C118.471 98.2237 119.04 98.3835 119.538 98.6827C120.036 98.9818 120.445 99.4094 120.721 99.9206C120.997 100.432 121.13 101.008 121.107 101.588C121.084 102.169 120.906 102.732 120.59 103.22L120.61 103.26Z" fill="#3B4243"/>
</g>
<defs>
<clipPath id="clip0_314_93">
<rect width="157.93" height="221.54" fill="white"/>
</clipPath>
</defs>
</svg>
