<svg width="158" height="222" viewBox="0 0 158 222" fill="none" xmlns="http://www.w3.org/2000/svg">
<path d="M144.52 167.81L97.4 150.36C96.9853 150.204 96.5427 150.136 96.1003 150.16C95.658 150.184 95.2253 150.3 94.83 150.5L78.97 158.42L63.12 150.5C62.7222 150.302 62.2882 150.187 61.8445 150.163C61.4008 150.139 60.9569 150.206 60.54 150.36L13.42 167.81C9.48981 169.277 6.10006 171.908 3.70251 175.35C1.30497 178.793 0.0134247 182.885 0 187.08V218.3C0 219.162 0.342411 219.988 0.951904 220.598C1.5614 221.207 2.38805 221.55 3.25 221.55H154.74C155.602 221.55 156.429 221.207 157.038 220.598C157.648 219.988 157.99 219.162 157.99 218.3V187.08C157.976 182.878 156.678 178.781 154.271 175.337C151.863 171.893 148.461 169.267 144.52 167.81ZM6.52002 187.08C6.52908 184.209 7.41241 181.409 9.05237 179.053C10.6923 176.696 13.011 174.896 15.7 173.89L61.5 156.89L71.7 161.99L67.47 164.08C66.9257 164.346 66.4673 164.76 66.1472 165.275C65.8271 165.79 65.6584 166.384 65.66 166.99V214.99H28.16V200.93C28.1845 200.488 28.1187 200.047 27.9667 199.632C27.8147 199.217 27.5797 198.837 27.276 198.516C26.9723 198.195 26.6061 197.939 26.2002 197.764C25.7943 197.59 25.357 197.5 24.915 197.5C24.4731 197.5 24.0357 197.59 23.6298 197.764C23.2238 197.939 22.8578 198.195 22.5541 198.516C22.2503 198.837 22.0153 199.217 21.8633 199.632C21.7113 200.047 21.6455 200.488 21.67 200.93V214.99H6.52002V187.08ZM151.52 215.08H136.37V201.02C136.395 200.579 136.329 200.137 136.177 199.722C136.025 199.307 135.79 198.927 135.486 198.606C135.182 198.285 134.816 198.029 134.41 197.855C134.004 197.68 133.567 197.59 133.125 197.59C132.683 197.59 132.246 197.68 131.84 197.855C131.434 198.029 131.068 198.285 130.764 198.606C130.46 198.927 130.225 199.307 130.073 199.722C129.921 200.137 129.855 200.579 129.88 201.02V215.08H72.1899V169.08L96.54 156.96L142.34 173.96C145.029 174.966 147.348 176.766 148.988 179.123C150.628 181.479 151.511 184.279 151.52 187.15V215.08Z" fill="#011839"/>
<path d="M84.74 184.77H80.41C79.5806 184.816 78.8002 185.178 78.2292 185.781C77.6583 186.385 77.3402 187.184 77.3402 188.015C77.3402 188.845 77.6583 189.645 78.2292 190.248C78.8002 190.852 79.5806 191.214 80.41 191.26H84.74C85.1813 191.284 85.623 191.218 86.038 191.066C86.453 190.914 86.8326 190.679 87.1537 190.375C87.4748 190.072 87.7305 189.706 87.9053 189.3C88.0801 188.894 88.1702 188.457 88.1702 188.015C88.1702 187.573 88.0801 187.135 87.9053 186.729C87.7305 186.323 87.4748 185.957 87.1537 185.654C86.8326 185.35 86.453 185.115 86.038 184.963C85.623 184.811 85.1813 184.745 84.74 184.77Z" fill="#011839"/>
<path d="M84.74 202.08H80.41C79.5806 202.126 78.8002 202.488 78.2292 203.092C77.6583 203.695 77.3402 204.494 77.3402 205.325C77.3402 206.156 77.6583 206.955 78.2292 207.559C78.8002 208.162 79.5806 208.524 80.41 208.57H84.74C85.1813 208.595 85.623 208.529 86.038 208.377C86.453 208.225 86.8326 207.99 87.1537 207.686C87.4748 207.382 87.7305 207.016 87.9053 206.61C88.0801 206.205 88.1702 205.767 88.1702 205.325C88.1702 204.883 88.0801 204.446 87.9053 204.04C87.7305 203.634 87.4748 203.268 87.1537 202.964C86.8326 202.66 86.453 202.425 86.038 202.273C85.623 202.121 85.1813 202.056 84.74 202.08Z" fill="#011839"/>
<path d="M116.74 89.46H41.14C38.4603 89.4652 35.8918 90.5322 33.9969 92.427C32.1021 94.3219 31.0353 96.8902 31.03 99.5699C31.0353 103.201 32.4807 106.681 35.0491 109.248C37.6175 111.814 41.0991 113.257 44.73 113.26H45.45C45.6852 118.091 46.9637 122.813 49.1974 127.103C51.4311 131.392 54.5672 135.147 58.39 138.11V141.69L78.9399 151.96L99.49 141.69V138.11C103.313 135.147 106.449 131.392 108.683 127.103C110.916 122.813 112.195 118.091 112.43 113.26H113.16C116.79 113.257 120.271 111.814 122.837 109.247C125.404 106.681 126.847 103.2 126.85 99.5699C126.845 96.8902 125.778 94.3219 123.883 92.427C121.988 90.5322 119.42 89.4652 116.74 89.46Z" fill="#3B4243"/>
<path d="M43.64 60.22C43.88 61.79 44.17 64.22 44.38 65.97C44.55 67.37 44.71 68.74 44.87 69.97H113.07C113.23 68.75 113.39 67.38 113.56 65.97C113.77 64.2 114.06 61.79 114.3 60.22C119.113 58.5493 123.275 55.3984 126.188 51.2185C129.102 47.0386 130.618 42.0441 130.52 36.95C130.23 23.95 119.22 13.3699 105.98 13.3199C105.388 13.3252 104.821 13.5649 104.405 13.9866C103.989 14.4082 103.757 14.9776 103.76 15.5699V27.12C103.774 27.9798 103.455 28.8118 102.87 29.4418C102.285 30.0718 101.478 30.4511 100.62 30.5C100.185 30.5148 99.7522 30.4418 99.3463 30.2856C98.9404 30.1294 98.5701 29.8932 98.2575 29.5908C97.9449 29.2885 97.6964 28.9262 97.5267 28.5258C97.357 28.1253 97.2697 27.6949 97.27 27.26V18.35C97.2836 13.5292 95.3944 8.89768 92.0128 5.46179C88.6312 2.02591 84.0303 0.0632049 79.2099 0H78.74C73.9283 0.0788627 69.3412 2.04985 65.9723 5.48621C62.6033 8.92256 60.7235 13.5477 60.74 18.36V27.13C60.7541 27.9915 60.4339 28.8248 59.8465 29.4551C59.2591 30.0854 58.4502 30.4636 57.5899 30.51C57.1561 30.5234 56.724 30.4494 56.3193 30.2926C55.9146 30.1358 55.5455 29.8993 55.234 29.597C54.9224 29.2948 54.6749 28.9332 54.5058 28.5334C54.3368 28.1337 54.2498 27.704 54.25 27.27V15.58C54.2526 14.9849 54.0194 14.413 53.6015 13.9895C53.1836 13.566 52.615 13.3252 52.02 13.3199C38.78 13.3699 27.7699 23.97 27.4799 36.95C27.3807 42.0361 28.8895 47.0239 31.7912 51.2023C34.6929 55.3807 38.8395 58.5365 43.64 60.22Z" fill="#3B4243"/>
<path d="M112.5 76.4492H45.4299V82.9392H112.5V76.4492Z" fill="#3B4243"/>
</svg>
