<svg width="797" height="644" viewBox="0 0 797 644" fill="none" xmlns="http://www.w3.org/2000/svg">
<path d="M129.65 404.24C132.759 407.347 136.975 409.093 141.37 409.093C145.765 409.093 149.981 407.347 153.09 404.24L220.94 336.39C224.048 333.282 225.795 329.066 225.795 324.67C225.795 320.274 224.048 316.059 220.94 312.95C217.832 309.842 213.616 308.096 209.22 308.096C204.824 308.096 200.608 309.842 197.5 312.95L129.65 380.8C126.543 383.909 124.798 388.125 124.798 392.52C124.798 396.916 126.543 401.131 129.65 404.24Z" fill="#2B1317"/>
<path d="M89.73 364.31C92.8391 367.417 97.0546 369.163 101.45 369.163C105.845 369.163 110.061 367.417 113.17 364.31L181.03 296.47C184.063 293.346 185.745 289.154 185.713 284.8C185.681 280.447 183.938 276.28 180.86 273.2C177.782 270.121 173.616 268.376 169.262 268.342C164.908 268.309 160.715 269.989 157.59 273.02L89.73 340.87C86.623 343.979 84.8777 348.195 84.8777 352.59C84.8777 356.986 86.623 361.201 89.73 364.31V364.31Z" fill="#2B1317"/>
<path d="M49.8099 324.38C51.348 325.921 53.1748 327.143 55.1859 327.977C57.1969 328.811 59.3527 329.24 61.5298 329.24C63.707 329.24 65.8628 328.811 67.8738 327.977C69.8849 327.143 71.7117 325.921 73.2498 324.38L141.1 256.54C144.208 253.431 145.954 249.216 145.954 244.82C145.954 240.424 144.208 236.208 141.1 233.1C137.992 229.991 133.776 228.245 129.38 228.245C124.984 228.245 120.768 229.991 117.66 233.1L49.8099 300.94C48.269 302.478 47.0466 304.305 46.2126 306.316C45.3785 308.327 44.9492 310.483 44.9492 312.66C44.9492 314.837 45.3785 316.993 46.2126 319.004C47.0466 321.015 48.269 322.842 49.8099 324.38Z" fill="#2B1317"/>
<path d="M46.4301 304.33L36.3001 314.45C33.3057 317.449 31.5768 321.483 31.4701 325.72C31.4701 325.72 31.4701 325.72 31.4701 325.72C31.4669 325.736 31.4669 325.753 31.4701 325.77C31.4701 325.77 31.4701 325.77 31.4701 325.77C31.4657 325.803 31.4657 325.836 31.4701 325.87V326.09L39.8701 397.29C39.8474 399.502 40.2664 401.697 41.1026 403.745C41.9388 405.794 43.1755 407.655 44.7401 409.22C46.3046 410.784 48.1657 412.021 50.2142 412.857C52.2628 413.693 54.4576 414.112 56.6701 414.09L127.88 422.52C128.1 422.52 128.3 422.52 128.52 422.52H128.67C132.777 422.331 136.666 420.62 139.58 417.72L149.7 407.59C151.243 406.053 152.468 404.226 153.303 402.215C154.139 400.204 154.569 398.048 154.569 395.87C154.569 393.692 154.139 391.535 153.303 389.524C152.468 387.513 151.243 385.686 149.7 384.15L69.8701 304.31C68.3307 302.77 66.5028 301.549 64.491 300.717C62.4793 299.885 60.3231 299.457 58.1459 299.459C55.9688 299.461 53.8134 299.892 51.803 300.728C49.7927 301.563 47.9669 302.787 46.4301 304.33V304.33Z" fill="#2B1317"/>
<path d="M742.16 299.27C780.37 337.48 780.16 383.42 751.65 411.91C723.14 440.4 677.22 440.63 639.01 402.43C600.8 364.23 588.01 305.23 616.48 276.74C644.95 248.25 703.96 261.07 742.16 299.27Z" fill="#2B1317"/>
<path d="M150.45 643.21C130.684 643.25 111.105 639.384 92.8386 631.833C74.572 624.282 57.9778 613.195 44.01 599.21C-14.67 540.53 -14.67 445.03 44.01 386.33C45.5222 384.689 47.3502 383.37 49.3845 382.453C51.4187 381.536 53.6172 381.039 55.8481 380.992C58.0791 380.946 60.2965 381.35 62.3673 382.181C64.4381 383.012 66.3198 384.253 67.8993 385.829C69.4789 387.406 70.7238 389.285 71.5594 391.354C72.395 393.423 72.8041 395.639 72.7621 397.87C72.7202 400.101 72.2281 402.301 71.3152 404.337C70.4024 406.373 69.0877 408.204 67.45 409.72C45.5156 431.749 33.2159 461.58 33.2495 492.667C33.2831 523.754 45.6473 553.559 67.6293 575.541C89.6112 597.523 119.415 609.887 150.503 609.92C181.59 609.954 211.421 597.654 233.45 575.72L374.6 434.6L196.88 256.9C168.651 228.67 152.792 190.382 152.792 150.46C152.792 110.537 168.651 72.2496 196.88 44.0198C251.81 -10.9102 338.97 -14.4302 398.04 33.4498C457.1 -14.4302 544.27 -10.9102 599.2 44.0198C627.425 72.2522 643.28 110.539 643.28 150.46C643.28 190.381 627.425 228.667 599.2 256.9L421.48 434.6L562.63 575.72C584.659 597.654 614.49 609.954 645.578 609.92C676.665 609.887 706.469 597.523 728.451 575.541C750.433 553.559 762.797 523.754 762.831 492.667C762.864 461.58 750.564 431.749 728.63 409.72C726.966 408.213 725.626 406.384 724.69 404.343C723.754 402.303 723.243 400.093 723.187 397.849C723.131 395.605 723.532 393.373 724.365 391.289C725.198 389.204 726.446 387.31 728.033 385.723C729.62 384.135 731.513 382.886 733.597 382.053C735.681 381.219 737.913 380.817 740.157 380.872C742.401 380.927 744.611 381.437 746.652 382.372C748.693 383.307 750.523 384.646 752.03 386.31C810.71 445.01 810.71 540.51 752.03 599.19C693.35 657.87 597.84 657.88 539.15 599.19L398.03 458.04L256.89 599.19C242.92 613.173 226.325 624.26 208.06 631.814C189.794 639.368 170.216 643.241 150.45 643.21V643.21ZM303.32 33.1298C280.106 33.1206 257.411 39.9972 238.107 52.8895C218.802 65.7817 203.755 84.1103 194.87 105.556C185.984 127.002 183.66 150.602 188.19 173.369C192.72 196.137 203.902 217.049 220.32 233.46L398.03 411.16L575.75 233.46C597.684 211.43 609.984 181.599 609.951 150.512C609.917 119.425 597.553 89.621 575.571 67.6391C553.589 45.6571 523.785 33.2929 492.698 33.2593C461.61 33.2257 431.779 45.5254 409.75 67.4598C406.64 70.5644 402.425 72.308 398.03 72.308C393.635 72.308 389.42 70.5644 386.31 67.4598C375.42 56.5534 362.482 47.9061 348.24 42.0147C333.998 36.1233 318.732 33.1038 303.32 33.1298V33.1298Z" fill="#2B1317"/>
<path d="M575.76 67.4597C554.196 45.9592 525.131 33.6656 494.684 33.1676C464.237 32.6695 434.785 44.006 412.53 64.7897C411.6 65.6697 410.67 66.5497 409.77 67.4597C408.231 69.0008 406.403 70.2234 404.392 71.0576C402.38 71.8918 400.223 72.3212 398.045 72.3212C395.867 72.3212 393.711 71.8918 391.699 71.0576C389.687 70.2234 387.859 69.0008 386.32 67.4597C365.363 46.4721 337.212 34.2357 307.57 33.2297C306.16 33.1597 304.72 33.1397 303.31 33.1397C280.098 33.1297 257.405 40.0049 238.102 52.8953C218.798 65.7858 203.752 84.1123 194.867 105.556C185.981 127 183.656 150.597 188.185 173.363C192.714 196.129 203.894 217.039 220.31 233.45L398.03 411.16L412.48 396.72L575.76 233.44C597.763 211.421 610.123 181.567 610.123 150.44C610.123 119.312 597.763 89.4578 575.76 67.4396V67.4597Z" fill="#3B4243"/>
<path d="M440.48 424.72L426.03 439.16L220.32 233.45C203.899 217.041 192.715 196.13 188.183 173.363C183.651 150.596 185.975 126.996 194.861 105.55C203.748 84.1041 218.796 65.7766 238.103 52.8869C257.409 39.9973 280.106 33.1249 303.32 33.1397C304.73 33.1397 306.17 33.1397 307.58 33.2297C286.689 37.3127 267.301 47.0011 251.494 61.2575C235.687 75.514 224.056 93.8015 217.845 114.162C211.634 134.522 211.078 156.188 216.237 176.84C221.396 197.492 232.074 216.352 247.13 231.4L440.48 424.72Z" fill="white"/>
<path d="M575.76 67.4595C557.348 49.0024 533.285 37.2437 507.41 34.0596C525.238 41.4489 540.968 53.1201 553.208 68.0398C565.449 82.9594 573.822 100.667 577.585 119.595C581.349 138.523 580.387 158.086 574.785 176.554C569.184 195.021 559.115 211.822 545.47 225.47L393.35 377.59L412.48 396.72L575.76 233.44C597.763 211.421 610.123 181.567 610.123 150.44C610.123 119.312 597.763 89.4577 575.76 67.4395V67.4595Z" fill="#2B1317"/>
</svg>