<svg width="222" height="158" viewBox="0 0 222 158" fill="none" xmlns="http://www.w3.org/2000/svg">
<path d="M177.345 39.457L112.445 0.457031C111.939 0.157883 111.362 0 110.775 0C110.187 0 109.611 0.157883 109.105 0.457031L44.2048 39.457C43.7229 39.7434 43.3239 40.1504 43.0469 40.6378C42.7698 41.1252 42.6244 41.6764 42.625 42.2371V53.057C54.9382 56.6177 66.8905 61.3249 78.325 67.1169C79.6383 65.5193 81.2892 64.2325 83.1592 63.349C85.0292 62.4655 87.0717 62.0072 89.1399 62.0072C91.2081 62.0072 93.2506 62.4655 95.1206 63.349C96.9906 64.2325 98.6415 65.5193 99.9548 67.1169C100.325 67.1169 100.685 67.1169 101.035 67.1169V97.457H63.1748C60.0204 97.4623 56.9967 98.7177 54.7661 100.948C52.5356 103.179 51.2802 106.203 51.2749 109.357V117.927C51.2775 118.788 51.6208 119.613 52.2297 120.222C52.8387 120.831 53.6638 121.174 54.5249 121.177H101.035V151.457H76.1548C75.3253 151.503 74.545 151.865 73.9741 152.469C73.4032 153.072 73.0852 153.871 73.0852 154.702C73.0852 155.533 73.4032 156.332 73.9741 156.935C74.545 157.539 75.3253 157.901 76.1548 157.947H145.395C146.224 157.901 147.005 157.539 147.576 156.935C148.147 156.332 148.465 155.533 148.465 154.702C148.465 153.871 148.147 153.072 147.576 152.469C147.005 151.865 146.224 151.503 145.395 151.457H120.515V121.177H167.025C167.886 121.174 168.711 120.831 169.32 120.222C169.929 119.613 170.272 118.788 170.275 117.927V109.277C170.27 106.123 169.014 103.099 166.784 100.868C164.553 98.6377 161.529 97.3822 158.375 97.377H120.515V67.037C120.865 67.037 121.225 67.037 121.595 67.037C122.908 65.4393 124.559 64.1524 126.429 63.2689C128.299 62.3854 130.342 61.9272 132.41 61.9272C134.478 61.9272 136.521 62.3854 138.391 63.2689C140.261 64.1524 141.912 65.4393 143.225 67.037C144.538 65.4375 146.19 64.1491 148.061 63.2645C149.931 62.3799 151.975 61.9211 154.045 61.9211C156.114 61.9211 158.158 62.3799 160.029 63.2645C161.9 64.1491 163.552 65.4375 164.865 67.037C168.592 67.0317 172.165 65.5487 174.801 62.9131C177.437 60.2775 178.92 56.7044 178.925 52.9771V42.157C178.912 41.6099 178.76 41.0752 178.484 40.6029C178.207 40.1306 177.815 39.7364 177.345 39.457ZM110.775 7.07703L163.965 38.9871H57.585L110.775 7.07703ZM56.6848 60.627C54.6779 60.6243 52.754 59.8259 51.335 58.4069C49.9159 56.9878 49.1176 55.0639 49.115 53.057V45.4771H64.2649V53.057C64.2596 55.0648 63.459 56.9887 62.0383 58.4075C60.6177 59.8263 58.6926 60.6243 56.6848 60.627ZM78.325 60.627C76.3181 60.6243 74.3942 59.8259 72.9751 58.4069C71.556 56.9878 70.7575 55.0639 70.7549 53.057V45.4771H85.895V53.057C85.8924 55.0639 85.0939 56.9878 83.6748 58.4069C82.2557 59.8259 80.3318 60.6243 78.325 60.627ZM92.385 53.057V45.4771H107.525V53.057C107.525 55.0647 106.727 56.9901 105.308 58.4098C103.888 59.8294 101.963 60.627 99.9548 60.627C97.9471 60.627 96.0217 59.8294 94.6021 58.4098C93.1824 56.9901 92.385 55.0647 92.385 53.057ZM114.025 151.487H107.525V121.207H114.025V151.487ZM163.775 109.307V114.717H57.7749V109.307C57.7749 107.874 58.3436 106.499 59.356 105.485C60.3684 104.471 61.7417 103.9 63.1748 103.897H158.375C159.808 103.9 161.181 104.471 162.194 105.485C163.206 106.499 163.775 107.874 163.775 109.307ZM114.025 97.407H107.525V64.927C107.632 64.141 108.02 63.4205 108.618 62.8988C109.215 62.3771 109.982 62.0896 110.775 62.0896C111.568 62.0896 112.335 62.3771 112.932 62.8988C113.53 63.4205 113.918 64.141 114.025 64.927V97.407ZM121.595 60.627C119.588 60.6243 117.664 59.8259 116.245 58.4069C114.826 56.9878 114.028 55.0639 114.025 53.057V45.4771H129.165V53.057C129.162 55.0639 128.364 56.9878 126.945 58.4069C125.526 59.8259 123.602 60.6243 121.595 60.627ZM143.225 60.627C141.218 60.6243 139.294 59.8259 137.875 58.4069C136.456 56.9878 135.657 55.0639 135.655 53.057V45.4771H150.775V53.057C150.772 55.0604 149.977 56.9813 148.562 58.3998C147.147 59.8183 145.228 60.619 143.225 60.627ZM172.435 53.057C172.364 55.0184 171.534 56.8756 170.122 58.238C168.709 59.6004 166.823 60.3617 164.86 60.3617C162.897 60.3617 161.011 59.6004 159.598 58.238C158.185 56.8756 157.356 55.0184 157.285 53.057V45.4771H172.435V53.057Z" fill="#384041"/>
<path d="M218.295 75.767C217.435 75.7696 216.611 76.1132 216.003 76.7224C215.396 77.3316 215.055 78.1567 215.055 79.017V116.927H183.685C182.825 116.927 182 117.268 181.39 117.875C180.781 118.483 180.437 119.307 180.435 120.167V154.787C180.481 155.616 180.843 156.397 181.447 156.968C182.05 157.539 182.849 157.857 183.68 157.857C184.511 157.857 185.31 157.539 185.913 156.968C186.517 156.397 186.879 155.616 186.925 154.787V136.397H215.055V154.787C215.101 155.616 215.463 156.397 216.066 156.968C216.67 157.539 217.469 157.857 218.3 157.857C219.131 157.857 219.93 157.539 220.533 156.968C221.137 156.397 221.499 155.616 221.545 154.787V79.067C221.552 78.636 221.472 78.208 221.312 77.8079C221.152 77.4078 220.913 77.0437 220.611 76.7366C220.308 76.4295 219.948 76.1855 219.55 76.019C219.153 75.8526 218.726 75.7669 218.295 75.767Z" fill="#384041"/>
<path d="M37.8651 116.927H6.49499V79.067C6.51949 78.6257 6.45387 78.1841 6.30187 77.769C6.14987 77.354 5.91469 76.9744 5.61095 76.6533C5.30722 76.3323 4.94121 76.0765 4.53527 75.9017C4.12932 75.727 3.69208 75.6368 3.25011 75.6368C2.80814 75.6368 2.37066 75.727 1.96471 75.9017C1.55877 76.0765 1.19276 76.3323 0.889028 76.6533C0.585295 76.9744 0.350359 77.354 0.198354 77.769C0.0463502 78.1841 -0.0195118 78.6257 0.00499502 79.067V154.787C0.0510594 155.616 0.412969 156.397 1.01647 156.968C1.61997 157.539 2.41936 157.857 3.25011 157.857C4.08087 157.857 4.88001 157.539 5.48351 156.968C6.08701 156.397 6.44892 155.616 6.49499 154.787V136.397H34.6251V154.787C34.6712 155.616 35.0331 156.397 35.6366 156.968C36.2401 157.539 37.0392 157.857 37.87 157.857C38.7007 157.857 39.4999 157.539 40.1034 156.968C40.7069 156.397 41.069 155.616 41.1151 154.787V120.167C41.1125 119.307 40.7687 118.483 40.1595 117.875C39.5503 117.268 38.7253 116.927 37.8651 116.927Z" fill="#384041"/>
</svg>
