<svg width="158" height="222" viewBox="0 0 158 222" fill="none" xmlns="http://www.w3.org/2000/svg">
<path d="M107.09 25.3099C107.516 25.3113 107.939 25.2284 108.333 25.0662C108.727 24.9039 109.086 24.6655 109.387 24.3645C109.689 24.0635 109.929 23.7059 110.092 23.3121C110.256 22.9184 110.34 22.4963 110.34 22.0699V11.8999C110.335 8.74545 109.079 5.72175 106.849 3.49121C104.618 1.26067 101.594 0.00528828 98.4399 0H11.8999C8.74545 0.00528828 5.72175 1.26067 3.49121 3.49121C1.26067 5.72175 0.00528828 8.74545 0 11.8999V209.64C0.00528828 212.794 1.26067 215.818 3.49121 218.049C5.72175 220.279 8.74545 221.535 11.8999 221.54H98.4399C101.594 221.535 104.618 220.279 106.849 218.049C109.079 215.818 110.335 212.794 110.34 209.64V169.18C110.294 168.35 109.932 167.57 109.328 166.999C108.725 166.428 107.926 166.11 107.095 166.11C106.264 166.11 105.465 166.428 104.862 166.999C104.258 167.57 103.896 168.35 103.85 169.18V197.74H6.48999V11.8999C6.49263 10.4659 7.06339 9.09139 8.07739 8.07739C9.09139 7.06339 10.4659 6.49263 11.8999 6.48999H25.97V9.73999C25.9726 12.3197 26.9986 14.793 28.8228 16.6172C30.6469 18.4413 33.1202 19.4673 35.7 19.47H74.6399C77.2206 19.4673 79.695 18.4417 81.5208 16.6178C83.3465 14.7939 84.3746 12.3207 84.3799 9.73999V6.44995H98.4399C99.874 6.45259 101.248 7.02348 102.262 8.03748C103.276 9.05147 103.847 10.426 103.85 11.86V22.0299C103.845 22.4587 103.925 22.8844 104.085 23.2821C104.245 23.6798 104.483 24.0418 104.785 24.3469C105.086 24.652 105.445 24.8942 105.841 25.0596C106.237 25.2249 106.661 25.31 107.09 25.3099V25.3099ZM103.85 204.23V209.64C103.847 211.074 103.276 212.449 102.262 213.463C101.248 214.477 99.874 215.047 98.4399 215.05H11.8999C10.4659 215.047 9.09139 214.477 8.07739 213.463C7.06339 212.449 6.49263 211.074 6.48999 209.64V204.23H103.85ZM77.8499 9.73999C77.8472 10.6002 77.5037 11.4243 76.8945 12.0316C76.2853 12.6389 75.4601 12.98 74.5999 12.98H35.6599C34.8006 12.98 33.9765 12.6386 33.3689 12.031C32.7613 11.4234 32.4199 10.5993 32.4199 9.73999V6.44995H77.8499V9.73999Z" fill="#011839"/>
<path d="M74.6399 167.45H35.7C33.1721 167.531 30.7749 168.592 29.0154 170.409C27.2559 172.226 26.272 174.656 26.272 177.185C26.272 179.714 27.2559 182.144 29.0154 183.961C30.7749 185.778 33.1721 186.839 35.7 186.92H74.6399C75.9446 186.962 77.2445 186.741 78.4622 186.271C79.6798 185.8 80.7903 185.09 81.728 184.182C82.6657 183.274 83.4112 182.187 83.9204 180.985C84.4296 179.783 84.6921 178.491 84.6921 177.185C84.6921 175.88 84.4296 174.588 83.9204 173.386C83.4112 172.184 82.6657 171.097 81.728 170.189C80.7903 169.28 79.6798 168.57 78.4622 168.1C77.2445 167.629 75.9446 167.408 74.6399 167.45V167.45ZM74.6399 180.45H35.7C34.8705 180.404 34.0902 180.042 33.5193 179.439C32.9484 178.835 32.6301 178.036 32.6301 177.205C32.6301 176.375 32.9484 175.575 33.5193 174.972C34.0902 174.368 34.8705 174.006 35.7 173.96H74.6399C75.0812 173.936 75.523 174.002 75.938 174.154C76.353 174.306 76.7326 174.541 77.0537 174.844C77.3748 175.148 77.6304 175.514 77.8052 175.92C77.98 176.326 78.0701 176.763 78.0701 177.205C78.0701 177.647 77.98 178.085 77.8052 178.491C77.6304 178.897 77.3748 179.263 77.0537 179.566C76.7326 179.87 76.353 180.105 75.938 180.257C75.523 180.409 75.0812 180.475 74.6399 180.45V180.45Z" fill="#011839"/>
<path d="M94.1099 81.5596C88.6501 81.5673 83.3751 83.5383 79.248 87.1128C75.121 90.6873 72.4171 95.6268 71.6299 101.03H116.63C115.84 95.6208 113.13 90.6771 108.995 87.1022C104.86 83.5272 99.576 81.5598 94.1099 81.5596V81.5596Z" fill="#FEAA3A"/>
<path d="M63.97 111.61C64.4636 112.35 65.133 112.957 65.9182 113.375C66.7034 113.794 67.5801 114.012 68.47 114.01H119.78C120.67 114.01 121.546 113.792 122.331 113.373C123.115 112.955 123.785 112.349 124.28 111.61L127 107.52H61.25L63.97 111.61Z" fill="#FEAA3A"/>
<path d="M146.04 31.7998H42.1899C39.0355 31.8051 36.0118 33.0606 33.7812 35.2911C31.5507 37.5217 30.2953 40.5454 30.29 43.6998V147.55C30.2953 150.704 31.5507 153.728 33.7812 155.959C36.0118 158.189 39.0355 159.445 42.1899 159.45H146.04C149.194 159.445 152.218 158.189 154.449 155.959C156.679 153.728 157.935 150.704 157.94 147.55V43.6998C157.935 40.5454 156.679 37.5217 154.449 35.2911C152.218 33.0606 149.194 31.8051 146.04 31.7998V31.7998ZM135.76 106.08L129.67 115.21C128.584 116.839 127.111 118.175 125.384 119.098C123.657 120.021 121.728 120.502 119.77 120.5H68.46C66.5016 120.502 64.5729 120.021 62.8457 119.098C61.1185 118.175 59.6464 116.839 58.5601 115.21L52.47 106.08C52.1446 105.591 51.9579 105.023 51.9297 104.436C51.9015 103.849 52.0328 103.265 52.3098 102.747C52.5868 102.229 52.9991 101.796 53.5027 101.494C54.0063 101.191 54.5825 101.031 55.1699 101.03H65.0901C65.836 94.4506 68.7919 88.3192 73.4749 83.6381C78.1578 78.957 84.2904 76.0032 90.8699 75.2599V73.9899C90.9159 73.1604 91.2781 72.38 91.8816 71.8091C92.4851 71.2382 93.2842 70.92 94.115 70.92C94.9457 70.92 95.7449 71.2382 96.3484 71.8091C96.9519 72.38 97.3138 73.1604 97.3599 73.9899V75.2599C103.939 76.005 110.071 78.9592 114.753 83.64C119.436 88.3208 122.392 94.4512 123.14 101.03H133.06C133.648 101.031 134.224 101.191 134.727 101.494C135.231 101.796 135.643 102.229 135.92 102.747C136.197 103.265 136.328 103.849 136.3 104.436C136.272 105.023 136.085 105.591 135.76 106.08V106.08Z" fill="#FEAA3A"/>
</svg>
