<svg width="222" height="222" viewBox="0 0 222 222" fill="none" xmlns="http://www.w3.org/2000/svg">
<g clip-path="url(#clip0_317_28)">
<path d="M217.4 197.44L146.64 126.68C146.031 126.073 145.205 125.731 144.345 125.731C143.485 125.731 142.659 126.073 142.05 126.68L126.68 142.07C126.378 142.371 126.138 142.729 125.975 143.123C125.811 143.517 125.727 143.939 125.727 144.365C125.727 144.792 125.811 145.214 125.975 145.608C126.138 146.002 126.378 146.359 126.68 146.66L197.44 217.42C200.092 220.072 203.689 221.562 207.44 221.562C211.191 221.562 214.788 220.072 217.44 217.42C220.092 214.768 221.582 211.171 221.582 207.42C221.582 203.67 220.092 200.072 217.44 197.42L217.4 197.44ZM212.81 212.82C211.38 214.248 209.441 215.05 207.42 215.05C205.399 215.05 203.461 214.248 202.03 212.82L133.56 144.35L144.35 133.56L212.81 202.03C213.52 202.738 214.083 203.579 214.467 204.505C214.851 205.431 215.049 206.423 215.049 207.425C215.049 208.428 214.851 209.42 214.467 210.346C214.083 211.272 213.52 212.112 212.81 212.82V212.82Z" fill="#011839"/>
<path d="M93.5601 140.76L149.68 84.6304C154.694 87.1742 160.248 88.4676 165.87 88.4003C178.75 88.4003 192.94 82.3103 204.2 71.0503C213.44 61.8103 219.44 50.3804 221.09 38.8604C222.78 27.0004 219.69 16.4503 212.39 9.15031C205.09 1.85031 194.54 -1.23964 182.68 0.45036C171.16 2.10036 159.73 8.09036 150.49 17.3304C134.17 33.6504 128.71 56.1204 136.9 71.8504L80.78 127.98L79.48 126.68C78.8707 126.073 78.0455 125.731 77.1851 125.731C76.3246 125.731 75.4991 126.073 74.8899 126.68L4.12988 197.44C2.81522 198.753 1.77241 200.311 1.06079 202.027C0.349173 203.743 -0.0170898 205.583 -0.0170898 207.44C-0.0170898 209.298 0.349173 211.137 1.06079 212.853C1.77241 214.569 2.81522 216.128 4.12988 217.44V217.44C5.44162 218.756 7.00031 219.8 8.71631 220.513C10.4323 221.225 12.2719 221.592 14.1299 221.592C15.9879 221.592 17.8277 221.225 19.5437 220.513C21.2597 219.8 22.8181 218.756 24.1299 217.44L94.8999 146.68C95.5051 146.07 95.8447 145.245 95.8447 144.385C95.8447 143.526 95.5051 142.701 94.8999 142.09L93.5601 140.76ZM143.25 74.6904C143.76 74.1693 144.082 73.4925 144.163 72.7677C144.245 72.043 144.082 71.3118 143.7 70.6904C139.76 64.5004 138.7 56.2604 140.57 47.5004C142.57 38.3904 147.72 29.3204 155.08 21.9604C163.33 13.7104 173.46 8.36037 183.59 6.96037C193.38 5.56037 201.98 7.96035 207.8 13.8103C220.08 26.0903 216.41 49.7503 199.61 66.5403C192.25 73.9003 183.19 79.0503 174.08 81.0403C165.32 82.9603 157.08 81.8503 150.88 77.9203C150.26 77.5333 149.528 77.3672 148.802 77.4489C148.076 77.5306 147.398 77.8553 146.88 78.3704L89 136.17L85.3999 132.57L143.25 74.6904ZM19.5 212.82C18.0695 214.248 16.1312 215.05 14.1101 215.05C12.0891 215.05 10.1504 214.248 8.71997 212.82V212.82C7.28921 211.389 6.48535 209.449 6.48535 207.425C6.48535 205.402 7.28921 203.461 8.71997 202.03L77.1899 133.56L87.97 144.35L19.5 212.82Z" fill="#011839"/>
<path d="M94.05 66.2903C95.563 64.7817 96.7634 62.9894 97.5825 61.016C98.4016 59.0426 98.8232 56.9269 98.8232 54.7903C98.8232 52.6537 98.4016 50.5381 97.5825 48.5647C96.7634 46.5913 95.563 44.7989 94.05 43.2903L53.26 2.50037C51.6316 0.871937 49.4231 -0.0429688 47.1201 -0.0429688C44.8172 -0.0429687 42.6084 0.871937 40.98 2.50037C39.3516 4.1288 38.4368 6.33731 38.4368 8.64026C38.4368 10.9432 39.3516 13.1518 40.98 14.7803L73.6499 47.4503C74.1306 47.9003 74.516 48.4423 74.783 49.0442C75.0499 49.6461 75.1932 50.2955 75.2041 50.9539C75.215 51.6122 75.0931 52.2661 74.8462 52.8765C74.5992 53.4868 74.2322 54.0412 73.7666 54.5068C73.301 54.9724 72.7466 55.3396 72.1362 55.5865C71.5258 55.8335 70.872 55.9552 70.2136 55.9443C69.5553 55.9335 68.9058 55.7903 68.304 55.5233C67.7021 55.2563 67.1599 54.871 66.71 54.3903L34 21.7703C32.3716 20.1418 30.1631 19.2271 27.8601 19.2271C25.5572 19.2271 23.3484 20.1418 21.72 21.7703C20.0915 23.3987 19.1768 25.6073 19.1768 27.9103C19.1768 30.2132 20.0915 32.4219 21.72 34.0503L54.3899 66.7203C54.8706 67.1703 55.256 67.7123 55.5229 68.3142C55.7899 68.9161 55.9332 69.5655 55.9441 70.2239C55.955 70.8822 55.8331 71.5361 55.5862 72.1465C55.3392 72.7569 54.9722 73.3113 54.5066 73.7769C54.041 74.2424 53.4866 74.6096 52.8762 74.8566C52.2658 75.1035 51.612 75.2252 50.9536 75.2144C50.2953 75.2035 49.6458 75.0603 49.0439 74.7933C48.4421 74.5264 47.8999 74.141 47.45 73.6603L14.78 40.9904C13.1516 39.3619 10.9428 38.447 8.63989 38.447C6.33695 38.447 4.12843 39.3619 2.5 40.9904C0.871571 42.6188 -0.0432128 44.8274 -0.0432129 47.1304C-0.043213 49.4333 0.871571 51.6418 2.5 53.2703L43.29 94.0603C44.7987 95.5733 46.5911 96.7737 48.5645 97.5928C50.5378 98.4118 52.6534 98.8335 54.79 98.8335C56.9267 98.8335 59.0422 98.4118 61.0156 97.5928C62.989 96.7737 64.7814 95.5733 66.29 94.0603L74.04 86.3103L93.6599 105.93L105.94 93.6603L86.3 74.0703L94.05 66.2903Z" fill="#FEAA3A"/>
<path d="M127.884 115.613L115.609 127.889L123.634 135.914L135.91 123.639L127.884 115.613Z" fill="#FEAA3A"/>
</g>
<defs>
<clipPath id="clip0_317_28">
<rect width="221.54" height="221.54" fill="white"/>
</clipPath>
</defs>
</svg>
