<svg width="222" height="222" viewBox="0 0 222 222" fill="none" xmlns="http://www.w3.org/2000/svg">
<g clip-path="url(#clip0_315_104)">
<path d="M188.65 167.45H183.25V124.4C183.247 123.539 182.904 122.714 182.295 122.105C181.686 121.496 180.861 121.153 180 121.15H102.12C101.258 121.15 100.431 121.493 99.8219 122.102C99.2124 122.712 98.87 123.538 98.87 124.4V167.45H93.46C93.0337 167.45 92.6115 167.535 92.2178 167.698C91.824 167.861 91.4664 168.101 91.1654 168.403C90.8644 168.705 90.626 169.063 90.4637 169.457C90.3015 169.852 90.2187 170.274 90.22 170.7V183.7C90.22 184.56 90.5613 185.384 91.169 185.991C91.7766 186.599 92.6007 186.94 93.46 186.94H188.65C189.076 186.942 189.499 186.859 189.893 186.697C190.287 186.534 190.646 186.296 190.947 185.995C191.249 185.694 191.489 185.336 191.652 184.943C191.816 184.549 191.9 184.127 191.9 183.7V170.7C191.901 170.273 191.818 169.85 191.655 169.455C191.492 169.06 191.253 168.701 190.951 168.399C190.649 168.097 190.29 167.858 189.895 167.695C189.5 167.532 189.077 167.449 188.65 167.45V167.45ZM105.36 127.64H176.75V167.45H105.36V127.64ZM185.41 180.43H96.71V173.91H185.41V180.43Z" fill="#011839"/>
<path d="M218.29 43.2701H180C179.559 43.2456 179.117 43.3114 178.702 43.4634C178.287 43.6154 177.907 43.8505 177.586 44.1542C177.265 44.4579 177.009 44.824 176.835 45.2299C176.66 45.6358 176.57 46.0732 176.57 46.5151C176.57 46.9571 176.66 47.3944 176.835 47.8004C177.009 48.2063 177.265 48.5724 177.586 48.8761C177.907 49.1798 178.287 49.4149 178.702 49.5669C179.117 49.7189 179.559 49.7846 180 49.7601H215.05V69.2301H6.49001V49.7601H41.49C42.3195 49.7141 43.0998 49.3521 43.6707 48.7486C44.2417 48.1451 44.5598 47.3459 44.5598 46.5151C44.5598 45.6844 44.2417 44.8852 43.6707 44.2817C43.0998 43.6782 42.3195 43.3162 41.49 43.2701H3.25C2.82368 43.2688 2.40128 43.3517 2.00703 43.5139C1.61278 43.6761 1.25442 43.9146 0.952499 44.2156C0.650578 44.5166 0.411039 44.8742 0.247589 45.2679C0.0841389 45.6617 -2.03059e-06 46.0838 0 46.5101V85.5801C0.0034303 89.9141 1.14393 94.1713 3.30757 97.9265C5.47121 101.682 8.58227 104.804 12.33 106.98V215.05H3.25C2.80871 215.026 2.36705 215.091 1.95204 215.243C1.53703 215.395 1.15739 215.63 0.836319 215.934C0.51525 216.238 0.259499 216.604 0.0847168 217.01C-0.0900654 217.416 -0.180206 217.853 -0.180206 218.295C-0.180206 218.737 -0.0900654 219.174 0.0847168 219.58C0.259499 219.986 0.51525 220.352 0.836319 220.656C1.15739 220.96 1.53703 221.195 1.95204 221.347C2.36705 221.499 2.80871 221.565 3.25 221.54H218.25C218.691 221.565 219.133 221.499 219.548 221.347C219.963 221.195 220.343 220.96 220.664 220.656C220.985 220.352 221.241 219.986 221.415 219.58C221.59 219.174 221.68 218.737 221.68 218.295C221.68 217.853 221.59 217.416 221.415 217.01C221.241 216.604 220.985 216.238 220.664 215.934C220.343 215.63 219.963 215.395 219.548 215.243C219.133 215.091 218.691 215.026 218.25 215.05H209.17V106.98C212.918 104.804 216.029 101.682 218.192 97.9265C220.356 94.1713 221.497 89.9141 221.5 85.5801V46.5101C221.5 45.656 221.163 44.8364 220.562 44.2297C219.961 43.6229 219.144 43.278 218.29 43.2701V43.2701ZM172 85.5801C172 90.423 170.076 95.0675 166.652 98.4919C163.227 101.916 158.583 103.84 153.74 103.84C148.897 103.84 144.253 101.916 140.828 98.4919C137.404 95.0675 135.48 90.423 135.48 85.5801V75.7201H172V85.5801ZM49.5 75.7201H86V85.5801C86 90.423 84.0762 95.0675 80.6518 98.4919C77.2273 101.916 72.5829 103.84 67.74 103.84C62.8972 103.84 58.2526 101.916 54.8282 98.4919C51.4038 95.0675 49.48 90.423 49.48 85.5801L49.5 75.7201ZM92.5 75.7201H129V85.5801C129 90.423 127.076 95.0675 123.652 98.4919C120.227 101.916 115.583 103.84 110.74 103.84C105.897 103.84 101.253 101.916 97.8282 98.4919C94.4038 95.0675 92.48 90.423 92.48 85.5801L92.5 75.7201ZM6.5 85.5801V75.7201H43V85.5801C43 90.423 41.0762 95.0675 37.6518 98.4919C34.2273 101.916 29.5829 103.84 24.74 103.84C19.8972 103.84 15.2526 101.916 11.8282 98.4919C8.40382 95.0675 6.48 90.423 6.48 85.5801H6.5ZM72.92 215.05H36.13V152.31H72.91L72.92 215.05ZM202.73 215.05H79.4V149.05C79.4 148.624 79.3159 148.202 79.1524 147.808C78.989 147.414 78.7494 147.057 78.4475 146.756C78.1456 146.455 77.7872 146.216 77.393 146.054C76.9987 145.892 76.5763 145.809 76.15 145.81H32.88C32.0207 145.81 31.1966 146.151 30.589 146.759C29.9814 147.367 29.64 148.191 29.64 149.05V215.05H18.82V109.61C24.0512 110.9 29.5603 110.447 34.511 108.321C39.4616 106.195 43.5832 102.512 46.25 97.8301C48.4132 101.624 51.5417 104.777 55.3177 106.971C59.0938 109.164 63.383 110.32 67.75 110.32C72.117 110.32 76.4062 109.164 80.1823 106.971C83.9583 104.777 87.0868 101.624 89.25 97.8301C91.4132 101.624 94.5417 104.777 98.3177 106.971C102.094 109.164 106.383 110.32 110.75 110.32C115.117 110.32 119.406 109.164 123.182 106.971C126.958 104.777 130.087 101.624 132.25 97.8301C134.413 101.624 137.542 104.777 141.318 106.971C145.094 109.164 149.383 110.32 153.75 110.32C158.117 110.32 162.406 109.164 166.182 106.971C169.958 104.777 173.087 101.624 175.25 97.8301C177.919 102.512 182.042 106.196 186.994 108.322C191.947 110.448 197.457 110.901 202.69 109.61L202.73 215.05ZM215.06 85.5801C215.06 87.9781 214.588 90.3525 213.67 92.5679C212.752 94.7833 211.407 96.7963 209.712 98.4919C208.016 100.188 206.003 101.533 203.788 102.45C201.572 103.368 199.198 103.84 196.8 103.84C194.402 103.84 192.028 103.368 189.812 102.45C187.597 101.533 185.584 100.188 183.888 98.4919C182.193 96.7963 180.848 94.7833 179.93 92.5679C179.012 90.3525 178.54 87.9781 178.54 85.5801V75.7201H215.06V85.5801Z" fill="#011839"/>
<path d="M63.17 192.33C63.5972 192.331 64.0204 192.248 64.4153 192.085C64.8102 191.922 65.169 191.683 65.471 191.381C65.7731 191.079 66.0124 190.72 66.1753 190.325C66.3381 189.93 66.4213 189.507 66.42 189.08V178.27C66.4445 177.829 66.3787 177.387 66.2267 176.972C66.0747 176.557 65.8397 176.177 65.5359 175.856C65.2322 175.535 64.8662 175.28 64.4602 175.105C64.0543 174.93 63.617 174.84 63.175 174.84C62.733 174.84 62.2957 174.93 61.8898 175.105C61.4838 175.28 61.1178 175.535 60.8141 175.856C60.5103 176.177 60.2753 176.557 60.1233 176.972C59.9713 177.387 59.9055 177.829 59.93 178.27V189.08C59.9287 189.506 60.0115 189.929 60.1737 190.323C60.336 190.717 60.5744 191.076 60.8754 191.378C61.1764 191.679 61.534 191.919 61.9278 192.082C62.3215 192.246 62.7437 192.33 63.17 192.33V192.33Z" fill="#011839"/>
<path d="M80.61 44.1C81.1032 44.8417 81.7721 45.4498 82.5573 45.8703C83.3424 46.2908 84.2194 46.5106 85.11 46.51H136.43C137.321 46.5106 138.198 46.2908 138.983 45.8703C139.768 45.4498 140.437 44.8417 140.93 44.1L143.65 40.02H77.89L80.61 44.1Z" fill="#3B4243"/>
<path d="M110.77 14.0601C105.31 14.0678 100.035 16.0389 95.9082 19.6133C91.7811 23.1878 89.0771 28.1273 88.29 33.5301H133.29C132.502 28.1205 129.792 23.1756 125.657 19.6003C121.521 16.0249 116.237 14.0582 110.77 14.0601V14.0601Z" fill="#3B4243"/>
<path d="M170.26 62.74V6.49001C170.261 5.63736 170.094 4.79283 169.769 4.00484C169.443 3.21684 168.965 2.50086 168.362 1.89795C167.759 1.29503 167.043 0.817035 166.255 0.491348C165.467 0.165662 164.623 -0.00130911 163.77 7.72865e-06H57.77C56.9177 7.72865e-06 56.0738 0.167881 55.2864 0.494034C54.499 0.820187 53.7835 1.29823 53.1809 1.90089C52.5782 2.50354 52.1002 3.21899 51.774 4.00639C51.4479 4.7938 51.28 5.63773 51.28 6.49001V62.74H170.26ZM152.41 38.58L146.33 47.7C145.242 49.3288 143.77 50.6644 142.043 51.5888C140.316 52.5132 138.389 52.9979 136.43 53H85.11C83.1511 52.9997 81.2225 52.5158 79.4955 51.5912C77.7685 50.6666 76.2965 49.33 75.21 47.7L69.13 38.58C68.7323 37.9849 68.5422 37.2751 68.5892 36.5609C68.6362 35.8466 68.9177 35.1679 69.39 34.63C69.7094 34.2775 70.1003 33.9972 70.5365 33.8075C70.9727 33.6178 71.4444 33.5232 71.92 33.53H81.75C82.4955 26.9523 85.4501 20.822 90.1311 16.1411C94.812 11.4602 100.942 8.50549 107.52 7.76001V6.62001C107.508 5.76027 107.83 4.92938 108.417 4.30124C109.004 3.6731 109.811 3.29641 110.67 3.25001C111.104 3.23521 111.537 3.30816 111.942 3.46447C112.348 3.62078 112.717 3.85725 113.029 4.15974C113.341 4.46222 113.588 4.8245 113.757 5.2249C113.926 5.6253 114.012 6.05559 114.01 6.49001V7.76001C120.59 8.50337 126.722 11.4571 131.405 16.1382C136.088 20.8193 139.044 26.9508 139.79 33.53H149.62C150.096 33.5232 150.567 33.6178 151.003 33.8075C151.44 33.9972 151.831 34.2775 152.15 34.63C152.622 35.1679 152.904 35.8466 152.951 36.5609C152.998 37.2751 152.808 37.9849 152.41 38.58Z" fill="#3B4243"/>
</g>
<defs>
<clipPath id="clip0_315_104">
<rect width="221.54" height="221.54" fill="white"/>
</clipPath>
</defs>
</svg>
