<svg width="158" height="222" viewBox="0 0 158 222" fill="none" xmlns="http://www.w3.org/2000/svg">
<path d="M154.69 33.3151H140.63V3.23511C140.626 2.7462 140.513 2.26442 140.297 1.82538C140.082 1.38635 139.771 1.00132 139.387 0.698827C139.003 0.396335 138.556 0.184118 138.078 0.0778854C137.601 -0.0283475 137.106 -0.0258787 136.63 0.0851181L2.46997 33.4051C1.76578 33.5792 1.13999 33.9839 0.692383 34.5547C0.244778 35.1256 0.00111886 35.8298 0 36.5551V218.285C0.00263751 219.146 0.345912 219.971 0.954834 220.58C1.56376 221.189 2.38886 221.532 3.25 221.535H154.69C155.551 221.532 156.376 221.189 156.985 220.58C157.594 219.971 157.937 219.146 157.94 218.285V36.5551C157.937 35.6949 157.594 34.8708 156.985 34.2635C156.375 33.6561 155.55 33.3151 154.69 33.3151ZM151.45 215.045H6.44995V39.8051H151.45V215.045Z" fill="#011839"/>
<path d="M23.1687 154.374H31.8913C32.1063 154.375 32.3194 154.333 32.5181 154.251C32.7169 154.17 32.8976 154.049 33.0498 153.897C33.202 153.746 33.3228 153.565 33.4052 153.367C33.4876 153.168 33.53 152.955 33.53 152.74V144.009C33.53 143.794 33.4876 143.581 33.4052 143.382C33.3228 143.183 33.202 143.003 33.0498 142.851C32.8976 142.699 32.7169 142.579 32.5181 142.497C32.3194 142.415 32.1063 142.374 31.8913 142.374H23.1687C22.9537 142.374 22.7406 142.415 22.5419 142.497C22.3431 142.579 22.1624 142.699 22.0102 142.851C21.858 143.003 21.7372 143.183 21.6548 143.382C21.5724 143.581 21.53 143.794 21.53 144.009V152.74C21.53 152.955 21.5724 153.168 21.6548 153.367C21.7372 153.565 21.858 153.746 22.0102 153.897C22.1624 154.049 22.3431 154.17 22.5419 154.251C22.7406 154.333 22.9537 154.375 23.1687 154.374ZM24.8023 145.648H30.2577V151.101H24.8023V145.648Z" fill="#011839"/>
<path d="M23.1687 172.374H31.8913C32.1063 172.375 32.3194 172.333 32.5181 172.251C32.7169 172.17 32.8976 172.049 33.0498 171.897C33.202 171.746 33.3228 171.565 33.4052 171.367C33.4876 171.168 33.53 170.955 33.53 170.74V162.009C33.53 161.794 33.4876 161.581 33.4052 161.382C33.3228 161.183 33.202 161.003 33.0498 160.851C32.8976 160.699 32.7169 160.579 32.5181 160.497C32.3194 160.415 32.1063 160.374 31.8913 160.374H23.1687C22.9537 160.374 22.7406 160.415 22.5419 160.497C22.3431 160.579 22.1624 160.699 22.0102 160.851C21.858 161.003 21.7372 161.183 21.6548 161.382C21.5724 161.581 21.53 161.794 21.53 162.009V170.74C21.53 170.955 21.5724 171.168 21.6548 171.367C21.7372 171.565 21.858 171.746 22.0102 171.897C22.1624 172.049 22.3431 172.17 22.5419 172.251C22.7406 172.333 22.9537 172.375 23.1687 172.374ZM24.8023 163.648H30.2577V169.101H24.8023V163.648Z" fill="#011839"/>
<path d="M23.1687 190.374H31.8913C32.1063 190.375 32.3194 190.333 32.5181 190.251C32.7169 190.17 32.8976 190.049 33.0498 189.897C33.202 189.746 33.3228 189.565 33.4052 189.367C33.4876 189.168 33.53 188.955 33.53 188.74V180.009C33.53 179.794 33.4876 179.581 33.4052 179.382C33.3228 179.183 33.202 179.003 33.0498 178.851C32.8976 178.699 32.7169 178.579 32.5181 178.497C32.3194 178.415 32.1063 178.374 31.8913 178.374H23.1687C22.9537 178.374 22.7406 178.415 22.5419 178.497C22.3431 178.579 22.1624 178.699 22.0102 178.851C21.858 179.003 21.7372 179.183 21.6548 179.382C21.5724 179.581 21.53 179.794 21.53 180.009V188.74C21.53 188.955 21.5724 189.168 21.6548 189.367C21.7372 189.565 21.858 189.746 22.0102 189.897C22.1624 190.049 22.3431 190.17 22.5419 190.251C22.7406 190.333 22.9537 190.375 23.1687 190.374ZM24.8023 181.648H30.2577V187.101H24.8023V181.648Z" fill="#011839"/>
<path d="M23.1687 208.374H31.8913C32.1063 208.375 32.3194 208.333 32.5181 208.251C32.7169 208.17 32.8976 208.049 33.0498 207.897C33.202 207.746 33.3228 207.565 33.4052 207.367C33.4876 207.168 33.53 206.955 33.53 206.74V198.009C33.53 197.794 33.4876 197.581 33.4052 197.382C33.3228 197.183 33.202 197.003 33.0498 196.851C32.8976 196.699 32.7169 196.579 32.5181 196.497C32.3194 196.415 32.1063 196.374 31.8913 196.374H23.1687C22.9537 196.374 22.7406 196.415 22.5419 196.497C22.3431 196.579 22.1624 196.699 22.0102 196.851C21.858 197.003 21.7372 197.183 21.6548 197.382C21.5724 197.581 21.53 197.794 21.53 198.009V206.74C21.53 206.955 21.5724 207.168 21.6548 207.367C21.7372 207.565 21.858 207.746 22.0102 207.897C22.1624 208.049 22.3431 208.17 22.5419 208.251C22.7406 208.333 22.9537 208.375 23.1687 208.374ZM24.8023 199.648H30.2577V205.101H24.8023V199.648Z" fill="#011839"/>
<path d="M46.2627 151.37H125.797C126.535 151.392 127.273 151.332 127.967 151.191C128.66 151.051 129.295 150.834 129.831 150.554C130.368 150.273 130.795 149.935 131.087 149.561C131.379 149.186 131.53 148.782 131.53 148.374C131.53 147.966 131.379 147.563 131.087 147.188C130.795 146.813 130.368 146.475 129.831 146.195C129.295 145.915 128.66 145.698 127.967 145.557C127.273 145.417 126.535 145.356 125.797 145.379H46.2627C45.5252 145.356 44.7868 145.417 44.0932 145.557C43.3997 145.698 42.7652 145.915 42.2286 146.195C41.692 146.475 41.2648 146.813 40.9727 147.188C40.6806 147.563 40.53 147.966 40.53 148.374C40.53 148.782 40.6806 149.186 40.9727 149.561C41.2648 149.935 41.692 150.273 42.2286 150.554C42.7652 150.834 43.3997 151.051 44.0932 151.191C44.7868 151.332 45.5252 151.392 46.2627 151.37Z" fill="#011839"/>
<path d="M44.2188 169.369H127.408C127.938 169.395 128.469 169.325 128.968 169.161C129.467 168.997 129.923 168.744 130.309 168.417C130.695 168.09 131.002 167.696 131.212 167.258C131.422 166.821 131.53 166.35 131.53 165.874C131.53 165.398 131.422 164.927 131.212 164.49C131.002 164.053 130.695 163.659 130.309 163.332C129.923 163.005 129.467 162.752 128.968 162.588C128.469 162.424 127.938 162.353 127.408 162.38H44.2188C43.2221 162.429 42.2845 162.819 41.5984 163.469C40.9124 164.119 40.53 164.98 40.53 165.874C40.53 166.769 40.9124 167.63 41.5984 168.28C42.2845 168.93 43.2221 169.319 44.2188 169.369Z" fill="#011839"/>
<path d="M125.797 179.38H46.2627C45.5252 179.353 44.7868 179.424 44.0932 179.588C43.3997 179.752 42.7652 180.005 42.2286 180.332C41.692 180.659 41.2648 181.053 40.9727 181.49C40.6806 181.927 40.53 182.398 40.53 182.874C40.53 183.35 40.6806 183.821 40.9727 184.258C41.2648 184.696 41.692 185.09 42.2286 185.417C42.7652 185.744 43.3997 185.997 44.0932 186.161C44.7868 186.325 45.5252 186.395 46.2627 186.369H125.797C126.535 186.395 127.273 186.325 127.967 186.161C128.66 185.997 129.295 185.744 129.831 185.417C130.368 185.09 130.795 184.696 131.087 184.258C131.379 183.821 131.53 183.35 131.53 182.874C131.53 182.398 131.379 181.927 131.087 181.49C130.795 181.053 130.368 180.659 129.831 180.332C129.295 180.005 128.66 179.752 127.967 179.588C127.273 179.424 126.535 179.353 125.797 179.38Z" fill="#011839"/>
<path d="M44.2188 203.37H127.408C127.938 203.392 128.469 203.332 128.968 203.191C129.467 203.051 129.923 202.834 130.309 202.554C130.695 202.273 131.002 201.935 131.212 201.561C131.422 201.186 131.53 200.782 131.53 200.374C131.53 199.966 131.422 199.563 131.212 199.188C131.002 198.813 130.695 198.475 130.309 198.195C129.923 197.915 129.467 197.698 128.968 197.557C128.469 197.417 127.938 197.356 127.408 197.379H44.2188C43.2221 197.422 42.2845 197.756 41.5984 198.313C40.9124 198.87 40.53 199.608 40.53 200.374C40.53 201.141 40.9124 201.879 41.5984 202.436C42.2845 202.993 43.2221 203.327 44.2188 203.37Z" fill="#011839"/>
<path d="M76.5 78.1244C71.0402 78.1322 65.7653 80.1031 61.6382 83.6776C57.5111 87.2521 54.8072 92.1916 54.02 97.5944H99.02C98.2319 92.1848 95.5221 87.2399 91.3867 83.6646C87.2513 80.0892 81.9667 78.1225 76.5 78.1244Z" fill="#FEAA3A"/>
<path d="M46.3401 108.164C46.8332 108.906 47.5022 109.514 48.2874 109.935C49.0725 110.355 49.9494 110.575 50.8401 110.574H102.16C103.051 110.575 103.928 110.355 104.713 109.935C105.498 109.514 106.167 108.906 106.66 108.164L109.38 104.084H43.6201L46.3401 108.164Z" fill="#FEAA3A"/>
<path d="M119.77 49.9944H33.23C30.0755 49.9997 27.0518 51.2551 24.8213 53.4857C22.5908 55.7162 21.3354 58.7399 21.3301 61.8943V122.474C21.3354 125.629 22.5908 128.653 24.8213 130.883C27.0518 133.114 30.0755 134.369 33.23 134.374H119.77C122.924 134.369 125.948 133.114 128.179 130.883C130.409 128.653 131.665 125.629 131.67 122.474V61.8943C131.665 58.7399 130.409 55.7162 128.179 53.4857C125.948 51.2551 122.924 49.9997 119.77 49.9944ZM118.14 102.634L112.06 111.764C110.975 113.396 109.503 114.733 107.776 115.658C106.048 116.583 104.119 117.066 102.16 117.064H50.8401C48.8808 117.066 46.9517 116.583 45.2244 115.658C43.4971 114.733 42.0251 113.396 40.9399 111.764L34.8601 102.634C34.5445 102.147 34.3658 101.583 34.3428 101.003C34.3198 100.422 34.4532 99.846 34.7292 99.3348C35.0053 98.8237 35.4139 98.3961 35.9119 98.0969C36.4099 97.7978 36.9791 97.638 37.5601 97.6343H47.5C48.2434 91.0548 51.1971 84.9222 55.8782 80.2393C60.5593 75.5564 66.6908 72.6003 73.27 71.8544V70.5944C73.27 69.7324 73.6124 68.9058 74.2219 68.2963C74.8314 67.6868 75.6581 67.3444 76.52 67.3444C77.382 67.3444 78.2086 67.6868 78.8181 68.2963C79.4276 68.9058 79.77 69.7324 79.77 70.5944V71.8544C86.336 72.607 92.4536 75.5611 97.126 80.2352C101.798 84.9094 104.75 91.0281 105.5 97.5944H115.42C116.001 97.598 116.57 97.7578 117.068 98.0569C117.566 98.3561 117.975 98.7836 118.251 99.2948C118.527 99.806 118.66 100.382 118.637 100.962C118.614 101.543 118.436 102.107 118.12 102.594L118.14 102.634Z" fill="#FEAA3A"/>
</svg>
