<svg width="222" height="222" viewBox="0 0 222 222" fill="none" xmlns="http://www.w3.org/2000/svg">
<g clip-path="url(#clip0_318_33)">
<path d="M9.73993 113.36H211.8C213.105 113.402 214.404 113.181 215.622 112.711C216.84 112.24 217.95 111.53 218.888 110.622C219.826 109.714 220.571 108.626 221.081 107.424C221.59 106.222 221.852 104.93 221.852 103.625C221.852 102.32 221.59 101.028 221.081 99.8257C220.571 98.6237 219.826 97.5364 218.888 96.6283C217.95 95.7202 216.84 95.0098 215.622 94.5394C214.404 94.069 213.105 93.8482 211.8 93.89H202.87L124.8 24.37C126.241 21.9024 127.005 19.0984 127.015 16.241C127.025 13.3837 126.282 10.5742 124.859 8.09625C123.436 5.61829 121.385 3.55955 118.912 2.1279C116.439 0.69625 113.632 -0.0576172 110.775 -0.0576172C107.918 -0.0576172 105.111 0.69625 102.638 2.1279C100.165 3.55955 98.1138 5.61829 96.6911 8.09625C95.2684 10.5742 94.5248 13.3837 94.5351 16.241C94.5454 19.0984 95.3094 21.9024 96.7499 24.37L18.6699 93.89H9.73993C8.43526 93.8482 7.13554 94.069 5.91791 94.5394C4.70027 95.0098 3.58972 95.7202 2.65204 96.6283C1.71435 97.5364 0.968589 98.6237 0.459412 99.8257C-0.0497656 101.028 -0.312073 102.32 -0.312073 103.625C-0.312073 104.93 -0.0497656 106.222 0.459412 107.424C0.968589 108.626 1.71435 109.714 2.65204 110.622C3.58972 111.53 4.70027 112.24 5.91791 112.711C7.13554 113.181 8.43526 113.402 9.73993 113.36ZM110.74 6.48999C112.667 6.48801 114.551 7.05758 116.154 8.12662C117.757 9.19566 119.007 10.7162 119.746 12.4957C120.485 14.2753 120.679 16.234 120.304 18.124C119.929 20.0141 119.003 21.7505 117.641 23.1136C116.279 24.4768 114.543 25.4055 112.654 25.7821C110.764 26.1587 108.805 25.9665 107.025 25.2296C105.245 24.4927 103.723 23.2442 102.652 21.6423C101.582 20.0403 101.01 18.1568 101.01 16.23C101.011 14.9496 101.265 13.682 101.756 12.4996C102.247 11.3172 102.966 10.2431 103.873 9.33862C104.779 8.43418 105.855 7.7171 107.038 7.22833C108.221 6.73956 109.49 6.48868 110.77 6.48999H110.74ZM101.03 29.22C103.833 31.3168 107.239 32.45 110.74 32.45C114.24 32.45 117.647 31.3168 120.45 29.22L193.08 93.89H28.4299L101.03 29.22ZM9.73993 100.38H211.8C212.241 100.355 212.683 100.421 213.098 100.573C213.513 100.725 213.892 100.96 214.214 101.264C214.535 101.568 214.79 101.934 214.965 102.34C215.14 102.746 215.23 103.183 215.23 103.625C215.23 104.067 215.14 104.504 214.965 104.91C214.79 105.316 214.535 105.682 214.214 105.986C213.892 106.29 213.513 106.525 213.098 106.677C212.683 106.829 212.241 106.895 211.8 106.87H9.73993C9.29864 106.895 8.85709 106.829 8.44208 106.677C8.02707 106.525 7.64742 106.29 7.32635 105.986C7.00529 105.682 6.74943 105.316 6.57465 104.91C6.39986 104.504 6.30975 104.067 6.30975 103.625C6.30975 103.183 6.39986 102.746 6.57465 102.34C6.74943 101.934 7.00529 101.568 7.32635 101.264C7.64742 100.96 8.02707 100.725 8.44208 100.573C8.85709 100.421 9.29864 100.355 9.73993 100.38V100.38Z" fill="#011839"/>
<path d="M211.8 202.07H9.73993C8.43526 202.029 7.13554 202.249 5.91791 202.72C4.70027 203.19 3.58972 203.901 2.65204 204.809C1.71435 205.717 0.968589 206.804 0.459412 208.006C-0.0497656 209.208 -0.312073 210.5 -0.312073 211.805C-0.312073 213.111 -0.0497656 214.403 0.459412 215.605C0.968589 216.807 1.71435 217.894 2.65204 218.802C3.58972 219.71 4.70027 220.421 5.91791 220.891C7.13554 221.361 8.43526 221.582 9.73993 221.54H211.8C213.105 221.582 214.404 221.361 215.622 220.891C216.84 220.421 217.95 219.71 218.888 218.802C219.826 217.894 220.571 216.807 221.081 215.605C221.59 214.403 221.852 213.111 221.852 211.805C221.852 210.5 221.59 209.208 221.081 208.006C220.571 206.804 219.826 205.717 218.888 204.809C217.95 203.901 216.84 203.19 215.622 202.72C214.404 202.249 213.105 202.029 211.8 202.07V202.07ZM211.8 215.07H9.73993C9.29864 215.095 8.85709 215.029 8.44208 214.877C8.02707 214.725 7.64742 214.49 7.32635 214.186C7.00529 213.883 6.74943 213.517 6.57465 213.111C6.39986 212.705 6.30975 212.267 6.30975 211.825C6.30975 211.383 6.39986 210.946 6.57465 210.54C6.74943 210.134 7.00529 209.768 7.32635 209.464C7.64742 209.161 8.02707 208.926 8.44208 208.774C8.85709 208.622 9.29864 208.556 9.73993 208.58H211.8C212.241 208.556 212.683 208.622 213.098 208.774C213.513 208.926 213.892 209.161 214.214 209.464C214.535 209.768 214.79 210.134 214.965 210.54C215.14 210.946 215.23 211.383 215.23 211.825C215.23 212.267 215.14 212.705 214.965 213.111C214.79 213.517 214.535 213.883 214.214 214.186C213.892 214.49 213.513 214.725 213.098 214.877C212.683 215.029 212.241 215.095 211.8 215.07V215.07Z" fill="#011839"/>
<path d="M91.82 144.24H85.04V157.81H91.82C92.7329 157.845 93.6435 157.696 94.4973 157.371C95.351 157.045 96.1305 156.551 96.7888 155.918C97.4471 155.284 97.9706 154.525 98.3283 153.684C98.686 152.843 98.8705 151.939 98.8705 151.025C98.8705 150.112 98.686 149.208 98.3283 148.367C97.9706 147.526 97.4471 146.766 96.7888 146.133C96.1305 145.499 95.351 145.005 94.4973 144.68C93.6435 144.355 92.7329 144.205 91.82 144.24V144.24Z" fill="#FEAA3A"/>
<path d="M50.59 144.24C47.9042 144.243 45.329 145.311 43.4299 147.21C41.5307 149.109 40.4625 151.684 40.4599 154.37V161.06C40.4599 163.747 41.5272 166.323 43.4269 168.223C45.3267 170.123 47.9034 171.19 50.59 171.19C53.2767 171.19 55.8531 170.123 57.7529 168.223C59.6526 166.323 60.7199 163.747 60.7199 161.06V154.37C60.7146 151.685 59.6459 149.112 57.7473 147.213C55.8487 145.314 53.275 144.246 50.59 144.24V144.24Z" fill="#FEAA3A"/>
<path d="M12.33 119.85V195.58H209.21V119.85H12.33ZM67.2099 161.06C67.2099 165.468 65.4588 169.695 62.342 172.812C59.2251 175.929 54.9979 177.68 50.59 177.68C46.1821 177.68 41.9547 175.929 38.8378 172.812C35.721 169.695 33.9699 165.468 33.9699 161.06V154.37C33.9699 149.962 35.721 145.734 38.8378 142.617C41.9547 139.501 46.1821 137.75 50.59 137.75C54.9979 137.75 59.2251 139.501 62.342 142.617C65.4588 145.734 67.2099 149.962 67.2099 154.37V161.06ZM91.82 164.3H85.04V174.43C85.0645 174.871 84.9986 175.313 84.8466 175.728C84.6946 176.143 84.4597 176.522 84.1559 176.843C83.8522 177.164 83.4862 177.42 83.0803 177.595C82.6743 177.77 82.2368 177.86 81.7949 177.86C81.3529 177.86 80.9156 177.77 80.5097 177.595C80.1038 177.42 79.7378 177.164 79.434 176.843C79.1303 176.522 78.8954 176.143 78.7433 175.728C78.5913 175.313 78.5255 174.871 78.55 174.43V141C78.55 140.139 78.8909 139.314 79.4982 138.705C80.1056 138.096 80.9298 137.752 81.79 137.75H91.79C93.5639 137.701 95.3297 138.008 96.9828 138.654C98.636 139.299 100.143 140.269 101.415 141.506C102.687 142.744 103.698 144.224 104.388 145.859C105.079 147.493 105.434 149.25 105.434 151.025C105.434 152.799 105.079 154.556 104.388 156.191C103.698 157.826 102.687 159.305 101.415 160.543C100.143 161.78 98.636 162.751 96.9828 163.396C95.3297 164.041 93.5639 164.348 91.79 164.3H91.82ZM143.09 154.47C143.531 154.445 143.973 154.511 144.388 154.663C144.803 154.815 145.183 155.05 145.504 155.354C145.825 155.657 146.081 156.023 146.255 156.429C146.43 156.835 146.52 157.273 146.52 157.715C146.52 158.157 146.43 158.594 146.255 159C146.081 159.406 145.825 159.772 145.504 160.076C145.183 160.379 144.803 160.614 144.388 160.766C143.973 160.918 143.531 160.984 143.09 160.96H126.28V171.19H143.09C143.531 171.165 143.973 171.231 144.388 171.383C144.803 171.535 145.183 171.77 145.504 172.074C145.825 172.377 146.081 172.743 146.255 173.149C146.43 173.555 146.52 173.993 146.52 174.435C146.52 174.877 146.43 175.314 146.255 175.72C146.081 176.126 145.825 176.492 145.504 176.796C145.183 177.099 144.803 177.334 144.388 177.486C143.973 177.638 143.531 177.704 143.09 177.68H123.03C122.604 177.68 122.182 177.596 121.788 177.432C121.394 177.269 121.036 177.029 120.735 176.727C120.434 176.425 120.196 176.067 120.034 175.673C119.871 175.278 119.789 174.856 119.79 174.43V141C119.79 140.139 120.131 139.314 120.738 138.705C121.346 138.096 122.17 137.752 123.03 137.75H143.09C143.531 137.725 143.973 137.791 144.388 137.943C144.803 138.095 145.183 138.33 145.504 138.634C145.825 138.937 146.081 139.303 146.255 139.709C146.43 140.115 146.52 140.553 146.52 140.995C146.52 141.437 146.43 141.874 146.255 142.28C146.081 142.686 145.825 143.052 145.504 143.356C145.183 143.659 144.803 143.894 144.388 144.046C143.973 144.198 143.531 144.264 143.09 144.24H126.28V154.47H143.09ZM187.57 174.47C187.571 175.18 187.339 175.871 186.909 176.437C186.479 177.003 185.875 177.411 185.19 177.6C184.91 177.679 184.621 177.72 184.33 177.72C183.769 177.721 183.218 177.576 182.73 177.299C182.242 177.022 181.836 176.622 181.55 176.14L167.54 152.68V174.4C167.564 174.841 167.499 175.283 167.347 175.698C167.195 176.113 166.96 176.492 166.656 176.813C166.352 177.134 165.986 177.39 165.58 177.565C165.174 177.74 164.737 177.83 164.295 177.83C163.853 177.83 163.416 177.74 163.01 177.565C162.604 177.39 162.238 177.134 161.934 176.813C161.63 176.492 161.395 176.113 161.243 175.698C161.091 175.283 161.025 174.841 161.05 174.4V141C161.063 140.3 161.302 139.624 161.73 139.07C162.159 138.517 162.754 138.117 163.428 137.93C164.102 137.742 164.819 137.777 165.471 138.029C166.124 138.281 166.677 138.738 167.05 139.33L181.05 162.72V141C181.025 140.558 181.091 140.117 181.243 139.702C181.395 139.287 181.63 138.907 181.934 138.586C182.238 138.265 182.604 138.009 183.01 137.834C183.416 137.66 183.853 137.569 184.295 137.569C184.737 137.569 185.174 137.66 185.58 137.834C185.986 138.009 186.352 138.265 186.656 138.586C186.96 138.907 187.195 139.287 187.347 139.702C187.499 140.117 187.564 140.558 187.54 141L187.57 174.47Z" fill="#FEAA3A"/>
</g>
<defs>
<clipPath id="clip0_318_33">
<rect width="221.54" height="221.54" fill="white"/>
</clipPath>
</defs>
</svg>
