<svg id="Calque_1" data-name="Calque 1" xmlns="http://www.w3.org/2000/svg" viewBox="0 0 652.31 27.98"><defs><style>.cls-1{fill:#fbfbfb;}</style></defs><path class="cls-1" d="M652.28,28.1V4.4a12,12,0,0,1-1.7.21l-3.7-.07L639.19,1l-5.9.28-3.7.42L624.89.13h-.2l-2.8.56-3.8.27-2.2.56-2.6.7-4,.84-3.1.56-1.6.62-3.3.49-3.4-.7-4.2.14-2-.7h-3.9l-3.2.28-3.2.27-4.1.42-1.6.63-4.4-.63-7.6-.35-4.2.06-3-.07-3.9-.91h-6.7l-3,.28L541.49,3l-1.7-.49-3.9-.42-3.6-.42a15,15,0,0,0-3.5-.08,30.07,30.07,0,0,0-3,.63l-4.5.56-3.1,1.12-2.1.49-1.8.69v.7l-2.8.42-2.3.91-3-.14a25.23,25.23,0,0,0-4.7.56l-3.8.13a30.16,30.16,0,0,0-4.7-.14l-3,.42-2.4-.7-2.9-.14-.1-.7-1.9-.56L478.59,5l-5-.07a19,19,0,0,0-4.1-.77c-.3,0-1.5.14-3.5.41l-3.6.7-3.8.77L457,6.7l-1.3.63-3-.08-4,.28-2.6.35-1.6.77-2.1.49-3,.35-2.3.55-7.1.84-5.11.7-3-.14-4.2-.15h-6.4l-3.8.35-1.9.91h-2.9l-3.6.83-4.3.28-1.7-.49-1.4-.7-5.9-.07-2.7-.49-2.2-.35-3.9.07h-4l-4.7-.08-4.8-.42-4.3.28-5.8.77c-.9.56-4.1.9-4.6.9s-3.2.14-3.2.14l-5.3-.7-4.9.07-6-.77-4.5.13L322,11.6l-4.9-.21h-3.5l-2.4.7-2.6.56-3.8.41-1.2.84-4.6-.21-2.2-.35c-2.8.07-2.9-.14-2.9-.35s-3.4-.35-3.4-.35l-2.1-.84-5.4.07-3.9,1.32-1.1.63-3.1.91.1.7.1.63-2.8-1-4.1-.77-4.9-.07a19.1,19.1,0,0,0-4.1-.78c-.3,0-1.5.14-3.5.42l-3.6.7-3.8.77-4.2-.21-.1-.84-2.7-.35-1-1.19-1.1,1.32-2.3-.7-3.6-.42-1.8-.56-2.3.42-1.6,1.12-2.4-.7-3.7.21-2.1-1.26L217,13l-1.4.63-1.7-.56-1.9.69-1.1.7-1.9,1-2.8.42-.1-1.12-4.1.63-2.4.77-1.3.62-3.7.21-1.3.7-4,1.33-2.8.56-3.1.48-5.3.35-1.8-.63-3.2.07-1.6,1-5.2.21-4-.36-4.2-.07-2.2-.42-2.5.35-4.8.28-3,.28-2.9-.35-3.6.55-4.6-.7-3.7-.28-6.2.42-2.3-.49-3.4-.21-3.6-.49-2.7.41.1,1.33-6.1-.49h-3.5l-2.4.7-2.6.55-3.8.42-1.2.84L88.48,23l-2.2-.35c-3,.21-3-.07-3-.21s-3.4-.35-3.4-.35l-2.1-.84-5.4.06-3.9,1.33-1.1.63-3.1.91.1.63-3.5-.63L59,23.66h-4.8a19,19,0,0,0-4.1-.77c-.3,0-1.5.14-3.5.42L43,24l-3.8.77-2.2.9-3.7.28-4,.28-2.6.35-3.4.28c-.7-.28-1.3-.49-1.9-.7-2.3-.14-2.4-.21-2.5-.28-.7-.56-.8-.63-.9-.63-1.1-.21-2.1-.42-3.1-.63A8.55,8.55,0,0,0,12,24.4l-3.7.21-2.4.77L4.38,26a13,13,0,0,1-3.2.63c-.4.49-.5.63-.7.7l-.5.49Z"/></svg>