<svg width="1089" height="1646" viewBox="0 0 1089 1646" fill="none" xmlns="http://www.w3.org/2000/svg">
<path d="M249.14 474.64C245.754 474.629 242.472 473.473 239.826 471.359C237.181 469.246 235.328 466.3 234.57 463C230.198 447.034 227.988 430.554 228 414C228 311.44 311.44 228 414 228C516.56 228 600 311.44 600 414C600.007 421.389 599.573 428.772 598.7 436.11C598.225 440.06 596.201 443.66 593.072 446.118C589.943 448.576 585.965 449.69 582.015 449.215C578.065 448.74 574.465 446.716 572.007 443.587C569.549 440.458 568.435 436.48 568.91 432.53C569.643 426.381 570.007 420.193 570 414C570 328 500 258 414 258C328 258 258 328 258 414C257.986 428.058 259.883 442.053 263.64 455.6C264.256 457.828 264.35 460.168 263.912 462.437C263.475 464.707 262.519 466.845 261.12 468.684C259.72 470.524 257.914 472.014 255.843 473.041C253.772 474.067 251.491 474.6 249.18 474.6L249.14 474.64Z" fill="#FEAA3A"/>
<path d="M249.14 661.48C246.032 661.482 243.001 660.513 240.47 658.71C201.421 630.945 169.57 594.251 147.572 551.685C125.573 509.12 114.063 461.914 114 414C114 248.58 248.58 114 414 114C579.42 114 714 248.58 714 414C714.2 479.169 692.974 542.597 653.59 594.52C651.192 597.695 647.632 599.787 643.692 600.336C639.752 600.886 635.755 599.848 632.58 597.45C629.405 595.052 627.313 591.492 626.764 587.552C626.214 583.612 627.252 579.615 629.65 576.44C665.088 529.718 684.185 472.641 684 414C684 265.12 562.88 144 414 144C265.12 144 144 265.12 144 414C144.056 457.123 154.413 499.609 174.209 537.92C194.006 576.23 222.668 609.257 257.81 634.25C260.405 636.093 262.347 638.713 263.354 641.733C264.361 644.752 264.382 648.013 263.414 651.045C262.445 654.077 260.537 656.722 257.966 658.598C255.394 660.474 252.293 661.483 249.11 661.48H249.14Z" fill="#FEAA3A"/>
<path d="M249.14 792.42C247.001 792.42 244.888 791.964 242.94 791.08C95.36 724.05 0 576 0 414C0 185.72 185.72 0 414 0C642.28 0 828 185.72 828 414C828.205 500.644 801.032 585.138 750.36 655.42C749.21 657.019 747.757 658.377 746.083 659.415C744.408 660.452 742.546 661.15 740.602 661.468C738.658 661.786 736.67 661.718 734.753 661.268C732.835 660.818 731.025 659.995 729.425 658.845C727.826 657.695 726.468 656.242 725.43 654.567C724.393 652.893 723.695 651.031 723.377 649.087C723.059 647.143 723.127 645.155 723.577 643.238C724.027 641.32 724.85 639.509 726 637.91C772.994 572.724 798.193 494.359 798 414C798 202.26 625.74 30 414 30C202.26 30 30 202.26 30 414C30 564.3 118.45 701.59 255.33 763.76C258.452 765.177 260.995 767.62 262.535 770.684C264.075 773.747 264.519 777.246 263.793 780.596C263.067 783.947 261.214 786.948 258.545 789.1C255.875 791.251 252.549 792.423 249.12 792.42H249.14Z" fill="#FEAA3A"/>
<path d="M979.63 866.24C964.916 866.231 950.355 869.22 936.834 875.025C923.314 880.829 911.118 889.327 900.99 900V862.51C900.999 840.796 894.498 819.577 882.327 801.594C870.156 783.612 852.873 769.69 832.711 761.628C812.548 753.566 790.432 751.733 769.218 756.367C748.003 761 728.665 771.886 713.7 787.62V750.13C713.707 728.417 707.204 707.2 695.033 689.218C682.861 671.237 665.578 657.317 645.416 649.256C625.254 641.196 603.139 639.364 581.925 643.997C560.712 648.631 541.375 659.517 526.41 675.25V464C526.65 449.582 524.017 435.261 518.665 421.871C513.313 408.48 505.349 396.29 495.238 386.009C485.126 375.728 473.069 367.563 459.77 361.989C446.471 356.415 432.195 353.545 417.775 353.545C403.355 353.545 389.079 356.415 375.78 361.989C362.48 367.563 350.424 375.728 340.312 386.009C330.201 396.29 322.237 408.48 316.885 421.871C311.533 435.261 308.9 449.582 309.14 464V1090.85L229.39 1011.1C205.632 987.33 173.404 973.972 139.797 973.963C106.189 973.955 73.9549 987.297 50.1849 1011.06C26.4149 1034.81 13.0563 1067.04 13.0479 1100.65C13.0394 1134.26 26.3818 1166.49 50.1399 1190.26L313.14 1453.17L385.29 1537.86C414.126 1571.79 450.001 1599.04 490.425 1617.71C530.848 1636.39 574.852 1646.04 619.38 1646H621.8L698.7 1645.4H885.99C997.53 1645.4 1088.28 1554.66 1088.28 1443.12V974.88C1088.25 946.075 1076.79 918.459 1056.42 898.092C1036.05 877.724 1008.43 866.269 979.63 866.24ZM1058.28 1443.11C1058.28 1538.11 980.99 1615.39 885.99 1615.39H698.58L621.58 1615.99C581.021 1616.34 540.88 1607.79 503.99 1590.93C467.101 1574.07 434.363 1549.31 408.09 1518.41L335.54 1433.26C335.286 1432.95 335.016 1432.65 334.73 1432.37L71.3899 1169C62.0834 1160.1 54.6494 1149.42 49.5244 1137.6C44.3994 1125.79 41.6866 1113.07 41.5453 1100.19C41.404 1087.31 43.837 1074.53 48.7014 1062.6C53.5659 1050.67 60.7638 1039.84 69.8727 1030.73C78.9816 1021.63 89.818 1014.43 101.746 1009.57C113.673 1004.71 126.452 1002.28 139.332 1002.42C152.212 1002.56 164.933 1005.28 176.749 1010.41C188.565 1015.54 199.237 1022.97 208.14 1032.28L313.49 1137.63C315.587 1139.74 318.265 1141.19 321.185 1141.77C324.104 1142.36 327.132 1142.06 329.883 1140.92C332.634 1139.78 334.983 1137.85 336.631 1135.37C338.28 1132.89 339.153 1129.98 339.14 1127V464C339.023 453.598 340.97 443.275 344.87 433.631C348.77 423.986 354.544 415.211 361.858 407.814C369.173 400.416 377.882 394.544 387.482 390.535C397.082 386.527 407.382 384.463 417.785 384.463C428.188 384.463 438.488 386.527 448.088 390.535C457.688 394.544 466.397 400.416 473.712 407.814C481.026 415.211 486.8 423.986 490.7 433.631C494.6 443.275 496.547 453.598 496.43 464V918.55C496.43 922.529 498.01 926.344 500.823 929.157C503.636 931.97 507.452 933.55 511.43 933.55C515.408 933.55 519.223 931.97 522.036 929.157C524.85 926.344 526.43 922.529 526.43 918.55V750.13C526.663 729.426 535.052 709.649 549.775 695.09C564.499 680.532 584.369 672.367 605.075 672.367C625.781 672.367 645.651 680.532 660.374 695.09C675.098 709.649 683.486 729.426 683.72 750.13V989.52C683.72 993.499 685.3 997.314 688.113 1000.13C690.926 1002.94 694.742 1004.52 698.72 1004.52C702.698 1004.52 706.513 1002.94 709.327 1000.13C712.14 997.314 713.72 993.499 713.72 989.52V862.52C713.603 852.118 715.55 841.795 719.45 832.151C723.349 822.506 729.124 813.731 736.438 806.334C743.753 798.936 752.462 793.064 762.062 789.055C771.662 785.047 781.962 782.983 792.365 782.983C802.768 782.983 813.068 785.047 822.668 789.055C832.268 793.064 840.977 798.936 848.292 806.334C855.606 813.731 861.38 822.506 865.28 832.151C869.18 841.795 871.127 852.118 871.01 862.52V1040C871.01 1043.98 872.59 1047.79 875.403 1050.61C878.216 1053.42 882.032 1055 886.01 1055C889.988 1055 893.803 1053.42 896.616 1050.61C899.43 1047.79 901.01 1043.98 901.01 1040V974.84C901.243 954.136 909.632 934.359 924.355 919.8C939.079 905.242 958.949 897.077 979.655 897.077C1000.36 897.077 1020.23 905.242 1034.95 919.8C1049.68 934.359 1058.07 954.136 1058.3 974.84L1058.28 1443.11Z" fill="#FEAA3A"/>
</svg>
