<svg width="71" height="61" viewBox="0 0 71 61" fill="none" xmlns="http://www.w3.org/2000/svg">
<path d="M35.4651 26.2442C42.0346 19.373 44.04 12.1999 44.4677 10.3574C44.6167 9.82521 44.7003 9.27933 44.7169 8.72998C44.7169 3.90932 40.5747 0 35.4651 0C30.3556 0 26.2134 3.90932 26.2134 8.72998C26.2296 9.27936 26.3132 9.82529 26.4626 10.3574C26.8884 12.1927 28.8918 19.3766 35.4651 26.2442ZM35.4651 4.06845C38.2299 4.06845 40.4707 6.18404 40.4707 8.79146C40.4707 11.3989 38.2299 13.5145 35.4651 13.5145C32.7004 13.5145 30.4615 11.4007 30.4615 8.79146C30.4615 6.18223 32.7004 4.06845 35.4651 4.06845Z" fill="#FEAA3A"/>
<path d="M47.3217 10.9142C46.9528 12.5908 44.575 21.848 35.6211 30.1699C35.0923 29.6769 34.5846 29.1814 34.098 28.6836C25.5388 19.9003 23.869 10.6395 23.869 10.6395C23.869 10.6395 22.0425 17.0228 26.3578 23.3163C28.8863 26.5798 31.8373 29.2975 34.342 31.3152C33.4363 32.0942 32.4672 32.8577 31.4347 33.6057C29.9235 32.4299 27.0142 32.5807 24.4262 34.0885C21.4515 35.8154 20.0356 38.6732 21.2532 40.47C21.7986 41.276 22.7882 41.7266 23.978 41.8289H23.9919C25.4476 41.9474 27.1987 41.5381 28.8268 40.5921C31.4783 39.0465 32.8903 36.6052 32.2954 34.8209C32.2954 34.733 32.2954 34.6791 32.2954 34.6684C33.0648 34.1711 34.2349 33.3759 35.6251 32.3186C37.0133 33.3759 38.1853 34.1711 38.9528 34.6684C38.9528 34.7455 38.7941 37.1456 40.3668 38.1616C41.9394 39.1776 47.2641 41.8361 47.2641 41.8361L47.5676 41.4088L41.7252 37.86C41.6419 37.8073 41.5841 37.7276 41.5638 37.6374C41.5435 37.5472 41.5622 37.4534 41.6161 37.3753C41.6425 37.3371 41.6771 37.3041 41.7179 37.2783C41.7586 37.2525 41.8047 37.2343 41.8534 37.2249C41.902 37.2156 41.9523 37.2151 42.0011 37.2237C42.05 37.2323 42.0964 37.2496 42.1377 37.2748L47.9801 40.8237L48.4818 40.1146L42.6394 36.5657C42.5561 36.513 42.4983 36.4333 42.478 36.3431C42.4577 36.2529 42.4764 36.1591 42.5304 36.0811C42.5567 36.0426 42.5914 36.0094 42.6324 35.9834C42.6733 35.9574 42.7196 35.9392 42.7685 35.9298C42.8174 35.9204 42.8679 35.92 42.9169 35.9288C42.966 35.9375 43.0126 35.9551 43.0539 35.9805L48.8963 39.5276L49.398 38.8186L43.5557 35.2697C43.4725 35.2173 43.4147 35.1381 43.394 35.0483C43.3734 34.9585 43.3915 34.8649 43.4446 34.7868C43.471 34.7484 43.5057 34.7152 43.5465 34.6892C43.5874 34.6632 43.6336 34.6448 43.6824 34.6353C43.7313 34.6258 43.7817 34.6252 43.8308 34.6336C43.8799 34.6421 43.9266 34.6594 43.9682 34.6845L49.8105 38.2334L50.1139 37.8043C50.1139 37.8043 45.3821 34.3524 43.7262 33.4136C42.2845 32.595 40.2954 33.4136 39.8154 33.6129C38.7822 32.8643 37.8164 32.096 36.9082 31.317C39.6495 29.1295 42.1337 26.6914 44.3212 24.0415C44.4421 23.8279 44.577 23.6017 44.7535 23.3486C48.5591 17.8144 47.6112 12.203 47.3217 10.9142Z" fill="#FEAA3A"/>
<path d="M48.187 21.9884C47.0673 23.5498 46.9207 24.7862 47.0872 25.6794C47.1976 26.3162 47.5214 26.9052 48.0134 27.364C48.2232 27.4624 51.4505 28.8854 53.9686 24.5196C53.9686 24.5196 50.5315 24.7462 48.8509 26.1209C48.9704 25.7681 49.0314 25.4007 49.0318 25.0312C49.0825 23.4548 48.187 21.9884 48.187 21.9884Z" fill="#FEAA3A"/>
<path d="M44.3249 26.0321C42.2434 28.4052 43.6237 30.2366 43.6237 30.2366H43.6357C43.6357 30.2366 45.7072 32.8971 50.8849 29.4179C50.8849 29.4179 46.9716 28.5264 44.8143 29.3244C45.6792 28.2858 45.813 26.8906 45.7711 25.9265C45.7587 25.5575 45.7174 25.1897 45.6473 24.8256C45.1595 25.187 44.7163 25.5913 44.3249 26.0321Z" fill="#FEAA3A"/>
<path d="M52.0505 18.5446C51.9665 16.5234 49.4977 14.8953 49.4977 14.8953C48.6368 18.9395 51.6394 19.8262 51.7384 19.8539C52.4313 19.8908 53.1232 19.7708 53.7358 19.5075C54.954 19.0053 56.4004 17.8189 57.0526 15.0529C56.0315 15.4251 55.0691 15.8937 54.1856 16.4489C53.3096 17.0031 52.4831 17.7115 52.0505 18.5446Z" fill="#FEAA3A"/>
<path d="M50.9279 22.5337C50.9939 20.4313 49.0179 18.4418 49.0179 18.4418C47.5039 22.6286 50.3203 24.0611 50.4232 24.1113C51.3302 24.155 52.2259 23.9096 52.9601 23.4165C53.9073 22.813 54.9011 21.7028 55.5106 19.6452C54.7525 19.9523 54.0172 20.3052 53.3095 20.7017C52.4283 21.2049 51.4947 21.8389 50.9279 22.5337Z" fill="#FEAA3A"/>
<path d="M18.3659 16.3139C18.3659 16.3139 20.1329 14.998 18.7389 10.6395C18.7389 10.6395 16.7489 13.3646 18.3659 16.3139Z" fill="#FEAA3A"/>
<path d="M22.6193 21.9884C22.6193 21.9884 21.6167 23.4535 21.6628 25.0335C21.6643 25.4027 21.7319 25.7696 21.8633 26.1223C20.0005 24.7488 16.1907 24.5224 16.1907 24.5224C18.9759 28.8843 22.5611 27.4625 22.7917 27.3643H22.8017C23.3478 26.9064 23.7069 26.3176 23.8284 25.6811C24.0309 24.7837 23.8605 23.5484 22.6193 21.9884Z" fill="#FEAA3A"/>
<path d="M25.2922 24.8256C25.2218 25.1897 25.1797 25.5575 25.1661 25.9265C25.1281 26.8906 25.2602 28.2893 26.1246 29.3244C23.9656 28.5264 20.0457 29.4179 20.0457 29.4179C25.2302 32.8971 27.3052 30.2366 27.3052 30.2366C27.3052 30.2366 28.6899 28.4052 26.6028 26.0321C26.2153 25.5918 25.7761 25.1875 25.2922 24.8256Z" fill="#FEAA3A"/>
<path d="M18.6595 19.8541C18.7486 19.8264 21.4534 18.9396 20.6765 14.8953C20.6765 14.8953 18.4541 16.5234 18.3805 18.5447C17.993 17.7116 17.2412 17.0032 16.4565 16.4472C15.6618 15.8922 14.7961 15.4236 13.8777 15.0512C14.4589 17.8224 15.7648 19.0037 16.8615 19.506C17.4127 19.7698 18.0355 19.8904 18.6595 19.8541Z" fill="#FEAA3A"/>
<path d="M20.5102 24.1106C20.6112 24.0604 23.4235 22.628 21.9144 18.4418C21.9144 18.4418 19.9372 20.4311 20.0033 22.5331C19.4322 21.8384 18.5 21.2046 17.6221 20.7104C16.9137 20.3144 16.178 19.9615 15.4197 19.654C16.0315 21.7113 17.0239 22.8214 17.9698 23.4248C18.7063 23.9151 19.6031 24.1572 20.5102 24.1106Z" fill="#FEAA3A"/>
<path d="M16.9617 44.8128V44.0711H22.4398V44.8128H20.143V50.9754H19.2585V44.8128H16.9617Z" fill="#384041"/>
<path d="M29.6637 47.5233C29.6637 48.2514 29.5246 48.8807 29.2464 49.4111C28.9682 49.9415 28.5866 50.3506 28.1016 50.6383C27.6165 50.9259 27.0625 51.0698 26.4396 51.0698C25.8167 51.0698 25.2627 50.9259 24.7776 50.6383C24.2926 50.3506 23.911 49.9415 23.6328 49.4111C23.3546 48.8807 23.2155 48.2514 23.2155 47.5233C23.2155 46.7951 23.3546 46.1658 23.6328 45.6354C23.911 45.105 24.2926 44.6959 24.7776 44.4083C25.2627 44.1206 25.8167 43.9767 26.4396 43.9767C27.0625 43.9767 27.6165 44.1206 28.1016 44.4083C28.5866 44.6959 28.9682 45.105 29.2464 45.6354C29.5246 46.1658 29.6637 46.7951 29.6637 47.5233ZM28.8077 47.5233C28.8077 46.9254 28.7019 46.4209 28.4903 46.0096C28.2811 45.5983 27.997 45.287 27.6379 45.0758C27.2813 44.8645 26.8818 44.7589 26.4396 44.7589C25.9974 44.7589 25.5967 44.8645 25.2377 45.0758C24.881 45.287 24.5969 45.5983 24.3853 46.0096C24.1761 46.4209 24.0715 46.9254 24.0715 47.5233C24.0715 48.1211 24.1761 48.6256 24.3853 49.0369C24.5969 49.4482 24.881 49.7595 25.2377 49.9708C25.5967 50.182 25.9974 50.2876 26.4396 50.2876C26.8818 50.2876 27.2813 50.182 27.6379 49.9708C27.997 49.7595 28.2811 49.4482 28.4903 49.0369C28.7019 48.6256 28.8077 48.1211 28.8077 47.5233Z" fill="#384041"/>
<path d="M31.1509 50.9754V44.0711H32.0354V50.2337H35.4307V50.9754H31.1509Z" fill="#384041"/>
<path d="M37.6847 44.0711V50.9754H36.8002V47.5233V44.0711H37.6847Z" fill="#384041"/>
<path d="M45.2501 44.0711V50.9754H44.3942L40.414 45.5545H40.3426V50.9754H39.4582V44.0711H40.3141L44.3086 49.5055H44.3799V44.0711H45.2501Z" fill="#384041"/>
<path d="M47.02 50.9754V44.0711H47.9045V47.4963H47.9901L51.2712 44.0711H52.4268L49.3596 47.1861L52.4268 50.9754H51.3568L48.8175 47.766L47.9045 48.7369V50.9754H47.02Z" fill="#384041"/>
<path d="M0.705929 54.839L2.35672 58.8381H2.42188L4.07267 54.839H4.77859L2.73683 59.5896H2.04176L0 54.839H0.705929Z" fill="#384041"/>
<path d="M6.8638 59.6639C6.4873 59.6639 6.15697 59.5873 5.87278 59.4342C5.59041 59.2811 5.36958 59.0669 5.2103 58.7917C5.05282 58.5164 4.97408 58.1947 4.97408 57.8267C4.97408 57.4555 5.05282 57.1316 5.2103 56.8548C5.36958 56.5779 5.59041 56.363 5.87278 56.2099C6.15697 56.0568 6.4873 55.9802 6.8638 55.9802C7.24029 55.9802 7.56973 56.0568 7.8521 56.2099C8.13628 56.363 8.35711 56.5779 8.51459 56.8548C8.67387 57.1316 8.75352 57.4555 8.75352 57.8267C8.75352 58.1947 8.67387 58.5164 8.51459 58.7917C8.35711 59.0669 8.13628 59.2811 7.8521 59.4342C7.56973 59.5873 7.24029 59.6639 6.8638 59.6639ZM6.8638 59.1721C7.14979 59.1721 7.3851 59.1095 7.56973 58.9842C7.75436 58.8589 7.89102 58.6942 7.97971 58.4901C8.0684 58.286 8.11275 58.0648 8.11275 57.8267C8.11275 57.5885 8.0684 57.3666 7.97971 57.1609C7.89102 56.9553 7.75436 56.789 7.56973 56.6622C7.3851 56.5354 7.14979 56.472 6.8638 56.472C6.57781 56.472 6.3425 56.5354 6.15787 56.6622C5.97324 56.789 5.83658 56.9553 5.74789 57.1609C5.6592 57.3666 5.61485 57.5885 5.61485 57.8267C5.61485 58.0648 5.6592 58.286 5.74789 58.4901C5.83658 58.6942 5.97324 58.8589 6.15787 58.9842C6.3425 59.1095 6.57781 59.1721 6.8638 59.1721Z" fill="#384041"/>
<path d="M11.5453 56.0266V56.4906H9.3841V56.0266H11.5453ZM10.014 55.173H10.6548V58.569C10.6548 58.7236 10.681 58.8396 10.7335 58.9169C10.7878 58.9927 10.8566 59.0437 10.9399 59.07C11.0249 59.0948 11.1145 59.1071 11.2087 59.1071C11.2792 59.1071 11.3372 59.1041 11.3824 59.0979C11.4277 59.0901 11.4639 59.0839 11.491 59.0793L11.6214 59.5711C11.5779 59.585 11.5173 59.5989 11.4394 59.6128C11.3616 59.6283 11.263 59.636 11.1435 59.636C10.9625 59.636 10.7851 59.6028 10.6113 59.5363C10.4394 59.4698 10.2964 59.3685 10.1823 59.2324C10.0701 59.0963 10.014 58.9247 10.014 58.7174V55.173Z" fill="#384041"/>
<path d="M12.5092 59.5896V57.8081V56.0266H13.1282V56.5648H13.1717C13.2477 56.3885 13.3853 56.2455 13.5844 56.1357C13.7835 56.0259 14.0079 55.971 14.2577 55.971C14.3048 55.971 14.3636 55.9717 14.4342 55.9733C14.5048 55.9748 14.5582 55.9771 14.5944 55.9802V56.537C14.5727 56.5323 14.5229 56.5254 14.4451 56.5161C14.369 56.5053 14.2885 56.4998 14.2034 56.4998C14.0007 56.4998 13.8197 56.5362 13.6604 56.6089C13.5029 56.68 13.378 56.779 13.2857 56.9058C13.1952 57.031 13.15 57.1741 13.15 57.3349V59.5896H12.5092Z" fill="#384041"/>
<path d="M16.9755 59.6639C16.5737 59.6639 16.2271 59.5881 15.9357 59.4365C15.646 59.2834 15.4225 59.07 15.265 58.7963C15.1094 58.521 15.0315 58.2009 15.0315 57.836C15.0315 57.471 15.1094 57.1493 15.265 56.871C15.4225 56.5911 15.6415 56.373 15.9221 56.2168C16.2045 56.0591 16.5339 55.9802 16.9104 55.9802C17.1276 55.9802 17.3421 56.0112 17.5539 56.073C17.7656 56.1349 17.9584 56.2354 18.1322 56.3746C18.306 56.5122 18.4444 56.6947 18.5476 56.922C18.6508 57.1493 18.7024 57.4293 18.7024 57.7617V57.9937H15.4877V57.5205H18.0507C18.0507 57.3195 18.0037 57.1401 17.9095 56.9823C17.8172 56.8246 17.6851 56.7001 17.5131 56.6089C17.343 56.5176 17.1421 56.472 16.9104 56.472C16.6552 56.472 16.4343 56.5261 16.2479 56.6344C16.0633 56.7411 15.9212 56.8803 15.8216 57.0519C15.7221 57.2236 15.6723 57.4076 15.6723 57.604V57.9195C15.6723 58.1886 15.7266 58.4167 15.8352 58.6038C15.9456 58.7894 16.0986 58.9309 16.2941 59.0283C16.4895 59.1242 16.7167 59.1721 16.9755 59.1721C17.1439 59.1721 17.2959 59.152 17.4317 59.1118C17.5693 59.07 17.6878 59.0082 17.7874 58.9262C17.8869 58.8427 17.9639 58.7391 18.0182 58.6154L18.6372 58.7638C18.572 58.9432 18.4625 59.101 18.3087 59.237C18.1548 59.3716 17.9648 59.4767 17.7385 59.5525C17.5122 59.6267 17.2579 59.6639 16.9755 59.6639Z" fill="#384041"/>
<path d="M23.5108 61C23.2013 61 22.9352 60.966 22.7126 60.8979C22.4899 60.8314 22.3044 60.7433 22.156 60.6335C22.0094 60.5252 21.8926 60.4093 21.8057 60.2855L22.3162 59.9793C22.3741 60.0443 22.4474 60.1185 22.5361 60.202C22.6248 60.2871 22.7461 60.3605 22.8999 60.4224C23.0556 60.4858 23.2592 60.5175 23.5108 60.5175C23.8475 60.5175 24.1253 60.4479 24.3444 60.3087C24.5634 60.1696 24.6729 59.9515 24.6729 59.6546V58.9309H24.6186C24.5715 58.9958 24.5046 59.0762 24.4177 59.1721C24.3326 59.2664 24.2095 59.3507 24.0484 59.4249C23.8891 59.4976 23.6737 59.534 23.4022 59.534C23.0655 59.534 22.7633 59.4659 22.4954 59.3298C22.2293 59.1937 22.0184 58.9958 21.8627 58.736C21.7089 58.4762 21.632 58.1607 21.632 57.7896C21.632 57.4246 21.7071 57.1068 21.8573 56.8362C22.0076 56.564 22.2166 56.3537 22.4845 56.2052C22.7524 56.0552 23.0619 55.9802 23.4131 55.9802C23.6846 55.9802 23.9 56.0189 24.0593 56.0962C24.2204 56.172 24.3435 56.2586 24.4285 56.356C24.5154 56.4519 24.5824 56.5308 24.6294 56.5926H24.6946V56.0266H25.3137V59.6917C25.3137 59.9979 25.2322 60.2469 25.0693 60.4386C24.9082 60.6319 24.691 60.7734 24.4177 60.8631C24.1462 60.9544 23.8439 61 23.5108 61ZM23.4891 59.0422C23.7461 59.0422 23.9633 58.9919 24.1407 58.8914C24.3181 58.7909 24.453 58.6463 24.5453 58.4576C24.6376 58.269 24.6837 58.0432 24.6837 57.7803C24.6837 57.5236 24.6385 57.297 24.548 57.1006C24.4575 56.9042 24.3235 56.7504 24.1462 56.639C23.9688 56.5277 23.7498 56.472 23.4891 56.472C23.2176 56.472 22.9913 56.5308 22.8103 56.6483C22.6311 56.7658 22.4963 56.9236 22.4058 57.1215C22.3171 57.3195 22.2727 57.5391 22.2727 57.7803C22.2727 58.0277 22.318 58.2466 22.4085 58.4368C22.5008 58.6254 22.6366 58.7739 22.8158 58.8821C22.9968 58.9888 23.2212 59.0422 23.4891 59.0422Z" fill="#384041"/>
<path d="M29.1148 58.1329V56.0266H29.7556V57.8081V59.5896H29.1148V58.9865H29.0714C28.9736 59.1675 28.8216 59.3213 28.6152 59.4481C28.4089 59.5734 28.1482 59.636 27.8333 59.636C27.5726 59.636 27.3409 59.5873 27.1382 59.4899C26.9355 59.3909 26.7762 59.2425 26.6603 59.0445C26.5445 58.845 26.4866 58.5937 26.4866 58.2906V56.0266H27.1273V58.2535C27.1273 58.5133 27.2124 58.7205 27.3826 58.8752C27.5545 59.0298 27.7735 59.1071 28.0396 59.1071C28.1989 59.1071 28.3609 59.0724 28.5256 59.0028C28.6922 58.9332 28.8315 58.8265 28.9438 58.6826C29.0578 58.5388 29.1148 58.3556 29.1148 58.1329Z" fill="#384041"/>
<path d="M30.9292 59.5896V56.0266H31.5699V59.5896H30.9292ZM31.255 55.4328C31.1301 55.4328 31.0224 55.3965 30.9319 55.3238C30.8432 55.2511 30.7989 55.1637 30.7989 55.0616C30.7989 54.9596 30.8432 54.8722 30.9319 54.7995C31.0224 54.7268 31.1301 54.6905 31.255 54.6905C31.3799 54.6905 31.4867 54.7268 31.5754 54.7995C31.6659 54.8722 31.7111 54.9596 31.7111 55.0616C31.7111 55.1637 31.6659 55.2511 31.5754 55.3238C31.4867 55.3965 31.3799 55.4328 31.255 55.4328Z" fill="#384041"/>
<path d="M34.3183 59.6639C33.9708 59.6639 33.664 59.5889 33.3979 59.4389C33.1318 59.2873 32.9237 59.0739 32.7734 58.7986C32.6232 58.5218 32.5481 58.1947 32.5481 57.8174C32.5481 57.4432 32.6232 57.1184 32.7734 56.8432C32.9237 56.5679 33.1327 56.3552 33.4006 56.2052C33.6685 56.0552 33.978 55.9802 34.3292 55.9802C34.6007 55.9802 34.8152 56.0189 34.9727 56.0962C35.1319 56.172 35.2532 56.2586 35.3365 56.356C35.4216 56.4519 35.4876 56.5308 35.5347 56.5926H35.589V54.839H36.2298V59.5896H35.6107V59.0422H35.5347C35.4876 59.1071 35.4207 59.1891 35.3338 59.2881C35.2469 59.3855 35.1229 59.4729 34.9618 59.5502C34.8007 59.626 34.5862 59.6639 34.3183 59.6639ZM34.4052 59.1721C34.6622 59.1721 34.8794 59.1149 35.0568 59.0004C35.2342 58.8845 35.3691 58.7244 35.4614 58.5203C35.5537 58.3146 35.5998 58.0772 35.5998 57.8081C35.5998 57.5421 35.5546 57.3094 35.4641 57.1099C35.3736 56.9089 35.2396 56.7527 35.0623 56.6413C34.8849 56.5285 34.6659 56.472 34.4052 56.472C34.1337 56.472 33.9074 56.5315 33.7264 56.6506C33.5472 56.7681 33.4124 56.9282 33.3219 57.1308C33.2332 57.3318 33.1888 57.5576 33.1888 57.8081C33.1888 58.0617 33.2341 58.2922 33.3246 58.4994C33.4169 58.7051 33.5527 58.869 33.7319 58.9912C33.9129 59.1118 34.1373 59.1721 34.4052 59.1721Z" fill="#384041"/>
<path d="M39.2408 59.6639C38.839 59.6639 38.4923 59.5881 38.2009 59.4365C37.9113 59.2834 37.6878 59.07 37.5303 58.7963C37.3746 58.521 37.2968 58.2009 37.2968 57.836C37.2968 57.471 37.3746 57.1493 37.5303 56.871C37.6878 56.5911 37.9068 56.373 38.1874 56.2168C38.4697 56.0591 38.7992 55.9802 39.1757 55.9802C39.3929 55.9802 39.6074 56.0112 39.8191 56.073C40.0309 56.1349 40.2237 56.2354 40.3975 56.3746C40.5712 56.5122 40.7097 56.6947 40.8129 56.922C40.916 57.1493 40.9676 57.4293 40.9676 57.7617V57.9937H37.7529V57.5205H40.316C40.316 57.3195 40.2689 57.1401 40.1748 56.9823C40.0825 56.8246 39.9504 56.7001 39.7784 56.6089C39.6083 56.5176 39.4073 56.472 39.1757 56.472C38.9204 56.472 38.6996 56.5261 38.5132 56.6344C38.3285 56.7411 38.1864 56.8803 38.0869 57.0519C37.9873 57.2236 37.9376 57.4076 37.9376 57.604V57.9195C37.9376 58.1886 37.9919 58.4167 38.1005 58.6038C38.2109 58.7894 38.3638 58.9309 38.5593 59.0283C38.7548 59.1242 38.982 59.1721 39.2408 59.1721C39.4091 59.1721 39.5612 59.152 39.697 59.1118C39.8345 59.07 39.9531 59.0082 40.0526 58.9262C40.1522 58.8427 40.2291 58.7391 40.2834 58.6154L40.9025 58.7638C40.8373 58.9432 40.7278 59.101 40.5739 59.237C40.4201 59.3716 40.23 59.4767 40.0038 59.5525C39.7775 59.6267 39.5232 59.6639 39.2408 59.6639Z" fill="#384041"/>
<path d="M45.7761 61C45.4666 61 45.2005 60.966 44.9778 60.8979C44.7552 60.8314 44.5697 60.7433 44.4212 60.6335C44.2746 60.5252 44.1579 60.4093 44.071 60.2855L44.5814 59.9793C44.6394 60.0443 44.7127 60.1185 44.8014 60.202C44.8901 60.2871 45.0113 60.3605 45.1652 60.4224C45.3209 60.4858 45.5245 60.5175 45.7761 60.5175C46.1128 60.5175 46.3906 60.4479 46.6096 60.3087C46.8286 60.1696 46.9381 59.9515 46.9381 59.6546V58.9309H46.8838C46.8368 58.9958 46.7698 59.0762 46.6829 59.1721C46.5979 59.2664 46.4748 59.3507 46.3137 59.4249C46.1544 59.4976 45.939 59.534 45.6675 59.534C45.3308 59.534 45.0285 59.4659 44.7606 59.3298C44.4946 59.1937 44.2837 58.9958 44.128 58.736C43.9742 58.4762 43.8972 58.1607 43.8972 57.7896C43.8972 57.4246 43.9723 57.1068 44.1226 56.8362C44.2728 56.564 44.4819 56.3537 44.7498 56.2052C45.0177 56.0552 45.3272 55.9802 45.6783 55.9802C45.9499 55.9802 46.1652 56.0189 46.3245 56.0962C46.4856 56.172 46.6087 56.2586 46.6938 56.356C46.7807 56.4519 46.8476 56.5308 46.8947 56.5926H46.9599V56.0266H47.5789V59.6917C47.5789 59.9979 47.4975 60.2469 47.3346 60.4386C47.1735 60.6319 46.9563 60.7734 46.6829 60.8631C46.4114 60.9544 46.1091 61 45.7761 61ZM45.7544 59.0422C46.0114 59.0422 46.2286 58.9919 46.406 58.8914C46.5834 58.7909 46.7182 58.6463 46.8105 58.4576C46.9029 58.269 46.949 58.0432 46.949 57.7803C46.949 57.5236 46.9038 57.297 46.8133 57.1006C46.7228 56.9042 46.5888 56.7504 46.4114 56.639C46.234 56.5277 46.015 56.472 45.7544 56.472C45.4829 56.472 45.2566 56.5308 45.0756 56.6483C44.8964 56.7658 44.7615 56.9236 44.671 57.1215C44.5823 57.3195 44.538 57.5391 44.538 57.7803C44.538 58.0277 44.5832 58.2466 44.6737 58.4368C44.7661 58.6254 44.9018 58.7739 45.081 58.8821C45.262 58.9888 45.4865 59.0422 45.7544 59.0422Z" fill="#384041"/>
<path d="M51.3801 58.1329V56.0266H52.0208V59.5896H51.3801V58.9865H51.3366C51.2389 59.1675 51.0868 59.3213 50.8805 59.4481C50.6741 59.5734 50.4135 59.636 50.0985 59.636C49.8379 59.636 49.6062 59.5873 49.4035 59.4899C49.2007 59.3909 49.0415 59.2425 48.9256 59.0445C48.8098 58.845 48.7518 58.5937 48.7518 58.2906V56.0266H49.3926V58.2535C49.3926 58.5133 49.4777 58.7205 49.6478 58.8752C49.8198 59.0298 50.0388 59.1071 50.3049 59.1071C50.4642 59.1071 50.6262 59.0724 50.7909 59.0028C50.9574 58.9332 51.0968 58.8265 51.209 58.6826C51.3231 58.5388 51.3801 58.3556 51.3801 58.1329Z" fill="#384041"/>
<path d="M56.1485 56.8246L55.5729 56.9638C55.5367 56.8818 55.4833 56.8022 55.4127 56.7248C55.3439 56.646 55.2498 56.581 55.1303 56.53C55.0109 56.479 54.8579 56.4534 54.6715 56.4534C54.4162 56.4534 54.2036 56.5037 54.0334 56.6042C53.8651 56.7032 53.7809 56.8292 53.7809 56.9823C53.7809 57.1184 53.8388 57.2259 53.9547 57.3048C54.0705 57.3836 54.2515 57.4494 54.4977 57.5019L55.1167 57.6318C55.4896 57.7092 55.7675 57.8275 55.9503 57.9867C56.1331 58.1445 56.2245 58.3478 56.2245 58.5968C56.2245 58.801 56.1557 58.9834 56.0182 59.1443C55.8824 59.3051 55.6923 59.4319 55.448 59.5247C55.2036 59.6175 54.9194 59.6639 54.5954 59.6639C54.1701 59.6639 53.818 59.585 53.5393 59.4273C53.2605 59.2695 53.084 59.0391 53.0098 58.736L53.618 58.6061C53.6759 58.7979 53.7854 58.9417 53.9465 59.0376C54.1094 59.1334 54.3221 59.1814 54.5846 59.1814C54.8832 59.1814 55.1204 59.1272 55.2959 59.019C55.4733 58.9092 55.562 58.7778 55.562 58.6247C55.562 58.5009 55.5113 58.3973 55.41 58.3138C55.3086 58.2288 55.1529 58.1654 54.943 58.1236L54.2479 57.9844C53.866 57.9071 53.5854 57.7873 53.4062 57.6249C53.2288 57.461 53.1401 57.2561 53.1401 57.0102C53.1401 56.8091 53.2062 56.6313 53.3383 56.4766C53.4723 56.322 53.6542 56.2006 53.8841 56.1125C54.1158 56.0243 54.3782 55.9802 54.6715 55.9802C55.0842 55.9802 55.4082 56.0576 55.6435 56.2122C55.8806 56.3668 56.0489 56.571 56.1485 56.8246Z" fill="#384041"/>
<path d="M59.0027 56.0266V56.4906H56.8415V56.0266H59.0027ZM57.4714 55.173H58.1122V58.569C58.1122 58.7236 58.1384 58.8396 58.1909 58.9169C58.2452 58.9927 58.314 59.0437 58.3973 59.07C58.4823 59.0948 58.5719 59.1071 58.6661 59.1071C58.7367 59.1071 58.7946 59.1041 58.8398 59.0979C58.8851 59.0901 58.9213 59.0839 58.9484 59.0793L59.0788 59.5711C59.0353 59.585 58.9747 59.5989 58.8969 59.6128C58.819 59.6283 58.7204 59.636 58.6009 59.636C58.4199 59.636 58.2425 59.6028 58.0687 59.5363C57.8968 59.4698 57.7538 59.3685 57.6398 59.2324C57.5275 59.0963 57.4714 58.9247 57.4714 58.7174V55.173Z" fill="#384041"/>
<path d="M61.1938 59.6731C60.9296 59.6731 60.6897 59.6306 60.4743 59.5456C60.2589 59.459 60.0879 59.3345 59.9612 59.1721C59.8345 59.0082 59.7711 58.8102 59.7711 58.5783C59.7711 58.3741 59.8182 58.2087 59.9123 58.0819C60.0064 57.9535 60.1322 57.853 60.2897 57.7803C60.4472 57.7076 60.621 57.6535 60.811 57.6179C61.0029 57.5808 61.1957 57.5514 61.3893 57.5298C61.6427 57.5019 61.8482 57.4811 62.0057 57.4671C62.1649 57.4517 62.2808 57.4262 62.3532 57.3906C62.4274 57.355 62.4645 57.2932 62.4645 57.205V57.1865C62.4645 56.9576 62.3912 56.7797 62.2446 56.6529C62.0998 56.5261 61.8799 56.4627 61.5848 56.4627C61.2789 56.4627 61.0391 56.5199 60.8653 56.6344C60.6915 56.7488 60.5694 56.871 60.4988 57.0009L59.8906 56.8153C59.9992 56.5988 60.144 56.4303 60.325 56.3096C60.5078 56.1875 60.7069 56.1024 60.9223 56.0545C61.1395 56.005 61.3531 55.9802 61.5631 55.9802C61.697 55.9802 61.8509 55.9942 62.0247 56.022C62.2002 56.0483 62.3695 56.1032 62.5324 56.1867C62.6971 56.2702 62.8338 56.3962 62.9424 56.5648C63.051 56.7334 63.1053 56.9591 63.1053 57.2421V59.5896H62.4645V59.1071H62.4319C62.3885 59.1845 62.3161 59.2672 62.2147 59.3554C62.1134 59.4435 61.9785 59.5185 61.8102 59.5804C61.6418 59.6422 61.4364 59.6731 61.1938 59.6731ZM61.2916 59.1814C61.545 59.1814 61.7586 59.1388 61.9324 59.0538C62.1079 58.9687 62.2401 58.8589 62.3288 58.7244C62.4193 58.5899 62.4645 58.4484 62.4645 58.2999V57.7989C62.4374 57.8267 62.3776 57.8522 62.2853 57.8754C62.1948 57.8971 62.0898 57.9164 61.9704 57.9334C61.8527 57.9489 61.7378 57.9628 61.6255 57.9751C61.5151 57.986 61.4255 57.9953 61.3567 58.003C61.1902 58.0215 61.0346 58.0517 60.8898 58.0935C60.7468 58.1337 60.6309 58.1947 60.5422 58.2767C60.4553 58.3571 60.4119 58.4669 60.4119 58.6061C60.4119 58.7963 60.4942 58.9401 60.659 59.0376C60.8255 59.1334 61.0364 59.1814 61.2916 59.1814Z" fill="#384041"/>
<path d="M66.0885 56.0266V56.4906H63.9273V56.0266H66.0885ZM64.5572 55.173H65.198V58.569C65.198 58.7236 65.2242 58.8396 65.2767 58.9169C65.331 58.9927 65.3998 59.0437 65.483 59.07C65.5681 59.0948 65.6577 59.1071 65.7518 59.1071C65.8224 59.1071 65.8803 59.1041 65.9256 59.0979C65.9708 59.0901 66.007 59.0839 66.0342 59.0793L66.1645 59.5711C66.1211 59.585 66.0604 59.5989 65.9826 59.6128C65.9048 59.6283 65.8061 59.636 65.6867 59.636C65.5057 59.636 65.3283 59.6028 65.1545 59.5363C64.9826 59.4698 64.8396 59.3685 64.7255 59.2324C64.6133 59.0963 64.5572 58.9247 64.5572 58.7174V55.173Z" fill="#384041"/>
<path d="M67.0524 59.5896V56.0266H67.6931V59.5896H67.0524ZM67.3782 55.4328C67.2533 55.4328 67.1456 55.3965 67.0551 55.3238C66.9664 55.2511 66.922 55.1637 66.922 55.0616C66.922 54.9596 66.9664 54.8722 67.0551 54.7995C67.1456 54.7268 67.2533 54.6905 67.3782 54.6905C67.5031 54.6905 67.6099 54.7268 67.6986 54.7995C67.7891 54.8722 67.8343 54.9596 67.8343 55.0616C67.8343 55.1637 67.7891 55.2511 67.6986 55.3238C67.6099 55.3965 67.5031 55.4328 67.3782 55.4328Z" fill="#384041"/>
<path d="M70.7239 56.0266V56.4906H68.4758V56.0266H70.7239ZM69.1491 59.5896V55.5349C69.1491 55.3307 69.2052 55.1606 69.3175 55.0245C69.4297 54.8884 69.5754 54.7864 69.7546 54.7183C69.9338 54.6503 70.1229 54.6163 70.322 54.6163C70.4795 54.6163 70.608 54.6271 70.7076 54.6487C70.8071 54.6704 70.8814 54.6905 70.9302 54.7091L70.7456 55.1823C70.713 55.173 70.6678 55.1614 70.6098 55.1475C70.5537 55.1336 70.4795 55.1266 70.3872 55.1266C70.1754 55.1266 70.0225 55.1722 69.9284 55.2635C69.836 55.3547 69.7899 55.4885 69.7899 55.6648V59.5896H69.1491Z" fill="#384041"/>
</svg>
